<svg width="385" height="85" viewBox="0 0 385 85" fill="none" xmlns="http://www.w3.org/2000/svg">
<path d="M355.936 44.886C357.182 44.886 358.297 44.886 358.231 46.1641C357.149 46.1641 356.067 45.9937 354.952 45.9724C354.723 45.9724 354.493 46.292 354.296 46.4624L354.067 46.6328V46.4198L356.034 47.2293C356.264 47.2293 356.625 47.3784 356.756 47.2293C358.133 46.5902 359.51 47.698 360.854 47.2293C361.053 47.1322 361.23 47.0175 361.379 46.8885L366.429 47.5063C366.625 48.2732 367.872 48.7632 367.412 49.6366C367.395 49.7578 367.425 49.8799 367.5 49.9916C367.574 50.1033 367.691 50.201 367.839 50.2757C368.497 50.5502 369 50.9563 369.272 51.4327C369.544 51.9092 369.571 52.4302 369.347 52.9173C368.942 54.1729 368.7 55.4485 368.626 56.7306C368.636 56.9272 368.582 57.1231 368.467 57.3052C368.352 57.4872 368.179 57.6512 367.958 57.7863C367.738 57.9213 367.476 58.0243 367.19 58.0884C366.903 58.1525 366.599 58.1762 366.298 58.1579C364.76 58.1257 363.226 58.2773 361.773 58.6053C359.967 58.7661 358.135 58.7661 356.329 58.6053C354.559 58.6053 352.69 58.3922 350.886 58.6053C349.607 58.6053 349.28 57.7531 348.23 57.5614L347.41 58.4348C346.82 58.3052 346.196 58.2545 345.574 58.2857C344.731 58.505 343.807 58.5569 342.918 58.4348C342.599 58.3814 342.267 58.3708 341.941 58.4035C341.616 58.4363 341.304 58.5118 341.025 58.6254C340.746 58.739 340.505 58.8884 340.317 59.0644C340.13 59.2404 340 59.4393 339.934 59.6491C339.628 60.3059 339.387 60.9748 339.213 61.6516C339.065 62.1512 339.065 62.6646 339.213 63.1642C340.1 65.5549 340.323 68.0296 339.869 70.4712C339.721 71.2422 339.721 72.0222 339.869 72.7932C340.196 73.4833 340.284 74.212 340.125 74.9267C339.966 75.6414 339.565 76.3243 338.951 76.926C338.951 78.0338 340.656 78.8646 340.459 80.0789C340.459 80.718 339.738 81.2506 338.754 81.1867C338.36 81.1867 338 81.0802 337.606 81.0376C336.635 80.7802 335.604 80.629 334.557 80.5902C331.914 80.4837 329.264 80.4837 326.622 80.5902C325.854 80.75 325.028 80.75 324.261 80.5902C322.474 80.2512 320.603 80.1427 318.752 80.2707C316.9 80.3499 315.043 80.1683 313.309 79.7381C312.435 79.5541 311.494 79.5541 310.62 79.7381C308.556 79.9892 306.428 79.9088 304.423 79.5038C303.975 79.4275 303.58 79.2558 303.301 79.0164C303.021 78.7769 302.874 78.4834 302.882 78.1829C302.882 78.1829 303.144 78.1829 303.21 78.1829C303.275 78.1829 303.21 78.183 303.21 78.0338L302.947 78.3321L300.094 79.6103L296.815 79.0138L294.192 79.7381L291.93 77.9699C291.019 78.5162 289.877 78.8724 288.651 78.9925C286.682 79.1012 284.729 79.315 282.814 79.6316C281.375 79.8239 279.892 79.8239 278.453 79.6316C275.528 79.325 272.537 79.412 269.665 79.8872C268.481 80.1839 267.197 80.2732 265.942 80.146C264.688 80.0189 263.506 79.6799 262.517 79.1629C261.665 79.5464 260.812 79.9724 259.927 80.3133C259.387 80.5659 258.753 80.7203 258.09 80.7606C256.285 80.6083 254.449 80.7473 252.746 81.1654C252.461 81.2416 252.154 81.2761 251.846 81.2666C251.539 81.257 251.238 81.2035 250.966 81.11C250.693 81.0165 250.456 80.8852 250.271 80.7254C250.085 80.5656 249.956 80.3812 249.893 80.1854C249.499 80.5476 249.204 81.0802 248.68 81.2293C247.507 81.6631 246.124 81.7925 244.81 81.5915C244.399 81.4679 243.938 81.4302 243.492 81.4836C243.045 81.537 242.636 81.6789 242.318 81.8897C241.942 82.0763 241.481 82.1774 241.007 82.1774C240.533 82.1774 240.072 82.0763 239.695 81.8897C239.007 81.6554 238.252 81.4849 237.4 81.2506C236.318 81.8684 235.236 82.8271 233.465 81.698L234.219 79.8233C231.621 79.4385 228.902 79.5951 226.448 80.2707C227.265 80.7388 228.224 81.0906 229.263 81.3034C230.303 81.5162 231.399 81.5854 232.481 81.5063L231.858 82.5501C230.986 82.4968 230.108 82.4968 229.235 82.5501C228.51 82.6806 227.815 82.874 227.169 83.1253L223.399 82.2732L222.087 83.0401C221.53 83.2744 221.136 82.891 220.677 82.8484C220.148 82.8211 219.622 82.7713 219.103 82.6992C218.618 82.577 218.157 82.4198 217.726 82.2306C217.234 82.8271 216.742 83.5727 215.267 83.3809C213.791 83.1892 213.266 82.9975 212.283 82.8058C211.299 82.614 210.512 83.6792 209.004 83.6579C207.036 83.6579 205.069 83.9561 203.397 83.1253C201.748 83.6684 199.882 83.8692 198.052 83.7005C198.052 83.7005 197.691 83.4662 197.658 83.3383C197.626 83.2105 197.658 82.9549 197.954 82.9123C198.773 82.6992 199.626 82.5288 200.478 82.3371C200.45 82.1636 200.395 81.9923 200.314 81.8258L199.232 80.8033C198.767 80.7119 198.265 80.7379 197.827 80.8761C197.39 81.0143 197.049 81.2545 196.871 81.5489C196.314 82.2306 195.986 82.9762 195.429 83.6792C195.304 83.8843 195.069 84.0532 194.768 84.1549C194.467 84.2567 194.119 84.2844 193.789 84.2331C193.461 84.1798 193.167 84.0605 192.949 83.8922C192.731 83.7238 192.6 83.5151 192.576 83.2957C192.496 83.044 192.502 82.784 192.592 82.5338C192.683 82.2836 192.856 82.0493 193.101 81.8471C193.513 81.6181 193.887 81.361 194.215 81.0802C194.576 80.7393 194.937 80.292 194.478 79.8872C194.373 79.7428 194.219 79.6156 194.028 79.515C193.836 79.4144 193.613 79.3431 193.374 79.3063C193.134 79.2695 192.885 79.2681 192.645 79.3023C192.405 79.3364 192.179 79.4053 191.986 79.5038C191.592 80.995 192.215 82.7419 190.248 84.2331L186.641 83.317L185.887 83.8496C184.936 84.51 184.411 84.5952 183.493 84.2757C182.575 83.9561 181.69 83.594 180.608 83.1892L179.165 84.2544L176.476 83.7431C176.476 83.0614 176.804 82.5075 177.001 81.911C176.345 81.208 175.623 80.718 174.115 81.0376C173.17 81.1342 172.207 81.1342 171.262 81.0376C170.689 81.3126 170.074 81.5482 169.426 81.7406C168.85 81.8467 168.323 82.0444 167.894 82.316C167.464 82.5875 167.146 82.9242 166.967 83.2957C166.815 83.5363 166.605 83.7593 166.344 83.9561C165.754 84.4887 165.491 84.4887 163.917 83.9561C162.639 84.2544 161.294 84.5952 159.753 85C158.54 84.7231 157.195 84.3396 155.818 84.1053C155.206 83.9251 154.529 83.8595 153.863 83.916C153.197 83.9724 152.568 84.1486 152.047 84.4248C152.047 84.5526 151.556 84.5526 151.326 84.5952C150.928 84.6331 150.522 84.5703 150.192 84.4197C149.863 84.2691 149.635 84.0422 149.555 83.7857C149.555 83.2105 149.555 82.6353 149.752 81.9962C147.007 81.496 144.103 81.496 141.358 81.9962C141.566 82.3534 141.709 82.7252 141.784 83.104C141.84 83.4315 141.724 83.7616 141.456 84.0413C140.866 84.4035 140.735 83.8283 140.374 83.7218C139.651 83.5667 138.903 83.4666 138.144 83.4235C138.144 83.104 137.587 82.7419 137.718 82.5075C138.172 81.8144 138.687 81.1387 139.259 80.4837L138.44 80.2281L135.161 82.4649L136.931 83.8709L138.341 83.317L138.013 84.5313C137.653 84.5313 137.39 84.7657 137.226 84.723C136.111 84.4674 135.029 84.1692 134.275 83.9774C133.915 83.2957 133.882 82.7205 133.423 82.4223C132.806 82.1183 132.064 81.9403 131.291 81.911C130.772 81.9158 130.277 82.0536 129.914 82.2945C129.291 82.7205 128.406 83.2318 128.373 83.7218C128.373 84.6165 127.652 84.7657 126.635 84.6378C125.792 84.5196 124.96 84.3702 124.143 84.1905C124.143 83.2531 125.127 83.104 125.75 82.5927L125.16 81.421C123.422 82.2732 123.422 82.2732 122.536 83.8709L121.848 83.7431C121.848 83.4448 122.077 83.1253 122.143 82.8058C122.208 82.4862 122.143 82.401 121.913 82.3584C121.576 82.2728 121.201 82.2728 120.864 82.3584C120.264 82.7212 119.694 83.1052 119.159 83.5087L120.471 84.51C118.776 84.6082 117.069 84.4477 115.487 84.0413C114.917 83.8198 114.265 83.7029 113.601 83.7029C112.937 83.7029 112.286 83.8198 111.716 84.0413C111.374 84.1861 110.976 84.2633 110.568 84.2633C110.16 84.2633 109.762 84.1861 109.42 84.0413C109.032 83.8761 108.727 83.6411 108.54 83.365C108.354 83.0889 108.295 82.7836 108.371 82.4862C108.371 82.3371 108.207 82.188 108.01 81.8471C107.322 82.8057 108.535 84.4035 105.617 84.3609L104.83 84.02C104.372 83.7527 103.771 83.6139 103.156 83.6339C102.542 83.6538 101.965 83.8309 101.551 84.1266C101.23 84.3426 100.83 84.5026 100.389 84.5919C99.9478 84.6813 99.479 84.6971 99.0259 84.6378C97.7164 84.4674 96.3679 84.4674 95.0584 84.6378C94.8288 84.6378 94.2714 84.51 94.1074 84.3183C93.5172 83.594 92.7303 84.1692 91.7794 84.1053L90.4349 81.9749C89.9103 82.6566 89.4184 83.3383 88.8938 83.9987C88.3692 84.6591 87.3527 84.3183 87.2543 83.9987C86.9592 82.9975 85.7132 82.4436 85.0246 81.6554C85.0246 81.6554 84.5 81.5489 84.3032 81.6554C84.1065 81.7619 83.9097 81.9323 83.9753 82.0388C84.2704 82.6566 85.3525 83.2105 83.9753 84.1692H81.2865C81.1118 83.6349 80.8249 83.1189 80.434 82.6353C79.8244 82.171 79.1308 81.7561 78.3682 81.3997C76.8599 81.911 78.1714 82.6992 78.1714 83.5301H79.2208C78.8601 84.4461 78.4994 84.4887 75.2204 83.8709C74.6957 83.2744 75.6466 82.9549 75.7778 82.4649C75.8744 82.2585 75.8468 82.036 75.7008 81.8423C75.5547 81.6485 75.301 81.498 74.9909 81.421C74.7502 81.3664 74.4923 81.3515 74.2405 81.3775C73.9887 81.4035 73.7508 81.4697 73.5481 81.5702C72.6778 82.0981 71.9662 82.7266 71.4495 83.4235C71.22 83.9348 70.0723 83.8283 69.6788 83.4235L68.4984 81.8897C66.7277 82.0388 65.2194 82.2093 64.0718 80.9524L66.6622 80.5689C67.154 79.8233 65.8424 79.802 65.4817 79.2268L67.2852 77.9699C65.744 77.4586 65.5473 76.3935 64.9571 75.4561C64.6055 75.6353 64.3563 75.8857 64.2493 76.1676C64.1424 76.4494 64.1837 76.7465 64.3669 77.0113C64.7435 78.0491 64.4849 79.1414 63.6455 80.0576L59.8418 79.2268C59.8418 78.9499 59.6451 78.4599 59.4811 77.8421L57.5465 77.0326C57.5465 76.4787 57.5465 75.9035 57.5465 75.3496C57.8481 75.0959 58.0709 74.8065 58.2023 74.4975C58.2023 73.7732 58.2024 73.0276 57.9728 72.3672C56.2677 72.1328 56.1366 73.1341 55.3496 73.6879H50.9885C51.8411 73.6879 52.6936 73.5601 53.5134 73.4323C53.7757 73.4323 53.9068 73.0489 54.1036 72.8571H54.3987V72.7506L54.0708 72.985C52.5952 72.985 52.7592 72.0902 52.0706 71.4937H47.1521C46.897 71.4666 46.6354 71.5016 46.4176 71.592C46.1998 71.6824 46.041 71.8219 45.9717 71.9837C44.2666 71.9837 44.2666 71.9837 43.1517 70.812C42.0713 70.949 40.9735 71.0203 39.8727 71.025C39.2445 70.9284 38.6742 70.7135 38.2332 70.4073C38.0365 70.3007 38.2332 69.9386 38.2332 69.7256C38.3056 69.6568 38.4038 69.6011 38.5186 69.5638C38.6334 69.5265 38.7608 69.5089 38.889 69.5125C40.2006 70.0238 41.6762 69.5125 43.0206 69.8108C43.0206 69.8108 43.1845 69.683 43.2828 69.619C42.8238 68.7456 41.3155 69.2782 40.5613 68.7243C41.545 67.6378 39.7088 67.3183 39.053 66.594C41.2499 66.104 43.578 66.7218 45.611 66.2105C47.6439 65.6992 49.8737 66.2105 51.9066 65.6566C51.8818 65.5107 51.8055 65.3703 51.6839 65.2465C51.5623 65.1227 51.3986 65.0187 51.2053 64.9425C51.012 64.8663 50.7943 64.8201 50.5691 64.8072C50.3439 64.7944 50.1172 64.8153 49.9064 64.8684C46.6406 65.1119 43.3567 65.24 40.0694 65.2519L39.3153 64.2293C39.3153 64.2293 38.9218 64.3358 38.8562 64.3998C38.7495 64.7 38.4847 64.9665 38.1074 65.1533C37.7302 65.34 37.2643 65.4352 36.7904 65.4223C35.8395 65.4223 34.9214 65.4223 34.0033 65.2945C32.7602 64.7924 31.2943 64.5749 29.839 64.6767C28.3836 64.683 26.9316 64.583 25.5107 64.3784L30.1997 64.2293C30.8555 64.2293 31.7408 64.2293 32.1343 64.1015C34.364 62.7168 37.1511 63.4837 39.6104 63.1855C40.6925 63.0576 41.3154 63.505 42.1024 63.9524L44.0042 62.4612C43.7747 62.3333 43.6436 62.1629 43.4796 62.1629H34.7246C37.2495 61.183 37.3479 61.1616 39.5448 61.4386C39.9111 61.4964 40.2934 61.4964 40.6597 61.4386C41.2171 60.3308 42.8566 60.8208 43.9387 60.5013C45.0208 60.1817 46.4963 60.2243 47.6768 59.9261C48.4973 59.682 49.4164 59.6148 50.2999 59.7343C50.8195 59.7947 51.3553 59.7417 51.8237 59.5838C52.2922 59.4258 52.6672 59.1717 52.8904 58.8609C53.4806 59.0313 54.2675 59.4361 54.6282 59.3083C55.5463 59.01 56.9563 59.3083 57.7105 58.3283C56.0734 58.1563 54.3957 58.3758 52.9887 58.9461C51.5329 58.9526 50.1107 58.662 48.9227 58.1153C48.4637 57.9661 48.3325 57.4123 47.9718 56.901C46.5291 57.0288 44.9879 57.2419 43.4468 57.3058C41.9057 57.3697 40.6269 57.3058 39.2497 57.3058C39.2497 56.0489 41.6761 57.114 41.545 55.9424L39.7416 55.5163L42.3976 54.792C42.537 55.0621 42.6358 55.3403 42.6926 55.6228C42.6926 56.0915 42.6926 56.5388 43.6435 56.5175C44.5945 56.4962 44.3977 56.1341 44.5289 55.7932C44.6208 55.4513 44.7636 55.116 44.9552 54.792C45.447 54.0464 45.9717 53.9612 47.7751 54.0464C48.2014 54.0464 48.6604 53.8333 49.1195 53.7055C50.1688 52.4699 50.136 52.0438 48.9556 51.2982C48.6932 51.1278 48.2342 51.0426 48.0374 50.8509C47.8407 50.6592 48.0374 50.4035 48.0374 50.1266C46.7258 50.3822 46.6274 51.1704 46.0044 51.6604L43.9715 50.9787C43.9715 50.6378 43.9715 50.3822 44.1354 50.1479C44.2994 49.9135 43.8403 49.807 43.6435 49.7218C42.2664 49.0827 40.3646 49.104 39.1513 48.2093C38.7578 47.9323 37.643 47.9962 36.856 48.0176C33.4331 48.1557 29.9978 48.0915 26.5927 47.8258C26.7567 47.6341 26.8878 47.3571 26.9534 47.3784C27.019 47.3997 27.9043 47.5915 28.3962 47.6128C28.7689 47.6021 29.126 47.5123 29.4127 47.3572C29.7078 47.1867 29.1504 46.6328 28.6585 46.6328C27.2158 46.6328 25.7402 46.6328 24.2974 46.505C23.6744 46.505 23.0842 46.505 22.1333 46.3559C25.4123 45.6103 28.6913 46.015 31.2489 44.9499C31.2489 44.9499 31.2489 44.7794 31.2489 44.609C29.8616 44.3605 28.4099 44.3025 26.9862 44.4386C25.4123 44.4386 23.7072 44.4386 22.2316 44.4386C19.484 44.5929 16.7225 44.2693 14.2309 43.5012C17.4848 43.4481 20.7098 43.0893 23.8056 42.4361C22.5596 42.3083 22.1661 42.223 21.7398 42.2017C19.8861 42.2417 18.0504 41.9546 16.4278 41.3709C15.8439 41.0769 15.1476 40.8918 14.4139 40.8355C13.6802 40.7792 12.9368 40.8538 12.2635 41.0514C11.9451 41.1114 11.6057 41.1046 11.2936 41.0319C10.9815 40.9593 10.7128 40.8244 10.5256 40.6466C10.0688 40.355 9.56279 40.0977 9.01726 39.8797L15.0834 38.985V38.6867L10.0665 38.4098C11.5832 38.0557 13.1773 37.8616 14.7883 37.8346C15.3312 37.8483 15.8673 37.7535 16.3247 37.563C16.782 37.3726 17.1385 37.0956 17.346 36.7694C14.067 36.2369 11.1486 37.2381 8.03358 36.7694C9.64029 36.4073 11.5749 36.7694 12.8865 35.5978L10.3617 35.193C11.0503 34.8734 12.0667 34.8947 12.1323 34.1917C11.9022 33.8843 11.5617 33.6173 11.1393 33.4134C10.717 33.2094 10.2254 33.0745 9.70587 33.02C9.17214 32.9672 8.69029 32.7827 8.36052 32.505C8.03075 32.2273 7.87843 31.8776 7.93521 31.5288C8.09916 30.6341 7.34499 30.3998 6.42687 30.3358C5.50875 30.2719 3.77087 30.3358 2.42648 30.3358C1.08209 30.3358 0.524641 30.3358 0 29.6754C0.983701 28.3759 3.80365 28.9724 4.91851 27.5451C4.36375 25.489 3.25365 23.5129 1.6395 21.708C2.03298 21.5589 2.52484 21.3246 3.21344 21.0263C2.45503 20.7413 1.8557 20.307 1.50206 19.7863C1.14842 19.2655 1.05877 18.6852 1.24604 18.1291L2.62321 17.2769H3.57413C3.57413 17.2769 3.80367 17.5752 3.96762 17.6178C4.13157 17.6604 4.3283 17.6178 4.52504 17.4687C4.43466 17.4126 4.32042 17.3755 4.19715 17.3622H3.47576C3.24623 16.9787 2.9839 16.9148 2.72158 17.3622C2.22973 17.1278 1.93462 16.7657 2.72158 16.5739C3.48928 16.4687 4.26711 16.3976 5.04967 16.3609C5.91176 16.1589 6.75484 15.9242 7.57452 15.6579C6.58359 15.0177 5.29013 14.6125 3.90202 14.5075L3.47576 13.4637C5.12068 13.6615 6.81871 13.543 8.36147 13.1228C9.68205 12.7104 11.1954 12.6418 12.5914 12.9311C12.697 12.9684 12.8154 12.9879 12.9357 12.9879C13.056 12.9879 13.1743 12.9684 13.28 12.9311C13.6121 12.7215 14.0089 12.5599 14.4441 12.4571C14.8792 12.3543 15.343 12.3126 15.8048 12.3346C18.7157 12.1428 21.6489 12.1428 24.5598 12.3346C24.8877 12.3346 25.4123 12.4837 25.6418 12.3346C27.4781 11.4612 29.8717 12.079 31.7736 11.3973C32.2876 11.3002 32.8335 11.3002 33.3475 11.3973C35.9207 11.7484 38.5782 11.7484 41.1515 11.3973C41.6762 11.3973 42.4959 11.802 43.3157 12.0789L44.2666 11.1416C48.3981 10.7795 48.3981 10.7794 50.3983 11.8446C50.3983 12.5689 50.1032 13.2719 49.972 13.9749C51.7755 14.614 51.7755 14.5927 52.8576 13.6767L50.2671 11.9085C50.3445 11.6113 50.581 11.3413 50.935 11.1464C51.2891 10.9515 51.7377 10.8442 52.2017 10.8433C52.9887 10.8433 53.7757 10.8433 54.5626 10.8433C55.3496 10.8433 56.1038 10.8434 56.9891 10.6942C57.317 10.8647 57.7105 11.2268 58.2023 11.3333C58.6942 11.4399 58.9565 10.9925 59.35 10.8008C59.6343 10.6399 59.9417 10.4972 60.2681 10.3747C60.5203 10.3275 60.7908 10.3454 61.0231 10.4249C61.2553 10.5043 61.4313 10.639 61.5142 10.8008C61.5142 11.376 61.7765 11.9937 60.7272 12.3559C59.0549 11.6103 57.4482 11.5464 56.5956 12.3559C56.5956 12.8246 56.7924 13.3785 56.9563 14.1667C58.7926 13.8258 59.4156 12.7181 60.8255 12.3346C61.1207 12.7181 61.6781 12.8459 61.9404 12.3346C62.2142 11.7802 62.401 11.2092 62.4978 10.6303C62.4978 10.6303 62.8913 10.4812 63.1208 10.4386C63.3504 10.396 63.4487 10.4386 63.4159 10.5664C62.8913 11.7168 64.7604 10.9925 65.3506 11.8872C65.3506 11.8872 65.3506 12.3985 65.5801 12.8672C65.2194 12.8672 64.7603 12.8672 64.498 12.9737C64.2357 13.0802 64.1701 13.3785 64.0062 13.5915C64.2931 13.7223 64.6159 13.8163 64.9571 13.8684C65.6785 13.8684 65.8096 13.6767 65.4817 12.8246C65.9139 12.6524 66.3013 12.4366 66.6294 12.1855C67.4491 11.312 68.1377 10.4173 68.9903 9.41603L70.8593 10.183L72.7939 11.0564C75.0291 11.1568 77.2502 10.7585 79.0896 9.92732L81.5816 10.8008C81.566 10.9639 81.566 11.1276 81.5816 11.2907C81.5816 12.3133 81.8112 12.3559 83.3851 11.8446C83.713 12.3772 84.0737 12.9098 84.3688 13.3998C85.3525 13.3998 85.8443 13.1015 85.6148 12.6541C85.3853 12.2068 85.2541 11.6742 84.336 11.5251L83.3195 11.9085V10.8221L86.7625 10.5877C86.992 10.1617 87.2543 9.62908 87.5166 9.0965C88.5659 9.35214 89.484 9.56516 90.3694 9.8208C91.2547 10.0764 91.0908 10.2469 91.4843 10.4386C91.8777 10.6303 92.4024 10.9925 92.6647 10.9286C94.0747 10.609 94.0746 11.4185 94.5665 11.8446C94.2842 11.9784 94.0306 12.136 93.8123 12.3133C93.8123 12.3133 93.8123 12.5902 94.0419 12.718C94.2714 12.8459 94.5337 12.6115 94.5337 12.5476C94.5831 12.3001 94.5831 12.0495 94.5337 11.802C94.7632 11.802 95.1567 11.6955 95.1567 11.6316C95.3863 10.3108 96.7306 9.84211 98.4357 9.75689C98.3871 9.91869 98.3871 10.0851 98.4357 10.2469C98.4357 10.5025 98.698 10.8008 99.1899 10.5664C99.6817 10.3321 99.4522 10.1616 99.5506 9.94862L98.5013 9.7356L99.7473 7.37094C100.829 7.37094 101.125 7.94611 101.354 8.41478C101.635 9.25538 102.353 10.0075 103.387 10.5451C104.469 10.5451 104.24 9.77819 104.731 9.41603C105.227 9.01958 105.677 8.59943 106.076 8.15915L106.863 9.33084L108.306 7.20051L109.781 8.28696L109.191 8.39349L109.453 8.58521L109.683 8.22306C110.076 8.22306 110.535 7.98874 110.83 8.07395C112.208 8.50002 113.06 8.07395 113.781 7.37094L114.896 6.24187C116.11 7.32834 115.88 8.52133 116.437 9.54388C117.083 9.76851 117.798 9.89653 118.53 9.91864C119.262 9.94076 119.992 9.8564 120.667 9.67169C121.454 9.56518 121.979 8.47871 121.553 7.90352C121.213 7.51795 120.818 7.15414 120.372 6.81703L123.651 7.43485C124.569 8.28698 123.946 9.20303 123.881 10.0765C124.143 10.0765 124.504 10.0765 124.569 10.0765C125.059 9.68143 125.417 9.2243 125.619 8.73435C125.619 8.28698 125.028 7.73309 126.078 7.43485C127.127 7.1366 127.553 7.64786 128.275 7.81829C128.275 8.58521 127.98 9.35213 127.816 10.2256C128.209 10.3747 128.635 10.7155 129.062 10.6942C129.708 10.682 130.33 10.5324 130.832 10.2682C131.362 9.89398 131.834 9.4873 132.242 9.05388L133.783 9.37345C135.226 9.18172 135.685 8.26567 136.571 7.62657C137.62 7.62657 138.702 8.11656 139.554 7.17922C140.367 6.42049 141.278 5.70784 142.276 5.04889L143.227 5.58147C143.752 5.24062 144.243 4.87844 144.702 4.5589L146.178 5.32581L150.736 4.17545C150.408 4.68673 149.555 5.11278 150.047 5.79449C149.523 5.79449 148.9 5.58145 148.506 5.79449C146.716 6.2825 144.755 6.44452 142.833 6.26316C140.44 7.54136 140.341 7.90352 140.177 8.79825C140.074 9.11609 140.144 9.4473 140.374 9.7356C140.735 10.0765 141.292 9.88472 141.751 9.7356C142.008 9.60584 142.309 9.51862 142.629 9.4815C142.949 9.44438 143.278 9.45847 143.588 9.52256C145.555 9.84211 146.112 9.75689 146.703 8.81955C147.101 8.08549 147.924 7.48154 148.998 7.1366C149.366 7.03306 149.665 6.84701 149.839 6.61238C150.014 6.37774 150.053 6.11013 149.949 5.85839L153.621 5.66667L156.113 3.70678C156.572 3.70678 157.195 3.83459 157.818 3.83459C158.503 3.76628 159.182 3.67382 159.851 3.55764L160.442 5.90101C159.991 5.8383 159.524 5.84211 159.076 5.91216C158.627 5.98221 158.209 6.11672 157.851 6.30578C158.081 7.26442 156.179 7.43485 155.982 8.4361C158.507 8.77695 159.819 7.73308 161.36 6.85965C160.934 6.47619 160.638 6.19927 160.311 5.94363L162.442 5.60277C162.442 6.60402 160.999 7.88221 163.622 8.56392C164.401 8.38951 165.157 8.17582 165.885 7.92481C166.278 7.77569 166.836 7.43485 166.409 7.0727C165.983 6.71054 166.606 5.96492 166.869 5.43234C168.082 5.43234 168.508 4.21806 170.148 4.58022L168.016 6.71054C168.246 7.47746 169.033 7.49874 169.82 7.28571C170.377 7.10064 170.905 6.87938 171.394 6.62531C172.246 6.62531 173.033 6.81704 173.82 6.85965C175.394 6.85965 175.46 6.85966 175.689 5.47495C176.159 5.614 176.64 5.73493 177.132 5.8371C177.624 5.8371 178.116 5.83709 178.378 5.98621C179.624 6.77443 177.984 7.37092 178.575 8.11653L180.804 8.45739C181.034 8.20176 181.296 8.03133 181.231 7.92481C181.165 7.8183 180.772 7.13661 180.608 6.71054C180.592 6.54121 180.674 6.3741 180.837 6.24187C181.048 6.18733 181.282 6.18733 181.493 6.24187C181.919 6.34839 182.182 6.75314 182.837 6.43359C183.574 6.10584 184.341 5.80706 185.133 5.53886C184.542 3.79199 184.542 3.792 187.821 2.91857L189.33 3.57896C190.576 3.57896 190.674 2.81204 191.363 2.47119C192.805 3.00377 191.986 3.62155 191.363 4.32456L187.789 4.66542C187.461 5.36842 188.149 5.62407 189.002 5.60277C190.046 5.57173 191.086 5.50058 192.117 5.38972C192.937 4.66541 193.822 3.8346 194.904 2.81205C195.232 3.21681 195.363 3.40854 195.527 3.57896C196.347 4.55891 196.609 4.5589 198.117 3.72807C198.806 3.87719 199.331 4.21804 200.085 3.55764C200.839 2.89724 200.839 3.55766 201.036 3.94111C201.232 4.32457 202.446 4.21806 202.642 3.94111C202.828 3.62605 202.949 3.2966 203.003 2.96115C203.082 2.18247 203.528 1.43853 204.282 0.830826C205.364 0.830826 204.708 1.49123 205.102 1.76817C205.495 2.04512 206.315 2.47119 205.823 3.11029C205.586 3.48637 205.421 3.87985 205.331 4.28197C206.146 4.35901 206.941 4.50957 207.692 4.72932C208.244 4.95141 208.89 5.0545 209.538 5.0239C210.186 4.99329 210.802 4.83055 211.299 4.5589C211.791 3.89849 210.906 3.60027 210.61 3.1529C210.477 2.99955 210.439 2.81843 210.507 2.64763C210.574 2.47682 210.74 2.3296 210.971 2.23685C211.341 2.44555 211.748 2.62438 212.184 2.76943C212.867 2.97962 213.568 3.16453 214.283 3.3233L214.48 4.68671L216.283 5.15538C216.283 5.47493 216.283 5.79451 216.054 6.11406C215.824 6.4336 216.054 6.85967 216.709 6.94488C217.21 6.98897 217.719 6.92135 218.152 6.75313C218.53 6.58689 218.837 6.36081 219.044 6.09618C219.25 5.83155 219.35 5.53711 219.333 5.24061C219.372 5.04704 219.475 4.86135 219.636 4.69649C219.797 4.53164 220.012 4.39161 220.265 4.28614C220.518 4.18066 220.803 4.11231 221.101 4.08583C221.398 4.05936 221.701 4.07539 221.989 4.13284C223.235 4.38848 224.481 4.72932 225.694 5.02757C226.027 5.39885 226.4 5.75475 226.809 6.09273C226.943 6.17389 227.106 6.23348 227.282 6.26677C227.459 6.30006 227.645 6.3061 227.825 6.28445C228.12 6.28445 228.514 5.87969 228.448 5.75187C228.231 5.40042 228.163 5.01778 228.249 4.64335C228.336 4.26891 228.574 3.9162 228.94 3.62155C229.277 3.25573 229.437 2.83276 229.399 2.40728C229.399 1.83209 228.645 1.53384 227.924 1.2995V0C228.235 0.277027 228.598 0.527543 229.006 0.745627C229.432 0.916053 229.957 1.02255 230.252 1.12907C230.907 1.64035 230.252 2.02381 230.252 2.42857C230.022 3.45113 230.678 3.87719 232.252 3.72807C233.557 3.6939 234.839 3.49113 236.023 3.13158C236.439 2.937 236.92 2.80865 237.427 2.75685C237.934 2.70505 238.453 2.73124 238.941 2.83334C239.445 2.9411 239.911 3.11353 240.311 3.3404C240.711 3.56728 241.037 3.84397 241.269 4.15413C241.63 4.6015 241.827 5.1128 242.154 5.58147C242.292 5.80413 242.513 6.00071 242.798 6.1531C243.083 6.30548 243.423 6.40874 243.786 6.45332C244.148 6.49791 244.523 6.48236 244.874 6.40817C245.225 6.33398 245.541 6.20352 245.794 6.02882C246.167 5.84776 246.452 5.60088 246.614 5.31759C246.777 5.0343 246.811 4.72656 246.712 4.43108C246.712 4.17544 246.975 3.85588 247.106 3.62155C248.352 3.62155 248.614 4.13285 249.008 4.51631C249.401 4.89977 249.401 5.32581 249.729 5.68796C249.842 5.76333 249.977 5.82325 250.126 5.86415C250.276 5.90505 250.436 5.92611 250.598 5.92611C250.76 5.92611 250.92 5.90505 251.069 5.86415C251.219 5.82325 251.354 5.76333 251.467 5.68796C252.287 5.13408 253.106 4.58022 253.861 3.98373C254.057 3.83461 253.861 3.49373 253.861 3.2594C253.861 3.02506 253.861 2.83335 255.303 2.91857C255.5 3.8133 255.697 4.70804 255.926 5.87972L258.287 4.17545L261.402 4.30327C261.261 4.72339 261.184 5.15154 261.173 5.58147C261.173 5.7732 261.599 5.96492 261.894 6.19925C262.694 5.90348 263.451 5.56124 264.157 5.17671C264.404 4.95219 264.726 4.76641 265.098 4.63298C265.47 4.49955 265.883 4.42183 266.307 4.4055C266.732 4.38916 267.156 4.43464 267.55 4.53858C267.944 4.64252 268.297 4.80231 268.583 5.00628C268.877 5.19236 269.271 5.29649 269.682 5.29649C270.092 5.29649 270.486 5.19236 270.78 5.00628C271.37 4.68673 272.059 4.28198 271.764 3.68549C271.647 3.43763 271.413 3.21991 271.095 3.06316C270.778 2.90641 270.392 2.81856 269.993 2.81205L266.124 2.64162C265.534 1.98121 266.124 1.59776 266.714 1.04387C268.676 1.45413 270.566 1.99676 272.354 2.66291L273.502 4.19674C273.862 4.30326 274.092 4.43108 274.354 4.43108H277.633C277.961 4.60151 278.224 4.85715 278.551 4.89975C280.027 5.13409 281.83 4.72933 283.044 5.49624C283.689 5.28552 284.431 5.23415 285.13 5.35169C285.83 5.46922 286.44 5.74768 286.847 6.13535C288.192 5.34713 289.897 5.15539 291.274 4.43108C291.914 4.81548 292.593 5.17135 293.307 5.49624C293.459 5.53525 293.624 5.54904 293.786 5.53636C293.948 5.52367 294.103 5.48491 294.236 5.42359C294.37 5.36227 294.478 5.28034 294.55 5.18516C294.623 5.08998 294.657 4.98458 294.651 4.87846C294.511 4.47249 294.324 4.07377 294.094 3.68549C294.553 3.23812 294.979 2.79073 295.373 2.36466H297.898C297.439 3.2594 298.225 3.79198 299.176 4.26065C299.093 4.64288 298.859 5.00465 298.497 5.31076C298.135 5.61687 297.658 5.85691 297.111 6.00753C297.111 5.87971 297.111 5.49626 296.652 5.81581L297.176 5.94363C297.176 6.51881 298.062 6.5401 298.619 6.68922C299.176 6.83834 300.226 6.68924 299.996 6.00753C299.901 5.76016 299.933 5.49945 300.087 5.26493C300.241 5.03041 300.508 4.83489 300.849 4.70803C301.996 4.13285 303.275 3.64286 304.488 3.13158C304.915 2.93985 305.702 2.76942 305.702 2.55638C305.702 1.21428 307.472 1.32081 308.751 1.04387C308.751 1.2569 308.981 1.49125 308.751 1.55516C308.036 2.02767 307.479 2.59181 307.118 3.21168C306.757 3.83154 306.598 4.4935 306.652 5.15538C305.8 5.66666 305.308 5.15538 304.751 5.15538C304.193 5.15538 303.964 5.49624 303.537 5.68796C303.881 5.91079 304.266 6.1041 304.685 6.26316C305.013 6.26316 305.439 6.15664 305.767 6.09273C307.144 6.77444 307.833 7.94611 309.735 8.22306C309.991 8.21309 310.239 8.16185 310.456 8.07395C311.079 7.49876 310.161 7.1792 309.899 6.73184C309.752 6.31061 309.554 5.89748 309.308 5.49624C308.95 4.92992 308.95 4.2944 309.308 3.72807C309.446 3.52899 309.674 3.36156 309.96 3.24756C310.247 3.13356 310.58 3.07828 310.915 3.08897C311.076 3.09752 311.23 3.13069 311.367 3.1857C311.504 3.24072 311.619 3.31603 311.702 3.40545C311.785 3.49487 311.834 3.59585 311.846 3.70008C311.857 3.80431 311.831 3.90882 311.768 4.00502C311.538 4.28196 311.21 4.53759 310.882 4.85714L312.03 5.36843L313.604 3.42983L316.522 3.2381C317.211 3.91981 317.867 4.55891 318.457 5.24061C319.047 5.92232 319.408 6.4123 319.9 7.00879C321.146 6.62533 321.277 5.7945 321.834 5.07018C321.146 4.58021 320.392 4.13284 319.769 3.60026C319.697 3.52796 319.649 3.44707 319.627 3.36244C319.605 3.27781 319.609 3.19116 319.64 3.10766C319.671 3.02415 319.727 2.9455 319.805 2.87641C319.884 2.80732 319.983 2.7492 320.096 2.70552C320.621 2.44988 321.703 2.5777 321.801 2.93986C322.482 4.10093 322.955 5.30893 323.211 6.54011H323.572C323.769 6.54011 324.097 6.36968 324.097 6.26316C324.074 5.87572 324.192 5.49025 324.443 5.13842C324.694 4.78658 325.07 4.47845 325.54 4.23936C325.9 4.06893 325.54 3.60025 325.015 3.42983C325.212 3.17419 325.015 2.72682 325.9 2.83334C326.786 2.93985 327.441 2.83333 328.196 2.96115C327.573 3.66416 328.196 4.28196 328.458 4.96366C330.425 5.62406 330.819 4.34587 331.737 3.83459C331.896 3.95182 332.071 4.05881 332.262 4.15413C332.589 4.26064 332.983 4.4524 333.245 4.40979C333.508 4.36718 333.967 4.06894 333.967 3.87721C333.967 3.21681 333.967 2.55641 333.967 1.74688C335.278 1.89601 334.95 2.66291 335.475 3.19549L338.131 3.8133C338.557 3.57896 338.885 3.1955 339.279 3.1742C340.184 3.18202 341.086 3.25343 341.967 3.38721C342.853 3.38721 343.705 3.66417 344.853 3.83459L345.837 5.53886C345.246 5.53886 344.689 5.02759 344 5.64538C344.307 6.16859 344.658 6.68062 345.05 7.17922C345.05 7.32834 345.64 7.37094 345.968 7.37094C346.296 7.37094 346.361 7.07269 346.328 6.96617C346.165 6.4549 345.935 5.96493 345.738 5.47495L348.23 5.98621C348.23 6.22054 348.23 6.5614 348.755 6.22055L348.132 6.05012L350.132 4.04764L350.558 6.73184C352.657 7.07269 352.755 7.03009 352.526 5.70929C353.018 5.58147 353.805 5.2193 354.1 5.32581C355.969 6.13534 358.658 5.47493 360.231 6.75313C361.182 6.604 362.133 7.11528 363.15 6.75313C363.912 6.54573 364.72 6.41639 365.543 6.36968C367.296 7.50769 368.346 9.02346 368.495 10.6303C368.855 10.6303 369.183 10.6303 369.347 10.6303C369.511 10.6303 370.495 10.183 369.872 9.88471C368.626 9.28822 369.15 8.28697 367.839 7.56266C368.79 7.37093 369.281 7.15789 369.675 7.2218C371.455 7.5358 373.278 7.73559 375.118 7.81829C375.413 7.81829 375.643 8.09524 376.135 8.39349C374.43 8.86216 371.577 7.8609 371.544 9.94862L375.053 10.8647C375.13 11.0002 375.166 11.1445 375.157 11.2891C375.148 11.4337 375.094 11.5756 374.999 11.7066C374.905 11.8376 374.771 11.9549 374.605 12.0518C374.44 12.1487 374.246 12.2231 374.036 12.2707C373.485 12.4018 372.88 12.4056 372.325 12.2814C371.77 12.1573 371.297 11.9128 370.987 11.589C369.478 12.5476 369.347 12.5476 368.199 11.7594C367.644 11.3242 367.271 10.8032 367.117 10.2469C366.823 9.72021 366.473 9.20766 366.068 8.71302C365.74 9.75688 365.511 10.5451 365.183 11.3333C365.183 11.4399 364.789 11.4825 364.527 11.589L366.593 12.1855C365.996 12.2621 365.394 12.3189 364.789 12.3559C364.068 12.3559 363.478 12.4837 363.314 12.995C363.15 13.5063 363.51 13.9963 364.527 14.0602L365.347 13.1228C366.527 12.8672 367.544 13.3998 368.626 13.5276V14.2519C368.9 14.3774 369.24 14.4277 369.572 14.3918C369.903 14.3559 370.199 14.2368 370.396 14.0602C371.033 13.5601 371.884 13.1939 372.841 13.0081C373.799 12.8223 374.819 12.8252 375.774 13.0163C376.315 13.0361 376.853 13.086 377.381 13.1654L372.397 13.7193L371.938 14.614C369.741 15.3383 367.248 14.614 364.789 15.104C365.511 15.7005 366.134 16.2118 366.822 16.7444C366.822 16.7444 366.658 16.9361 366.494 16.9787C365.034 17.5439 363.497 18.0216 361.904 18.406C361.182 18.5551 360.199 18.406 359.412 18.683L358.166 19.1943C358.789 19.8333 359.444 19.3647 360.1 19.4073L360.723 20.3446C361.454 20.2378 362.204 20.1948 362.953 20.2168C363.379 20.2168 363.773 20.5364 364.199 20.7281V20.6216C363.955 20.6707 363.723 20.7424 363.51 20.8346C363.019 21.0902 362.494 21.4098 362.887 21.8572C363.206 22.0614 363.636 22.1759 364.084 22.1759C364.532 22.1759 364.962 22.0614 365.281 21.8572C365.402 21.7597 365.489 21.6464 365.537 21.525C365.585 21.4037 365.592 21.2771 365.558 21.1539C365.523 21.0306 365.449 20.9136 365.339 20.8107C365.229 20.7078 365.086 20.6215 364.92 20.5577C365.347 19.3647 365.609 19.3007 367.412 20.0677C367.412 20.6428 365.937 20.7707 366.494 21.4524C366.691 21.7506 366.986 22.0063 367.281 22.3684L369.708 21.6015L370.2 22.5176C372.806 22.6065 375.419 22.4704 377.971 22.1128C378.463 21.4311 378.922 20.7494 379.381 20.089C379.719 20.1729 380.048 20.2725 380.365 20.3872C380.116 21.587 380.598 22.8024 381.709 23.7744C382.037 24.1792 382.889 24.4135 383.512 24.7331L383.184 26.1604C385.513 27.4599 384.988 29.2707 384.857 31.0601C383.283 31.5944 381.461 31.731 379.741 31.4436C378.922 31.4436 378.889 30.8045 378.397 30.5489C377.905 30.2932 377.741 30.5489 377.381 30.5489L377.577 31.1028C376.233 31.6993 375.348 30.8471 374.298 30.6128L372.757 31.3797C370.855 30.8045 372.233 29.7393 371.872 28.9298C370.527 28.802 370.987 29.6115 370.593 29.9524L369.544 29.7394C369.249 30.2506 368.954 30.7832 368.593 31.3797C366.757 29.7607 366.757 29.7607 363.969 30.0376C362.83 29.0993 361.34 28.366 359.641 27.9073C356.756 28.9085 356.756 28.9085 357.543 31.0601C356.854 31.4223 356.297 31.0601 355.674 30.9536L352.657 30.1654C352.657 29.2494 352.231 29.0576 351.444 29.3985C351.038 29.6086 350.654 29.8363 350.296 30.0802L349.05 29.4411C349.05 29.8672 348.722 30.1867 348.591 30.5063C347.509 31.0176 346.656 30.0376 345.542 30.3358L343.771 31.614C344.82 31.9336 344.886 32.6366 345.115 33.2544C346.033 33.6804 346.984 32.9348 348.132 33.4248C348.803 33.6173 349.533 33.7078 350.266 33.6894C350.999 33.6709 351.716 33.544 352.362 33.3183C352.526 33.3183 352.919 33.5739 353.575 33.9148H349.214C348.632 34.6303 348.265 35.411 348.132 36.2155C348.148 36.3365 348.204 36.454 348.294 36.5604C348.384 36.6668 348.508 36.7597 348.657 36.8333C348.838 36.8687 349.029 36.8775 349.216 36.8591C349.403 36.8407 349.582 36.7955 349.739 36.7268C349.968 36.5552 350.096 36.3362 350.099 36.109C350.099 35.9599 349.804 35.8108 349.739 35.6404C349.444 34.8734 349.739 34.6391 351.181 34.8734C352.727 34.9838 354.284 35.0194 355.838 34.9799L355.411 33.8935C355.76 33.7565 356.176 33.709 356.576 33.7602C356.976 33.8114 357.332 33.9577 357.575 34.1704C359.371 35.1993 360.64 36.5592 361.215 38.0689C361.215 38.495 361.543 38.8998 361.641 39.3258C361.756 39.888 362.083 40.4232 362.592 40.8839C363.101 41.3447 363.777 41.7168 364.56 41.9674C364.358 42.4558 364.358 42.9702 364.56 43.4587C362.998 43.3948 361.432 43.3948 359.871 43.4587C358.297 43.4587 356.592 43.8208 356.264 45.099L355.215 44.7794C354.723 44.6729 354.231 44.609 354.001 45.0351C353.977 45.0721 353.964 45.112 353.964 45.1523C353.964 45.1925 353.977 45.2324 354.001 45.2694C354.062 45.3444 354.147 45.4104 354.249 45.4632C354.351 45.5161 354.469 45.5547 354.595 45.5767C354.721 45.5987 354.853 45.6035 354.982 45.591C355.111 45.5784 355.235 45.5487 355.346 45.5037C355.572 45.3105 355.77 45.1036 355.936 44.886ZM348.788 41.8609H348.493H348.689L348.853 41.7544L348.788 41.8609ZM30.1668 13.7406C30.0362 13.7513 29.904 13.7513 29.7734 13.7406C29.2815 13.7406 28.7897 13.1441 28.2651 13.7406C28.2651 13.7406 28.2651 13.9323 28.2651 13.9536C28.3666 14.0302 28.4924 14.0917 28.6339 14.1338C28.7754 14.1759 28.9292 14.1978 29.0848 14.1978C29.2404 14.1978 29.3942 14.1759 29.5357 14.1338C29.6771 14.0917 29.803 14.0302 29.9046 13.9536L30.1668 13.7619L30.3636 13.6554L30.1668 13.7406ZM139.784 78.1404C140.735 77.8421 140.637 77.3521 140.21 76.8834C140.119 76.8272 140.011 76.7847 139.892 76.7589C139.773 76.7331 139.646 76.7247 139.522 76.7343C139.325 76.7343 139.03 77.0113 139.063 77.0752C139.095 77.1391 139.587 77.8208 139.882 78.2043H139.62L139.784 78.1404ZM375.872 23.0075C376.594 23.2632 377.217 23.8383 378.299 23.3271C378.085 23.0815 377.844 22.8465 377.577 22.6241C377.315 22.4537 376.922 22.2406 376.626 22.2619C376.331 22.2832 376.003 22.7306 376.003 23.0714C375.184 23.1779 374.2 23.0714 373.872 24.0088C374.495 24.0088 375.085 24.0088 375.38 23.8596C375.676 23.7105 375.807 23.2845 375.938 23.0075H375.872ZM90.3366 12.5902C90.3366 12.7607 90.107 13.0376 90.73 12.8672L90.2054 12.6541C90.1502 12.2397 90.0627 11.8273 89.9431 11.4185C89.9431 11.4185 89.484 11.2481 89.2873 11.2694C89.167 11.2918 89.0567 11.3324 88.9655 11.388C88.8743 11.4436 88.8047 11.5125 88.7627 11.589C88.5004 12.1642 88.8282 12.3559 90.3366 12.5902ZM335.114 36.0238C335.13 35.8535 335.13 35.6828 335.114 35.5125C335.129 35.4276 335.129 35.3418 335.114 35.2569C335.114 35.3847 334.819 35.5338 334.885 35.5978C335.012 35.7374 335.179 35.8602 335.377 35.9599C335.672 36.7907 336.524 37.0464 337.377 36.599C337.406 36.5666 337.421 36.5299 337.421 36.4925C337.421 36.4551 337.406 36.4183 337.377 36.386C337.377 36.2581 337.18 36.0238 337.049 36.0238C336.414 36.0238 335.779 36.0451 335.147 36.0877L335.114 36.0238ZM256.68 78.6303L257.303 78.9286C257.763 79.1629 258.287 79.2268 258.681 78.9286C258.93 78.7425 259.067 78.5041 259.067 78.2575C259.067 78.0109 258.93 77.7725 258.681 77.5864C258.253 77.4462 257.802 77.339 257.336 77.2669C256.992 77.4153 256.747 77.6425 256.65 77.9032C256.553 78.1638 256.611 78.4387 256.812 78.6729C256.287 78.886 255.861 79.099 256.549 79.6316C256.615 79.1629 256.648 78.9499 256.713 78.6516L256.68 78.6303ZM347.181 56.3258C345.869 56.3258 344.427 56.0276 343.148 56.901C343.672 57.4549 344.164 57.8596 345.246 57.6892L347.115 56.2619L349.444 56.0276C349.432 55.9136 349.381 55.8028 349.294 55.7038C349.206 55.6047 349.085 55.52 348.939 55.4562C348.794 55.3924 348.627 55.3512 348.453 55.3357C348.279 55.3203 348.102 55.3311 347.935 55.3672C347.115 55.495 347.214 55.9423 347.214 56.3471L347.181 56.3258ZM360.854 13.7193C360.854 13.8684 360.428 13.9962 360.428 14.1454C360.466 14.3548 360.566 14.5574 360.723 14.7418C360.723 14.7418 361.051 14.7418 361.084 14.7418C361.117 14.7418 361.609 14.3371 361.543 14.1667C361.477 13.9963 361.018 13.8897 360.756 13.7619C360.756 13.1867 360.756 12.5902 360.756 11.9937C360.756 11.3973 360.035 11.099 358.461 11.4399C358.789 12.3559 358.854 13.4211 360.887 13.6554L360.854 13.7193ZM161.393 81.2932L162.18 80.4624C160.245 79.8233 160.245 79.8233 159.163 80.4624L161.524 81.2293C161.065 81.3571 160.638 81.6341 160.179 81.6341C158.605 81.6341 156.9 81.6341 155.458 81.6341C154.549 81.7022 153.65 81.8161 152.769 81.9749C152.769 82.4436 152.769 82.7632 152.769 83.1679C154.671 82.9549 156.376 82.3371 158.179 82.9123C159.965 82.6992 161.8 82.7429 163.557 83.0401L164.147 82.0175C163.393 81.6341 162.475 81.1441 161.393 81.2932ZM114.011 10.2682C114.011 10.5238 113.781 10.7369 114.011 10.8647C114.142 11.0634 114.358 11.2334 114.634 11.3546C114.634 11.3546 115.159 11.1842 115.159 11.0777C115.568 9.94985 115.568 8.77569 115.159 7.64786L112.503 8.3722C110.962 8.79826 109.879 9.16042 110.994 10.7369C111.173 10.9705 111.37 11.198 111.585 11.4185C112.24 10.9925 112.076 9.8421 114.011 10.3108V10.2682ZM321.965 73.5601C320.687 74.604 320.523 74.7744 320.851 75.0088C321.355 75.3785 321.954 75.6884 322.621 75.9248C323.124 76.0213 323.659 76.0213 324.162 75.9248C325.646 76.0177 327.143 75.9457 328.589 75.7118C328.142 75.3166 327.553 74.999 326.872 74.7872C326.191 74.5754 325.441 74.4759 324.687 74.4975C324.147 74.545 323.598 74.4849 323.112 74.3251C322.626 74.1653 322.226 73.9134 321.965 73.6027V73.5601ZM21.084 33.1905C21.084 32.9348 21.084 32.807 20.8217 32.7857C19.7486 32.4838 18.5814 32.3496 17.4139 32.394C16.2465 32.4384 15.1113 32.6602 14.0997 33.0414C13.8046 33.0414 13.7063 33.6379 13.7063 33.9361C13.7063 34.2343 14.3293 34.2769 14.6244 34.2556C15.6411 34.1781 16.6488 34.0572 17.6411 33.8935C18.7231 33.7444 19.8052 33.4887 21.084 33.2331V33.1905ZM234.023 78.6729C234.677 78.7156 235.336 78.7156 235.99 78.6729C236.483 78.5944 236.935 78.4327 237.302 78.2043C237.418 78.1097 237.499 77.999 237.539 77.8808C237.579 77.7626 237.576 77.64 237.531 77.5225C237.531 77.3095 237.039 77.0326 236.81 77.0326C235.504 77.0603 234.202 77.1315 232.908 77.2456C232.647 77.2721 232.407 77.3529 232.224 77.4759C232.04 77.5989 231.924 77.7574 231.891 77.9273C231.891 78.2682 232.383 78.5877 233.236 78.6303C233.495 78.6695 233.758 78.6979 234.023 78.7155V78.6729ZM183.231 83.4235C184.051 82.8697 184.542 82.3797 185.657 82.7418C186.215 82.9123 186.706 82.5288 186.641 82.188C186.484 81.8816 186.187 81.6139 185.788 81.421C185.544 81.3658 185.278 81.3658 185.034 81.421L180.935 82.0814C180.935 82.9549 182.149 82.8697 183.231 83.4235ZM269.403 77.4373L273.764 78.2895C274.584 77.906 275.928 77.8847 275.731 76.8195C274.68 76.6038 273.57 76.5397 272.477 76.6317C271.384 76.7237 270.335 76.9695 269.403 77.3521V77.4373ZM190.707 77.6717C189.133 78.9286 186.936 78.4386 185.1 78.8434C184.853 78.8882 184.62 78.9602 184.411 79.0564C184.262 79.1854 184.182 79.3424 184.182 79.5038C184.182 79.5038 184.182 79.6316 184.444 79.6529C184.926 79.7738 185.436 79.8388 185.952 79.8446C187.362 79.6529 188.74 79.3972 189.986 79.1842C190.313 78.7794 190.576 78.4812 190.805 78.1616C190.792 77.9675 190.749 77.7747 190.674 77.5864L190.707 77.6717ZM71.8102 12.2281C71.6463 12.079 71.5151 11.7807 71.22 11.7168C70.9595 11.6279 70.6735 11.575 70.3801 11.5614C70.0866 11.5479 69.7919 11.5739 69.5147 11.638C69.2375 11.702 68.9837 11.8026 68.7693 11.9335C68.5549 12.0644 68.3845 12.2227 68.2689 12.3985C67.9082 12.7607 67.5803 13.208 68.2689 13.5489C68.9575 13.8897 69.4166 13.6554 69.7117 13.2293C70.0068 12.8033 70.3019 13.0163 70.6298 13.0589C71.3512 13.1228 71.4823 12.6115 71.7774 12.1428L71.8102 12.2281ZM345.181 34.3834C344.985 34.282 344.758 34.2092 344.515 34.17C344.272 34.1309 344.019 34.1264 343.773 34.1567C343.527 34.1871 343.294 34.2516 343.09 34.3459C342.885 34.4402 342.715 34.562 342.59 34.703C342.958 35.0415 343.267 35.406 343.509 35.7895C343.509 36.0664 343.213 36.4286 343.935 36.599C344.656 36.7694 344.82 36.3434 344.918 35.7043C345.017 35.0652 345.05 34.7669 345.148 34.2983L345.181 34.3834ZM332.983 4.60151C332.797 4.90911 332.724 5.24055 332.77 5.56961C332.815 5.89867 332.978 6.21633 333.245 6.4975C333.475 6.88096 333.868 7.07269 334.426 6.90227C334.588 6.84424 334.73 6.76509 334.843 6.66978C334.955 6.57447 335.037 6.46507 335.081 6.34839C335.508 5.38975 335.245 5.1767 332.983 4.60151ZM61.1535 75.4348C60.7928 75.6053 60.3009 75.6905 60.2025 75.8822C60.1458 75.9971 60.1403 76.1201 60.1868 76.237C60.2332 76.3539 60.3296 76.4599 60.4648 76.5426C60.9539 76.7993 61.5253 76.9813 62.1371 77.0752C62.3994 77.0752 62.8913 76.8835 62.9897 76.713C63.0731 76.6076 63.1166 76.4907 63.1166 76.3722C63.1166 76.2536 63.0731 76.1368 62.9897 76.0313C62.4129 75.7896 61.7972 75.5896 61.1535 75.4348ZM315.342 74.0501C317.145 75.2644 317.768 75.4348 318.621 75.0088C318.859 74.8251 318.977 74.5879 318.949 74.3484C318.949 74.2419 318.654 74.0075 318.49 74.0075C317.637 73.9862 316.752 74.0075 315.342 74.0501ZM212.152 78.0125H214.349C213.988 76.9687 213.988 76.9261 213.103 76.7769C212.601 76.7449 212.096 76.7449 211.594 76.7769C211.791 77.1604 211.922 77.416 212.02 77.6504C212.083 77.7678 212.127 77.8892 212.152 78.0125ZM266.157 77.3734C264.878 77.5652 263.829 77.693 262.878 77.8634C262.878 77.8634 262.878 78.1403 262.681 78.2895C262.484 78.4386 262.681 78.4173 262.878 78.4812C263.665 78.0125 264.353 78.4812 265.075 78.609C265.796 78.7368 266.321 78.6303 266.157 77.3734ZM242.089 79.5038C242.614 79.9511 243.073 80.3772 243.597 80.7819C243.597 80.7819 244.253 80.7819 244.286 80.7819C244.525 80.5162 244.661 80.2162 244.679 79.9085C244.694 79.8045 244.674 79.6996 244.62 79.6011C244.566 79.5027 244.48 79.4129 244.368 79.3381C244.256 79.2632 244.12 79.205 243.97 79.1674C243.82 79.1298 243.659 79.1137 243.499 79.1203C243.006 79.1541 242.528 79.2481 242.089 79.3972V79.5038ZM178.87 78.4812C179.156 78.1844 179.397 77.8705 179.591 77.5439C179.63 77.4428 179.63 77.3372 179.592 77.2361C179.553 77.1351 179.477 77.0416 179.371 76.964C179.264 76.8863 179.13 76.8267 178.98 76.7904C178.829 76.7541 178.668 76.7421 178.509 76.7556C178.022 76.7741 177.538 76.824 177.066 76.9048C176.902 77.7569 177.82 78.0764 178.87 78.4812ZM327.113 59.6491C328.556 59.6491 329.343 61.2043 331.114 60.5865C331.114 59.9261 330.72 59.5426 329.835 59.5213C328.892 59.5192 327.949 59.5619 327.015 59.6491H327.113ZM143.948 74.9022C144.682 75.0504 145.443 75.1364 146.211 75.1579C146.661 75.0801 147.077 74.9341 147.424 74.7318V74.5188C147.025 74.3664 146.575 74.2787 146.112 74.2631C145.362 74.4323 144.638 74.6462 143.948 74.9022ZM121.749 79.9937C120.897 79.3546 120.7 79.0564 120.438 79.0351C119.653 78.9822 118.862 78.9822 118.077 79.0351C118.077 79.0351 117.913 79.2907 117.749 79.4824L121.749 79.9937ZM149.949 78.609C151.097 79.0351 151.916 79.1842 152.572 78.396L150.506 77.1817C150.277 77.6717 150.146 78.0551 149.949 78.5451V78.609ZM150.769 80.3346C148.211 79.312 148.211 79.312 147.326 79.9937C148.014 80.9098 149.129 80.5263 150.769 80.2707V80.3346ZM162.737 77.8208V78.2043C163.622 78.2043 164.508 78.2043 165.393 78.0338C165.393 78.0338 165.754 77.7782 165.786 77.6078C165.819 77.4373 165.426 77.3521 165.295 77.3734C164.442 77.416 163.59 77.6077 162.737 77.7569V77.8208ZM239.302 78.7581C238.252 79.1416 237.597 79.5038 237.892 80.1642C237.892 80.3559 238.384 80.505 238.679 80.6754C239.027 80.4046 239.266 80.0817 239.375 79.7359C239.484 79.3901 239.459 79.0321 239.302 78.6942V78.7581ZM162.835 10.119C163.109 9.94565 163.351 9.75272 163.557 9.54388C163.557 9.54388 163.327 9.24563 163.163 9.20302C162.652 9.16136 162.134 9.16136 161.622 9.20302C161.622 9.20302 161.327 9.41606 161.261 9.54388C161.233 9.58011 161.218 9.62027 161.218 9.66103C161.218 9.7018 161.233 9.74195 161.261 9.77819L162.835 10.119ZM338.623 57.8596C338.918 57.2632 339.115 56.8158 339.443 56.1767C338.688 56.2832 338 56.1767 337.836 56.4323C337.672 56.688 337.606 57.3697 338.623 57.8596ZM313.309 5.9223C312.883 6.68922 312.85 6.73183 313.309 6.79574C313.768 6.85965 314.686 6.90226 315.407 6.96617V6.68922L313.309 5.9223ZM199.626 79.7381C199.626 79.589 199.626 79.3759 199.363 79.312C199.101 79.2481 197.822 79.4185 197.855 79.7381C197.897 79.8534 197.981 79.9603 198.101 80.0494C198.221 80.1386 198.373 80.2072 198.544 80.2494C199.232 80.3346 199.626 80.1216 199.757 79.7381H199.626ZM165.098 80.2068C164.868 79.6742 164.278 79.3972 163.753 79.589C163.642 79.6304 163.548 79.689 163.479 79.7596C163.411 79.8301 163.37 79.9105 163.36 79.9937C163.36 80.3985 164.278 80.7819 164.77 80.6115C165.262 80.4411 165.098 80.3346 165.229 80.2068H165.098ZM373.347 26.9486C372.2 26.8208 371.675 26.0539 370.626 26.4586C372.331 27.5877 372.331 27.5877 373.479 26.9486H373.347ZM76.8271 13.1228C78.1715 12.292 78.3027 12.0363 77.6469 11.6955C76.9911 11.3546 76.7615 11.6955 76.1713 11.6955C76.4336 12.3133 76.6304 12.6967 76.8271 13.1228ZM50.5951 57.2844C50.9148 57.2196 51.2145 57.1186 51.4804 56.9862C51.5424 56.9264 51.5755 56.8559 51.5755 56.7838C51.5755 56.7117 51.5424 56.6412 51.4804 56.5814C51.0213 56.3045 50.5622 56.4536 50.2015 56.7306C50.134 56.8619 50.134 57.004 50.2015 57.1353C50.2015 57.1353 50.2999 57.2632 50.5295 57.3271L50.5951 57.2844ZM355.936 10.7155C354.296 11.312 354.296 11.312 353.903 11.9298C354.788 11.8659 355.575 11.7381 355.936 10.7155ZM210.676 6.24187L211.693 5.66667C211.332 5.47494 211.037 5.19801 210.61 5.1128C210.184 5.02759 210.053 5.36841 209.758 5.51753L210.676 6.24187ZM165.754 8.71302C165.682 8.97369 165.682 9.2406 165.754 9.50127C165.754 9.65039 166.311 9.71428 166.606 9.8208C166.901 9.92732 166.803 9.37344 166.606 9.22431C166.409 9.07519 166.147 8.86215 165.754 8.71302ZM298.16 8.60653C298.313 8.48863 298.425 8.35052 298.488 8.20177C298.488 7.88222 298.488 7.52006 297.963 7.49875C297.796 7.51931 297.637 7.56458 297.501 7.63105C297.365 7.69753 297.253 7.78343 297.176 7.8822C296.947 8.24435 297.34 8.45741 297.832 8.60653H298.16ZM324.064 33.7018L323.048 33.2331C323.048 33.4248 322.523 33.6165 322.556 33.787C322.607 33.8909 322.702 33.9836 322.829 34.0549C322.956 34.1263 323.111 34.1736 323.277 34.1917C323.441 34.1917 323.671 33.9148 323.998 33.7018H324.064ZM222.185 80.8885C221.866 80.6743 221.515 80.4816 221.136 80.3133C221.136 80.3133 220.513 80.4198 220.513 80.505C220.46 80.747 220.529 80.9937 220.71 81.208C220.83 81.2759 220.971 81.3262 221.124 81.3556C221.277 81.385 221.437 81.3928 221.595 81.3784C221.693 81.2932 221.857 81.1441 222.12 80.8885H222.185ZM180.312 74.4975C179.886 74.6679 179.591 74.7318 179.493 74.8596C179.394 74.9874 179.788 75.5627 180.345 75.5414C180.903 75.5201 180.903 75.307 181.198 75.1792L180.312 74.4975ZM244.942 77.0326C245.696 77.3734 246.384 77.0326 247.106 77.0326C247.106 77.0326 247.303 76.8622 247.303 76.8409C247.303 76.8195 247.007 76.5426 246.843 76.5426C246.122 76.6065 245.302 76.4787 244.942 77.0326ZM137.161 77.6078L138.079 77.0539C137.849 76.9047 137.62 76.6704 137.39 76.6491C137.269 76.6461 137.147 76.6595 137.034 76.6884C136.92 76.7173 136.817 76.7612 136.731 76.8172C136.645 76.8732 136.577 76.9401 136.533 77.0138C136.488 77.0876 136.468 77.1665 136.472 77.2456C136.472 77.2456 136.8 77.5012 137.161 77.693V77.6078ZM298.619 77.7995C298.619 77.7995 298.619 77.6077 298.422 77.5864C298.01 77.451 297.583 77.3371 297.143 77.2456C297.143 77.2456 297.143 77.3734 297.143 77.4373C297.152 77.5205 297.185 77.6017 297.243 77.6761C297.301 77.7505 297.381 77.8166 297.479 77.8704C297.577 77.9241 297.691 77.9644 297.814 77.9888C297.936 78.0132 298.065 78.0213 298.193 78.0125C298.225 78.0977 298.422 77.9486 298.619 77.8847V77.7995ZM357.051 6.34839C356.778 6.18783 356.481 6.0451 356.165 5.9223C356.165 5.9223 355.706 5.9223 355.477 5.9223C355.581 6.05446 355.714 6.17638 355.87 6.28445C356.086 6.37262 356.317 6.44413 356.559 6.4975C356.61 6.51282 356.666 6.52074 356.723 6.52074C356.78 6.52074 356.835 6.51282 356.887 6.4975C356.887 6.4975 356.985 6.54011 357.051 6.43359V6.34839ZM183.001 7.69048C183.321 7.58555 183.628 7.46446 183.919 7.32832C183.919 7.32832 183.919 7.0727 183.919 6.94488C183.919 6.81706 183.69 6.94488 183.591 6.94488C183.246 6.99847 182.915 7.08458 182.608 7.20051C182.608 7.20051 182.608 7.49874 182.608 7.64786C182.608 7.79698 182.837 7.7118 183.001 7.77571V7.69048ZM288.618 8.09524C288.83 7.89582 289.006 7.6814 289.143 7.45614C289.143 7.45614 288.716 7.13659 288.585 7.15789C288.284 7.26665 288.008 7.40297 287.765 7.56266L288.618 8.09524ZM205.889 74.6892C206.213 74.8948 206.649 75.0099 207.102 75.0099C207.555 75.0099 207.991 74.8948 208.315 74.6892C208.148 74.5902 207.952 74.5138 207.739 74.4645C207.526 74.4151 207.3 74.3938 207.074 74.4017C206.849 74.4097 206.627 74.4467 206.424 74.5107C206.22 74.5747 206.038 74.6643 205.889 74.7744V74.6892ZM181.854 79.7381L182.804 80.0789C182.804 79.9298 183.1 79.7807 183.067 79.6316C183.034 79.4824 182.772 79.1629 182.313 79.2907C181.854 79.4185 182.149 79.6316 181.854 79.8233V79.7381ZM111.716 82.5075L110.83 82.0814C110.83 82.2093 110.47 82.4223 110.535 82.4862C110.773 82.6654 111.037 82.8294 111.322 82.9762L111.716 82.5075ZM204.184 81.5702C204.184 81.9749 204.971 82.3371 205.2 82.188C205.44 82.0207 205.57 81.7988 205.561 81.5702C205.561 81.4211 205.069 81.2506 204.807 81.2506C204.544 81.2506 204.348 81.5702 204.184 81.6554V81.5702ZM335.016 43.8634L334.655 43.4587C334.342 43.5995 334.056 43.764 333.803 43.9486C333.803 43.9486 333.803 44.3108 333.999 44.3747C334.196 44.4386 334.885 44.3534 335.016 43.9486V43.8634ZM346.165 35.619C346.165 35.9173 345.837 36.109 345.935 36.1942C346.173 36.3734 346.436 36.5375 346.722 36.6842C346.722 36.6842 347.148 36.386 347.115 36.3647C346.803 36.1277 346.464 35.9069 346.099 35.7043L346.165 35.619ZM182.214 75.4348L183.854 76.99C183.591 76.2869 183.887 75.7331 182.149 75.52L182.214 75.4348ZM188.543 76.7982L189.297 76.9687C190.215 77.0965 191.199 76.8408 190.707 76.7343C190.076 76.6808 189.436 76.6808 188.805 76.7343C188.805 76.7343 188.707 76.8408 188.477 76.8834L188.543 76.7982ZM19.838 36.7055V36.8973H21.4775V36.7055H19.838ZM53.3494 68.8095C53.3494 68.8095 53.3494 68.6178 53.1855 68.6178C53.0215 68.6178 52.4313 68.6178 52.2346 68.7669C52.0378 68.916 51.9722 69.1717 51.9066 69.3847C51.9274 69.4219 51.9624 69.4551 52.0083 69.4812C52.0541 69.5073 52.1094 69.5254 52.169 69.5338C52.3197 69.5367 52.4698 69.5202 52.6107 69.4853C52.7516 69.4504 52.8806 69.3979 52.9902 69.3306C53.0998 69.2633 53.188 69.1827 53.2496 69.0933C53.3113 69.0039 53.3452 68.9074 53.3494 68.8095ZM48.2342 62.1203C48.2342 62.1203 48.4309 61.9925 48.4309 61.9072C48.4309 61.822 48.4309 61.1403 48.4309 60.7569H48.2014C48.2014 61.1403 48.2014 61.5238 48.2014 61.9286C48.0702 62.1203 48.2014 62.1203 48.2342 62.1203ZM191.33 74.9022C191.133 74.9022 190.904 75.0514 190.805 75.1792C190.707 75.307 190.969 75.3922 191.068 75.4987L191.756 75.2005L191.33 74.9022ZM48.3981 67.1692L48.1686 66.9774L47.4472 67.4887C47.6767 67.4887 47.939 67.6378 48.103 67.4887C48.2669 67.3396 48.2998 67.297 48.3981 67.1479V67.1692ZM335.77 61.7581C335.409 61.5877 335.114 61.4386 334.786 61.3108C334.458 61.1829 334.557 61.4599 334.557 61.5025C334.713 61.6793 334.9 61.8437 335.114 61.9925C335.346 61.9225 335.566 61.8368 335.77 61.7369V61.7581ZM340.525 3.85588L339.803 4.00502V4.15413C340.157 4.22415 340.519 4.27407 340.885 4.30327C340.885 4.30327 341.115 4.11153 341.246 4.02631L340.525 3.85588ZM56.3989 71.6216V71.8346H57.6121C57.6121 71.8346 57.8089 71.8346 57.9072 71.6855C58.0056 71.5363 57.6449 71.4298 57.4809 71.4298C57.1098 71.4536 56.7456 71.5109 56.3989 71.6002V71.6216ZM360.559 21.0902C360.559 20.9624 360.559 20.7494 360.231 20.7068C359.904 20.6642 359.838 20.7068 359.608 20.7068C359.379 20.7068 359.805 21.005 360.002 21.0902C360.199 21.1755 360.363 21.1115 360.559 21.0689V21.0902ZM113.29 81.8897C113.116 82.0556 112.972 82.2344 112.863 82.4223L113.06 82.614L113.945 82.188L113.29 81.8897ZM358.854 26.0326C358.658 25.8622 358.526 25.6491 358.395 25.6704C358.067 25.6958 357.746 25.7532 357.444 25.8409C357.444 25.9474 357.707 26.1391 357.838 26.1391C358.16 26.1295 358.48 26.0937 358.789 26.0326H358.854ZM361.641 25.713L361.215 25.9048L362.002 26.3308C362.002 26.3308 362.199 26.1817 362.002 26.1604C361.877 26.0046 361.735 25.8551 361.576 25.713H361.641ZM151.523 6.73184C151.326 6.73184 151.064 6.58271 150.9 6.73184C150.736 6.88096 150.67 6.96617 150.572 7.09399C150.473 7.22181 151.031 7.24312 151.162 7.20051C151.293 7.1579 151.424 6.73184 151.523 6.73184ZM356.329 39.5175V39.3471H354.952V39.5175H356.329ZM332.491 36.8973H332.262V37.792H332.491V36.8973ZM46.4307 14.2732L47.1849 14.0388C46.8367 13.8953 46.4622 13.7808 46.07 13.698C46.07 13.698 45.7749 13.8684 45.611 13.9749L46.4307 14.2732ZM177.394 79.7594L177.066 79.3759C177.066 79.3759 176.771 79.3759 176.771 79.525C176.758 79.6669 176.758 79.8092 176.771 79.9511L177.394 79.7594ZM170.836 79.4611C170.637 79.3773 170.414 79.3194 170.18 79.2907C170.18 79.2907 169.951 79.4824 169.82 79.589C169.689 79.6955 170.246 79.7594 170.443 79.7381C170.639 79.7168 170.771 79.525 170.902 79.4185L170.836 79.4611ZM308.554 34.7243V34.49V34.7882V34.7243ZM71.5807 78.7155L71.3839 78.5025L71.1544 78.6729C71.2557 78.7691 71.3652 78.8616 71.4823 78.9499L71.5807 78.7155ZM338.885 35.7043L338.59 35.8534C338.658 36.0071 338.745 36.1568 338.852 36.3008C338.97 36.1648 339.069 36.0222 339.147 35.8747C339.147 35.8747 338.983 35.7682 338.885 35.7043ZM351.706 35.7043C351.706 35.7043 351.345 35.8534 351.345 35.9386C351.354 36.0729 351.41 36.2041 351.509 36.3221C351.509 36.3221 351.903 36.1942 351.903 36.109C351.876 35.994 351.809 35.8846 351.706 35.7895V35.7043ZM358.264 23.2419C358.1 23.2419 357.903 23.0288 357.707 23.0288C357.51 23.0288 357.313 23.1567 357.116 23.2206C356.92 23.2845 357.477 23.4336 357.674 23.4336C357.871 23.4336 358.067 23.4123 358.264 23.3271V23.2419ZM358.821 24.3283C358.821 24.3283 358.821 24.3283 358.821 24.5201C358.821 24.7118 358.821 24.6479 358.821 24.7118C358.821 24.7757 359.018 24.7118 359.018 24.5414C358.967 24.4905 358.9 24.447 358.821 24.4135V24.3283ZM355.051 26.1178L354.657 26.3947C354.887 26.3947 355.116 26.5652 355.313 26.5439C355.51 26.5226 355.575 26.3734 355.706 26.2669L355.051 26.1178ZM368.527 27.2256V27.0125H368.232V27.2043L368.527 27.2256ZM376.659 27.6942V27.4812L376.397 27.609L376.692 27.9286L376.659 27.6942ZM226.186 74.4123L225.989 74.2205C225.865 74.3393 225.766 74.4682 225.694 74.604C225.694 74.604 225.694 74.7318 225.923 74.7744L226.186 74.4123ZM47.3161 68.5113V68.916C47.3993 68.8688 47.4664 68.8108 47.5128 68.7456C47.5457 68.6762 47.5457 68.602 47.5128 68.5326L47.3161 68.5113ZM49.8409 68.9799H49.513C49.0867 68.9799 49.0867 69.1504 49.513 69.2569C49.5649 69.271 49.6207 69.2782 49.6769 69.2782C49.7332 69.2782 49.7889 69.271 49.8409 69.2569C49.8409 69.2569 49.8081 69.0865 49.8409 69.0226V68.9799ZM204.61 70.0664C204.61 69.9599 204.315 69.8108 204.118 69.7895C203.921 69.7682 203.692 69.7895 203.495 69.9599C203.67 70.0967 203.881 70.2122 204.118 70.3007C204.118 70.3007 204.446 70.1942 204.61 70.109V70.0664ZM60.3337 73.9862V73.7945C60.3337 73.7945 60.1042 73.7945 60.1042 73.901C60.1719 74.0072 60.26 74.1074 60.3665 74.1992L60.3337 73.9862ZM54.3003 71.8559L54.5955 71.7494C54.5955 71.7494 54.3987 71.6003 54.3331 71.6216C54.2675 71.6429 54.0708 71.7281 53.9396 71.7707L54.3003 71.8559ZM175.099 71.8559V71.7494H174.705L175.099 71.8559ZM60.8583 72.3459V72.218H60.5632C60.614 72.2944 60.6801 72.366 60.7599 72.4311C60.7599 72.4311 60.8255 72.2819 60.8255 72.2393L60.8583 72.3459ZM352.985 43.6078H352.624C352.624 43.6078 352.624 43.7143 352.624 43.7782H352.985C352.985 43.7782 353.05 43.5651 353.083 43.5012L352.985 43.6078ZM195.593 77.5225C195.593 77.5225 195.593 77.3521 195.363 77.3521L194.707 77.4586L195.297 77.6504C195.297 77.6504 195.593 77.4586 195.691 77.416L195.593 77.5225ZM301.701 77.0326C301.685 77.1815 301.685 77.331 301.701 77.48C301.701 77.48 301.701 77.5864 301.931 77.6504C302.08 77.5421 302.182 77.4096 302.226 77.2669C302.226 77.2669 301.964 77.0326 301.8 77.0326H301.701ZM349.837 46.1641C349.756 46.3031 349.691 46.4455 349.64 46.5902C349.64 46.5902 349.64 46.718 349.87 46.782C350.099 46.8459 350.198 46.5689 350.23 46.4411C350.263 46.3133 350.099 46.1642 349.935 46.0577L349.837 46.1641ZM364.494 48.2945C364.494 48.2945 364.494 48.4223 364.494 48.4436C364.601 48.4637 364.715 48.4637 364.822 48.4436V48.188L364.494 48.2945ZM47.7095 55.4737C47.481 55.454 47.2494 55.454 47.0209 55.4737C47.0209 55.4737 46.8242 55.4737 46.693 55.6228L47.6768 55.7506L47.7095 55.4737ZM354.46 55.7719L354.1 55.4737C354.1 55.4737 353.805 55.5802 353.837 55.6228C353.896 55.7715 353.984 55.9147 354.1 56.0489L354.46 55.7719ZM356.821 55.7719L357.411 55.6015C357.411 55.6015 357.411 55.4524 357.182 55.4524C356.987 55.4313 356.787 55.4313 356.592 55.4524L356.821 55.7719ZM54.1692 61.2895L53.5789 61.0764L53.3166 61.2256L53.9068 61.4599C53.9068 61.4599 53.9396 61.3534 54.038 61.2895H54.1692ZM237.892 74.9022C237.682 74.8376 237.462 74.7876 237.236 74.7531C237.236 74.7531 237.072 74.8596 236.974 74.9022C236.875 74.9449 237.269 75.1153 237.433 75.1153C237.597 75.1153 237.892 74.9022 237.892 74.9022ZM46.5619 63.8885C46.5619 63.8885 46.7258 63.8885 46.7586 63.8885C46.7751 63.825 46.7751 63.7602 46.7586 63.6967C46.6385 63.7264 46.5275 63.7696 46.4307 63.8246C46.4307 63.8246 46.5291 63.7393 46.5947 63.8032L46.5619 63.8885ZM328.228 63.6967L327.704 63.9737C327.704 63.9737 327.9 64.1441 327.966 64.1228C328.179 64.093 328.388 64.0502 328.589 63.995L328.228 63.6967ZM54.825 67.4461L54.6282 67.0627C54.6282 67.0627 54.3987 67.1692 54.3987 67.2118C54.3798 67.3464 54.3798 67.4819 54.3987 67.6165L54.825 67.4461ZM50.0704 67.6591L49.8081 67.4674C49.8081 67.6165 49.6113 67.7443 49.5458 67.8722C49.4802 68 49.7097 68 49.7753 68.0639L50.0704 67.6591ZM363.576 8.24438C363.576 8.24438 363.281 8.24436 363.314 8.35087C363.387 8.48248 363.475 8.61063 363.576 8.73435C363.576 8.73435 363.838 8.62784 363.806 8.60653C363.79 8.44993 363.723 8.29729 363.609 8.15915L363.576 8.24438ZM73.9416 11.8446C73.9416 11.8446 73.6792 11.8446 73.6792 12.015C73.6792 12.1855 73.6792 12.292 73.876 12.4411C74.0727 12.5902 74.1383 12.3133 74.1383 12.2707C74.0924 12.1251 74.0266 11.9825 73.9416 11.8446ZM34.1017 12.6754L33.8721 12.3133C33.8721 12.3133 33.6426 12.3133 33.6426 12.4624C33.7163 12.594 33.8039 12.7221 33.9049 12.8459L34.1017 12.6754ZM44.2338 12.995V13.4637C44.2338 13.4637 44.4305 13.3358 44.4305 13.2506C44.4762 13.1753 44.4762 13.0916 44.4305 13.0163L44.2338 12.995ZM355.444 13.3145L354.887 13.4637C354.887 13.4637 355.083 13.6341 355.116 13.6128C355.314 13.5854 355.503 13.5349 355.674 13.4637L355.444 13.3145ZM337.344 4.58022C337.344 4.58022 337.574 4.4524 337.541 4.40979C337.478 4.27855 337.402 4.15038 337.311 4.02631C337.311 4.02631 337.082 4.15414 337.082 4.19674C337.133 4.33449 337.198 4.46975 337.278 4.60151L337.344 4.58022ZM341.541 5.98621L341.312 5.56015C341.312 5.56015 341.049 5.66668 341.049 5.70929C341.096 5.86421 341.173 6.01456 341.279 6.15664L341.541 5.98621ZM193.199 6.22055C193.199 6.22055 193.199 6.32707 193.199 6.39098C193.164 6.46016 193.164 6.53483 193.199 6.60402C193.215 6.54769 193.215 6.48992 193.199 6.43359C193.197 6.36062 193.174 6.28848 193.133 6.22055H193.199ZM40.2662 14.0815H40.5285C40.5285 14.0815 40.5285 13.9536 40.3318 13.9323C40.135 13.911 40.3318 13.9323 40.0694 14.0602L40.2662 14.0815ZM366.035 13.5702L366.33 13.4211C366.33 13.4211 366.166 13.2719 366.068 13.2719C365.97 13.2719 366.068 13.2719 365.806 13.3998L366.035 13.5702ZM362.264 15.5514H362.035V15.7431L362.264 15.5514ZM121.946 9.94862C121.946 9.94862 122.209 9.94863 122.209 9.79951C122.209 9.65039 122.208 9.69299 121.979 9.62908C121.749 9.56517 121.749 9.62906 121.749 9.77819C121.749 9.92731 121.815 9.90601 121.881 9.94862H121.946ZM45.2175 63.2067V63.3346V63.2067ZM45.8733 62.3546L46.0373 62.2268H45.7749L45.8733 62.3546ZM183.591 77.693V77.8421C183.638 77.9073 183.705 77.9653 183.788 78.0125L183.952 77.7143L183.591 77.693ZM96.5011 77.693L96.3372 77.8208H96.5667L96.5011 77.693ZM308.522 76.3296V76.2017H308.325L308.522 76.3296ZM127.455 79.1629V79.0351H127.291L127.455 79.1629ZM104.502 78.396L104.338 78.5877H104.6L104.502 78.396ZM62.793 78.396V78.5451H63.0225L62.793 78.396ZM167.721 75.4987L167.885 75.3496H167.623L167.721 75.4987ZM349.411 24.5201V24.3922H349.214L349.411 24.5201ZM347.902 26.3734V26.5225H348.165L347.902 26.3734ZM310.03 19.7694V19.6416V19.7694ZM319.67 46.1216L319.506 46.2494H319.867L319.67 46.1216ZM371.938 29.5689H371.38L371.61 29.7606L371.938 29.5689Z" fill="#78AC43"/>
</svg>
