<svg width="35" height="49" viewBox="0 0 35 49" fill="none" xmlns="http://www.w3.org/2000/svg">
<path d="M32.2374 21.4989H32.1664C30.8044 21.4989 29.658 22.6565 29.658 24.1444V26.2067C29.658 26.6175 29.3244 26.9511 28.9136 26.9511C28.5024 26.9511 28.1693 26.6175 28.1693 26.2067V22.3986C28.1693 20.9107 27.0889 19.7003 25.7273 19.7003C24.3582 19.7003 23.2778 20.9107 23.2778 22.3986V26.4348C23.2778 26.846 22.9443 27.1791 22.5335 27.1791C22.1223 27.1791 21.7891 26.846 21.7891 26.4348V21.2904C21.7891 19.8029 20.666 18.6278 19.3044 18.6278H19.2288C17.9012 18.6278 16.7914 19.7423 16.7914 21.1782V26.971C16.7914 27.3822 16.4578 27.7154 16.047 27.7154C15.6358 27.7154 15.3027 27.3822 15.3027 26.971V21.346C15.3027 21.3278 15.3006 21.3086 15.3006 21.29C15.3006 21.2443 15.3027 21.1986 15.3027 21.1533V8.00217C15.3027 6.5143 14.1799 5.30432 12.8187 5.30432C11.4571 5.30432 10.3348 6.51389 10.3336 8.00051L10.3186 29.8088C10.3182 30.1233 10.1209 30.4037 9.82473 30.5096C9.52898 30.6155 9.19834 30.5241 8.99896 30.2811L6.39499 27.1114C5.70838 26.2512 4.69487 25.7153 3.59704 25.6318C2.52247 25.5608 1.46659 25.9396 0.682366 26.6778C0.673228 26.6861 0.663674 26.696 0.653706 26.7043L0.144043 27.1305L9.17217 44.4802C10.5973 47.2188 13.2923 48.9334 16.2044 48.9334H26.6407C31.0819 48.9334 34.6985 45.026 34.7031 40.2397C34.7056 37.7051 34.7081 35.8039 34.7101 34.2724C34.7155 30.1785 34.7172 28.6728 34.7068 24.1631C34.7035 22.6794 33.5957 21.4989 32.2374 21.4989Z" fill="#675515"/>
<path d="M6.04567 8.2626C6.45689 8.2626 6.79002 7.92947 6.79002 7.51825C6.78129 5.36828 7.92315 3.3774 9.78361 2.29992C11.6441 1.22244 13.939 1.22244 15.7995 2.29992C17.6599 3.3774 18.8018 5.36828 18.7926 7.51825C18.7926 7.92947 19.1262 8.2626 19.537 8.2626C19.9482 8.2626 20.2813 7.92947 20.2813 7.51825C20.2917 4.83577 18.8661 2.35226 16.5446 1.00811C14.2231 -0.336037 11.3599 -0.336037 9.03843 1.00811C6.71691 2.35226 5.29135 4.83577 5.30132 7.51825C5.30132 7.92947 5.63487 8.2626 6.04567 8.2626Z" fill="#675515"/>
</svg>
