<svg width="98" height="98" viewBox="0 0 98 98" fill="none" xmlns="http://www.w3.org/2000/svg">
<rect y="48.9531" width="69.2284" height="69.2284" rx="34.6142" transform="rotate(-45 0 48.9531)" fill="#60A8FF"/>
<path d="M61.2494 56.0117C60.3453 56.0117 59.4865 56.3767 58.8385 57.0368C58.1906 57.7047 57.829 58.5745 57.829 59.5064C57.829 60.4383 58.1831 61.308 58.8385 61.9759C59.494 62.636 60.3453 63.001 61.2494 63.001C63.1028 63.001 64.6097 61.4323 64.6097 59.5064C64.6097 57.5804 63.1028 56.0117 61.2494 56.0117ZM61.2494 61.4478C60.2097 61.4478 59.3358 60.5625 59.3358 59.5064C59.3358 58.4502 60.2097 57.5649 61.2494 57.5649C62.2741 57.5649 63.1028 58.4347 63.1028 59.5064C63.1028 60.578 62.2741 61.4478 61.2494 61.4478ZM62.1234 44.3707C61.9878 44.2387 61.807 44.1688 61.6186 44.1688H57.7536C57.3392 44.1688 57.0002 44.5183 57.0002 44.9454V51.3134C57.0002 51.7405 57.3392 52.09 57.7536 52.09H63.8864C64.3008 52.09 64.6398 51.7405 64.6398 51.3134V47.05C64.6398 46.8325 64.5494 46.6228 64.3912 46.4753L62.1234 44.3707ZM63.133 50.5368H58.507V45.7142H61.3248L63.133 47.3917V50.5368ZM42.8512 56.0117C41.9471 56.0117 41.0882 56.3767 40.4402 57.0368C39.7923 57.7047 39.4307 58.5745 39.4307 59.5064C39.4307 60.4383 39.7848 61.308 40.4402 61.9759C41.0957 62.636 41.9471 63.001 42.8512 63.001C44.7045 63.001 46.2114 61.4323 46.2114 59.5064C46.2114 57.5804 44.7045 56.0117 42.8512 56.0117ZM42.8512 61.4478C41.8114 61.4478 40.9375 60.5625 40.9375 59.5064C40.9375 58.4502 41.8114 57.5649 42.8512 57.5649C43.8758 57.5649 44.7045 58.4347 44.7045 59.5064C44.7045 60.578 43.8758 61.4478 42.8512 61.4478ZM37.8259 56.9669H36.3115V54.9012C36.3115 54.4741 35.9725 54.1246 35.5581 54.1246C35.1438 54.1246 34.8047 54.4741 34.8047 54.9012V57.7435C34.8047 58.1706 35.1438 58.5201 35.5581 58.5201H37.8259C38.2403 58.5201 38.5793 58.1706 38.5793 57.7435C38.5793 57.3164 38.2403 56.9669 37.8259 56.9669ZM41.6457 52.7345C41.6457 52.3074 41.3067 51.958 40.8923 51.958H31.7534C31.339 51.958 31 52.3074 31 52.7345C31 53.1617 31.339 53.5111 31.7534 53.5111H40.8923C41.3067 53.5111 41.6457 53.1694 41.6457 52.7345ZM33.2828 49.9311L42.4217 49.9854C42.8361 49.9854 43.1751 49.6437 43.1827 49.2166C43.1902 48.7817 42.8512 48.4323 42.4368 48.4323L33.2979 48.3779C33.2904 48.3779 33.2904 48.3779 33.2904 48.3779C32.876 48.3779 32.537 48.7196 32.537 49.1467C32.5294 49.5816 32.8685 49.9311 33.2828 49.9311ZM34.8198 46.4054H43.9587C44.373 46.4054 44.7121 46.0559 44.7121 45.6288C44.7121 45.2017 44.373 44.8522 43.9587 44.8522H34.8198C34.4054 44.8522 34.0664 45.2017 34.0664 45.6288C34.0664 46.0559 34.4054 46.4054 34.8198 46.4054ZM67.7212 45.357L62.3268 40.7519C62.1912 40.6354 62.0255 40.5733 61.8446 40.5733H55.5009V37.7776C55.5009 37.3504 55.1619 37.001 54.7475 37.001H35.5581C35.1438 37.001 34.8047 37.3504 34.8047 37.7776V43.4621C34.8047 43.8893 35.1438 44.2387 35.5581 44.2387C35.9725 44.2387 36.3115 43.8893 36.3115 43.4621V38.5541H54.0016V56.9669H47.8237C47.4093 56.9669 47.0703 57.3164 47.0703 57.7435C47.0703 58.1706 47.4093 58.5201 47.8237 58.5201H57.0228C57.4372 58.5201 57.7762 58.1706 57.7762 57.7435C57.7762 57.3164 57.4372 56.9669 57.0228 56.9669H55.5084V42.1264H61.5809L66.4932 46.32L66.4404 56.9514H65.6569C65.2425 56.9514 64.9035 57.3009 64.9035 57.728C64.9035 58.1551 65.2425 58.5046 65.6569 58.5046H67.1863C67.6007 58.5046 67.9397 58.1629 67.9397 57.7357L68 45.9627C67.9925 45.7298 67.8945 45.5046 67.7212 45.357Z" fill="white"/>
</svg>
