<svg width="60" height="48" viewBox="0 0 60 48" fill="none" xmlns="http://www.w3.org/2000/svg">
<path d="M4.22557 34.16C4.39212 34.2083 4.59935 34.0305 4.78063 33.9969C4.84798 34.0097 4.94737 33.9722 5.04388 33.9392C5.09297 33.8774 5.17259 33.8172 5.29699 33.7593C5.31311 33.7717 5.37451 33.7541 5.43258 33.7387C5.49065 33.7177 5.54448 33.6936 5.59703 33.6682C5.63163 33.6521 5.66632 33.6363 5.70045 33.6199C5.77213 33.5879 5.84694 33.5621 5.92198 33.5375C6.07785 33.4864 6.23501 33.4399 6.37973 33.3894C6.31326 33.4148 6.24272 33.44 6.16935 33.4625C6.01291 33.5107 5.88824 33.5788 5.8825 33.6457C5.88878 33.6519 5.89959 33.6555 5.91384 33.6571C5.87872 33.6712 5.84265 33.6849 5.81168 33.7004C5.79722 33.7077 5.79821 33.7204 5.79218 33.7305C5.81517 33.7231 5.84815 33.7158 5.85919 33.7081C5.88359 33.6913 5.9007 33.6744 5.91929 33.6575C5.92922 33.6582 5.94025 33.6582 5.95342 33.6571C6.11756 33.6359 6.23008 33.5382 6.38542 33.4838C6.28669 33.5226 6.20637 33.5628 6.19638 33.5964C6.18037 33.6503 6.30166 33.5945 6.37674 33.5792C6.44857 33.5646 6.54676 33.5158 6.60169 33.5239C6.58303 33.53 6.56434 33.5361 6.54572 33.5423C6.52151 33.55 6.49732 33.5578 6.47304 33.5656L6.47307 33.5656C6.43981 33.576 6.40656 33.5865 6.37329 33.5969C6.47034 33.6378 6.52679 33.624 6.73295 33.5093C6.85452 33.4664 6.93952 33.4603 7.03046 33.46C6.87336 33.5365 6.76374 33.6191 6.58675 33.656C6.5795 33.6575 6.55719 33.6709 6.55689 33.6742C6.556 33.683 6.55427 33.6953 6.56859 33.696C6.75353 33.7039 6.97359 33.664 7.23908 33.5577C7.28055 33.5411 7.28927 33.5313 7.26729 33.5305C7.17009 33.533 7.02759 33.6163 6.90846 33.6147C7.03549 33.5688 7.13567 33.5326 7.2358 33.4963C7.3848 33.4424 7.28319 33.4221 7.34963 33.3798C7.36931 33.3761 7.38885 33.3724 7.40699 33.3693C7.44275 33.362 7.47924 33.3536 7.5164 33.3439C7.66841 33.3523 7.84274 33.3382 8.09099 33.2588C8.18756 33.228 8.28714 33.2132 8.35734 33.2195C8.41263 33.2243 8.46487 33.205 8.51486 33.1672C8.60884 33.1046 8.72311 33.0738 8.83963 33.0414C9.02546 32.9897 9.11574 32.9565 9.30954 32.8655C9.33749 32.8576 9.3653 32.8501 9.39283 32.8434C9.43438 32.829 9.47498 32.8131 9.51371 32.7954C9.53539 32.7847 9.55551 32.7741 9.57472 32.7636C9.746 32.7137 9.9126 32.6562 10.0616 32.5693C10.0715 32.5636 10.0882 32.5589 10.1018 32.5537C10.1215 32.5513 10.1426 32.547 10.1652 32.5406C10.1652 32.5406 10.1652 32.5406 10.1651 32.5407C10.2257 32.5531 10.3015 32.5546 10.4175 32.5018C10.5572 32.4382 10.7022 32.3911 10.8468 32.3422C10.97 32.3006 11.0769 32.2562 11.14 32.1952C11.1878 32.1491 11.2671 32.1168 11.3597 32.0862C11.7075 31.9716 12.0551 31.8558 12.4028 31.7409C12.4544 31.7238 12.5061 31.7074 12.5543 31.6968C12.5536 31.7022 12.5534 31.7076 12.5534 31.7129C12.5827 31.7138 12.6121 31.7146 12.6414 31.7155C12.6961 31.6865 12.7508 31.6576 12.8056 31.6286C12.8053 31.6251 12.8047 31.6218 12.8037 31.6187C12.8455 31.5958 12.887 31.5731 12.9295 31.5498C12.8584 31.5488 12.741 31.5868 12.7048 31.5596C12.7038 31.5589 12.7035 31.5581 12.7026 31.5573C12.7529 31.5437 12.8033 31.5296 12.8539 31.515C13.1347 31.4896 13.4723 31.3922 13.7984 31.3094C13.7981 31.3176 13.7978 31.3258 13.7976 31.334C13.8522 31.3163 13.9069 31.2987 13.9616 31.2811C14.0177 31.2893 14.1481 31.2214 14.1854 31.2489C14.1909 31.2658 14.193 31.2843 14.2426 31.2812L14.2391 31.2807C14.2664 31.2834 14.2946 31.2753 14.3239 31.2547C14.3499 31.2446 14.376 31.2358 14.4024 31.2284C14.4141 31.2163 14.4511 31.2007 14.4949 31.1843C14.5164 31.1835 14.5376 31.1831 14.5582 31.1834C14.5678 31.1836 14.5737 31.1863 14.5813 31.1877C14.3514 31.3414 14.0448 31.504 13.7391 31.6311C13.6006 31.6886 13.4448 31.7397 13.396 31.8169C13.396 31.8169 13.398 31.8171 13.3979 31.8171C13.4165 31.8534 13.2614 31.9282 13.31 31.9607C13.5585 31.8837 13.8016 31.8023 14.0493 31.7079C14.3356 31.5988 14.6316 31.5043 14.9239 31.4069C14.9736 31.3903 15.0257 31.3907 15.0766 31.3832C15.0766 31.3832 15.0748 31.3837 15.0748 31.3837C15.1024 31.3862 15.1289 31.3781 15.1542 31.3576C15.1542 31.3576 15.1535 31.3579 15.1535 31.3579C15.2121 31.3104 15.3019 31.281 15.3889 31.2525C15.6071 31.1808 15.8284 31.1162 16.0427 31.037C16.164 30.9922 16.2667 30.9589 16.3775 30.94C16.6663 30.8908 16.9664 30.8094 17.2769 30.694C17.3357 30.674 17.3945 30.6541 17.4534 30.6342C17.6865 30.5494 17.9085 30.4448 18.1488 30.3727C18.2225 30.3226 18.3166 30.2878 18.4161 30.257C18.4457 30.2469 18.4753 30.2369 18.5048 30.2268L18.546 30.2108L18.5879 30.1987L18.5884 30.199C18.6197 30.1791 18.6518 30.168 18.685 30.1672C18.685 30.1672 18.6854 30.1665 18.6854 30.1666C18.7982 30.1286 18.9111 30.0906 19.024 30.0527C19.0789 30.0155 19.15 29.9912 19.2228 29.9668C19.5109 29.8703 19.7989 29.7733 20.0869 29.6766C20.1164 29.6671 20.146 29.6577 20.1755 29.6482C20.2338 29.6287 20.2921 29.6091 20.3505 29.5896C20.4099 29.5447 20.4917 29.5125 20.5812 29.4829C20.8839 29.383 21.1865 29.2826 21.4892 29.1824C21.7557 29.0628 22.1586 28.9293 22.4715 28.8569C22.5218 28.8392 22.5723 28.8214 22.6227 28.8037C22.6767 28.7664 22.7471 28.7413 22.8205 28.7173C22.9647 28.6699 23.1088 28.622 23.253 28.5743C23.2825 28.5643 23.3121 28.5544 23.3416 28.5445C23.3978 28.5253 23.4539 28.5061 23.5101 28.4869C23.5101 28.4869 23.5119 28.4874 23.5119 28.4874C23.5757 28.448 23.6421 28.4301 23.7096 28.4217C23.7271 28.4124 23.7461 28.405 23.7665 28.3995C23.771 28.3902 23.7756 28.3808 23.7804 28.3714C23.7977 28.3584 23.8162 28.3463 23.8353 28.3347C23.8468 28.3402 23.8648 28.3451 23.8893 28.3494C24.2956 28.223 24.7028 28.0656 25.1102 27.9615C25.1515 27.9659 25.2091 27.9458 25.2657 27.9272C25.3063 27.9131 25.3386 27.8965 25.3624 27.8773L25.3608 27.8791C25.4642 27.8145 25.6188 27.7993 25.7184 27.7312L25.7532 27.7164L25.789 27.7074C25.9846 27.6053 26.2243 27.5776 26.4165 27.4698L26.4121 27.472C26.5213 27.4127 26.6249 27.3501 26.7679 27.3101C26.8048 27.2977 26.8404 27.2837 26.8749 27.268C26.9423 27.2371 27.0162 27.2137 27.0838 27.1833C27.1172 27.1681 27.1489 27.1524 27.1782 27.1358C27.2187 27.1108 27.2525 27.086 27.2799 27.0614L27.2802 27.0623C27.3677 27.0191 27.4319 26.9732 27.5024 26.928C27.6507 26.8503 27.8616 26.806 27.9754 26.7097L27.9759 26.7106C28.1986 26.6048 28.4311 26.557 28.6588 26.48C28.6621 26.479 28.6654 26.4779 28.6686 26.4769C28.6771 26.4767 28.6892 26.4746 28.7042 26.4706C28.756 26.4569 28.8099 26.4377 28.8629 26.4209C28.8673 26.4122 28.8695 26.404 28.8706 26.3962C28.8722 26.3954 28.8738 26.3945 28.8754 26.3937C28.878 26.3914 28.8804 26.3892 28.883 26.3869C28.9584 26.3597 29.0338 26.3325 29.1092 26.3053C29.0698 26.2928 29.0116 26.3077 28.9498 26.3277C29.0072 26.2914 29.0753 26.2623 29.146 26.2351C29.1942 26.2187 29.2425 26.2023 29.2907 26.186C29.2917 26.1837 29.2928 26.1814 29.2938 26.1792C29.327 26.1663 29.3595 26.153 29.3905 26.1386C29.6575 26.0386 29.921 25.9312 30.1908 25.8352C30.4594 25.6986 30.7751 25.6488 31.0458 25.5154L31.0432 25.517C31.2892 25.4065 31.5478 25.3435 31.7998 25.2539C31.8413 25.2407 31.8811 25.2258 31.9206 25.2086C31.969 25.1592 32.0084 25.1867 32.0525 25.1684C32.0928 25.1532 32.1317 25.1366 32.1692 25.1189C32.4101 25.014 32.6547 24.9328 32.9026 24.8736C33.0262 24.8679 33.1671 24.797 33.2988 24.7609C33.3484 24.746 33.3885 24.7268 33.419 24.7034L33.4174 24.7051C33.5632 24.6249 33.7466 24.6003 33.8933 24.5213C33.9301 24.5036 33.9674 24.4862 34.0049 24.469C34.0856 24.4411 34.1657 24.4056 34.2399 24.3875C34.5848 24.303 34.9282 24.172 35.2716 24.0676L35.2739 24.0663C35.2915 24.056 35.2996 24.0479 35.299 24.0419C35.3812 24.0158 35.4659 23.9811 35.5421 23.9754C35.5421 23.9754 35.5471 23.9713 35.547 23.9714C35.6555 23.9283 35.7641 23.8852 35.8726 23.842C35.8749 23.8405 35.8773 23.839 35.8796 23.8375C35.8803 23.8376 35.8813 23.8376 35.882 23.8377C35.8807 23.8381 35.8795 23.8385 35.8782 23.8389C35.8845 23.8392 35.8909 23.8392 35.8974 23.839C35.9122 23.8395 35.9294 23.8383 35.9496 23.8351C35.9525 23.8344 35.9555 23.8335 35.9583 23.8327C36.0587 23.8157 36.1733 23.7681 36.2792 23.738C36.3887 23.7069 36.5068 23.6549 36.6007 23.6573C36.682 23.631 36.7633 23.6047 36.8446 23.5784C36.8458 23.5778 36.8462 23.5774 36.8473 23.5769C36.8493 23.5765 36.8513 23.5761 36.8533 23.5758C36.8843 23.566 36.9151 23.5556 36.9459 23.5449C36.9482 23.5445 36.9498 23.5444 36.9523 23.544C36.9523 23.544 36.9526 23.5432 36.9526 23.5432C37.3243 23.421 37.6961 23.2989 38.0679 23.1767C38.3023 23.1037 38.5366 23.0325 38.7709 22.9621C39.0427 22.8632 39.3048 22.8258 39.5777 22.7231C39.6223 22.7119 39.6672 22.6988 39.7126 22.6837C39.933 22.6115 40.1532 22.5389 40.3739 22.4664C40.416 22.4526 40.4576 22.4389 40.4998 22.4248C40.5958 22.3814 40.6929 22.3594 40.7896 22.3301C40.9019 22.2924 41.0143 22.2564 41.1266 22.2186C41.2317 22.1736 41.3367 22.1291 41.4466 22.1096C41.4828 22.1005 41.5194 22.0899 41.5562 22.0777C41.6117 22.0591 41.6682 22.041 41.7032 22.0106L41.7008 22.0129C42.1201 21.8443 42.5495 21.7288 42.9737 21.5809C43.0177 21.5663 43.061 21.5522 43.1052 21.5379C43.22 21.4971 43.3294 21.4402 43.4484 21.4186C43.4847 21.4105 43.5214 21.4006 43.5591 21.3883C43.6142 21.3704 43.6691 21.3524 43.7239 21.3338C43.7617 21.3203 43.7924 21.3046 43.8159 21.2867L43.8142 21.288C44.0964 21.1544 44.4148 21.1047 44.6952 20.9672C44.8263 20.8899 45.0059 20.8722 45.1354 20.7928L45.1661 20.7785L45.1993 20.7692C45.341 20.692 45.5241 20.6705 45.6619 20.5881L45.6935 20.574L45.7269 20.5649C45.7546 20.5537 45.7673 20.5451 45.7681 20.5386C45.7687 20.5384 45.7693 20.5382 45.7699 20.538C45.8989 20.4955 46.0282 20.4534 46.1572 20.4104C46.2028 20.3955 46.2406 20.3773 46.2707 20.3557L46.2689 20.3571C46.3734 20.2973 46.4961 20.2732 46.6093 20.2307C46.6503 20.2166 46.683 20.1999 46.7074 20.1805L46.7054 20.1823C46.7798 20.1332 46.901 20.1165 46.9722 20.0652L46.972 20.0653C47.1014 19.9924 47.2514 19.9651 47.3898 19.9123C47.4328 19.8979 47.4679 19.8805 47.4951 19.8601L47.493 19.8617C47.5672 19.8119 47.6898 19.7959 47.7612 19.7441L47.792 19.7295L47.8254 19.7203C47.9082 19.6718 48.0301 19.6522 48.1062 19.5988C48.235 19.521 48.4174 19.5046 48.5434 19.4237C48.6542 19.3615 48.7823 19.3361 48.9015 19.292C48.962 19.2717 49.0249 19.2532 49.0684 19.2203C49.23 19.1306 49.4381 19.1088 49.5975 19.0159L49.5963 19.0166C49.7836 18.9234 49.9878 18.8812 50.182 18.809C50.2296 18.7944 50.268 18.7759 50.2971 18.7534L50.2953 18.7551C50.4762 18.6663 50.6722 18.6243 50.8596 18.5556C50.9018 18.5418 50.9436 18.5271 50.9852 18.5113C51.0829 18.4454 51.21 18.4094 51.3326 18.3688C51.3754 18.3542 51.4101 18.337 51.4353 18.3166L51.4333 18.3185C51.5077 18.2696 51.6309 18.2531 51.6998 18.2005L51.6976 18.2017C51.7495 18.1684 51.8244 18.1475 51.8816 18.117C51.9302 18.0852 51.9995 18.0572 52.0459 18.025L52.0442 18.026C52.0972 17.9928 52.1634 17.9726 52.2276 17.9505C52.2602 17.9374 52.2866 17.923 52.3057 17.9072L52.3037 17.909C52.3763 17.8598 52.5027 17.8437 52.5683 17.7901C52.6259 17.7563 52.7051 17.7341 52.7634 17.7006C52.8254 17.6546 52.9424 17.6331 53.0024 17.5862C53.0519 17.5554 53.1299 17.5337 53.1719 17.5005C53.2084 17.4807 53.2362 17.4606 53.2622 17.4404C53.2936 17.4208 53.3226 17.4013 53.3451 17.3817C53.3798 17.3614 53.41 17.3412 53.4284 17.3211C53.4859 17.2883 53.4681 17.2651 53.5163 17.2335L53.5158 17.234C53.5462 17.2136 53.5795 17.193 53.5962 17.1731L53.5883 17.1771C53.6172 17.1615 53.6348 17.1468 53.641 17.1331C53.6416 17.11 53.6361 17.0885 53.6784 17.0552L53.6761 17.0574C53.7581 17.0024 53.6953 16.9802 53.7516 16.931C53.7422 16.9265 53.7442 16.9187 53.7573 16.9078C53.8602 16.8275 53.7306 16.8074 53.8316 16.7275L53.8305 16.7285C53.8825 16.6944 53.8672 16.6714 53.91 16.6389C53.9603 16.6064 54.0446 16.5842 54.0846 16.5487L54.0802 16.5522C54.1175 16.5326 54.1438 16.5123 54.1734 16.4923L54.1743 16.4917C54.202 16.4723 54.2309 16.4528 54.2568 16.4334C54.2878 16.4131 54.3201 16.3927 54.3386 16.3727C54.3945 16.3398 54.3775 16.3167 54.4248 16.285L54.4241 16.2856C54.455 16.2658 54.4838 16.246 54.5097 16.2262C54.5409 16.2064 54.5702 16.1866 54.594 16.1668C54.6469 16.1343 54.6269 16.1117 54.6813 16.0789L54.6828 16.0775C54.7075 16.058 54.7403 16.038 54.7581 16.0188C54.8598 15.9514 54.7493 15.934 54.8372 15.8698L54.8344 15.8714C54.8811 15.8421 54.9182 15.8134 54.9382 15.786C54.994 15.7032 55.0847 15.6167 55.2376 15.5167C55.3824 15.6001 55.637 15.4499 55.8628 15.3644C55.9019 15.3516 55.9398 15.3373 55.9769 15.3211C56.046 15.2877 56.0992 15.2532 56.1408 15.2177C56.1579 15.2012 56.1704 15.1857 56.1782 15.1709C56.1797 15.1521 56.1868 15.1322 56.2202 15.1067L56.2188 15.108C56.2901 15.0628 56.2348 15.0404 56.3123 14.994C56.3574 14.9583 56.4317 14.9293 56.4916 14.8971C56.5751 14.8452 56.6528 14.7931 56.7218 14.7409C56.7587 14.7144 56.7852 14.689 56.8082 14.6639L56.8061 14.6669C56.9154 14.5976 56.7965 14.5814 56.8919 14.5153L56.8912 14.516C56.9687 14.465 56.8964 14.4463 56.9693 14.3964C57.0313 14.3351 57.0413 14.2914 56.9487 14.2822L56.956 14.2822C56.9351 14.2748 56.9008 14.2761 56.8664 14.2775L56.868 14.2778C56.8171 14.277 56.8306 14.243 56.7685 14.2481L56.7716 14.2498C56.7058 14.22 56.56 14.3994 56.5139 14.3179C56.1766 14.3547 56.1695 14.5339 55.9091 14.6058C55.9353 14.5467 56.0518 14.4662 56.0225 14.4157C55.9888 14.3576 55.9044 14.3956 55.7902 14.4632C55.7766 14.4695 55.763 14.4758 55.7494 14.4821C55.6016 14.5247 55.4599 14.5803 55.3188 14.6371C55.2566 14.6456 55.1995 14.6423 55.1499 14.6218C55.1345 14.6155 55.0424 14.6594 54.9958 14.6877C54.9355 14.7302 54.9005 14.7684 54.8916 14.8028C54.8905 14.8101 54.8969 14.8112 54.9038 14.8105C54.9009 14.8115 54.8988 14.8121 54.8948 14.8136C54.8643 14.8247 54.8478 14.817 54.8292 14.8155C54.7974 14.817 54.7634 14.8223 54.7283 14.8295C54.7863 14.7925 54.8424 14.7559 54.8524 14.7259C54.931 14.7158 55.0059 14.6872 55.0769 14.6406C55.1062 14.6211 55.1354 14.6016 55.1646 14.5822C55.3266 14.5294 55.4107 14.4602 55.5043 14.3941C55.5742 14.3447 55.5503 14.3217 55.4469 14.3443C55.3807 14.3588 55.3079 14.3836 55.238 14.4038L55.238 14.4038L55.2381 14.4037C55.2397 14.3836 55.2414 14.3636 55.2429 14.3435C55.2429 14.3435 55.2429 14.3435 55.243 14.3435C55.5929 14.2228 55.5929 14.2228 55.7632 14.1096C55.6474 14.1477 55.5481 14.1813 55.4487 14.2125C55.4002 14.2278 55.3736 14.2257 55.4098 14.1987C55.4257 14.1869 55.4614 14.1745 55.4881 14.1623C55.4881 14.1623 55.4881 14.1623 55.4881 14.1624C55.5619 14.1413 55.6251 14.116 55.6594 14.0789L55.6593 14.0789C55.6593 14.0789 55.6593 14.0789 55.6594 14.0789C55.6594 14.0789 55.6602 14.0781 55.6602 14.0781L55.6602 14.0781C55.7502 14.0328 55.8405 13.9881 55.947 13.9561C56.0684 13.9197 56.1699 13.8659 56.2765 13.8167C56.3013 13.8059 56.3267 13.7964 56.3528 13.7882C56.4259 13.7379 56.5507 13.7214 56.6209 13.6693L56.6192 13.6702C56.672 13.6309 56.7919 13.6079 56.8197 13.5626C56.6531 13.5142 56.4459 13.692 56.2646 13.7257C56.1973 13.7128 56.0979 13.7503 56.0014 13.7833C55.9523 13.8451 55.8727 13.9054 55.7483 13.9633C55.7322 13.9508 55.6708 13.9684 55.6127 13.9839C55.5546 14.0048 55.5008 14.029 55.4482 14.0543C55.4136 14.0704 55.3789 14.0863 55.3448 14.1027C55.2731 14.1346 55.1983 14.1604 55.1233 14.185C54.9674 14.2361 54.8102 14.2827 54.6655 14.3331C54.732 14.3077 54.8025 14.2826 54.8759 14.26C55.0323 14.2118 55.157 14.1437 55.1627 14.0768C55.1565 14.0706 55.1456 14.0671 55.1314 14.0655C55.1665 14.0514 55.2026 14.0376 55.2336 14.0221C55.248 14.0149 55.247 14.0022 55.2531 13.992C55.2301 13.9995 55.1971 14.0068 55.1861 14.0144C55.1617 14.0312 55.1445 14.0482 55.126 14.0651C55.116 14.0644 55.105 14.0643 55.0918 14.0655C54.9277 14.0867 54.8152 14.1843 54.6598 14.2387C54.7586 14.2 54.8389 14.1598 54.8488 14.1262C54.8648 14.0722 54.7436 14.1281 54.6685 14.1433C54.5966 14.158 54.4985 14.2068 54.4435 14.1987C54.4622 14.1926 54.4809 14.1864 54.4995 14.1803C54.5237 14.1726 54.5479 14.1648 54.5722 14.157L54.5721 14.157C54.6054 14.1465 54.6386 14.1361 54.6719 14.1257C54.5748 14.0848 54.5184 14.0985 54.3122 14.2132C54.1907 14.2562 54.1057 14.2623 54.0147 14.2625C54.1718 14.186 54.2815 14.1034 54.4584 14.0666C54.4657 14.0651 54.488 14.0517 54.4883 14.0484C54.4892 14.0395 54.4909 14.0272 54.4766 14.0266C54.2917 14.0186 54.0716 14.0586 53.8061 14.1648C53.7647 14.1814 53.7559 14.1913 53.7779 14.1921C53.8751 14.1896 54.0176 14.1062 54.1367 14.1079C54.0097 14.1538 53.9095 14.19 53.8094 14.2262C53.6604 14.2802 53.762 14.3005 53.6956 14.3428C53.6759 14.3464 53.6564 14.3502 53.6382 14.3533C53.6025 14.3606 53.566 14.369 53.5288 14.3786C53.3768 14.3703 53.2025 14.3844 52.9542 14.4637C52.8577 14.4946 52.7581 14.5094 52.6878 14.503C52.6326 14.4982 52.5803 14.5176 52.5303 14.5553C52.4363 14.618 52.3221 14.6487 52.2056 14.6812C52.0197 14.7329 51.9294 14.7661 51.7356 14.857C51.7077 14.8649 51.6799 14.8725 51.6523 14.8792C51.6108 14.8935 51.5702 14.9095 51.5314 14.9272C51.5098 14.9379 51.4896 14.9484 51.4704 14.9589C51.2992 15.0089 51.1326 15.0664 50.9836 15.1532C50.9737 15.159 50.9569 15.1637 50.9434 15.1689C50.9237 15.1713 50.9026 15.1756 50.88 15.1819C50.88 15.1819 50.88 15.1819 50.88 15.1819C50.8195 15.1694 50.7436 15.1679 50.6277 15.2207C50.488 15.2844 50.343 15.3315 50.1983 15.3803C50.0751 15.4219 49.9683 15.4664 49.9052 15.5273C49.8574 15.5735 49.778 15.6058 49.6854 15.6363C49.3377 15.751 48.9901 15.8668 48.6424 15.9817C48.5908 15.9987 48.5391 16.0151 48.4908 16.0258C48.4915 16.0203 48.4918 16.015 48.4918 16.0097C48.4624 16.0088 48.4331 16.0079 48.4037 16.007C48.349 16.036 48.2944 16.065 48.2396 16.0939C48.2399 16.0974 48.2405 16.1007 48.2415 16.1039C48.1997 16.1267 48.1582 16.1495 48.1157 16.1727C48.1868 16.1737 48.3042 16.1357 48.3403 16.1629C48.3414 16.1637 48.3418 16.1645 48.3426 16.1653C48.2923 16.1789 48.2419 16.193 48.1913 16.2075C47.9105 16.233 47.5729 16.3304 47.2468 16.4132C47.2471 16.405 47.2474 16.3968 47.2476 16.3886C47.1929 16.4062 47.1383 16.4238 47.0836 16.4415C47.0275 16.4333 46.8971 16.5012 46.8597 16.4737C46.8543 16.4567 46.8522 16.4382 46.8025 16.4414L46.8061 16.4419C46.7787 16.4392 46.7505 16.4473 46.7213 16.4679C46.6953 16.478 46.6691 16.4867 46.6428 16.4941C46.6311 16.5063 46.5941 16.5218 46.5502 16.5383C46.5287 16.539 46.5075 16.5395 46.4869 16.5391C46.4773 16.539 46.4714 16.5363 46.4638 16.5348C46.6937 16.3811 47.0003 16.2185 47.306 16.0915C47.4446 16.034 47.6003 15.9829 47.6491 15.9057C47.6491 15.9057 47.6472 15.9055 47.6472 15.9055C47.6286 15.8692 47.7837 15.7943 47.7351 15.7619C47.4866 15.8388 47.2435 15.9203 46.9958 16.0147C46.7095 16.1238 46.4135 16.2182 46.1213 16.3157C46.0716 16.3323 46.0195 16.3319 45.9685 16.3394C45.9685 16.3394 45.9703 16.3389 45.9703 16.3389C45.9428 16.3363 45.9163 16.3445 45.891 16.365C45.891 16.365 45.8917 16.3647 45.8917 16.3647C45.8331 16.4122 45.7433 16.4415 45.6563 16.4701C45.4381 16.5418 45.2168 16.6063 45.0025 16.6855C44.8812 16.7304 44.7784 16.7637 44.6677 16.7826C44.3789 16.8318 44.0788 16.9131 43.7683 17.0286C43.7095 17.0485 43.6507 17.0684 43.5918 17.0884C43.3587 17.1732 43.1367 17.2777 42.8964 17.3499C42.8227 17.4 42.7286 17.4348 42.6291 17.4656C42.5995 17.4756 42.5699 17.4857 42.5404 17.4957L42.4992 17.5118L42.4573 17.5238L42.4568 17.5235C42.4255 17.5435 42.3934 17.5546 42.3601 17.5553C42.3601 17.5553 42.3598 17.556 42.3598 17.556C42.247 17.594 42.1341 17.6319 42.0212 17.6699C41.9662 17.7071 41.8952 17.7314 41.8224 17.7558C41.5343 17.8523 41.2463 17.9492 40.9583 18.046C40.9287 18.0554 40.8992 18.0649 40.8697 18.0743C40.8114 18.0939 40.7531 18.1134 40.6948 18.133C40.6354 18.1779 40.5535 18.2101 40.464 18.2396C40.1613 18.3395 39.8587 18.4399 39.556 18.5402C39.2895 18.6598 38.8866 18.7933 38.5738 18.8656C38.5234 18.8834 38.4729 18.9011 38.4225 18.9188C38.3685 18.9562 38.2981 18.9812 38.2248 19.0053C38.0806 19.0526 37.9364 19.1006 37.7923 19.1483C37.7627 19.1582 37.7331 19.1682 37.7036 19.1781C37.6475 19.1973 37.5913 19.2164 37.5351 19.2356C37.5351 19.2356 37.5333 19.2352 37.5333 19.2352C37.4696 19.2746 37.4032 19.2925 37.3356 19.3008C37.3181 19.3101 37.2992 19.3175 37.2788 19.323C37.2742 19.3324 37.2696 19.3417 37.2648 19.3511C37.2475 19.3641 37.229 19.3762 37.2099 19.3879C37.1984 19.3823 37.1804 19.3775 37.156 19.3731C36.7496 19.4995 36.3424 19.6569 35.9351 19.761C35.8937 19.7566 35.8361 19.7767 35.7796 19.7954C35.7389 19.8094 35.7066 19.8261 35.6828 19.8452L35.6844 19.8435C35.581 19.908 35.4265 19.9233 35.3268 19.9913L35.2919 20.0061L35.2562 20.0151C35.0606 20.1172 34.8209 20.145 34.6287 20.2528L34.6331 20.2505C34.5239 20.3099 34.4203 20.3724 34.2773 20.4125C34.2403 20.4248 34.2048 20.4389 34.1703 20.4545C34.1029 20.4855 34.029 20.5088 33.9614 20.5392C33.928 20.5544 33.8963 20.5702 33.867 20.5867C33.8265 20.6118 33.7927 20.6365 33.7653 20.6612L33.765 20.6603C33.6775 20.7035 33.6132 20.7494 33.5428 20.7945C33.3946 20.8723 33.1836 20.9165 33.0698 21.0129L33.0693 21.012C32.8466 21.1178 32.6141 21.1655 32.3863 21.2426C32.3831 21.2436 32.3798 21.2446 32.3765 21.2456C32.368 21.2459 32.356 21.2479 32.341 21.2519C32.2891 21.2657 32.2353 21.2848 32.1823 21.3016C32.1779 21.3104 32.1757 21.3185 32.1746 21.3263C32.173 21.3272 32.1714 21.328 32.1698 21.3289C32.1672 21.3312 32.1647 21.3334 32.1622 21.3356C32.0868 21.3628 32.0114 21.3901 31.936 21.4173C31.9754 21.4297 32.0336 21.4149 32.0954 21.3949C32.038 21.4312 31.9699 21.4602 31.8992 21.4875C31.8509 21.5039 31.8027 21.5202 31.7545 21.5366C31.7535 21.5389 31.7524 21.5411 31.7513 21.5434C31.7182 21.5563 31.6857 21.5696 31.6547 21.5839C31.3877 21.684 31.1242 21.7913 30.8544 21.8873C30.5858 22.024 30.2701 22.0738 29.9994 22.2071L30.0019 22.2056C29.756 22.316 29.4974 22.379 29.2453 22.4687C29.2039 22.4819 29.164 22.4968 29.1246 22.514C29.0762 22.5634 29.0368 22.5359 28.9927 22.5542C28.9525 22.5693 28.9135 22.5859 28.876 22.6036C28.6351 22.7086 28.3905 22.7898 28.1426 22.849C28.019 22.8546 27.8781 22.9256 27.7465 22.9617C27.6968 22.9765 27.6567 22.9957 27.6262 23.0192L27.6278 23.0174C27.482 23.0976 27.2986 23.1223 27.1519 23.2013C27.1151 23.2189 27.0778 23.2363 27.0403 23.2535C26.9596 23.2814 26.8795 23.3169 26.8053 23.3351C26.4603 23.4195 26.117 23.5505 25.7736 23.655L25.7712 23.6563C25.7537 23.6666 25.7456 23.6746 25.7462 23.6806C25.664 23.7068 25.5792 23.7414 25.5031 23.7472C25.5031 23.7472 25.4981 23.7512 25.4982 23.7511C25.3897 23.7942 25.2811 23.8374 25.1726 23.8805C25.1703 23.882 25.1679 23.8836 25.1656 23.8851C25.1649 23.885 25.164 23.885 25.1632 23.8849C25.1645 23.8844 25.1658 23.884 25.167 23.8836C25.1607 23.8833 25.1543 23.8834 25.1478 23.8835C25.133 23.883 25.1158 23.8842 25.0956 23.8874C25.0927 23.8882 25.0898 23.889 25.0869 23.8898C24.9865 23.9069 24.8719 23.9545 24.766 23.9845C24.6565 24.0156 24.5384 24.0677 24.4445 24.0653C24.3632 24.0916 24.2819 24.1179 24.2006 24.1442C24.1994 24.1447 24.199 24.1451 24.1979 24.1457C24.1959 24.146 24.1939 24.1464 24.1919 24.1468C24.161 24.1566 24.1301 24.167 24.0993 24.1777C24.0971 24.178 24.0954 24.1781 24.0929 24.1786C24.0929 24.1786 24.0926 24.1794 24.0927 24.1794C23.7209 24.3015 23.3491 24.4237 22.9773 24.5459C22.7429 24.6188 22.5086 24.69 22.2743 24.7604C22.0025 24.8594 21.7404 24.8968 21.4675 24.9995C21.4229 25.0107 21.378 25.0238 21.3326 25.0389C21.1122 25.111 20.892 25.1836 20.6713 25.2562C20.6292 25.27 20.5876 25.2837 20.5454 25.2977C20.4494 25.3412 20.3523 25.3631 20.2556 25.3925C20.1433 25.4301 20.0309 25.4662 19.9186 25.504C19.8135 25.549 19.7085 25.5934 19.5986 25.613C19.5624 25.622 19.5258 25.6326 19.489 25.6449C19.4335 25.6635 19.377 25.6816 19.342 25.7119L19.3444 25.7096C18.9251 25.8782 18.4957 25.9937 18.0716 26.1417C18.0275 26.1562 17.9843 26.1703 17.9401 26.1847C17.8253 26.2254 17.7158 26.2823 17.5968 26.304C17.5605 26.3121 17.5238 26.322 17.4862 26.3342C17.431 26.3522 17.3761 26.3701 17.3213 26.3888C17.2835 26.4022 17.2529 26.4179 17.2293 26.4359L17.231 26.4346C16.9488 26.5681 16.6305 26.6179 16.35 26.7553C16.2189 26.8327 16.0393 26.8504 15.9098 26.9297L15.8791 26.9441L15.8459 26.9534C15.7043 27.0306 15.5211 27.0521 15.3833 27.1344L15.3518 27.1486L15.3184 27.1576C15.2907 27.1688 15.278 27.1774 15.2771 27.184C15.2765 27.1841 15.2759 27.1843 15.2753 27.1845C15.1463 27.227 15.017 27.2692 14.888 27.3122C14.8424 27.3271 14.8046 27.3453 14.7745 27.3669L14.7763 27.3654C14.6718 27.4253 14.5491 27.4493 14.4359 27.4919C14.395 27.506 14.3622 27.5227 14.3378 27.542L14.3398 27.5403C14.2654 27.5894 14.1443 27.6061 14.073 27.6574L14.0732 27.6573C13.9438 27.7302 13.7938 27.7575 13.6554 27.8102C13.6124 27.8247 13.5773 27.8421 13.5501 27.8625L13.5522 27.8609C13.478 27.9107 13.3554 27.9267 13.284 27.9785L13.2532 27.9931L13.2198 28.0023C13.137 28.0508 13.0151 28.0704 12.939 28.1238C12.8102 28.2015 12.6278 28.2179 12.5018 28.2989C12.3911 28.361 12.2629 28.3865 12.1437 28.4306C12.0832 28.4508 12.0204 28.4694 11.9768 28.5023C11.8152 28.592 11.6071 28.6137 11.4477 28.7067L11.4489 28.706C11.2617 28.7991 11.0574 28.8414 10.8633 28.9136C10.8156 28.9282 10.7772 28.9467 10.7482 28.9692L10.7499 28.9675C10.5691 29.0563 10.3731 29.0983 10.1856 29.167C10.1434 29.1807 10.1016 29.1954 10.0601 29.2113C9.9623 29.2771 9.83521 29.3131 9.71269 29.3537C9.66981 29.3683 9.6351 29.3856 9.60999 29.406L9.61198 29.4041C9.53752 29.4529 9.41435 29.4695 9.34545 29.522L9.34768 29.5208C9.2957 29.5542 9.22086 29.5751 9.16363 29.6055C9.11508 29.6374 9.04575 29.6653 8.9994 29.6976L9.00103 29.6965C8.94805 29.7297 8.88187 29.75 8.81767 29.7721C8.78503 29.7851 8.75867 29.7995 8.73962 29.8154L8.74166 29.8136C8.66903 29.8628 8.54259 29.8789 8.477 29.9324C8.41939 29.9663 8.34024 29.9885 8.28193 30.022C8.21992 30.0679 8.10288 30.0895 8.04292 30.1363C7.99344 30.1671 7.91536 30.1889 7.87338 30.222C7.83687 30.2419 7.80915 30.262 7.78309 30.2822C7.75171 30.3017 7.72268 30.3213 7.70023 30.3408C7.66551 30.3611 7.63535 30.3814 7.61687 30.4014C7.55944 30.4342 7.57718 30.4574 7.52897 30.4891L7.52954 30.4885C7.49904 30.509 7.46585 30.5295 7.44908 30.5494L7.457 30.5454C7.42807 30.561 7.41051 30.5757 7.40435 30.5895C7.40365 30.6126 7.40923 30.634 7.36693 30.6674L7.36919 30.6651C7.28717 30.7202 7.35002 30.7424 7.29376 30.7916C7.30307 30.7961 7.30112 30.8038 7.28799 30.8147C7.18509 30.8951 7.31474 30.9152 7.21376 30.995L7.21485 30.994C7.16285 31.0281 7.17813 31.0511 7.13533 31.0837C7.08508 31.1161 7.00076 31.1383 6.9607 31.1738L6.96519 31.1704C6.92783 31.19 6.90157 31.2102 6.87192 31.2302L6.87105 31.2308C6.8433 31.2503 6.81445 31.2697 6.78849 31.2891C6.75755 31.3095 6.72521 31.3299 6.7067 31.3499C6.65079 31.3828 6.66779 31.4058 6.62055 31.4376L6.62124 31.4369C6.59029 31.4567 6.56154 31.4765 6.53569 31.4964C6.50441 31.5162 6.47515 31.536 6.45134 31.5558C6.39846 31.5883 6.41845 31.6109 6.364 31.6436L6.36256 31.645C6.33787 31.6646 6.30504 31.6845 6.28727 31.7037C6.18559 31.7711 6.29607 31.7886 6.20815 31.8527L6.21099 31.8511C6.16427 31.8805 6.12709 31.9091 6.10716 31.9365C6.05136 32.0194 5.96064 32.1059 5.80775 32.2059C5.66297 32.1224 5.40832 32.2726 5.18255 32.3581C5.14344 32.3709 5.10557 32.3853 5.06841 32.4015C4.99935 32.4349 4.94615 32.4694 4.90452 32.5048C4.88743 32.5214 4.87489 32.5369 4.8671 32.5517C4.86563 32.5705 4.8585 32.5903 4.82511 32.6159L4.82653 32.6145C4.75522 32.6598 4.81048 32.6822 4.73298 32.7286C4.68787 32.7643 4.61361 32.7933 4.55371 32.8255C4.47018 32.8774 4.39248 32.9294 4.32352 32.9817C4.28662 33.0082 4.26009 33.0336 4.23703 33.0587L4.23913 33.0557C4.12984 33.125 4.24875 33.1412 4.1534 33.2073L4.1541 33.2066C4.07659 33.2576 4.14893 33.2762 4.076 33.3262C4.01393 33.3875 4.00399 33.4312 4.09662 33.4404L4.08931 33.4404C4.11019 33.4478 4.14443 33.4465 4.17886 33.4451L4.17726 33.4448C4.22819 33.4455 4.21466 33.4796 4.27681 33.4745L4.2737 33.4728C4.33953 33.5025 4.48531 33.3232 4.53139 33.4047C4.86869 33.3678 4.87581 33.1887 5.13621 33.1167C5.11001 33.1759 4.99348 33.2564 5.02274 33.3068C5.05649 33.365 5.14088 33.327 5.25507 33.2594C5.26868 33.2531 5.28231 33.2468 5.29588 33.2405C5.44371 33.1978 5.58539 33.1422 5.72646 33.0855C5.78873 33.077 5.8458 33.0802 5.89538 33.1007C5.91077 33.1071 6.00284 33.0632 6.04952 33.0348C6.10979 32.9924 6.14482 32.9542 6.1537 32.9198C6.1548 32.9124 6.14838 32.9113 6.14149 32.9121C6.14436 32.9111 6.14649 32.9104 6.15045 32.909C6.18096 32.8978 6.1975 32.9056 6.2161 32.9071C6.24787 32.9056 6.28184 32.9003 6.31697 32.893C6.25894 32.9301 6.2029 32.9667 6.1929 32.9966C6.11421 33.0068 6.03939 33.0354 5.96828 33.082C5.93905 33.1015 5.90982 33.1209 5.88059 33.1404C5.71864 33.1932 5.63453 33.2624 5.5409 33.3285C5.47101 33.3779 5.4949 33.4009 5.5983 33.3783C5.66451 33.3638 5.73737 33.339 5.80723 33.3188L5.80726 33.3188C5.80726 33.3188 5.80726 33.3188 5.80726 33.3188L5.80714 33.3189C5.8055 33.339 5.80389 33.359 5.80234 33.3791C5.80229 33.3791 5.80226 33.3791 5.80224 33.3791C5.45232 33.4998 5.45232 33.4998 5.28201 33.613C5.39786 33.5749 5.49721 33.5413 5.59646 33.5101C5.64502 33.4948 5.67159 33.4969 5.63537 33.524C5.61955 33.5358 5.58379 33.5482 5.55708 33.5603C5.55705 33.5603 5.55705 33.5603 5.55705 33.5603C5.55705 33.5603 5.55705 33.5603 5.55708 33.5603C5.4833 33.5813 5.42011 33.6066 5.38585 33.6437L5.38588 33.6437L5.38585 33.6437C5.38585 33.6437 5.38497 33.6445 5.38497 33.6445L5.38497 33.6445C5.295 33.6898 5.20471 33.7345 5.0982 33.7665C4.97682 33.803 4.87531 33.8567 4.76873 33.9059C4.74396 33.9167 4.7185 33.9262 4.69237 33.9344C4.6193 33.9847 4.49456 34.0012 4.42431 34.0534L4.42604 34.0525C4.3733 34.0917 4.25341 34.1146 4.22557 34.16ZM54.886 14.5468C54.8879 14.5455 54.8895 14.5445 54.8914 14.5432C54.8925 14.5434 54.8939 14.5436 54.8951 14.5438C54.8921 14.5448 54.889 14.5458 54.886 14.5469C54.886 14.5469 54.886 14.5469 54.886 14.5469C54.886 14.5469 54.886 14.5469 54.886 14.5468ZM10.6741 32.3431C10.6712 32.3437 10.6685 32.3443 10.6656 32.3449C10.6884 32.3361 10.7112 32.3273 10.7352 32.3175C10.7143 32.3266 10.6941 32.335 10.6741 32.3431ZM54.6245 14.6661C54.6264 14.666 54.6284 14.6659 54.6303 14.6659C54.6303 14.6659 54.6245 14.6661 54.6246 14.6661C54.6232 14.6665 54.6218 14.667 54.6204 14.6675C54.6149 14.6664 54.6094 14.6653 54.604 14.6641C54.6112 14.6643 54.6182 14.6649 54.6245 14.6661ZM50.3712 15.3794C50.3741 15.3788 50.3768 15.3782 50.3797 15.3776C50.3569 15.3865 50.3341 15.3952 50.3101 15.405C50.331 15.3959 50.3512 15.3875 50.3712 15.3794ZM6.41501 33.0566C6.41508 33.0566 6.42081 33.0565 6.4208 33.0564C6.42219 33.056 6.42355 33.0555 6.42496 33.055C6.4305 33.0561 6.436 33.0573 6.44138 33.0584C6.4341 33.0582 6.42715 33.0576 6.42083 33.0564C6.41888 33.0565 6.41695 33.0566 6.41501 33.0566ZM6.15923 33.1757C6.15925 33.1757 6.15928 33.1756 6.15928 33.1756C6.15928 33.1756 6.15926 33.1757 6.15926 33.1757C6.15737 33.177 6.15578 33.1781 6.15394 33.1793C6.1528 33.1791 6.15136 33.179 6.15019 33.1787C6.1532 33.1777 6.15623 33.1767 6.15923 33.1757Z" fill="#F42362"/>
<path d="M1.23871 4.86931C1.3326 5.04047 1.62113 5.14443 1.78556 5.29122C1.82836 5.35735 1.93228 5.42909 2.03071 5.50034C2.11326 5.51594 2.2183 5.55957 2.35627 5.64435C2.35973 5.66449 2.41989 5.71136 2.47594 5.75623C2.53596 5.7986 2.59501 5.83569 2.65392 5.87111C2.69231 5.89468 2.73058 5.91844 2.76878 5.94148C2.84728 5.99096 2.92371 6.0461 2.9995 6.10195C3.15687 6.21801 3.31198 6.33729 3.46027 6.44367C3.39055 6.39584 3.31788 6.34424 3.24485 6.28893C3.08915 6.17103 2.94358 6.0907 2.89088 6.11622C2.89127 6.12466 2.89706 6.13598 2.90692 6.14945C2.86959 6.12449 2.83179 6.09851 2.79663 6.07791C2.78023 6.0683 2.77185 6.07499 2.75984 6.07426C2.783 6.09142 2.81378 6.11757 2.82781 6.12395C2.85882 6.13807 2.88427 6.14563 2.91085 6.15451C2.91802 6.16372 2.92649 6.17362 2.93752 6.18487C3.07972 6.32202 3.23717 6.37797 3.39655 6.49202C3.29226 6.42143 3.20114 6.36798 3.16915 6.37445C3.11784 6.38484 3.25191 6.46779 3.32099 6.52797C3.38706 6.58554 3.49822 6.65103 3.53484 6.70388C3.51599 6.68999 3.49712 6.67608 3.4783 6.66222C3.45401 6.6441 3.42971 6.62602 3.40527 6.60788L3.40529 6.60791C3.37205 6.58293 3.33881 6.55796 3.30557 6.53297C3.35109 6.63854 3.40466 6.68275 3.64682 6.81466C3.77181 6.90376 3.84191 6.97702 3.91242 7.05827C3.73575 6.95275 3.59138 6.89253 3.42795 6.75104C3.42125 6.74524 3.39434 6.73141 3.39174 6.73265C3.38465 6.73593 3.37443 6.74002 3.38506 6.75311C3.5223 6.92224 3.72125 7.10083 4.00318 7.2897C4.04722 7.3192 4.0611 7.32248 4.04465 7.30246C3.96773 7.21661 3.7974 7.12731 3.70647 7.01998C3.83782 7.11259 3.94137 7.18566 4.04496 7.25864C4.1991 7.36723 4.1352 7.26701 4.21708 7.30708C4.23496 7.32299 4.25275 7.33878 4.26902 7.35358C4.30192 7.38225 4.3362 7.41104 4.37189 7.43986C4.48338 7.57971 4.62833 7.72923 4.87753 7.91499C4.97447 7.98726 5.06213 8.06957 5.11183 8.13529C5.15111 8.18697 5.20545 8.22485 5.27137 8.25227C5.38925 8.30765 5.49977 8.39581 5.61325 8.48521C5.79426 8.62778 5.88802 8.69335 6.10348 8.82508C6.13079 8.84647 6.15773 8.8679 6.18386 8.88946C6.22634 8.92006 6.26923 8.94908 6.31195 8.97563C6.33644 8.99012 6.35962 9.00327 6.38205 9.01565C6.5505 9.14602 6.72084 9.26872 6.8987 9.36226C6.91046 9.36844 6.92684 9.38129 6.9411 9.39106C6.95806 9.40761 6.9775 9.42451 6.99953 9.44181C6.9995 9.4418 6.99947 9.44178 6.99944 9.44176C7.03728 9.50167 7.09483 9.57021 7.2226 9.64976C7.37652 9.74557 7.52259 9.85371 7.6697 9.9608C7.79496 10.052 7.90964 10.1272 8.00239 10.1557C8.07268 10.1773 8.15736 10.2335 8.25099 10.3024C8.60259 10.561 8.95489 10.8189 9.30663 11.0774C9.35883 11.1158 9.41062 11.1545 9.45562 11.1928C9.45117 11.1947 9.4471 11.1969 9.44331 11.1994C9.46533 11.226 9.48738 11.2527 9.50946 11.2793C9.57265 11.315 9.63581 11.3507 9.69907 11.3864C9.7014 11.3846 9.70326 11.3825 9.70481 11.3802C9.7536 11.4071 9.80208 11.4338 9.85175 11.4612C9.79751 11.3971 9.67929 11.3095 9.67096 11.2647C9.67072 11.2634 9.67103 11.2627 9.67092 11.2616C9.71964 11.3003 9.76877 11.339 9.8184 11.3776C10.0539 11.6172 10.3852 11.8746 10.697 12.1284C10.6909 12.1319 10.6848 12.1354 10.6786 12.139C10.7336 12.1798 10.7886 12.2206 10.8436 12.2615C10.8811 12.3155 11.0309 12.401 11.04 12.447C11.0319 12.4597 11.0202 12.4701 11.0608 12.513L11.0584 12.5096C11.0776 12.5353 11.1053 12.5568 11.1428 12.5736C11.1702 12.5922 11.1967 12.6116 11.2224 12.6318C11.2403 12.6367 11.2801 12.6627 11.3258 12.6944C11.343 12.7132 11.3597 12.732 11.3754 12.7506C11.3827 12.7592 11.3853 12.7657 11.3901 12.7732C11.1015 12.638 10.7471 12.4381 10.419 12.2228C10.2704 12.1252 10.1132 12.0093 10.0197 12.001C10.0197 12.001 10.021 12.0028 10.021 12.0028C10.0092 12.036 9.83523 11.9315 9.84942 11.9899C10.0971 12.177 10.3438 12.3571 10.6034 12.5356C10.9035 12.7418 11.2005 12.9633 11.4968 13.1801C11.5472 13.2171 11.5872 13.2638 11.632 13.306C11.632 13.306 11.6303 13.3046 11.6303 13.3046C11.6497 13.3304 11.6761 13.3504 11.7104 13.3636C11.7104 13.3636 11.7097 13.3631 11.7097 13.3631C11.7893 13.3938 11.8799 13.4607 11.9678 13.5255C12.1882 13.6879 12.4059 13.8563 12.6287 14.0117C12.7548 14.0997 12.8583 14.1764 12.9576 14.2669C13.2164 14.5027 13.5072 14.734 13.8305 14.9588C13.8904 15.0023 13.9502 15.0459 14.0101 15.0894C14.2515 15.2591 14.4986 15.4098 14.7365 15.5918C14.8296 15.6348 14.9275 15.7031 15.0267 15.7779C15.0568 15.7998 15.0869 15.8216 15.117 15.8435L15.1604 15.873L15.2015 15.905L15.2017 15.9055C15.2402 15.9244 15.2731 15.9481 15.2994 15.9774C15.2994 15.9774 15.3001 15.9774 15.3001 15.9774C15.4147 16.061 15.5294 16.1446 15.644 16.2282C15.7134 16.2604 15.7859 16.3128 15.8598 16.3667C16.1521 16.5803 16.4447 16.7936 16.7373 17.0069C16.7669 17.029 16.7966 17.0511 16.8262 17.0733C16.8854 17.1165 16.9446 17.1597 17.0038 17.2029C17.0821 17.2355 17.1686 17.2939 17.2592 17.3605C17.5653 17.5856 17.8717 17.8103 18.1781 18.0352C18.4704 18.2188 18.8783 18.5182 19.1724 18.7649C19.2241 18.8019 19.2759 18.8389 19.3278 18.8759C19.3964 18.9071 19.4689 18.9587 19.543 19.0133C19.6887 19.1206 19.8347 19.2276 19.9806 19.3347C20.0106 19.3566 20.0406 19.3785 20.0707 19.4004C20.1279 19.4418 20.1851 19.4833 20.2424 19.5248C20.2424 19.5248 20.2435 19.5266 20.2435 19.5266C20.3212 19.5656 20.3855 19.6168 20.4437 19.6734C20.464 19.6848 20.484 19.6984 20.5037 19.7141C20.5139 19.7139 20.5243 19.7137 20.5348 19.7137C20.5575 19.7232 20.5806 19.7342 20.6037 19.746C20.6086 19.7588 20.6191 19.7771 20.6348 19.801C21.0402 20.1067 21.4686 20.3989 21.8586 20.7157C21.8875 20.7547 21.9465 20.797 22.0036 20.8391C22.0452 20.869 22.0822 20.8903 22.1145 20.9028L22.112 20.9022C22.2384 20.9651 22.369 21.0964 22.4951 21.1544L22.5327 21.1788L22.5669 21.2066C22.7918 21.3348 22.9971 21.5366 23.2235 21.6591L23.2185 21.6563C23.3458 21.7268 23.471 21.7909 23.6104 21.9004C23.6479 21.9278 23.6855 21.9532 23.7235 21.9769C23.7979 22.023 23.872 22.0785 23.9462 22.125C23.983 22.148 24.0188 22.169 24.0534 22.1877C24.1028 22.2125 24.1468 22.2314 24.1857 22.2446L24.1853 22.2452C24.2842 22.3038 24.367 22.3402 24.454 22.3826C24.6248 22.4796 24.8198 22.6481 24.9773 22.7058L24.977 22.7066C25.2256 22.8573 25.4398 23.0436 25.6715 23.212C25.6747 23.2145 25.678 23.2169 25.6813 23.2194C25.688 23.2269 25.6988 23.2367 25.7133 23.2483C25.7633 23.2884 25.8187 23.3278 25.8719 23.3675C25.8815 23.3674 25.8892 23.3657 25.8956 23.3631C25.8975 23.3641 25.8993 23.3652 25.9012 23.3662C25.9049 23.3675 25.9083 23.3687 25.9119 23.37C25.9898 23.4249 26.0678 23.4799 26.1458 23.5349C26.1243 23.494 26.0685 23.4487 26.0064 23.4026C26.0769 23.4373 26.1506 23.4849 26.2249 23.5357C26.274 23.5713 26.3231 23.607 26.3722 23.6426C26.3746 23.6425 26.3771 23.6424 26.3795 23.6423C26.4144 23.6661 26.4492 23.6891 26.4835 23.7102C26.7621 23.9033 27.0433 24.0899 27.3212 24.2873C27.6275 24.465 27.9075 24.7246 28.213 24.9058L28.21 24.9042C28.4798 25.0737 28.7252 25.2762 28.9848 25.4606C29.0263 25.4916 29.0679 25.5205 29.1109 25.5479C29.1839 25.5685 29.1945 25.6164 29.2418 25.6475C29.2839 25.6766 29.326 25.7039 29.3677 25.7292C29.6297 25.8967 29.8775 26.0784 30.1118 26.273C30.2114 26.3811 30.3716 26.4746 30.4994 26.5759C30.5486 26.6135 30.5934 26.6406 30.6339 26.6571L30.6314 26.6565C30.802 26.7502 30.9616 26.903 31.132 26.9981C31.1732 27.0229 31.2146 27.0483 31.256 27.074C31.3386 27.1334 31.4261 27.1888 31.4965 27.2468C31.8242 27.5168 32.1842 27.764 32.525 28.0234L32.5278 28.0249C32.5488 28.0359 32.5608 28.0394 32.5647 28.0361C32.6472 28.0978 32.7377 28.1577 32.8007 28.2232C32.8007 28.2232 32.8075 28.2258 32.8074 28.2258C32.9224 28.3031 33.0374 28.3805 33.1525 28.4578C33.1553 28.4591 33.1583 28.4606 33.1612 28.462C33.1617 28.4627 33.1624 28.4635 33.1629 28.4642C33.1616 28.4633 33.1603 28.4623 33.159 28.4614C33.1637 28.4671 33.1687 28.4729 33.1738 28.4786C33.1849 28.4921 33.1991 28.507 33.217 28.5235C33.2198 28.5258 33.2227 28.528 33.2255 28.5303C33.3154 28.6122 33.4383 28.6929 33.5419 28.7739C33.649 28.8577 33.7778 28.9395 33.8488 29.0246C33.9306 29.0853 34.0124 29.146 34.0943 29.2067C34.0955 29.2075 34.0962 29.2077 34.0974 29.2084C34.0992 29.2101 34.1011 29.2117 34.1028 29.2133C34.1338 29.2365 34.1652 29.2594 34.1968 29.282C34.1987 29.2838 34.2001 29.2853 34.2023 29.2873C34.2023 29.2873 34.2031 29.2872 34.2031 29.2872C34.5787 29.5638 34.9543 29.8405 35.33 30.1172C35.5638 30.2935 35.7964 30.4705 36.0283 30.6479C36.3098 30.8457 36.5395 31.0632 36.8246 31.2602C36.8671 31.295 36.9113 31.3292 36.9573 31.3629C37.1797 31.527 37.4024 31.6908 37.6254 31.855C37.6679 31.8864 37.71 31.9173 37.7527 31.9486C37.8583 32.0146 37.9492 32.0914 38.0451 32.1645C38.1592 32.2478 38.2721 32.3318 38.3862 32.415C38.4998 32.4883 38.6131 32.562 38.7122 32.6513C38.7468 32.6796 38.7827 32.7075 38.82 32.7348C38.8763 32.7759 38.933 32.8181 38.982 32.8356L38.9785 32.8345C39.4244 33.1324 39.8397 33.4637 40.2744 33.7754C40.319 33.8082 40.3626 33.8404 40.4071 33.8734C40.5253 33.9574 40.6509 34.0293 40.7586 34.1258C40.7925 34.1546 40.828 34.1829 40.866 34.211C40.9215 34.2521 40.977 34.293 41.0328 34.3335C41.0717 34.3611 41.1067 34.3814 41.1379 34.3942L41.1357 34.3933C41.4502 34.5846 41.7323 34.8466 42.0483 35.0346C42.2054 35.1164 42.3571 35.2691 42.5144 35.3486L42.5485 35.3694L42.5809 35.3949C42.7461 35.4863 42.9033 35.6403 43.0693 35.7259L43.1038 35.7476L43.1362 35.7733C43.1657 35.793 43.1817 35.8004 43.1871 35.7982C43.1877 35.7986 43.1883 35.7991 43.1889 35.7995C43.3193 35.8955 43.4497 35.9919 43.5805 36.0876C43.6264 36.1215 43.6688 36.1471 43.7077 36.1641L43.7052 36.1631C43.8292 36.2292 43.9414 36.3279 44.0597 36.4098C44.1015 36.44 44.1389 36.4616 44.1717 36.4746L44.1689 36.4736C44.2619 36.5176 44.3676 36.6184 44.4597 36.6586L44.4595 36.6585C44.6121 36.7409 44.7478 36.8626 44.8929 36.9622C44.9365 36.9941 44.9763 37.0175 45.0119 37.0325L45.0092 37.0314C45.1025 37.075 45.2088 37.1773 45.3014 37.2174L45.3357 37.2383L45.3682 37.264C45.4672 37.3159 45.5756 37.4159 45.673 37.4596C45.8287 37.5392 45.9816 37.6949 46.1374 37.7705C46.2679 37.8411 46.3853 37.9442 46.5093 38.0306C46.5707 38.0754 46.6327 38.1232 46.6901 38.147C46.8798 38.2505 47.0563 38.4268 47.2467 38.5268L47.2452 38.5261C47.4572 38.6509 47.6456 38.8143 47.8479 38.955C47.8952 38.9909 47.9383 39.0168 47.977 39.0325L47.9744 39.0317C48.1783 39.1528 48.3601 39.309 48.5547 39.4452C48.5972 39.4767 48.6401 39.5073 48.6837 39.5372C48.8068 39.5945 48.931 39.6917 49.0551 39.7828C49.0988 39.8145 49.138 39.8376 49.1722 39.8507L49.1693 39.8498C49.2621 39.8941 49.3692 39.9967 49.4605 40.0342L49.4579 40.0328C49.5221 40.064 49.5951 40.1214 49.6613 40.1587C49.7218 40.1875 49.7956 40.2367 49.8547 40.2635L49.8527 40.2625C49.9176 40.2947 49.9834 40.3446 50.049 40.3919C50.0837 40.4152 50.1144 40.4322 50.1406 40.4419L50.1377 40.441C50.2294 40.4834 50.3388 40.5892 50.4281 40.6233C50.4971 40.6593 50.5743 40.72 50.6436 40.7568C50.7247 40.7912 50.8307 40.8861 50.9109 40.9183C50.9714 40.9484 51.0474 41.0083 51.1038 41.0307C51.1464 41.0543 51.1823 41.0698 51.217 41.0839C51.2554 41.103 51.292 41.12 51.3234 41.1312C51.3649 41.1529 51.4028 41.1707 51.4316 41.178C51.4997 41.2144 51.5027 41.1879 51.5628 41.2165L51.562 41.2162C51.6003 41.2341 51.6408 41.2544 51.6681 41.2603L51.6591 41.2551C51.6927 41.2738 51.7169 41.2828 51.7316 41.282C51.7488 41.272 51.76 41.2572 51.8168 41.2798L51.8134 41.2788C51.9165 41.327 51.884 41.2606 51.963 41.2884C51.959 41.2779 51.9661 41.2761 51.9842 41.2829C52.1217 41.3382 52.036 41.2129 52.1717 41.2667L52.1701 41.2662C52.2349 41.2971 52.2397 41.2729 52.2963 41.2963C52.3586 41.3264 52.4398 41.3917 52.4964 41.4112L52.4904 41.4088C52.5334 41.4332 52.5683 41.4475 52.6057 41.4648L52.6068 41.4653C52.6423 41.4812 52.6786 41.4981 52.7127 41.5124C52.7513 41.5308 52.791 41.5504 52.8198 41.5578C52.8867 41.5928 52.8902 41.567 52.9497 41.5947L52.9487 41.5944C52.9869 41.613 53.0234 41.6296 53.0578 41.6437C53.0962 41.6626 53.1331 41.6797 53.1658 41.692C53.2302 41.7244 53.231 41.6961 53.2968 41.7299L53.2989 41.7305C53.3321 41.7436 53.3719 41.7639 53.3995 41.771C53.5267 41.8311 53.4539 41.7242 53.5682 41.7735L53.5648 41.7717C53.6221 41.8001 53.6715 41.8202 53.7067 41.8254C53.8097 41.8374 53.9422 41.879 54.1326 41.9699C54.1843 42.1377 54.4896 42.2967 54.7258 42.4595C54.7653 42.4887 54.8049 42.516 54.8453 42.5418C54.9228 42.5883 54.9889 42.6201 55.0466 42.6411C55.0718 42.6488 55.0927 42.6529 55.1094 42.6531C55.1241 42.6458 55.1439 42.6431 55.1882 42.6613L55.1861 42.6606C55.2739 42.7037 55.2473 42.644 55.3407 42.692C55.4014 42.716 55.4797 42.7692 55.5493 42.808C55.6513 42.859 55.7489 42.9047 55.8399 42.9424C55.8876 42.9633 55.9265 42.9754 55.9624 42.9845L55.9586 42.984C56.0931 43.05 56.0129 42.9362 56.1343 42.9913L56.1332 42.9909C56.23 43.037 56.1875 42.9637 56.2799 43.006C56.3721 43.0335 56.4114 43.0223 56.3465 42.9353L56.3521 42.9418C56.3413 42.9197 56.3139 42.8897 56.2863 42.8595L56.2873 42.8611C56.2484 42.8152 56.2835 42.8117 56.2317 42.7584L56.2329 42.762C56.2035 42.6894 55.9613 42.6412 55.9845 42.5626C55.6972 42.2777 55.5624 42.3534 55.3091 42.1534C55.3721 42.1498 55.5203 42.2171 55.534 42.1678C55.5499 42.111 55.4572 42.0529 55.3202 41.9817C55.3051 41.9724 55.29 41.9631 55.275 41.9538C55.1299 41.8411 54.9802 41.7398 54.8302 41.6396C54.7759 41.5878 54.7342 41.5352 54.7106 41.4815C54.7033 41.4648 54.6005 41.4025 54.5439 41.3737C54.4667 41.3392 54.412 41.3254 54.3803 41.3332C54.3742 41.3356 54.3784 41.3419 54.3842 41.3477C54.3813 41.3456 54.3791 41.344 54.375 41.3411C54.3434 41.3189 54.3362 41.3005 54.3229 41.2832C54.2972 41.2555 54.2672 41.2275 54.2348 41.1994C54.3063 41.2343 54.3761 41.2677 54.4055 41.2629C54.4736 41.3287 54.5521 41.3825 54.6407 41.4248C54.6773 41.442 54.714 41.4592 54.7506 41.4765C54.9139 41.5972 55.0289 41.6407 55.149 41.6942C55.2387 41.7341 55.2368 41.7022 55.1406 41.6201C55.0789 41.5674 55.0047 41.5136 54.9361 41.4604L54.9361 41.4603L54.9362 41.4604C54.952 41.4527 54.9677 41.4449 54.9834 41.4371C54.9834 41.4371 54.9834 41.4372 54.9835 41.4372C55.3411 41.695 55.3411 41.695 55.5545 41.7955C55.4374 41.7093 55.3364 41.6359 55.2371 41.5613C55.1885 41.5249 55.1695 41.5001 55.217 41.5201C55.2377 41.5289 55.2743 41.5552 55.3037 41.5735C55.3037 41.5735 55.3037 41.5735 55.3037 41.5735C55.3759 41.6299 55.443 41.6749 55.4963 41.6885L55.4963 41.6885C55.4963 41.6885 55.4963 41.6885 55.4963 41.6885C55.4963 41.6885 55.4976 41.6889 55.4976 41.689L55.4976 41.6889C55.5998 41.7487 55.7019 41.809 55.8073 41.8896C55.9275 41.9815 56.0448 42.0478 56.1627 42.1206C56.1896 42.1378 56.2162 42.1562 56.2423 42.1758C56.3351 42.2181 56.4434 42.3222 56.5354 42.3612L56.5334 42.36C56.6026 42.3892 56.7118 42.486 56.7661 42.4901C56.6722 42.319 56.3836 42.215 56.2192 42.0682C56.1764 42.0021 56.0725 41.9303 55.9741 41.8591C55.8915 41.8435 55.7865 41.7999 55.6485 41.7151C55.6451 41.695 55.5849 41.6481 55.5288 41.6032C55.4688 41.5608 55.4098 41.5237 55.3508 41.4883C55.3125 41.4647 55.2742 41.441 55.236 41.4179C55.1575 41.3685 55.0811 41.3133 55.0053 41.2575C54.8479 41.1414 54.6928 41.0221 54.5445 40.9158C54.6142 40.9636 54.6869 41.0152 54.7599 41.0705C54.9156 41.1884 55.0612 41.2687 55.1139 41.2432C55.1135 41.2348 55.1077 41.2234 55.0979 41.21C55.1352 41.2349 55.173 41.2609 55.2081 41.2815C55.2245 41.2911 55.2329 41.2844 55.2449 41.2852C55.2218 41.268 55.191 41.2419 55.177 41.2355C55.146 41.2214 55.1205 41.2138 55.0939 41.2049C55.0868 41.1957 55.0783 41.1858 55.0672 41.1746C54.925 41.0374 54.7676 40.9815 54.6082 40.8674C54.7125 40.938 54.8036 40.9915 54.8356 40.985C54.8869 40.9746 54.7528 40.8916 54.6838 40.8314C54.6177 40.7739 54.5065 40.7084 54.4699 40.6555C54.4888 40.6694 54.5076 40.6833 54.5264 40.6972C54.5507 40.7153 54.575 40.7334 54.5994 40.7515L54.5994 40.7515C54.6327 40.7765 54.6659 40.8014 54.6991 40.8264C54.6536 40.7208 54.6001 40.6766 54.3579 40.5447C54.2329 40.4556 54.1628 40.3824 54.0923 40.3011C54.269 40.4066 54.4134 40.4669 54.5768 40.6083C54.5835 40.6141 54.6104 40.628 54.613 40.6267C54.6201 40.6235 54.6303 40.6194 54.6197 40.6063C54.4824 40.4371 54.2835 40.2586 54.0016 40.0697C53.9575 40.0402 53.9436 40.0369 53.9601 40.0569C54.037 40.1428 54.2073 40.2321 54.2983 40.3394C54.1669 40.2468 54.0633 40.1737 53.9598 40.1008C53.8056 39.9922 53.8695 40.0924 53.7877 40.0523C53.7698 40.0364 53.752 40.0206 53.7357 40.0058C53.7028 39.9772 53.6685 39.9484 53.6329 39.9195C53.5214 39.7797 53.3764 39.6302 53.1272 39.4444C53.0303 39.3721 52.9426 39.2898 52.8929 39.2241C52.8536 39.1724 52.7993 39.1345 52.7333 39.1071C52.6155 39.0517 52.5049 38.9636 52.3915 38.8742C52.2105 38.7316 52.1167 38.666 51.9012 38.5343C51.8739 38.5129 51.847 38.4915 51.8208 38.4699C51.7783 38.4393 51.7355 38.4103 51.6927 38.3837C51.6683 38.3692 51.6451 38.3561 51.6226 38.3437C51.4542 38.2133 51.2839 38.0906 51.106 37.9971C51.0943 37.9909 51.0779 37.9781 51.0636 37.9683C51.0467 37.9518 51.0272 37.9349 51.0052 37.9176C51.0052 37.9176 51.0052 37.9176 51.0053 37.9176C50.9674 37.8577 50.9099 37.7891 50.7821 37.7096C50.6282 37.6138 50.4822 37.5057 50.335 37.3986C50.2098 37.3074 50.0951 37.2322 50.0023 37.2037C49.932 37.182 49.8474 37.1258 49.7537 37.057C49.4021 36.7984 49.0498 36.5404 48.6981 36.282C48.6459 36.2436 48.5941 36.2049 48.5491 36.1665C48.5536 36.1647 48.5576 36.1624 48.5614 36.16C48.5394 36.1333 48.5173 36.1067 48.4953 36.08C48.4321 36.0444 48.3689 36.0087 48.3056 35.973C48.3033 35.9748 48.3015 35.9769 48.2999 35.9792C48.2511 35.9523 48.2026 35.9256 48.153 35.8982C48.2072 35.9623 48.3254 36.0499 48.3338 36.0947C48.334 36.096 48.3337 36.0967 48.3338 36.0978C48.2851 36.059 48.236 36.0204 48.1863 35.9818C47.9509 35.7422 47.6195 35.4847 47.3077 35.2309C47.3138 35.2274 47.32 35.2239 47.3261 35.2204C47.2711 35.1796 47.2161 35.1387 47.1611 35.0979C47.1236 35.0439 46.9738 34.9583 46.9648 34.9123C46.9728 34.8997 46.9845 34.8893 46.9438 34.8464L46.9463 34.8498C46.9271 34.8241 46.8994 34.8025 46.8619 34.7858C46.8345 34.7672 46.808 34.7477 46.7823 34.7276C46.7644 34.7227 46.7246 34.6967 46.6788 34.665C46.6617 34.6461 46.645 34.6273 46.6293 34.6087C46.622 34.6001 46.6193 34.5936 46.6145 34.5861C46.9032 34.7214 47.2576 34.9212 47.5856 35.1365C47.7343 35.2341 47.8915 35.3501 47.985 35.3584C47.985 35.3584 47.9836 35.3565 47.9837 35.3566C47.9955 35.3233 48.1694 35.4278 48.1552 35.3694C47.9076 35.1823 47.6609 35.0022 47.4012 34.8238C47.1012 34.6176 46.8042 34.396 46.5079 34.1792C46.4575 34.1423 46.4175 34.0956 46.3727 34.0534C46.3727 34.0534 46.3744 34.0548 46.3744 34.0548C46.355 34.029 46.3286 34.009 46.2942 33.9957C46.2942 33.9957 46.295 33.9963 46.295 33.9962C46.2154 33.9655 46.1248 33.8987 46.037 33.8339C45.8165 33.6715 45.5988 33.5031 45.376 33.3476C45.2499 33.2596 45.1464 33.183 45.0471 33.0925C44.7883 32.8567 44.4976 32.6254 44.1742 32.4005C44.1144 32.357 44.0545 32.3135 43.9946 32.27C43.7532 32.1003 43.5061 31.9496 43.2682 31.7676C43.1751 31.7246 43.0772 31.6564 42.9781 31.5814C42.9479 31.5596 42.9178 31.5377 42.8877 31.5159L42.8443 31.4864L42.8032 31.4544L42.8031 31.4538C42.7645 31.435 42.7316 31.4113 42.7054 31.3819C42.7054 31.3819 42.7046 31.382 42.7046 31.382C42.59 31.2984 42.4753 31.2148 42.3607 31.1312C42.2913 31.099 42.2189 31.0466 42.145 30.9926C41.8526 30.7791 41.56 30.5658 41.2674 30.3524C41.2378 30.3303 41.2081 30.3082 41.1785 30.2862C41.1193 30.2429 41.0601 30.1997 41.0009 30.1565C40.9226 30.1239 40.8361 30.0655 40.7455 29.9989C40.4395 29.7739 40.133 29.5491 39.8267 29.3242C39.5343 29.1406 39.1264 28.8412 38.8324 28.5945C38.7806 28.5575 38.7288 28.5205 38.677 28.4835C38.6083 28.4523 38.5358 28.4007 38.4617 28.3462C38.3161 28.2388 38.1701 28.1318 38.0242 28.0247C37.9941 28.0028 37.9641 27.9809 37.9341 27.959C37.8769 27.9176 37.8197 27.8762 37.7624 27.8347C37.7623 27.8346 37.7612 27.8328 37.7612 27.8328C37.6835 27.7939 37.6193 27.7427 37.561 27.686C37.5408 27.6746 37.5208 27.661 37.5011 27.6453C37.4908 27.6455 37.4805 27.6457 37.47 27.6457C37.4472 27.6362 37.4242 27.6252 37.401 27.6135C37.3961 27.6006 37.3857 27.5823 37.37 27.5584C36.9646 27.2527 36.5362 26.9605 36.1461 26.6437C36.1173 26.6047 36.0583 26.5624 36.0011 26.5203C35.9595 26.4904 35.9225 26.4691 35.8903 26.4566L35.8928 26.4572C35.7663 26.3943 35.6358 26.263 35.5096 26.205L35.472 26.1806L35.4378 26.1527C35.2129 26.0245 35.0076 25.8228 34.7812 25.7002L34.7862 25.7031C34.6589 25.6326 34.5337 25.5685 34.3943 25.459C34.3568 25.4316 34.3192 25.4062 34.2812 25.3824C34.2068 25.3364 34.1327 25.2809 34.0585 25.2344C34.0217 25.2114 33.9859 25.1903 33.9513 25.1717C33.9019 25.1469 33.8579 25.128 33.819 25.1148L33.8194 25.1141C33.7205 25.0556 33.6377 25.0192 33.5507 24.9768C33.3799 24.8798 33.1849 24.7113 33.0274 24.6536L33.0277 24.6528C32.7792 24.5021 32.5649 24.3158 32.3332 24.1474C32.33 24.1449 32.3267 24.1425 32.3235 24.14C32.3167 24.1325 32.3059 24.1227 32.2914 24.1111C32.2414 24.071 32.1859 24.0316 32.1329 23.9919C32.1232 23.992 32.1155 23.9937 32.1091 23.9963C32.1072 23.9953 32.1054 23.9942 32.1035 23.9932C32.0999 23.9919 32.0964 23.9907 32.0928 23.9894C32.0149 23.9345 31.9369 23.8795 31.8589 23.8244C31.8805 23.8654 31.9362 23.9107 31.9984 23.9568C31.9278 23.9221 31.8541 23.8745 31.7798 23.8237C31.7307 23.7881 31.6816 23.7524 31.6325 23.7168C31.6301 23.7169 31.6276 23.717 31.6252 23.717C31.5903 23.6933 31.5555 23.6703 31.5212 23.6491C31.2426 23.4561 30.9614 23.2695 30.6835 23.0721C30.3773 22.8944 30.0972 22.6347 29.7917 22.4536L29.7948 22.4552C29.5249 22.2857 29.2795 22.0832 29.02 21.8988C28.9784 21.8677 28.9368 21.8389 28.8939 21.8115C28.8208 21.7909 28.8102 21.743 28.7629 21.7119C28.7209 21.6828 28.6788 21.6555 28.637 21.6302C28.375 21.4627 28.1273 21.281 27.8929 21.0864C27.7933 20.9783 27.6331 20.8848 27.5053 20.7835C27.4562 20.7459 27.4113 20.7188 27.3709 20.7023L27.3733 20.7029C27.2028 20.6092 27.0431 20.4564 26.8727 20.3613C26.8315 20.3365 26.7902 20.3111 26.7488 20.2854C26.6662 20.226 26.5786 20.1706 26.5082 20.1125C26.1805 19.8426 25.8205 19.5954 25.4797 19.336L25.4769 19.3345C25.4559 19.3235 25.4439 19.32 25.44 19.3232C25.3575 19.2616 25.267 19.2017 25.204 19.1362C25.204 19.1362 25.1973 19.1336 25.1973 19.1336C25.0824 19.0563 24.9673 18.9789 24.8523 18.9016C24.8494 18.9003 24.8464 18.8988 24.8436 18.8974C24.8431 18.8967 24.8424 18.8959 24.8418 18.8952C24.8431 18.8961 24.8444 18.8971 24.8457 18.898C24.8411 18.8923 24.8361 18.8865 24.8309 18.8808C24.8198 18.8673 24.8056 18.8524 24.7878 18.8358C24.7849 18.8336 24.7821 18.8314 24.7793 18.8291C24.6894 18.7472 24.5665 18.6665 24.4629 18.5855C24.3558 18.5017 24.2269 18.4199 24.156 18.3348C24.0741 18.2741 23.9923 18.2134 23.9105 18.1527C23.9092 18.1519 23.9085 18.1517 23.9073 18.151C23.9056 18.1493 23.9037 18.1477 23.9019 18.1461C23.8709 18.1229 23.8395 18.1 23.808 18.0774C23.806 18.0756 23.8046 18.0741 23.8024 18.0721C23.8024 18.0721 23.8016 18.0722 23.8016 18.0722C23.426 17.7956 23.0504 17.5189 22.6748 17.2422C22.4409 17.0659 22.2084 16.8889 21.9764 16.7115C21.6949 16.5137 21.4653 16.2962 21.1802 16.0992C21.1376 16.0644 21.0935 16.0302 21.0475 15.9965C20.825 15.8324 20.6024 15.6686 20.3794 15.5044C20.3368 15.473 20.2948 15.4421 20.2521 15.4108C20.1465 15.3448 20.0555 15.268 19.9596 15.1949C19.8456 15.1116 19.7327 15.0276 19.6186 14.9444C19.5049 14.871 19.3916 14.7975 19.2925 14.7081C19.258 14.6798 19.2221 14.6519 19.1848 14.6246C19.1285 14.5835 19.0717 14.5412 19.0227 14.5238L19.0262 14.5249C18.5804 14.227 18.1651 13.8957 17.7303 13.584C17.6858 13.5512 17.6422 13.519 17.5976 13.486C17.4795 13.402 17.3538 13.3301 17.2461 13.2336C17.2122 13.2048 17.1767 13.1765 17.1388 13.1484C17.0832 13.1073 17.0278 13.0664 16.972 13.0259C16.933 12.9983 16.898 12.978 16.8669 12.9652L16.8691 12.9661C16.5546 12.7749 16.2725 12.5128 15.9565 12.3248C15.7993 12.243 15.6477 12.0904 15.4903 12.0109L15.4562 11.99L15.4239 11.9645C15.2586 11.8732 15.1015 11.7191 14.9355 11.6335L14.9009 11.6118L14.8685 11.5861C14.839 11.5664 14.823 11.559 14.8176 11.5612C14.817 11.5608 14.8165 11.5603 14.8158 11.5599C14.6854 11.4639 14.5551 11.3676 14.4243 11.2718C14.3783 11.2379 14.3359 11.2124 14.297 11.1953L14.2995 11.1963C14.1756 11.1302 14.0633 11.0315 13.9451 10.9496C13.9032 10.9195 13.8659 10.8979 13.833 10.8849L13.8358 10.8858C13.7429 10.8418 13.6371 10.7411 13.545 10.7008L13.5453 10.7009C13.3926 10.6186 13.257 10.4968 13.1119 10.3972C13.0682 10.3653 13.0285 10.3419 12.9928 10.3269L12.9955 10.328C12.9022 10.2844 12.7958 10.1821 12.7033 10.142L12.669 10.1211L12.6365 10.0954C12.5375 10.0435 12.4291 9.94347 12.3317 9.89985C12.176 9.82023 12.0231 9.6645 11.8673 9.58889C11.7369 9.5183 11.6194 9.41526 11.4954 9.32881C11.4341 9.28401 11.3721 9.23623 11.3147 9.21238C11.125 9.10888 10.9484 8.93264 10.7581 8.83262L10.7595 8.83332C10.5475 8.70848 10.3591 8.54512 10.1569 8.40447C10.1095 8.36852 10.0665 8.34265 10.0278 8.32697L10.0303 8.32774C9.82642 8.20662 9.64462 8.05047 9.45006 7.91423C9.40754 7.88276 9.36464 7.85213 9.3211 7.82223C9.19795 7.76491 9.07372 7.66769 8.94968 7.57667C8.90601 7.54498 8.86672 7.52183 8.83259 7.50871L8.83551 7.50961C8.74267 7.46538 8.63552 7.36275 8.5443 7.3252L8.5469 7.32663C8.48263 7.29541 8.40969 7.23803 8.34346 7.20077C8.28293 7.17193 8.20918 7.12269 8.15006 7.09601L8.15209 7.09698C8.08716 7.0648 8.02137 7.01486 7.95582 6.96752C7.92114 6.94431 7.89039 6.92731 7.86423 6.91752L7.8671 6.91852C7.77544 6.87609 7.66607 6.77034 7.57671 6.73617C7.50773 6.70016 7.43051 6.6395 7.36127 6.60267C7.28015 6.56825 7.17413 6.4734 7.09394 6.44123C7.03347 6.41105 6.95739 6.35117 6.90101 6.3288C6.85847 6.30521 6.82252 6.28964 6.78781 6.27556C6.74942 6.25645 6.71287 6.23944 6.6814 6.2283C6.63991 6.20654 6.60199 6.18883 6.57323 6.18148C6.50514 6.14514 6.50213 6.17163 6.44202 6.14298L6.44283 6.14326C6.4045 6.12534 6.36403 6.10505 6.33667 6.09918L6.34569 6.10442C6.31208 6.08569 6.28791 6.0767 6.27319 6.0775C6.256 6.08744 6.24482 6.10229 6.18806 6.07971L6.1914 6.08071C6.08828 6.03254 6.12085 6.09894 6.04185 6.07115C6.04577 6.08155 6.03868 6.08335 6.02067 6.0766C5.88313 6.02134 5.96886 6.14656 5.83315 6.09279L5.83472 6.0933C5.76991 6.06241 5.76513 6.08661 5.70853 6.06325C5.64626 6.03315 5.56508 5.96786 5.50848 5.94829L5.51443 5.95073C5.47142 5.92628 5.4365 5.91205 5.39911 5.89471L5.39801 5.8942C5.36253 5.87827 5.32621 5.86136 5.29211 5.84704C5.25351 5.82868 5.21377 5.80909 5.18504 5.80169C5.11808 5.76674 5.11457 5.79252 5.05514 5.76479L5.05612 5.76513C5.01791 5.7465 4.98139 5.72985 4.94709 5.71581C4.90862 5.69689 4.87172 5.67978 4.83903 5.66755C4.77467 5.63513 4.77381 5.66337 4.70809 5.62966L4.70595 5.62901C4.67277 5.61587 4.63297 5.59566 4.6054 5.58854C4.47814 5.52844 4.55094 5.6353 4.43667 5.58604L4.44005 5.58783C4.38275 5.55947 4.3333 5.53934 4.29811 5.53407C4.1952 5.52209 4.06264 5.48055 3.87225 5.38958C3.82056 5.2218 3.51528 5.06277 3.279 4.89995C3.23954 4.87081 3.19991 4.84349 3.15949 4.81766C3.08197 4.7712 3.01597 4.7394 2.95818 4.71839C2.93304 4.71068 2.91213 4.70658 2.89544 4.70638C2.88075 4.71367 2.86088 4.71641 2.81662 4.69823L2.81872 4.69887C2.73091 4.65581 2.75747 4.71553 2.66407 4.66744C2.60341 4.64345 2.5251 4.59027 2.45551 4.55145C2.3535 4.50047 2.25587 4.4548 2.16486 4.41703C2.11721 4.39616 2.07832 4.38409 2.04238 4.37496L2.0462 4.37543C1.91168 4.30941 1.99189 4.42325 1.87049 4.3682L1.87152 4.36853C1.77481 4.32252 1.81727 4.39579 1.72483 4.35343C1.63262 4.32598 1.59336 4.33713 1.65834 4.42422L1.65269 4.41768C1.6635 4.43975 1.6909 4.46979 1.71853 4.49995L1.71752 4.49838C1.75637 4.54428 1.72134 4.54778 1.77305 4.60107L1.7719 4.59749C1.80133 4.67002 2.04347 4.71828 2.02028 4.79685C2.30764 5.08178 2.44243 5.00606 2.69568 5.20609C2.63275 5.20974 2.48453 5.14237 2.47076 5.19165C2.45487 5.24851 2.54756 5.30659 2.68462 5.37779C2.69968 5.38709 2.71477 5.39639 2.7298 5.40567C2.87488 5.51838 3.02455 5.61967 3.17459 5.71988C3.22885 5.77171 3.27063 5.82426 3.29418 5.87802C3.30148 5.8947 3.40434 5.95697 3.46091 5.98574C3.53812 6.02022 3.59278 6.03406 3.62449 6.02623C3.63063 6.02386 3.62646 6.0176 3.6206 6.01178C3.62352 6.01389 3.62565 6.0155 3.62975 6.01838C3.6614 6.04057 3.66857 6.05893 3.68189 6.07624C3.70752 6.10399 3.7376 6.13196 3.77 6.16006C3.69842 6.12511 3.62864 6.09176 3.59931 6.09653C3.53116 6.03076 3.45264 5.97694 3.36404 5.93466C3.32739 5.91743 3.29074 5.90019 3.25409 5.88296C3.09082 5.76223 2.97582 5.71869 2.8557 5.66523C2.76602 5.62532 2.76793 5.65722 2.86416 5.73939C2.92578 5.792 3.00004 5.84581 3.06862 5.89907L3.06865 5.89909C3.06865 5.89909 3.06865 5.89909 3.06865 5.8991L3.06848 5.89904C3.05273 5.90676 3.03701 5.91451 3.02135 5.92231C3.02128 5.92228 3.02125 5.92226 3.02122 5.92225C2.66361 5.66445 2.66361 5.66445 2.45024 5.56394C2.56729 5.65014 2.66839 5.72361 2.76763 5.79812C2.8162 5.83457 2.83519 5.85932 2.7877 5.8393C2.76695 5.83055 2.73035 5.80424 2.70095 5.78589C2.70092 5.78587 2.70092 5.78587 2.70092 5.78587C2.70092 5.78587 2.70092 5.78587 2.70095 5.78589C2.62873 5.72951 2.56162 5.68456 2.50836 5.67091L2.50839 5.67093L2.50836 5.67091C2.50836 5.67091 2.5071 5.67049 2.50711 5.67048L2.5071 5.67049C2.40486 5.61073 2.30278 5.55045 2.19735 5.4698C2.0772 5.3779 1.95994 5.3117 1.842 5.23889C1.81506 5.22168 1.78853 5.20324 1.76241 5.18361C1.6696 5.14129 1.56126 5.03724 1.4693 4.99829L1.4713 4.99941C1.40224 4.97019 1.29297 4.87343 1.23871 4.86931ZM54.5607 41.211C54.5631 41.2121 54.5652 41.213 54.5675 41.2141C54.5682 41.2152 54.5692 41.2166 54.5699 41.2177C54.5669 41.2155 54.5638 41.2132 54.5607 41.211C54.5607 41.211 54.5607 41.211 54.5607 41.211C54.5607 41.211 54.5607 41.211 54.5607 41.211ZM7.53552 9.80663C7.53288 9.80433 7.53028 9.80214 7.52766 9.79987C7.55169 9.81624 7.57554 9.83256 7.60123 9.84959C7.57851 9.83509 7.55679 9.8208 7.53552 9.80663ZM54.2725 41.0316C54.274 41.0333 54.2756 41.035 54.2771 41.0367C54.2771 41.0367 54.2725 41.0316 54.2725 41.0317C54.2711 41.0306 54.2697 41.0296 54.2683 41.0286C54.2648 41.0231 54.2614 41.0177 54.2581 41.0123C54.2635 41.0189 54.2684 41.0254 54.2725 41.0316ZM50.4693 37.5528C50.472 37.5551 50.4746 37.5573 50.4772 37.5596C50.4531 37.5432 50.4293 37.5269 50.4036 37.5099C50.4263 37.5244 50.448 37.5387 50.4693 37.5528ZM3.72772 6.32276C3.72778 6.32281 3.73234 6.32786 3.73235 6.32784C3.73376 6.32887 3.73515 6.32987 3.73659 6.33092C3.74007 6.33638 3.74351 6.34181 3.74684 6.34716C3.74139 6.34054 3.73642 6.33407 3.73237 6.32787C3.7308 6.32616 3.72926 6.32446 3.72772 6.32276ZM3.44407 6.14843C3.4441 6.14845 3.44414 6.14846 3.44414 6.14846C3.44413 6.14847 3.4441 6.14846 3.4441 6.14847C3.4417 6.14736 3.43968 6.14645 3.43735 6.14538C3.43665 6.14424 3.43562 6.1429 3.43489 6.14174C3.43795 6.14397 3.441 6.14623 3.44407 6.14843Z" fill="#F42362"/>
</svg>
