<svg width="10" height="10" viewBox="0 0 10 10" fill="none" xmlns="http://www.w3.org/2000/svg">
<path fill-rule="evenodd" clip-rule="evenodd" d="M3.89886 0.0995738C-1.8573 1.56891 -1.00655 9.84802 4.91595 9.9982C9.90888 10.1251 11.9356 3.49482 7.71252 0.850906C6.57265 0.137321 4.98024 -0.176704 3.89886 0.0995738ZM6.57763 1.39664C6.57763 1.60465 6.39097 1.88615 6.16283 2.02268C5.93469 2.15921 5.74803 2.62142 5.74803 3.05029C5.74803 3.65224 5.4415 3.84017 4.39994 3.87631C3.65828 3.90201 3.37829 4.00562 3.77774 4.10641C4.17719 4.20761 4.50364 4.45778 4.50364 4.66218C4.50364 4.86698 4.92881 5.03443 5.44813 5.03443C5.96788 5.03443 6.79706 5.3083 7.29108 5.64321C8.06178 6.16605 8.12939 6.41743 7.76893 7.41813C7.29233 8.7425 6.24538 9.32437 5.90151 8.45619C5.77499 8.13694 5.33406 7.77232 4.92134 7.64542C4.50903 7.51893 4.05814 6.97922 3.92002 6.44634C3.78189 5.91346 3.15927 5.24084 2.53583 4.95171C1.02472 4.25057 0.902771 3.26352 2.17496 2.03191C2.94897 1.28259 3.65869 1.01876 4.89977 1.01876C5.8227 1.01876 6.57763 1.18862 6.57763 1.39664Z" fill="#B2B2B2"/>
</svg>
