<svg width="36" height="32" viewBox="0 0 36 32" fill="none" xmlns="http://www.w3.org/2000/svg">
<path d="M5.57464 1.11556C3.28634 1.11556 2 2.2089 2 4.44282V27.4713C2 29.5609 3.15674 30.6549 5.44293 30.6549H30.4669C32.7536 30.6549 33.9119 29.6156 33.9119 27.4713V4.44282C33.9119 2.26334 32.7536 1.11556 30.3954 1.11556C30.3951 1.11556 5.56677 1.10824 5.57464 1.11556Z" fill="#FF5C00" stroke="#EEEEEE" stroke-width="2.22261"/>
<path fill-rule="evenodd" clip-rule="evenodd" d="M6.62219 10.4959C10.0593 8.74522 12.9935 8.9224 15.8993 7.41396C17.458 7.73884 18.6184 7.60896 19.6911 7.37894C22.9822 8.8204 25.8759 9.05153 28.9681 10.531C28.7111 12.0757 28.1451 13.4105 27.2011 14.4885C26.0557 13.9045 24.972 13.6724 23.9247 13.6479L23.851 24.1546C19.3388 24.9542 15.5143 24.6087 11.7761 24.1196L11.7393 13.683C10.423 13.6466 9.42143 14.1093 8.38925 14.5235C7.3965 13.2358 6.9327 11.8763 6.62219 10.4959Z" fill="white" stroke="white" stroke-width="3.76439"/>
<path fill-rule="evenodd" clip-rule="evenodd" d="M7.1376 10.3208C7.4487 11.7572 7.99216 13.0987 9.05188 14.2433L7.1376 10.3208Z" fill="white"/>
<path d="M7.1376 10.3208C7.4487 11.7572 7.99216 13.0987 9.05188 14.2433" stroke="white" stroke-width="1.88219"/>
<path fill-rule="evenodd" clip-rule="evenodd" d="M11.9234 23.5593C15.8747 24.1746 19.8261 24.3067 23.7774 23.5242L11.9234 23.5593Z" fill="white"/>
<path d="M11.9234 23.5593C15.8747 24.1746 19.8261 24.3067 23.7774 23.5242" stroke="white" stroke-width="1.88219"/>
<path fill-rule="evenodd" clip-rule="evenodd" d="M15.8624 7.44937C15.8304 7.76004 16.1002 9.15095 17.8136 9.23551C19.4902 9.31825 19.8189 7.69385 19.7647 7.48439" fill="white"/>
<path d="M15.8624 7.44937C15.8304 7.76004 16.1002 9.15095 17.8136 9.23551C19.4902 9.31825 19.8189 7.69385 19.7647 7.48439" stroke="white" stroke-width="1.88219"/>
<path fill-rule="evenodd" clip-rule="evenodd" d="M15.1347 7.82333C15.1026 8.13399 15.7772 9.84282 17.7116 9.88965C19.6828 9.93736 20.49 7.92773 20.4358 7.71826" fill="white"/>
<path d="M15.1347 7.82333C15.1026 8.13399 15.7772 9.84282 17.7116 9.88965C19.6828 9.93736 20.49 7.92773 20.4358 7.71826" stroke="white" stroke-width="1.88219"/>
<path fill-rule="evenodd" clip-rule="evenodd" d="M16.0211 8.0794C17.2205 8.37785 18.2802 8.31383 19.5777 8.05243L16.0211 8.0794Z" fill="white"/>
<path d="M16.0211 8.0794C17.2205 8.37785 18.2802 8.31383 19.5777 8.05243" stroke="white" stroke-width="1.88219"/>
<path fill-rule="evenodd" clip-rule="evenodd" d="M11.7562 8.87402C12.1181 10.1951 12.7168 11.7458 11.7194 13.602L11.7562 8.87402Z" fill="white"/>
<path d="M11.7562 8.87402C12.1181 10.1951 12.7168 11.7458 11.7194 13.602" stroke="white" stroke-width="1.88219"/>
<path fill-rule="evenodd" clip-rule="evenodd" d="M23.8669 8.901C23.5051 10.2221 22.9063 11.7727 23.9037 13.629L23.8669 8.901Z" fill="white"/>
<path d="M23.8669 8.901C23.5051 10.2221 22.9063 11.7727 23.9037 13.629" stroke="white" stroke-width="1.88219"/>
<path fill-rule="evenodd" clip-rule="evenodd" d="M28.4896 10.2858C28.1785 11.7222 27.635 13.0637 26.5753 14.2083L28.4896 10.2858Z" fill="white"/>
<path d="M28.4896 10.2858C28.1785 11.7222 27.635 13.0637 26.5753 14.2083" stroke="white" stroke-width="1.88219"/>
</svg>
