<svg width="32" height="32" viewBox="0 0 32 32" fill="none" xmlns="http://www.w3.org/2000/svg">
<g clip-path="url(#clip0)">
<path d="M16.0176 0.194336C7.52923 0.194336 0.584229 7.13934 0.584229 15.6277C0.584229 24.116 7.52923 31.061 16.0176 31.061C24.5059 31.061 31.4509 24.116 31.4509 15.6277C31.4509 7.13934 24.5059 0.194336 16.0176 0.194336ZM21.4192 9.45434C22.6539 9.45434 23.7342 10.5347 23.7342 11.7693C23.7342 13.004 22.6539 14.0843 21.4192 14.0843C20.1846 14.0843 19.1042 13.004 19.1042 11.7693C19.1042 10.5347 20.1846 9.45434 21.4192 9.45434ZM10.6159 9.45434C11.8506 9.45434 12.9309 10.5347 12.9309 11.7693C12.9309 13.004 11.8506 14.0843 10.6159 14.0843C9.38123 14.0843 8.3009 13.004 8.3009 11.7693C8.3009 10.5347 9.38123 9.45434 10.6159 9.45434ZM16.0176 24.8877C12.0049 24.8877 8.60956 22.264 7.3749 18.7143H24.6602C23.4256 22.264 20.0302 24.8877 16.0176 24.8877Z" fill="#0084FF"/>
</g>
<defs>
<clipPath id="clip0">
<rect width="30.8667" height="30.8667" fill="white" transform="translate(0.584229 0.194336)"/>
</clipPath>
</defs>
</svg>
