<?xml version="1.0" encoding="utf-8"?><svg viewBox="0 0 22 23" xmlns="http://www.w3.org/2000/svg" xmlns:xlink="http://www.w3.org/1999/xlink"><style>:root>svg{display:none}:root>svg:target{display:block}</style><svg fill="none" viewBox="0 0 22 22" id="like" xmlns="http://www.w3.org/2000/svg"><circle cx="11" cy="11" r="11" fill="#0084FF"/><path d="M7.042 9.375C6.468 9.375 6 9.842 6 10.417v3.333c0 .574.468 1.042 1.042 1.042h1.25c.234 0 .45-.08.625-.211V9.375H7.042zM16 10.937c0-.25-.1-.484-.271-.656.194-.213.294-.498.266-.795-.048-.53-.525-.945-1.086-.945h-2.574c.127-.387.332-1.096.332-1.666 0-.904-.768-1.667-1.25-1.667-.433 0-.742.244-.756.254a.21.21 0 00-.078.163v1.413l-1.2 2.6-.05.025v4.465c.34.16.769.247 1.042.247H14.2c.453 0 .85-.306.944-.728a.938.938 0 00-.076-.626.933.933 0 00.417-1.25.933.933 0 00.515-.834z" fill="#fff"/></svg><svg fill="none" viewBox="0 0 18 23" id="user" xmlns="http://www.w3.org/2000/svg"><path d="M9 11.248c2.631 0 4.764-2.518 4.764-5.624S13.064 0 9 0 4.235 2.518 4.235 5.624 6.37 11.25 9 11.25zM0 19.836c0-.053 0-.19 0 0zM17.999 19.984c0-.36.002-.052 0 0zM17.988 19.609c-.088-5.411-.815-6.953-6.38-7.929 0 0-.782.97-2.608.97s-2.61-.97-2.61-.97C.888 12.645.117 14.164.016 19.433c-.009.43-.013.453-.014.403v.569S1.327 23 9 23c7.673 0 8.998-2.595 8.998-2.595v-.421c0 .03-.004-.029-.01-.375z" fill="#F7F7F7"/></svg></svg>