<svg width="26" height="26" viewBox="0 0 26 26" fill="none" xmlns="http://www.w3.org/2000/svg">
<g clip-path="url(#clip0_5:12)">
<path d="M17.991 15.4284C21.112 11.0212 20.0682 4.91863 15.661 1.79836C11.2539 -1.32192 5.15127 -0.278842 2.031 4.12906C-1.08928 8.53621 -0.0462027 14.6381 4.3617 17.7584C7.50732 19.9854 11.6662 20.1569 14.984 18.1975L22.1931 25.3633C22.9715 26.1827 24.2666 26.2155 25.086 25.4371C25.9054 24.6595 25.9382 23.3644 25.1605 22.545C25.1359 22.5189 25.1121 22.4951 25.086 22.4705L17.991 15.4284ZM10.005 16.0964C6.5224 16.0972 3.69887 13.2759 3.69663 9.79327C3.69589 6.31064 6.51718 3.48711 10.0006 3.48562C13.4787 3.48413 16.3008 6.30095 16.3075 9.7791C16.3134 13.2625 13.4936 16.0905 10.0095 16.0964C10.008 16.0964 10.0073 16.0964 10.005 16.0964Z" fill="white"/>
</g>
<defs>
<clipPath id="clip0_5:12">
<rect width="26" height="26" fill="white"/>
</clipPath>
</defs>
</svg>
