<svg width="108" height="108" viewBox="0 0 108 108" fill="none" xmlns="http://www.w3.org/2000/svg">
<circle cx="54" cy="54" r="54" fill="#2B2B2B"/>
<path d="M78.2425 65.1636H75.572V38.0775C75.572 36.3887 74.2028 35.0195 72.514 35.0195H34.2469C32.558 35.0195 31.1889 36.3887 31.1889 38.0775V65.1636H28.7574C28.3392 65.1636 28 65.5027 28 65.921V67.5937C28 70.0162 29.9639 71.9802 32.3865 71.9802H60.9228C61.3411 71.9802 61.6803 71.641 61.6803 71.2228C61.6803 70.8045 61.3411 70.4654 60.9228 70.4654H32.3865C30.8005 70.4653 29.5149 69.1797 29.5149 67.5937V66.6784H31.9464H47.3662C47.3931 68.1446 48.5933 69.3293 50.0659 69.3293H56.934C58.4065 69.3293 59.6068 68.1446 59.6337 66.6784H74.8147H77.4852V67.5937C77.4852 69.1797 76.1996 70.4654 74.6136 70.4654H64.4577C64.0394 70.4654 63.7002 70.8045 63.7002 71.2228C63.7002 71.641 64.0394 71.9802 64.4577 71.9802H74.6135C77.036 71.9802 79 70.0163 79 67.5937V65.921C78.9999 65.5026 78.6607 65.1636 78.2425 65.1636ZM56.9339 67.8144H50.0658C49.4286 67.8144 48.9071 67.3092 48.8809 66.6783H58.1188C58.0926 67.3091 57.5712 67.8144 56.9339 67.8144ZM74.0571 65.1636H32.7038V38.0775C32.7038 37.2266 33.396 36.5344 34.247 36.5344H72.514C73.3649 36.5344 74.0571 37.2266 74.0571 38.0775V65.1636Z" fill="white"/>
<path d="M71.987 37.8478H42.6442C42.2259 37.8478 41.8868 38.1869 41.8868 38.6052C41.8868 39.0234 42.2259 39.3626 42.6442 39.3626H71.2295V62.3363H35.5317V39.3625H39.1094C39.5276 39.3625 39.8668 39.0233 39.8668 38.6051C39.8668 38.1868 39.5276 37.8477 39.1094 37.8477H34.7743C34.356 37.8477 34.0168 38.1868 34.0168 38.6051V63.0936C34.0168 63.5119 34.356 63.851 34.7743 63.851H71.987C72.4052 63.851 72.7444 63.5119 72.7444 63.0936V38.6052C72.7444 38.1868 72.4053 37.8478 71.987 37.8478Z" fill="white"/>
</svg>
