<svg width="80" height="81" viewBox="0 0 80 81" fill="none" xmlns="http://www.w3.org/2000/svg">
<rect x="1" y="1.5" width="78" height="78" rx="39" stroke="white" stroke-width="2"/>
<path d="M26.0526 44.0482V31.2843C26.0526 30.575 26.6276 30 27.3369 30H40.0943C40.8035 30 41.3785 30.575 41.3785 31.2843V44.0482C41.3785 44.2846 41.1869 44.4763 40.9504 44.4763H26.4807C26.2443 44.4763 26.0526 44.2846 26.0526 44.0482ZM36.3546 48.4208C36.3546 49.8919 35.162 51.0844 33.691 51.0844C32.22 51.0844 31.0274 49.8919 31.0274 48.4208C31.0274 46.9497 32.22 45.7572 33.691 45.7572C35.162 45.7572 36.3546 46.9497 36.3546 48.4208ZM35.0227 48.4208C35.0227 47.6853 34.4265 47.089 33.6909 47.089C32.9554 47.089 32.3591 47.6853 32.3591 48.4208C32.3591 49.1563 32.9554 49.7527 33.6909 49.7527C34.4265 49.7527 35.0227 49.1563 35.0227 48.4208ZM31.3968 45.7571H25.4281C25.1917 45.7571 25 45.9488 25 46.1852V47.484C25 47.7204 25.1917 47.9121 25.4281 47.9121H30.2123C30.3372 47.055 30.7698 46.298 31.3968 45.7571ZM50.2911 48.4208C50.2911 49.8919 49.0985 51.0844 47.6275 51.0844C46.1564 51.0844 44.9638 49.8919 44.9638 48.4208C44.9638 46.9497 46.1564 45.7572 47.6275 45.7572C49.0985 45.7571 50.2911 46.9497 50.2911 48.4208ZM48.9593 48.4208C48.9593 47.6853 48.363 47.089 47.6275 47.089C46.8919 47.089 46.2956 47.6853 46.2956 48.4208C46.2956 49.1563 46.8919 49.7527 47.6275 49.7527C48.363 49.7527 48.9593 49.1563 48.9593 48.4208ZM55 46.1852V47.484C55 47.7204 54.8083 47.9121 54.5719 47.9121H51.106C50.8581 46.2119 49.395 44.901 47.6275 44.901C45.8598 44.901 44.3966 46.212 44.1487 47.9121H37.1697C37.0447 47.0551 36.6122 46.298 35.9851 45.7571H42.6025V33.5125C42.6025 33.0397 42.9858 32.6563 43.4587 32.6563H47.5001C48.638 32.6563 49.7016 33.2216 50.3383 34.1647L52.9437 38.0235C53.3259 38.5895 53.5301 39.2569 53.5301 39.9399V45.7571H54.5719C54.8083 45.7571 55 45.9488 55 46.1852ZM50.6573 38.1223L48.5739 35.1619C48.4937 35.048 48.3631 34.9802 48.2238 34.9802H44.974C44.7376 34.9802 44.5459 35.1719 44.5459 35.4083V38.3687C44.5459 38.6052 44.7376 38.7968 44.974 38.7968H50.3073C50.654 38.7968 50.8569 38.406 50.6573 38.1223Z" fill="white"/>
</svg>
