<svg width="20" height="20" viewBox="0 0 20 20" fill="none" xmlns="http://www.w3.org/2000/svg">
<path d="M9.92099 0C4.44092 0 0 4.4421 0 9.92099C0 15.4005 4.44148 19.842 9.92099 19.842C15.3999 19.842 19.8414 15.4005 19.8414 9.92099C19.8414 4.44272 15.3999 0 9.92099 0ZM9.92099 17.9818C5.46897 17.9818 1.86022 14.373 1.86022 9.92099C1.86022 5.46897 5.4696 1.86022 9.92099 1.86022C14.3724 1.86022 17.9811 5.46897 17.9811 9.92099C17.9811 14.373 14.3725 17.9818 9.92099 17.9818ZM13.82 5.70086C13.3983 5.44913 12.8595 5.59854 12.617 6.03568L9.2904 12.0112L7.43767 9.75604C7.10223 9.36975 6.65642 9.1695 6.23538 9.42122C5.81371 9.67357 5.63947 10.2806 5.91235 10.6701L8.49056 13.8082C8.68339 14.0587 8.90348 14.2088 9.13356 14.2516L9.13544 14.2553L9.15902 14.2565C9.21111 14.2646 9.98994 14.4085 10.3254 13.8082L14.1438 6.94976C14.386 6.51187 14.2416 5.9532 13.82 5.70086Z" fill="#0084FF"/>
</svg>
