<svg width="46" height="46" viewBox="0 0 46 46" fill="none" xmlns="http://www.w3.org/2000/svg">
<path d="M15.5025 35.2101C15.4909 35.1526 15.4738 35.096 15.4513 35.0412C15.4289 34.9873 15.401 34.9352 15.3687 34.8867C15.3363 34.8372 15.2986 34.7914 15.2573 34.7501C15.2159 34.7088 15.1701 34.671 15.1207 34.6387C15.0722 34.6063 15.0201 34.5785 14.9653 34.556C14.9114 34.5336 14.8548 34.5156 14.7973 34.5048C14.6814 34.4815 14.5619 34.4815 14.4469 34.5048C14.3894 34.5156 14.3328 34.5336 14.278 34.556C14.2241 34.5785 14.172 34.6063 14.1234 34.6387C14.074 34.671 14.0282 34.7088 13.9869 34.7501C13.9455 34.7914 13.9078 34.8372 13.8755 34.8867C13.8422 34.9352 13.8153 34.9873 13.7928 35.0412C13.7704 35.096 13.7524 35.1526 13.7416 35.2101C13.7299 35.2676 13.7236 35.3269 13.7236 35.3853C13.7236 35.4437 13.7299 35.503 13.7416 35.5605C13.7524 35.618 13.7704 35.6746 13.7928 35.7285C13.8153 35.7833 13.8422 35.8354 13.8755 35.8839C13.9078 35.9333 13.9455 35.9792 13.9869 36.0205C14.0282 36.0618 14.074 36.0995 14.1234 36.1319C14.172 36.1643 14.2241 36.1922 14.278 36.2146C14.3328 36.2371 14.3894 36.2551 14.4469 36.2658C14.5044 36.2775 14.5637 36.2838 14.6221 36.2838C14.6805 36.2838 14.7398 36.2775 14.7973 36.2658C14.8548 36.2551 14.9114 36.2371 14.9653 36.2146C15.0201 36.1922 15.0722 36.1642 15.1207 36.1319C15.1701 36.0995 15.2159 36.0618 15.2573 36.0205C15.2986 35.9792 15.3363 35.9333 15.3687 35.8839C15.401 35.8354 15.4289 35.7833 15.4513 35.7285C15.4738 35.6746 15.4909 35.618 15.5025 35.5605C15.5142 35.503 15.5205 35.4437 15.5205 35.3853C15.5205 35.3269 15.5142 35.2676 15.5025 35.2101Z" fill="#963636"/>
<path d="M41.3275 35.4868C41.324 35.4779 41.3204 35.469 41.3166 35.4602C40.4897 33.5252 38.5503 32.81 36.2552 33.5939L29.996 35.3248C29.6341 34.2289 28.7314 33.2964 27.4551 32.8227C27.4472 32.8198 27.4393 32.8169 27.4313 32.8143L20.5509 30.479C19.9783 29.7388 18.1845 27.8447 14.8258 27.8447C12.4787 27.8447 10.4023 29.4549 9.21437 31.21H0.898438C0.402231 31.21 0 31.6122 0 32.1084V43.4357C0 43.9319 0.402231 44.3341 0.898438 44.3341H6.24028C6.73648 44.3341 7.13871 43.9319 7.13871 43.4357V42.66H9.64383C10.14 42.66 10.5423 42.2577 10.5423 41.7615V41.503C12.0026 41.6304 12.4829 41.9073 13.8241 42.6807C14.8555 43.2755 16.4144 44.1744 19.2216 45.4366C19.2346 45.4424 19.2479 45.448 19.2611 45.4532C19.7999 45.6651 20.8531 45.9981 22.1516 45.9981C23.0554 45.9981 24.0783 45.8367 25.1282 45.3608L38.9633 40.4071C38.988 40.3983 39.0122 40.3884 39.0359 40.3775C40.3582 39.7691 42.3285 38.0547 41.3275 35.4868ZM5.34184 42.5371H1.79688V33.0068H5.34184V42.5371ZM8.74539 40.863H7.13871V33.0068H8.74539V40.863ZM38.318 38.7295L24.4891 43.6809C24.4769 43.6852 24.4605 43.6916 24.4485 43.6965C24.4364 43.7014 24.4243 43.7066 24.4123 43.7121C22.4864 44.5973 20.6556 44.0674 19.9381 43.7884C17.2265 42.5682 15.7792 41.7337 14.7217 41.1239C13.2515 40.2761 12.5431 39.8675 10.5423 39.7023V32.4661C11.3939 31.0703 13.0454 29.6415 14.8259 29.6415C17.8794 29.6415 19.1732 31.6275 19.224 31.7076C19.3337 31.8861 19.5024 32.0206 19.7007 32.0879L26.841 34.5113C27.9814 34.9393 28.5841 35.9159 28.3071 36.8898C28.1792 37.3396 27.8838 37.7126 27.4754 37.9402C27.0705 38.1658 26.6024 38.2216 26.1562 38.0981L18.1068 35.5473C17.6335 35.3974 17.1288 35.6593 16.9789 36.1324C16.829 36.6054 17.091 37.1103 17.564 37.2603L25.6274 39.8155C25.6359 39.8182 25.6445 39.8208 25.6531 39.8232C25.975 39.9148 26.3027 39.9601 26.6285 39.9601C27.2249 39.9601 27.8147 39.8081 28.35 39.5099C29.1777 39.0487 29.7763 38.2927 30.0354 37.3813C30.0561 37.3085 30.0744 37.2357 30.0903 37.163L36.836 35.2942C37.8103 34.9614 39.0892 34.8415 39.6586 36.1529C40.248 37.6926 38.7162 38.5395 38.318 38.7295Z" fill="#963636"/>
<path d="M32.2593 11.8185C32.2476 11.761 32.2305 11.7044 32.2072 11.6496C32.1847 11.5957 32.1578 11.5436 32.1245 11.4951C32.0922 11.4456 32.0545 11.3998 32.0131 11.3585C31.9718 11.3172 31.926 11.2794 31.8766 11.2471C31.828 11.2147 31.7759 11.1869 31.722 11.1644C31.6672 11.142 31.6106 11.124 31.554 11.1132C31.4381 11.0899 31.3186 11.0899 31.2027 11.1132C31.1452 11.124 31.0886 11.142 31.0347 11.1644C30.9799 11.1869 30.9278 11.2147 30.8793 11.2471C30.8299 11.2794 30.7841 11.3172 30.7427 11.3585C30.7014 11.3998 30.6637 11.4456 30.6313 11.4951C30.599 11.5436 30.5711 11.5957 30.5487 11.6496C30.5262 11.7044 30.5082 11.761 30.4975 11.8185C30.4858 11.876 30.4795 11.9353 30.4795 11.9937C30.4795 12.0521 30.4858 12.1114 30.4975 12.1689C30.5082 12.2264 30.5262 12.283 30.5487 12.3369C30.5711 12.3917 30.599 12.4438 30.6313 12.4923C30.6637 12.5417 30.7014 12.5876 30.7427 12.6289C30.7841 12.6702 30.8299 12.7079 30.8793 12.7403C30.9278 12.7726 30.9799 12.8005 31.0347 12.8229C31.0886 12.8454 31.1452 12.8625 31.2027 12.8742C31.2602 12.8858 31.3195 12.8921 31.3779 12.8921C31.4363 12.8921 31.4956 12.8858 31.554 12.8742C31.6106 12.8625 31.6672 12.8454 31.722 12.8229C31.7759 12.8005 31.828 12.7726 31.8766 12.7403C31.926 12.7079 31.9718 12.6702 32.0131 12.6289C32.0545 12.5876 32.0922 12.5417 32.1245 12.4923C32.1578 12.4438 32.1847 12.3917 32.2072 12.3369C32.2305 12.283 32.2476 12.2264 32.2593 12.1689C32.271 12.1114 32.2764 12.0521 32.2764 11.9937C32.2764 11.9353 32.271 11.876 32.2593 11.8185Z" fill="black"/>
<path d="M45.1016 3.04476H39.7597C39.2635 3.04476 38.8613 3.44699 38.8613 3.9432V4.71891H36.3562C35.86 4.71891 35.4577 5.12114 35.4577 5.61734V5.87592C33.9974 5.74843 33.5171 5.47153 32.176 4.69815C31.1446 4.10339 29.5857 3.2045 26.7784 1.94229C26.7653 1.93636 26.7522 1.93088 26.7388 1.92566C25.825 1.56611 23.4301 0.858681 20.8721 2.01793L17.2568 3.3124L14.2094 0.265083C13.8586 -0.0857568 13.2897 -0.0857568 12.9388 0.265083L2.93402 10.2698C2.6104 10.5935 2.54832 11.1548 2.93402 11.5405L20.0301 28.6366C20.3037 28.9102 20.9443 28.993 21.3008 28.6366L30.4347 19.5027C30.6722 19.5232 30.9186 19.5342 31.1741 19.5342C33.5213 19.5342 35.5976 17.9241 36.7854 16.169H45.1016C45.5978 16.169 46 15.7668 46 15.2706V3.9432C46 3.44699 45.5978 3.04476 45.1016 3.04476ZM13.574 2.17094L15.6218 4.21866C15.0131 4.5951 14.3093 4.79653 13.574 4.79653C12.8387 4.79653 12.135 4.59519 11.5263 4.21866L13.574 2.17094ZM6.88768 12.9529L4.83996 10.9051L6.88768 8.85738C7.26413 9.46607 7.46556 10.1698 7.46556 10.9051C7.46556 11.6404 7.26422 12.3441 6.88768 12.9529ZM20.6655 26.7306L18.6181 24.6833C19.8681 23.9119 21.4627 23.9119 22.7128 24.6833L20.6655 26.7306ZM24.0072 23.389C22.0219 21.9488 19.3091 21.9488 17.3238 23.389L8.18206 14.2472C8.88365 13.2823 9.26243 12.1232 9.26243 10.9051C9.26243 9.68691 8.88374 8.52792 8.18206 7.563L10.232 5.51313C11.1969 6.21472 12.3559 6.5935 13.5741 6.5935C14.7923 6.5935 15.9513 6.21472 16.9162 5.51313L18.8595 7.45636C18.4402 7.51826 18.0313 7.65644 17.65 7.86892C17.006 8.22775 16.5007 8.76511 16.1861 9.41522C15.1726 9.6029 14.2344 10.0935 13.4984 10.8295C11.5016 12.8263 11.5016 16.0753 13.4985 18.0722C14.4968 19.0705 15.8083 19.5698 17.1198 19.5698C18.4313 19.5698 19.7428 19.0706 20.7412 18.0722C21.3908 17.4226 21.8459 16.6243 22.0738 15.7542L25.1073 16.7838C24.7658 18.3657 25.1155 20.03 26.059 21.3372L24.0072 23.389ZM18.5449 14.5562C18.5528 14.559 18.5607 14.5619 18.5687 14.5646L20.3652 15.1744C20.2296 15.7867 19.9226 16.3496 19.4707 16.8016C18.1744 18.0977 16.0652 18.0979 14.7691 16.8016C13.4729 15.5055 13.4729 13.3964 14.7691 12.1001C15.0818 11.7873 15.4508 11.5428 15.8528 11.377C16.0187 12.7572 17.0124 13.9875 18.5449 14.5562ZM27.3535 20.0426C27.0068 19.4774 26.8105 18.8325 26.7795 18.1742C27.2099 18.4853 27.7358 18.7901 28.364 19.0321L27.3535 20.0426ZM35.4576 14.9124C34.6061 16.3084 32.9546 17.7372 31.1741 17.7372C30.8409 17.7372 30.5287 17.7135 30.2368 17.6712C30.2356 17.6711 30.2345 17.6709 30.2333 17.6707C28.293 17.3889 27.2493 16.2861 26.9053 15.8495C26.887 15.8225 26.8089 15.7204 26.7973 15.7034C26.6927 15.5163 26.5211 15.3659 26.3022 15.2916L19.1589 12.8672C18.019 12.4394 17.4164 11.4632 17.6926 10.4897C17.6927 10.489 17.6929 10.4884 17.6931 10.4878C17.6934 10.4871 17.6936 10.4862 17.6937 10.4855C17.8221 10.0372 18.117 9.66535 18.5245 9.43831C18.9294 9.21271 19.3973 9.15674 19.8437 9.28045L27.8931 11.8312C28.3662 11.9813 28.8711 11.7192 29.021 11.2461C29.1708 10.7731 28.9089 10.2682 28.4359 10.1182L22.0341 8.08958L21.9782 8.03369C21.9777 8.03315 21.9771 8.03253 21.9765 8.03199L18.6622 4.71765L21.5109 3.69756C21.5205 3.69406 21.5324 3.68966 21.5419 3.68579C21.5443 3.68481 21.549 3.68301 21.5514 3.68202C21.5636 3.67708 21.5756 3.67187 21.5876 3.66639C23.5134 2.78125 25.3441 3.31106 26.0617 3.59011C28.7734 4.81028 30.2208 5.64484 31.2783 6.25461C32.7485 7.10246 33.4569 7.51098 35.4576 7.6762V14.9124ZM38.8613 14.372H37.2546V6.51578H38.8613V14.372ZM44.2031 14.372H40.6582V4.84163H44.2031V14.372Z" fill="black"/>
</svg>
