<svg width="20" height="19" viewBox="0 0 20 19" fill="none" xmlns="http://www.w3.org/2000/svg">
<path fill-rule="evenodd" clip-rule="evenodd" d="M4.43552 13.6762C5.25208 13.6762 5.91403 14.3381 5.91403 15.1547V16.7437L9.43931 13.9896C9.69926 13.7865 10.0197 13.6762 10.3495 13.6762H14.7306C16.3779 13.6762 17.7075 12.3302 17.6874 10.6831L17.6108 4.39946C17.5911 2.78053 16.2731 1.47851 14.654 1.47851H4.43552C2.80241 1.47851 1.47851 2.80241 1.47851 4.43552V10.7192C1.47851 12.3523 2.80241 13.6762 4.43552 13.6762ZM4.71966 17.6768C4.71997 17.6766 4.72027 17.6763 4.72059 17.6761L4.71966 17.6768ZM0 4.43552V10.7192C0 13.1688 1.98585 15.1547 4.43552 15.1547V18.2594C4.43552 18.8753 5.14454 19.2211 5.62989 18.8419L10.3495 15.1547H14.7306C17.2015 15.1547 19.196 13.1357 19.1658 10.6651L19.0892 4.38143C19.0596 1.95304 17.0826 0 14.654 0H4.43552C1.98585 0 0 1.98585 0 4.43552Z" fill="#53575B"/>
</svg>
