<?xml version="1.0" encoding="utf-8"?><svg viewBox="0 0 108 108" xmlns="http://www.w3.org/2000/svg" xmlns:xlink="http://www.w3.org/1999/xlink"><style>:root>svg{display:none}:root>svg:target{display:block}</style><svg fill="none" viewBox="0 0 17 15" id="arrow" xmlns="http://www.w3.org/2000/svg"><path d="M15.26 5.784l.025.006H4.465l3.402-3.62a.97.97 0 00.258-.667.968.968 0 00-.258-.666l-.53-.563a.852.852 0 00-1.25 0l-5.83 6.19A.96.96 0 000 7.13c0 .253.09.489.258.666l5.83 6.192a.852.852 0 001.25 0l.529-.563a.96.96 0 00.258-.663.93.93 0 00-.258-.651l-3.44-3.64h10.844c.488 0 .897-.446.897-.963v-.796a.925.925 0 00-.909-.928z" fill="#fff"/></svg><svg fill="none" viewBox="0 0 63 64" id="button" xmlns="http://www.w3.org/2000/svg"><rect y="32" width="44.127" height="44.127" rx="10" transform="rotate(-45 0 32)" fill="#FD6E31"/><g filter="url(#bfilter0_d_105_4)"><path d="M40.974 31.5c0-5.775-4.699-10.474-10.474-10.474S20.027 25.725 20.027 31.5 24.725 41.973 30.5 41.973 40.974 37.275 40.974 31.5zm-9.446-.016a.994.994 0 11-1.988 0v-5.17a.994.994 0 011.988 0v5.17zm5.735.033A6.77 6.77 0 0130.5 38.28a6.77 6.77 0 01-6.763-6.763c0-1.808.704-3.507 1.983-4.784a.99.99 0 011.406 0 .994.994 0 01-.001 1.407 4.744 4.744 0 00-1.4 3.377 4.78 4.78 0 004.775 4.775 4.78 4.78 0 004.775-4.775 4.743 4.743 0 00-1.398-3.376.995.995 0 011.406-1.406 6.721 6.721 0 011.98 4.782z" fill="#fff"/></g><defs><filter id="bfilter0_d_105_4" x="16.027" y="21.026" width="28.947" height="28.947" filterUnits="userSpaceOnUse" color-interpolation-filters="sRGB"><feFlood flood-opacity="0" result="BackgroundImageFix"/><feColorMatrix in="SourceAlpha" values="0 0 0 0 0 0 0 0 0 0 0 0 0 0 0 0 0 0 127 0" result="hardAlpha"/><feOffset dy="4"/><feGaussianBlur stdDeviation="2"/><feComposite in2="hardAlpha" operator="out"/><feColorMatrix values="0 0 0 0 0 0 0 0 0 0 0 0 0 0 0 0 0 0 0.25 0"/><feBlend in2="BackgroundImageFix" result="effect1_dropShadow_105_4"/><feBlend in="SourceGraphic" in2="effect1_dropShadow_105_4" result="shape"/></filter></defs></svg><svg fill="none" viewBox="0 0 21 12" id="camera" xmlns="http://www.w3.org/2000/svg"><rect x=".4" y=".103" width="15.244" height="11.585" rx="2.317" fill="#fff"/><path d="M16.864 4.404c0-.374.225-.712.57-.856l2.01-.837a.927.927 0 011.284.855V7.87a.927.927 0 01-1.283.856l-2.01-.838a.927.927 0 01-.571-.856V4.404z" fill="#fff"/></svg><svg fill="none" viewBox="0 0 17 11" id="check" xmlns="http://www.w3.org/2000/svg"><path d="M16.452 1.837c-.226-.76-1.12-.956-1.625-.44-.864.882-1.719 1.772-2.577 2.66L8.873 7.541c-.173.18-.38.253-.605.135-.132-.07-.238-.192-.378-.31l1.13-1.164.309-.302.019.012c.065-.074.13-.155.203-.23.953-.985 1.909-1.968 2.86-2.955a1 1 0 00.25-1.013c-.207-.735-1.107-.972-1.633-.436-.573.586-1.142 1.177-1.713 1.765L6.897 5.54c-.62.64-1.24 1.281-1.863 1.918a.484.484 0 01-.704-.004c-.526-.545-1.05-1.094-1.58-1.649l-.005.013-.225-.228a5.9 5.9 0 00-.287-.294.962.962 0 00-1.089-.186C.517 5.406.373 6.253.86 6.757c1.016 1.05 2.036 2.099 3.052 3.15.18.187.397.304.642.35a.874.874 0 00.824-.27c.352-.362.703-.727 1.054-1.09.088-.091.088-.091.177.001.392.407.783.814 1.177 1.218a.974.974 0 001.38-.003c.18-.185.357-.372.536-.557 2.166-2.236 4.334-4.47 6.5-6.708a.982.982 0 00.25-1.01z" fill="#36D8DF"/></svg><svg fill="none" viewBox="0 0 5 17" id="dots" xmlns="http://www.w3.org/2000/svg"><circle cx="2.257" cy="2.378" r="2.172" fill="#fff"/><circle cx="2.256" cy="8.171" r="2.172" fill="#fff"/><circle cx="2.256" cy="13.964" r="2.172" fill="#fff"/></svg><svg fill="none" viewBox="0 0 63 63" id="drops" xmlns="http://www.w3.org/2000/svg"><rect y="31.202" width="44.127" height="44.127" rx="10" transform="rotate(-45 0 31.202)" fill="#FD6E31"/><g filter="url(#ffilter0_d_105_3)"><path d="M32 24.73c0-3.17-4.7-8.77-5.24-9.4a1 1 0 00-1.52 0C24.7 16 20 21.56 20 24.73A6.128 6.128 0 0026 31a6.13 6.13 0 006-6.27z" fill="#fff"/></g><g filter="url(#ffilter1_d_105_3)"><path d="M32.74 19.33a1 1 0 00-.83-.3A12.35 12.35 0 0134 24.75 8.14 8.14 0 0126 33a7.76 7.76 0 01-3.4-.79A8.299 8.299 0 0022 35a10 10 0 0020 0c0-5.2-8.31-14.61-9.26-15.67z" fill="#fff"/></g><defs><filter id="ffilter0_d_105_3" x="15.998" y="14.98" width="20.003" height="24.02" filterUnits="userSpaceOnUse" color-interpolation-filters="sRGB"><feFlood flood-opacity="0" result="BackgroundImageFix"/><feColorMatrix in="SourceAlpha" values="0 0 0 0 0 0 0 0 0 0 0 0 0 0 0 0 0 0 127 0" result="hardAlpha"/><feOffset dy="4"/><feGaussianBlur stdDeviation="2"/><feComposite in2="hardAlpha" operator="out"/><feColorMatrix values="0 0 0 0 0 0 0 0 0 0 0 0 0 0 0 0 0 0 0.25 0"/><feBlend in2="BackgroundImageFix" result="effect1_dropShadow_105_3"/><feBlend in="SourceGraphic" in2="effect1_dropShadow_105_3" result="shape"/></filter><filter id="ffilter1_d_105_3" x="18" y="19.024" width="28" height="33.976" filterUnits="userSpaceOnUse" color-interpolation-filters="sRGB"><feFlood flood-opacity="0" result="BackgroundImageFix"/><feColorMatrix in="SourceAlpha" values="0 0 0 0 0 0 0 0 0 0 0 0 0 0 0 0 0 0 127 0" result="hardAlpha"/><feOffset dy="4"/><feGaussianBlur stdDeviation="2"/><feComposite in2="hardAlpha" operator="out"/><feColorMatrix values="0 0 0 0 0 0 0 0 0 0 0 0 0 0 0 0 0 0 0.25 0"/><feBlend in2="BackgroundImageFix" result="effect1_dropShadow_105_3"/><feBlend in="SourceGraphic" in2="effect1_dropShadow_105_3" result="shape"/></filter></defs></svg><svg fill="none" viewBox="0 0 108 108" id="laptop" xmlns="http://www.w3.org/2000/svg"><circle cx="54" cy="54" r="54" fill="#2B2B2B"/><path d="M78.243 65.164h-2.671V38.077a3.058 3.058 0 00-3.058-3.057H34.247a3.058 3.058 0 00-3.058 3.057v27.087h-2.432a.757.757 0 00-.757.757v1.673a4.387 4.387 0 004.386 4.386h28.537a.758.758 0 000-1.515H32.386a2.872 2.872 0 01-2.871-2.871v-.916h17.851a2.704 2.704 0 002.7 2.651h6.868a2.704 2.704 0 002.7-2.65h17.851v.915a2.872 2.872 0 01-2.871 2.871H64.458a.757.757 0 100 1.515h10.156A4.387 4.387 0 0079 67.594V65.92a.758.758 0 00-.757-.757zm-21.31 2.65h-6.867a1.187 1.187 0 01-1.185-1.136h9.238a1.187 1.187 0 01-1.185 1.136zm17.124-2.65H32.704V38.077c0-.85.692-1.543 1.543-1.543h38.267c.85 0 1.543.693 1.543 1.544v27.086z" fill="#fff"/><path d="M71.987 37.848H42.644a.757.757 0 000 1.515H71.23v22.973H35.532V39.362h3.577a.758.758 0 000-1.514h-4.335a.757.757 0 00-.757.757v24.489c0 .418.339.757.757.757h37.213c.418 0 .757-.34.757-.757V38.605a.757.757 0 00-.757-.757z" fill="#fff"/></svg><svg fill="none" viewBox="0 0 35 35" id="like" xmlns="http://www.w3.org/2000/svg"><path d="M0 13.125v17.5c0 1.208.98 2.188 2.188 2.188H8.75V10.936H2.187C.98 10.938 0 11.918 0 13.126zM30.96 13.124h-6.462c-.565 0-.848-.377-.943-.539a1.076 1.076 0 01-.014-1.085l2.279-4.103c.5-.898.55-1.954.142-2.897a3.254 3.254 0 00-2.216-1.878L22.14 2.22a1.092 1.092 0 00-1.078.33l-8.722 9.69a5.466 5.466 0 00-1.402 3.657v11.446a5.475 5.475 0 005.468 5.469l10.881-.001a5.481 5.481 0 005.275-4.023l2.334-10.715a4.045 4.045 0 00-3.936-4.949z" fill="#fff"/></svg><svg fill="none" viewBox="0 0 36 32" id="logo" xmlns="http://www.w3.org/2000/svg"><path d="M5.575 1.116C3.286 1.116 2 2.209 2 4.443V27.47c0 2.09 1.157 3.184 3.443 3.184h25.024c2.287 0 3.445-1.04 3.445-3.184V4.443c0-2.18-1.158-3.327-3.517-3.327 0 0-24.828-.008-24.82 0z" fill="#FF5C00" stroke="#EEE" stroke-width="2.223"/><path fill-rule="evenodd" clip-rule="evenodd" d="M6.622 10.496c3.437-1.75 6.371-1.574 9.277-3.082 1.559.325 2.72.195 3.792-.035 3.291 1.441 6.185 1.673 9.277 3.152-.257 1.545-.823 2.88-1.767 3.957a7.446 7.446 0 00-3.276-.84l-.074 10.507c-4.512.8-8.337.454-12.075-.035l-.037-10.437c-1.316-.036-2.318.426-3.35.84-.992-1.287-1.456-2.647-1.767-4.027z" fill="#fff" stroke="#fff" stroke-width="3.764"/><path fill-rule="evenodd" clip-rule="evenodd" d="M7.138 10.32c.31 1.437.854 2.779 1.914 3.923l-1.914-3.922z" fill="#fff"/><path d="M7.138 10.32c.31 1.437.854 2.779 1.914 3.923" stroke="#fff" stroke-width="1.882"/><path fill-rule="evenodd" clip-rule="evenodd" d="M11.923 23.56c3.952.615 7.903.747 11.854-.036l-11.854.035z" fill="#fff"/><path d="M11.923 23.56c3.952.615 7.903.747 11.854-.036" stroke="#fff" stroke-width="1.882"/><path fill-rule="evenodd" clip-rule="evenodd" d="M15.862 7.45c-.032.31.238 1.7 1.952 1.786 1.676.082 2.005-1.542 1.95-1.752" fill="#fff"/><path d="M15.862 7.45c-.032.31.238 1.7 1.952 1.786 1.676.082 2.005-1.542 1.95-1.752" stroke="#fff" stroke-width="1.882"/><path fill-rule="evenodd" clip-rule="evenodd" d="M15.135 7.823c-.032.311.642 2.02 2.577 2.067 1.97.047 2.778-1.962 2.724-2.172" fill="#fff"/><path d="M15.135 7.823c-.032.311.642 2.02 2.577 2.067 1.97.047 2.778-1.962 2.724-2.172" stroke="#fff" stroke-width="1.882"/><path fill-rule="evenodd" clip-rule="evenodd" d="M16.021 8.08c1.2.298 2.26.234 3.557-.028l-3.557.027z" fill="#fff"/><path d="M16.021 8.08c1.2.298 2.26.234 3.557-.028" stroke="#fff" stroke-width="1.882"/><path fill-rule="evenodd" clip-rule="evenodd" d="M11.756 8.874c.362 1.321.96 2.872-.037 4.728l.037-4.728z" fill="#fff"/><path d="M11.756 8.874c.362 1.321.96 2.872-.037 4.728" stroke="#fff" stroke-width="1.882"/><path fill-rule="evenodd" clip-rule="evenodd" d="M23.867 8.901c-.362 1.321-.96 2.872.037 4.728l-.037-4.728z" fill="#fff"/><path d="M23.867 8.901c-.362 1.321-.96 2.872.037 4.728" stroke="#fff" stroke-width="1.882"/><path fill-rule="evenodd" clip-rule="evenodd" d="M28.49 10.286c-.311 1.436-.855 2.778-1.915 3.922l1.915-3.922z" fill="#fff"/><path d="M28.49 10.286c-.311 1.436-.855 2.778-1.915 3.922" stroke="#fff" stroke-width="1.882"/></svg><svg fill="none" viewBox="0 0 63 63" id="medal" xmlns="http://www.w3.org/2000/svg"><rect y="31.798" width="44.127" height="44.127" rx="10" transform="rotate(-45 0 31.798)" fill="#FD6E31"/><g filter="url(#jfilter0_d_105_5)" fill="#fff"><path d="M40.514 25.45c1.17-1.974-.307-4.444-2.546-4.413.03-2.254-2.447-3.727-4.417-2.546A2.934 2.934 0 0030.998 17c-1.067 0-2.032.58-2.548 1.487-1.974-1.176-4.446.3-4.417 2.55-2.246-.028-3.713 2.431-2.543 4.411a2.923 2.923 0 00-1.49 2.55c0 1.073.579 2.04 1.487 2.553-1.143 1.92.214 4.412 2.547 4.412a2.94 2.94 0 00.627 1.823l-.008-.002c-1.575 2.336-3.278 4.62-4.224 7.178-.02.039.019.072.052.048a44.86 44.86 0 013.482-1.784c.024-.01.052 0 .052.029.215 1.094.471 2.207.828 3.358.01.034.062.034.076.005.96-2.587 2.688-4.897 4.275-7.249.754.59 1.75.825 2.769.467 1.498 2.192 3.06 4.365 3.96 6.782.009.029.061.029.07-.005.358-1.151.62-2.264.829-3.358 0-.029.033-.038.052-.029 1.232.571 2.407 1.16 3.487 1.784.028.024.066-.01.052-.047-.867-2.313-2.34-4.405-3.782-6.513a2.927 2.927 0 001.337-2.487c2.246.045 3.72-2.455 2.549-4.413 1.977-1.12 1.978-3.983-.003-5.1zm-.812 4.427l-.242.054c-.028.14-.278.454.008.796 1.264 1.4-.008 3.636-1.87 3.243-.454-.112-.634.353-.728.437l.113.228c.346 1.872-1.875 3.082-3.27 1.821-.328-.275-.68-.005-.79.02l-.05.235c-.628 1.802-3.15 1.755-3.75-.002l-.055-.242-.26-.097a.531.531 0 00-.532.102 1.966 1.966 0 01-2.807-.184 1.979 1.979 0 01-.445-1.683.507.507 0 00-.105-.474l-.253-.25-.274.091c-1.858.376-3.125-1.842-1.846-3.26a.53.53 0 00.093-.523l-.125-.28-.234-.038a1.98 1.98 0 01.037-3.752c.406-.137.35-.564.384-.658l-.166-.185c-1.278-1.425.04-3.64 1.869-3.244.452.111.636-.36.727-.443l-.113-.228c-.338-1.825 1.848-3.092 3.258-1.826l.054.041c.152.102.34.12.506.048l.26-.132.035-.216a1.986 1.986 0 011.867-1.325c.85 0 1.604.544 1.88 1.354l.054.225c.124.032.415.27.74.052l.054-.043a1.955 1.955 0 012.302-.244 1.997 1.997 0 01.95 2.097c-.116.402.268.605.358.73l.276-.093c1.844-.384 3.108 1.849 1.873 3.229-.303.302-.064.666-.05.778l.253.084c1.806.595 1.813 3.149.014 3.757z"/><path d="M30.999 21.31a6.694 6.694 0 000 13.386 6.698 6.698 0 006.698-6.693 6.698 6.698 0 00-6.698-6.694zm4.31 5.717l-2.108 2.08c-.01.009-.01.018-.01.028l.52 2.916c.004.028-.02.043-.043.033l-2.631-1.365a.03.03 0 00-.029 0l-2.616 1.398c-.019.01-.048-.01-.043-.033l.485-2.926c0-.01-.004-.019-.01-.023L26.69 27.08c-.014-.02-.01-.048.019-.053l2.93-.442a.037.037 0 00.02-.02l1.298-2.663a.028.028 0 01.052 0l1.328 2.65c.004.01.014.014.023.014l2.936.409c.023.005.033.033.014.052z"/></g><defs><filter id="jfilter0_d_105_5" x="16" y="17" width="30" height="36.639" filterUnits="userSpaceOnUse" color-interpolation-filters="sRGB"><feFlood flood-opacity="0" result="BackgroundImageFix"/><feColorMatrix in="SourceAlpha" values="0 0 0 0 0 0 0 0 0 0 0 0 0 0 0 0 0 0 127 0" result="hardAlpha"/><feOffset dy="4"/><feGaussianBlur stdDeviation="2"/><feComposite in2="hardAlpha" operator="out"/><feColorMatrix values="0 0 0 0 0 0 0 0 0 0 0 0 0 0 0 0 0 0 0.25 0"/><feBlend in2="BackgroundImageFix" result="effect1_dropShadow_105_5"/><feBlend in="SourceGraphic" in2="effect1_dropShadow_105_5" result="shape"/></filter></defs></svg><svg fill="none" viewBox="0 0 108 108" id="payment" xmlns="http://www.w3.org/2000/svg"><circle cx="54" cy="54" r="54" fill="#2B2B2B"/><path d="M46.502 66.21a.928.928 0 00-.133-.323.86.86 0 00-.248-.248.885.885 0 00-.324-.134.887.887 0 00-.674.134.858.858 0 00-.247.248.85.85 0 00-.134.323.884.884 0 00.134.674.853.853 0 00.247.248.908.908 0 00.674.134.885.885 0 00.654-.537.898.898 0 00.051-.519z" fill="#fff"/><path d="M72.328 66.487a.78.78 0 00-.011-.027c-.827-1.935-2.767-2.65-5.062-1.866l-6.259 1.73c-.362-1.095-1.265-2.028-2.54-2.501l-.025-.009-6.88-2.335c-.573-.74-2.367-2.634-5.725-2.634-2.347 0-4.424 1.61-5.612 3.365h-8.316a.898.898 0 00-.898.898v11.328c0 .496.402.898.898.898h5.342a.898.898 0 00.899-.898v-.776h2.505a.899.899 0 00.898-.898v-.259c1.46.127 1.94.404 3.282 1.178 1.032.594 2.59 1.493 5.398 2.756a8.065 8.065 0 002.93.561c.903 0 1.926-.161 2.976-.637l13.835-4.954a.883.883 0 00.073-.03c1.322-.608 3.293-2.322 2.291-4.89zm-35.986 7.05h-3.545v-9.53h3.545v9.53zm3.403-1.674H38.14v-7.856h1.606v7.856zm29.573-2.133l-13.829 4.95a.998.998 0 00-.077.032c-1.926.885-3.756.355-4.474.076-2.712-1.22-4.159-2.054-5.216-2.664-1.47-.848-2.179-1.256-4.18-1.422v-7.236c.852-1.396 2.503-2.825 4.284-2.825 3.053 0 4.347 1.986 4.398 2.067.11.178.278.313.477.38l7.14 2.423c1.14.428 1.743 1.405 1.466 2.379a1.74 1.74 0 01-.832 1.05 1.74 1.74 0 01-1.319.158l-8.05-2.55a.898.898 0 10-.542 1.712l8.063 2.555a3.56 3.56 0 001.001.145 3.53 3.53 0 001.722-.45 3.524 3.524 0 001.74-2.347l6.746-1.869c.974-.333 2.253-.453 2.823.859.589 1.54-.943 2.386-1.341 2.576zM63.26 42.819a.879.879 0 00-.136-.324.849.849 0 00-.247-.248.915.915 0 00-.323-.134.892.892 0 00-.675.134.863.863 0 00-.248.248.91.91 0 00-.151.499.884.884 0 00.069.343.885.885 0 00.486.486.906.906 0 00.519.051.95.95 0 00.323-.134.863.863 0 00.33-.403.851.851 0 00.07-.343.883.883 0 00-.018-.175z" fill="#fff"/><path d="M76.101 34.045H70.76a.898.898 0 00-.899.898v.776h-2.505a.898.898 0 00-.898.898v.259c-1.46-.128-1.941-.404-3.282-1.178-1.032-.595-2.59-1.493-5.398-2.756a.765.765 0 00-.04-.016c-.913-.36-3.308-1.067-5.866.092l-3.615 1.294-3.048-3.047a.898.898 0 00-1.27 0L33.934 41.27a.891.891 0 000 1.27L51.03 59.638c.273.273.914.356 1.27 0l9.135-9.134c.237.02.483.031.739.031 2.347 0 4.423-1.61 5.611-3.365h8.316a.898.898 0 00.899-.898V34.943a.898.898 0 00-.899-.898zm-31.527-.874l2.048 2.048a3.879 3.879 0 01-2.048.578c-.735 0-1.44-.202-2.048-.578l2.048-2.048zm-6.686 10.782l-2.048-2.048 2.047-2.048c.377.61.578 1.313.578 2.048 0 .735-.2 1.44-.578 2.048zM51.665 57.73l-2.047-2.048a3.912 3.912 0 014.095 0l-2.048 2.048zm3.342-3.342a5.71 5.71 0 00-6.683 0l-9.142-9.142a5.656 5.656 0 001.08-3.342 5.655 5.655 0 00-1.08-3.342l2.05-2.05a5.656 5.656 0 003.342 1.08 5.656 5.656 0 003.342-1.08l1.943 1.943c-.419.062-.828.2-1.21.413a3.522 3.522 0 00-1.463 1.546 5.12 5.12 0 00-2.688 1.415 5.127 5.127 0 000 7.242 5.106 5.106 0 003.622 1.498c1.311 0 2.623-.5 3.621-1.498a5.101 5.101 0 001.333-2.318l3.033 1.03a5.736 5.736 0 00.952 4.553l-2.052 2.052zm-5.462-8.833l.024.009 1.796.61a3.328 3.328 0 01-5.596 1.627 3.328 3.328 0 011.084-5.425c.166 1.38 1.16 2.61 2.692 3.18zm8.808 5.487a3.93 3.93 0 01-.574-1.869c.43.311.957.616 1.585.858l-1.01 1.01zm8.104-5.13c-.851 1.395-2.503 2.824-4.283 2.824a6.528 6.528 0 01-.94-.066c-1.941-.282-2.985-1.385-3.329-1.822l-.108-.146a.895.895 0 00-.495-.411l-7.143-2.425c-1.14-.428-1.743-1.404-1.467-2.377v-.002l.002-.002c.128-.449.423-.82.83-1.048a1.738 1.738 0 011.32-.157l8.049 2.55a.898.898 0 10.543-1.713l-6.402-2.028-.056-.056-.002-.002-3.314-3.314 2.849-1.02a.981.981 0 00.03-.012l.01-.004a.773.773 0 00.036-.016c1.926-.885 3.757-.355 4.474-.076 2.712 1.22 4.16 2.055 5.217 2.665 1.47.847 2.179 1.256 4.18 1.421v7.236zm3.404-.541h-1.607v-7.856h1.607v7.856zm5.342 0h-3.545v-9.53h3.545v9.53z" fill="#fff"/></svg><svg fill="none" viewBox="0 0 108 108" id="shipped" xmlns="http://www.w3.org/2000/svg"><circle cx="54" cy="54" r="54" fill="#2B2B2B"/><path d="M79.8 51.113l-1.554-6.215a.94.94 0 00.744-.919v-1.002a3.95 3.95 0 00-3.946-3.945h-7.077v-2.067c0-1.071-.871-1.942-1.942-1.942H29.95c-1.07 0-1.942.87-1.942 1.941V54a.94.94 0 001.88 0V36.965c0-.035.027-.063.062-.063h36.075c.034 0 .063.028.063.063V54a.94.94 0 001.879 0v-1.065H79.053c1.364.001 2.522.896 2.92 2.13h-2.922a.94.94 0 00-.94.94v2.003a2.947 2.947 0 002.944 2.944h1.065v4.134h-2.457a5.96 5.96 0 00-5.623-4.009 5.96 5.96 0 00-5.622 4.009h-.453v-7.078a.94.94 0 00-1.879 0v7.077H46.596a5.96 5.96 0 00-5.623-4.008 5.96 5.96 0 00-5.623 4.008h-5.4a.063.063 0 01-.063-.062v-2.067h4.071a.94.94 0 000-1.879H24.94a.94.94 0 000 1.879h3.068v2.067c0 1.07.871 1.941 1.942 1.941h5.075l-.002.063c0 3.28 2.67 5.95 5.95 5.95 3.28 0 5.95-2.67 5.95-5.95l-.002-.063h21.172l-.001.063c0 3.28 2.669 5.95 5.95 5.95 3.28 0 5.95-2.67 5.95-5.95l-.002-.063h3.07a.94.94 0 00.94-.94v-10.02a4.955 4.955 0 00-4.2-4.891zM67.967 40.91h7.077a2.07 2.07 0 012.067 2.067v.063h-9.144v-2.13zm0 10.146V44.92h8.347l1.535 6.137h-9.882zM40.973 71.098a4.075 4.075 0 01-4.071-4.07 4.076 4.076 0 014.07-4.072 4.076 4.076 0 014.072 4.071 4.075 4.075 0 01-4.071 4.071zm33.069 0a4.075 4.075 0 01-4.071-4.07 4.076 4.076 0 014.07-4.072 4.076 4.076 0 014.072 4.071 4.075 4.075 0 01-4.071 4.071zm8.08-12.025h-1.066a1.066 1.066 0 01-1.064-1.065v-1.064h2.129v2.13z" fill="#fff"/><path d="M40.973 65.085c-1.07 0-1.942.871-1.942 1.942 0 1.07.871 1.942 1.942 1.942 1.07 0 1.941-.871 1.941-1.942 0-1.07-.87-1.942-1.941-1.942zM74.042 65.085c-1.071 0-1.942.871-1.942 1.942 0 1.07.871 1.942 1.942 1.942 1.07 0 1.941-.871 1.941-1.942 0-1.07-.87-1.942-1.941-1.942zM63.019 61.077h-14.03a.94.94 0 000 1.88h14.03a.94.94 0 000-1.88zM38.969 57.069H26.944a.94.94 0 000 1.879h12.025a.94.94 0 000-1.88zM56.669 44.317a.94.94 0 00-1.329 0l-8.355 8.355-4.346-4.346a.94.94 0 00-1.328 1.328l5.01 5.01a.936.936 0 001.329 0l9.019-9.018a.94.94 0 000-1.329z" fill="#fff"/></svg><svg fill="none" viewBox="0 0 10 11" id="tail-answer" xmlns="http://www.w3.org/2000/svg"><path d="M8.56 9.366C8.262 4.855 2.751 1.578.033.504h9.051c.124 4.834-.23 13.374-.526 8.862z" fill="url(#mpaint0_linear_4_3878)"/><defs><linearGradient id="mpaint0_linear_4_3878" x1="4.572" y1=".504" x2="4.572" y2="10.641" gradientUnits="userSpaceOnUse"><stop stop-color="#F6F6F6"/><stop offset="1" stop-color="#F2F2F1"/></linearGradient></defs></svg><svg fill="none" viewBox="0 0 10 9" id="tail-question" xmlns="http://www.w3.org/2000/svg"><path d="M.628 7.376C.924 3.774 6.435 1.159 9.153.3H.102c-.124 3.859.23 10.676.526 7.075z" fill="#D3FFC4"/></svg><svg fill="none" viewBox="0 0 17 16" id="tel" xmlns="http://www.w3.org/2000/svg"><path d="M15.78 12.654l-2.349-2.348c-.467-.466-1.242-.452-1.726.032l-1.183 1.183a32.907 32.907 0 01-.234-.13c-.747-.414-1.77-.981-2.845-2.058-1.08-1.08-1.648-2.103-2.063-2.85l-.127-.229.794-.793.39-.39c.485-.485.499-1.26.032-1.727L4.12.995c-.467-.467-1.242-.452-1.727.033l-.662.665.018.018c-.222.283-.407.61-.545.962a3.988 3.988 0 00-.243.976c-.31 2.57.865 4.92 4.053 8.108 4.407 4.406 7.958 4.074 8.111 4.057.334-.04.654-.12.979-.245.349-.137.675-.322.958-.544l.015.013.67-.656c.484-.485.498-1.26.032-1.728z" fill="#fff"/></svg></svg>