<svg width="100" height="100" viewBox="0 0 100 100" fill="none" xmlns="http://www.w3.org/2000/svg">
<circle cx="50" cy="50" r="50" fill="#9F2F75"/>
<path d="M33.249 53H27.186H27V68L31.443 63.917C35.796 70.019 42.933 74 51 74C63.24 74 73.338 64.838 74.814 53H68.751C67.323 61.514 59.919 68 51 68C44.682 68 39.12 64.742 35.91 59.813L43.323 53H33.249Z" fill="white"/>
<path d="M51 26C38.76 26 28.662 35.162 27.186 47H33.249C34.677 38.486 42.081 32 51 32C57.507 32 63.21 35.453 66.372 40.628L60 47H66H68.751H74.814H75V32L70.704 36.296C66.369 30.071 59.16 26 51 26Z" fill="white"/>
</svg>
