<svg width="11" height="20" viewBox="0 0 11 20" fill="none" xmlns="http://www.w3.org/2000/svg">
<path fill-rule="evenodd" clip-rule="evenodd" d="M5.59306 0.645371C3.77277 1.47362 3.09836 2.85245 3.09836 5.74618V7.48137H1.54918H0V9.16309V10.8448H1.54918H3.09836V15.3912V19.9375L4.94877 19.8897L6.79918 19.842L6.81657 16.1422C6.8262 14.1073 6.84566 12.0831 6.8596 11.6436L6.88525 10.8448H8.40998H9.93455L10.0414 9.84637C10.1001 9.29729 10.1984 8.54052 10.26 8.16466L10.3719 7.48137H8.63875C7.68548 7.48137 6.87389 7.42453 6.83498 7.35525C6.79625 7.28596 6.81123 6.52229 6.86821 5.6584C7.00264 3.62083 7.18303 3.44526 9.14206 3.44526H10.5V1.84763V0.25L8.47746 0.251682C6.72241 0.253027 6.34097 0.30516 5.59306 0.645371Z" fill="black"/>
</svg>
