<svg width="21" height="20" viewBox="0 0 21 20" fill="none" xmlns="http://www.w3.org/2000/svg">
<path fill-rule="evenodd" clip-rule="evenodd" d="M4.79411 0.494825C2.1839 1.14477 1.03019 2.72804 0.683584 6.13561C0.423541 8.69398 0.609337 14.8194 0.984553 16.0593C1.59029 18.06 3.2152 19.3882 5.51847 19.7648C6.92625 19.9951 13.8924 19.9951 15.288 19.7648C17.6034 19.3827 19.1046 18.1722 19.7653 16.1543C20.1874 14.8654 20.3969 9.27532 20.1338 6.32866C19.8067 2.666 18.6103 1.04624 15.7864 0.443187C14.4552 0.158904 5.98314 0.198681 4.79411 0.494825ZM14.8916 2.06605C16.9338 2.36365 17.9433 3.30865 18.3008 5.25758C18.4212 5.91409 18.4732 8.07377 18.4346 10.8119C18.3658 15.6768 18.3231 15.8989 17.2306 17.0752C16.3952 17.9746 15.4461 18.12 10.4079 18.12C5.02011 18.12 4.36964 17.9991 3.35899 16.8092C3.00586 16.3935 2.65455 15.7589 2.5785 15.3989C2.50226 15.0389 2.43996 12.5274 2.43996 9.81779C2.43996 5.05486 2.45373 4.86308 2.85375 4.0449C3.39665 2.93459 4.3452 2.28355 5.71296 2.08265C7.21291 1.86223 13.4159 1.8511 14.8916 2.06605ZM15.3878 3.66738C14.5287 3.93725 14.2506 4.75014 14.7643 5.48913C15.2973 6.25604 16.8365 5.77414 16.8365 4.84064C16.8365 4.11132 16.0365 3.46356 15.3878 3.66738ZM8.7174 5.33056C7.51189 5.75005 6.31272 6.90087 5.77924 8.15023C5.45799 8.9029 5.40058 9.31528 5.46867 10.3842C5.6465 13.1772 7.63395 15.0409 10.4347 15.0409C13.3994 15.0409 15.5826 12.644 15.3442 9.65047C15.2335 8.26262 14.7542 7.28862 13.6999 6.30932C12.3413 5.04738 10.5449 4.69448 8.7174 5.33056ZM12.151 7.32985C13.1255 7.95243 13.6187 8.87882 13.6187 10.0862C13.6187 13.0338 10.0307 14.4619 8.08305 12.2897C6.0985 10.0763 7.47821 6.84102 10.4176 6.81511C11.123 6.80891 11.5206 6.92697 12.151 7.32985Z" fill="black"/>
</svg>
