<svg width="21" height="20" viewBox="0 0 21 20" fill="none" xmlns="http://www.w3.org/2000/svg">
<path fill-rule="evenodd" clip-rule="evenodd" d="M8.00278 0.515538C3.77175 1.65452 0.6875 5.6237 0.6875 9.92941C0.6875 13.3454 2.38669 16.5319 5.13512 18.2695C5.79255 18.685 6.36175 19.025 6.40003 19.025C6.43832 19.025 6.51927 18.5527 6.5798 17.9756C6.64033 17.3986 6.97998 15.713 7.33477 14.23C7.87425 11.9741 7.95155 11.4075 7.80679 10.7612C7.29977 8.49642 9.20151 6.3829 10.5009 7.76734C11.027 8.32816 11.0075 9.04319 10.4094 11.1162C9.84345 13.0772 9.93989 13.5794 10.9641 14.0079C12.9033 14.8189 14.6291 12.5359 14.6329 9.15452C14.6346 7.73887 14.5861 7.51731 14.1308 6.85977C13.1221 5.40251 11.1806 4.83439 9.18966 5.41382C6.59438 6.16901 5.05235 9.19248 6.157 11.36C6.56248 12.1557 6.61316 12.6727 6.33659 13.1903C5.9869 13.8442 4.87732 13.054 4.27951 11.725C3.7723 10.5979 3.78543 8.66542 4.30813 7.47443C4.87112 6.192 6.31817 4.75117 7.66622 4.13085C8.69431 3.65763 8.98838 3.60854 10.8061 3.60635C12.6314 3.60398 12.904 3.64924 13.8404 4.10968C15.0141 4.68693 16.2335 5.91698 16.7412 7.03661C17.1801 8.00422 17.2143 10.336 16.8101 11.7374C16.4473 12.9965 15.4475 14.4817 14.5789 15.0527C12.8663 16.1784 10.9899 16.2183 9.85366 15.1531C9.38948 14.7176 9.46004 14.601 8.89212 16.7397C8.67936 17.5407 8.33678 18.4689 8.13076 18.8025C7.92475 19.1361 7.79238 19.4453 7.83651 19.4896C7.99257 19.6457 9.8646 19.9375 10.7107 19.9375C11.9713 19.9375 14.3009 19.2858 15.4519 18.6111C18.4284 16.8662 20.3826 13.4836 20.375 10.0898C20.365 5.5934 17.3121 1.63481 12.9844 0.506413C11.6588 0.160941 9.30397 0.165139 8.00278 0.515538Z" fill="black"/>
</svg>
