<svg width="20" height="20" viewBox="0 0 20 20" fill="none" xmlns="http://www.w3.org/2000/svg">
<path fill-rule="evenodd" clip-rule="evenodd" d="M6.05 0.592789C3.29393 1.55525 1.39402 3.52754 0.575912 6.27523C0.226139 7.44954 0.224447 9.66872 0.57236 10.8361C2.04689 15.7834 7.78449 18.311 12.2955 16.0007L13.4113 15.4292L15.7082 17.6833C17.6652 19.604 18.083 19.9375 18.5317 19.9375C19.3607 19.9375 20 19.2843 20 18.4371C20 17.7734 19.9046 17.6477 17.7808 15.5121L15.5615 13.2806L16.1207 12.2095C16.8752 10.7638 17.1727 8.83164 16.8918 7.20197C16.4256 4.49911 14.7438 2.28532 12.2028 1.03079C10.8455 0.360556 10.6987 0.326008 8.96709 0.268034C7.41154 0.216127 6.99615 0.262304 6.05 0.592789ZM10.9177 3.76483C13.9059 5.25277 14.8584 8.70693 13.0395 11.4592C11.2134 14.2222 7.18609 14.6396 4.90968 12.3018C3.72573 11.086 3.43194 10.3243 3.43448 8.47756C3.43702 6.6251 3.68886 5.98654 4.88837 4.79117C6.07046 3.61349 6.87876 3.28958 8.69072 3.26767C9.70537 3.25537 10.0482 3.33188 10.9177 3.76483Z" fill="black"/>
</svg>
