<svg width="35" height="31" viewBox="0 0 35 31" fill="none" xmlns="http://www.w3.org/2000/svg">
<path d="M6.20555 13.9051C9.40151 15.7416 11.8499 18.4962 13.6094 21.7139C13.8807 22.2097 15.5563 22.0664 16.0236 22.0664C16.433 22.0664 18.2292 22.2183 18.4377 21.7139C21.905 13.3158 27.4162 5.68301 34.9492 0.501124C35.338 0.233607 33.3725 0.0716884 33.263 0.0671628C32.4983 0.0354831 30.9835 -0.161132 30.2931 0.31356C22.6994 5.53718 17.1043 13.2474 13.6089 21.7139C15.2182 21.7139 16.828 21.7139 18.4372 21.7139C16.6456 18.4368 14.1163 15.5877 10.8611 13.7176C10.0909 13.2751 8.74232 13.436 7.8912 13.4712C7.48524 13.4878 6.7944 13.4249 6.44822 13.6331C6.37085 13.6804 5.93976 13.7523 6.20555 13.9051Z" fill="#F21631"/>
<path d="M14.9674 30.5285C6.7145 30.5285 0 23.8079 0 15.5481C0 7.28822 6.7145 0.568115 14.9674 0.568115C17.4299 0.568115 19.8722 1.18009 22.0301 2.33765C22.8139 2.75803 23.1083 3.73407 22.6883 4.51852C22.2683 5.30296 21.293 5.59764 20.5093 5.17725C18.8181 4.2696 16.9013 3.78938 14.9674 3.78938C8.48908 3.78938 3.21858 9.06429 3.21858 15.5481C3.21858 22.0318 8.48908 27.3067 14.9674 27.3067C21.4458 27.3067 26.7163 22.0318 26.7163 15.5481C26.7163 14.4765 26.5721 13.416 26.2882 12.3962C26.0496 11.5393 26.5505 10.6508 27.4066 10.4124C28.2633 10.1736 29.1506 10.6749 29.3887 11.5318C29.751 12.8332 29.9349 14.1843 29.9349 15.5486C29.9354 23.8079 23.2209 30.5285 14.9674 30.5285Z" fill="#F21631"/>
</svg>
