<svg width="66" height="74" viewBox="0 0 66 74" fill="none" xmlns="http://www.w3.org/2000/svg">
<path d="M33 0.5C50.952 0.5 65.5 14.969 65.5 32.8113C65.5 44.7695 57.864 53.6964 49.0659 60.9135C45.4449 63.8838 41.3545 67.0546 38.1676 69.4842C36.5745 70.6987 35.208 71.7274 34.2399 72.4523C33.7558 72.8148 33.3713 73.1013 33.108 73.2972C33.0708 73.3249 33.036 73.3507 33.0037 73.3748L32.906 73.3005C32.6483 73.1045 32.2719 72.8178 31.7967 72.4551C30.8463 71.7298 29.5011 70.7006 27.9219 69.4856C24.7633 67.0552 20.6698 63.882 16.9281 60.9086C9.4686 54.9808 0.5 44.7656 0.5 32.8113C0.5 14.969 15.048 0.5 33 0.5Z" stroke="#FF3407"/>
</svg>
