<svg width="19" height="14" viewBox="0 0 19 14" fill="none" xmlns="http://www.w3.org/2000/svg">
<path d="M0.0563041 8.81352C2.15891 9.9775 3.76966 11.7235 4.92724 13.763C5.10573 14.0772 6.20811 13.9864 6.51551 13.9864C6.78491 13.9864 7.96661 14.0827 8.10379 13.763C10.3849 8.43998 14.0107 3.60207 18.9665 0.317628C19.2224 0.148067 17.9293 0.0454384 17.8572 0.0425699C17.3541 0.0224903 16.3575 -0.102131 15.9034 0.198744C10.9075 3.50964 7.22652 8.39663 4.92691 13.763C5.98565 13.763 7.04472 13.763 8.10346 13.763C6.92473 11.6859 5.26076 9.87997 3.11915 8.69464C2.61242 8.41416 1.72523 8.51615 1.16529 8.53846C0.898206 8.54898 0.443705 8.50914 0.215958 8.64109C0.165054 8.67105 -0.118555 8.71663 0.0563041 8.81352Z" fill="#CC0F0F"/>
</svg>
