<svg width="160" height="160" xmlns="http://www.w3.org/2000/svg"><path d="M54.182 149.25h2.155v-1.655h-2.155v1.655zm-6.4 2.1a1.27 1.27 0 00-.912.35c-.246.234-.402.567-.47.999h2.675a1.567 1.567 0 00-.38-.96c-.228-.26-.533-.39-.913-.39zm14.892.191c-.406 0-.714.148-.925.445-.211.298-.317.7-.317 1.21 0 .432.106.8.317 1.1.211.302.52.453.925.453.414 0 .735-.143.963-.427.229-.284.342-.655.342-1.113 0-.535-.11-.947-.329-1.236-.22-.288-.545-.432-.976-.432zm-52.484 0c-.406 0-.722.161-.95.483-.228.323-.343.777-.343 1.362 0 .56.11 1.006.33 1.337.22.33.545.496.976.496.44 0 .769-.173.988-.521.22-.348.33-.785.33-1.312 0-.568-.114-1.018-.342-1.349-.228-.33-.558-.496-.989-.496zm93.752 0a1.1 1.1 0 00-.95.483c-.229.323-.343.777-.343 1.362 0 .56.11 1.006.33 1.337.219.33.544.496.975.496.44 0 .769-.173.989-.521.22-.348.33-.785.33-1.312 0-.568-.115-1.018-.343-1.349-.228-.33-.557-.496-.988-.496zm20.368-1.591c.202 0 .37.017.506.05v1.974a3.44 3.44 0 00-.823-.128c-.228 0-.442.039-.64.115a1.634 1.634 0 00-.52.318 1.411 1.411 0 00-.342.484c-.08.186-.12.39-.12.61v3.31h-2.155v-6.606h2.09v1.159h.026c.144-.408.389-.724.736-.949.346-.225.76-.337 1.242-.337zM3.548 147.595c.237 0 .58.013 1.028.038v1.528a6.378 6.378 0 00-.584-.039c-.262 0-.439.026-.532.077a.444.444 0 00-.203.254 1.51 1.51 0 00-.063.472v.152h1.293v1.4H3.194v5.206H1.039v-5.206H0v-1.4h1.04c0-.713.092-1.239.278-1.578a1.52 1.52 0 01.811-.713c.355-.127.828-.19 1.42-.19zm17.225 2.355c.203 0 .372.017.508.05v1.974a3.444 3.444 0 00-.825-.128c-.228 0-.441.039-.64.115a1.622 1.622 0 00-.52.318 1.41 1.41 0 00-.342.484c-.08.186-.12.39-.12.61v3.31H16.68v-6.606h2.092v1.159h.025c.144-.408.388-.724.735-.949.346-.225.76-.337 1.242-.337zm33.41 6.733h2.154v-6.606h-2.155v6.606zm38.998-9.088v3.386h.026c.177-.331.456-.596.836-.796.38-.199.773-.299 1.179-.299 1.571 0 2.357.836 2.357 2.507v4.29h-2.154v-3.907c0-.739-.36-1.108-1.078-1.108-.354 0-.638.132-.849.394-.211.264-.317.59-.317.98v3.641h-2.154v-9.088h2.154zm-21.825 0v3.386h.025c.178-.331.457-.596.837-.796.38-.199.773-.299 1.179-.299 1.571 0 2.357.836 2.357 2.507v4.29h-2.155v-3.907c0-.739-.359-1.108-1.077-1.108-.355 0-.638.132-.85.394-.21.264-.316.59-.316.98v3.641h-2.155v-9.088h2.155zm-44.804.484v1.998h1.331v1.4h-1.33v3.017c0 .229.063.39.19.484.126.093.32.14.583.14a6.054 6.054 0 00.557-.026v1.591c-.228.017-.465.032-.71.044a10.11 10.11 0 01-.722.013 4.758 4.758 0 01-.672-.057 1.88 1.88 0 01-.545-.165 1.266 1.266 0 01-.652-.745c-.123-.344-.184-.77-.184-1.279v-3.017h-1.09v-1.4h1.09v-1.998h2.154zm55.07 0v1.998h1.331v1.4h-1.33v3.017c0 .229.063.39.19.484.126.093.32.14.583.14a6.062 6.062 0 00.557-.026v1.591c-.228.017-.465.032-.71.044a10.11 10.11 0 01-.722.013 4.751 4.751 0 01-.672-.057 1.879 1.879 0 01-.545-.165 1.266 1.266 0 01-.652-.745c-.123-.344-.184-.77-.184-1.279v-3.017h-1.09v-1.4h1.09v-1.998h2.154zm-33.828 1.807c.516 0 .987.087 1.414.261a2.97 2.97 0 011.083.745c.296.322.526.715.69 1.177.166.463.249.987.249 1.572v.267H46.4c.026.484.17.855.431 1.114.262.259.609.388 1.04.388.287 0 .54-.065.76-.197.22-.132.376-.308.47-.528h2.014a3.04 3.04 0 01-.45.948 2.62 2.62 0 01-.728.688c-.287.182-.607.32-.957.413-.351.094-.73.14-1.135.14-.55 0-1.044-.083-1.483-.248a3.28 3.28 0 01-1.134-.707 3.06 3.06 0 01-.729-1.107 3.963 3.963 0 01-.253-1.451c0-.492.093-.95.279-1.375.185-.423.437-.793.754-1.107.317-.314.69-.558 1.121-.732.431-.174.896-.261 1.394-.261zm64.703.19v3.883c0 .756.355 1.133 1.064 1.133.338 0 .62-.13.843-.388.224-.26.336-.609.336-1.05v-3.577h2.155v6.606h-2.092v-.904h-.025c-.211.34-.505.607-.88.802a2.44 2.44 0 01-1.135.293c-.82 0-1.428-.217-1.826-.65-.397-.431-.595-1.132-.595-2.099v-4.048h2.154zm17.58-.19c.963 0 1.7.176 2.21.528.512.352.784.89.818 1.61h-1.99c0-.254-.084-.44-.253-.56-.17-.118-.406-.177-.71-.177-.296 0-.522.036-.678.108-.156.071-.239.201-.247.387 0 .154.119.298.355.434.228.135.883.3 1.965.496.279.05.528.131.748.242.219.11.407.246.563.407a1.668 1.668 0 01.475 1.171c0 .509-.133.938-.399 1.286-.266.347-.64.61-1.122.789a4.816 4.816 0 01-1.634.267c-1.04 0-1.83-.208-2.37-.624-.541-.416-.824-.997-.85-1.743h2.054c0 .297.107.532.323.706.215.174.492.261.83.261.279 0 .517-.064.716-.191.198-.127.298-.297.298-.509a.543.543 0 00-.12-.344c-.081-.102-.247-.182-.501-.242l-1.521-.356c-.659-.153-1.151-.373-1.477-.662-.325-.288-.487-.708-.487-1.26 0-.33.075-.622.228-.872.152-.25.36-.46.627-.63.267-.17.583-.299.95-.388a5.06 5.06 0 011.198-.134zm-119.874 0c.49 0 .948.087 1.375.261.427.174.794.416 1.103.726.308.31.551.679.728 1.107.178.428.267.898.267 1.406 0 .51-.085.977-.254 1.4-.17.425-.408.792-.716 1.102a3.3 3.3 0 01-1.103.726c-.426.173-.893.26-1.4.26-.499 0-.96-.087-1.381-.26a3.223 3.223 0 01-1.819-1.82 3.705 3.705 0 01-.26-1.408c0-.508.086-.975.26-1.4a3.45 3.45 0 01.716-1.107 3.189 3.189 0 011.09-.732 3.633 3.633 0 011.394-.26zm93.751 0c.49 0 .949.087 1.375.261.427.174.795.416 1.103.726.308.31.552.679.729 1.107.177.428.266.898.266 1.406 0 .51-.084.977-.253 1.4a3.24 3.24 0 01-.716 1.102c-.31.31-.677.551-1.103.726a3.68 3.68 0 01-1.4.26c-.5 0-.96-.087-1.382-.26a3.231 3.231 0 01-1.819-1.82 3.714 3.714 0 01-.26-1.408c0-.508.087-.975.26-1.4.173-.424.412-.793.716-1.107a3.187 3.187 0 011.09-.732 3.634 3.634 0 011.394-.26zm-71.837.191l1.242 4.302h.025l1.242-4.302h2.206l-2.573 7.128c-.119.323-.245.59-.38.802-.136.212-.3.386-.495.522a1.855 1.855 0 01-.697.286c-.27.055-.596.083-.976.083h-1.242v-1.756h.697c.287 0 .511-.069.672-.204a.665.665 0 00.24-.535c0-.102-.016-.216-.05-.343-.017-.068-.21-.6-.577-1.598l-1.616-4.385h2.282zm30.05-.19c.794 0 1.382.339 1.762 1.018h.025v-.828h2.066v5.855c0 2.045-1.098 3.068-3.295 3.068-1.022 0-1.79-.172-2.3-.516-.512-.343-.818-.876-.92-1.598h2.155c.06.273.175.459.349.56.173.102.441.153.805.153.202 0 .375-.023.52-.07a.669.669 0 00.348-.26c.088-.127.154-.306.197-.535.041-.229.062-.53.062-.904v-.394h-.025c-.414.645-1 .967-1.762.967-.92 0-1.63-.29-2.129-.872-.498-.581-.747-1.38-.747-2.399 0-.484.07-.923.209-1.318.14-.394.335-.736.59-1.024.252-.288.557-.511.912-.668a2.88 2.88 0 011.178-.236zm4.5-61.543c-12.717 0-23.026 10.353-23.026 23.124 0 12.773 10.309 23.124 23.025 23.124 12.718 0 23.027-10.351 23.027-23.124 0-12.77-10.309-23.124-23.027-23.124zm0-3.836c14.827 0 26.845 12.07 26.845 26.96s-12.018 26.96-26.846 26.96c-14.827 0-26.845-12.07-26.845-26.96s12.018-26.96 26.845-26.96zm-9.473 21.591l-4.489 8.89h4.489v-8.89zm16.786-9.348h-.078s-.94.028-1.456 1.06l-.061.229v8.64l.05.243s.263.973 1.492 1.705h.027c1.23-.732 1.493-1.705 1.493-1.705l.05-.243v-8.64l-.063-.229c-.504-1.011-1.418-1.058-1.454-1.06zm-.026 16.503h-.027c-1.23.73-1.491 1.705-1.491 1.705l-.051.243v8.64l.061.229c.505 1.01 1.419 1.058 1.455 1.06h.077s.942-.028 1.456-1.06l.062-.228v-8.64l-.05-.244v-.003c-.02-.069-.307-1-1.492-1.702zm-.002-19.56c2.23 0 3.966.537 5.206 1.612 1.241 1.074 1.86 2.525 1.86 4.353v3.511c0 1.605-.11 4.032-.328 4.705-.437 1.347-1.383 2.493-2.83 3.07 1.447.418 2.42 1.006 2.913 2.131.274.643.41.87.41 2.158v6.393c0 2.154-.572 3.763-1.713 4.824-1.144 1.063-2.998 1.592-5.56 1.592-2.592 0-4.442-.523-5.558-1.568-1.117-1.045-1.675-2.661-1.675-4.848v-2.75h-3.82v8.387h-5.663v-8.388H45.787l12.688-24.312h4.382v20.424h3.847c.08-1.077.337-1.624.774-2.241.533-.758 1.375-1.296 2.524-1.618-1.122-.448-1.928-1.099-2.42-1.948-.493-.85-.74-3.958-.74-6.011v-3.51c0-1.83.614-3.28 1.84-4.354 1.225-1.075 2.983-1.612 5.27-1.612z" fill="#F2F2F2" fill-rule="evenodd"/></svg>