<svg width="38" height="38" viewBox="0 0 38 38" fill="none" xmlns="http://www.w3.org/2000/svg">
<path d="M19.1384 22.7629L34.7215 5.65882L36.7787 7.53313L19.2813 26.7385L9.74252 17.6707L11.6603 15.6536L19.1384 22.7629ZM35.6981 12.8064L33.5278 15.1961C33.8429 16.4059 34.0107 17.6744 34.0107 18.9814C34.0107 27.2684 27.2684 34.0107 18.9814 34.0107C10.6945 34.0107 3.95215 27.2684 3.95215 18.9814C3.95215 10.6945 10.6945 3.95215 18.9814 3.95215C22.8205 3.95215 26.3274 5.39985 28.9868 7.77688L30.8631 5.711C27.5922 2.77538 23.4104 1.16895 18.9814 1.16895C14.2237 1.16895 9.75034 3.02173 6.38615 6.38615C3.02173 9.75034 1.16895 14.2237 1.16895 18.9814C1.16895 23.7392 3.02173 28.2125 6.38615 31.5767C9.75034 34.9412 14.2237 36.7939 18.9814 36.7939C23.7392 36.7939 28.2125 34.9412 31.5767 31.5767C34.9412 28.2125 36.7939 23.7392 36.7939 18.9814C36.7939 16.8401 36.4176 14.7571 35.6981 12.8064Z" fill="white"/>
</svg>
