<svg xmlns="http://www.w3.org/2000/svg" width="84" height="84" viewBox="0 0 84 84">
  <g id="Group_1404" data-name="Group 1404" transform="translate(134 -134)">
    <circle id="Ellipse_315" data-name="Ellipse 315" cx="42" cy="42" r="42" transform="translate(-134 134)" fill="#f0f1f5"/>
    <path id="Path_361" data-name="Path 361" d="M-76.461,175.652a10.746,10.746,0,0,0,2.418-7.826,10.857,10.857,0,0,0-9.785-9.783,10.771,10.771,0,0,0-4.472.541,11.282,11.282,0,0,1-7.4,0,10.776,10.776,0,0,0-4.473-.541,10.857,10.857,0,0,0-9.784,9.783,10.745,10.745,0,0,0,2.418,7.826Z" fill="#fff"/>
    <path id="Path_362" data-name="Path 362" d="M-119,159v-6a4,4,0,0,1,4-4h6" fill="none" stroke="#14181e" stroke-linecap="round" stroke-linejoin="round" stroke-width="2"/>
    <path id="Path_363" data-name="Path 363" d="M-75,149h6a4,4,0,0,1,4,4v6" fill="none" stroke="#14181e" stroke-linecap="round" stroke-linejoin="round" stroke-width="2"/>
    <path id="Path_364" data-name="Path 364" d="M-119,193v6a4,4,0,0,0,4,4h6" fill="none" stroke="#14181e" stroke-linecap="round" stroke-linejoin="round" stroke-width="2"/>
    <path id="Path_365" data-name="Path 365" d="M-75,203h6a4,4,0,0,0,4-4v-6" fill="none" stroke="#14181e" stroke-linecap="round" stroke-linejoin="round" stroke-width="2"/>
    <path id="Path_366" data-name="Path 366" d="M-74.043,167.826a10.857,10.857,0,0,0-9.785-9.783,10.771,10.771,0,0,0-4.472.541,11.282,11.282,0,0,1-7.4,0,10.776,10.776,0,0,0-4.473-.541,10.857,10.857,0,0,0-9.784,9.783,10.745,10.745,0,0,0,2.418,7.826,15.18,15.18,0,0,1,3.047,6.639l1.821,8.841A3.6,3.6,0,0,0-99.146,194h0a3.6,3.6,0,0,0,3.5-2.745l1.551-6.348a2.16,2.16,0,0,1,4.2,0l1.551,6.348a3.6,3.6,0,0,0,3.5,2.745h0a3.6,3.6,0,0,0,3.525-2.868l1.821-8.841a15.18,15.18,0,0,1,3.047-6.639A10.746,10.746,0,0,0-74.043,167.826Z" fill="none" stroke="#14181e" stroke-linejoin="round" stroke-width="2"/>
    <line id="Line_57" data-name="Line 57" x2="54" transform="translate(-119 176)" fill="none" stroke="#14181e" stroke-linecap="round" stroke-linejoin="round" stroke-width="2"/>
  </g>
</svg>
