<svg xmlns="http://www.w3.org/2000/svg" xmlns:xlink="http://www.w3.org/1999/xlink" width="92" height="58" viewBox="0 0 92 58">
  <defs>
    <linearGradient id="linear-gradient" x1="0.186" y1="0.801" x2="0.801" y2="0.186" gradientUnits="objectBoundingBox">
      <stop offset="0" stop-color="#574fe5"/>
      <stop offset="1" stop-color="#2ec4da"/>
    </linearGradient>
  </defs>
  <g id="Group_1419" data-name="Group 1419" transform="translate(-1218 -1645)">
    <g id="partner-logo" transform="translate(1218 1645)" fill="#fff" stroke="#ebecf0" stroke-width="1">
      <rect width="92" height="58" rx="6" stroke="none"/>
      <rect x="0.5" y="0.5" width="91" height="57" rx="5.5" fill="none"/>
    </g>
    <g id="Layer_1" data-name="Layer 1" transform="translate(1227 1665.059)">
      <path id="Path_373" data-name="Path 373" d="M199.608,35.089a3.443,3.443,0,0,1-2.709.87h-.643v2.908H194.24V30.578h2.485c1.292,0,2.249.075,2.97.783a2.459,2.459,0,0,1,.671,1.777A2.634,2.634,0,0,1,199.608,35.089Zm-1.553-2.66c-.236-.236-.568-.261-1.156-.261h-.643v2.175h.584c.771,0,1.032-.1,1.206-.274a1.2,1.2,0,0,0,.286-.832A1.159,1.159,0,0,0,198.055,32.429Zm6.475,6.438v-.522A2.715,2.715,0,0,1,202.79,39a1.888,1.888,0,0,1-2-2.013c0-2.271,2.746-2.271,3.393-2.271h.135a.7.7,0,0,0-.149-.559,1,1,0,0,0-.733-.2,4.153,4.153,0,0,0-1.714.422l-.6-1.181a4.154,4.154,0,0,1,2.412-.671,2.89,2.89,0,0,1,2.138.721,2.605,2.605,0,0,1,.5,2.013v3.6Zm-.186-2.883c-.472,0-1.342-.025-1.7.341a.748.748,0,0,0,.559,1.268,1.994,1.994,0,0,0,1.143-.349Zm7.2-1.785a1.545,1.545,0,0,0-.374-.05,1.966,1.966,0,0,0-1.652.845v3.877h-1.989V32.7h1.641v.815a2.728,2.728,0,0,1,2.063-1.006,1.449,1.449,0,0,1,.758.186Zm4.759,4.854a2.429,2.429,0,0,1-1.7-.6c-.56-.56-.56-1.181-.56-2.113V34.256h-1.068V32.7h1.068V31h1.989v1.7H217.7v1.553h-1.676v2.225c0,.422.025.968.721.968a1.922,1.922,0,0,0,.732-.136l.5,1.3A3.169,3.169,0,0,1,216.3,39.053Zm3.841-7.034a1.05,1.05,0,1,1,1.05-1.05A1.05,1.05,0,0,1,220.141,32.019Zm-1.006,6.847V32.7h1.986v6.164Zm6.91,0v-.522A2.725,2.725,0,0,1,224.3,39a1.888,1.888,0,0,1-2-2.013c0-2.271,2.746-2.271,3.392-2.271h.137a.7.7,0,0,0-.15-.559.991.991,0,0,0-.732-.2,4.16,4.16,0,0,0-1.716.422l-.6-1.181a4.148,4.148,0,0,1,2.41-.671,2.89,2.89,0,0,1,2.138.721,2.606,2.606,0,0,1,.5,2.013v3.6Zm-.186-2.883c-.472,0-1.343-.025-1.7.341a.748.748,0,0,0,.56,1.268,2,2,0,0,0,1.143-.349Zm3.182,2.883v-9h1.988v9Zm4.6.1a1.15,1.15,0,1,1,1.114-1.15A1.15,1.15,0,0,1,233.639,38.968Zm2.6-.1v-9h1.988v9Zm7.506-.061c-.681,1.714-.908,2-1.231,2.323a2.459,2.459,0,0,1-1.9.659,3.12,3.12,0,0,1-1.678-.447l.6-1.362a2.438,2.438,0,0,0,.981.236,1.009,1.009,0,0,0,.783-.3,3.148,3.148,0,0,0,.522-1.07l-2.611-6.139h2.113l1.487,4.109,1.417-4.113h1.963Z" transform="translate(-172.187 -26.479)" fill="#3e425e"/>
      <path id="Path_374" data-name="Path 374" d="M8.976,15.882a6.912,6.912,0,0,1-6.9-6.905V8.288H8.288V2.072h.69a6.905,6.905,0,1,1,0,13.81ZM6.905,6.905H0v-.69A6.221,6.221,0,0,1,6.215,0h.69ZM1.431,5.524H5.524V1.436A4.843,4.843,0,0,0,1.431,5.524ZM9.668,9.667v4.791a5.535,5.535,0,0,0,4.79-4.791Zm-6.172,0a5.535,5.535,0,0,0,4.792,4.791V9.667ZM9.668,8.288h4.79A5.534,5.534,0,0,0,9.668,3.5Z" fill-rule="evenodd" fill="url(#linear-gradient)"/>
    </g>
  </g>
</svg>
