<svg xmlns="http://www.w3.org/2000/svg" width="112" height="19" viewBox="0 0 112 19">
  <g id="Group_135" data-name="Group 135" transform="translate(-220 -6203)">
    <path id="Path_84" data-name="Path 84" d="M40.5,255.761H32.859L30.507,248.5l-2.366,7.261-7.641-.014,6.18,4.493L24.313,267.5l6.18-4.493,6.18,4.493-2.352-7.261Z" transform="translate(199.5 5954.5)" fill="#fb3"/>
    <path id="Path_85" data-name="Path 85" d="M40.5,255.761H32.859L30.507,248.5l-2.366,7.261-7.641-.014,6.18,4.493L24.313,267.5l6.18-4.493,6.18,4.493-2.352-7.261Z" transform="translate(222.5 5954.5)" fill="#fb3"/>
    <path id="Path_86" data-name="Path 86" d="M40.5,255.761H32.859L30.507,248.5l-2.366,7.261-7.641-.014,6.18,4.493L24.313,267.5l6.18-4.493,6.18,4.493-2.352-7.261Z" transform="translate(245.5 5954.5)" fill="#fb3"/>
    <path id="Path_87" data-name="Path 87" d="M40.5,255.761H32.859L30.507,248.5l-2.366,7.261-7.641-.014,6.18,4.493L24.313,267.5l6.18-4.493,6.18,4.493-2.352-7.261Z" transform="translate(268.5 5954.5)" fill="#fb3"/>
    <path id="Path_88" data-name="Path 88" d="M40.5,255.761H32.859L30.507,248.5l-2.366,7.261-7.641-.014,6.18,4.493L24.313,267.5l6.18-4.493,6.18,4.493-2.352-7.261Z" transform="translate(291.5 5954.5)" fill="#fb3"/>
  </g>
</svg>
