<svg width="103" height="103" viewBox="0 0 103 103" fill="none" xmlns="http://www.w3.org/2000/svg">
<rect x="1" y="1" width="101" height="101" rx="19" fill="#60A8FF" stroke="white" stroke-width="2"/>
<g filter="url(#filter0_d_24_40)">
<path d="M51.5 47.1875C45.4625 47.1875 40.7188 42.4438 40.7188 36.4062C40.7188 29.2906 49.1281 20.6656 49.9906 19.8031C50.8531 18.9406 52.1469 18.9406 53.0094 19.8031C53.8719 20.6656 62.2812 29.2906 62.2812 36.4062C62.2812 42.4438 57.5375 47.1875 51.5 47.1875Z" fill="white"/>
<path d="M81.4719 52.5781C81.0406 51.9312 80.3937 51.5 79.5312 51.5C74.7875 51.5 70.2594 53.6562 67.4562 57.5375L65.5156 60.125C63.1437 62.9281 59.4781 64.4375 55.8125 64.4375H49.3437C48.05 64.4375 47.1875 63.575 47.1875 62.2812C47.1875 60.9875 48.05 60.125 49.3437 60.125H53.4406C56.8906 60.125 60.125 57.3219 60.125 53.8719V53.6562C60.125 52.5781 59.0469 51.5 57.9687 51.5H44.8156C37.0531 51.5 30.8 54.95 27.35 60.5563L21.5281 69.6125C21.0969 70.2594 21.0969 71.1219 21.5281 71.7687L27.9969 82.55C28.2125 82.9812 28.8594 83.4125 29.2906 83.6281C29.5062 83.6281 29.5062 83.6281 29.7219 83.6281C30.1531 83.6281 30.5844 83.4125 31.0156 83.1969C39.2094 77.8062 48.6969 75.0031 58.4 75.0031C65.5156 75.0031 71.9844 71.1219 75.4344 64.8688L81.2562 54.5187C81.6875 54.0875 81.6875 53.225 81.4719 52.5781Z" fill="white"/>
</g>
<defs>
<filter id="filter0_d_24_40" x="17.2047" y="19.1562" width="68.4088" height="72.4719" filterUnits="userSpaceOnUse" color-interpolation-filters="sRGB">
<feFlood flood-opacity="0" result="BackgroundImageFix"/>
<feColorMatrix in="SourceAlpha" type="matrix" values="0 0 0 0 0 0 0 0 0 0 0 0 0 0 0 0 0 0 127 0" result="hardAlpha"/>
<feOffset dy="4"/>
<feGaussianBlur stdDeviation="2"/>
<feComposite in2="hardAlpha" operator="out"/>
<feColorMatrix type="matrix" values="0 0 0 0 0 0 0 0 0 0 0 0 0 0 0 0 0 0 0.25 0"/>
<feBlend mode="normal" in2="BackgroundImageFix" result="effect1_dropShadow_24_40"/>
<feBlend mode="normal" in="SourceGraphic" in2="effect1_dropShadow_24_40" result="shape"/>
</filter>
</defs>
</svg>
