<svg width="17" height="15" viewBox="0 0 17 15" fill="none" xmlns="http://www.w3.org/2000/svg">
<path d="M8.5862 15C12.8712 15 16.3448 11.6421 16.3448 7.5C16.3448 3.35786 12.8712 0 8.5862 0C4.30124 0 0.827591 3.35786 0.827591 7.5C0.827591 11.6421 4.30124 15 8.5862 15Z" fill="#FFCC4D"/>
<path d="M7.72414 7.06589C7.54353 7.06589 7.37543 6.95548 7.31509 6.7809C7.22759 6.53132 6.87629 5.81591 6.43103 5.81591C5.97328 5.81591 5.61724 6.57715 5.54698 6.7809C5.47155 6.99881 5.22888 7.11756 5.00173 7.04422C4.77586 6.97173 4.65388 6.73548 4.72931 6.51715C4.78319 6.36007 5.29138 4.98218 6.43147 4.98218C7.57155 4.98218 8.07931 6.36007 8.13362 6.51715C8.20905 6.73548 8.08707 6.97173 7.86121 7.04422C7.81552 7.05922 7.7694 7.06589 7.72414 7.06589ZM12.0345 7.06589C11.8539 7.06589 11.6858 6.95548 11.6259 6.7809C11.5384 6.53132 11.1866 5.81591 10.7414 5.81591C10.2836 5.81591 9.92715 6.57715 9.85689 6.7809C9.78146 6.99881 9.53965 7.11756 9.31164 7.04422C9.08621 6.97173 8.96379 6.73548 9.03922 6.51715C9.0931 6.36007 9.60129 4.98218 10.7409 4.98218C11.8806 4.98218 12.3888 6.36007 12.4427 6.51715C12.5181 6.73548 12.3961 6.97173 12.1703 7.04422C12.1254 7.05922 12.0797 7.06589 12.0345 7.06589ZM12.6099 8.62128C12.5332 8.5542 12.4185 8.55003 12.3362 8.6092C12.3194 8.62128 10.6457 9.81751 8.58621 9.81751C6.5319 9.81751 4.85259 8.62128 4.83621 8.6092C4.75388 8.55003 4.63923 8.55503 4.5625 8.62128C4.48621 8.68794 4.46897 8.79794 4.52198 8.88294C4.57759 8.97252 5.90862 11.0675 8.58621 11.0675C11.2638 11.0675 12.5953 8.97252 12.6504 8.88294C12.7034 8.79753 12.6866 8.68836 12.6099 8.62128Z" fill="#664500"/>
<path d="M9.97803 1.64454C9.97803 1.74454 9.99096 1.8412 10.0134 1.93453C10.1966 3.03575 11.4634 4.19739 12.3711 4.51655C13.0888 4.26447 14.0289 3.48491 14.4823 2.62535C13.5819 1.60871 12.4052 0.827891 11.0647 0.391235C10.4474 0.498316 9.97803 1.01705 9.97803 1.64454ZM6.7513 12.1155C6.77587 12.0147 6.7901 11.9097 6.7901 11.8014C6.7901 11.0376 6.14958 10.4185 5.35949 10.4185C4.87975 10.4185 4.4569 10.6472 4.19699 10.9972C3.93751 10.6476 3.51423 10.4185 3.03449 10.4185C2.49957 10.4185 2.03837 10.7056 1.79311 11.126C2.57931 12.4989 3.79742 13.608 5.2707 14.2817C5.9763 13.7188 6.62027 12.9038 6.7513 12.1155ZM15.6125 10.6839C15.491 10.2881 15.116 9.99767 14.6668 9.99767C14.3345 9.99767 14.0414 10.156 13.8617 10.3985C13.6819 10.156 13.3888 9.99767 13.0565 9.99767C12.5091 9.99767 12.0655 10.4264 12.0655 10.9556C12.0655 11.0306 12.0754 11.1031 12.0923 11.1731C12.2246 11.9668 13.1043 12.7963 13.7772 13.0734C14.5427 12.4068 15.1698 11.5955 15.6125 10.6839Z" fill="#FFAC33"/>
<path d="M15.3211 1.36218C15.3211 0.657183 14.7297 0.0859375 14.0009 0.0859375C13.5582 0.0859375 13.1677 0.297186 12.928 0.6201C12.6884 0.297186 12.2978 0.0859375 11.8552 0.0859375C11.1259 0.0859375 10.5349 0.657183 10.5349 1.36218C10.5349 1.46218 10.5478 1.55884 10.5703 1.65218C10.7539 2.75342 12.0203 3.91508 12.928 4.23424C13.8358 3.91508 15.1022 2.75342 15.2853 1.65259C15.3082 1.55884 15.3211 1.46218 15.3211 1.36218ZM6.08966 11.8367C6.08966 11.0729 5.44915 10.4538 4.65906 10.4538C4.17932 10.4538 3.75647 10.6825 3.49656 11.0325C3.23708 10.6825 2.8138 10.4538 2.33406 10.4538C1.54397 10.4538 0.903458 11.0729 0.903458 11.8367C0.903458 11.945 0.917682 12.0496 0.94182 12.1509C1.14053 13.3438 2.51251 14.6025 3.49613 14.9483C4.47975 14.6029 5.85173 13.3442 6.05044 12.1513C6.07544 12.0496 6.08966 11.9446 6.08966 11.8367ZM16.3224 10.8863C16.3224 10.3571 15.8789 9.92837 15.3315 9.92837C14.9991 9.92837 14.706 10.0867 14.5263 10.3292C14.3466 10.0867 14.0535 9.92837 13.7211 9.92837C13.1737 9.92837 12.7302 10.3571 12.7302 10.8863C12.7302 10.9613 12.7401 11.0338 12.7569 11.1038C12.8944 11.93 13.8448 12.8021 14.5263 13.0413C15.2073 12.8021 16.1582 11.93 16.2953 11.1038C16.3125 11.0338 16.3224 10.9613 16.3224 10.8863Z" fill="#DD2E44"/>
</svg>
