<svg width="67" height="67" viewBox="0 0 67 67" fill="none" xmlns="http://www.w3.org/2000/svg">
<circle cx="33.5" cy="33.5" r="32.5" stroke="#F93684" stroke-width="2"/>
<path d="M49 34C47.7858 34 46.862 34.3008 46.1195 34.5417C46.0632 34.56 46.0152 34.5664 45.9605 34.5828C46.2937 34.1528 46.7547 33.7704 47.2235 33.4009C47.4388 33.2301 47.6447 33.0668 47.8267 32.9079C48.1899 32.59 48.2266 32.0372 47.9079 31.6732C47.5909 31.31 47.0372 31.2741 46.6732 31.592C46.5126 31.7321 46.3297 31.8765 46.1392 32.0269C45.781 32.3095 45.3772 32.6321 45.0035 33.0092C44.1203 30.7827 42.1795 29.6249 40.25 29.6249C39.7663 29.6249 39.375 30.0163 39.375 30.5C39.375 31.91 39.7127 33.0698 40.247 34.0003C39.3548 34.0007 38.5516 34.1591 37.8083 34.4067L38.4585 23.3516C39.4961 23.001 40.25 22.0294 40.25 20.875C40.25 19.4275 39.0725 18.25 37.625 18.25H26.6701L26.2457 13.7921C26.203 13.3426 25.8262 13 25.375 13H14.875C14.3914 13 14 13.3914 14 13.875C14 14.3587 14.3914 14.7501 14.875 14.7501H24.5795L24.9129 18.25H18.375C16.9274 18.25 15.75 19.4275 15.75 20.875C15.75 22.0294 16.5038 23.001 17.5415 23.3516L19.1825 51.2436C19.2389 52.2203 19.6516 53.1389 20.3437 53.8311C21.0974 54.5848 22.0998 55 23.1653 55H32.8347C33.9003 55 34.9025 54.5847 35.6562 53.8311C36.1959 53.2914 36.5589 52.6123 36.7224 51.8771C38.1607 53.7287 39.9643 55 42 55C43.0322 55 43.6184 54.6403 44.0457 54.378C44.3242 54.2071 44.4558 54.1319 44.5943 54.1242C44.7943 54.1319 44.9259 54.207 45.2044 54.378C45.6317 54.6403 46.2179 55 47.2501 55C52.3257 55 56 47.16 56 41.875C56 37.0172 53.3177 34 49 34ZM43.6591 34.6786C43.5965 34.664 43.5312 34.6461 43.467 34.6288C42.4035 34.2098 41.468 33.2148 41.202 31.5219C42.3403 31.8806 43.3632 32.9078 43.6591 34.6786ZM18.375 21.75C17.8922 21.75 17.4999 21.3578 17.4999 20.875C17.4999 20.3922 17.8921 20 18.375 20H25.8695C25.8712 20 25.8724 20.0008 25.874 20.0008C25.8794 20.0008 25.8853 20.0001 25.8908 20H37.625C38.1078 20 38.5 20.3922 38.5 20.875C38.5 21.3578 38.1078 21.75 37.625 21.75H18.375ZM35.071 51.1411C35.0385 51.6897 34.8069 52.2049 34.419 52.5937C33.996 53.0166 33.4329 53.2499 32.8347 53.2499H23.1653C22.5671 53.2499 22.004 53.0166 21.581 52.5937C21.1931 52.2049 20.9615 51.6896 20.929 51.1411L19.303 23.5H36.6971L36.0013 35.3336C34.2532 36.6617 33.25 38.9213 33.25 41.875C33.25 44.1891 33.9547 46.9928 35.1728 49.4141L35.071 51.1411ZM47.25 53.25C46.7116 53.25 46.463 53.0979 46.1195 52.8869C45.7657 52.6698 45.3257 52.3998 44.5942 52.3759C43.9243 52.3999 43.4842 52.6698 43.1304 52.8869C42.7869 53.0979 42.5383 53.25 42 53.25C38.136 53.25 35 46.367 35 41.875C35 37.9828 36.9132 35.75 40.25 35.75C41.1866 35.75 41.8992 35.9815 42.5887 36.2063C42.7641 36.2633 44.1191 36.625 44.625 36.625C45.3735 36.625 46.028 36.4122 46.6612 36.2063C47.3508 35.9815 48.0635 35.75 48.9999 35.75C52.3367 35.75 54.2499 37.9828 54.2499 41.875C54.25 46.367 51.1141 53.25 47.25 53.25Z" fill="#F93684"/>
<path d="M40.25 37.5C39.3844 37.5 36.75 37.5 36.75 41.875C36.75 42.3586 37.1414 42.75 37.625 42.75C38.1087 42.75 38.5001 42.3586 38.5001 41.875C38.5001 39.25 39.4707 39.25 40.25 39.25C40.7337 39.25 41.1251 38.8586 41.1251 38.3749C41.1251 37.8914 40.7337 37.5 40.25 37.5Z" fill="#F93684"/>
</svg>
