<svg width="67" height="67" viewBox="0 0 67 67" fill="none" xmlns="http://www.w3.org/2000/svg">
<circle cx="33.5" cy="33.5" r="32.5" stroke="#F93684" stroke-width="2"/>
<g clip-path="url(#clip0)">
<path d="M53.7449 26.1242C52.447 21.8129 52.4397 17.1848 53.2318 12.7759C53.7551 9.86305 54.5729 6.87269 55.881 4.21105C56.3559 3.25238 54.8897 2.50598 54.4149 3.46454C53.1176 6.08315 52.2929 9.02061 51.7293 11.8803C50.9788 15.6878 50.8056 19.6373 51.4493 23.4744C51.7509 25.2727 52.2488 27.0226 52.8976 28.7234C48.5231 30.184 43.8396 30.8681 39.2588 31.199C33.4794 31.6163 27.6337 31.3534 21.9228 30.3488C19.6288 29.9453 17.3299 29.4419 15.1198 28.6909C17.8955 21.3906 17.2794 13.2741 14.6471 6.02481C14.3328 5.15897 13.9987 4.29024 13.59 3.46465C13.1153 2.50653 11.6501 3.25204 12.1235 4.21083C13.5169 7.02519 14.3589 10.2229 14.8655 13.3138C15.6594 18.157 15.4137 23.1197 13.7193 27.7449C12.8469 30.1263 11.6435 32.3462 10.4067 34.5483C7.84794 39.1043 5.40248 43.4588 6.13744 51.7831C6.3235 53.8904 8.76228 53.7092 9.40574 56.3929C9.65502 57.4332 11.2501 57.0427 11 56C10.5497 54.122 8.17789 54.9581 7.9648 53.3947C7.10384 47.078 8.03613 43.1012 9.6074 39.6195C10.2797 39.6822 12.6185 39.9816 15.7835 41.2817C19.2478 42.7047 24.4414 45.6535 29.5108 51.6205C30.3632 52.6237 31.648 53.2413 33.1819 53.4026V69.1784C33.1819 70.2512 34.8227 70.2512 34.8227 69.1784V53.3947C36.2245 53.2225 37.5163 52.6147 38.4523 51.6657C44.7338 45.2968 49.9172 42.3558 53.1597 41.0101C55.8562 39.8909 57.6884 39.6616 58.3954 39.6154C59.7164 42.5411 60.5863 45.8158 60.3201 50.5347C60.191 52.8229 58.7414 51.9079 58 55C57.75 56.0427 58.7505 55.5403 59 54.5C59.9428 50.5676 61.9891 51.7623 61.9996 49C62.0246 42.4301 59.8555 38.5674 57.5981 34.5478C56.2022 32.0622 54.7585 29.4917 53.7449 26.1242ZM37.2921 50.4895C36.4813 51.3116 35.2823 51.7831 34.0024 51.7831C32.612 51.7831 31.4281 51.328 30.754 50.5347C25.4411 44.2809 19.9703 41.1941 16.3163 39.7057C13.6209 38.6078 11.5053 38.1912 10.3772 38.0346C11.7271 35.4197 13.3018 32.9319 14.4893 30.2311C18.8698 31.7608 23.6166 32.4528 28.2193 32.8189C34.2587 33.2992 40.3741 33.048 46.3468 32.0097C48.7687 31.5887 51.1984 31.0619 53.5295 30.264C54.7122 32.9464 56.2758 35.4193 57.6183 38.0169C54.8441 38.3673 47.359 40.2825 37.2921 50.4895Z" fill="#F93684"/>
<path d="M33.7286 27.3658C34.1818 27.3658 34.549 26.9934 34.549 26.534V23.6905C34.549 22.6177 32.9082 22.6177 32.9082 23.6905V26.534C32.9082 26.9935 33.2755 27.3658 33.7286 27.3658Z" fill="#F93684"/>
</g>
<defs>
<clipPath id="clip0">
<rect width="56" height="58" fill="white" transform="translate(6 8)"/>
</clipPath>
</defs>
</svg>
