<svg width="36" height="36" viewBox="0 0 36 36" fill="none" xmlns="http://www.w3.org/2000/svg">
<g clip-path="url(#clip0)">
<path d="M33.1114 23.6299C30.9073 23.6299 28.7432 23.2852 26.6924 22.6074C25.67 22.2588 24.5059 22.5293 23.8388 23.209L19.791 26.2647C15.0967 23.7589 12.205 20.8682 9.73341 16.2091L12.6992 12.2667C13.4697 11.4972 13.7461 10.3732 13.415 9.31847C12.7343 7.25691 12.3886 5.09381 12.3886 2.88881C12.3887 1.29591 11.0928 0 9.49997 0H2.88863C1.29591 0 0 1.29591 0 2.88863C0 21.1465 14.8536 36 33.1114 36C34.7042 36 36.0001 34.7041 36.0001 33.1113V26.5185C36 24.9258 34.7041 23.6299 33.1114 23.6299ZM34 33.1114C34 33.6016 33.6016 34 33.1114 34C15.9561 34 2.00006 20.0439 2.00006 2.88872C2.00006 2.3985 2.3985 2.00006 2.88872 2.00006H9.50006C9.99028 2.00006 10.3887 2.3985 10.3887 2.88872C10.3887 5.30766 10.7686 7.68169 11.5118 9.93075C11.6152 10.2628 11.5312 10.6065 11.1953 10.9562L7.75781 15.5088C7.52738 15.8144 7.49119 16.2236 7.66406 16.5644C10.4697 22.0791 13.8789 25.4883 19.4326 28.334C19.7705 28.5107 20.1846 28.4737 20.4912 28.2422L25.1484 24.7139C25.3838 24.4786 25.7363 24.3946 26.0547 24.503C28.3193 25.251 30.6934 25.6299 33.1114 25.6299C33.6016 25.6299 34 26.0284 34 26.5186V33.1114Z" fill="#1E0648"/>
</g>
<defs>
<clipPath id="clip0">
<rect width="36" height="36" fill="white"/>
</clipPath>
</defs>
</svg>
