<?xml version="1.0" encoding="utf-8"?><svg xmlns="http://www.w3.org/2000/svg" xmlns:xlink="http://www.w3.org/1999/xlink"><symbol viewBox="0 0 51 51" id="icons--delivery"><path d="M26.316 20.4a.864.864 0 00-.59.258l-4.485 4.471-2.762-2.754c-.773-.805-2.023.439-1.215 1.21l3.37 3.363a.86.86 0 001.216 0l5.092-5.078c.56-.544.148-1.47-.624-1.47h-.002zM.85 27.2h5.1c.47 0 .85.38.85.85s-.38.85-.85.85H.85c-.47 0-.85-.38-.85-.85s.38-.85.85-.85zm0-6.8h5.1c.47 0 .85.38.85.85s-.38.85-.85.85H.85c-.47 0-.85-.38-.85-.85s.38-.85.85-.85zm0-6.8h5.1c.47 0 .85.38.85.85s-.38.85-.85.85H.85c-.47 0-.85-.38-.85-.85s.38-.85.85-.85zm40.8 18.7a4.263 4.263 0 00-4.25 4.25 4.262 4.262 0 004.25 4.25 4.262 4.262 0 004.25-4.25 4.263 4.263 0 00-4.25-4.25zm0 1.7a2.538 2.538 0 012.55 2.55 2.538 2.538 0 01-2.55 2.55 2.538 2.538 0 01-2.55-2.55A2.538 2.538 0 0141.65 34zm-22.1-1.7a4.263 4.263 0 00-4.25 4.25 4.262 4.262 0 004.25 4.25 4.262 4.262 0 004.25-4.25 4.263 4.263 0 00-4.25-4.25zm0 1.7a2.538 2.538 0 012.55 2.55 2.538 2.538 0 01-2.55 2.55A2.538 2.538 0 0117 36.55 2.538 2.538 0 0119.55 34zm-8.5-23.8a2.564 2.564 0 00-2.55 2.55v18.7A2.564 2.564 0 0011.05 34h3.4c1.15.017 1.15-1.717 0-1.7h-3.4a.83.83 0 01-.85-.85v-18.7a.83.83 0 01.85-.85h22.1a.83.83 0 01.85.85V32.3h-9.35c-1.122 0-1.102 1.717 0 1.7h11.9c1.122 0 1.112-1.7 0-1.7h-.85V17h7.186L49.3 27.023v4.427a.83.83 0 01-.85.85h-1.7c-1.112 0-1.112 1.7 0 1.7h1.7A2.564 2.564 0 0051 31.45v-4.675a.859.859 0 00-.133-.459l-6.8-10.625a.851.851 0 00-.717-.391H35.7v-2.55a2.564 2.564 0 00-2.55-2.55h-22.1z"/></symbol><symbol viewBox="0 0 58 58" id="icons--disconto"><path d="M37.178 22.098l-17.516 13.92c-.348.29-.464.87-.116 1.218a.827.827 0 00.696.348c.174 0 .406-.058.522-.174L38.28 23.49c.348-.29.464-.87.116-1.218-.29-.406-.812-.464-1.218-.174zM24.36 28.304c.232 0 .464 0 .696-.058 2.378-.348 4.06-2.61 3.654-5.046a4.473 4.473 0 00-1.74-2.9 4.319 4.319 0 00-3.248-.812 4.473 4.473 0 00-2.9 1.74 4.319 4.319 0 00-.812 3.248c.348 2.262 2.262 3.828 4.35 3.828zm-.406-7.018c.116 0 .29-.058.406-.058 1.276 0 2.436.928 2.61 2.262a2.63 2.63 0 01-2.204 3.016 2.63 2.63 0 01-3.016-2.204c-.232-1.45.812-2.784 2.204-3.016zM33.64 31.204a4.406 4.406 0 00-4.408 4.408 4.406 4.406 0 004.408 4.408 4.406 4.406 0 004.408-4.408c-.058-2.436-2.03-4.408-4.408-4.408zm0 7.018c-1.45 0-2.668-1.218-2.668-2.668 0-1.45 1.218-2.668 2.668-2.668 1.45 0 2.668 1.218 2.668 2.668-.058 1.508-1.218 2.668-2.668 2.668z"/><path d="M55.332 29.174c0-.058.058-.174.058-.232 0-2.494-2.61-3.77-4.872-4.872-1.624-.812-3.364-1.682-3.828-2.726-.464-1.102.174-2.9.812-4.582.87-2.378 1.74-4.814.116-6.438-1.624-1.624-3.944-1.044-6.264-.522-1.624.348-3.306.754-4.408.29-1.102-.464-2.03-1.914-2.9-3.306-1.276-1.972-2.668-4.234-5.104-4.234s-3.828 2.262-5.046 4.292c-.87 1.45-1.74 2.9-2.842 3.364-1.102.464-2.842.058-4.466-.348-2.32-.58-4.698-1.16-6.264.406-1.624 1.624-.812 4.06-.058 6.438.58 1.74 1.102 3.48.638 4.64-.464 1.102-2.088 1.914-3.654 2.726-2.204 1.16-4.698 2.436-4.698 4.872 0 .058 0 .174.058.232 0 .058-.058.174-.058.232 0 2.436 2.494 3.77 4.698 4.872 1.566.812 3.19 1.624 3.654 2.726.464 1.102-.116 2.9-.638 4.64-.754 2.378-1.566 4.814.058 6.438 1.624 1.624 4.002.986 6.264.406 1.624-.406 3.364-.812 4.466-.348 1.102.464 1.972 1.914 2.842 3.364 1.218 2.03 2.61 4.292 5.046 4.292 2.436 0 3.886-2.262 5.104-4.234.87-1.392 1.798-2.842 2.9-3.306 1.16-.464 2.784-.116 4.408.29 2.262.522 4.64 1.102 6.264-.522 1.624-1.624.754-4.06-.116-6.438-.638-1.74-1.276-3.48-.812-4.582.464-1.102 2.146-1.914 3.828-2.726 2.262-1.16 4.872-2.436 4.872-4.872 0-.116-.058-.174-.058-.232zm-5.626 3.538c-1.914.986-3.944 1.972-4.64 3.654-.754 1.74.058 3.828.754 5.858.696 1.914 1.392 3.77.522 4.582-.928.928-2.726.522-4.64.058-1.914-.464-3.828-.87-5.51-.174-1.624.696-2.668 2.32-3.654 3.944-1.102 1.74-2.146 3.422-3.654 3.422-1.45 0-2.494-1.682-3.596-3.48-.986-1.682-2.03-3.364-3.654-4.06-1.682-.696-3.654-.232-5.568.29-1.914.464-3.712.928-4.64.058-.87-.87-.29-2.726.348-4.64.638-2.03 1.334-4.118.58-5.8-.696-1.682-2.61-2.668-4.466-3.596-1.914-.986-3.712-1.914-3.712-3.364 0-.058 0-.174-.058-.232 0-.058.058-.174.058-.232 0-1.392 1.798-2.32 3.712-3.364 1.856-.928 3.77-1.914 4.466-3.596.696-1.74.058-3.828-.58-5.8s-1.218-3.828-.348-4.64c.928-.928 2.726-.464 4.64.058 1.914.464 3.886.986 5.568.29 1.624-.696 2.668-2.378 3.654-4.06 1.102-1.798 2.088-3.48 3.596-3.48s2.552 1.682 3.654 3.422c1.044 1.624 2.088 3.248 3.654 3.944 1.682.696 3.596.232 5.51-.174 1.914-.464 3.712-.87 4.64.058.87.812.174 2.668-.522 4.582-.754 2.03-1.508 4.118-.754 5.858.696 1.682 2.726 2.668 4.64 3.654 2.03.986 3.886 1.972 3.886 3.364 0 .058 0 .174.058.232 0 .058-.058.174-.058.232.058 1.16-1.856 2.146-3.886 3.132z"/></symbol><symbol viewBox="0 0 63 63" id="icons--jacket"><path d="M37.64 8.202c6.42 1.117 9.941 8.582 9.941 8.582C59.73 39.026 54.44 51.37 54.44 51.37l-4.703.588c-2.35-1.078-6.27-21.753-6.27-21.753.784 17.834-1.47 21.459-1.47 21.459H31.352v-35.46c14.3-3.957 6.29-8.003 6.29-8.003zm-22.52 8.585C2.97 39.027 8.262 51.374 8.262 51.374l4.703.588c2.351-1.078 6.27-21.753 6.27-21.753-.784 17.834 1.47 21.459 1.47 21.459H31.35V16.206c-14.3-3.958-6.29-8.004-6.29-8.004-6.42 1.117-9.94 8.585-9.94 8.585z"/><path d="M54.44 51.374v3.037h-4.703v-2.45l4.702-.587zm-23.09.294v3.429h10.647v-3.43H31.35zm-10.646 0v3.429h10.647v-3.43H20.705zm-12.442-.294v3.037h4.703v-2.45l-4.703-.587zM37.64 8.202s8.011 4.046-6.29 8.004l6.29-8.004zm-12.58 0s-8.01 4.046 6.29 8l-6.29-8z"/><path d="M25.061 8.202c.033.02 4.108 2.606 6.29 2.606 2.188 0 6.29-2.606 6.29-2.606l-6.29 8.004-6.29-8.004z"/><path d="M25.06 8.202s-8.01 4.046 6.29 8.004l-6.29-8.004z" stroke="#790F00" stroke-width="1.633" stroke-miterlimit="10" stroke-linecap="round" stroke-linejoin="round"/><path d="M31.35 55.097H20.705v-3.43s-2.253-3.624-1.47-21.458c0 0-3.918 20.675-6.27 21.753v2.45H8.263v-3.038S2.972 39.03 15.12 16.787c0 0 3.52-7.465 9.94-8.582.034.02 4.11 2.606 6.29 2.606 2.189 0 6.29-2.606 6.29-2.606 6.42 1.117 9.941 8.582 9.941 8.582C59.73 39.03 54.44 51.374 54.44 51.374v3.037h-4.703v-2.45c-2.35-1.077-6.27-21.752-6.27-21.752.784 17.834-1.47 21.459-1.47 21.459v3.429H31.352zM31.35 55.097v-3.429M31.35 51.668V16.206M8.262 51.374l4.703.588M20.705 51.668H31.35" stroke="#790F00" stroke-width="1.633" stroke-miterlimit="10" stroke-linecap="round" stroke-linejoin="round"/><path d="M31.35 16.206l6.29-8.004s8.011 4.046-6.29 8.004zM54.44 51.374l-4.703.588M41.997 51.668H31.35" stroke="#790F00" stroke-width="1.633" stroke-miterlimit="10" stroke-linecap="round" stroke-linejoin="round"/></symbol><symbol viewBox="0 0 57 57" id="icons--quality"><path d="M19.448 28.355l-1.182 8.528a1.753 1.753 0 002.501 1.817l7.72-3.76 7.747 3.761a1.753 1.753 0 002.5-1.818l-1.19-8.505 5.97-6.204a1.752 1.752 0 00-.955-2.94l-8.457-1.496-4.056-7.595a1.751 1.751 0 00-3.092 0l-4.036 7.58-8.477 1.51a1.752 1.752 0 00-.955 2.941l5.962 6.18zm3.785-8.879a1.745 1.745 0 001.236-.9l4.005-7.596.786-.418-.785.42 4.056 7.594a1.744 1.744 0 001.238.9l8.461 1.463-5.968 6.204a1.742 1.742 0 00-.474 1.457l1.223 8.498-7.745-3.76a1.74 1.74 0 00-1.531 0l-7.705 3.79 1.184-8.53a1.743 1.743 0 00-.474-1.455l-5.985-6.156 8.478-1.51z"/><path d="M50.142 29.211c.412-1.69.621-3.424.624-5.164a22.266 22.266 0 10-44.532 0 21.92 21.92 0 00.624 5.164 9.777 9.777 0 0010.064 16.42v8.697a.89.89 0 001.037.879L28.5 53.45l10.541 1.757a.891.891 0 001.037-.879V45.63a9.778 9.778 0 0010.064-16.419zM28.5 3.563a20.507 20.507 0 0120.484 20.484c.002 1.773-.23 3.539-.691 5.251a20.559 20.559 0 01-9.55 12.485h-.002l-.007.005c-.434.257-.892.487-1.282.678a20.437 20.437 0 01-17.902.001 20.178 20.178 0 01-2.994-1.784 20.557 20.557 0 01-7.85-11.39 20.107 20.107 0 01-.69-5.246A20.507 20.507 0 0128.5 3.562zM13.36 44.53a8.014 8.014 0 01-5.956-13.38c.019.056.044.108.063.163.188.546.393 1.086.624 1.615l.062.133c.234.527.488 1.043.762 1.55.024.044.046.09.071.135.28.507.582 1.002.9 1.486l.147.225c.317.47.652.929 1.004 1.374l.172.215c.363.448.74.884 1.137 1.304l.13.133a22.259 22.259 0 002.716 2.4c.057.043.113.088.171.13.462.338.936.657 1.425.958.046.028.088.062.134.09v.635a8.03 8.03 0 01-3.563.834zm5.343-.303v-.193l.063.032a21.942 21.942 0 008.843 2.22v5.505l-8.906 1.485v-9.049zm19.594 9.049l-8.906-1.485v-5.504a21.94 21.94 0 008.844-2.222l.062-.03v9.24zm5.344-8.746a8.029 8.029 0 01-3.563-.835v-.634c.044-.027.084-.059.128-.086a22.92 22.92 0 001.426-.958l.184-.14c.48-.36.948-.733 1.396-1.13l.008-.006c.45-.398.88-.817 1.296-1.25.047-.048.095-.095.142-.145.394-.417.77-.851 1.13-1.297l.176-.218a22.71 22.71 0 001.005-1.377c.048-.07.094-.143.14-.214.322-.49.628-.989.91-1.502l.055-.105c.284-.523.546-1.058.788-1.603l.041-.09c.236-.54.446-1.09.639-1.65.016-.047.038-.092.054-.14a8.015 8.015 0 01-5.955 13.38z"/></symbol></svg>