<svg xmlns="http://www.w3.org/2000/svg" viewBox="0 0 612 612" width="612" height="612"><path d="M387.13 170.75L306 251.9l-81.13-81.16-54.12 54.12L251.9 306l-81.12 81.13 54.08 54.08L306 360.1l81.13 81.12 54.08-54.08L360.1 306l81.12-81.13-54.08-54.12zm135.25-81.13c-119.5-119.5-313.27-119.5-432.76 0-119.5 119.5-119.5 313.27 0 432.76 119.5 119.5 313.27 119.5 432.76 0 119.5-119.5 119.5-313.27 0-432.76zM468.3 468.3c-89.63 89.61-234.94 89.61-324.56 0-89.62-89.63-89.62-234.94 0-324.56s234.94-89.62 324.56 0c89.61 89.62 89.61 234.9 0 324.56z"/></svg>