<svg width="160" height="160" xmlns="http://www.w3.org/2000/svg"><path d="M15.881 87.852v6.943H7.398v7.807h8.173v6.943H7.398v16.422H0V87.852h15.881m10.9 24.487h4.193l-2.056-17.961-2.137 17.96zm-9.63 13.628l6.595-38.115h10.316l6.594 38.115h-7.94l-.87-6.683h-5.883l-.87 6.683h-7.941zm45.104-9.884c0 3.701-.714 6.273-2.144 7.718-1.429 1.443-3.997 2.166-7.703 2.166-3.724 0-6.295-.718-7.715-2.153-1.42-1.436-2.131-4.013-2.131-7.731V96.468c0-3.735.71-6.318 2.131-7.745 1.42-1.426 3.991-2.142 7.715-2.142 3.706 0 6.274.725 7.703 2.167 1.43 1.446 2.144 4.019 2.144 7.72v4.254h-7.51v-4.098c0-1.21-.184-2.08-.557-2.608-.373-.528-.984-.791-1.833-.791-.812 0-1.397.254-1.753.765-.354.51-.531 1.355-.531 2.53v19.51c0 1.212.168 2.062.504 2.556.34.493.932.74 1.78.74.867 0 1.482-.273 1.846-.818.363-.545.544-1.482.544-2.815v-4.463h7.51v4.853m20.963-28.231v6.943h-8.499v7.807h8.163v6.943h-8.163v9.477h8.499v6.945H67.337V87.852h15.88M9.94 159a515.667 515.667 0 01-2.816-10.927 482.585 482.585 0 01-2.508-10.71L4.76 159H0v-26.68h7.159a717.295 717.295 0 012.934 11.493c.89 3.618 1.68 6.999 2.372 10.145l-.146-21.639h4.833V159H9.939m14.988-9.54h2.835l-1.39-12.573-1.445 12.574zM18.422 159l4.455-26.68h6.971L34.304 159h-5.367l-.587-4.677h-3.974l-.59 4.677h-5.364zm19.888 0v-21.747h-4.006v-4.934h13.34v4.934h-3.969V159H38.31m11.875 0h5.082v-26.68h-5.082V159zm14.834-20.353v13.39c0 .815.13 1.411.388 1.789.26.379.671.569 1.239.569.665 0 1.128-.175 1.387-.522.258-.35.388-1.038.388-2.071v-13.118c0-.925-.126-1.554-.38-1.89-.253-.335-.694-.504-1.32-.504-.604 0-1.04.184-1.304.55-.266.366-.398.968-.398 1.807zm8.67 13.496c0 2.594-.506 4.384-1.517 5.373-1.009.99-2.828 1.484-5.452 1.484-2.649 0-4.48-.497-5.489-1.492-1.011-.997-1.517-2.783-1.517-5.365v-13.604c0-2.59.506-4.38 1.517-5.371 1.01-.989 2.84-1.484 5.49-1.484 2.623 0 4.442.495 5.451 1.484 1.011.99 1.517 2.78 1.517 5.371v13.604zM86.804 159a531.978 531.978 0 01-2.816-10.927 490.032 490.032 0 01-2.508-10.71L81.626 159h-4.76v-26.68h7.158a717.075 717.075 0 012.934 11.493c.89 3.618 1.681 6.999 2.371 10.145l-.144-21.639h4.832V159h-7.213m4.103-59.714V91.52H89.57v-1.762h4.447v1.762h-1.322v7.766h-1.788m-1.972 12.07v-8.893h1.873v3.57h1.33v-3.57h1.88v8.893h-1.88v-3.703h-1.33v3.703h-1.873m4.447 3.176v1.62h-2.04v1.82h1.96v1.622h-1.96v2.212h2.04v1.62H89.57v-8.894h3.812" fill="#F2F2F2" fill-rule="evenodd"/></svg>