<svg width="160" height="160" xmlns="http://www.w3.org/2000/svg"><path d="M37.271 135.83c-1.51 1.19-4.812 1.53-10.072 1.53l-8.953.002c-5.26.001-8.562-.508-9.457-.79-2.798-.906-3.358-2.548-3.358-6.17 0-3.68.222-6.058 1.901-7.416 1.51-1.19 4.812-1.53 10.072-1.53l8.953-.002c5.26 0 8.562.509 9.457.792 2.798.905 3.358 2.49 3.359 6.17 0 3.735-.223 6.056-1.902 7.415zm-5.822-18.848l-16.172.002c-5.651 0-8.505.794-9.96 5.153v-9.454c-.002-5.944 1.845-8.152 9.679-8.153l12.366-.002c8.45 0 11.528.735 11.528 6.226 0 .453 0 .905-.055 1.415h4.924v-3.454c0-3.227-1.624-5.83-4.646-7.245-2.686-1.302-7.051-1.47-13.206-1.47l-11.08.002C4.811 100.003 0 103.4 0 111.269l.002 15.85c.001 5.83.058 9.68 3.527 12.283 3.414 2.547 7.779 2.773 13.71 2.773l10.688-.003c5.82 0 9.905-.68 12.422-2.378 3.581-2.435 3.973-5.549 3.972-10.983-.001-8.661-2.8-11.83-12.872-11.83zm57.359 17.766c-1.567 2.321-4.196 3.001-8.45 3.002l-16.563.002c-4.197 0-6.882-.678-8.45-2.999-1.343-1.98-1.4-4.585-1.4-8.038v-.793l-.001-9.453v-.793c0-3.453.055-6.057 1.398-8.038 1.566-2.321 4.196-3.058 8.449-3.058l16.563-.003c4.252 0 6.938.735 8.45 3.056 1.4 2.15 1.4 4.925 1.4 8.83l.002 9.454v.793c0 3.51-.056 6.057-1.398 8.038zm6.377-19.304c-.001-6.057-1.121-10.076-3.696-12.397-2.798-2.547-7.051-2.886-13.262-2.885l-12.255.002c-6.211.001-10.408.341-13.26 2.89-2.8 2.49-3.693 6.623-3.693 12.906l.002 11.209c0 5.83.953 9.68 3.751 12.113 2.91 2.547 7.107 2.886 13.262 2.885l11.751-.001c6.435-.002 10.8-.285 13.71-2.89 2.63-2.377 3.692-6.34 3.69-12.397v-11.435zm-86.25 41.738l6.631-9.705.079-.042h2.153l.002 11.486h-1.542l-.002-9.733-6.69 9.693-.078.041H8.443l-.078-.04-6.693-9.692.001 9.733H.131L.13 147.437H2.22l.079.042 6.635 9.703zm13.01-9.748l.002 11.486h-1.573l-.002-11.485h1.573zm14.923-.001h1.572l.002 11.485h-2.123l-.067-.027-10.083-10 .001 10.029h-1.573l-.001-11.486h2.276l.067.027 9.93 9.844-.001-9.872zm17.146-.003v7.335c.001 1.735-.317 2.816-1.06 3.474-.722.645-1.673.818-3.78.818h-3.409c-2.076 0-3.03-.172-3.779-.815-.773-.66-1.078-1.681-1.078-3.397l-.001-7.413h1.619V154.843c.001 1.089.066 1.518.369 1.952.382.566 1.042.781 2.27.781h4.593c1.228 0 1.888-.216 2.272-.784.301-.433.366-.863.366-1.95v-7.413h1.618zm1.468 1.45v-1.45l12.631-.002v1.449h-5.529l.002 10.038h-1.573l-.002-10.037-5.529.001zm25.396 8.583v1.45H69.691l-.002-11.485 11.187-.002v1.449l-9.645.002v3.352l9.247-.002v1.45h-9.246v3.787h9.646zm10.163-5.176c1.671 0 2.493.105 3.091.465.827.5 1.106 1.285 1.106 2.831 0 2.603-1.218 3.467-4.702 3.468h-3.794c-3.017 0-4.258-.862-4.258-3.062 0-.2 0-.225.03-.846v-.013l.005-.091h1.528l-.006.1-.02.386c-.007.125-.01.208-.01.277 0 1.391.77 1.8 3.176 1.8h2.918c2.869-.001 3.56-.375 3.56-2.097 0-1.432-.501-1.769-2.363-1.768h-4.715c-3 .001-4.134-.85-4.134-3.202 0-2.467 1.286-3.25 4.901-3.25h2.535c2.589 0 3.545.13 4.271.738.546.473.785 1.207.785 2.308v.422h-1.527v-.266c0-1.483-.507-1.8-2.669-1.8H86.94c-2.231.001-2.854.378-2.854 1.786.001 1.474.624 1.816 2.947 1.815h4.008z" fill="#F2F2F2" fill-rule="evenodd"/></svg>