<svg width="28" height="28" viewBox="0 0 28 28" fill="none" xmlns="http://www.w3.org/2000/svg">
<g clip-path="url(#clip0_4:52)">
<path d="M14 28C21.732 28 28 21.732 28 14C28 6.26802 21.732 0 14 0C6.26802 0 0 6.26802 0 14C0 21.732 6.26802 28 14 28Z" fill="#1F84CE"/>
<path d="M14 24.5267C19.8138 24.5267 24.5267 19.8138 24.5267 14C24.5267 8.18633 19.8138 3.47339 14 3.47339C8.18633 3.47339 3.47339 8.18633 3.47339 14C3.47339 19.8138 8.18633 24.5267 14 24.5267Z" fill="white"/>
<path opacity="0.15" d="M11.956 20.3789C11.4171 20.3789 10.8782 20.1734 10.467 19.7622L7.66395 16.9592C6.84155 16.1367 6.84155 14.8034 7.66395 13.981C8.48625 13.1587 9.81966 13.1586 10.642 13.981L11.9559 15.295L17.3582 9.89269C18.1805 9.07029 19.5139 9.07034 20.3362 9.89269C21.1586 10.7151 21.1586 12.0484 20.3362 12.8708L13.4449 19.7622C13.0338 20.1734 12.4949 20.3789 11.956 20.3789Z" fill="#145587"/>
<path d="M11.956 19.259C11.4171 19.259 10.8782 19.0534 10.467 18.6422L7.66395 15.8392C6.84155 15.0168 6.84155 13.6835 7.66395 12.8611C8.48625 12.0388 9.81966 12.0387 10.642 12.8611L11.9559 14.1751L17.3582 8.77273C18.1805 7.95032 19.5139 7.95038 20.3362 8.77273C21.1586 9.59513 21.1586 10.9284 20.3362 11.7508L13.4449 18.6422C13.0338 19.0534 12.4949 19.259 11.956 19.259Z" fill="#FB7686"/>
<path opacity="0.15" d="M14.0003 3.47382C8.18666 3.47382 3.47388 8.1866 3.47388 14.0002C3.47388 14.2582 3.48361 14.5139 3.50188 14.7673C3.89481 9.31192 8.44473 5.00794 14.0004 5.00794C19.556 5.00794 24.1058 9.31192 24.4988 14.7673C24.5171 14.5139 24.5268 14.2582 24.5268 14.0002C24.5266 8.18665 19.8139 3.47382 14.0003 3.47382Z" fill="#145587"/>
</g>
<defs>
<clipPath id="clip0_4:52">
<rect width="28" height="28" fill="white"/>
</clipPath>
</defs>
</svg>
