<svg width="23" height="23" viewBox="0 0 23 23" fill="none" xmlns="http://www.w3.org/2000/svg">
<path d="M10.6148 15.0849C10.5294 15.4308 10.4531 15.7363 10.3767 16.0418C10.2914 16.3922 10.2105 16.7426 10.1296 17.093C10.0308 17.5197 9.95445 17.951 9.82867 18.3642C9.64898 18.9527 9.46929 19.5412 9.22671 20.1027C9.0021 20.6193 8.70562 21.109 8.42261 21.5986C8.18902 21.9984 7.92398 22.3847 7.66343 22.7711C7.623 22.8295 7.5107 22.8879 7.46128 22.8699C7.39839 22.8474 7.32652 22.7486 7.31753 22.6767C7.14683 21.3156 7.05698 19.9455 7.23667 18.5799C7.30855 18.0273 7.45679 17.4883 7.56909 16.9402C7.64097 16.5808 7.71284 16.217 7.78921 15.8531C7.88355 15.4084 7.98238 14.9592 8.0812 14.5144C8.22495 13.8586 8.3732 13.2072 8.52144 12.5513C8.64273 12.0258 8.75952 11.4957 8.8898 10.9701C8.95269 10.7185 8.82241 10.5119 8.76402 10.2873C8.57085 9.51463 8.44956 8.74647 8.59331 7.94236C8.69663 7.36287 8.84937 6.81033 9.1773 6.32068C9.60406 5.68279 10.1791 5.26502 10.9921 5.30994C11.6884 5.35037 12.1736 5.80408 12.3533 6.44647C12.5554 7.15623 12.4656 7.866 12.2814 8.56678C12.0837 9.33045 11.8726 10.0851 11.6794 10.8488C11.5582 11.325 11.383 11.8012 11.356 12.2863C11.3156 13.0096 11.5986 13.643 12.232 14.0517C12.7351 14.3752 13.2697 14.4381 13.8626 14.2943C14.6488 14.1012 15.1923 13.6115 15.6505 12.9916C16.1941 12.2594 16.4996 11.4283 16.7377 10.5523C17.0296 9.46522 17.1419 8.36912 17.1195 7.25057C17.1015 6.21736 16.8275 5.26053 16.2435 4.40701C15.8033 3.76912 15.2238 3.29295 14.505 2.9785C14.0468 2.77635 13.5931 2.60115 13.09 2.57869C12.5464 2.55623 11.9984 2.4619 11.4638 2.5158C9.85113 2.691 8.51695 3.40076 7.5107 4.69451C7.11089 5.21111 6.79195 5.77264 6.58081 6.37908C6.25738 7.31346 6.11362 8.28377 6.20796 9.27654C6.27534 9.97283 6.47749 10.6422 6.9357 11.1812C7.25015 11.5496 7.19175 11.909 7.08394 12.3043C7.02554 12.5109 6.97163 12.7176 6.92671 12.9287C6.85034 13.306 6.63921 13.4992 6.20347 13.2881C5.33198 12.8658 4.77945 12.1695 4.39312 11.307C3.85405 10.0986 3.75972 8.82283 3.8855 7.53807C4.03374 6.0826 4.59527 4.76639 5.45777 3.58494C6.08218 2.73143 6.85933 2.03963 7.76675 1.49608C8.47652 1.06932 9.2312 0.768341 10.0308 0.5617C11.0685 0.292169 12.1197 0.21131 13.1753 0.296661C13.966 0.359552 14.7296 0.548224 15.4709 0.853693C16.7511 1.38377 17.7978 2.19686 18.6154 3.30643C19.1005 3.96678 19.4734 4.69002 19.716 5.48065C19.8597 5.94783 19.981 6.41502 19.9945 6.90467C20.0125 7.45721 20.0753 8.00975 20.0439 8.5533C20.0125 9.13279 19.8957 9.71229 19.8058 10.2873C19.6576 11.2396 19.3386 12.1381 18.9119 12.9961C18.5435 13.7328 18.0808 14.4021 17.4834 14.9816C16.8814 15.5656 16.1896 16.0013 15.399 16.2888C14.6488 16.5629 13.8806 16.6617 13.099 16.5674C12.1691 16.4506 11.383 16.0328 10.7945 15.2781C10.7541 15.2332 10.6912 15.1703 10.6148 15.0849Z" fill="black"/>
</svg>
