<svg width="160" height="160" xmlns="http://www.w3.org/2000/svg"><path d="M43.85 74.234h-4.535v3.616h4.536c1.227 0 1.959-.666 1.959-1.807 0-1.143-.732-1.809-1.96-1.809zm-35.336.617a4.652 4.652 0 01.91.092 5.444 5.444 0 01.642.184 4.042 4.042 0 01.407.172 5.6 5.6 0 01.194.1 5.832 5.832 0 01.372.23 4.739 4.739 0 01.347.26 4.3 4.3 0 01.471.452 4.916 4.916 0 01.402.515 4.771 4.771 0 01.416.773 4.084 4.084 0 01.152.418c.023.071.042.143.06.216a5.125 5.125 0 01.09.444 5.247 5.247 0 01.053.692 4.583 4.583 0 01-.051.692c-.012.077-.026.151-.04.224a4.251 4.251 0 01-.263.854c-.029.069-.06.135-.091.202a4.232 4.232 0 01-.326.571 5.24 5.24 0 01-.26.35 3.294 3.294 0 01-.142.165 3.946 3.946 0 01-.307.308 5.554 5.554 0 01-.511.405 4.344 4.344 0 01-.972.5 4.068 4.068 0 01-.424.132 5.438 5.438 0 01-.218.053 5.288 5.288 0 01-.45.069 3.977 3.977 0 01-.46.023 4.213 4.213 0 01-.688-.052 5.41 5.41 0 01-.223-.04 5.42 5.42 0 01-.433-.112 4.752 4.752 0 01-.809-.345 4.166 4.166 0 01-.55-.355 4.828 4.828 0 01-.49-.428 3.88 3.88 0 01-.292-.323 5.838 5.838 0 01-.26-.35 4.527 4.527 0 01-.498-.98 3.905 3.905 0 01-.181-.647 3.234 3.234 0 01-.04-.223A4.197 4.197 0 014 79.4a4.319 4.319 0 01.024-.466c.007-.076.017-.152.028-.227a4.196 4.196 0 01.15-.66l.071-.212a4.685 4.685 0 01.172-.408c.033-.066.065-.131.1-.196a5.11 5.11 0 01.226-.375 4.508 4.508 0 01.551-.673 4.505 4.505 0 011.641-1.056 4.697 4.697 0 01.424-.133c.073-.018.144-.036.218-.05a5.41 5.41 0 01.448-.069 4.213 4.213 0 01.462-.024zm0-.394a8.597 8.597 0 00-1.589.143 10.066 10.066 0 00-.61.134c-.101.026-.2.054-.3.082a8.94 8.94 0 00-1.152.432c-.093.041-.184.086-.276.13-.09.046-.181.094-.27.142a12.758 12.758 0 00-.524.308 8.037 8.037 0 00-.5.344 7.685 7.685 0 00-.476.376c-.076.065-.152.13-.228.198a10.154 10.154 0 00-.433.423 8.071 8.071 0 00-.405.45c-.066.077-.129.156-.192.235a8.835 8.835 0 00-.525.745 9.958 9.958 0 00-.307.527c-.048.09-.096.18-.14.272a9.36 9.36 0 00.29.538c.05.088.104.175.157.26a8.72 8.72 0 001.122 1.431 9.352 9.352 0 00.66.622 8.923 8.923 0 002.904 1.638 10.402 10.402 0 00.595.176 9.925 9.925 0 00.61.133 8.23 8.23 0 00.945.12 7.9 7.9 0 00.644.024 10.768 10.768 0 00.646-.024 7.559 7.559 0 00.632-.068 7.944 7.944 0 00.618-.113c.103-.022.204-.047.305-.072a10.001 10.001 0 00.884-.28 9.15 9.15 0 00.843-.366 10.295 10.295 0 00.535-.291 10.223 10.223 0 00.512-.325 9.693 9.693 0 00.723-.552 12.163 12.163 0 00.448-.407 10.202 10.202 0 00.42-.437 9.641 9.641 0 00.573-.705 8.028 8.028 0 00.341-.504c.054-.085.107-.172.158-.26a7.465 7.465 0 00.29-.538 8.162 8.162 0 00-.448-.8 6.525 6.525 0 00-.167-.253 6.926 6.926 0 00-.358-.491 9.662 9.662 0 00-.595-.685 8.788 8.788 0 00-1.897-1.499c-.087-.05-.176-.101-.265-.15-.09-.048-.18-.096-.27-.141-.092-.045-.183-.09-.276-.131a10.676 10.676 0 00-.567-.236 9.4 9.4 0 00-1.189-.35 9.212 9.212 0 00-1.25-.183 8.802 8.802 0 00-.646-.022zm36.234 6.415h-5.433v3.688h5.433c1.25 0 2.007-.715 2.007-1.833 0-1.141-.757-1.855-2.007-1.855zm.14-9.802c2.836 0 4.702 1.998 4.702 4.52 0 1.689-.85 2.88-2.032 3.545 1.701.523 2.976 1.903 2.976 4.092 0 2.696-2.04 4.446-4.588 4.496H35.534V71.07h9.355zm-36.374-.245a7.838 7.838 0 01.871.043 8.863 8.863 0 01.846.13 9.412 9.412 0 011.21.346 8.577 8.577 0 011.834.944 8.117 8.117 0 01.656.494 9.623 9.623 0 01.604.554 9.732 9.732 0 01.55.609 8.08 8.08 0 01.49.66c.077.114.15.23.22.348a7.706 7.706 0 01.394.729 8.67 8.67 0 01.84 3.717c0 .149-.004.296-.012.442a8.509 8.509 0 01-.257 1.701 7.178 7.178 0 01-.115.407 7.614 7.614 0 01-.286.788 8.473 8.473 0 01-1.542 2.428 8.638 8.638 0 01-1.888 1.568 8.796 8.796 0 01-.724.397 8.011 8.011 0 01-.764.325 9.557 9.557 0 01-.799.25 9.366 9.366 0 01-.83.171 8.863 8.863 0 01-.86.087 9.006 9.006 0 01-1.308-.032 8.863 8.863 0 01-.846-.13 9.025 9.025 0 01-.816-.212 9.091 9.091 0 01-.395-.134 9.51 9.51 0 01-.764-.325 9.19 9.19 0 01-.723-.397 9.396 9.396 0 01-.68-.462 8.592 8.592 0 01-2.75-3.534 7.98 7.98 0 01-.287-.788 8.511 8.511 0 01-.372-2.99 8.563 8.563 0 01.162-1.287 8.838 8.838 0 01.496-1.61 8.688 8.688 0 011.022-1.793 9.292 9.292 0 01.803-.933c.096-.097.195-.192.296-.283a8.273 8.273 0 011.666-1.194 7.96 7.96 0 01.745-.36 8.227 8.227 0 011.186-.404 9.025 9.025 0 01.83-.172 8.863 8.863 0 01.859-.087 7.85 7.85 0 01.438-.011zm18.112-.064c3.465 0 6.152 1.683 7.361 4.165l.056.117-3.166 1.832c-.661-1.546-2.195-2.546-4.203-2.546-3.072 0-4.796 2.236-4.796 5.067 0 2.832 1.795 5.068 4.866 5.068 1.989 0 3.526-.958 4.209-2.45l.042-.095 3.166 1.808c-1.182 2.545-3.92 4.306-7.465 4.306-5.29 0-8.646-3.879-8.646-8.637 0-4.781 3.284-8.635 8.576-8.635zm31.732 0c3.743 0 6.113 1.614 7.132 3.706l.048.1-3.071 1.617c-.519-1.33-1.984-2.07-4.18-2.07-2.387 0-3.26.81-3.26 1.88 0 .952.78 1.262 3.968 1.69l.345.048c3.492.488 6.812 1.097 6.812 4.805 0 3.64-3.212 5.496-7.582 5.496-2.858 0-5.356-.68-7.472-2.194l-.158-.115 1.7-3.164c1.631 1.452 3.638 2.07 6.167 2.07 2.243 0 3.59-.666 3.59-1.926 0-.905-.733-1.118-4.275-1.619l-.227-.034c-3.393-.511-6.647-1.07-6.647-4.747 0-3.425 2.904-5.543 7.11-5.543zm8.312 37.03h3.78V91.138h-3.78v16.653zM14.215 91.138v3.522h-9.45v3.021h6.025v3.52H4.766v3.07h9.685v3.521H.987V91.138h13.228zm4.846 0l4.7 12.133 4.702-12.133h4.063v.215l-6.78 16.44h-3.993L15 91.352v-.215h4.062zm32.959 0l8.267 10.35v-10.35h3.78v16.654H60.76l-8.267-10.35v10.35h-3.78V91.138h3.307zm24.288 0l8.268 10.35v-10.35h3.78v16.654h-3.307l-8.267-10.35v10.35h-3.78V91.138h3.306zm-29.56 0v3.522H37.3v3.021h6.025v3.52H37.3v3.07h9.685v3.521H33.521V91.138h13.227zm52.194-.309c3.465 0 6.129 1.637 7.383 4.161l.059.121-3.238 1.69c-.637-1.38-1.96-2.45-4.156-2.45-3.142 0-5.032 2.14-5.032 5.162 0 2.926 1.795 5.163 5.457 5.163 1.387 0 2.577-.332 3.655-1.079l.123-.088v-1.998h-3.967v-3.116h7.44v6.661c-1.772 1.95-4.275 3.045-7.346 3.045-5.858 0-9.189-3.925-9.189-8.588 0-4.759 3.401-8.684 8.811-8.684zM36.52 111.207l3.166 10.967 3.567-10.49h2.763l3.544 10.49 3.166-10.967h3.944v.214l-5.291 16.44h-3.284l-3.472-10.23-3.448 10.23h-3.308l-5.291-16.44v-.214h3.944zm-32.226 0l8.268 10.35v-10.35h3.78v16.654h-3.308l-8.268-10.35v10.35H.986v-16.654h3.308zm27.452 0v3.521h-9.448v3.021h6.023v3.52h-6.023v3.07h9.684v3.522H18.518v-16.654h13.228zm31.946-.31c3.744 0 6.114 1.614 7.133 3.707l.047.1-3.07 1.618c-.52-1.332-1.984-2.07-4.18-2.07-2.386 0-3.26.81-3.26 1.88 0 .952.78 1.26 3.968 1.689 3.614.499 7.157 1.023 7.157 4.853 0 3.64-3.213 5.495-7.583 5.495-2.857 0-5.356-.679-7.471-2.192l-.158-.115 1.7-3.164c1.63 1.451 3.639 2.07 6.165 2.07 2.245 0 3.59-.666 3.59-1.928 0-.903-.731-1.118-4.274-1.617-3.474-.523-6.874-1.022-6.874-4.782 0-3.426 2.904-5.543 7.11-5.543zm-13.305 25.777c.779 0 1.352.475 1.352 1.233 0 .75-.537 1.217-1.278 1.247l-.074.001H47.84v-2.48h2.546zm9.502.355l1.418 3.544h-2.835l1.417-3.544zm-42.19.207h-.995v4.396h.995v-1.795h1.993v1.795h.996v-4.396h-.996v1.67h-1.993v-1.67zm-6.591 4.396h.996v-4.396h-.996v4.396zm-5.604-4.396H4.466v.056l1.394 4.34h.87l.91-2.7.914 2.7h.866l1.394-4.34v-.056h-1.04l-.833 2.896-.934-2.77h-.728l-.94 2.77-.835-2.896zm10.892 0h-3.983v.929h1.493v3.467h.995v-3.467h1.495v-.93zm23.295-.562c1.742 0 2.834 1.224 2.834 2.834 0 1.6-1.092 2.836-2.834 2.836-1.758 0-2.836-1.236-2.836-2.836 0-1.61 1.078-2.834 2.836-2.834zm-12.568-1.898h-1.847v9.317h2.11v-5.79l4.616 5.79h1.847v-9.317h-2.11v5.788l-4.616-5.788zm23.533 0H45.71v9.317h2.11v-3.155h2.282l2.083 3.155h2.23v-.107l-2.27-3.354c1.057-.48 1.742-1.478 1.742-2.768 0-1.837-1.398-3.088-3.23-3.088zm10.222 0h-2.203l-3.97 9.196v.12h2.27l.658-1.623h4.3l.66 1.624h2.268v-.12l-3.983-9.197zm6.616 0h-2.11v9.317h2.11v-3.808h4.22v3.808h2.11v-9.317h-2.11v3.54h-4.22v-3.54zm-27.714-.174c-3.007 0-4.946 2.185-4.946 4.832 0 2.649 1.939 4.831 4.946 4.831 3.007 0 4.945-2.182 4.945-4.831 0-2.647-1.938-4.832-4.945-4.832zm-3.38 11.49c-.726 0-1.267.545-1.267 1.238 0 .691.541 1.251 1.306 1.251-.026.706-.41 1.225-1.2 1.744l.435.625c1.385-.625 2.189-1.902 2.189-3.075 0-.984-.541-1.783-1.463-1.783zm-6.986 1.922c1.743 0 2.834 1.224 2.834 2.835 0 1.598-1.091 2.835-2.834 2.835-1.758 0-2.836-1.237-2.836-2.835 0-1.611 1.078-2.835 2.836-2.835zm24.097 0c1.744 0 2.835 1.224 2.835 2.835 0 1.598-1.091 2.835-2.835 2.835-1.757 0-2.835-1.237-2.835-2.835 0-1.611 1.078-2.835 2.835-2.835zm-10.574.355c1.626 0 2.777 1.091 2.777 2.657 0 1.537-1.108 2.616-2.684 2.657l-.093.001h-1.83v-5.315h1.83zm28.332-2.103h-1.847v9.316h2.11v-5.79l4.616 5.79h1.847v-9.316h-2.11v5.789l-4.616-5.79zm-10.02 0h-1.847v9.316h2.11v-5.79l4.617 5.79h1.846v-9.316h-2.11v5.789l-4.616-5.79zm25.605 0h-7.387v9.316h7.519v-1.97h-5.408v-1.717h3.363v-1.97h-3.363v-1.69h5.276v-1.97zm-43.665 0h-3.891v9.316h3.891c2.744 0 4.814-2.01 4.814-4.66 0-2.647-2.07-4.656-4.814-4.656zm46.865 0h-2.11v9.316h7.254v-1.97h-5.144v-7.346zm8.082 0h-2.11v9.316h7.254v-1.97h-5.144v-7.346zm-68.768-.174c-3.007 0-4.945 2.183-4.945 4.83 0 2.65 1.938 4.833 4.945 4.833 3.007 0 4.946-2.183 4.946-4.833 0-2.647-1.94-4.83-4.946-4.83zm24.104 0c-3.008 0-4.945 2.183-4.945 4.83 0 2.65 1.937 4.833 4.945 4.833 3.007 0 4.947-2.183 4.947-4.833 0-2.647-1.94-4.83-4.947-4.83zM1.063 159h105.604v-27.641H1.063V159z" fill="#F2F2F2" fill-rule="evenodd"/></svg>