<svg width="66" height="66" viewBox="0 0 66 66" fill="none" xmlns="http://www.w3.org/2000/svg">
<circle cx="33" cy="33" r="33" fill="white"/>
<path d="M33 28.9523C33.7661 28.9523 34.3918 29.5764 34.3918 30.3425C34.3918 31.0416 34.96 31.6082 35.6591 31.6082C36.3566 31.6082 36.9248 31.0416 36.9248 30.3425C36.9248 28.6251 35.8059 27.1758 34.2657 26.6459V25.9277C34.2657 25.2302 33.6991 24.6604 33 24.6604C32.2993 24.6604 31.7327 25.2302 31.7327 25.9277V26.6459C30.1925 27.1758 29.0768 28.6251 29.0768 30.3425C29.0768 32.5084 30.8357 34.2673 33 34.2673C33.7661 34.2673 34.3918 34.893 34.3918 35.6591C34.3918 36.4268 33.7661 37.0509 33 37.0509C32.2339 37.0509 31.6098 36.4268 31.6098 35.6591C31.6098 34.96 31.0416 34.3918 30.3425 34.3918C29.6418 34.3918 29.0768 34.96 29.0768 35.6591C29.0768 37.3765 30.1925 38.8242 31.7327 39.3541V40.0723C31.7327 40.773 32.2993 41.3412 33 41.3412C33.6991 41.3412 34.2657 40.773 34.2657 40.0723V39.3541C35.8059 38.8242 36.9248 37.3765 36.9248 35.6591C36.9248 33.4948 35.1643 31.7343 33 31.7343C32.2339 31.7343 31.6098 31.1102 31.6098 30.3425C31.6098 29.5764 32.2339 28.9523 33 28.9523ZM43.6125 40.034C44.2334 40.3612 44.9979 40.1234 45.3235 39.5073C46.3769 37.517 46.9324 35.2665 46.9324 33C46.9324 25.3196 40.6804 19.0692 33 19.0692C25.318 19.0692 19.0676 25.3196 19.0676 33C19.0676 40.682 25.318 46.9324 33 46.9324C35.2329 46.9324 37.4515 46.3929 39.4163 45.3698C40.0372 45.049 40.2782 44.2812 39.9558 43.662C39.6334 43.0443 38.8689 42.7985 38.2464 43.1225C36.62 43.9716 34.8531 44.401 33 44.401C26.7146 44.401 21.599 39.287 21.599 33C21.599 26.7161 26.7146 21.6006 33 21.6006C39.2855 21.6006 44.401 26.7161 44.401 33C44.401 34.8563 43.9445 36.6966 43.0858 38.3214C42.757 38.9407 42.9932 39.7068 43.6125 40.034ZM33 14C29.3306 14 25.7681 15.0502 22.6988 17.0342C22.1098 17.4141 21.9422 18.1977 22.3221 18.7851C22.7035 19.3725 23.484 19.5385 24.0746 19.1618C26.7305 17.4444 29.8206 16.5346 33 16.5346C42.0802 16.5346 49.4654 23.9214 49.4654 33C49.4654 42.0802 42.0802 49.467 33 49.467C23.9198 49.467 16.533 42.0802 16.533 33C16.533 29.8509 17.4252 26.788 19.1155 24.1464C19.4922 23.5559 19.3198 22.7722 18.7293 22.3955C18.1403 22.0188 17.3566 22.1912 16.9815 22.7802C15.0311 25.8303 14 29.3673 14 33C14 43.4784 22.5216 52 33 52C43.4768 52 52 43.4784 52 33C52 22.5248 43.4768 14 33 14Z" fill="black"/>
</svg>
