<svg width="78" height="62" viewBox="0 0 78 62" fill="none" xmlns="http://www.w3.org/2000/svg">
<path fill-rule="evenodd" clip-rule="evenodd" d="M34.7375 21.3428C31.9814 22.3053 30.0815 24.2775 29.2634 27.0252C28.9136 28.1995 28.9119 30.4187 29.2599 31.5861C30.7344 36.5334 36.472 39.061 40.983 36.7507L42.0988 36.1792L44.3957 38.4333C46.3527 40.354 46.7705 40.6875 47.2192 40.6875C48.0482 40.6875 48.6875 40.0343 48.6875 39.1871C48.6875 38.5234 48.5921 38.3977 46.4683 36.2621L44.249 34.0306L44.8082 32.9595C45.5627 31.5138 45.8602 29.5816 45.5793 27.952C45.1131 25.2491 43.4313 23.0353 40.8903 21.7808C39.533 21.1106 39.3862 21.076 37.6546 21.018C36.099 20.9661 35.6836 21.0123 34.7375 21.3428ZM39.6052 24.5148C42.5934 26.0028 43.5459 29.4569 41.727 32.2092C39.9009 34.9722 35.8736 35.3896 33.5972 33.0518C32.4132 31.836 32.1194 31.0743 32.122 29.2276C32.1245 27.3751 32.3764 26.7365 33.5759 25.5412C34.758 24.3635 35.5663 24.0396 37.3782 24.0177C38.3929 24.0054 38.7357 24.0819 39.6052 24.5148Z" fill="white"/>
<rect width="3" height="62" fill="white"/>
<rect x="75" width="3" height="62" fill="white"/>
</svg>
