<svg width="21" height="21" viewBox="0 0 21 21" fill="none" xmlns="http://www.w3.org/2000/svg">
<path d="M21 10.5C21 16.2989 16.2989 21 10.5 21C4.70108 21 0 16.2989 0 10.5C0 4.70108 4.70108 0 10.5 0C16.2989 0 21 4.70108 21 10.5Z" fill="#FFCC4D"/>
<path d="M10.5 12.2502C8.38656 12.2502 6.98423 12.004 5.24998 11.6668C4.8539 11.5904 4.08331 11.6668 4.08331 12.8335C4.08331 15.1668 6.76373 18.0835 10.5 18.0835C14.2356 18.0835 16.9166 15.1668 16.9166 12.8335C16.9166 11.6668 16.1461 11.5898 15.75 11.6668C14.0157 12.004 12.6134 12.2502 10.5 12.2502Z" fill="#664500"/>
<path d="M5.25 12.8335C5.25 12.8335 7 13.4168 10.5 13.4168C14 13.4168 15.75 12.8335 15.75 12.8335C15.75 12.8335 14.5833 15.1668 10.5 15.1668C6.41667 15.1668 5.25 12.8335 5.25 12.8335Z" fill="white"/>
<path d="M9.14782 2.57408L6.49832 3.04133L5.13332 0.560417C4.98282 0.286834 4.67366 0.140417 4.36799 0.194084C4.06057 0.248334 3.82141 0.492167 3.77357 0.800167L3.33899 3.59842L0.68949 4.06567C0.377407 4.1205 0.13649 4.37192 0.0939069 4.68633C0.0513236 5.00075 0.21699 5.30642 0.50399 5.44292L2.87816 6.56992L2.44182 9.37692C2.39341 9.68958 2.55207 9.99758 2.83441 10.1405C2.93882 10.193 3.05082 10.2181 3.16224 10.2181C3.35299 10.2181 3.54141 10.1434 3.68199 10.0011L5.73066 7.92383L8.36616 9.17508C8.65199 9.31042 8.99266 9.24683 9.20966 9.01642C9.42666 8.786 9.46982 8.44242 9.31757 8.16533L7.94791 5.67567L9.79416 3.80433C10.017 3.57858 10.0677 3.23442 9.92074 2.95325C9.77257 2.67208 9.45816 2.51983 9.14782 2.57408ZM11.8522 2.57408L14.5017 3.04133L15.8667 0.560417C16.0172 0.286834 16.3263 0.140417 16.632 0.194084C16.9388 0.248334 17.178 0.492167 17.2258 0.800167L17.6604 3.59842L20.3099 4.06567C20.6226 4.1205 20.8635 4.37133 20.9055 4.68575C20.9475 5.00017 20.7824 5.30583 20.4954 5.44233L18.1212 6.56933L18.5576 9.37633C18.606 9.689 18.4473 9.997 18.165 10.1399C18.0606 10.1924 17.9486 10.2175 17.8372 10.2175C17.6464 10.2175 17.458 10.1428 17.3174 10.0005L15.2687 7.92325L12.6332 9.1745C12.3474 9.30983 12.0067 9.24625 11.7897 9.01583C11.5727 8.78542 11.5296 8.44183 11.6818 8.16475L13.0515 5.67567L11.2052 3.80433C10.9824 3.57858 10.9317 3.23442 11.0787 2.95325C11.2274 2.67208 11.5418 2.51983 11.8522 2.57408Z" fill="#E95F28"/>
</svg>
