<svg width="17" height="15" viewBox="0 0 17 15" fill="none" xmlns="http://www.w3.org/2000/svg">
<path d="M8.41383 15C12.6988 15 16.1725 11.6421 16.1725 7.5C16.1725 3.35786 12.6988 0 8.41383 0C4.12887 0 0.655212 3.35786 0.655212 7.5C0.655212 11.6421 4.12887 15 8.41383 15Z" fill="#FFCC4D"/>
<path d="M5.61211 7.91664C6.20724 7.91664 6.6897 7.2637 6.6897 6.45826C6.6897 5.65282 6.20724 4.99988 5.61211 4.99988C5.01697 4.99988 4.53452 5.65282 4.53452 6.45826C4.53452 7.2637 5.01697 7.91664 5.61211 7.91664Z" fill="#664500"/>
<path d="M12.9211 7.41534C12.8953 7.35909 12.275 6.04159 11 6.04159C9.72546 6.04159 9.10477 7.35909 9.07891 7.41534C9.03925 7.50159 9.06511 7.60242 9.14141 7.66159C9.21684 7.72075 9.32503 7.72284 9.40434 7.66742C9.40951 7.66367 9.9483 7.29158 11 7.29158C12.0457 7.29158 12.5836 7.65867 12.5957 7.667C12.6336 7.6945 12.6793 7.70825 12.7242 7.70825C12.7716 7.70825 12.8194 7.69284 12.8586 7.66284C12.9349 7.60367 12.9612 7.502 12.9211 7.41534ZM3.24098 4.58325C3.15132 4.58325 3.06037 4.55617 2.98279 4.49992C2.79227 4.362 2.75391 4.10075 2.89658 3.91659C4.30261 2.10409 6.17934 2.08325 6.25865 2.08325C6.49658 2.08325 6.68968 2.26992 6.68968 2.49992C6.68968 2.7295 6.49787 2.91575 6.26037 2.91659C6.19356 2.91742 4.72244 2.95242 3.58624 4.41659C3.50175 4.52575 3.37201 4.58325 3.24098 4.58325ZM13.1556 5.83325C13.0242 5.83325 12.8953 5.77575 12.8104 5.66659C11.6931 4.22659 9.80994 4.57158 9.79141 4.57492C9.55563 4.62075 9.33106 4.47325 9.28408 4.24825C9.23753 4.02284 9.38882 3.80325 9.62201 3.75784C9.72158 3.73825 12.0604 3.31117 13.4996 5.16617C13.6427 5.35034 13.6039 5.61159 13.4134 5.7495C13.3362 5.80617 13.2457 5.83325 13.1556 5.83325ZM9.30994 11.2674C9.88537 11.0958 10.4431 10.7858 10.4431 10.2258C10.4431 9.1345 8.32589 8.98908 8.08451 8.97617C7.96641 8.96533 7.86511 9.05658 7.85736 9.17117C7.85003 9.28534 7.93925 9.38409 8.05736 9.392C8.07244 9.39284 9.58106 9.51658 9.58106 10.2258C9.58106 10.9349 8.07244 11.0587 8.05736 11.0595C8.05132 11.0599 8.04701 11.0633 8.04141 11.0641C8.01899 11.0666 7.99787 11.0716 7.97848 11.0808L7.97029 11.0853C7.95003 11.0962 7.93236 11.1091 7.91641 11.1262C7.91037 11.1324 7.90606 11.1391 7.90089 11.1462C7.89098 11.1595 7.88192 11.1724 7.87546 11.1887C7.87029 11.2008 7.8677 11.2141 7.86511 11.227C7.86339 11.2366 7.85822 11.2453 7.85736 11.2549C7.85736 11.2595 7.85908 11.2637 7.85908 11.2678C7.85908 11.272 7.85692 11.2766 7.85736 11.2808C7.85779 11.2908 7.86296 11.2995 7.86511 11.3091C7.8677 11.322 7.86986 11.3345 7.87503 11.3466C7.88063 11.3591 7.88839 11.3703 7.89615 11.3816C7.90348 11.3916 7.90994 11.4024 7.91856 11.4112C7.92848 11.4208 7.94011 11.4283 7.95218 11.4366C7.96253 11.4437 7.97201 11.4508 7.98408 11.4562C7.99787 11.4624 8.01253 11.4649 8.02761 11.4674C8.03796 11.4699 8.04658 11.4749 8.05736 11.4758C8.07244 11.4766 9.58106 11.6003 9.58106 12.3095C9.58106 13.0187 8.07244 13.1424 8.05736 13.1433C7.93925 13.1516 7.85003 13.2503 7.85736 13.3641C7.86468 13.4745 7.95951 13.5595 8.07244 13.5595L8.08451 13.5591C8.32589 13.5462 10.4431 13.4008 10.4431 12.3095C10.4431 11.7491 9.88537 11.4391 9.30994 11.2674Z" fill="#664500"/>
<path d="M15.3975 10.7513C15.2957 10.4221 15.0617 10.1321 14.7173 9.97003C14.3199 9.78294 13.8742 9.80711 13.5134 9.99503C13.4444 9.60502 13.1901 9.24959 12.7936 9.06292C12.1397 8.75457 11.3505 9.01708 11.0319 9.64877C10.9867 9.73836 10.9544 9.83086 10.9328 9.92336C10.5987 10.9884 11.2087 12.5655 11.8776 13.2351C12.4078 13.2893 13.1505 13.1526 13.8229 12.8714C14.4694 12.263 15.0009 11.5451 15.3975 10.7513Z" fill="#FFAC33"/>
<path d="M16.0233 11.3423C16.3419 10.7107 16.0707 9.94775 15.4177 9.63983C15.0203 9.45275 14.5746 9.47692 14.2138 9.66483C14.1449 9.27484 13.8906 8.91942 13.494 8.73276C12.8401 8.42443 12.0509 8.68734 11.7324 9.31859C11.6871 9.40817 11.6548 9.50067 11.6332 9.59317C11.2996 10.6582 11.9091 12.2352 12.5781 12.9048C13.5363 13.0023 15.1975 12.4969 15.8604 11.5877C15.9229 11.5131 15.9781 11.4319 16.0233 11.3423Z" fill="#DD2E44"/>
</svg>
