<?xml version="1.0" encoding="utf-8"?><svg viewBox="0 0 32 32" xmlns="http://www.w3.org/2000/svg" xmlns:xlink="http://www.w3.org/1999/xlink"><style>:root>svg{display:none}:root>svg:target{display:block}</style><svg fill="none" viewBox="0 0 20 19" id="arrow" xmlns="http://www.w3.org/2000/svg"><path d="M19.586 8.636L1.015.064a.718.718 0 00-.855.2.71.71 0 00-.017.878L6.25 9.284.143 17.427a.712.712 0 00.572 1.143.71.71 0 00.298-.066l18.571-8.571a.713.713 0 00.002-1.297z" fill="#000"/></svg><svg fill="none" viewBox="0 0 11 20" id="facebook" xmlns="http://www.w3.org/2000/svg"><path fill-rule="evenodd" clip-rule="evenodd" d="M5.593.645c-1.82.829-2.495 2.207-2.495 5.101v1.735H0v3.364h3.098v9.092l1.85-.047 1.851-.048.018-3.7c.01-2.035.029-4.059.043-4.498l.025-.8h3.05l.106-.998c.06-.549.157-1.305.219-1.681l.112-.684H8.639c-.954 0-1.765-.056-1.804-.126-.039-.069-.024-.833.033-1.697.135-2.037.315-2.213 2.274-2.213H10.5V.25L8.477.252C6.722.253 6.341.305 5.593.645z" fill="#000"/></svg><svg fill="none" viewBox="0 0 20 20" id="heart" xmlns="http://www.w3.org/2000/svg"><path d="M16.25 11.31L10 17.5l-6.25-6.19A4.168 4.168 0 1110 5.838a4.166 4.166 0 116.25 5.477" stroke="#8C8C8C" stroke-width="1.25" stroke-linecap="round" stroke-linejoin="round"/></svg><svg fill="none" viewBox="0 0 21 20" id="insta" xmlns="http://www.w3.org/2000/svg"><path fill-rule="evenodd" clip-rule="evenodd" d="M4.794.495c-2.61.65-3.764 2.233-4.11 5.64-.26 2.559-.075 8.684.3 9.924.606 2.001 2.231 3.33 4.534 3.706 1.408.23 8.374.23 9.77 0 2.315-.382 3.817-1.593 4.477-3.61.422-1.29.632-6.88.369-9.826-.327-3.663-1.524-5.283-4.348-5.886C14.456.16 5.983.2 4.794.495zm10.098 1.571c2.042.298 3.051 1.243 3.409 3.192.12.656.172 2.816.134 5.554-.07 4.865-.112 5.087-1.204 6.263-.836.9-1.785 1.045-6.823 1.045-5.388 0-6.038-.12-7.049-1.31-.353-.416-.704-1.051-.78-1.411-.077-.36-.139-2.872-.139-5.581 0-4.763.014-4.955.414-5.773.543-1.11 1.491-1.761 2.859-1.962 1.5-.22 7.703-.232 9.179-.017zm.496 1.601c-.86.27-1.137 1.083-.624 1.822.533.767 2.073.285 2.073-.648 0-.73-.8-1.377-1.45-1.174zm-6.67 1.664C7.511 5.75 6.312 6.9 5.778 8.15c-.321.752-.378 1.164-.31 2.233.177 2.793 2.165 4.657 4.966 4.657 2.964 0 5.148-2.397 4.91-5.39-.112-1.388-.59-2.362-1.645-3.342-1.359-1.262-3.155-1.615-4.983-.978zM12.15 7.33c.975.622 1.468 1.549 1.468 2.756 0 2.948-3.588 4.376-5.536 2.204-1.985-2.214-.605-5.449 2.335-5.475.705-.006 1.103.112 1.733.515z" fill="#000"/></svg><svg fill="none" viewBox="0 0 21 20" id="pinterest" xmlns="http://www.w3.org/2000/svg"><path fill-rule="evenodd" clip-rule="evenodd" d="M8.003.516C3.772 1.655.687 5.624.687 9.929c0 3.416 1.7 6.603 4.448 8.34.658.416 1.227.756 1.265.756.038 0 .12-.472.18-1.05.06-.576.4-2.262.755-3.745.54-2.256.617-2.822.472-3.469C7.3 8.496 9.202 6.383 10.5 7.767c.526.561.507 1.276-.092 3.35-.566 1.96-.47 2.462.555 2.89 1.94.812 3.665-1.471 3.669-4.852.002-1.416-.047-1.638-.502-2.295-1.009-1.457-2.95-2.026-4.941-1.446-2.596.755-4.138 3.778-3.033 5.946.405.796.456 1.313.18 1.83-.35.654-1.46-.136-2.057-1.465-.508-1.127-.495-3.06.028-4.25.563-1.283 2.01-2.724 3.358-3.344 1.028-.473 1.322-.522 3.14-.525 1.825-.002 2.098.043 3.034.504 1.174.577 2.393 1.807 2.901 2.927.44.967.473 3.299.07 4.7-.364 1.26-1.364 2.745-2.232 3.316-1.713 1.125-3.59 1.165-4.725.1-.465-.435-.394-.552-.962 1.587-.213.8-.555 1.729-.761 2.063-.206.333-.339.642-.294.687.156.156 2.028.448 2.874.448 1.26 0 3.59-.652 4.74-1.327 2.977-1.745 4.932-5.127 4.924-8.521-.01-4.497-3.063-8.455-7.39-9.584-1.326-.345-3.681-.34-4.982.01z" fill="#000"/></svg><svg fill="none" viewBox="0 0 20 20" id="search" xmlns="http://www.w3.org/2000/svg"><path fill-rule="evenodd" clip-rule="evenodd" d="M6.05.593C3.294 1.555 1.394 3.528.576 6.275.226 7.45.224 9.67.572 10.836c1.475 4.947 7.212 7.475 11.724 5.165l1.115-.572 2.297 2.254c1.957 1.921 2.375 2.255 2.824 2.255.829 0 1.468-.654 1.468-1.5 0-.665-.095-.79-2.22-2.926l-2.219-2.231.56-1.072c.754-1.445 1.052-3.377.77-5.007-.465-2.703-2.147-4.917-4.688-6.171C10.846.36 10.699.326 8.967.268 7.412.216 6.997.262 6.05.593zm4.868 3.172c2.988 1.488 3.94 4.942 2.122 7.694-1.827 2.763-5.854 3.18-8.13.843-1.184-1.216-1.478-1.978-1.476-3.824.003-1.853.255-2.491 1.454-3.687C6.07 3.613 6.878 3.29 8.691 3.268c1.014-.013 1.357.064 2.227.497z" fill="#000"/></svg><svg fill="none" viewBox="0 0 32 32" id="user" xmlns="http://www.w3.org/2000/svg"><path d="M16 14.667A5.333 5.333 0 1016 4a5.333 5.333 0 000 10.667zM8 28v-2.667A5.333 5.333 0 0113.333 20h5.334A5.333 5.333 0 0124 25.333V28" stroke="#333" stroke-width="2" stroke-linecap="round" stroke-linejoin="round"/></svg></svg>