<?xml version="1.0" encoding="utf-8"?><svg viewBox="0 0 73 167" xmlns="http://www.w3.org/2000/svg" xmlns:xlink="http://www.w3.org/1999/xlink"><style>:root>svg{display:none}:root>svg:target{display:block}</style><svg fill="none" viewBox="0 0 52 41" id="arrow-1" xmlns="http://www.w3.org/2000/svg"><path d="M51.148 38.989a1 1 0 00.841-1.137l-1.33-8.901a1 1 0 00-1.978.296l1.182 7.912-7.912 1.182a1 1 0 00.296 1.978l8.9-1.33zM.405 1.804l50 37 1.19-1.608-50-37-1.19 1.608z" fill="#000"/></svg><svg fill="none" viewBox="0 0 67 101" id="arrow-2" xmlns="http://www.w3.org/2000/svg"><path d="M59.74 96.966a1 1 0 001.226-.706l2.337-8.691a1 1 0 00-1.931-.52l-2.078 7.726-7.725-2.078a1 1 0 00-.52 1.931l8.691 2.338zM6.133 4.499l53 92 1.733-.998-53-92-1.732.998z" fill="#000"/></svg><svg fill="none" viewBox="0 0 38 49" id="arrow-3" xmlns="http://www.w3.org/2000/svg"><path d="M6.03 44.242a1 1 0 001.213.728l8.73-2.183a1 1 0 10-.484-1.94l-7.761 1.94-1.94-7.76a1 1 0 10-1.941.484l2.183 8.731zM30.142 3.486l-24 40 1.715 1.029 24-40-1.715-1.03z" fill="#000"/></svg><svg fill="none" viewBox="0 0 67 39" id="arrow-4" xmlns="http://www.w3.org/2000/svg"><path d="M63.394 31.92a1 1 0 00.525-1.314l-3.545-8.272a1 1 0 00-1.838.788l3.15 7.353-7.352 3.151a1 1 0 10.788 1.838l8.272-3.545zM2.629 7.927l60 24 .742-1.857-60-24-.742 1.857z" fill="#000"/></svg><svg fill="none" viewBox="0 0 73 60" id="arrow-5" xmlns="http://www.w3.org/2000/svg"><path d="M6.023 6.077a1 1 0 00-.855 1.126l1.217 8.918a1 1 0 101.982-.27L7.285 7.923l7.926-1.082a1 1 0 00-.27-1.982L6.023 6.077zm62.423 47.059L6.764 6.272l-1.21 1.592 61.684 46.864 1.21-1.592z" fill="#000"/></svg><svg fill="none" viewBox="0 0 71 167" id="arrow-5-1" xmlns="http://www.w3.org/2000/svg"><path d="M8.434 3.099a1 1 0 00-1.335.467l-3.904 8.11a1 1 0 101.802.867l3.47-7.208 7.208 3.47a1 1 0 10.868-1.802L8.433 3.1zm56.51 160.571l-56-160-1.888.66 56 160 1.888-.66z" fill="#000"/></svg><svg fill="none" viewBox="0 0 20 20" id="icon-list" xmlns="http://www.w3.org/2000/svg"><g clip-path="url(#gclip0)"><path d="M19.707 3.718L13.425 10l6.282 6.282-.829.83L8.252 10l10.626-7.11.829.828z" fill="#E0230D"/><path d="M18.878 2.89L11.768 10l7.11 7.11-2.596 2.597L10 13.425l-6.282 6.282-3.425-3.425L6.575 10 .293 3.718 3.718.293 10 6.575 16.282.293l2.596 2.596z" fill="#FF5440"/><path d="M13.84 10l6.074-6.074a.293.293 0 000-.414L16.49.087a.293.293 0 00-.414 0L10 6.162 3.925.087a.293.293 0 00-.414 0L.086 3.512a.293.293 0 000 .414l6.075 6.075-2.52 2.52a.293.293 0 00.414.414l2.727-2.727a.293.293 0 000-.414L.707 3.719 3.718.709l6.075 6.074c.114.114.3.114.414 0L16.282.708l3.01 3.011-6.074 6.075a.293.293 0 000 .414l6.075 6.075-3.011 3.01-6.075-6.074a.293.293 0 00-.414 0l-6.075 6.075-3.01-3.011 2.519-2.52a.293.293 0 10-.415-.414L.086 16.076a.293.293 0 000 .414l3.425 3.425a.292.292 0 00.414 0L10 13.84l6.075 6.075a.293.293 0 00.414 0l3.425-3.425a.293.293 0 000-.414L13.84 10z" fill="#fff"/></g><defs><clipPath id="gclip0"><path fill="#fff" d="M0 0h20v20H0z"/></clipPath></defs></svg><svg fill="none" viewBox="0 0 31 31" id="icon-list-second" xmlns="http://www.w3.org/2000/svg"><path d="M14.313 1.898a1.675 1.675 0 012.373 0c.767.769 1.921.998 2.923.582a1.676 1.676 0 012.192.908 2.675 2.675 0 002.478 1.655c.927-.001 1.68.75 1.678 1.678A2.676 2.676 0 0027.612 9.2a1.676 1.676 0 01.908 2.192 2.675 2.675 0 00.582 2.922 1.675 1.675 0 010 2.373 2.675 2.675 0 00-.582 2.923 1.676 1.676 0 01-.908 2.192 2.676 2.676 0 00-1.655 2.478c.001.927-.75 1.68-1.678 1.678a2.676 2.676 0 00-2.478 1.655 1.676 1.676 0 01-2.192.908 2.675 2.675 0 00-2.923.582 1.675 1.675 0 01-2.373 0 2.675 2.675 0 00-2.922-.582 1.676 1.676 0 01-2.192-.908 2.676 2.676 0 00-2.478-1.655 1.675 1.675 0 01-1.678-1.678A2.675 2.675 0 003.388 21.8a1.676 1.676 0 01-.908-2.192 2.676 2.676 0 00-.582-2.923 1.675 1.675 0 010-2.373c.769-.766.998-1.92.582-2.922A1.675 1.675 0 013.388 9.2 2.675 2.675 0 005.043 6.72a1.675 1.675 0 011.678-1.678A2.675 2.675 0 009.2 3.388a1.675 1.675 0 012.192-.908 2.676 2.676 0 002.922-.582l-.354-.353.354.353z" fill="#74A2D6" stroke="#4271A6"/><path d="M22.086 9.323a1.379 1.379 0 00-1.945.173L13.98 16.86l-2.621-2.62a1.38 1.38 0 00-1.954 0 1.38 1.38 0 000 1.954l3.69 3.69c.258.26.61.404.976.404.02 0 .04 0 .06-.003.39-.016.75-.196.998-.493l7.13-8.525a1.38 1.38 0 00-.173-1.945z" fill="#fff"/></svg><svg fill="none" viewBox="0 0 22 22" id="like" xmlns="http://www.w3.org/2000/svg"><circle cx="11" cy="11" r="11" fill="#0084FF"/><path d="M7.042 9.375C6.468 9.375 6 9.842 6 10.417v3.333c0 .574.468 1.042 1.042 1.042h1.25c.234 0 .45-.08.625-.211V9.375H7.042zM16 10.937c0-.25-.1-.484-.271-.656.194-.213.294-.498.266-.795-.048-.53-.525-.945-1.086-.945h-2.574c.127-.387.332-1.096.332-1.666 0-.904-.768-1.667-1.25-1.667-.433 0-.742.244-.756.254a.21.21 0 00-.078.163v1.413l-1.2 2.6-.05.025v4.465c.34.16.769.247 1.042.247H14.2c.453 0 .85-.306.944-.728a.938.938 0 00-.076-.626.933.933 0 00.417-1.25.933.933 0 00.515-.834z" fill="#fff"/></svg></svg>