<svg width="20" height="20" viewBox="0 0 20 20" fill="none" xmlns="http://www.w3.org/2000/svg">
<path fill-rule="evenodd" clip-rule="evenodd" d="M5.7375 0.342789C2.98143 1.30525 1.08152 3.27754 0.263412 6.02523C-0.0863614 7.19954 -0.0880527 9.41872 0.25986 10.5861C1.73439 15.5334 7.47199 18.061 11.983 15.7507L13.0988 15.1792L15.3957 17.4333C17.3527 19.354 17.7705 19.6875 18.2192 19.6875C19.0482 19.6875 19.6875 19.0343 19.6875 18.1871C19.6875 17.5234 19.5921 17.3977 17.4683 15.2621L15.249 13.0306L15.8082 11.9595C16.5627 10.5138 16.8602 8.58164 16.5793 6.95197C16.1131 4.24911 14.4313 2.03532 11.8903 0.780794C10.533 0.110556 10.3862 0.076008 8.65459 0.0180342C7.09904 -0.0338726 6.68365 0.0123043 5.7375 0.342789ZM10.6052 3.51483C13.5934 5.00277 14.5459 8.45693 12.727 11.2092C10.9009 13.9722 6.87359 14.3896 4.59718 12.0518C3.41323 10.836 3.11944 10.0743 3.12198 8.22756C3.12452 6.3751 3.37636 5.73654 4.57587 4.54117C5.75796 3.36349 6.56626 3.03958 8.37822 3.01767C9.39287 3.00537 9.73571 3.08188 10.6052 3.51483Z" fill="white"/>
</svg>
