<svg width="23" height="23" viewBox="0 0 23 23" fill="none" xmlns="http://www.w3.org/2000/svg">
<g clip-path="url(#clip0_3_290)">
<path d="M12.7476 2.16661C9.86196 -0.722203 5.10923 -0.722203 2.18967 2.16661C-0.72989 5.05541 -0.72989 9.81348 2.18967 12.7362C4.93948 15.4891 9.3188 15.625 12.2384 13.178L13.4605 14.4015C12.9173 14.9453 12.9173 15.795 13.4605 16.3388L19.707 22.5922C20.2502 23.136 21.0989 23.136 21.642 22.5922L22.5926 21.6405C23.1358 21.0967 23.1358 20.2472 22.5926 19.7034L16.3801 13.4839C15.8369 12.9402 14.9882 12.9402 14.4451 13.4839L13.2229 12.2604C15.6672 9.30368 15.4974 4.91947 12.7476 2.16661ZM3.17417 11.7847C0.797785 9.40558 0.797785 5.53122 3.17417 3.11822C5.55055 0.739194 9.42062 0.739194 11.831 3.11822C14.2074 5.49723 14.2074 9.37162 11.831 11.7847C9.42062 14.1637 5.55055 14.1637 3.17417 11.7847Z" fill="#8E0000"/>
</g>
<defs>
<clipPath id="clip0_3_290">
<rect width="23" height="23" fill="white"/>
</clipPath>
</defs>
</svg>
