<svg width="146" height="26" viewBox="0 0 146 26" fill="none" xmlns="http://www.w3.org/2000/svg">
<path d="M13 0L15.9187 8.98278H25.3637L17.7225 14.5344L20.6412 23.5172L13 17.9656L5.35879 23.5172L8.27747 14.5344L0.636266 8.98278H10.0813L13 0Z" fill="#FFC700"/>
<path d="M73 0L75.9187 8.98278H85.3637L77.7225 14.5344L80.6412 23.5172L73 17.9656L65.3588 23.5172L68.2775 14.5344L60.6363 8.98278H70.0813L73 0Z" fill="#FFC700"/>
<path d="M43 0L45.9187 8.98278H55.3637L47.7225 14.5344L50.6412 23.5172L43 17.9656L35.3588 23.5172L38.2775 14.5344L30.6363 8.98278H40.0813L43 0Z" fill="#FFC700"/>
<path d="M103 0L105.919 8.98278H115.364L107.723 14.5344L110.641 23.5172L103 17.9656L95.3588 23.5172L98.2775 14.5344L90.6363 8.98278H100.081L103 0Z" fill="#FFC700"/>
<path d="M133 0L135.919 8.98278H145.364L137.723 14.5344L140.641 23.5172L133 17.9656L125.359 23.5172L128.277 14.5344L120.636 8.98278H130.081L133 0Z" fill="#FFC700"/>
</svg>
