<svg width="108" height="108" viewBox="0 0 108 108" fill="none" xmlns="http://www.w3.org/2000/svg">
<circle cx="54" cy="54" r="54" fill="#FF5C00"/>
<path d="M78.2425 65.1636H75.572V38.0776C75.572 36.3887 74.2028 35.0196 72.514 35.0196H34.2469C32.558 35.0196 31.1889 36.3887 31.1889 38.0776V65.1636H28.7574C28.3392 65.1636 28 65.5028 28 65.921V67.5938C28 70.0163 29.9639 71.9803 32.3865 71.9803H60.9228C61.3411 71.9803 61.6803 71.6411 61.6803 71.2228C61.6803 70.8046 61.3411 70.4654 60.9228 70.4654H32.3865C30.8005 70.4653 29.5149 69.1797 29.5149 67.5938V66.6785H31.9464H47.3662C47.3931 68.1446 48.5933 69.3293 50.0659 69.3293H56.934C58.4065 69.3293 59.6068 68.1446 59.6337 66.6785H74.8147H77.4852V67.5938C77.4852 69.1797 76.1996 70.4654 74.6136 70.4654H64.4577C64.0394 70.4654 63.7002 70.8046 63.7002 71.2228C63.7002 71.6411 64.0394 71.9803 64.4577 71.9803H74.6135C77.036 71.9803 79 70.0164 79 67.5938V65.921C78.9999 65.5027 78.6607 65.1636 78.2425 65.1636ZM56.9339 67.8144H50.0658C49.4286 67.8144 48.9071 67.3093 48.8809 66.6784H58.1188C58.0926 67.3092 57.5712 67.8144 56.9339 67.8144ZM74.0571 65.1636H32.7038V38.0776C32.7038 37.2266 33.396 36.5344 34.247 36.5344H72.514C73.3649 36.5344 74.0571 37.2266 74.0571 38.0776V65.1636Z" fill="white"/>
<path d="M71.9872 37.8475H42.6444C42.2262 37.8475 41.887 38.1867 41.887 38.605C41.887 39.0232 42.2262 39.3624 42.6444 39.3624H71.2298V62.3361H35.5319V39.3623H39.1096C39.5279 39.3623 39.867 39.0231 39.867 38.6049C39.867 38.1866 39.5279 37.8475 39.1096 37.8475H34.7745C34.3563 37.8475 34.0171 38.1866 34.0171 38.6049V63.0934C34.0171 63.5117 34.3563 63.8508 34.7745 63.8508H71.9872C72.4055 63.8508 72.7446 63.5117 72.7446 63.0934V38.605C72.7446 38.1866 72.4056 37.8475 71.9872 37.8475Z" fill="white"/>
</svg>
