<svg width="108" height="108" viewBox="0 0 108 108" fill="none" xmlns="http://www.w3.org/2000/svg">
<circle cx="54" cy="54" r="54" fill="#FF5C00"/>
<path d="M79.7998 51.1128L78.246 44.8978C78.6708 44.8076 78.9895 44.4307 78.9895 43.9792V42.9771C78.9895 40.8014 77.2194 39.0314 75.0438 39.0314H67.9666V36.9644C67.9666 35.8938 67.0957 35.0229 66.0251 35.0229H29.9498C28.8792 35.0229 28.0083 35.8938 28.0083 36.9644V54C28.0083 54.5188 28.4289 54.9395 28.9478 54.9395C29.4666 54.9395 29.8873 54.5189 29.8873 54V36.9644C29.8873 36.9299 29.9153 36.9019 29.9498 36.9019H66.025C66.0595 36.9019 66.0875 36.9299 66.0875 36.9644V54.0002C66.0875 54.519 66.5081 54.9397 67.027 54.9397C67.5458 54.9397 67.9665 54.5191 67.9665 54.0002V52.9352H79.0488C79.0498 52.9352 79.0505 52.9355 79.0513 52.9355C79.0522 52.9355 79.053 52.9353 79.0539 52.9353C80.4176 52.9363 81.5755 53.8314 81.9732 55.0647H79.052C78.5332 55.0647 78.1125 55.4853 78.1125 56.0042V58.0084C78.1125 59.6315 79.433 60.952 81.0561 60.952H82.1209V65.0856H79.6644C78.8575 62.7555 76.6425 61.0772 74.0415 61.0772C71.4405 61.0772 69.2255 62.7555 68.4186 65.0856H67.9663V58.0083C67.9663 57.4895 67.5457 57.0688 67.0268 57.0688C66.508 57.0688 66.0873 57.4894 66.0873 58.0083V65.0853H46.5957C45.7888 62.7553 43.5738 61.0769 40.9729 61.0769C38.3719 61.0769 36.1568 62.7553 35.35 65.0853H29.9498C29.9153 65.0853 29.8873 65.0573 29.8873 65.0228V62.9559H33.9582C34.477 62.9559 34.8977 62.5353 34.8977 62.0164C34.8977 61.4975 34.4771 61.0769 33.9582 61.0769H24.9395C24.4207 61.0769 24 61.4975 24 62.0164C24 62.5353 24.4206 62.9559 24.9395 62.9559H28.0084V65.0228C28.0084 66.0934 28.8793 66.9643 29.95 66.9643H35.0246C35.0244 66.9852 35.023 67.0059 35.023 67.0269C35.023 70.3077 37.6922 72.9767 40.9729 72.9767C44.2535 72.9767 46.9227 70.3077 46.9227 67.0269C46.9227 67.0058 46.9213 66.9852 46.9211 66.9643H68.0933C68.0931 66.9852 68.0917 67.0059 68.0917 67.0269C68.0917 70.3077 70.7609 72.9767 74.0415 72.9767C77.3222 72.9767 79.9914 70.3077 79.9914 67.0269C79.9914 67.0058 79.99 66.9852 79.9897 66.9643H83.0604C83.5792 66.9643 83.9999 66.5437 83.9999 66.0248V56.004C84 53.5299 82.1746 51.4744 79.7998 51.1128ZM67.9666 40.9103H75.0438C76.1835 40.9103 77.1107 41.8374 77.1107 42.9771V43.0397H67.9666V40.9103ZM67.9666 51.0563V44.9185H76.3145L77.8489 51.0563H67.9666ZM40.9729 71.0981C38.7281 71.0981 36.9019 69.272 36.9019 67.0271C36.9019 64.7823 38.7281 62.9562 40.9729 62.9562C43.2176 62.9562 45.0438 64.7823 45.0438 67.0271C45.0438 69.272 43.2176 71.0981 40.9729 71.0981ZM74.0418 71.0981C71.797 71.0981 69.9708 69.272 69.9708 67.0271C69.9708 64.7823 71.797 62.9562 74.0418 62.9562C76.2865 62.9562 78.1127 64.7823 78.1127 67.0271C78.1127 69.272 76.2865 71.0981 74.0418 71.0981ZM82.1211 59.073H81.0564C80.4693 59.073 79.9916 58.5954 79.9916 58.0083V56.9435H82.121V59.073H82.1211Z" fill="white"/>
<path d="M40.9728 65.0854C39.9022 65.0854 39.0312 65.9564 39.0312 67.027C39.0312 68.0976 39.9022 68.9685 40.9728 68.9685C42.0434 68.9685 42.9144 68.0976 42.9144 67.027C42.9144 65.9564 42.0434 65.0854 40.9728 65.0854Z" fill="white"/>
<path d="M74.0417 65.0854C72.971 65.0854 72.1001 65.9564 72.1001 67.027C72.1001 68.0976 72.971 68.9685 74.0417 68.9685C75.1123 68.9685 75.9832 68.0976 75.9832 67.027C75.9832 65.9564 75.1123 65.0854 74.0417 65.0854Z" fill="white"/>
<path d="M63.0185 61.0773H48.9893C48.4705 61.0773 48.0498 61.4978 48.0498 62.0167C48.0498 62.5357 48.4704 62.9562 48.9893 62.9562H63.0185C63.5373 62.9562 63.958 62.5357 63.958 62.0167C63.958 61.4978 63.5374 61.0773 63.0185 61.0773Z" fill="white"/>
<path d="M38.9685 57.0689H26.9434C26.4246 57.0689 26.0039 57.4895 26.0039 58.0084C26.0039 58.5273 26.4245 58.9479 26.9434 58.9479H38.9685C39.4873 58.9479 39.908 58.5273 39.908 58.0084C39.908 57.4895 39.4873 57.0689 38.9685 57.0689Z" fill="white"/>
<path d="M56.6686 44.3169C56.3018 43.9501 55.7069 43.9501 55.3401 44.3171L46.9855 52.6715L42.6394 48.3253C42.2725 47.9584 41.6776 47.9584 41.3108 48.3253C40.9439 48.6923 40.9439 49.287 41.3108 49.6539L46.3213 54.6644C46.5047 54.8479 46.7452 54.9395 46.9855 54.9395C47.2259 54.9395 47.4665 54.8479 47.6497 54.6644L56.6685 45.6456C57.0354 45.2786 57.0354 44.6839 56.6686 44.3169Z" fill="white"/>
</svg>
