<svg width="27" height="27" viewBox="0 0 27 27" fill="none" xmlns="http://www.w3.org/2000/svg">
<path d="M25.9987 0.310417C25.4767 0.513198 24.9418 0.696849 24.4155 0.884326C24.3385 0.911109 24.2487 0.918761 24.1631 0.934065C24.1545 0.914935 24.1417 0.895805 24.1331 0.8805C24.4968 0.635632 24.8648 0.39459 25.2285 0.149722C25.2157 0.130592 25.2071 0.111462 25.1943 0.0961574C24.6594 0.207113 24.1117 0.279808 23.5983 0.478764C23.5897 0.455807 23.5769 0.432851 23.5683 0.413721C23.7095 0.302765 23.8464 0.191809 23.9876 0.0846792C23.9834 0.0808532 23.9791 0.073201 23.9748 0.069375C23.6496 0.222418 23.3244 0.379286 22.9949 0.532329C22.9864 0.52085 22.9821 0.509372 22.9735 0.497894C23.2773 0.333373 23.5811 0.168853 23.8849 0.00433192C23.4699 -0.0224505 23.0933 0.0770271 22.7211 0.245374C21.5101 0.792501 20.3548 1.41998 19.2979 2.18901C18.2111 2.98101 17.2483 3.88396 16.3412 4.83665C14.3258 6.95246 12.4945 9.18306 11.168 11.7159C11.1338 11.7848 11.0867 11.823 11.0225 11.8422C10.6631 12.7566 10.4277 13.7284 9.84152 14.5319C9.68748 14.9145 9.52488 15.2971 9.37084 15.6835C8.6691 17.4741 8.05721 19.2915 7.52662 21.1319C7.52235 21.1433 7.51379 21.1548 7.49239 21.2007C7.41965 21.1051 7.35547 21.0324 7.30412 20.9482C6.8206 20.1983 6.34564 19.4407 5.86212 18.6908C5.13899 17.5774 4.41585 16.4641 3.68843 15.3545C3.37179 14.8724 2.83693 14.6199 2.32346 14.7194C2.09667 14.7615 1.86561 14.8265 1.6645 14.926C1.52758 14.9948 1.39921 15.1326 1.34358 15.2627C1.27084 15.4425 1.17242 15.4846 0.984152 15.4578C0.894295 15.4425 0.800158 15.454 0.667512 15.454C0.731696 15.6147 0.791601 15.7601 0.838669 15.9054C0.885737 16.047 0.91569 16.1924 0.949921 16.334C0.924247 16.3454 0.902853 16.3569 0.877179 16.3684C0.616165 16.1197 0.350872 15.8748 0.0898575 15.6261C0.059905 15.6414 0.0299525 15.6568 0 15.6682C0.106973 15.959 0.179715 16.2689 0.329477 16.5406C0.808717 17.4014 1.30935 18.2547 1.82282 19.1002C2.93534 20.9367 4.19334 22.7044 5.1561 24.6136C5.43423 25.1607 5.62678 25.7461 5.83217 26.32C5.91347 26.5534 6.04612 26.7064 6.29002 26.8059C7.5523 27.3186 9.2981 26.7753 9.87575 25.6504C10.064 25.2831 10.1239 24.8699 10.2523 24.4797C10.9369 22.4021 11.5788 20.3131 12.3233 18.2547C12.7341 17.1221 13.2475 16.0164 13.7353 14.903C13.9022 14.1608 14.2659 13.4797 14.574 12.7719C14.7452 12.3855 15.0147 11.6623 15.5068 11.429C15.9518 10.6752 16.3968 9.92149 16.8504 9.17158C17.7147 7.74446 18.6903 6.3862 19.8799 5.15421C21.0223 3.97196 22.2889 2.91214 23.7181 2.01301C24.6295 1.43911 25.5965 0.953196 26.5978 0.513198C26.7262 0.459633 26.8374 0.379286 27 0.283635C26.6149 0.126766 26.3111 0.187983 25.9987 0.310417Z" fill="#33E745"/>
</svg>
