<svg width="26" height="26" viewBox="0 0 26 26" fill="none" xmlns="http://www.w3.org/2000/svg">
<path d="M2.26545 16.2778C2.6192 16.2778 2.90591 16.5703 2.90591 16.9313V22.7331C2.90716 23.8153 3.76652 24.6923 4.82727 24.6934H22.7977C23.8585 24.6923 24.7178 23.8153 24.7191 22.7331V5.70517C24.7178 4.62317 23.8585 3.74614 22.7977 3.74486H17.1112C16.7575 3.74486 16.4708 3.45235 16.4708 3.09142C16.4708 2.73076 16.7575 2.43799 17.1112 2.43799H22.7977C24.5655 2.44003 25.998 3.90158 26 5.70517V22.7333C25.998 24.5369 24.5655 25.9984 22.7977 26.0005H4.82727C3.05951 25.9984 1.627 24.5369 1.625 22.7333V16.9313C1.625 16.5703 1.9117 16.2778 2.26545 16.2778Z" fill="black"/>
<path d="M1.58596 0.840119C2.70557 -0.279388 4.52073 -0.279388 5.64034 0.840119L17.0061 12.2049C17.084 12.2828 17.1403 12.3793 17.1696 12.4853L18.6643 17.8808C18.7257 18.102 18.6633 18.3389 18.501 18.5014C18.3385 18.6636 18.1016 18.7261 17.8804 18.6649L12.4844 17.1701C12.3784 17.1408 12.2818 17.0845 12.2039 17.0067L0.8384 5.64163C-0.279465 4.52138 -0.279465 2.70787 0.8384 1.58762L1.58596 0.840119ZM15.618 12.619L6.31598 3.31752L3.31602 6.31722L12.6183 15.6187L15.618 12.619ZM16.2172 13.8213L13.8205 16.2181L17.1358 17.1365L16.2172 13.8213ZM1.73926 4.74085L2.41491 5.41644L5.41512 2.41649L4.73923 1.7409C4.11733 1.11906 3.10897 1.11906 2.48707 1.7409L1.73926 2.4884C1.11836 3.11098 1.11836 4.11852 1.73926 4.74085Z" fill="black"/>
</svg>
