<svg width="26" height="26" viewBox="0 0 26 26" fill="none" xmlns="http://www.w3.org/2000/svg">
<g clip-path="url(#clip0_3_57)">
<path d="M14.4103 2.44921C11.1483 -0.816403 5.77565 -0.816403 2.47528 2.44921C-0.825093 5.71481 -0.825093 11.0935 2.47528 14.3975C5.58376 17.5094 10.5343 17.6631 13.8347 14.8969L15.2162 16.28C14.6022 16.8947 14.6022 17.8552 15.2162 18.4699L22.2775 25.539C22.8915 26.1537 23.8509 26.1537 24.4649 25.539L25.5395 24.4632C26.1535 23.8485 26.1535 22.8881 25.5395 22.2734L18.5166 15.2427C17.9026 14.628 16.9432 14.628 16.3292 15.2427L14.9476 13.8596C17.7107 10.5172 17.5188 5.56114 14.4103 2.44921ZM3.58819 13.3218C0.901844 10.6324 0.901844 6.25268 3.58819 3.52494C6.27454 0.83561 10.6494 0.83561 13.3742 3.52494C16.0605 6.21426 16.0605 10.594 13.3742 13.3218C10.6494 16.0111 6.27454 16.0111 3.58819 13.3218Z" fill="white"/>
</g>
<defs>
<clipPath id="clip0_3_57">
<rect width="26" height="26" fill="white"/>
</clipPath>
</defs>
</svg>
