<svg width="63" height="63" viewBox="0 0 63 63" fill="none" xmlns="http://www.w3.org/2000/svg">
<path d="M37.6404 8.20166C44.0607 9.31853 47.5812 16.7839 47.5812 16.7839C59.7295 39.0265 54.4391 51.3709 54.4391 51.3709L49.7365 51.9587C47.3852 50.881 43.4664 30.2059 43.4664 30.2059C44.2502 48.0398 41.9968 51.6648 41.9968 51.6648H31.3507V16.2059C45.6511 12.2479 37.6404 8.20166 37.6404 8.20166ZM15.1202 16.7872C2.96854 39.0265 8.26223 51.3741 8.26223 51.3741L12.9648 51.9619C15.3161 50.8843 19.235 30.2092 19.235 30.2092C18.4512 48.0431 20.7045 51.668 20.7045 51.668H31.3507V16.2059C17.0502 12.2479 25.061 8.20166 25.061 8.20166C18.6406 9.31853 15.1202 16.7872 15.1202 16.7872Z" fill="white"/>
<path d="M54.4391 51.374V54.4111H49.7365V51.9618L54.4391 51.374ZM31.3507 51.6679V55.0969H41.9968V51.6679H31.3507ZM20.7045 51.6679V55.0969H31.3507V51.6679H20.7045ZM8.26221 51.374V54.4111H12.9648V51.9618L8.26221 51.374Z" fill="white"/>
<path d="M37.6404 8.20166C37.6404 8.20166 45.6511 12.2479 31.3507 16.2059L37.6404 8.20166ZM25.0609 8.20166C25.0609 8.20166 17.0502 12.2479 31.3507 16.2026L25.0609 8.20166Z" fill="white"/>
<path d="M25.061 8.20166C25.0937 8.22125 29.1693 10.8077 31.3508 10.8077C33.5388 10.8077 37.6405 8.20166 37.6405 8.20166L31.3508 16.2059L25.061 8.20166Z" fill="white"/>
<path d="M25.0609 8.20166C25.0609 8.20166 17.0502 12.2479 31.3507 16.2059L25.0609 8.20166Z" stroke="#790F00" stroke-width="1.63285" stroke-miterlimit="10" stroke-linecap="round" stroke-linejoin="round"/>
<path d="M31.3506 55.0969H20.7045V51.6679C20.7045 51.6679 18.4512 48.043 19.2349 30.2091C19.2349 30.2091 15.3161 50.8842 12.9648 51.9619V54.4111H8.26219V51.374C8.26219 51.374 2.97177 39.0297 15.1201 16.7871C15.1201 16.7871 18.6406 9.3217 25.0609 8.20483C25.0936 8.22443 29.1692 10.8109 31.3506 10.8109C33.5387 10.8109 37.6404 8.20483 37.6404 8.20483C44.0607 9.3217 47.5811 16.7871 47.5811 16.7871C59.7295 39.0297 54.4391 51.374 54.4391 51.374V54.4111H49.7365V51.9619C47.3852 50.8842 43.4664 30.2091 43.4664 30.2091C44.2501 48.043 41.9968 51.6679 41.9968 51.6679V55.0969H31.3506Z" stroke="#790F00" stroke-width="1.63285" stroke-miterlimit="10" stroke-linecap="round" stroke-linejoin="round"/>
<path d="M31.3507 55.0969V51.668" stroke="#790F00" stroke-width="1.63285" stroke-miterlimit="10" stroke-linecap="round" stroke-linejoin="round"/>
<path d="M31.3507 51.668V16.2058" stroke="#790F00" stroke-width="1.63285" stroke-miterlimit="10" stroke-linecap="round" stroke-linejoin="round"/>
<path d="M8.26221 51.374L12.9648 51.9618" stroke="#790F00" stroke-width="1.63285" stroke-miterlimit="10" stroke-linecap="round" stroke-linejoin="round"/>
<path d="M20.7046 51.668H31.3507" stroke="#790F00" stroke-width="1.63285" stroke-miterlimit="10" stroke-linecap="round" stroke-linejoin="round"/>
<path d="M31.3507 16.2059L37.6404 8.20166C37.6404 8.20166 45.6512 12.2479 31.3507 16.2059Z" stroke="#790F00" stroke-width="1.63285" stroke-miterlimit="10" stroke-linecap="round" stroke-linejoin="round"/>
<path d="M54.4392 51.374L49.7366 51.9618" stroke="#790F00" stroke-width="1.63285" stroke-miterlimit="10" stroke-linecap="round" stroke-linejoin="round"/>
<path d="M41.9969 51.668H31.3507" stroke="#790F00" stroke-width="1.63285" stroke-miterlimit="10" stroke-linecap="round" stroke-linejoin="round"/>
</svg>
