<svg width="63" height="63" viewBox="0 0 63 63" fill="none" xmlns="http://www.w3.org/2000/svg">
<rect y="31.2023" width="44.1267" height="44.1267" rx="10" transform="rotate(-45 0 31.2023)" fill="#FD6E31"/>
<g filter="url(#filter0_d_105_3)">
<path d="M32 24.73C32 21.56 27.3 15.96 26.76 15.33C26.6661 15.2202 26.5496 15.1321 26.4184 15.0717C26.2872 15.0112 26.1444 14.9799 26 14.9799C25.8555 14.9799 25.7128 15.0112 25.5816 15.0717C25.4504 15.1321 25.3339 15.2202 25.24 15.33C24.7 16 20 21.56 20 24.73C19.9814 25.5359 20.1219 26.3375 20.4136 27.089C20.7052 27.8405 21.1422 28.5271 21.6995 29.1095C22.2568 29.6919 22.9235 30.1587 23.6614 30.4831C24.3994 30.8075 25.1941 30.9831 26 31C26.8059 30.9831 27.6006 30.8075 28.3385 30.4831C29.0765 30.1587 29.7432 29.6919 30.3005 29.1095C30.8578 28.5271 31.2948 27.8405 31.5864 27.089C31.878 26.3375 32.0186 25.5359 32 24.73Z" fill="white"/>
</g>
<g filter="url(#filter1_d_105_3)">
<path d="M32.74 19.33C32.6338 19.2198 32.5038 19.1355 32.3599 19.0835C32.216 19.0315 32.0621 19.0132 31.91 19.03C33.0732 20.7323 33.7917 22.6988 34 24.75C34.0294 26.9038 33.204 28.9815 31.7045 30.5278C30.205 32.0742 28.1537 32.9632 26 33C24.8214 32.9983 23.6586 32.7281 22.6 32.21C22.2404 33.0984 22.0374 34.0423 22 35C22 37.6522 23.0536 40.1957 24.9289 42.0711C26.8043 43.9464 29.3478 45 32 45C34.6522 45 37.1957 43.9464 39.0711 42.0711C40.9464 40.1957 42 37.6522 42 35C42 29.8 33.69 20.39 32.74 19.33Z" fill="white"/>
</g>
<defs>
<filter id="filter0_d_105_3" x="15.9984" y="14.9799" width="20.0033" height="24.0201" filterUnits="userSpaceOnUse" color-interpolation-filters="sRGB">
<feFlood flood-opacity="0" result="BackgroundImageFix"/>
<feColorMatrix in="SourceAlpha" type="matrix" values="0 0 0 0 0 0 0 0 0 0 0 0 0 0 0 0 0 0 127 0" result="hardAlpha"/>
<feOffset dy="4"/>
<feGaussianBlur stdDeviation="2"/>
<feComposite in2="hardAlpha" operator="out"/>
<feColorMatrix type="matrix" values="0 0 0 0 0 0 0 0 0 0 0 0 0 0 0 0 0 0 0.25 0"/>
<feBlend mode="normal" in2="BackgroundImageFix" result="effect1_dropShadow_105_3"/>
<feBlend mode="normal" in="SourceGraphic" in2="effect1_dropShadow_105_3" result="shape"/>
</filter>
<filter id="filter1_d_105_3" x="18" y="19.0239" width="28" height="33.9761" filterUnits="userSpaceOnUse" color-interpolation-filters="sRGB">
<feFlood flood-opacity="0" result="BackgroundImageFix"/>
<feColorMatrix in="SourceAlpha" type="matrix" values="0 0 0 0 0 0 0 0 0 0 0 0 0 0 0 0 0 0 127 0" result="hardAlpha"/>
<feOffset dy="4"/>
<feGaussianBlur stdDeviation="2"/>
<feComposite in2="hardAlpha" operator="out"/>
<feColorMatrix type="matrix" values="0 0 0 0 0 0 0 0 0 0 0 0 0 0 0 0 0 0 0.25 0"/>
<feBlend mode="normal" in2="BackgroundImageFix" result="effect1_dropShadow_105_3"/>
<feBlend mode="normal" in="SourceGraphic" in2="effect1_dropShadow_105_3" result="shape"/>
</filter>
</defs>
</svg>
