<svg width="31" height="31" viewBox="0 0 31 31" fill="none" xmlns="http://www.w3.org/2000/svg">
<g clip-path="url(#clip0)">
<path d="M29.8476 24.1472L25.2714 19.5705C24.3599 18.6626 22.8504 18.6902 21.9072 19.6338L19.6017 21.9388C19.456 21.8585 19.3052 21.7747 19.1467 21.6857C17.6908 20.879 15.6982 19.7733 13.6013 17.6749C11.4983 15.5721 10.3916 13.5764 9.58239 12.1196C9.497 11.9652 9.41519 11.8164 9.3344 11.6751L10.8817 10.1301L11.6425 9.36841C12.5872 8.42346 12.6132 6.91444 11.7038 6.00396L7.12765 1.42675C6.21828 0.517554 4.70815 0.545136 3.76346 1.49009L2.47373 2.78722L2.50897 2.82221C2.07651 3.37403 1.71513 4.01046 1.4462 4.69678C1.1983 5.35008 1.04396 5.97349 0.973386 6.59818C0.369129 11.6076 2.65829 16.1858 8.87078 22.3984C17.4583 30.9854 24.3788 30.3367 24.6773 30.305C25.3275 30.2273 25.9507 30.0719 26.584 29.826C27.2644 29.5602 27.9004 29.1993 28.4518 28.7678L28.48 28.7928L29.7866 27.5134C30.7293 26.5686 30.7565 25.0591 29.8476 24.1472Z" fill="#0084FF"/>
</g>
<defs>
<clipPath id="clip0">
<rect width="29.632" height="29.632" fill="white" transform="translate(0.879883 0.729492)"/>
</clipPath>
</defs>
</svg>
