<?xml version="1.0" encoding="utf-8"?><svg viewBox="0 0 22 43" xmlns="http://www.w3.org/2000/svg" xmlns:xlink="http://www.w3.org/1999/xlink"><style>:root>svg{display:none}:root>svg:target{display:block}</style><svg fill="none" viewBox="0 0 20 43" id="arrow-right" xmlns="http://www.w3.org/2000/svg"><path fill-rule="evenodd" clip-rule="evenodd" d="M11.89 21.164L0 3.328 4.992 0l14.11 21.164-14.11 21.164L0 39l11.89-17.836z" fill="#fff"/></svg><svg fill="none" viewBox="0 0 20 19" id="comment" xmlns="http://www.w3.org/2000/svg"><path fill-rule="evenodd" clip-rule="evenodd" d="M4.436 13.676c.816 0 1.478.662 1.478 1.479v1.589l3.525-2.754c.26-.204.58-.314.91-.314h4.382a2.957 2.957 0 002.956-2.993L17.611 4.4a2.957 2.957 0 00-2.957-2.92H4.436a2.957 2.957 0 00-2.957 2.957v6.283a2.957 2.957 0 002.957 2.957zm.284 4zM0 4.437v6.283a4.436 4.436 0 004.436 4.436v3.104a.74.74 0 001.194.583l4.72-3.687h4.38a4.435 4.435 0 004.436-4.49l-.077-6.284A4.436 4.436 0 0014.654 0H4.436A4.436 4.436 0 000 4.436z" fill="#53575B"/></svg><svg fill="none" viewBox="0 0 22 22" id="liked" xmlns="http://www.w3.org/2000/svg"><path fill-rule="evenodd" clip-rule="evenodd" d="M5.5 9.862H1.571v10.214H5.5V9.862zM1.571 8.29C.704 8.29 0 8.994 0 9.862v10.214c0 .868.704 1.571 1.571 1.571H5.5c.868 0 1.571-.703 1.571-1.571V9.862c0-.868-.703-1.572-1.571-1.572H1.571z" fill="#53575B"/><path fill-rule="evenodd" clip-rule="evenodd" d="M12.485 1.881c-.274-.119-.64-.178-1.148-.086-.348.064-.49.196-.575.33-.108.173-.183.45-.205.877-.02.391.006.82.035 1.3l.008.126c.03.504.06 1.073.002 1.592-.054.49-.257 1.007-.499 1.485-.247.488-.565.993-.9 1.471-.668.956-1.44 1.86-1.951 2.405a.786.786 0 11-1.147-1.075 21.618 21.618 0 001.81-2.23c.31-.442.583-.88.786-1.281.21-.413.316-.733.34-.949.04-.365.021-.803-.01-1.324l-.008-.138c-.029-.46-.06-.978-.035-1.462.027-.53.124-1.125.445-1.634.345-.547.89-.906 1.623-1.039.769-.14 1.458-.07 2.057.192.595.259 1.044.682 1.379 1.16.652.93.918 2.135 1.021 3.067.077.689.098 1.238.09 1.658h3.058c.977 0 1.728.496 2.212 1.109.473.598.734 1.357.734 2.034a3.5 3.5 0 01-.235 1.308c.314.479.628 1.192.628 2.03 0 .883-.349 1.522-.735 1.913.019.12.04.261.055.411.04.401.055.963-.162 1.505-.378.945-.953 1.484-1.525 1.726l-.015.035a4.714 4.714 0 01-4.333 2.857h-5.88c-.641 0-1.27-.174-1.82-.504l-1.31-.786a.786.786 0 01.808-1.348l1.311.787c.305.183.655.28 1.01.28h5.88c1.258 0 2.394-.75 2.89-1.905l.157-.369a.786.786 0 01.593-.465c.08-.014.467-.123.775-.892.075-.188.09-.445.057-.762-.015-.146-.037-.284-.06-.425l-.002-.02a2.997 2.997 0 01-.05-.466.786.786 0 01.435-.704.69.69 0 00.177-.197c.086-.136.173-.351.173-.67 0-.676-.394-1.247-.556-1.409a.785.785 0 01-.016-1.094c-.001-.001.035-.05.077-.168.051-.142.102-.363.102-.668 0-.306-.132-.725-.396-1.06-.253-.32-.581-.512-.98-.512h-3.928a.786.786 0 01-.745-1.04c.006-.031.034-.18.043-.49.01-.346-.004-.85-.079-1.526-.093-.836-.319-1.73-.746-2.339-.206-.293-.444-.5-.72-.62z" fill="#53575B"/></svg><svg fill="none" viewBox="0 0 20 19" id="share" xmlns="http://www.w3.org/2000/svg"><path fill-rule="evenodd" clip-rule="evenodd" d="M11.11 6.024a1.531 1.531 0 01-1.186.393c-.816-.082-3.584.265-6.012 2.983-.788.883-1.38 2.249-1.778 3.88a21.139 21.139 0 00-.478 2.886c.745-.857 1.591-1.736 2.47-2.432 2.474-1.959 4.983-2.26 6.204-2.055a1.547 1.547 0 011.286 1.53v2.653l6.69-6.743-6.69-6.993v2.748c0 .438-.184.856-.506 1.15zm-1.85-1.15c-1.563.123-4.195.917-6.491 3.489C.704 10.674.079 14.96 0 18.009c-.025 1 1.05 1.343 1.67.562.953-1.202 2.167-2.636 3.407-3.618 1.263-1 2.5-1.471 3.462-1.664.178-.036.346-.062.503-.08.444-.051.8-.04 1.035 0v3.588c0 1.037 1.243 1.555 1.97.823l7.615-7.674a1.17 1.17 0 00.015-1.63L12.062.358c-.72-.753-1.985-.239-1.985.807v3.71a4.67 4.67 0 00-.817 0z" fill="#616266"/></svg><svg fill="none" viewBox="0 0 10 10" id="traced" xmlns="http://www.w3.org/2000/svg"><path fill-rule="evenodd" clip-rule="evenodd" d="M3.899.1c-5.756 1.469-4.906 9.748 1.017 9.898 4.993.127 7.02-6.503 2.797-9.147C6.573.137 4.98-.177 3.899.1zm2.679 1.297c0 .208-.187.49-.415.626-.228.136-.415.598-.415 1.027 0 .602-.307.79-1.348.826-.742.026-1.022.13-.622.23.4.102.726.352.726.556 0 .205.425.372.944.372.52 0 1.35.274 1.843.61.77.522.838.773.478 1.774-.477 1.324-1.524 1.906-1.867 1.038-.127-.32-.568-.684-.98-.81-.413-.127-.864-.667-1.002-1.2-.138-.533-.76-1.205-1.384-1.494-1.511-.701-1.633-1.688-.361-2.92.774-.75 1.484-1.013 2.725-1.013.923 0 1.678.17 1.678.378z" fill="#B2B2B2"/></svg></svg>