<svg width="37" height="37" viewBox="0 0 37 37" fill="none" xmlns="http://www.w3.org/2000/svg">
<path d="M27.9442 21.9979C25.3724 21.9979 23.2803 24.0901 23.2803 26.6618C23.2803 29.2335 25.3724 31.3257 27.9442 31.3257C30.5163 31.3257 32.608 29.2335 32.608 26.6618C32.608 24.0901 30.5159 21.9979 27.9442 21.9979ZM27.9442 28.9937C26.6581 28.9937 25.6122 27.9478 25.6122 26.6618C25.6122 25.3758 26.6581 24.3299 27.9442 24.3299C29.2302 24.3299 30.2761 25.3758 30.2761 26.6618C30.2761 27.9479 29.2302 28.9937 27.9442 28.9937Z" fill="white"/>
<path d="M12.0096 21.9979C9.43787 21.9979 7.3457 24.0901 7.3457 26.6618C7.3457 29.2335 9.43787 31.3257 12.0096 31.3257C14.5813 31.3257 16.6735 29.2335 16.6735 26.6618C16.6735 24.0901 14.5813 21.9979 12.0096 21.9979ZM12.0096 28.9937C10.7235 28.9937 9.67764 27.9478 9.67764 26.6618C9.67764 25.3758 10.7235 24.3299 12.0096 24.3299C13.2953 24.3299 14.3415 25.3758 14.3415 26.6618C14.3415 27.9479 13.2956 28.9937 12.0096 28.9937Z" fill="white"/>
<path d="M31.0851 8.64841C30.8869 8.25471 30.4839 8.00633 30.0431 8.00633H23.9023V10.3383H29.3241L32.499 16.6531L34.583 15.6053L31.0851 8.64841Z" fill="white"/>
<path d="M24.447 25.5347H15.6245V27.8666H24.447V25.5347Z" fill="white"/>
<path d="M8.51112 25.5347H4.46916C3.82513 25.5347 3.30322 26.0566 3.30322 26.7006C3.30322 27.3446 3.8252 27.8665 4.46916 27.8665H8.51119C9.15522 27.8665 9.67712 27.3445 9.67712 26.7006C9.67712 26.0566 9.15515 25.5347 8.51112 25.5347Z" fill="white"/>
<path d="M36.7548 18.4067L34.4614 15.4529C34.241 15.1684 33.9009 15.002 33.5406 15.002H25.0679V6.84029C25.0679 6.19626 24.5459 5.67435 23.902 5.67435H4.46916C3.82513 5.67435 3.30322 6.19633 3.30322 6.84029C3.30322 7.48425 3.8252 8.00622 4.46916 8.00622H22.736V16.168C22.736 16.812 23.2579 17.3339 23.9019 17.3339H32.9696L34.6677 19.5212V25.5345H31.4418C30.7978 25.5345 30.2759 26.0565 30.2759 26.7005C30.2759 27.3445 30.7978 27.8664 31.4418 27.8664H35.8336C36.4776 27.8664 36.9995 27.3444 36.9996 26.7005V19.1218C36.9996 18.863 36.9133 18.6111 36.7548 18.4067Z" fill="white"/>
<path d="M8.43371 19.6271H3.07023C2.4262 19.6271 1.9043 20.1491 1.9043 20.793C1.9043 21.437 2.42627 21.9589 3.07023 21.9589H8.43364C9.07767 21.9589 9.59958 21.437 9.59958 20.793C9.59965 20.1491 9.07767 19.6271 8.43371 19.6271Z" fill="white"/>
<path d="M11.1155 15.0409H1.16593C0.521975 15.0409 0 15.5629 0 16.2069C0 16.8509 0.521975 17.3728 1.16593 17.3728H11.1155C11.7596 17.3728 12.2815 16.8508 12.2815 16.2069C12.2815 15.5629 11.7596 15.0409 11.1155 15.0409Z" fill="white"/>
<path d="M13.0198 10.4548H3.07023C2.4262 10.4548 1.9043 10.9768 1.9043 11.6207C1.9043 12.2648 2.42627 12.7867 3.07023 12.7867H13.0198C13.6639 12.7867 14.1858 12.2647 14.1858 11.6207C14.1858 10.9768 13.6639 10.4548 13.0198 10.4548Z" fill="white"/>
</svg>
