<svg xmlns="http://www.w3.org/2000/svg" width="129" height="33" viewBox="0 0 129 33">
  <defs>
    <style>
      .cls-1 {
        fill: #02305e;
        fill-rule: evenodd;
      }
    </style>
  </defs>
  <path id="logo" class="cls-1" d="M605.808,950.985c-8.631,0-14.809-6.764-14.809-16.575,0-9.771,6.178-16.412,14.809-16.412s14.809,6.641,14.809,16.412c0,9.811-6.179,16.575-14.809,16.575h0Zm5-19.218c-0.2-6.8-2.222-8.575-5-8.575s-4.839,1.775-5.035,8.575h10.036Zm-10.036,4.991c0.163,7.091,2.223,9.072,5.035,9.072s4.838-1.981,5-9.072H600.773ZM620.1,950.445V945.7h2.125c1.177,0,1.7-.328,1.7-1.855V925.214c0-1.485-.523-1.774-1.7-1.774H620.1V918.7h26.218v12.863H642.1v-2.1c0-4.124-1.732-6.022-4.38-6.022h-3.4c-1.177,0-1.733.289-1.733,1.774v6.762h1.831c1.046,0,1.471-.826,1.471-2.186v-2.64h3.792v15.011h-3.792v-3.382c0-1.318-.523-2.1-1.569-2.1h-1.733v7.174c0,1.527.393,1.855,1.57,1.855h3.138c3.171,0,5.1-1.4,5.1-6.595v-2.021h4.217v13.357H620.1Zm52.272,0V945.7h1.667c1.21,0,1.766-.742,1.766-2.225V926.2l-6.636,24.242h-5.3l-6.734-24.2v16.823c0,1.526.817,2.638,1.994,2.638h1.7v4.741H648.864V945.7h1.8c1.178,0,2.027-1.112,2.027-2.638V926c0-1.481-.817-2.557-1.994-2.557h-1.83V918.7h14.678l5.1,18.266,4.741-18.266h13.992v4.739h-1.635c-1.177,0-1.732.7-1.732,2.186v17.853c0,1.483.555,2.225,1.732,2.225h1.635v4.741H672.368Zm31.776,0V945.7h2.68c1.079,0,1.471-.906,1.144-2.019l-0.588-2.1h-9.153l-0.556,1.9c-0.458,1.568.032,2.225,1.308,2.225h2.092v4.741H689.4V945.7h0.686a2.475,2.475,0,0,0,2.55-1.771L700.58,918.7h8.467L716.73,943.4c0.424,1.4,1.143,2.308,2.353,2.308H720v4.741H704.144ZM702.9,926.533l-3.236,10.473h6.309L702.9,926.533h0Z" transform="translate(-591 -918)"/>
</svg>
