<?xml version="1.0" encoding="utf-8"?>
<!-- Generator: Adobe Illustrator 16.0.0, SVG Export Plug-In . SVG Version: 6.00 Build 0)  -->
<!DOCTYPE svg PUBLIC "-//W3C//DTD SVG 1.1//EN" "http://www.w3.org/Graphics/SVG/1.1/DTD/svg11.dtd">
<svg version="1.1" id="Layer_1" xmlns="http://www.w3.org/2000/svg" xmlns:xlink="http://www.w3.org/1999/xlink" x="0px" y="0px"
	 width="414.273px" height="144.709px" viewBox="0 0 414.273 144.709" enable-background="new 0 0 414.273 144.709"
	 xml:space="preserve">
<polyline fill="#F47B23" points="0.5,0 0.5,144.709 414.273,144.709 414.273,0 0.5,0 "/>
<g>
	<path fill="#002E5E" d="M105.643,111.064c-20.316,0-34.86-15.775-34.86-38.671c0-22.796,14.543-38.283,34.86-38.283
		c20.314,0,34.858,15.486,34.858,38.283C140.5,95.289,125.957,111.064,105.643,111.064L105.643,111.064z M117.416,66.238
		c-0.462-15.871-5.232-20.007-11.773-20.007c-6.542,0-11.39,4.136-11.852,20.007H117.416L117.416,66.238z M93.791,77.879
		c0.384,16.545,5.233,21.16,11.852,21.16c6.617,0,11.388-4.615,11.773-21.16H93.791L93.791,77.879z"/>
	<path fill="#002E5E" d="M139.276,109.813V98.752h5.001c2.77,0,4.003-0.771,4.003-4.328V50.945c0-3.464-1.233-4.136-4.003-4.136
		h-5.001V35.747h61.714v30.011h-9.926v-4.906c0-9.619-4.078-14.043-10.312-14.043h-8.002c-2.771,0-4.079,0.672-4.079,4.136V66.72
		h4.309c2.462,0,3.463-1.924,3.463-5.099v-6.156h8.926v35.014h-8.926v-7.887c0-3.08-1.231-4.908-3.693-4.908h-4.079v16.74
		c0,3.557,0.924,4.328,3.694,4.328h7.387c7.464,0,12.004-3.27,12.004-15.391v-4.715h9.926v31.166H139.276L139.276,109.813z"/>
	<path fill="#002E5E" d="M262.319,109.813V98.752h3.924c2.849,0,4.156-1.732,4.156-5.195V53.253l-15.621,56.559h-12.466
		L226.46,53.35v39.246c0,3.559,1.925,6.156,4.694,6.156h4.002v11.061h-28.165V98.752h4.232c2.771,0,4.771-2.598,4.771-6.156V52.771
		c0-3.461-1.923-5.962-4.694-5.962h-4.309V35.747h34.55l12.005,42.613l11.158-42.613h32.937v11.063h-3.85
		c-2.769,0-4.077,1.633-4.077,5.098v41.65c0,3.463,1.309,5.195,4.077,5.195h3.85v11.061H262.319L262.319,109.813z"/>
	<path fill="#002E5E" d="M337.115,109.813V98.752h6.312c2.538,0,3.461-2.119,2.691-4.715l-1.383-4.906h-21.546l-1.31,4.426
		c-1.078,3.654,0.074,5.195,3.079,5.195h4.924v11.061H302.41V98.752h1.615c2.386,0,5.002-0.961,6.003-4.139l18.699-58.867h19.931
		l18.084,57.617c0.999,3.27,2.691,5.389,5.54,5.389h2.153v11.061H337.115L337.115,109.813z M334.191,54.023l-7.617,24.432h14.849
		L334.191,54.023L334.191,54.023z"/>
</g>
<g>
	<rect x="39.751" y="31.936" fill="#002E5E" width="22.868" height="81.302"/>
	<g>
		<defs>
			<rect id="SVGID_1_" x="39.751" y="31.936" width="22.868" height="81.302"/>
		</defs>
		<clipPath id="SVGID_2_">
			<use xlink:href="#SVGID_1_"  overflow="visible"/>
		</clipPath>
		<path clip-path="url(#SVGID_2_)" fill="#FFFFFF" d="M47.576,99.158v1.789c0,0.512,0.24,0.738,0.751,0.738h6.148
			c0.512,0,0.769-0.227,0.769-0.738v-0.613h1.634v6.82h-1.634v-0.926c0-0.51-0.257-0.738-0.769-0.738h-6.148
			c-0.512,0-0.751,0.229-0.751,0.738v1.068h-1.635V92.824h1.635v1.063c0,0.514,0.24,0.729,0.751,0.729h6.148
			c0.512,0,0.769-0.215,0.769-0.729v-0.92h1.634v6.801h-1.634v-0.609c0-0.514-0.257-0.74-0.769-0.74h-6.148
			C47.816,98.418,47.576,98.645,47.576,99.158"/>
		<path clip-path="url(#SVGID_2_)" fill="#FFFFFF" d="M47.493,85.229v0.268c0,0.516,0.27,0.896,0.779,0.896h2.554v-0.994
			c0-1.023-0.581-1.605-1.716-1.605C48.187,83.793,47.493,84.332,47.493,85.229 M52.518,83.725v2.668h1.96
			c0.512,0,0.766-0.227,0.766-0.74v-1.293h1.633v7.498h-1.633v-0.92c0-0.512-0.254-0.738-0.766-0.738h-5.809
			c-0.739,0-1.094,0.195-1.094,0.723v0.936h-1.632v-7.182c0-3.281,0.993-4.945,3.194-4.945
			C51.312,79.73,52.518,80.982,52.518,83.725"/>
		<path clip-path="url(#SVGID_2_)" fill="#FFFFFF" d="M54.819,71.682c-0.271-0.952-0.965-1.562-3.65-1.562
			c-2.999,0-3.791,0.626-3.791,1.974c0,1.346,0.792,1.988,3.791,1.988c2.582,0,3.378-0.514,3.636-1.465h2.072v5.723h-1.733
			l-0.355-1.404c-0.935,0.938-2.059,1.463-3.62,1.463c-3.252,0-5.523-2.475-5.523-6.217c0-3.753,2.271-6.222,5.523-6.222
			c1.561,0,2.685,0.526,3.62,1.461l0.355-1.407h1.733v5.668H54.819z"/>
		<path clip-path="url(#SVGID_2_)" fill="#FFFFFF" d="M50.699,54.672h-1.363c-1.149,0-1.831,0.479-1.831,1.631v0.512h6.83
			c0.523,0,0.908-0.383,0.908-0.896V54.7h1.634v8.064h-1.634v-1.236c0-0.508-0.385-0.879-0.908-0.879h-6.83v0.511
			c0,1.149,0.682,1.632,1.831,1.632h1.363v1.847h-4.756V52.826h4.756V54.672z"/>
		<path clip-path="url(#SVGID_2_)" fill="#FFFFFF" d="M47.49,45.47c0,1.347,0.768,1.771,3.865,1.771
			c3.109,0,3.933-0.424,3.933-1.771c0-1.349-0.824-1.763-3.933-1.763C48.258,43.707,47.49,44.122,47.49,45.47 M57.062,45.47
			c0,3.748-2.329,6.003-5.707,6.003c-3.366,0-5.655-2.255-5.655-6.003c0-3.753,2.289-6.008,5.655-6.008
			C54.733,39.462,57.062,41.717,57.062,45.47"/>
	</g>
</g>
</svg>
