<svg viewBox="0 0 40 40" fill="none" xmlns="http://www.w3.org/2000/svg">
<path d="M17.1373 22.1797C17.1373 20.0504 15.405 18.3182 13.2757 18.3182C11.1465 18.3182 9.41412 20.0504 9.41412 22.1797H11.7579C11.7579 21.3428 12.4388 20.6619 13.2757 20.6619C14.1127 20.6619 14.7935 21.3428 14.7935 22.1797H17.1373Z" fill="white"/>
<path d="M26.7243 18.3181C24.595 18.3181 22.8627 20.0504 22.8627 22.1797H25.2065C25.2065 21.3427 25.8874 20.6619 26.7243 20.6619C27.5612 20.6619 28.2422 21.3427 28.2422 22.1797H30.5859C30.5859 20.0504 28.8536 18.3181 26.7243 18.3181Z" fill="white"/>
<path d="M20 29.0375C18.5183 29.0375 17.1289 28.2429 16.374 26.9636L14.3554 28.1546C15.5298 30.1449 17.6927 31.3812 19.9999 31.3812C22.3072 31.3812 24.47 30.1449 25.6444 28.1546L23.6259 26.9636C22.8711 28.2428 21.4817 29.0375 20 29.0375Z" fill="white"/>
<path d="M38.4751 18.0288C37.7287 17.2832 36.7913 16.7902 35.7739 16.5972C33.5768 9.80755 27.2031 5.1328 20 5.1328H19.2143C17.3275 5.1328 15.7924 3.59768 15.7924 1.71094H13.4487C13.4487 2.99127 13.8687 4.175 14.5774 5.1328H13.8349C11.9481 5.1328 10.413 3.59768 10.413 1.71094H8.06927C8.06927 4.25745 9.72929 6.42214 12.0235 7.18341C8.39505 9.17822 5.55106 12.5028 4.22614 16.5972C3.20874 16.7902 2.27118 17.2834 1.52414 18.0296C0.541279 19.0135 7.62939e-06 20.3209 7.62939e-06 21.7109C7.62939e-06 23.0839 0.529658 24.3793 1.49149 25.3585C2.2432 26.1238 3.19253 26.6288 4.22614 26.8248C6.42317 33.6144 12.7968 38.2891 20 38.2891C27.2032 38.2891 33.5768 33.6144 35.7739 26.8248C36.8075 26.6288 37.7568 26.1238 38.5085 25.3585C39.4704 24.3793 40 23.0839 40 21.7109C40 20.3209 39.4587 19.0135 38.4751 18.0288ZM34.8505 24.572L33.9711 24.5887L33.7414 25.4378C32.0684 31.6244 26.4177 35.9453 19.9999 35.9453C13.5821 35.9453 7.93156 31.6245 6.25858 25.4378L6.02893 24.5887L5.14947 24.572C3.60234 24.5427 2.34367 23.2593 2.34367 21.7109C2.34367 20.9464 2.64146 20.2273 3.18123 19.6869C3.70764 19.161 4.40662 18.8637 5.14924 18.8498L6.02885 18.8333L6.2585 17.984C7.93156 11.7975 13.5822 7.47662 20 7.47662C22.1182 7.47662 23.8415 9.19988 23.8415 11.3181C23.8415 13.4363 22.1182 15.1596 20 15.1596C17.8818 15.1596 16.1585 13.4364 16.1585 11.3182H13.8148C13.8148 14.7287 16.5894 17.5034 20 17.5034C23.4106 17.5034 26.1852 14.7287 26.1852 11.3182C26.1852 10.3476 25.9599 9.42889 25.5598 8.61054C29.4906 10.2826 32.5779 13.6819 33.7414 17.9841L33.9711 18.8334L34.8507 18.8499C35.5934 18.8638 36.2923 19.1611 36.8178 19.686C37.3585 20.2274 37.6563 20.9465 37.6563 21.711C37.6563 23.2594 36.3976 24.5428 34.8505 24.572Z" fill="white"/>
</svg>
