<svg  viewBox="0 0 42 42" fill="none" xmlns="http://www.w3.org/2000/svg">
<path d="M20.9999 26.1706C23.8562 26.1706 26.1716 23.8551 26.1716 20.9988C26.1716 18.1426 23.8562 15.8271 20.9999 15.8271C18.1436 15.8271 15.8281 18.1426 15.8281 20.9988C15.8281 23.8551 18.1436 26.1706 20.9999 26.1706Z" fill="white"/>
<path d="M41.7397 20.3438C41.3609 19.943 32.3503 10.4969 20.9974 10.4969C9.64569 10.4969 0.636386 19.943 0.258604 20.3438C-0.085947 20.7118 -0.085947 21.2857 0.258604 21.652C0.637885 22.0528 9.64743 31.5031 20.9974 31.5031C32.3503 31.5031 41.3636 22.0528 41.7397 21.652C42.0867 21.2857 42.0867 20.7088 41.7397 20.3438ZM20.9999 28.994C16.5927 28.994 13.0072 25.4078 13.0072 20.9971C13.0072 16.5899 16.5927 13.0018 20.9999 13.0018C25.4068 13.0018 28.9973 16.5887 28.9973 20.9971C28.9963 25.4053 25.4068 28.994 20.9999 28.994ZM14.662 13.4495C12.502 15.2672 11.0968 17.9579 11.0968 20.9971C11.0968 24.0351 12.502 26.7261 14.662 28.547C8.68549 26.6249 3.9922 22.5805 2.31467 20.9971C3.99245 19.4156 8.68674 15.3706 14.662 13.4495ZM27.3407 28.544C29.4992 26.7251 30.9062 24.0336 30.9062 20.9971C30.9062 17.9606 29.5005 15.2712 27.339 13.4522C33.3153 15.3744 38.0051 19.4138 39.6836 20.9971C38.0048 22.579 33.315 26.6191 27.3407 28.544Z" fill="white"/>
</svg>
