<svg viewBox="0 0 39 39" fill="none" xmlns="http://www.w3.org/2000/svg">
<g clip-path="url(#clip0)">
<path d="M37.8592 33.667L35.5973 33.6635C36.9977 32.2575 37.8646 30.3198 37.8646 28.1833C37.8646 27.5523 37.353 27.0407 36.722 27.0407C36.091 27.0407 35.5795 27.5523 35.5795 28.1833C35.5795 31.0906 33.3053 33.4755 30.4426 33.6555L24.3267 33.646C19.8518 33.6392 16.0518 30.69 14.7597 26.6357C14.2717 26.8963 13.72 27.0407 13.1453 27.0407H13.1336C12.9094 27.0399 12.6891 27.0164 12.4744 26.9737C13.9477 32.1308 18.7017 35.9225 24.3232 35.9312L30.7748 35.9693C31.2787 35.9693 31.6773 36.1374 32.0291 36.4982C32.3954 36.8738 32.5389 37.2591 32.5246 37.8284C32.5087 38.4593 33.0071 38.9836 33.638 38.9995C33.6478 38.9997 33.6576 38.9999 33.6673 38.9999C34.2849 38.9999 34.7934 38.5071 34.809 37.8861C34.8272 37.1657 34.6956 36.5237 34.4116 35.9466L37.8558 35.952H37.8576C38.4877 35.952 38.9991 35.4415 39.0001 34.8111C39.0009 34.1803 38.4902 33.668 37.8592 33.667Z" fill="white"/>
<path d="M14.2876 13.7108C14.2876 13.0808 13.7751 12.5682 13.145 12.5682C12.5149 12.5682 12.0024 13.0808 12.0024 13.7108C12.0024 14.3408 12.5149 14.8534 13.145 14.8534C13.775 14.8534 14.2876 14.3408 14.2876 13.7108Z" fill="white"/>
<path d="M13.1443 24.7557C13.565 24.7557 13.9519 24.5243 14.1509 24.1535L15.24 22.125C16.0551 20.6066 17.5453 19.7162 19.2524 19.7162C19.314 19.7162 21.308 19.7898 21.308 19.7898C21.4335 19.9356 21.5268 20.1085 21.5783 20.3007C21.6681 20.636 21.6229 20.9847 21.4508 21.2828C21.1352 21.8292 21.3225 22.528 21.869 22.8435C22.0489 22.9474 22.2454 22.9968 22.4392 22.9968C22.8341 22.9968 23.2181 22.7919 23.4298 22.4254C23.8858 21.6355 24.0205 20.7198 23.8154 19.8329C24.6512 19.5769 25.3966 19.0184 25.8672 18.2035C26.1827 17.657 25.9955 16.9582 25.449 16.6427C24.9024 16.3272 24.2037 16.5144 23.8882 17.0609C23.5921 17.5739 22.9957 17.8065 22.4479 17.6674L21.479 16.103C20.5389 14.5851 20.5449 12.7764 21.495 11.2647L22.379 9.85816C22.5185 9.8494 22.66 9.86205 22.7994 9.89937C23.1347 9.98925 23.4141 10.2028 23.5861 10.5008C23.7977 10.8674 24.1818 11.0723 24.5767 11.0723C24.7705 11.0723 24.967 11.0229 25.1469 10.919C25.6934 10.6035 25.8806 9.9047 25.5651 9.35825C25.1091 8.56858 24.3837 7.9941 23.5135 7.72819C23.7183 6.84155 23.5835 5.92605 23.1276 5.13638C22.812 4.58985 22.1131 4.4027 21.5668 4.7182C21.0203 5.0337 20.8331 5.7325 21.1486 6.27895C21.3207 6.57693 21.366 6.92572 21.2762 7.26103C21.2399 7.39623 21.1827 7.52169 21.1088 7.63533L19.3834 7.68873C17.6026 7.74304 16.0355 6.83439 15.2013 5.25574L14.2894 3.53016C14.3159 2.83936 14.8846 2.28514 15.5817 2.28514C16.2128 2.28514 16.7243 1.77357 16.7243 1.14257C16.7243 0.511566 16.2128 0 15.5817 0C14.6407 0 13.784 0.365546 13.1443 0.961282C12.5047 0.365546 11.6478 0 10.7069 0C10.0759 0 9.56429 0.511566 9.56429 1.14257C9.56429 1.77357 10.0759 2.28514 10.7069 2.28514C11.4027 2.28514 11.9705 2.8373 11.999 3.52635L11.0486 5.29657C10.2041 6.86966 8.63143 7.76833 6.85062 7.70191L4.90635 7.62893C4.65171 7.23368 4.6204 6.71343 4.87115 6.27903C5.18673 5.73257 4.99943 5.03378 4.45297 4.71828C3.90622 4.40278 3.20757 4.59008 2.89222 5.13653C2.42171 5.95157 2.30982 6.87644 2.50604 7.72834C1.63593 7.99425 0.910553 8.56874 0.454744 9.35825C0.139167 9.9047 0.326396 10.6035 0.872924 10.919C1.05284 11.0229 1.24929 11.0723 1.44314 11.0723C1.83801 11.0723 2.22207 10.8674 2.43367 10.5008C2.60574 10.2028 2.88514 9.98925 3.22045 9.89937C3.46092 9.83486 3.70817 9.8411 3.93882 9.91263L4.80946 11.3184C5.74949 12.8363 5.74354 14.6451 4.79354 16.1568L3.90043 17.5349C3.28245 17.8919 2.48867 17.6793 2.1315 17.0609C1.816 16.5144 1.11698 16.3272 0.570753 16.6427C0.0242241 16.9582 -0.163005 17.657 0.152573 18.2035C0.623083 19.0184 1.36827 19.5768 2.20402 19.8329C2.00757 20.6849 2.11931 21.6101 2.58998 22.4253C2.80158 22.7919 3.18564 22.9968 3.58051 22.9968C3.77436 22.9968 3.97081 22.9474 4.15073 22.8435C4.69718 22.528 4.88448 21.8292 4.56891 21.2828C4.28898 20.798 4.36058 20.2063 4.70221 19.8009L6.90508 19.7328C8.68635 19.6792 10.253 20.5871 11.0871 22.1658L12.1339 24.1468C12.3311 24.5201 12.7182 24.7542 13.1403 24.7557H13.1443ZM9.71656 13.7108C9.71656 11.8208 11.2542 10.2831 13.1443 10.2831C15.0343 10.2831 16.5721 11.8208 16.5721 13.7108C16.5721 15.6009 15.0343 17.1385 13.1443 17.1385C11.2542 17.1385 9.71656 15.6009 9.71656 13.7108Z" fill="white"/>
</g>
<defs>
<clipPath id="clip0">
<rect width="39" height="39" fill="white"/>
</clipPath>
</defs>
</svg>
