<svg width="160" height="160" xmlns="http://www.w3.org/2000/svg"><path d="M3.074 140.989v6.855H1.851v-6.855H0v-1.2h4.903v1.2H3.074zm6.553 6.855v-3.534H7v3.534H5.88v-8.056h1.122v3.332h2.626v-3.332h1.122v8.056H9.627zm2.468 0v-8.056H15.9v1.2h-2.682v2.132h1.66v1.19h-1.66v2.345H15.9v1.189h-3.804zm13.273-6.71l-.93.674c-.337-.629-.708-.853-1.46-.853-1.099 0-1.739 1.133-1.739 2.861 0 1.616.707 2.85 1.784 2.85.685 0 1.044-.325 1.37-.73l.908.663c-.527.908-1.301 1.357-2.322 1.357-1.683 0-2.884-1.761-2.884-4.14 0-2.345 1.11-4.14 2.884-4.14 1.1 0 1.896.482 2.39 1.458zm5.173 6.71l-.382-1.548h-2.535l-.37 1.548h-1.212l2.109-8.056h1.481l2.098 8.056h-1.19zm-1.66-6.833l-.977 4.095h1.964l-.988-4.095zm3.477 6.272l.416-1.178c.47.359.998.628 1.75.628.73 0 1.2-.392 1.2-.998 0-.573-.415-.954-1.234-1.504-.516-.348-1.167-.73-1.627-1.301-.314-.393-.437-.707-.437-1.336 0-1.256 1.032-1.918 2.143-1.918.841 0 1.616.213 1.918.572l-.302 1.234c-.36-.348-.864-.55-1.538-.55-.684 0-1.11.292-1.11.797 0 .258.1.449.291.628.28.259.595.472.91.674 1.2.774 2.108 1.368 2.108 2.591 0 1.448-1.02 2.334-2.333 2.334-.954 0-1.65-.291-2.155-.673zm5.644.561v-8.056h3.804v1.2h-2.682v2.132h1.66v1.19h-1.66v2.345h2.682v1.189h-3.804zm4.937-.561l.415-1.178c.471.359.999.628 1.75.628.73 0 1.2-.392 1.2-.998 0-.573-.414-.954-1.233-1.504-.516-.348-1.167-.73-1.627-1.301-.314-.393-.438-.707-.438-1.336 0-1.256 1.033-1.918 2.143-1.918.842 0 1.616.213 1.919.572l-.303 1.234c-.36-.348-.864-.55-1.537-.55-.685 0-1.111.292-1.111.797 0 .258.101.449.292.628.28.259.594.472.909.674 1.2.774 2.109 1.368 2.109 2.591 0 1.448-1.021 2.334-2.334 2.334-.954 0-1.65-.291-2.154-.673zm11.32-6.294v6.855h-1.222v-6.855h-1.851v-1.2h4.903v1.2h-1.83zm6.553 6.855v-3.534h-2.625v3.534h-1.122v-8.056h1.122v3.332h2.625v-3.332h1.122v8.056h-1.122zm2.469 0v-8.056h3.803v1.2h-2.681v2.132h1.66v1.19h-1.66v2.345h2.681v1.189h-3.803zm7.865-3.074v3.074h-1.212v-3.052l-2.087-5.004h1.257l1.447 3.635 1.437-3.635h1.245l-2.087 4.982zm-60.74 7.408l-.93.673c-.337-.628-.708-.852-1.46-.852-1.099 0-1.738 1.133-1.738 2.86 0 1.617.706 2.85 1.784 2.85.684 0 1.043-.325 1.368-.729l.91.662c-.528.91-1.302 1.358-2.323 1.358-1.683 0-2.884-1.762-2.884-4.14 0-2.345 1.11-4.14 2.884-4.14 1.1 0 1.896.482 2.39 1.458zm5.173 6.71l-.382-1.549h-2.535l-.37 1.549H11.08l2.11-8.056h1.48l2.098 8.056H15.58zm-1.66-6.833l-.977 4.095h1.964l-.988-4.095zm7.349 6.833l-2.581-5.734v5.734h-1.11v-8.056h1.368l2.468 5.498v-5.498h1.122v8.056h-1.267zm2.457-5.79v-.224c.37-.056.56-.225.594-.763h-.18c-.403 0-.695-.337-.695-.797s.292-.808.696-.808c.348 0 .64.348.64.808 0 .988-.348 1.683-1.055 1.784zm5.049-1.066v6.856H27.55v-6.856h-1.852v-1.2h4.904v1.2h-1.83zm6.911 0v2.132h1.717v1.19h-1.717v3.534h-1.122v-8.056h3.804v1.2h-2.682zM41.901 159c-1.694 0-2.861-1.56-2.861-4.14 0-2.592 1.167-4.14 2.861-4.14 1.706 0 2.872 1.548 2.872 4.14 0 2.58-1.166 4.14-2.872 4.14zm0-1.257c1.032 0 1.773-.93 1.773-2.883 0-1.93-.64-2.895-1.773-2.895-1.122 0-1.761.965-1.761 2.895 0 1.952.74 2.883 1.761 2.883zm6.72-5.71h-1.48v2.49h1.48c.73 0 1.044-.404 1.044-1.212 0-.852-.314-1.279-1.043-1.279zm.955 6.855l-1.28-3.175h-1.155v3.175h-1.122v-8.056h2.513c1.47 0 2.244.909 2.244 2.446 0 1.167-.527 1.918-1.358 2.221l1.37 3.389h-1.212zm5.026.112c-1.717 0-2.861-1.795-2.861-4.14 0-2.558 1.19-4.14 2.861-4.14 1.178 0 1.874.482 2.424 1.48l-.943.651c-.325-.617-.718-.852-1.391-.852-1.122 0-1.773.931-1.773 2.86 0 1.661.628 2.896 1.683 2.896.988 0 1.425-.651 1.425-1.717h-1.313v-1.2h2.66v.538c0 1.963-.988 3.624-2.772 3.624zm3.95-.112v-8.056h3.803v1.2h-2.681v2.132h1.66v1.19h-1.66v2.344h2.681v1.19h-3.803zm7.809-6.856v6.856h-1.223v-6.856h-1.852v-1.2h4.904v1.2h-1.83zM.097 130.407V80.01h6.191l6.624 28.654V80.01h6.12v50.397H12.84l-6.624-28.654v28.654H.096zm22.534-8.352V88.361c0-5.255 3.816-9.071 9.072-9.071 5.256 0 9.143 3.816 9.143 9.071v8.712h-6.695V88.36c0-1.44-1.008-2.448-2.448-2.448-1.368 0-2.376 1.008-2.376 2.448v33.694c0 1.44 1.008 2.448 2.376 2.448 1.44 0 2.448-1.008 2.448-2.448v-8.783h6.695v8.783c0 5.256-3.887 9.072-9.143 9.072s-9.072-3.816-9.072-9.072zm21.815 8.352V80.01h6.696v50.397h-6.696zm10.296-17.135h6.695v8.783c0 1.44 1.008 2.448 2.376 2.448 1.44 0 2.448-1.008 2.448-2.448v-6.335c0-6.408-11.52-10.44-11.52-21.095v-6.264c0-5.255 3.816-9.071 9.072-9.071 5.256 0 9.144 3.816 9.144 9.071v8.712H66.26V88.36c0-1.44-1.008-2.448-2.448-2.448-1.368 0-2.376 1.008-2.376 2.448v6.264c0 6.408 11.52 10.511 11.52 21.095v6.335c0 5.256-3.888 9.072-9.144 9.072s-9.071-3.816-9.071-9.072v-8.783z" fill="#F2F2F2" fill-rule="evenodd"/></svg>