<svg width="160" height="160" xmlns="http://www.w3.org/2000/svg"><path d="M55.543 123.809h10.633v-3.321l.208-.296-.218-.113v-.257s-.823-.084-1.49-.084v-.567s-.327-.12-.54-.136v-.324l-.79-.57s-.834-1.283-2.487-1.283c-1.652 0-2.486 1.282-2.486 1.282l-.79.571v.324c-.213.016-.54.136-.54.136v.567c-.667 0-1.49.084-1.49.084v.257l-.218.113.208.296v3.32zm16.282 0l-.54-20.723-1.069-2.108-.968 2.17-.708 20.66h3.285zM.3 122.472l-.205.392.205.13v.815h53.015v-.816l.204-.13-.204-.391v-2.835l.3-.364h-.3v-.497h-.91v-.248h-7.724l-.344.213h-1.334l-1.874.908H38.63v-.31h-2.536s-.343-.184-.626-.273v-.676s-.13-.197-.67-.197-.671.197-.671.197v.676c-.283.089-.626.273-.626.273h-.393v-.629h-1.945l.165-.265h-.165v-.252l-.424-.061.044-.263-.082-.082v-2.155s.165-.029.165-.312c0-.284-.17-.275-.17-.275v-.188s-.415-.232-.69-.327v-1.132s.255-.192.255-.493-.313-.449-.313-.449-.027-.569-.374-.88c0 0-.277-2.298-1.725-2.911v-.315s-.205-.239-.442-.271c-.237-.033 0-.064 0-.064v-.232l-.12-.248v-1.037l.268-.348-.314-.212s-.038-.122-.095-.263c-.057-.141-.095-.156-.096-.297 0-.14-.034-.312-.04-.369-.005-.056-.032-.189-.022-.397.009-.208.028-.206.056-.436.029-.23-.056-.416-.067-.45a1.448 1.448 0 01-.052-.334c.003-.113-.113-.075-.142-.054-.028.02-.108.235-.106.322 0 .087-.07.339-.093.406-.022.067.054.306.093.37.04.064-.006.24 0 .343.006.103-.076.22-.081.304-.006.085-.019.324-.026.412a.468.468 0 01-.082.241c-.06.094-.114.202-.114.202l-.314.212.267.348v1.037l-.12.248v.232s.237.031 0 .064c-.237.032-.44.27-.44.27v.316c-1.45.613-1.726 2.91-1.726 2.91-.348.312-.375.881-.375.881s-.312.148-.312.449c0 .3.255.493.255.493v1.132c-.275.095-.69.327-.69.327v.188s-.17-.009-.17.275c0 .283.165.312.165.312v2.155l-.083.082.045.263-.424.061v.252h-.166l.166.265h-1.945v.629h-.393s-.343-.184-.626-.273v-.676s-.13-.197-.67-.197-.671.197-.671.197v.676c-.283.089-.626.273-.626.273h-2.536v.31h-2.5l-1.873-.908H9.278l-.345-.213H1.21v.248h-.91v.497H0l.3.364v2.835zm73.177 1.153l-.21.184H87.35l-.211-.184v-3.808l.088-.216v-.25h-1.501v-1.243H74.89v1.243h-1.501v.25l.088.216v3.808zm15.17.184h30.806v-6.139l.547-.522h-.452v-1.145h-7.987v-1.262h-.722V116h-1.052l.175-.283-5.912-2.359-5.912 2.36.175.282h-1.052v-1.26h-.722v1.263h-7.987v1.145H88.1l.547.522v6.139zM68.8 127.09h-3.189v1.362h3.121v1.208h-3.12v1.46H68.8v1.207H64.24v-6.445H68.8v1.208zm-7.565 5.237h-1.382v-2.705h-3.044v2.705h-1.372v-6.445h1.372v2.532h3.044v-2.532h1.382v6.445zm-8.61-5.237h-1.874v5.237h-1.382v-5.237h-1.885v-1.208h5.141v1.208zM.311 133.303h119.15v-8.43H.31v8.43zm106.904 15.88v-10.624h-3.843v-3.082h11.199v3.082h-3.822v10.623h-3.534zm-20.938-5.549v-8.157h3.596v8.034c0 1.623.966 2.795 2.897 2.795 1.89 0 2.877-1.172 2.877-2.795v-8.034h3.575v8.137c0 3.41-2.075 5.815-6.452 5.815-4.417 0-6.493-2.425-6.493-5.795zm-7.848-1.294c0-2.24-1.459-3.966-3.719-3.966-2.28 0-3.74 1.726-3.74 3.966 0 2.219 1.46 3.966 3.74 3.966 2.26 0 3.72-1.747 3.72-3.966zm-11.054 0c0-4.171 3.143-7.089 7.335-7.089s7.315 2.918 7.315 7.089-3.123 7.089-7.315 7.089-7.335-2.918-7.335-7.089zm-13.87 6.842v-13.705h10.049v3.082H57.04v2.137h6.37v3.082h-6.37v2.322h6.514v3.082H53.506zm-7.848 0l-3.595-5.157-.925 1.15v4.007h-3.534v-13.705h3.534v5.63l4.212-5.63h4.356l-5.321 6.41 5.609 7.295h-4.336zM26.323 138.97l-1.746 5.158h3.493l-1.747-5.158zm3.39 10.212l-.678-1.972h-5.404l-.678 1.972h-4.006l5.157-13.705h4.438l5.178 13.705h-4.007zm-20.526 0V138.56H5.345v-3.082h11.198v3.082h-3.822v10.623H9.187zm78.451 3.564h-2.202v-1.41h6.005v1.41h-2.19v6.118h-1.613v-6.118zm-9.995 3.838a3.307 3.307 0 002.393 1.017c.88 0 1.31-.418 1.31-.847 0-.563-.655-.757-1.525-.96-1.23-.282-2.81-.62-2.81-2.303 0-1.252 1.084-2.268 2.855-2.268 1.198 0 2.19.361 2.935 1.049l-.892 1.174c-.608-.563-1.421-.824-2.156-.824-.722 0-1.105.317-1.105.768 0 .51.631.666 1.5.87 1.242.282 2.823.653 2.823 2.324 0 1.377-.983 2.416-3.013 2.416-1.446 0-2.485-.486-3.183-1.197l.868-1.219zm-8.064-.406h2.494l-1.242-3.453-1.252 3.453zm2.933 1.388h-3.364l-.473 1.298h-1.762l2.914-7.528h2.01l2.899 7.528h-1.75l-.474-1.298zm-14.757-2.46c0-2.315 1.75-3.895 3.95-3.895 1.717 0 2.676.904 3.207 1.84l-1.377.677a2.067 2.067 0 00-1.83-1.095c-1.31 0-2.302 1.05-2.302 2.473 0 1.422.992 2.472 2.302 2.472.836 0 1.512-.474 1.83-1.095l1.377.666c-.541.936-1.49 1.851-3.207 1.851-2.2 0-3.95-1.58-3.95-3.894zm-6.7 2.348c1.49 0 2.36-1.073 2.36-2.348 0-1.332-.813-2.36-2.36-2.36H49.69v4.708h1.365zm-2.969-6.118h2.97c2.358 0 3.996 1.502 3.996 3.77s-1.638 3.758-3.997 3.758h-2.969v-7.528zm-6.992 1.297c-1.39 0-2.28 1.062-2.28 2.473 0 1.4.89 2.472 2.28 2.472 1.387 0 2.29-1.073 2.29-2.472 0-1.411-.903-2.473-2.29-2.473zm0-1.422c2.28 0 3.938 1.627 3.938 3.895S43.374 159 41.094 159c-2.27 0-3.928-1.626-3.928-3.894 0-2.268 1.659-3.895 3.928-3.895zm-9.228 1.502h-1.704v2.076h1.704c.633 0 1.106-.405 1.106-1.038 0-.62-.473-1.038-1.106-1.038zm-3.307-1.377h3.522c1.636 0 2.528 1.105 2.528 2.426 0 1.31-.903 2.405-2.528 2.405h-1.919v2.697H28.56v-7.528z" fill="#F2F2F2" fill-rule="evenodd"/></svg>