<svg width="46" height="46" viewBox="0 0 46 46" fill="none" xmlns="http://www.w3.org/2000/svg">
<g clip-path="url(#clip0)">
<path d="M23 9.96667C21.3087 9.96667 19.9334 11.3421 19.9334 13.0333C19.9334 14.7245 21.3087 16.1 23 16.1C24.6913 16.1 26.0666 14.7246 26.0666 13.0334C26.0666 11.3422 24.6913 9.96667 23 9.96667Z" fill="black"/>
<path d="M42.4059 0H3.59411C1.61305 0 0 1.61234 0 3.59411V17.6333C0 17.9123 0.151836 18.1699 0.396391 18.3041L20.1771 29.2184C21.0618 29.706 22.0301 29.9499 23 29.9499C23.9699 29.9499 24.9389 29.706 25.8229 29.2184L45.6037 18.3041C45.8483 18.17 46.0001 17.9123 46.0001 17.6333V3.59411C46 1.61234 44.3869 0 42.4059 0ZM23 17.6334C20.4631 17.6334 18.4 15.5703 18.4 13.0334C18.4 10.4964 20.4631 8.43336 23 8.43336C25.5369 8.43336 27.6 10.4964 27.6 13.0334C27.6 15.5702 25.5369 17.6334 23 17.6334Z" fill="black"/>
<path d="M42.0171 22.8199C42.1045 22.9448 42.1666 23.0874 42.1666 23.2508V26.7008C42.1666 27.1239 41.824 27.4674 41.4 27.4674C40.976 27.4674 40.6334 27.1239 40.6334 26.7008V23.2508C40.6334 23.1234 40.6724 23.0093 40.7277 22.9034C40.7116 22.8582 40.7086 22.8084 40.7024 22.76L26.5627 30.5609C25.4702 31.1643 24.2374 31.4832 23.0001 31.4832C21.7635 31.4832 20.5306 31.1643 19.4374 30.5609L5.34139 22.7838C5.33222 22.8413 5.31839 22.895 5.29539 22.9472C5.33905 23.04 5.36672 23.1411 5.36672 23.2508V26.7008C5.36672 27.1239 5.02406 27.4674 4.60009 27.4674C4.17612 27.4674 3.83345 27.1239 3.83345 26.7008V23.2508C3.83345 23.1212 3.87406 23.0047 3.93084 22.8981C3.78745 22.6336 3.8304 22.2771 4.06192 22.0778L0.766636 20.2599V42.4059C0.766636 44.3877 2.37969 46 4.36083 46H41.6392C43.6203 46 45.2334 44.3877 45.2334 42.4059V20.2607L41.8838 22.1083C42.0616 22.2924 42.1069 22.5814 42.0171 22.8199ZM3.83336 30.1339C3.83336 29.7107 4.17603 29.3672 4.6 29.3672C5.02397 29.3672 5.36664 29.7107 5.36664 30.1339V35.2835C5.36664 35.7067 5.02397 36.0502 4.6 36.0502C4.17603 36.0502 3.83336 35.7067 3.83336 35.2835V30.1339ZM8.05 42.9334H4.6C4.17603 42.9334 3.83336 42.5899 3.83336 42.1667V38.7167C3.83336 38.2936 4.17603 37.9501 4.6 37.9501C5.02397 37.9501 5.36664 38.2936 5.36664 38.7167V41.4H8.05C8.47397 41.4 8.81664 41.7435 8.81664 42.1666C8.81664 42.5898 8.47397 42.9334 8.05 42.9334ZM20.5084 42.9334H13.0334C12.6094 42.9334 12.2667 42.5899 12.2667 42.1667C12.2667 41.7436 12.6094 41.4001 13.0334 41.4001H20.5084C20.9323 41.4001 21.275 41.7436 21.275 42.1667C21.275 42.5899 20.9323 42.9334 20.5084 42.9334ZM32.9666 42.9334H25.4916C25.0677 42.9334 24.725 42.5899 24.725 42.1667C24.725 41.7436 25.0677 41.4001 25.4916 41.4001H32.9666C33.3906 41.4001 33.7333 41.7436 33.7333 42.1667C33.7333 42.5899 33.3906 42.9334 32.9666 42.9334ZM42.1666 42.1666C42.1666 42.5898 41.824 42.9333 41.4 42.9333H37.95C37.526 42.9333 37.1834 42.5898 37.1834 42.1666C37.1834 41.7435 37.526 41.4 37.95 41.4H40.6334V38.7166C40.6334 38.2935 40.976 37.95 41.4 37.95C41.824 37.95 42.1666 38.2935 42.1666 38.7166V42.1666ZM42.1666 35.2835C42.1666 35.7067 41.824 36.0502 41.4 36.0502C40.976 36.0502 40.6334 35.7067 40.6334 35.2835V30.1339C40.6334 29.7107 40.976 29.3672 41.4 29.3672C41.824 29.3672 42.1666 29.7107 42.1666 30.1339V35.2835Z" fill="black"/>
</g>
<defs>
<clipPath id="clip0">
<rect width="46" height="46" fill="black"/>
</clipPath>
</defs>
</svg>
