<svg width="21" height="21" viewBox="0 0 21 21" fill="none" xmlns="http://www.w3.org/2000/svg">
<path d="M10.4972 5.11248C7.51584 5.11248 5.10976 7.51861 5.10976 10.5C5.10976 13.4814 7.51584 15.8875 10.4972 15.8875C13.4785 15.8875 15.8846 13.4814 15.8846 10.5C15.8846 7.51861 13.4785 5.11248 10.4972 5.11248ZM10.4972 14.0015C8.56916 14.0015 6.99575 12.4281 6.99575 10.5C6.99575 8.57195 8.56916 6.99851 10.4972 6.99851C12.4252 6.99851 13.9986 8.57195 13.9986 10.5C13.9986 12.4281 12.4252 14.0015 10.4972 14.0015ZM16.1052 3.63624C15.4092 3.63624 14.847 4.19837 14.847 4.89446C14.847 5.59056 15.4092 6.15269 16.1052 6.15269C16.8013 6.15269 17.3634 5.59318 17.3634 4.89446C17.3636 4.72917 17.3312 4.56546 17.2681 4.41272C17.2049 4.25997 17.1123 4.12118 16.9954 4.0043C16.8785 3.88742 16.7397 3.79475 16.587 3.73159C16.4342 3.66843 16.2705 3.63603 16.1052 3.63624V3.63624ZM20.9988 10.5C20.9988 9.05002 21.012 7.61317 20.9305 6.16582C20.8491 4.48469 20.4656 2.99268 19.2363 1.76335C18.0044 0.53139 16.515 0.150507 14.8339 0.0690774C13.3839 -0.0123526 11.9471 0.000781319 10.4998 0.000781319C9.04985 0.000781319 7.61303 -0.0123526 6.16571 0.0690774C4.4846 0.150507 2.99262 0.534016 1.76331 1.76335C0.53138 2.9953 0.150505 4.48469 0.0690761 6.16582C-0.0123524 7.6158 0.000781304 9.05265 0.000781304 10.5C0.000781304 11.9474 -0.0123524 13.3868 0.0690761 14.8342C0.150505 16.5153 0.534007 18.0073 1.76331 19.2367C2.99525 20.4686 4.4846 20.8495 6.16571 20.9309C7.61566 21.0124 9.05248 20.9992 10.4998 20.9992C11.9498 20.9992 13.3866 21.0124 14.8339 20.9309C16.515 20.8495 18.007 20.466 19.2363 19.2367C20.4682 18.0047 20.8491 16.5153 20.9305 14.8342C21.0146 13.3868 20.9988 11.95 20.9988 10.5V10.5ZM18.6873 16.6939C18.4956 17.172 18.2644 17.5292 17.894 17.897C17.5237 18.2674 17.1691 18.4985 16.691 18.6903C15.3093 19.2393 12.0286 19.1158 10.4972 19.1158C8.9658 19.1158 5.68239 19.2393 4.30073 18.6929C3.82267 18.5012 3.46543 18.27 3.09769 17.8996C2.72732 17.5292 2.49617 17.1746 2.30442 16.6966C1.75806 15.3123 1.88152 12.0314 1.88152 10.5C1.88152 8.96859 1.75806 5.68512 2.30442 4.30344C2.49617 3.82537 2.72732 3.46812 3.09769 3.10038C3.46806 2.73263 3.82267 2.49884 4.30073 2.30709C5.68239 1.76072 8.9658 1.88418 10.4972 1.88418C12.0286 1.88418 15.312 1.76072 16.6936 2.30709C17.1717 2.49884 17.5289 2.73 17.8967 3.10038C18.267 3.47075 18.4982 3.82537 18.6899 4.30344C19.2363 5.68512 19.1128 8.96859 19.1128 10.5C19.1128 12.0314 19.2363 15.3123 18.6873 16.6939Z" fill="black"/>
</svg>
