<svg width="73" height="73" viewBox="0 0 73 73" fill="none" xmlns="http://www.w3.org/2000/svg">
<path opacity="0.15" d="M29.3065 69.9583C41.2419 69.9583 50.9175 68.937 50.9175 67.6771C50.9175 66.4172 41.2419 65.3958 29.3065 65.3958C17.371 65.3958 7.69542 66.4172 7.69542 67.6771C7.69542 68.937 17.371 69.9583 29.3065 69.9583Z" fill="#45413C"/>
<path d="M29.0631 46.7808L9.29229 37.0627L6.87417 56.7271C6.84451 56.9685 6.89175 57.2131 7.00916 57.4261C7.12658 57.639 7.30818 57.8096 7.52812 57.9133L26.6146 67.2817C27.5596 67.7385 28.63 67.867 29.6563 67.6467L50.4156 63.0842C50.6533 63.0273 50.868 62.8993 51.031 62.7172C51.1941 62.5352 51.2977 62.3077 51.3281 62.0652L53.6854 42.4008L32.1656 47.1458C31.1199 47.3778 30.0265 47.2492 29.0631 46.7808Z" fill="#FF866E"/>
<path d="M32.1656 47.1458C31.1376 47.3591 30.0679 47.2254 29.124 46.7656L9.35313 37.0475L8.51667 42.9179L28.3635 52.636C29.3068 53.098 30.3773 53.2319 31.4052 53.0163L52.9858 48.2408L53.6854 42.3856L32.1656 47.1458Z" fill="#FF6242"/>
<path d="M29.0631 46.7808L9.29229 37.0627L6.87417 56.7271C6.84451 56.9685 6.89175 57.2131 7.00916 57.426C7.12658 57.639 7.30818 57.8096 7.52812 57.9133L26.6146 67.2817C27.5596 67.7385 28.63 67.867 29.6563 67.6467L50.4156 63.0842C50.6533 63.0273 50.868 62.8993 51.031 62.7172C51.1941 62.5352 51.2977 62.3077 51.3281 62.0652L53.6854 42.4008L32.1656 47.1458C31.1199 47.3778 30.0265 47.2492 29.0631 46.7808V46.7808Z" stroke="#45413C" stroke-linecap="round" stroke-linejoin="round"/>
<path d="M28.3788 65.6696L30.2646 49.8529" stroke="#E04122" stroke-linecap="round" stroke-linejoin="round"/>
<path d="M53.731 42.3856L33.9602 32.6523C33.0146 32.1977 31.9449 32.0693 30.9185 32.2873L9.21625 37.0627L29.0631 46.7808C30.007 47.2406 31.0768 47.3743 32.1048 47.161L53.731 42.3856Z" fill="#E04122" stroke="#45413C" stroke-linecap="round" stroke-linejoin="round"/>
<path d="M13.7179 39.2527L11.2542 59.7535L21.3525 64.7115L23.8163 44.2106L13.7179 39.2527Z" fill="#EDDBFF"/>
<path d="M13.7179 39.2527L13.0031 45.1079L23.1167 50.0658L23.8163 44.2106L13.7179 39.2527Z" fill="#DABFF5"/>
<path d="M13.7179 39.2527L11.2542 59.7535L21.3525 64.7115L23.8163 44.2106L13.7179 39.2527Z" stroke="#45413C" stroke-linecap="round" stroke-linejoin="round"/>
<path d="M48.8492 43.4654L46.4006 63.9663L35.4202 66.3844L37.8688 45.8988L48.8492 43.4654Z" fill="#EDDBFF"/>
<path d="M48.8492 43.4654L48.1496 49.3206L37.1692 51.754L37.8687 45.8988L48.8492 43.4654Z" fill="#DABFF5"/>
<path d="M48.8492 43.4654L46.4006 63.9663L35.4202 66.3844L37.8688 45.8988L48.8492 43.4654Z" stroke="#45413C" stroke-linecap="round" stroke-linejoin="round"/>
<path d="M25.1394 28.7894L1.87063 26.9035L3.75646 34.0819C3.81716 34.3188 3.95145 34.5304 4.14001 34.6862C4.32858 34.8419 4.5617 34.9339 4.80584 34.9487L27.2381 36.7738C28.3127 36.867 29.3867 36.5878 30.2798 35.9829L48.9252 23.4208C49.125 23.2811 49.2782 23.0847 49.3649 22.8569C49.4517 22.6291 49.4681 22.3805 49.4119 22.1433L47.526 14.965L28.1658 27.9985C27.2725 28.5901 26.208 28.8683 25.1394 28.7894Z" fill="#FF866E"/>
<path d="M28.1658 27.9985C27.2683 28.5934 26.1978 28.8717 25.1242 28.7894L1.87063 26.9035L2.76792 30.3254L26.0367 32.2112C27.1102 32.2924 28.1803 32.0142 29.0783 31.4204L48.4386 18.3869L47.5413 14.965L28.1658 27.9985Z" fill="#FFA694"/>
<path d="M25.1394 28.7894L1.87063 26.9035L3.75646 34.0819C3.81716 34.3188 3.95145 34.5304 4.14001 34.6862C4.32858 34.8419 4.5617 34.9339 4.80584 34.9487L27.2381 36.7738C28.3127 36.867 29.3867 36.5878 30.2798 35.9829L48.9252 23.4208C49.125 23.2811 49.2782 23.0847 49.3649 22.8569C49.4517 22.6291 49.4681 22.3805 49.4119 22.1433L47.526 14.965L28.1658 27.9985C27.2725 28.5901 26.2079 28.8683 25.1394 28.7894V28.7894Z" stroke="#45413C" stroke-linecap="round" stroke-linejoin="round"/>
<path d="M1.87063 26.9035L21.2917 13.8548C22.1862 13.2541 23.2604 12.9802 24.3333 13.0792L47.6021 14.965L28.1658 27.9985C27.2683 28.5934 26.1978 28.8717 25.1242 28.7894L1.87063 26.9035Z" fill="#FF866E" stroke="#45413C" stroke-linecap="round" stroke-linejoin="round"/>
<path d="M27.8008 13.3529L6.85896 27.299L8.9425 35.2985L20.1663 36.1958L18.0675 28.2115L39.0094 14.2654L27.8008 13.3529Z" fill="#EDDBFF" stroke="#45413C" stroke-linecap="round" stroke-linejoin="round"/>
<path d="M10.1896 27.5727L15.8471 28.029" stroke="#BF8DF2" stroke-linecap="round" stroke-linejoin="round"/>
<path d="M18.2956 15.8471L43.3742 17.7481L45.4729 25.7325L36.135 32.0135L34.0515 24.0292L8.97292 22.1281L18.2956 15.8471Z" fill="#EDDBFF" stroke="#45413C" stroke-linecap="round" stroke-linejoin="round"/>
<path d="M40.6063 19.6187L35.9069 22.7821" stroke="#BF8DF2" stroke-linecap="round" stroke-linejoin="round"/>
<path d="M28.7438 20.6833L25.9454 18.691C25.9454 18.691 28.9871 6.52438 37.2908 5.52063C38.0896 5.41237 38.9012 5.5833 39.5885 6.00452C40.2758 6.42575 40.7964 7.0714 41.0625 7.83229L42.3704 11.4063L28.7438 20.6833Z" fill="#DABFF5" stroke="#45413C" stroke-linecap="round" stroke-linejoin="round"/>
<path d="M28.7437 20.6833C28.7437 20.6833 35.9525 20.1206 42.1423 12.6533C42.3262 12.4734 42.4466 12.2386 42.4854 11.9843C42.5242 11.73 42.4793 11.47 42.3574 11.2435C42.2356 11.0169 42.0434 10.8361 41.8098 10.7283C41.5762 10.6205 41.314 10.5916 41.0625 10.6458C38.2989 11.0636 35.698 12.2154 33.5313 13.9809C31.3645 15.7465 29.7111 18.0611 28.7437 20.6833Z" fill="#BF8DF2" stroke="#45413C" stroke-linecap="round" stroke-linejoin="round"/>
<path d="M21.2917 22.8125L22.5235 19.6035C22.5235 19.6035 13.6875 11.4975 6.15937 15.2083C5.45142 15.5698 4.88697 16.1607 4.55825 16.8844C4.22953 17.6081 4.15597 18.422 4.34958 19.1929L5.24687 22.9037L21.2917 22.8125Z" fill="#DABFF5" stroke="#45413C" stroke-linecap="round" stroke-linejoin="round"/>
<path d="M21.2917 22.8125C21.2917 22.8125 15.3604 26.6298 6.08333 23.8467C5.85284 23.7808 5.64769 23.6468 5.49491 23.462C5.34214 23.2773 5.24891 23.0507 5.2275 22.8119C5.2061 22.5732 5.25752 22.3335 5.37501 22.1246C5.49249 21.9157 5.67051 21.7472 5.88562 21.6415C8.32022 20.4282 11.0378 19.8965 13.7501 20.1026C16.4624 20.3088 19.0684 21.2452 21.2917 22.8125Z" fill="#BF8DF2" stroke="#45413C" stroke-linecap="round" stroke-linejoin="round"/>
<path d="M22.0521 21.7479C22.0521 21.7479 14.2958 26.3104 13.9004 32.8348L17.8546 31.1619L20.1206 35.0552C20.1206 35.0552 21.824 24.744 25.1242 22.554L22.0521 21.7479Z" fill="#BF8DF2" stroke="#45413C" stroke-linecap="round" stroke-linejoin="round"/>
<path d="M27.4662 20.4096C27.4662 20.4096 36.4392 20.7898 39.8458 26.4929L35.5723 26.8579L35.3746 31.3444C35.3746 31.3444 29.0631 23.0102 25.1242 22.5996L27.4662 20.4096Z" fill="#BF8DF2" stroke="#45413C" stroke-linecap="round" stroke-linejoin="round"/>
<path d="M29.5194 18.3565C30.0973 20.5617 28.2571 22.919 25.4283 23.6947C22.5996 24.4703 19.8164 23.2536 19.2537 21.0484C18.691 18.8432 20.5008 16.4859 23.3448 15.7103C26.1887 14.9346 28.8958 16.1513 29.5194 18.3565Z" fill="#BF8DF2"/>
<path d="M23.938 17.9915C24.9235 17.659 25.9854 17.626 26.9896 17.8967C27.9939 18.1673 28.8954 18.7296 29.5803 19.5123C29.656 19.1103 29.656 18.6976 29.5803 18.2956C29.0024 16.0904 26.2344 14.9042 23.4057 15.6494C20.5769 16.3946 18.7367 18.7823 19.3146 20.9875C19.4184 21.3793 19.5993 21.7464 19.8469 22.0673C20.059 21.0639 20.5589 20.144 21.2855 19.4201C22.012 18.6963 22.9338 18.1998 23.938 17.9915Z" fill="#DABFF5"/>
<path d="M29.5194 18.3565C30.0973 20.5617 28.2571 22.919 25.4283 23.6947C22.5996 24.4703 19.8164 23.2536 19.2537 21.0484C18.691 18.8432 20.5008 16.4859 23.3448 15.7103C26.1887 14.9346 28.8958 16.1513 29.5194 18.3565Z" stroke="#45413C" stroke-linecap="round" stroke-linejoin="round"/>
<path d="M44.606 40.2717C43.9823 41.2591 43.1241 42.0771 42.1079 42.6529C41.0917 43.2287 39.9489 43.5444 38.7812 43.5719L36.7129 39.9371C37.8895 39.9141 39.0419 39.599 40.0666 39.0203C41.0913 38.4416 41.9561 37.6174 42.5833 36.6217L44.606 40.2717Z" fill="#00F5BC" stroke="#45413C" stroke-linecap="round" stroke-linejoin="round"/>
<path d="M68.4375 13.9613C68.4771 15.1483 68.2196 16.3265 67.6884 17.3888C67.1573 18.4511 66.3692 19.364 65.3958 20.0446L61.6394 18.2044C62.596 17.5135 63.3662 16.5962 63.8812 15.5345C64.3961 14.4728 64.6396 13.3 64.5898 12.121L68.4375 13.9613Z" fill="#FF6242" stroke="#45413C" stroke-linecap="round" stroke-linejoin="round"/>
<path d="M60.149 71.4792C59.3928 70.5869 58.8682 69.522 58.6215 68.3788C58.3748 67.2355 58.4136 66.0491 58.7346 64.9244L62.8408 64.0423C62.5205 65.166 62.4806 66.3511 62.7245 67.4939C62.9684 68.6366 63.4888 69.7021 64.24 70.5971L60.149 71.4792Z" fill="#FF6196" stroke="#45413C" stroke-linecap="round" stroke-linejoin="round"/>
<path d="M72.2396 38.8269C71.4047 39.6454 70.381 40.2457 69.2589 40.5746C68.1369 40.9035 66.9512 40.951 65.8065 40.7127L64.6202 36.6977C65.7662 36.934 66.9527 36.8842 68.0748 36.5526C69.1969 36.221 70.2199 35.6179 71.0533 34.7967L72.2396 38.8269Z" fill="#FF8A14" stroke="#45413C" stroke-linecap="round" stroke-linejoin="round"/>
<path d="M55.5713 49.4727C56.741 49.5203 57.8811 49.8544 58.8914 50.4458C59.9017 51.0371 60.7514 51.8676 61.3656 52.8642L59.3125 56.4838C58.7037 55.4856 57.8574 54.6536 56.8491 54.0619C55.8407 53.4701 54.7016 53.137 53.5333 53.0923L55.5713 49.4727Z" fill="#4AEFF7" stroke="#45413C" stroke-linecap="round" stroke-linejoin="round"/>
<path d="M45.625 67.9812C44.4708 68.1712 43.2876 68.0751 42.1792 67.7012C41.0709 67.3273 40.0712 66.6872 39.2679 65.8369L40.6215 61.8675C41.4192 62.7209 42.4159 63.3635 43.5226 63.7376C44.6292 64.1118 45.8114 64.2061 46.9633 64.0119L45.625 67.9812Z" fill="#FFF48C" stroke="#45413C" stroke-linecap="round" stroke-linejoin="round"/>
<path d="M49.9138 32.7588C50.1652 31.6161 50.6932 30.5526 51.4516 29.6616C52.21 28.7706 53.1755 28.0795 54.2633 27.6488L57.4571 30.4167C56.3678 30.8451 55.401 31.5356 54.6423 32.4269C53.8836 33.3182 53.3564 34.3829 53.1075 35.5267L49.9138 32.7588Z" fill="#FFF48C" stroke="#45413C" stroke-linecap="round" stroke-linejoin="round"/>
</svg>
