<svg width="28" height="28" viewBox="0 0 28 28" fill="none" xmlns="http://www.w3.org/2000/svg">
<g clip-path="url(#clip0)">
<path d="M14 28C21.732 28 28 21.732 28 14C28 6.26802 21.732 0 14 0C6.26802 0 0 6.26802 0 14C0 21.732 6.26802 28 14 28Z" fill="#1F84CE"/>
<path d="M14 24.5267C19.8138 24.5267 24.5267 19.8138 24.5267 14C24.5267 8.18633 19.8138 3.47339 14 3.47339C8.18633 3.47339 3.47339 8.18633 3.47339 14C3.47339 19.8138 8.18633 24.5267 14 24.5267Z" fill="white"/>
<path opacity="0.15" d="M11.9559 20.3789C11.417 20.3789 10.8781 20.1733 10.4669 19.7621L7.66392 16.9591C6.84152 16.1367 6.84152 14.8034 7.66392 13.981C8.48622 13.1587 9.81963 13.1586 10.6419 13.981L11.9559 15.295L17.3582 9.89266C18.1805 9.07026 19.5139 9.07031 20.3362 9.89266C21.1585 10.7151 21.1585 12.0484 20.3362 12.8708L13.4449 19.7621C13.0338 20.1734 12.4948 20.3789 11.9559 20.3789Z" fill="#145587"/>
<path d="M11.9559 19.259C11.417 19.259 10.8781 19.0535 10.4669 18.6423L7.66392 15.8393C6.84152 15.0169 6.84152 13.6835 7.66392 12.8611C8.48622 12.0388 9.81963 12.0387 10.6419 12.8611L11.9559 14.1751L17.3582 8.77279C18.1805 7.95038 19.5139 7.95044 20.3362 8.77279C21.1585 9.5952 21.1585 10.9285 20.3362 11.7509L13.4449 18.6423C13.0338 19.0535 12.4948 19.259 11.9559 19.259Z" fill="#FB7686"/>
<path opacity="0.15" d="M14.0003 3.47388C8.18666 3.47388 3.47388 8.18666 3.47388 14.0003C3.47388 14.2582 3.48361 14.514 3.50188 14.7673C3.89481 9.31198 8.44473 5.008 14.0004 5.008C19.556 5.008 24.1058 9.31198 24.4988 14.7673C24.5171 14.514 24.5268 14.2583 24.5268 14.0003C24.5266 8.18671 19.8139 3.47388 14.0003 3.47388Z" fill="#145587"/>
</g>
<defs>
<clipPath id="clip0">
<rect width="28" height="28" fill="white"/>
</clipPath>
</defs>
</svg>
