<svg width="46" height="46" viewBox="0 0 46 46" fill="none" xmlns="http://www.w3.org/2000/svg">
<path d="M37.6125 10.6568C34.0289 7.06576 29.3604 4.95749 24.3476 4.63621V2.69531H26.3241C27.0684 2.69531 27.6718 2.09192 27.6718 1.34766C27.6718 0.603391 27.0684 0 26.3241 0H19.6757C18.9314 0 18.328 0.603391 18.328 1.34766C18.328 2.09192 18.9314 2.69531 19.6757 2.69531H21.6523V4.63621C18.2151 4.8565 14.9402 5.91711 12.0657 7.72L10.7855 6.43721C10.1624 5.81289 9.3336 5.46915 8.4516 5.46915C7.5696 5.46915 6.7408 5.81298 6.11782 6.43721L4.17082 8.38844C2.8892 9.67258 2.8892 11.7622 4.17082 13.0464L5.45971 14.338C3.42538 17.5931 2.33594 21.3604 2.33594 25.2959C2.33594 30.8256 4.485 36.0246 8.38727 39.9349C12.2903 43.846 17.4798 46 22.9999 46C28.52 46 33.7096 43.846 37.6125 39.9349C41.5148 36.0246 43.6639 30.8256 43.6639 25.2959C43.6639 19.7662 41.5148 14.5672 37.6125 10.6568ZM6.07865 10.2924L8.02574 8.34127C8.17919 8.18755 8.35843 8.16455 8.45169 8.16455C8.54495 8.16455 8.72428 8.18746 8.87773 8.34127L9.85433 9.31985C9.34788 9.73969 8.85805 10.1852 8.38736 10.6569C7.91802 11.1272 7.47464 11.6166 7.05678 12.1226L6.07865 11.1425C5.84469 10.9081 5.84469 10.5267 6.07865 10.2924ZM22.9999 43.3047C13.0919 43.3047 5.03125 35.2259 5.03125 25.2959C5.03125 15.3658 13.0919 7.28705 22.9999 7.28705C32.9079 7.28705 40.9686 15.3657 40.9686 25.2959C40.9686 35.226 32.9079 43.3047 22.9999 43.3047Z" fill="black"/>
<path d="M23.0001 9.81322C14.4791 9.81322 7.54688 16.7587 7.54688 25.2958C7.54688 33.8329 14.4791 40.7784 23.0001 40.7784C31.5211 40.7784 38.4533 33.8329 38.4533 25.2958C38.4533 16.7587 31.5211 9.81322 23.0001 9.81322ZM24.3477 38.0118V36.4365C24.3477 35.6923 23.7444 35.0889 23.0001 35.0889C22.2558 35.0889 21.6524 35.6923 21.6524 36.4365V38.0118C15.6908 37.3815 10.9404 32.6192 10.313 26.6435H11.8595C12.6037 26.6435 13.2071 26.0401 13.2071 25.2958C13.2071 24.5515 12.6037 23.9482 11.8595 23.9482H10.3131C10.9404 17.9724 15.6908 13.2101 21.6524 12.5799V14.1551C21.6524 14.8994 22.2558 15.5028 23.0001 15.5028C23.7444 15.5028 24.3477 14.8994 24.3477 14.1551V12.5799C30.3094 13.2101 35.0598 17.9724 35.6872 23.9482H34.1407C33.3965 23.9482 32.7931 24.5515 32.7931 25.2958C32.7931 26.0401 33.3965 26.6435 34.1407 26.6435H35.6871C35.0598 32.6192 30.3094 37.3815 24.3477 38.0118Z" fill="black"/>
<path d="M26.3241 24.5181H24.4229V19.0676C24.4229 18.3233 23.8195 17.7199 23.0752 17.7199C22.3309 17.7199 21.7275 18.3233 21.7275 19.0676V25.8658C21.7275 26.6101 22.3309 27.2134 23.0752 27.2134H26.3241C27.0684 27.2134 27.6718 26.6101 27.6718 25.8658C27.6718 25.1215 27.0684 24.5181 26.3241 24.5181Z" fill="black"/>
</svg>
