<svg width="32" height="29" viewBox="0 0 32 29" fill="none" xmlns="http://www.w3.org/2000/svg">
<path d="M21 22C21 22.2652 20.8946 22.5196 20.7071 22.7071C20.5196 22.8946 20.2652 23 20 23H6C5.78 23 5.57 23.2 5.39 23.33L2 26V10C2 9.73478 2.10536 9.48043 2.29289 9.29289C2.48043 9.10536 2.73478 9 3 9H6.86V7H3C2.20435 7 1.44129 7.31607 0.87868 7.87868C0.316071 8.44129 0 9.20435 0 10V28C0.0014883 28.1857 0.054667 28.3674 0.153576 28.5245C0.252486 28.6817 0.393217 28.8083 0.56 28.89C0.720679 28.9631 0.897837 28.9923 1.07347 28.9747C1.24911 28.9572 1.41697 28.8934 1.56 28.79L6.71 25H20.15C20.529 25.0112 20.9063 24.9445 21.2585 24.8039C21.6106 24.6634 21.9302 24.4521 22.1974 24.183C22.4646 23.914 22.6736 23.5929 22.8117 23.2398C22.9498 22.8867 23.0139 22.5089 23 22.13V21H21V22Z" fill="black"/>
<path d="M29 0H12C11.2044 0 10.4413 0.316071 9.87868 0.87868C9.31607 1.44129 9 2.20435 9 3V15C9 15.7956 9.31607 16.5587 9.87868 17.1213C10.4413 17.6839 11.2044 18 12 18H25.55L30.33 21.71C30.4721 21.8151 30.6395 21.8806 30.8152 21.8999C30.9908 21.9192 31.1685 21.8917 31.33 21.82C31.5002 21.739 31.644 21.6115 31.7448 21.4522C31.8457 21.293 31.8995 21.1085 31.9 20.92V3C31.9004 2.22138 31.5981 1.47309 31.057 0.913267C30.5158 0.353446 29.7782 0.025954 29 0ZM30 18.94L26.5 16.21C26.3255 16.0745 26.1109 16.0007 25.89 16H12C11.7348 16 11.4804 15.8946 11.2929 15.7071C11.1054 15.5196 11 15.2652 11 15V3C11 2.73478 11.1054 2.48043 11.2929 2.29289C11.4804 2.10536 11.7348 2 12 2H29C29.2673 2.02426 29.5165 2.14542 29.7007 2.34065C29.8849 2.53589 29.9913 2.79173 30 3.06V18.94Z" fill="black"/>
</svg>
