<svg width="70" height="70" viewBox="0 0 70 70" fill="none" xmlns="http://www.w3.org/2000/svg">
<rect x="0.337681" y="0.337891" width="69.2284" height="69.2284" rx="34.6142" fill="#D992B9"/>
<path d="M46.0797 24.2153H23.9204C23.5163 24.2153 23.1887 24.5461 23.1887 24.9541V36.1131C23.1887 36.5211 23.5163 36.8519 23.9204 36.8519C24.3245 36.8519 24.6522 36.5211 24.6522 36.1131V25.6929H45.348V36.113C45.348 36.5211 45.6756 36.8518 46.0797 36.8518C46.4838 36.8518 46.8114 36.5211 46.8114 36.113V24.9541C46.8114 24.5461 46.4837 24.2153 46.0797 24.2153Z" fill="white"/>
<path d="M51.3415 38.7512H49.9938V23.2353C49.9938 22.0038 49.0016 21.002 47.7819 21.002H22.2181C20.9985 21.002 20.0063 22.0038 20.0063 23.2353V38.7512H18.6586C18.2949 38.7512 18 39.0489 18 39.4162V40.7215C18 42.5304 19.4574 44.002 21.2489 44.002H48.7511C50.5426 44.002 52 42.5304 52 40.7215V39.4162C52.0001 39.0489 51.7053 38.7512 51.3415 38.7512ZM21.4697 23.2353C21.4697 22.8186 21.8055 22.4796 22.2181 22.4796H47.7818C48.1946 22.4796 48.5303 22.8186 48.5303 23.2353V38.7512H38.6225C38.5758 38.7497 38.5276 38.7537 38.4798 38.763C38.1698 38.8233 37.9458 39.0972 37.9458 39.4159C37.9458 39.9772 37.4936 40.4338 36.9379 40.4338H33.0623C32.5064 40.4338 32.0543 39.9771 32.0543 39.4159C32.0543 39.0436 31.7488 38.7431 31.3805 38.7511H21.4697V23.2353ZM50.683 40.7215C50.683 41.7971 49.8163 42.6721 48.7512 42.6721H21.2489C20.1837 42.6721 19.3171 41.7971 19.3171 40.7215V40.0811H30.8322C31.1169 41.0528 32.0089 41.7637 33.0622 41.7637H36.9378C37.9911 41.7637 38.8832 41.0527 39.1679 40.0811H50.683L50.683 40.7215Z" fill="white"/>
<path d="M36.0845 28.5099C35.7987 28.2214 35.3355 28.2214 35.0497 28.5099L30.4479 33.1566C30.1621 33.4451 30.1621 33.9129 30.4479 34.2014C30.5908 34.3457 30.7781 34.4178 30.9653 34.4178C31.1525 34.4178 31.3397 34.3456 31.4826 34.2014L36.0845 29.5548C36.3703 29.2663 36.3703 28.7985 36.0845 28.5099Z" fill="white"/>
<path d="M38.8121 31.2026C38.5263 30.9141 38.0631 30.9141 37.7773 31.2026L35.9441 33.0536C35.6583 33.3421 35.6583 33.8099 35.9441 34.0985C36.087 34.2428 36.2742 34.3149 36.4614 34.3149C36.6488 34.3149 36.8359 34.2428 36.9788 34.0985L38.812 32.2475C39.0978 31.959 39.0978 31.4912 38.8121 31.2026Z" fill="white"/>
</svg>
