<svg width="17" height="11" viewBox="0 0 17 11" fill="none" xmlns="http://www.w3.org/2000/svg">
<path d="M16.4516 1.83713C16.2265 1.07614 15.3316 0.881335 14.8268 1.39683C13.9633 2.27857 13.1081 3.16943 12.2496 4.0563C11.124 5.21829 9.99846 6.38028 8.8729 7.54227C8.69965 7.72113 8.4922 7.79517 8.26764 7.67727C8.13577 7.60777 8.03039 7.48474 7.8897 7.36626C8.27647 6.96868 8.64945 6.58477 9.02022 6.20313L9.32864 5.90124C9.33361 5.90409 9.33968 5.90808 9.34795 5.91321C9.41306 5.83916 9.47871 5.7577 9.55099 5.68366C10.5039 4.69824 11.46 3.71511 12.4107 2.72799C12.6832 2.44489 12.7682 2.09573 12.6612 1.71523C12.4543 0.980446 11.5538 0.742921 11.028 1.27949C10.4547 1.86504 9.8859 2.45572 9.31485 3.04412C8.50875 3.87574 7.70321 4.70736 6.89711 5.53898C6.2764 6.17921 5.65679 6.82001 5.03388 7.4574C4.83746 7.65847 4.52627 7.65619 4.3304 7.45341C3.80404 6.9083 3.28044 6.35921 2.74911 5.80441C2.74801 5.80897 2.74635 5.81296 2.74525 5.81694L2.51959 5.58853C2.428 5.48657 2.33144 5.38974 2.23323 5.29462C1.92591 4.99842 1.49886 4.94203 1.14409 5.1095C0.516759 5.40569 0.372755 6.25326 0.859392 6.75679C1.87515 7.80771 2.89477 8.85577 3.91053 9.90726C4.09095 10.0941 4.30833 10.2114 4.55331 10.2576C4.86725 10.3168 5.14754 10.2228 5.37651 9.98757C5.72907 9.62474 6.07998 9.26019 6.43144 8.89622C6.51917 8.80565 6.51862 8.80565 6.608 8.89849C7.00029 9.30462 7.39147 9.71246 7.78542 10.1163C8.15784 10.4979 8.79621 10.4951 9.16533 10.1129C9.34409 9.92777 9.52175 9.74094 9.70052 9.55582C11.8672 7.32012 14.035 5.08557 16.2006 2.84817C16.4759 2.56736 16.5631 2.21534 16.4516 1.83713Z" fill="#36D8DF"/>
</svg>
