<svg width="35" height="35" viewBox="0 0 35 35" fill="none" xmlns="http://www.w3.org/2000/svg">
<path d="M0 13.125V30.625C0 31.833 0.979328 32.8125 2.1875 32.8125H8.75V10.9375H2.1875C0.979328 10.9375 0 11.9168 0 13.125Z" fill="white"/>
<path d="M30.9604 13.1245H24.4983C23.9333 13.1245 23.6502 12.7475 23.5552 12.5851C23.4601 12.4239 23.2678 11.9934 23.5413 11.4999L25.8196 7.39731C26.3194 6.49902 26.3707 5.44265 25.9616 4.4995C25.5525 3.55529 24.745 2.87063 23.7463 2.62176L22.1399 2.22014C21.749 2.12188 21.3345 2.24685 21.0622 2.54912L12.3399 12.2391C11.4352 13.2463 10.9375 14.5451 10.9375 15.8974V27.3433C10.9375 30.3586 13.391 32.812 16.4063 32.812L27.2871 32.811C29.7438 32.811 31.9132 31.1565 32.5615 28.7884L34.8964 18.0731C34.9647 17.7751 35 17.4696 35 17.1641C35 14.9371 33.1874 13.1245 30.9604 13.1245L30.9604 13.1245Z" fill="white"/>
</svg>
