<svg width="17" height="16" viewBox="0 0 17 16" fill="none" xmlns="http://www.w3.org/2000/svg">
<path d="M15.7796 12.6543L13.4312 10.3057C12.9635 9.83987 12.1889 9.85402 11.7048 10.3382L10.5217 11.5211C10.447 11.4799 10.3696 11.4369 10.2883 11.3912C9.54117 10.9772 8.51862 10.4098 7.44259 9.33303C6.36338 8.25394 5.79546 7.22982 5.38023 6.48222C5.33641 6.40302 5.29443 6.32666 5.25297 6.25414L6.047 5.46128L6.43738 5.07043C6.92216 4.58551 6.93553 3.81114 6.46888 3.34392L4.12055 0.995064C3.65389 0.5285 2.87895 0.542654 2.39417 1.02757L1.73233 1.69321L1.75042 1.71116C1.52849 1.99433 1.34305 2.32093 1.20504 2.67312C1.07783 3.00837 0.998626 3.32828 0.962411 3.64885C0.652329 6.2195 1.82704 8.56888 5.01506 11.7569C9.42187 16.1634 12.9732 15.8306 13.1264 15.8143C13.4601 15.7744 13.7798 15.6947 14.1048 15.5685C14.4539 15.4321 14.7803 15.2469 15.0633 15.0255L15.0778 15.0383L15.7483 14.3818C16.232 13.8969 16.246 13.1223 15.7796 12.6543Z" fill="white"/>
</svg>
