<svg width="14" height="14" viewBox="0 0 14 14" fill="none" xmlns="http://www.w3.org/2000/svg">
<path d="M13.496 6.74798C13.496 10.4747 10.4747 13.496 6.74798 13.496C3.02122 13.496 0 10.4747 0 6.74798C0 3.02122 3.02122 0 6.74798 0C10.4747 0 13.496 3.02122 13.496 6.74798Z" fill="#FFCC4D"/>
<path d="M6.74797 7.87297C5.38975 7.87297 4.48852 7.71477 3.37398 7.49809C3.11943 7.44898 2.62421 7.49809 2.62421 8.24786C2.62421 9.74741 4.34682 11.6219 6.74797 11.6219C9.14876 11.6219 10.8717 9.74741 10.8717 8.24786C10.8717 7.49809 10.3765 7.4486 10.122 7.49809C9.00742 7.71477 8.10619 7.87297 6.74797 7.87297Z" fill="#664500"/>
<path d="M3.37399 8.24707C3.37399 8.24707 4.49866 8.62196 6.74798 8.62196C8.99731 8.62196 10.122 8.24707 10.122 8.24707C10.122 8.24707 9.3722 9.74662 6.74798 9.74662C4.12377 9.74662 3.37399 8.24707 3.37399 8.24707Z" fill="white"/>
<path d="M5.87898 1.65476L4.17624 1.95505L3.29901 0.360649C3.20229 0.184827 3.00359 0.0907299 2.80715 0.12522C2.60959 0.160084 2.45588 0.316787 2.42514 0.514728L2.14585 2.31307L0.443111 2.61335C0.242546 2.64859 0.0877168 2.81017 0.06035 3.01223C0.0329832 3.2143 0.139451 3.41074 0.323896 3.49846L1.84969 4.22274L1.56927 6.02671C1.53816 6.22765 1.64013 6.42559 1.82157 6.51743C1.88868 6.55117 1.96066 6.56729 2.03226 6.56729C2.15485 6.56729 2.27594 6.51931 2.36629 6.42783L3.68289 5.09286L5.37664 5.89699C5.56033 5.98397 5.77926 5.94311 5.91872 5.79502C6.05818 5.64694 6.08592 5.42613 5.98808 5.24806L5.10784 3.64804L6.29436 2.4454C6.43757 2.30032 6.47018 2.07914 6.37571 1.89844C6.28049 1.71774 6.07843 1.6199 5.87898 1.65476ZM7.61697 1.65476L9.31971 1.95505L10.1969 0.360649C10.2937 0.184827 10.4924 0.0907299 10.6888 0.12522C10.886 0.160084 11.0397 0.316787 11.0704 0.514728L11.3497 2.31307L13.0525 2.61335C13.2534 2.64859 13.4082 2.80979 13.4352 3.01186C13.4622 3.21392 13.3561 3.41036 13.1717 3.49809L11.6459 4.22237L11.9263 6.02633C11.9574 6.22727 11.8554 6.42521 11.674 6.51706C11.6069 6.5508 11.5349 6.56692 11.4633 6.56692C11.3407 6.56692 11.2196 6.51893 11.1293 6.42746L9.81268 5.09248L8.11894 5.89662C7.93525 5.98359 7.71631 5.94273 7.57685 5.79465C7.43739 5.64657 7.40965 5.42576 7.5075 5.24769L8.38774 3.64804L7.20121 2.4454C7.05801 2.30032 7.02539 2.07914 7.11986 1.89844C7.21546 1.71774 7.41753 1.6199 7.61697 1.65476Z" fill="#E95F28"/>
</svg>
