<svg width="63" height="63" viewBox="0 0 63 63" fill="none" xmlns="http://www.w3.org/2000/svg">
<rect y="31.7977" width="44.1267" height="44.1267" rx="10" transform="rotate(-45 0 31.7977)" fill="#FD6E31"/>
<g filter="url(#filter0_d_105_5)">
<path d="M40.5145 25.4494C41.6849 23.476 40.2071 21.0055 37.9683 21.037C37.9975 18.7831 35.521 17.3103 33.5512 18.4905C33.0356 17.5807 32.0684 17 30.998 17C29.9314 17 28.966 17.5795 28.4499 18.4873C26.4758 17.3113 24.0037 18.7862 24.0328 21.037C21.7874 21.0092 20.32 23.4685 21.4903 25.4482C20.5807 25.9604 20 26.926 20 27.9982C20 29.0714 20.5788 30.0379 21.4866 30.5514C20.344 32.4713 21.7014 34.9634 24.0338 34.9634C24.0277 35.6165 24.2526 36.2597 24.6606 36.7857C24.6581 36.7851 24.6554 36.7847 24.6529 36.7841C23.0783 39.1198 21.3753 41.4032 20.4286 43.9625C20.4096 44.0006 20.4476 44.0339 20.4809 44.0101C21.5608 43.3869 22.7358 42.7971 23.9631 42.2262C23.9869 42.2167 24.0155 42.2262 24.0155 42.2547C24.2295 43.3489 24.4864 44.462 24.8432 45.6133C24.8527 45.6466 24.905 45.6466 24.9193 45.618C25.8797 43.0305 27.607 40.7215 29.1936 38.369C29.9478 38.9583 30.9445 39.1945 31.963 38.8364C33.4614 41.0281 35.0239 43.2007 35.9225 45.618C35.932 45.6466 35.9843 45.6466 35.9938 45.6133C36.3506 44.462 36.6122 43.3489 36.8216 42.2547C36.8216 42.2262 36.8549 42.2167 36.8739 42.2262C38.106 42.7971 39.281 43.3869 40.3608 44.0101C40.3894 44.0339 40.4274 44.0006 40.4132 43.9625C39.5456 41.6505 38.0737 39.5576 36.6314 37.4498C37.4817 36.8951 37.9798 35.9571 37.9678 34.9631C40.2137 35.0081 41.6873 32.5079 40.5169 30.5503C42.4942 29.4298 42.4953 26.5672 40.5145 25.4494ZM39.7025 29.8771L39.46 29.9308C39.432 30.0703 39.1819 30.3846 39.4679 30.7266C40.7317 32.1264 39.46 34.3634 37.5971 33.9699C37.1444 33.8576 36.9641 34.3226 36.87 34.4068L36.9834 34.6352C37.3285 36.5068 35.1075 37.7174 33.7134 36.4562C33.3851 36.1814 33.0337 36.4514 32.9231 36.4753L32.8739 36.7106C32.2451 38.5132 29.7225 38.4664 29.123 36.709L29.0678 36.4665L28.8085 36.3698C28.6311 36.3039 28.4336 36.3399 28.2761 36.472C27.5083 37.1611 26.2415 37.1802 25.4693 36.2876C25.0679 35.823 24.9025 35.1959 25.0238 34.6054C25.0711 34.441 25.034 34.2626 24.9192 34.1309L24.6665 33.8809L24.392 33.9725C22.5338 34.3477 21.2667 32.1305 22.5463 30.7122C22.6689 30.5649 22.7042 30.3647 22.6387 30.1895L22.5137 29.9083L22.2801 29.8706C21.4838 29.5921 20.9514 28.8444 20.9514 27.9982C20.9514 27.1434 21.4987 26.3885 22.3172 26.1188C22.7228 25.9816 22.6673 25.5551 22.7005 25.4608L22.5346 25.2764C21.257 23.8512 22.5753 21.6366 24.4036 22.0316C24.8564 22.1435 25.0396 21.6719 25.1311 21.5889L25.0177 21.3608C24.6798 19.5358 26.8656 18.2687 28.2761 19.5351L28.3296 19.5762C28.4815 19.6782 28.6701 19.6965 28.8359 19.6243L29.0961 19.4919L29.1309 19.2763C29.4148 18.4822 30.1604 17.9514 30.998 17.9514C31.8482 17.9514 32.6021 18.4949 32.8785 19.3051L32.932 19.53C33.0563 19.5622 33.3473 19.8007 33.672 19.5816L33.7264 19.5393C34.3642 18.963 35.2887 18.865 36.0283 19.2954C36.7544 19.7181 37.1423 20.5773 36.9778 21.3919C36.8616 21.7943 37.2462 21.997 37.336 22.1218L37.6115 22.0286C39.4561 21.6455 40.7199 23.8776 39.4846 25.2576C39.1819 25.5603 39.4208 25.9242 39.4344 26.0364L39.6881 26.12C41.494 26.7151 41.5013 29.2687 39.7025 29.8771Z" fill="white"/>
<path d="M30.9989 21.3093C27.3026 21.3093 24.3057 24.3062 24.3057 28.0025C24.3057 31.6987 27.3026 34.6957 30.9989 34.6957C34.6952 34.6957 37.6969 31.6987 37.6969 28.0025C37.6969 24.3062 34.6952 21.3093 30.9989 21.3093ZM35.3088 27.0273L33.2014 29.1061C33.1919 29.1156 33.1919 29.1252 33.1919 29.1347L33.7105 32.0508C33.7152 32.0793 33.6914 32.0936 33.6676 32.0841L31.037 30.7188C31.0274 30.714 31.0179 30.714 31.0084 30.7188L28.392 32.1174C28.373 32.1269 28.3444 32.1079 28.3492 32.0841L28.8344 29.1585C28.8344 29.1489 28.8297 29.1394 28.8249 29.1347L26.689 27.0796C26.6747 27.0606 26.6795 27.032 26.708 27.0273L29.6384 26.5849C29.6479 26.5801 29.6526 26.5754 29.6574 26.5658L30.9561 23.9019C30.9656 23.8781 30.9989 23.8781 31.0084 23.9019L32.3356 26.5516C32.3404 26.5611 32.3499 26.5658 32.3594 26.5658L35.2946 26.9749C35.3184 26.9797 35.3278 27.0083 35.3088 27.0273Z" fill="white"/>
</g>
<defs>
<filter id="filter0_d_105_5" x="16" y="17" width="30" height="36.6389" filterUnits="userSpaceOnUse" color-interpolation-filters="sRGB">
<feFlood flood-opacity="0" result="BackgroundImageFix"/>
<feColorMatrix in="SourceAlpha" type="matrix" values="0 0 0 0 0 0 0 0 0 0 0 0 0 0 0 0 0 0 127 0" result="hardAlpha"/>
<feOffset dy="4"/>
<feGaussianBlur stdDeviation="2"/>
<feComposite in2="hardAlpha" operator="out"/>
<feColorMatrix type="matrix" values="0 0 0 0 0 0 0 0 0 0 0 0 0 0 0 0 0 0 0.25 0"/>
<feBlend mode="normal" in2="BackgroundImageFix" result="effect1_dropShadow_105_5"/>
<feBlend mode="normal" in="SourceGraphic" in2="effect1_dropShadow_105_5" result="shape"/>
</filter>
</defs>
</svg>
