<svg width="89" height="13" viewBox="0 0 89 13" fill="none" xmlns="http://www.w3.org/2000/svg">
<path d="M12.6585 4.64092L8.661 4.0303L6.86922 0.213746C6.73539 -0.0712488 6.2678 -0.0712488 6.13397 0.213746L4.34273 4.0303L0.345217 4.64092C0.0168771 4.69131 -0.114242 5.09063 0.116029 5.32632L3.02016 8.30305L2.33368 12.5113C2.27896 12.8456 2.63601 13.0965 2.9313 12.9323L6.50187 10.959L10.0724 12.9329C10.365 13.0954 10.7253 12.8494 10.6701 12.5119L9.98357 8.30359L12.8877 5.32686C13.118 5.09063 12.9863 4.69131 12.6585 4.64092Z" fill="#FFC107"/>
<path d="M31.5728 4.64092L27.5753 4.0303L25.7835 0.213746C25.6497 -0.0712488 25.1821 -0.0712488 25.0483 0.213746L23.257 4.0303L19.2595 4.64092C18.9312 4.69131 18.8001 5.09063 19.0303 5.32632L21.9345 8.30305L21.248 12.5113C21.1933 12.8456 21.5503 13.0965 21.8456 12.9323L25.4162 10.959L28.9867 12.9329C29.2793 13.0954 29.6396 12.8494 29.5844 12.5119L28.8979 8.30359L31.802 5.32686C32.0323 5.09063 31.9006 4.69131 31.5728 4.64092Z" fill="#FFC107"/>
<path d="M50.4871 4.64092L46.4896 4.0303L44.6978 0.213746C44.5639 -0.0712488 44.0964 -0.0712488 43.9625 0.213746L42.1713 4.0303L38.1738 4.64092C37.8454 4.69131 37.7143 5.09063 37.9446 5.32632L40.8487 8.30305L40.1622 12.5113C40.1075 12.8456 40.4646 13.0965 40.7599 12.9323L44.3304 10.959L47.901 12.9329C48.1936 13.0954 48.5539 12.8494 48.4986 12.5119L47.8121 8.30359L50.7163 5.32686C50.9465 5.09063 50.8149 4.69131 50.4871 4.64092Z" fill="#FFC107"/>
<path d="M69.4014 4.64092L65.4039 4.0303L63.6121 0.213746C63.4782 -0.0712488 63.0107 -0.0712488 62.8768 0.213746L61.0856 4.0303L57.0881 4.64092C56.7597 4.69131 56.6286 5.09063 56.8589 5.32632L59.763 8.30305L59.0765 12.5113C59.0218 12.8456 59.3789 13.0965 59.6742 12.9323L63.2447 10.959L66.8153 12.9329C67.1079 13.0954 67.4682 12.8494 67.4129 12.5119L66.7264 8.30359L69.6306 5.32686C69.8608 5.09063 69.7292 4.69131 69.4014 4.64092Z" fill="#FFC107"/>
<path d="M88.3157 4.64092L84.3182 4.0303L82.5264 0.213746C82.3926 -0.0712488 81.925 -0.0712488 81.7911 0.213746L79.9999 4.0303L76.0024 4.64092C75.674 4.69131 75.5429 5.09063 75.7732 5.32632L78.6773 8.30305L77.9908 12.5113C77.9361 12.8456 78.2932 13.0965 78.5885 12.9323L82.159 10.959L85.7296 12.9329C86.0222 13.0954 86.3825 12.8494 86.3272 12.5119L85.6407 8.30359L88.5449 5.32686C88.7751 5.09063 88.6435 4.69131 88.3157 4.64092Z" fill="#FFC107"/>
</svg>
