<?xml version="1.0" encoding="utf-8"?><svg viewBox="0 0 30 38" xmlns="http://www.w3.org/2000/svg" xmlns:xlink="http://www.w3.org/1999/xlink"><style>:root>svg{display:none}:root>svg:target{display:block}</style><svg fill="none" viewBox="0 0 26 17" id="arrow-down" xmlns="http://www.w3.org/2000/svg"><path d="M13 17L25.99.5H.01L13 17z" fill="#fff"/></svg><svg fill="none" viewBox="0 0 17 21" id="bookmark" xmlns="http://www.w3.org/2000/svg"><path d="M1 19.551V.578h14.757v18.973l-7.379-7.51L1 19.551z" stroke="#000" stroke-width="1.054"/></svg><svg fill="none" viewBox="0 0 30 30" id="check" xmlns="http://www.w3.org/2000/svg"><path d="M29.712 14.76C29.712 6.607 23.062 0 14.856 0S0 6.607 0 14.76c0 8.152 6.65 14.76 14.856 14.76s14.856-6.608 14.856-14.76zm-3.499-5.748L12.227 22.906l-.998.992-7.73-7.68 3.413-3.39 4.323 4.296L22.807 5.627l3.406 3.385z" fill="#923D54"/></svg><svg fill="none" viewBox="0 0 16 15" id="emoji-1" xmlns="http://www.w3.org/2000/svg"><path d="M15.517 7.5c0 4.142-3.473 7.5-7.758 7.5S0 11.642 0 7.5C0 3.358 3.474 0 7.759 0c4.284 0 7.758 3.358 7.758 7.5z" fill="#FFCC4D"/><path d="M7.759 9.104c-1.279 0-2.128-.144-3.177-.341-.24-.045-.706 0-.706.682 0 1.365 1.622 3.07 3.883 3.07 2.26 0 3.882-1.705 3.882-3.07 0-.682-.466-.727-.706-.682-1.05.197-1.898.34-3.176.34z" fill="#664500"/><path d="M7.177 1.367C6.807.354 5.657-.178 4.609.18a1.973 1.973 0 00-1.262 1.293 2.07 2.07 0 00-1.82-.242C.478 1.59-.073 2.7.297 3.713c.053.143.123.276.204.399.84 1.492 3.27 2.541 4.742 2.554C6.38 5.763 7.59 3.473 7.277 1.801a1.907 1.907 0 00-.1-.434zm1.164 0C8.71.354 9.86-.178 10.908.18a1.974 1.974 0 011.262 1.293 2.07 2.07 0 011.821-.242C15.04 1.59 15.59 2.7 15.22 3.713a1.943 1.943 0 01-.204.399c-.841 1.492-3.27 2.541-4.742 2.554-1.137-.903-2.347-3.193-2.033-4.865.015-.145.048-.29.1-.434z" fill="#DD2E44"/></svg><svg fill="none" viewBox="0 0 17 15" id="emoji-2" xmlns="http://www.w3.org/2000/svg"><path d="M8.586 15c4.285 0 7.759-3.358 7.759-7.5 0-4.142-3.474-7.5-7.759-7.5S.828 3.358.828 7.5c0 4.142 3.473 7.5 7.758 7.5z" fill="#FFCC4D"/><path d="M7.724 7.066a.43.43 0 01-.409-.285c-.087-.25-.439-.965-.884-.965-.458 0-.814.761-.884.965a.434.434 0 01-.545.263.413.413 0 01-.273-.527c.054-.157.562-1.535 1.702-1.535S8.08 6.36 8.134 6.517a.413.413 0 01-.273.527.438.438 0 01-.137.022zm4.31 0a.43.43 0 01-.408-.285c-.088-.25-.44-.965-.885-.965-.457 0-.814.761-.884.965a.433.433 0 01-.545.263.414.414 0 01-.273-.527c.054-.157.562-1.535 1.702-1.535s1.648 1.378 1.702 1.535a.413.413 0 01-.273.527.427.427 0 01-.136.022zm.576 1.555a.222.222 0 00-.274-.012c-.017.012-1.69 1.209-3.75 1.209-2.054 0-3.733-1.197-3.75-1.209a.223.223 0 00-.274.012.203.203 0 00-.04.262c.056.09 1.387 2.185 4.064 2.185 2.678 0 4.01-2.095 4.064-2.185a.203.203 0 00-.04-.262z" fill="#664500"/><path d="M9.978 1.645c0 .1.013.196.035.29.184 1.1 1.45 2.262 2.358 2.582.718-.253 1.658-1.032 2.111-1.892A7.787 7.787 0 0011.065.391c-.618.107-1.087.626-1.087 1.254zm-3.227 10.47c.025-.1.04-.205.04-.314 0-.763-.641-1.383-1.432-1.383-.48 0-.902.23-1.162.58a1.444 1.444 0 00-1.163-.58c-.534 0-.996.288-1.24.708a7.688 7.688 0 003.477 3.156c.705-.563 1.35-1.378 1.48-2.166zm8.861-1.431a.983.983 0 00-.945-.686.999.999 0 00-.805.4.999.999 0 00-.806-.4c-.547 0-.99.428-.99.958 0 .075.01.147.026.217.133.794 1.012 1.623 1.685 1.9a7.543 7.543 0 001.836-2.39z" fill="#FFAC33"/><path d="M15.321 1.362c0-.705-.591-1.276-1.32-1.276-.443 0-.833.211-1.073.534a1.332 1.332 0 00-1.073-.534c-.73 0-1.32.571-1.32 1.276 0 .1.013.197.035.29.184 1.101 1.45 2.263 2.358 2.582.908-.319 2.174-1.48 2.357-2.581a1.22 1.22 0 00.036-.29zM6.09 11.837c0-.764-.64-1.383-1.43-1.383-.48 0-.904.228-1.163.579a1.443 1.443 0 00-1.163-.58c-.79 0-1.43.62-1.43 1.384 0 .108.014.213.038.314.199 1.193 1.57 2.451 2.554 2.797.984-.345 2.356-1.604 2.554-2.797.025-.101.04-.206.04-.314zm10.232-.95c0-.53-.443-.959-.99-.959a.999.999 0 00-.806.401.999.999 0 00-.805-.4c-.547 0-.99.428-.99.957 0 .075.01.148.026.218.137.826 1.088 1.698 1.77 1.937.68-.239 1.631-1.111 1.768-1.937a.909.909 0 00.027-.218z" fill="#DD2E44"/></svg><svg fill="none" viewBox="0 0 14 14" id="emoji-3" xmlns="http://www.w3.org/2000/svg"><path d="M13.496 6.748A6.748 6.748 0 110 6.748a6.748 6.748 0 0113.496 0z" fill="#FFCC4D"/><path d="M6.748 7.873c-1.358 0-2.26-.158-3.374-.375-.255-.049-.75 0-.75.75 0 1.5 1.723 3.374 4.124 3.374 2.4 0 4.124-1.875 4.124-3.374 0-.75-.495-.8-.75-.75-1.115.217-2.016.375-3.374.375z" fill="#664500"/><path d="M3.374 8.247s1.125.375 3.374.375c2.25 0 3.374-.375 3.374-.375s-.75 1.5-3.374 1.5-3.374-1.5-3.374-1.5z" fill="#fff"/><path d="M5.879 1.655l-1.703.3L3.3.361a.47.47 0 00-.874.154l-.28 1.798-1.702.3a.469.469 0 00-.12.885l1.527.725-.28 1.804a.47.47 0 00.796.4l1.317-1.334 1.694.804a.469.469 0 00.611-.649l-.88-1.6 1.186-1.203a.47.47 0 00-.415-.79zm1.738 0l1.703.3.877-1.594a.47.47 0 01.873.154l.28 1.798 1.703.3a.467.467 0 01.119.885l-1.526.724.28 1.804a.47.47 0 01-.797.401L9.813 5.092l-1.694.805a.469.469 0 01-.611-.65l.88-1.599L7.2 2.445a.47.47 0 01.416-.79z" fill="#E95F28"/></svg><svg fill="none" viewBox="0 0 14 12" id="emoji-4" xmlns="http://www.w3.org/2000/svg"><path d="M12.821 1.208C11.928 1.064 9.78-.385 8.234.098 6.69.581 6.81.968 6.037 1.208c-.772.242-.893-.144-2.438.339C2.055 2.03 1.113 4.444.462 5.072c0 0-.645.651-.41 1.4.234.748 1.013.53 1.013.53 2.704-.844 3.621-1.98 3.621-1.98s1.4.411 2.559.049C8.403 4.709 9.32 3.574 9.32 3.574s1.4.41 4.104-.435c0 0 .764-.265.53-1.014-.234-.748-1.134-.917-1.134-.917zm-.435 2.68c-2.317.724-1.833 2.27-4.537 3.115-2.704.845-3.187-.7-5.504.024-.773.242-1.038.748-.917 1.135.361 1.159 3.38 4.03 7.628 2.703 4.249-1.328 5.094-5.408 4.731-6.566-.12-.387-.628-.652-1.4-.41z" fill="#DD2E44"/></svg><svg fill="none" viewBox="0 0 23 20" id="heart" xmlns="http://www.w3.org/2000/svg"><path d="M22.545 6.162c-.33-3.406-2.898-5.877-6.112-5.877-2.14 0-4.101 1.081-5.204 2.815A5.927 5.927 0 006.149.284C2.935.284.367 2.756.038 6.162c-.026.15-.133.942.192 2.233.468 1.863 1.55 3.557 3.126 4.899l7.868 6.703 8.002-6.703c1.577-1.342 2.658-3.036 3.127-4.899.324-1.29.218-2.082.192-2.233zM21.507 8.21c-.427 1.7-1.418 3.25-2.862 4.479L11.229 18.9l-7.29-6.21c-1.446-1.231-2.436-2.78-2.864-4.482-.307-1.222-.18-1.912-.18-1.917l.006-.04C1.183 3.265 3.391 1.1 6.15 1.1c2.035 0 3.827 1.174 4.678 3.064l.4.89.4-.89C12.463 2.303 14.35 1.1 16.434 1.1c2.758 0 4.965 2.166 5.253 5.19.001.006.127.697-.18 1.919z" fill="#000"/></svg><svg fill="none" viewBox="0 0 21 21" id="message" xmlns="http://www.w3.org/2000/svg"><mask id="ia" fill="#fff"><path fill-rule="evenodd" clip-rule="evenodd" d="M19.384 16.092a10.449 10.449 0 001.612-5.594C20.996 4.7 16.296 0 10.498 0 4.7 0 0 4.7 0 10.498c0 5.798 4.7 10.498 10.498 10.498a10.45 10.45 0 005.443-1.519l4.868 1.052-1.425-4.437z"/></mask><path d="M19.384 16.092l-.892-.563-.262.417.15.468 1.004-.322zm-3.443 3.385l.222-1.03-.41-.089-.36.218.548.901zm4.868 1.052l-.222 1.03 1.784.386-.558-1.739-1.004.323zm-.867-10.03a9.395 9.395 0 01-1.45 5.03l1.783 1.125a11.504 11.504 0 001.775-6.156h-2.108zm-9.444-9.445a9.444 9.444 0 019.444 9.444h2.108c0-6.38-5.172-11.552-11.552-11.552v2.108zm-9.444 9.444a9.444 9.444 0 019.444-9.444v-2.108c-6.38 0-11.552 5.172-11.552 11.552h2.108zm9.444 9.444a9.444 9.444 0 01-9.444-9.444h-2.108c0 6.38 5.172 11.552 11.552 11.552v-2.108zm4.896-1.366a9.395 9.395 0 01-4.896 1.366v2.108c2.191 0 4.243-.61 5.99-1.672l-1.095-1.802zm5.638.922l-4.869-1.051-.445 2.06 4.869 1.052.445-2.06zm-2.652-3.084l1.426 4.437 2.007-.645-1.426-4.437-2.007.645z" fill="#000" mask="url(#ia)"/></svg><svg fill="none" viewBox="0 0 23 38" id="tail-message" xmlns="http://www.w3.org/2000/svg"><path d="M.945 10.16L23 0c-.504 21.267-9.211 23.749-20.48 37.25C7.248 25.398 9.348 14.11.946 10.16z" fill="#FFF48C"/></svg><svg fill="none" viewBox="0 0 23 22" id="twit" xmlns="http://www.w3.org/2000/svg"><path d="M21.996 1.055H1l8.326 7.964 2.172 11.584L21.996 1.055z" stroke="#000" stroke-width="1.054" stroke-linejoin="round"/><path d="M8.964 9.018l13.032-7.964" stroke="#000" stroke-width="1.054"/></svg></svg>