<svg width="28" height="24" viewBox="0 0 28 24" fill="none" xmlns="http://www.w3.org/2000/svg">
<path d="M4.96443 10.8035C7.52121 12.2302 9.47989 14.3704 10.8875 16.8704C11.1046 17.2556 12.445 17.1443 12.8189 17.1443C13.1464 17.1443 14.5834 17.2623 14.7502 16.8704C17.524 10.3456 21.933 4.41536 27.9593 0.389343C28.2705 0.181498 26.698 0.0556976 26.6104 0.0521815C25.9987 0.0275683 24.7868 -0.12519 24.2345 0.243617C18.1595 4.30206 13.6834 10.2924 10.8871 16.8704C12.1745 16.8704 13.4624 16.8704 14.7498 16.8704C13.3165 14.3243 11.2931 12.1107 8.68886 10.6577C8.07268 10.3139 6.99386 10.439 6.31296 10.4663C5.98819 10.4792 5.43551 10.4304 5.15857 10.5921C5.09667 10.6288 4.7518 10.6847 4.96443 10.8035Z" fill="#00AA95"/>
<path d="M11.9739 23.7182C5.37159 23.7182 0 18.4968 0 12.0795C0 5.66219 5.37159 0.441162 11.9739 0.441162C13.9439 0.441162 15.8977 0.916618 17.6241 1.81596C18.2511 2.14257 18.4867 2.90087 18.1506 3.51033C17.8146 4.11979 17.0344 4.34873 16.4074 4.02212C15.0545 3.31695 13.521 2.94385 11.9739 2.94385C6.79127 2.94385 2.57486 7.04206 2.57486 12.0795C2.57486 17.1169 6.79127 21.2151 11.9739 21.2151C17.1566 21.2151 21.373 17.1169 21.373 12.0795C21.373 11.2469 21.2577 10.423 21.0306 9.6307C20.8396 8.96498 21.2404 8.27465 21.9253 8.08947C22.6106 7.9039 23.3205 8.29341 23.511 8.95912C23.8008 9.9702 23.9479 11.02 23.9479 12.0799C23.9483 18.4968 18.5767 23.7182 11.9739 23.7182Z" fill="#00AA95"/>
</svg>
