<svg width="34" height="34" viewBox="0 0 34 34" fill="none" xmlns="http://www.w3.org/2000/svg">
<path d="M29.4765 0.350625C29.2747 0.1275 28.9899 0 28.6882 0H5.31317C5.01355 0 4.72667 0.1275 4.5248 0.350625C4.32505 0.571625 4.22517 0.869125 4.25492 1.16875L7.44242 33.0438C7.49767 33.5877 7.95455 34 8.50067 34H25.5007C26.0468 34 26.5037 33.5877 26.5568 33.0438L29.7443 1.16875C29.7762 0.869125 29.6784 0.571625 29.4765 0.350625ZM26.6482 10.7908C23.9473 11.6641 20.4325 12.0679 17.6743 9.80475C14.2169 6.96787 9.97967 7.45662 7.10667 8.31087L6.4883 2.125H27.513L26.6482 10.7908Z" fill="white"/>
</svg>
