<svg width="57" height="57" viewBox="0 0 57 57" fill="none" xmlns="http://www.w3.org/2000/svg">
<g clip-path="url(#clip0)">
<path d="M12.6588 57L6.18709 43.6175C1.32271 33.5589 4.17227 21.7673 12.4039 14.9417C17.528 10.6927 22.4167 6.16769 26.9031 1.2501L28.0436 0L30.6955 3.50383C33.9678 7.82715 36.4648 12.4243 37.94 17.0825L12.6588 57Z" fill="#00AA95"/>
<path d="M52.1869 16.6923L51.3249 12.3835C47.0644 22.4261 36.1368 27.7622 29.8731 34.6917C18.9194 46.81 12.6588 57 12.6588 57H19.1443C47.9703 57 56.3584 37.5444 52.1869 16.6923Z" fill="#00CC76"/>
<path d="M51.3247 12.3835L49.7537 13.0124C45.8827 14.562 41.9365 15.9041 37.9399 17.0825V17.0826C35.5561 17.7856 33.1544 18.4302 30.7398 19.0258C20.3576 21.5869 12.6587 30.9617 12.6587 42.1347V57C12.6588 57 39.6137 39.9884 51.3247 12.3835Z" fill="#A5E887"/>
</g>
<defs>
<clipPath id="clip0">
<rect width="57" height="57" fill="white"/>
</clipPath>
</defs>
</svg>
