<svg width="36" height="36" viewBox="0 0 36 36" fill="none" xmlns="http://www.w3.org/2000/svg">
<g clip-path="url(#clip0)">
<path d="M25.9855 6.12638L21.945 2.08596C19.1638 -0.695307 14.6384 -0.695307 11.8572 2.08589C10.7304 3.21265 10.0603 4.62571 9.8465 6.09298C14.1818 6.23971 17.7695 9.3863 18.5939 13.5179L25.9855 6.12638Z" fill="white"/>
<path d="M31.5174 11.6586L27.477 7.61816L18.7723 16.3228V19.0891L21.4296 21.7464C24.2108 24.5276 28.7362 24.5276 31.5174 21.7464C34.2986 18.9652 34.2986 14.4398 31.5174 11.6586Z" fill="white"/>
<path d="M2.39667 28.8669C2.39667 32.8001 5.59662 36 9.52982 36C13.463 36 16.663 32.8001 16.663 28.8669V23.1528H2.39667V28.8669Z" fill="white"/>
<path d="M9.52982 8.19629C5.59662 8.19629 2.39667 11.3962 2.39667 15.3295V21.0435H16.663V15.3295C16.663 11.3962 13.463 8.19629 9.52982 8.19629Z" fill="white"/>
</g>
<defs>
<clipPath id="clip0">
<rect width="36" height="36" fill="white"/>
</clipPath>
</defs>
</svg>
