<svg width="2250" height="850" viewBox="0 0 2250 850" xmlns="http://www.w3.org/2000/svg">
    <path opacity=".65" fill="#e1f0fb" d="M1949.6 61.6C1828.8 33.2 1720.1 4.4 1576 13.7c-83.7 5.4-166 19-245.5 33.1C1191.1 24.5 1035.8 0 849.6 0c-77 0-158.3 7.9-237.8 23.4C296.6-2.3 75.1 115.9 43.5 336c-12.7 88.7 9.4 164.1 57.2 227.1 41.7 173 205.7 294.5 478.2 228.1C748.4 820 937 823 1111.8 803c51.8 15.5 105.1 29.2 165.9 33.3 86.9 5.9 153.5-6.9 215.6-25.4 86.5 19.1 166.6 41.4 257.8 38.9 235.2-6.4 316.6-43.4 405.2-69.1 29.7 8.2 60.8 17.5 93.7 28.2V12.3c-94.3 14.4-194.9 34.2-300.4 49.3z"/>
    <path fill="#e1f0fb" d="M1585.6 80.4c-81.2-5.5-164.8-19.1-255.1-33.6C1160.7 77.1 1003.3 110 870.2 72 779 45.9 692.3 30 611.8 23.4c-237.6 46.2-459.9 159.8-505.9 331-19.4 72-20.9 144-5.2 208.7 89.6 118.3 269.5 192.7 478.2 228.1 15.4-3.8 31.2-8.1 47.3-13.1 224.3-69.5 350-15.8 485.6 24.9 23.4-2.7 46.6-5.8 69.5-9.3 124.3-19 221.7-2.7 312 17.2 160.2-47.7 290.4-133 663-30.2 28.7-8.3 58.1-15.5 93.7-20.1V108c-118.7-5.4-212.7-25.8-300.4-46.4-116.1 16.5-238.1 27.3-364 18.8z"/>
</svg>