<svg width="160" height="160" xmlns="http://www.w3.org/2000/svg"><path d="M95.59 148.079c0-1.895-1.08-3.05-2.842-3.05h-2.429v12.154h2.429c1.746 0 2.842-1.154 2.842-3.05v-6.054zm-6.496-5.259h1.78V88.88h-1.78v53.941zm-1.2 13.016h-2.459v-4.234h2.25v-1.347h-2.25v-3.878h2.383v-1.348H83.91v12.154h3.983v-1.347zm-8.232 1.347h1.525v-12.154h-1.525v12.154zm-2.397-12.154H73.55v12.154h1.525v-5.58h2.102v-1.348h-2.102v-3.878h2.191v-1.348zm11.829-56.434h1.78v-.53h-1.78v.53zm2.064 54.225h.588V88.88h-.588v53.941zM72.86 131.265c0-2.683-.74-5.022-2.098-6.929.984 1.758 1.511 3.814 1.511 6.114v8.957c0 1.203-.108 2.34-.314 3.413h.703c.119-.831.198-1.69.198-2.597v-8.958zm-1.195 11.555c.211-1.072.325-2.208.325-3.413v-8.957c0-3.287-1.099-6.065-3.11-8.146-.157-.13-.322-.254-.489-.377 1.178 1.833 1.82 4.05 1.82 6.601v8.957c0 1.89-.286 3.683-.847 5.335h2.301zM69.3 157.183h1.526v-12.154H69.3v12.154zm-2.32-36.99c3.526-1.988 5.475-5.5 5.475-9.99v-6.618c0-3.497-.902-6.456-2.586-8.786 1.3 2.207 2 4.878 2 7.971v6.617c0 4.56-1.966 8.142-5.528 10.19.227.194.431.407.639.615zm-.165 33.72c0-3.718-3.673-3.066-3.673-5.701v-.77c0-.77.46-1.214 1.067-1.214.592 0 1.036.414 1.036 1.304v1.48h1.54v-1.466c0-1.673-.992-2.635-2.576-2.635-1.598 0-2.606 1.065-2.606 2.59v.8c0 3.686 3.671 3.05 3.671 5.7v.784c0 .8-.429 1.213-1.036 1.213-.635 0-1.11-.37-1.11-1.42v-1.377h-1.555v1.347c0 1.895 1.038 2.769 2.695 2.769 1.584 0 2.547-1.036 2.547-2.548v-.856zm-7.491 0c0-3.718-3.672-3.066-3.672-5.701v-.77c0-.77.46-1.214 1.065-1.214.594 0 1.036.414 1.036 1.304v1.48h1.541v-1.466c0-1.673-.992-2.635-2.577-2.635-1.598 0-2.605 1.065-2.605 2.59v.8c0 3.686 3.672 3.05 3.672 5.7v.784c0 .8-.43 1.213-1.036 1.213-.637 0-1.111-.37-1.111-1.42v-1.377h-1.555v1.347c0 1.895 1.037 2.769 2.695 2.769 1.583 0 2.547-1.036 2.547-2.548v-.856zm-5.629-13.208c2.094-.04 2.957-1.16 2.957-3.3v-11.298c0-.107-.014-.207-.02-.311-.14-.012-.262-.039-.415-.039h-2.522v14.948zm-.283-15.232h2.805c.14 0 .263.02.395.03-.016-.132-.048-.255-.076-.38-.34-.105-.72-.18-1.19-.18h-2.522v15.77h.588v-15.24zm-.872-.814h2.805c.409 0 .772.059 1.112.145-.37-1.13-1.304-1.926-3.033-1.926h-2.662v17.835h1.778V124.66zm-.381 32.524l-2.175-12.168h-1.689l-2.176 12.168h1.48l.503-3.301h2.073l.504 3.301h1.48zm-7.89-1.347h-2.131v-10.807h-1.525v12.154h3.656v-1.347zm-6.203-8.098c0-1.703-.918-2.827-2.56-2.827-1.703 0-2.695 1.184-2.695 2.99v6.395c0 1.821.992 3.006 2.68 3.006 1.657 0 2.575-1.185 2.575-2.857V153.2h-1.465v1.259c0 .932-.46 1.436-1.11 1.436-.696 0-1.126-.518-1.126-1.51v-6.559c0-.977.43-1.51 1.14-1.51.636 0 1.096.474 1.096 1.407v1.288h1.465v-1.274zm-7.416 8.098h-2.458v-4.234h2.251v-1.347h-2.251v-3.878h2.384v-1.348h-3.908v12.154h3.982v-1.347zm20.112-42.64h1.778V99.32h2.564c.355 0 .668.044.964.108-.368-1.246-1.305-1.889-2.886-1.889h-2.42v15.656zm5.37-13.461a4.056 4.056 0 00-1.028-.132h-2.28v13.592h.196c.14 0 .261-.022.392-.032v-13.027h2.563c.082 0 .153.012.233.017-.018-.149-.048-.282-.076-.418zm.093.701c-.087-.004-.161-.017-.25-.017h-2.28v12.72c1.775-.267 2.554-1.587 2.554-3.172v-9.12c0-.145-.016-.275-.024-.41zm7.529 17.44c.867.425 1.636.94 2.34 1.51 3.534-1.985 5.492-5.502 5.492-9.999v-6.617c0-4.241-1.335-7.683-3.777-10.175-.136-.114-.279-.221-.42-.331 1.629 2.412 2.416 5.362 2.416 8.583v6.618c0 4.761-2.177 8.473-6.051 10.41zm-38.587 8.89h8.957v-11.337h-.588v10.805H24.58v16.586h.587v-16.054zm-.87-.816h8.956V115.43h-1.778v8.742h-8.958v18.65h1.78v-16.87zm-.25 22.129c0-1.895-1.08-3.05-2.842-3.05h-2.427v12.154h2.427c1.746 0 2.843-1.154 2.843-3.05v-6.054zm-12.073 5.954h3.77v-1.78h-3.77v1.78zm0 .816h3.77v-.532h-3.77v.532zm-.872-.816h.588v-1.78h-.588v1.78zm.21-48.573v4.6h2.24V99.05h-2.24v4.465h-.887V99.05H8.186v11.01h2.239v-4.6h.886zm-4.614-6.41H2.191v1.931h1.14v9.08h2.24v-9.08h1.127V99.05zm8.583 11.01h4.01v-1.931h-1.772v-2.736h1.556v-1.931H17.52v-2.481h1.69V99.05h-3.928v11.01zm7.955 2.489h1.06V99.4h9.441V88.88h-1.779v8.74h-8.722v14.93zm8.722-23.954h1.78v-.53h-1.78v.53zm2.063 11.089H24.58v12.865h.587v-12.334h9.44V88.879h-.586v10.805zm-2.546 15.461h1.779v-.531h-1.78v.531zM100 142.82v16.513H15.745v-4.2H11.69v-.816h-.871v-2.065H9.04v-39.677H0V97.36h9.04V86h22.918v1.78h2.063v.815h.87V100.5h-9.44v12.05h6.024v1.78h2.061v.816h.872v11.905H25.45v15.77h12.077V86H53.02c6.253 0 10.62 1.903 13.335 4.945.602.435 1.148.918 1.655 1.436 3.054 2.578 4.729 6.388 4.729 11.204v6.618c0 4.57-1.975 8.159-5.55 10.204.094.1.198.193.289.296.605.427 1.138.913 1.633 1.429 2.609 2.189 4.033 5.332 4.033 9.133v8.958c0 .906-.078 1.765-.195 2.597h2.669V86h13.476v1.78h2.064v.815h.87v54.225H100zm-50.906 4.637l-.784 5.093h1.658l-.784-5.093h-.09zm43.654-1.036h-.917v9.37h.917c.77 0 1.304-.502 1.304-1.54v-6.29c0-1.037-.534-1.54-1.304-1.54zm-70.24 1.54v6.29c0 1.038-.532 1.54-1.303 1.54h-.917v-9.37h.917c.77 0 1.304.503 1.304 1.54z" fill="#F2F2F2" fill-rule="nonzero"/></svg>