<svg width="178" height="76" viewBox="0 0 178 76" fill="none" xmlns="http://www.w3.org/2000/svg">
<path d="M4.41 56V-0.700004H16.94V22.26H25.69V-0.700004H38.29V56H25.69V31.22H16.94V56H4.41ZM63.1646 56.84C58.9179 56.84 55.5579 56.0933 53.0846 54.6C50.6113 53.1067 48.8379 50.96 47.7646 48.16C46.6913 45.36 46.1546 42.0233 46.1546 38.15V17.08C46.1546 13.16 46.6913 9.82333 47.7646 7.07C48.8379 4.31666 50.6113 2.21667 53.0846 0.769998C55.5579 -0.723336 58.9179 -1.47 63.1646 -1.47C67.4579 -1.47 70.8413 -0.723336 73.3146 0.769998C75.8346 2.21667 77.6313 4.31666 78.7046 7.07C79.7779 9.82333 80.3146 13.16 80.3146 17.08V38.15C80.3146 42.0233 79.7779 45.36 78.7046 48.16C77.6313 50.96 75.8346 53.1067 73.3146 54.6C70.8413 56.0933 67.4579 56.84 63.1646 56.84ZM63.1646 47.95C64.4713 47.95 65.4279 47.6233 66.0346 46.97C66.6413 46.3167 67.0379 45.4767 67.2246 44.45C67.4113 43.4233 67.5046 42.3733 67.5046 41.3V14C67.5046 12.88 67.4113 11.83 67.2246 10.85C67.0379 9.82333 66.6413 8.98333 66.0346 8.33C65.4279 7.67666 64.4713 7.35 63.1646 7.35C61.9513 7.35 61.0413 7.67666 60.4346 8.33C59.8279 8.98333 59.4313 9.82333 59.2446 10.85C59.0579 11.83 58.9646 12.88 58.9646 14V41.3C58.9646 42.3733 59.0346 43.4233 59.1746 44.45C59.3613 45.4767 59.7346 46.3167 60.2946 46.97C60.9013 47.6233 61.8579 47.95 63.1646 47.95ZM87.9402 56V-0.700004H100.47V47.53H113.49V56H87.9402ZM116.245 56L126.955 -0.700004H141.235L151.805 56H140.255L138.365 44.03H130.035L128.075 56H116.245ZM131.155 36.54H137.175L134.165 14.42L131.155 36.54Z" fill="white"/>
<path d="M171.23 33.503C171.23 34.469 171.054 35.297 170.701 35.987C170.348 36.6617 169.842 37.183 169.183 37.551C168.524 37.919 167.726 38.103 166.791 38.103H161.915C160.964 38.103 160.159 37.919 159.5 37.551C158.841 37.183 158.342 36.6617 158.005 35.987C157.652 35.297 157.476 34.469 157.476 33.503C157.476 32.5523 157.622 31.7473 157.913 31.088C158.204 30.4133 158.649 29.8997 159.247 29.547C159.83 29.1943 160.573 29.018 161.478 29.018H162.881V32.629H161.363C161.01 32.629 160.742 32.6673 160.558 32.744C160.359 32.8053 160.221 32.905 160.144 33.043C160.067 33.1657 160.029 33.319 160.029 33.503C160.029 33.687 160.083 33.8403 160.19 33.963C160.282 34.0857 160.443 34.1777 160.673 34.239C160.888 34.3003 161.194 34.331 161.593 34.331H167.113C167.711 34.331 168.117 34.262 168.332 34.124C168.547 33.9707 168.654 33.756 168.654 33.48C168.654 33.2807 168.616 33.1197 168.539 32.997C168.447 32.8743 168.309 32.7823 168.125 32.721C167.926 32.6597 167.665 32.629 167.343 32.629H165.572V29.018H167.182C168.071 29.018 168.823 29.202 169.436 29.57C170.034 29.9227 170.486 30.4363 170.793 31.111C171.084 31.7703 171.23 32.5677 171.23 33.503ZM171.23 22.6982C171.23 23.6489 171.069 24.4769 170.747 25.1822C170.425 25.8722 169.942 26.4089 169.298 26.7922C168.654 27.1602 167.849 27.3442 166.883 27.3442H161.823C160.857 27.3442 160.052 27.1602 159.408 26.7922C158.764 26.4089 158.281 25.8722 157.959 25.1822C157.637 24.4769 157.476 23.6489 157.476 22.6982C157.476 21.7475 157.637 20.9272 157.959 20.2372C158.281 19.5319 158.764 18.9875 159.408 18.6042C160.052 18.2209 160.857 18.0292 161.823 18.0292H166.883C167.849 18.0292 168.654 18.2209 169.298 18.6042C169.942 18.9875 170.425 19.5319 170.747 20.2372C171.069 20.9272 171.23 21.7475 171.23 22.6982ZM168.746 22.6752C168.746 22.4299 168.685 22.2382 168.562 22.1002C168.424 21.9622 168.24 21.8702 168.01 21.8242C167.765 21.7629 167.473 21.7322 167.136 21.7322H161.57C161.233 21.7322 160.949 21.7629 160.719 21.8242C160.474 21.8702 160.29 21.9622 160.167 22.1002C160.029 22.2382 159.96 22.4299 159.96 22.6752C159.96 22.9205 160.029 23.1122 160.167 23.2502C160.29 23.3882 160.474 23.4879 160.719 23.5492C160.949 23.6105 161.233 23.6412 161.57 23.6412H167.136C167.473 23.6412 167.765 23.6105 168.01 23.5492C168.24 23.4879 168.424 23.3882 168.562 23.2502C168.685 23.1122 168.746 22.9205 168.746 22.6752ZM171 15.95H157.706V12.27H158.764C158.289 11.7794 157.951 11.2734 157.752 10.752C157.553 10.2154 157.453 9.67105 157.453 9.11905C157.453 8.58238 157.591 8.12238 157.867 7.73905C158.128 7.34038 158.519 7.04138 159.04 6.84205C158.457 6.32071 158.051 5.77638 157.821 5.20905C157.576 4.62638 157.453 4.04371 157.453 3.46105C157.453 2.93971 157.583 2.48738 157.844 2.10405C158.089 1.72071 158.457 1.42171 158.948 1.20705C159.423 0.99238 159.998 0.885046 160.673 0.885046H171V4.56505H161.064C160.696 4.56505 160.435 4.63405 160.282 4.77205C160.113 4.89471 160.029 5.08638 160.029 5.34705C160.029 5.50038 160.075 5.69205 160.167 5.92205C160.244 6.15205 160.359 6.37438 160.512 6.58905C160.543 6.58905 160.573 6.58905 160.604 6.58905C160.619 6.58905 160.642 6.58905 160.673 6.58905H171V10.223H161.064C160.696 10.223 160.435 10.292 160.282 10.43C160.113 10.568 160.029 10.7674 160.029 11.028C160.029 11.1967 160.075 11.396 160.167 11.626C160.244 11.8407 160.359 12.0554 160.512 12.27H171V15.95Z" fill="white"/>
<circle cx="164" cy="49" r="7" fill="white"/>
</svg>
