<?xml version="1.0" encoding="utf-8"?><svg viewBox="0 0 57 57" xmlns="http://www.w3.org/2000/svg" xmlns:xlink="http://www.w3.org/1999/xlink"><style>:root>svg{display:none}:root>svg:target{display:block}</style><svg fill="none" viewBox="0 0 28 24" id="check" xmlns="http://www.w3.org/2000/svg"><path d="M4.964 10.803c2.557 1.427 4.516 3.567 5.923 6.067.218.386 1.558.274 1.932.274.327 0 1.764.118 1.931-.274C17.524 10.346 21.933 4.415 27.96.39c.31-.209-1.262-.334-1.35-.338-.611-.024-1.823-.177-2.375.192C18.16 4.302 13.683 10.292 10.886 16.87h3.863c-1.434-2.546-3.457-4.76-6.061-6.212-.616-.344-1.695-.219-2.376-.192-.325.013-.877-.036-1.154.126-.062.037-.407.093-.195.211z" fill="#00AA95"/><path d="M11.974 23.718C5.372 23.718 0 18.497 0 12.08 0 5.662 5.372.441 11.974.441c1.97 0 3.924.476 5.65 1.375.627.327.863 1.085.527 1.694a1.306 1.306 0 01-1.744.512 9.629 9.629 0 00-4.433-1.078c-5.183 0-9.4 4.098-9.4 9.136 0 5.037 4.217 9.135 9.4 9.135 5.183 0 9.399-4.098 9.399-9.136 0-.832-.115-1.656-.342-2.448-.191-.666.21-1.356.894-1.542.686-.185 1.395.204 1.586.87.29 1.011.437 2.061.437 3.12 0 6.418-5.371 11.64-11.974 11.64z" fill="#00AA95"/></svg><svg fill="none" viewBox="0 0 34 34" id="glass" xmlns="http://www.w3.org/2000/svg"><path d="M29.477.35a1.06 1.06 0 00-.789-.35H5.313a1.064 1.064 0 00-1.058 1.169l3.187 31.875c.056.544.513.956 1.059.956h17a1.06 1.06 0 001.056-.956l3.187-31.875c.032-.3-.066-.597-.267-.818zm-2.829 10.44c-2.7.874-6.215 1.278-8.974-.985C14.217 6.968 9.98 7.457 7.107 8.31l-.619-6.186h21.025l-.865 8.666z" fill="#fff"/></svg><svg fill="none" viewBox="0 0 22 22" id="like" xmlns="http://www.w3.org/2000/svg"><circle cx="11" cy="11" r="11" fill="#0084FF"/><path d="M7.042 9.375C6.468 9.375 6 9.842 6 10.417v3.333c0 .574.468 1.042 1.042 1.042h1.25c.234 0 .45-.08.625-.211V9.375H7.042zM16 10.937c0-.25-.1-.484-.271-.656.194-.213.294-.498.266-.795-.048-.53-.525-.945-1.086-.945h-2.574c.127-.387.332-1.096.332-1.666 0-.904-.768-1.667-1.25-1.667-.433 0-.742.244-.756.254a.21.21 0 00-.078.163v1.413l-1.2 2.6-.05.025v4.465c.34.16.769.247 1.042.247H14.2c.453 0 .85-.306.944-.728a.938.938 0 00-.076-.626.933.933 0 00.417-1.25.933.933 0 00.515-.834z" fill="#fff"/></svg><svg fill="none" viewBox="0 0 57 57" id="logo" xmlns="http://www.w3.org/2000/svg"><g clip-path="url(#dclip0)"><path d="M12.659 57L6.187 43.617c-4.864-10.058-2.015-21.85 6.217-28.675 5.124-4.25 10.013-8.774 14.5-13.692L28.043 0l2.651 3.504c3.273 4.323 5.77 8.92 7.245 13.578L12.659 57z" fill="#00AA95"/><path d="M52.187 16.692l-.862-4.309c-4.26 10.043-15.188 15.38-21.452 22.309C18.92 46.81 12.66 57 12.66 57h6.485c28.826 0 37.214-19.456 33.043-40.308z" fill="#00CC76"/><path d="M51.325 12.383l-1.571.63a132.883 132.883 0 01-11.814 4.07 165.97 165.97 0 01-7.2 1.943c-10.382 2.56-18.081 11.936-18.081 23.109V57s26.955-17.012 38.666-44.617z" fill="#A5E887"/></g><defs><clipPath id="dclip0"><path fill="#fff" d="M0 0h57v57H0z"/></clipPath></defs></svg><svg fill="none" viewBox="0 0 36 36" id="pills" xmlns="http://www.w3.org/2000/svg"><g clip-path="url(#eclip0)" fill="#fff"><path d="M25.985 6.126l-4.04-4.04a7.141 7.141 0 00-10.088 0 7.096 7.096 0 00-2.01 4.007c4.335.147 7.923 3.293 8.747 7.425l7.391-7.392zM31.517 11.659l-4.04-4.04-8.705 8.704v2.766l2.658 2.657a7.141 7.141 0 0010.087 0 7.141 7.141 0 000-10.087zM2.397 28.867C2.397 32.8 5.597 36 9.53 36s7.133-3.2 7.133-7.133v-5.714H2.397v5.714z"/><path d="M9.53 8.196c-3.933 0-7.133 3.2-7.133 7.133v5.715h14.266v-5.715c0-3.933-3.2-7.133-7.133-7.133z"/></g><defs><clipPath id="eclip0"><path fill="#fff" d="M0 0h36v36H0z"/></clipPath></defs></svg></svg>