<?xml version="1.0" encoding="utf-8"?><svg viewBox="0 0 22 22" xmlns="http://www.w3.org/2000/svg" xmlns:xlink="http://www.w3.org/1999/xlink"><style>:root>svg{display:none}:root>svg:target{display:block}</style><svg fill="none" viewBox="0 0 19 14" id="check" xmlns="http://www.w3.org/2000/svg"><path d="M.056 8.814c2.103 1.163 3.714 2.91 4.871 4.949.179.314 1.281.223 1.589.223.269 0 1.45.097 1.588-.223C10.384 8.44 14.01 3.603 18.967.318c.255-.17-1.038-.273-1.11-.275-.503-.02-1.5-.145-1.954.156-4.995 3.31-8.676 8.198-10.976 13.564h3.176C6.925 11.686 5.261 9.88 3.12 8.695c-.507-.28-1.394-.179-1.954-.157-.267.011-.721-.029-.949.103-.05.03-.335.076-.16.173z" fill="#CC0F0F"/></svg><svg fill="none" viewBox="0 0 22 22" id="like" xmlns="http://www.w3.org/2000/svg"><circle cx="11" cy="11" r="11" fill="#0084FF"/><path d="M7.042 9.375C6.468 9.375 6 9.842 6 10.417v3.333c0 .574.468 1.042 1.042 1.042h1.25c.234 0 .45-.08.625-.211V9.375H7.042zM16 10.937c0-.25-.1-.484-.271-.656.194-.213.294-.498.266-.795-.048-.53-.525-.945-1.086-.945h-2.574c.127-.387.332-1.096.332-1.666 0-.904-.768-1.667-1.25-1.667-.433 0-.742.244-.756.254a.21.21 0 00-.078.163v1.413l-1.2 2.6-.05.025v4.465c.34.16.769.247 1.042.247H14.2c.453 0 .85-.306.944-.728a.938.938 0 00-.076-.626.933.933 0 00.417-1.25.933.933 0 00.515-.834z" fill="#fff"/></svg></svg>