<?xml version="1.0" encoding="utf-8"?><svg viewBox="0 0 37 32" xmlns="http://www.w3.org/2000/svg" xmlns:xlink="http://www.w3.org/1999/xlink"><style>:root>svg{display:none}:root>svg:target{display:block}</style><svg fill="none" viewBox="0 0 26 17" id="arrow-down" xmlns="http://www.w3.org/2000/svg"><path d="M13 17L25.99.5H.01L13 17z" fill="#fff"/></svg><svg fill="none" viewBox="0 0 35 31" id="check" xmlns="http://www.w3.org/2000/svg"><path d="M6.206 13.905c3.196 1.837 5.644 4.591 7.403 7.809.272.496 1.947.352 2.415.352.409 0 2.205.152 2.414-.352C21.905 13.316 27.416 5.683 34.949.5c.389-.267-1.576-.43-1.686-.434-.765-.032-2.28-.228-2.97.247-7.594 5.223-13.189 12.933-16.684 21.4h4.828c-1.791-3.277-4.32-6.126-7.576-7.996-.77-.443-2.119-.282-2.97-.247-.406.017-1.097-.046-1.443.162-.077.047-.508.12-.242.272z" fill="#F21631"/><path d="M14.967 30.529C6.714 30.529 0 23.808 0 15.549 0 7.288 6.715.568 14.967.568c2.463 0 4.905.611 7.063 1.769a1.611 1.611 0 01-1.52 2.84 11.757 11.757 0 00-5.543-1.389C8.49 3.79 3.22 9.064 3.22 15.55c0 6.483 5.27 11.758 11.748 11.758 6.479 0 11.75-5.275 11.75-11.759 0-1.072-.145-2.132-.429-3.152a1.609 1.609 0 113.1-.864c.363 1.301.547 2.652.547 4.017 0 8.259-6.714 14.98-14.968 14.98z" fill="#F21631"/></svg><svg fill="none" viewBox="0 0 28 25" id="check-gulf" xmlns="http://www.w3.org/2000/svg"><path d="M4.964 11.124c2.557 1.47 4.516 3.673 5.923 6.247.217.397 1.558.282 1.932.282.327 0 1.764.122 1.931-.282 2.774-6.718 7.183-12.825 13.21-16.97.31-.214-1.262-.344-1.35-.347C26 .028 24.787-.13 24.235.25 18.16 4.43 13.683 10.598 10.886 17.37h3.863c-1.434-2.621-3.457-4.9-6.061-6.397-.616-.354-1.695-.225-2.376-.197-.325.013-.877-.037-1.154.13-.062.037-.407.095-.195.217z" fill="#7AB1B0"/><path d="M11.974 24.423C5.372 24.423 0 19.046 0 12.439 0 5.83 5.372.454 11.974.454c1.97 0 3.924.49 5.65 1.415a1.289 1.289 0 01-1.217 2.272 9.406 9.406 0 00-4.433-1.11c-5.183 0-9.4 4.22-9.4 9.407s4.217 9.407 9.4 9.407c5.183 0 9.399-4.22 9.399-9.408 0-.857-.115-1.705-.342-2.521a1.288 1.288 0 012.48-.691c.29 1.04.437 2.122.437 3.213 0 6.607-5.371 11.984-11.974 11.984z" fill="#7AB1B0"/></svg><svg fill="none" viewBox="0 0 37 32" id="check-pink" xmlns="http://www.w3.org/2000/svg"><path d="M6.409 14.36c3.3 1.897 5.829 4.742 7.646 8.065.28.512 2.01.364 2.493.364.423 0 2.278.157 2.494-.364C22.622 13.752 28.314 5.87 36.094.518c.402-.277-1.628-.444-1.741-.449-.79-.032-2.355-.235-3.068.255-7.842 5.395-13.62 13.357-17.23 22.101h4.986c-1.85-3.384-4.462-6.327-7.824-8.258-.796-.457-2.188-.29-3.067-.255-.42.018-1.133-.047-1.49.168-.08.049-.526.123-.251.28z" fill="#D89BA6"/><path d="M15.458 31.529C6.934 31.529 0 24.588 0 16.058 0 7.528 6.934.587 15.458.587c2.543 0 5.065.632 7.294 1.827a1.664 1.664 0 01-1.57 2.933 12.142 12.142 0 00-5.724-1.433c-6.69 0-12.134 5.447-12.134 12.143 0 6.697 5.443 12.144 12.134 12.144 6.69 0 12.133-5.447 12.133-12.143 0-1.107-.149-2.202-.442-3.256a1.661 1.661 0 113.202-.893c.375 1.345.564 2.74.564 4.15 0 8.529-6.933 15.47-15.457 15.47z" fill="#D89BA6"/></svg><svg fill="none" viewBox="0 0 37 32" id="check-second" xmlns="http://www.w3.org/2000/svg"><path d="M6.409 14.36c3.3 1.897 5.829 4.742 7.646 8.065.28.512 2.01.364 2.493.364.423 0 2.278.157 2.494-.364C22.622 13.752 28.314 5.87 36.094.518c.402-.277-1.628-.444-1.741-.449-.79-.032-2.355-.235-3.068.255-7.842 5.395-13.62 13.357-17.23 22.101h4.986c-1.85-3.384-4.462-6.327-7.824-8.258-.796-.457-2.188-.29-3.067-.255-.42.018-1.133-.047-1.49.168-.08.049-.526.123-.251.28z" fill="#fff"/><path d="M15.458 31.529C6.934 31.529 0 24.588 0 16.056 0 7.527 6.934.587 15.458.587c2.543 0 5.065.632 7.294 1.827a1.664 1.664 0 01-1.57 2.933 12.143 12.143 0 00-5.724-1.434c-6.69 0-12.134 5.448-12.134 12.144 0 6.697 5.443 12.144 12.134 12.144 6.69 0 12.133-5.448 12.133-12.144 0-1.106-.149-2.202-.442-3.255a1.663 1.663 0 013.202-.893c.375 1.345.564 2.74.564 4.149 0 8.53-6.933 15.47-15.457 15.47z" fill="#fff"/></svg><svg fill="none" viewBox="0 0 23 23" id="cross" xmlns="http://www.w3.org/2000/svg"><path fill="#F21631" d="M.504 4.247L4.747.005l18.249 18.249-4.243 4.242z"/><path fill="#F21631" d="M0 18.25l4.243 4.242 18.249-18.25L18.249 0z"/></svg></svg>