<svg width="32" height="33" viewBox="0 0 32 33" fill="none" xmlns="http://www.w3.org/2000/svg">
<g clip-path="url(#clip0)">
<path d="M30.4829 8.10468C29.6629 7.28485 28.6738 6.87482 27.5149 6.87482H23.8417L23.0056 4.64483C22.7978 4.10925 22.4181 3.6473 21.8657 3.25904C21.3136 2.87095 20.7479 2.67676 20.1685 2.67676H11.7725C11.1931 2.67676 10.6273 2.87095 10.0752 3.25904C9.52308 3.6473 9.14332 4.10925 8.93557 4.64483L8.09932 6.87482H4.42616C3.26717 6.87482 2.27802 7.28485 1.45802 8.10468C0.638187 8.92457 0.228271 9.91383 0.228271 11.0727V25.7654C0.228271 26.9243 0.638187 27.9137 1.45802 28.7334C2.27802 29.5534 3.26723 29.9634 4.42616 29.9634H27.5145C28.6734 29.9634 29.6624 29.5534 30.4825 28.7334C31.3022 27.9137 31.7123 26.9243 31.7123 25.7654V11.0727C31.7125 9.91383 31.3025 8.92457 30.4829 8.10468ZM21.1603 23.6092C19.7228 25.0468 17.9929 25.7658 15.9704 25.7658C13.9478 25.7658 12.2181 25.0468 10.7804 23.6092C9.34273 22.1718 8.62404 20.4416 8.62404 18.4195C8.62404 16.3967 9.34296 14.6671 10.7804 13.2294C12.2179 11.7917 13.9478 11.073 15.9704 11.073C17.9929 11.073 19.7228 11.7919 21.1603 13.2294C22.5979 14.6669 23.3167 16.3967 23.3167 18.4195C23.3167 20.4416 22.598 22.1717 21.1603 23.6092Z" fill="#0084FF"/>
<path d="M15.9703 13.6963C14.6694 13.6963 13.557 14.1582 12.6332 15.0821C11.7095 16.0059 11.2476 17.1181 11.2476 18.4193C11.2476 19.72 11.7095 20.8324 12.6332 21.7562C13.557 22.6798 14.6693 23.1417 15.9703 23.1417C17.2711 23.1417 18.3836 22.6798 19.3074 21.7562C20.2312 20.8324 20.6931 19.7201 20.6931 18.4193C20.6931 17.1181 20.2312 16.0059 19.3074 15.0821C18.3837 14.1582 17.2711 13.6963 15.9703 13.6963Z" fill="#0084FF"/>
</g>
<defs>
<clipPath id="clip0">
<rect width="31.484" height="31.484" fill="white" transform="translate(0.228271 0.578125)"/>
</clipPath>
</defs>
</svg>
