<svg width="20" height="20" viewBox="0 0 20 20" fill="none" xmlns="http://www.w3.org/2000/svg">
<g clip-path="url(#clip0)">
<path d="M19.707 3.71816L13.4249 10.0002L19.707 16.2822L18.8784 17.1111L8.25192 10.0002L18.8784 2.88965L19.707 3.71816Z" fill="#E0230D"/>
<path d="M18.8784 2.88944L11.7675 9.99996L18.8784 17.1109L16.282 19.707L9.99996 13.4249L3.71796 19.707L0.292969 16.282L6.57498 9.99996L0.292969 3.71796L3.71796 0.292969L9.99996 6.57498L16.282 0.292969L18.8784 2.88944Z" fill="#FF5440"/>
<path d="M13.8393 10.0009L19.9141 3.92616C20.0286 3.8117 20.0286 3.62624 19.9141 3.51182L16.4891 0.0867966C16.4342 0.0318358 16.3597 0.000976562 16.282 0.000976562C16.2043 0.000976562 16.1298 0.0318358 16.0748 0.0867575L9.99996 6.16158L3.92522 0.0867966C3.81077 -0.027578 3.6253 -0.027578 3.51088 0.0867966L0.08582 3.51182C0.0308593 3.56678 0 3.64131 0 3.71901C0 3.7967 0.0308593 3.8712 0.0857809 3.9262L6.16064 10.0009L3.64108 12.5204C3.52667 12.6349 3.52667 12.8203 3.64108 12.9348C3.75549 13.0491 3.94096 13.0492 4.05541 12.9348L6.78212 10.2081C6.83704 10.1531 6.8679 10.0786 6.8679 10.0009C6.8679 9.92317 6.83704 9.84871 6.78212 9.79371L0.707302 3.71901L3.71803 0.708279L9.79281 6.7831C9.90727 6.89747 10.0927 6.89747 10.2071 6.7831L16.282 0.708279L19.2927 3.71901L13.2178 9.79379C13.1034 9.90824 13.1034 10.0937 13.2178 10.2081L19.2927 16.2829L16.282 19.2936L10.2071 13.2188C10.0927 13.1044 9.90723 13.1044 9.79281 13.2188L3.71803 19.2936L0.707302 16.2829L3.22682 13.7634C3.34124 13.649 3.34124 13.4635 3.22682 13.3491C3.11233 13.2347 2.92686 13.2347 2.81249 13.3491L0.08582 16.0757C-0.0285936 16.1902 -0.0285936 16.3756 0.08582 16.4901L3.51088 19.9151C3.56811 19.9723 3.64311 20.0009 3.71807 20.0009C3.79303 20.0009 3.86803 19.9723 3.92526 19.9151L9.99996 13.8403L16.0748 19.9151C16.1297 19.97 16.2042 20.0009 16.282 20.0009C16.3597 20.0009 16.4342 19.97 16.4892 19.9151L19.9142 16.4901C20.0286 16.3756 20.0286 16.1901 19.9142 16.0757L13.8393 10.0009Z" fill="white"/>
</g>
<defs>
<clipPath id="clip0">
<rect width="20" height="20" fill="white"/>
</clipPath>
</defs>
</svg>
