<svg width="31" height="31" viewBox="0 0 31 31" fill="none" xmlns="http://www.w3.org/2000/svg">
<path d="M14.3135 1.89835C14.9682 1.24163 16.0318 1.24163 16.6865 1.89835C17.4527 2.6668 18.607 2.89642 19.6089 2.47964C20.4651 2.12346 21.4478 2.5305 21.8014 3.38779C22.2151 4.39092 23.1937 5.04482 24.2788 5.04317C25.2061 5.04175 25.9582 5.79386 25.9568 6.7212C25.9552 7.80629 26.6091 8.78493 27.6122 9.19865C28.4695 9.55222 28.8765 10.5349 28.5204 11.3911C28.1036 12.393 28.3332 13.5473 29.1017 14.3135C29.7584 14.9682 29.7584 16.0318 29.1017 16.6865C28.3332 17.4527 28.1036 18.607 28.5204 19.6089C28.8765 20.4651 28.4695 21.4478 27.6122 21.8014C26.6091 22.2151 25.9552 23.1937 25.9568 24.2788C25.9582 25.2061 25.2061 25.9582 24.2788 25.9568C23.1937 25.9552 22.2151 26.6091 21.8014 27.6122C21.4478 28.4695 20.4651 28.8765 19.6089 28.5204C18.607 28.1036 17.4527 28.3332 16.6865 29.1017C16.0318 29.7584 14.9682 29.7584 14.3135 29.1017C13.5473 28.3332 12.393 28.1036 11.3911 28.5204C10.5349 28.8765 9.55222 28.4695 9.19865 27.6122C8.78493 26.6091 7.80629 25.9552 6.7212 25.9568C5.79386 25.9582 5.04175 25.2061 5.04317 24.2788C5.04482 23.1937 4.39092 22.2151 3.38779 21.8014C2.5305 21.4478 2.12346 20.4651 2.47964 19.6089C2.89642 18.607 2.6668 17.4527 1.89835 16.6865C1.24163 16.0318 1.24163 14.9682 1.89835 14.3135C2.6668 13.5473 2.89642 12.393 2.47964 11.3911C2.12346 10.5349 2.5305 9.55222 3.38779 9.19865C4.39092 8.78493 5.04482 7.80629 5.04317 6.7212C5.04175 5.79386 5.79386 5.04175 6.7212 5.04317C7.80629 5.04482 8.78493 4.39092 9.19865 3.38779C9.55222 2.5305 10.5349 2.12346 11.3911 2.47964C12.393 2.89642 13.5473 2.6668 14.3135 1.89835L13.9594 1.54534L14.3135 1.89835Z" fill="#74A2D6" stroke="#4271A6"/>
<path d="M22.0861 9.32281C21.4976 8.83095 20.6284 8.91108 20.1408 9.49554L13.9799 16.8612L11.3589 14.2416C10.8186 13.7014 9.94537 13.7014 9.40519 14.2416C8.86494 14.7819 8.86494 15.6551 9.40519 16.1953L13.0943 19.8844C13.3526 20.1455 13.705 20.2892 14.0711 20.2892C14.0905 20.2892 14.1112 20.2892 14.1306 20.2864C14.5202 20.2698 14.8808 20.0903 15.1295 19.7932L22.2588 11.2682C22.7479 10.6824 22.672 9.81193 22.0861 9.32281Z" fill="white"/>
</svg>
