<svg width="30" height="30" viewBox="0 0 30 30" fill="none" xmlns="http://www.w3.org/2000/svg">
<g clip-path="url(#clip0)">
<path d="M15.0035 20.5163C16.5382 20.5163 17.8515 19.9699 18.9441 18.8777C20.0366 17.7855 20.5829 16.4715 20.5829 14.937V6.00958C20.5829 4.47507 20.037 3.16165 18.9441 2.06888C17.8515 0.976348 16.5382 0.429688 15.0035 0.429688C13.4691 0.429688 12.1556 0.976348 11.0629 2.06888C9.97012 3.16146 9.42383 4.47507 9.42383 6.00958V14.937C9.42383 16.4714 9.97037 17.7855 11.0629 18.8777C12.1554 19.9699 13.4691 20.5163 15.0035 20.5163Z" fill="#0084FF"/>
<path d="M24.7155 11.9202C24.4952 11.6993 24.2331 11.5889 23.9309 11.5889C23.6289 11.5889 23.3674 11.6993 23.1463 11.9202C22.9256 12.1411 22.8152 12.4026 22.8152 12.7047V14.9367C22.8152 17.0874 22.0507 18.9268 20.522 20.4554C18.9939 21.984 17.1542 22.7484 15.0035 22.7484C12.8529 22.7484 11.0134 21.984 9.48471 20.4554C7.95618 18.9272 7.19198 17.0874 7.19198 14.9367V12.7047C7.19198 12.4026 7.0815 12.1411 6.86072 11.9202C6.63982 11.6993 6.37855 11.5889 6.07612 11.5889C5.77369 11.5889 5.51212 11.6993 5.29134 11.9202C5.07038 12.1411 4.95996 12.4026 4.95996 12.7047V14.9367C4.95996 17.5058 5.81742 19.7407 7.53185 21.641C9.24634 23.5415 11.3649 24.6312 13.8876 24.91V27.2119H9.42382C9.12157 27.2119 8.86006 27.3225 8.63922 27.5434C8.41832 27.7641 8.30784 28.0258 8.30784 28.328C8.30784 28.6298 8.41832 28.8919 8.63922 29.1126C8.86006 29.3333 9.12157 29.4441 9.42382 29.4441H20.5829C20.8851 29.4441 21.147 29.3334 21.3675 29.1126C21.5887 28.892 21.6992 28.6298 21.6992 28.328C21.6992 28.0258 21.5887 27.7642 21.3675 27.5434C21.1471 27.3225 20.8852 27.2119 20.5829 27.2119H16.1198V24.91C18.642 24.6312 20.7604 23.5415 22.475 21.641C24.1897 19.7407 25.0474 17.5058 25.0474 14.9367V12.7047C25.0474 12.4027 24.9367 12.1413 24.7155 11.9202Z" fill="#0084FF"/>
</g>
<defs>
<clipPath id="clip0">
<rect width="29.0147" height="29.0147" fill="white" transform="translate(0.496338 0.429688)"/>
</clipPath>
</defs>
</svg>
