<svg width="20" height="20" viewBox="0 0 20 20" fill="none" xmlns="http://www.w3.org/2000/svg">
<path d="M9.659 0.80957C4.37354 0.80957 0.090332 5.09392 0.090332 10.3782C0.090332 15.6632 4.37408 19.9469 9.659 19.9469C14.9433 19.9469 19.2271 15.6632 19.2271 10.3782C19.2271 5.09452 14.9433 0.80957 9.659 0.80957ZM9.659 18.1528C5.36508 18.1528 1.88449 14.6722 1.88449 10.3782C1.88449 6.08432 5.36569 2.60372 9.659 2.60372C13.9523 2.60372 17.4329 6.08432 17.4329 10.3782C17.4329 14.6722 13.9524 18.1528 9.659 18.1528ZM13.4195 6.30797C13.0128 6.06519 12.4931 6.20929 12.2593 6.63091L9.0508 12.3942L7.26387 10.2191C6.94034 9.84658 6.51036 9.65343 6.10427 9.89622C5.69758 10.1396 5.52953 10.7251 5.79272 11.1007L8.27936 14.1274C8.46535 14.369 8.67763 14.5137 8.89954 14.555L8.90134 14.5586L8.92409 14.5598C8.97433 14.5676 9.7255 14.7063 10.049 14.1274L13.7318 7.51253C13.9655 7.09018 13.8262 6.55136 13.4195 6.30797Z" fill="#0084FF"/>
</svg>
