<svg width="70" height="70" viewBox="0 0 70 70" fill="none" xmlns="http://www.w3.org/2000/svg">
<rect x="0.337681" y="0.337891" width="69.2284" height="69.2284" rx="34.6142" fill="#D992B9"/>
<path d="M38.7975 33.4697C39.1613 33.4697 39.4566 33.1809 39.4566 32.8252C39.4566 32.4694 39.1613 32.1807 38.7975 32.1807C38.433 32.1807 38.1384 32.4694 38.1384 32.8252C38.1384 33.1809 38.433 33.4697 38.7975 33.4697Z" fill="white"/>
<path d="M32.2066 33.4697C32.5704 33.4697 32.8657 33.1809 32.8657 32.8252C32.8657 32.4694 32.5704 32.1807 32.2066 32.1807C31.842 32.1807 31.5475 32.4694 31.5475 32.8252C31.5475 33.1809 31.842 33.4697 32.2066 33.4697Z" fill="white"/>
<path d="M21 48.9417V50.3564C21 50.7124 21.295 51.001 21.6591 51.001H49.3409C49.705 51.001 50 50.7124 50 50.3564V48.9405C50 46.3772 48.5276 44.0083 45.8027 43.0357C46.7874 42.1946 47.386 40.9624 47.386 39.63C47.386 39.2743 47.091 38.9855 46.7269 38.9855C45.1415 38.9855 43.8053 37.889 43.4835 36.4346H45.3884C46.4775 36.4346 47.3636 35.5672 47.3636 34.501V31.5361C47.3636 30.6955 46.8124 29.9787 46.0455 29.7131V28.3135C46.0455 22.6273 41.3157 18.001 35.5021 18.001C29.675 18.001 24.9545 22.6126 24.9545 28.3135V29.7141C24.1876 29.9807 23.6364 30.6972 23.6364 31.5361V34.501C23.6364 35.5672 24.5243 36.4346 25.6157 36.4346H27.5165C27.1952 37.889 25.8603 38.9855 24.2764 38.9855C23.9124 38.9855 23.6173 39.2743 23.6173 39.63C23.6173 40.9642 24.2174 42.1976 25.2048 43.0393C22.4904 44.0126 21 46.4054 21 48.9417ZM46.0122 40.2207C45.807 41.3015 45.0465 42.219 43.9837 42.6311L39.9908 42.1241L39.5642 40.4936C40.809 39.7657 41.801 38.7373 42.4658 37.53C43.086 38.9354 44.4181 39.9777 46.0122 40.2207ZM40.7846 29.6025C38.9638 29.6025 37.4824 28.1357 37.4824 26.3328C37.4824 25.9768 37.1874 25.6883 36.8233 25.6883C36.4595 25.6883 36.1642 25.9768 36.1642 26.3328C36.1642 28.1357 34.6828 29.6025 32.8616 29.6025H28.9112C28.9112 26.0486 31.8678 23.1572 35.5021 23.1572C39.1433 23.1572 42.093 26.039 42.093 29.6025H40.7846ZM28.9091 30.8916H32.8616C34.5412 30.8916 36.0144 30.0031 36.8233 28.6773C37.6323 30.0031 39.1052 30.8916 40.7846 30.8916H42.0909V33.8564C42.0909 36.2943 40.7102 38.4966 38.4878 39.6036C37.5579 40.0669 36.5533 40.3018 35.5021 40.3018C34.4537 40.3018 33.4522 40.0686 32.5248 39.6089C31.9025 39.3005 31.3359 38.8986 30.8403 38.4137C29.595 37.1967 28.9091 35.578 28.9091 33.8564V30.8916ZM32.6605 41.0767C33.5629 41.4176 34.5155 41.5908 35.5021 41.5908C36.4925 41.5908 37.4487 41.4161 38.3549 41.0717L38.7733 42.6717C38.5537 44.2674 37.1694 45.458 35.5085 45.458C33.8479 45.458 32.4635 44.2679 32.2434 42.6727L32.6605 41.0767ZM46.0455 34.501C46.0455 34.8565 45.7507 35.1455 45.3884 35.1455H43.4091V30.8916H45.3884C45.7507 30.8916 46.0455 31.1806 46.0455 31.5361V34.501ZM35.5021 19.29C40.5889 19.29 44.7273 23.338 44.7273 28.3135V29.6025H43.4111C43.4111 25.3292 39.8745 21.8682 35.5021 21.8682C31.141 21.8682 27.593 25.3378 27.593 29.6025H26.2727V28.3135C26.2727 23.3279 30.4011 19.29 35.5021 19.29ZM24.9545 34.501V31.5361C24.9545 31.1814 25.2506 30.8924 25.6157 30.8916H27.5909V35.1455H25.6157C25.2511 35.1455 24.9545 34.8565 24.9545 34.501ZM28.5353 37.5283C28.8965 38.1808 29.3563 38.7861 29.9083 39.3254C30.3727 39.7798 30.8905 40.1726 31.4507 40.4996L31.0262 42.1243L27.0222 42.6324C25.9581 42.22 25.1966 41.302 24.9911 40.2207C26.5848 39.9775 27.9161 38.9341 28.5353 37.5283ZM26.9524 43.9408L27.025 43.9318C27.0255 43.9315 27.0266 43.9315 27.0271 43.9315L31.0555 43.4204C31.5892 45.3598 33.3878 46.7471 35.5085 46.7471C37.6292 46.7471 39.4275 45.3598 39.961 43.4202C40.1618 43.4459 38.9028 43.286 44.0638 43.9411C46.9532 44.3082 48.6818 46.4258 48.6818 48.9405V49.7119H22.3182V48.9417C22.3182 46.4741 24.0457 44.3099 26.9524 43.9408Z" fill="white"/>
<path d="M33.74 37.8999C34.2933 38.1549 34.8862 38.2843 35.5018 38.2843C36.1032 38.2843 36.6843 38.1602 37.2296 37.9155C37.5604 37.7672 37.7054 37.3845 37.5535 37.061C37.4018 36.7375 37.0105 36.5955 36.6796 36.744C36.3081 36.9107 35.9119 36.9953 35.502 36.9953C35.0821 36.9953 34.6782 36.9074 34.302 36.7339C33.9727 36.5821 33.5801 36.7201 33.4249 37.0421C33.2696 37.3641 33.4107 37.7483 33.74 37.8999Z" fill="white"/>
<path d="M41.4339 48.0361H44.0702C44.4343 48.0361 44.7293 47.7476 44.7293 47.3916C44.7293 47.0356 44.4343 46.7471 44.0702 46.7471H41.4339C41.0698 46.7471 40.7748 47.0356 40.7748 47.3916C40.7748 47.7476 41.0698 48.0361 41.4339 48.0361Z" fill="white"/>
<path d="M46.7045 46.7471C47.0683 46.7471 47.3636 47.0359 47.3636 47.3916C47.3636 47.7474 47.0683 48.0361 46.7045 48.0361C46.3408 48.0361 46.0455 47.7474 46.0455 47.3916C46.0455 47.0359 46.3408 46.7471 46.7045 46.7471Z" fill="white"/>
</svg>
