<svg width="70" height="70" viewBox="0 0 70 70" fill="none" xmlns="http://www.w3.org/2000/svg">
<rect x="0.337681" y="0.338867" width="69.2284" height="69.2284" rx="34.6142" fill="#D992B9"/>
<path d="M47.2494 42.0117C46.3453 42.0117 45.4865 42.3767 44.8385 43.0368C44.1906 43.7047 43.829 44.5745 43.829 45.5064C43.829 46.4383 44.1831 47.308 44.8385 47.9759C45.494 48.636 46.3453 49.001 47.2494 49.001C49.1028 49.001 50.6097 47.4323 50.6097 45.5064C50.6097 43.5804 49.1028 42.0117 47.2494 42.0117ZM47.2494 47.4478C46.2097 47.4478 45.3358 46.5625 45.3358 45.5064C45.3358 44.4502 46.2097 43.5649 47.2494 43.5649C48.2741 43.5649 49.1028 44.4347 49.1028 45.5064C49.1028 46.578 48.2741 47.4478 47.2494 47.4478ZM48.1234 30.3707C47.9878 30.2387 47.807 30.1688 47.6186 30.1688H43.7536C43.3392 30.1688 43.0002 30.5183 43.0002 30.9454V37.3134C43.0002 37.7405 43.3392 38.09 43.7536 38.09H49.8864C50.3008 38.09 50.6398 37.7405 50.6398 37.3134V33.05C50.6398 32.8325 50.5494 32.6228 50.3912 32.4753L48.1234 30.3707ZM49.133 36.5368H44.507V31.7142H47.3248L49.133 33.3917V36.5368ZM28.8512 42.0117C27.9471 42.0117 27.0882 42.3767 26.4402 43.0368C25.7923 43.7047 25.4307 44.5745 25.4307 45.5064C25.4307 46.4383 25.7848 47.308 26.4402 47.9759C27.0957 48.636 27.9471 49.001 28.8512 49.001C30.7045 49.001 32.2114 47.4323 32.2114 45.5064C32.2114 43.5804 30.7045 42.0117 28.8512 42.0117ZM28.8512 47.4478C27.8114 47.4478 26.9375 46.5625 26.9375 45.5064C26.9375 44.4502 27.8114 43.5649 28.8512 43.5649C29.8758 43.5649 30.7045 44.4347 30.7045 45.5064C30.7045 46.578 29.8758 47.4478 28.8512 47.4478ZM23.8259 42.9669H22.3115V40.9012C22.3115 40.4741 21.9725 40.1246 21.5581 40.1246C21.1438 40.1246 20.8047 40.4741 20.8047 40.9012V43.7435C20.8047 44.1706 21.1438 44.5201 21.5581 44.5201H23.8259C24.2403 44.5201 24.5793 44.1706 24.5793 43.7435C24.5793 43.3164 24.2403 42.9669 23.8259 42.9669ZM27.6457 38.7345C27.6457 38.3074 27.3067 37.958 26.8923 37.958H17.7534C17.339 37.958 17 38.3074 17 38.7345C17 39.1617 17.339 39.5111 17.7534 39.5111H26.8923C27.3067 39.5111 27.6457 39.1694 27.6457 38.7345ZM19.2828 35.9311L28.4217 35.9854C28.8361 35.9854 29.1751 35.6437 29.1827 35.2166C29.1902 34.7817 28.8512 34.4323 28.4368 34.4323L19.2979 34.3779C19.2904 34.3779 19.2904 34.3779 19.2904 34.3779C18.876 34.3779 18.537 34.7196 18.537 35.1467C18.5294 35.5816 18.8685 35.9311 19.2828 35.9311ZM20.8198 32.4054H29.9587C30.373 32.4054 30.7121 32.0559 30.7121 31.6288C30.7121 31.2017 30.373 30.8522 29.9587 30.8522H20.8198C20.4054 30.8522 20.0664 31.2017 20.0664 31.6288C20.0664 32.0559 20.4054 32.4054 20.8198 32.4054ZM53.7212 31.357L48.3268 26.7519C48.1912 26.6354 48.0255 26.5733 47.8446 26.5733H41.5009V23.7776C41.5009 23.3504 41.1619 23.001 40.7475 23.001H21.5581C21.1438 23.001 20.8047 23.3504 20.8047 23.7776V29.4621C20.8047 29.8893 21.1438 30.2387 21.5581 30.2387C21.9725 30.2387 22.3115 29.8893 22.3115 29.4621V24.5541H40.0016V42.9669H33.8237C33.4093 42.9669 33.0703 43.3164 33.0703 43.7435C33.0703 44.1706 33.4093 44.5201 33.8237 44.5201H43.0228C43.4372 44.5201 43.7762 44.1706 43.7762 43.7435C43.7762 43.3164 43.4372 42.9669 43.0228 42.9669H41.5084V28.1264H47.5809L52.4932 32.32L52.4404 42.9514H51.6569C51.2425 42.9514 50.9035 43.3009 50.9035 43.728C50.9035 44.1551 51.2425 44.5046 51.6569 44.5046H53.1863C53.6007 44.5046 53.9397 44.1629 53.9397 43.7357L54 31.9627C53.9925 31.7298 53.8945 31.5046 53.7212 31.357Z" fill="white"/>
</svg>
