<svg width="37" height="32" viewBox="0 0 37 32" fill="none" xmlns="http://www.w3.org/2000/svg">
<path d="M6.40881 14.3606C9.70946 16.2572 12.238 19.102 14.0552 22.4252C14.3354 22.9372 16.0659 22.7892 16.5484 22.7892C16.9713 22.7892 18.8263 22.9461 19.0417 22.4252C22.6225 13.752 28.3142 5.86916 36.0939 0.517539C36.4956 0.241259 34.4657 0.0740367 34.3526 0.0693628C33.5628 0.0366454 31.9984 -0.16641 31.2854 0.323831C23.4429 5.71856 17.6646 13.6813 14.0546 22.4252C15.7166 22.4252 17.3792 22.4252 19.0412 22.4252C17.1908 19.0408 14.5787 16.0983 11.2168 14.1669C10.4214 13.7099 9.02868 13.8761 8.14968 13.9124C7.73042 13.9296 7.01694 13.8647 6.65943 14.0797C6.57952 14.1285 6.13431 14.2027 6.40881 14.3606Z" fill="white"/>
<path d="M15.4577 31.5285C6.93444 31.5285 0 24.5877 0 16.0573C0 7.5269 6.93444 0.58667 15.4577 0.58667C18.0008 0.58667 20.5231 1.21869 22.7517 2.41417C23.5612 2.84832 23.8653 3.85633 23.4315 4.66647C22.9977 5.47662 21.9905 5.78094 21.1811 5.34678C19.4345 4.40941 17.4549 3.91345 15.4577 3.91345C8.76715 3.91345 3.32401 9.36115 3.32401 16.0573C3.32401 22.7535 8.76715 28.2012 15.4577 28.2012C22.1483 28.2012 27.5914 22.7535 27.5914 16.0573C27.5914 14.9506 27.4425 13.8554 27.1493 12.8022C26.9029 11.9173 27.4202 10.9996 28.3044 10.7535C29.1891 10.5068 30.1054 11.0245 30.3514 11.9095C30.7255 13.2535 30.9154 14.6489 30.9154 16.0578C30.9159 24.5877 23.9815 31.5285 15.4577 31.5285Z" fill="white"/>
</svg>
