<svg width="54" height="54" viewBox="0 0 54 54" fill="none" xmlns="http://www.w3.org/2000/svg">
<circle cx="27" cy="27" r="27" fill="#970D50"/>
<g clip-path="url(#clip0_105_4)">
<path d="M39.0183 19.5891H31.8798L33.5109 18.781C33.6065 18.7353 33.694 18.6718 33.7703 18.5955C34.371 17.9942 34.7019 17.1926 34.7019 16.3421C34.7019 15.4897 34.3713 14.6902 33.7703 14.0868C32.5289 12.8457 30.5122 12.8457 29.2714 14.0868C29.204 14.1551 29.1471 14.2328 29.1022 14.3168L26.8298 18.5436L24.5576 14.3171C24.5125 14.2331 24.4553 14.1554 24.3879 14.0886C23.1476 12.8445 21.1298 12.8445 19.8899 14.0886C18.6497 15.3312 18.6497 17.3529 19.8899 18.5955C19.9653 18.6718 20.0534 18.7353 20.1484 18.781L21.7795 19.5891H14.9815C14.4395 19.5891 14 20.0301 14 20.5726V26.4109C14 26.9537 14.4395 27.3938 14.9815 27.3938H16.1154V37.8622C16.1154 38.405 16.5547 38.8448 17.0969 38.8448H36.9642C37.5059 38.8448 37.946 38.4056 37.946 37.8622V27.3938H39.0183C39.5602 27.3938 40.0003 26.9543 40.0003 26.4109V20.5726C39.9994 20.0301 39.5602 19.5891 39.0183 19.5891ZM25.9495 36.8783V27.3938H28.0751V36.8786H25.9495V36.8783ZM28.0929 25.4274H25.9682V21.5568H28.0929V25.4274ZM30.75 15.3947C31.2284 15.0045 31.9365 15.0312 32.3823 15.4787C32.6123 15.7087 32.7393 16.0153 32.7393 16.3421C32.7393 16.621 32.6467 16.8863 32.4743 17.1024L28.8749 18.8843L30.75 15.3947ZM21.2773 15.4787C21.7074 15.0472 22.4431 15.014 22.9087 15.3947L24.7835 18.8843L21.1844 17.1024C20.8046 16.6231 20.8354 15.9215 21.2773 15.4787ZM15.962 21.5568H24.0053V25.4274H15.962V21.5568ZM18.0775 27.3938H24.9687V36.8786H18.0775V27.3938ZM35.9834 36.8783H29.0556V27.3938H35.9834V36.8783ZM38.0377 25.4274H30.0558V21.5568H38.038V25.4274H38.0377Z" fill="white"/>
</g>
<defs>
<clipPath id="clip0_105_4">
<rect width="26" height="26" fill="white" transform="translate(14 13)"/>
</clipPath>
</defs>
</svg>
