<svg width="41" height="41" viewBox="0 0 41 41" fill="none" xmlns="http://www.w3.org/2000/svg">
<path d="M0.0947143 28.0849C0.23405 28.3453 0.505435 28.5078 0.800763 28.5078H4.80467V40.1992C4.80467 40.6414 5.16318 41 5.60545 41H35.3945C35.8368 41 36.1953 40.6414 36.1953 40.1992V28.5078H40.1992C40.4945 28.5078 40.7659 28.3453 40.9052 28.0849C41.0446 27.8245 41.0293 27.5086 40.8654 27.2628L36.0608 20.0558C35.9123 19.833 35.6622 19.6992 35.3945 19.6992H32.3515C31.9093 19.6992 31.5508 20.0577 31.5508 20.5C31.5508 20.9423 31.9093 21.3008 32.3515 21.3008H34.9659L38.7029 26.9062H25.7332L21.9962 21.3008H25.1445C25.5868 21.3008 25.9453 20.9423 25.9453 20.5C25.9453 20.0577 25.5868 19.6992 25.1445 19.6992C24.23 19.6992 6.49047 19.6992 5.60545 19.6992C5.33767 19.6992 5.08767 19.833 4.9392 20.0558L0.134513 27.2628C-0.0293267 27.5086 -0.0446217 27.8245 0.0947143 28.0849ZM6.40623 28.5078H15.6953C15.9631 28.5078 16.2131 28.374 16.3615 28.1512L19.6992 23.1447V39.3984H6.40623V28.5078ZM24.6384 28.1512C24.7869 28.374 25.037 28.5078 25.3047 28.5078H34.5937V39.3984H21.3008V23.1447L24.6384 28.1512ZM6.03403 21.3008H19.0037L15.2667 26.9062H2.29702L6.03403 21.3008Z" fill="black"/>
<path d="M15.6953 2.00436C15.0412 1.0431 13.9121 0 12.0918 0C9.52569 0 7.6875 2.06802 7.6875 4.56205C7.6875 7.33107 9.92849 9.14973 13.3208 11.9025C13.9152 12.3848 14.5298 12.8836 15.1827 13.4277C15.3312 13.5514 15.5132 13.6132 15.6953 13.6132C15.8774 13.6132 16.0594 13.5514 16.2079 13.4277C16.8608 12.8836 17.4754 12.3848 18.0699 11.9025C21.4621 9.14973 23.7031 7.33107 23.7031 4.56205C23.7031 2.06602 21.863 0 19.2988 0C17.4786 0 16.3495 1.0431 15.6953 2.00436ZM22.1016 4.56205C22.1016 6.56817 20.0962 8.1956 17.0607 10.6589C16.6196 11.0168 16.1674 11.3838 15.6953 11.7727C15.2233 11.3839 14.7711 11.0169 14.3299 10.6589C11.2945 8.1956 9.28906 6.56825 9.28906 4.56205C9.28906 2.87432 10.494 1.60156 12.0918 1.60156C14.1824 1.60156 14.8973 3.92927 14.9258 4.02537C15.0246 4.36834 15.3384 4.60449 15.6953 4.60449C16.0522 4.60449 16.366 4.36826 16.4648 4.02537C16.4718 4.0011 17.1872 1.60156 19.2988 1.60156C20.8966 1.60156 22.1016 2.87432 22.1016 4.56205Z" fill="black"/>
<path d="M30.1094 16.0156C30.2976 16.0156 30.4858 15.9496 30.6368 15.8174C31.0718 15.4367 31.4818 15.0874 31.8781 14.7495C34.1055 12.8513 35.7148 11.4798 35.7148 9.43961C35.7148 7.51413 34.3079 6.00586 32.5117 6.00586C31.3687 6.00586 30.6023 6.58715 30.1094 7.20975C29.6164 6.58715 28.8501 6.00586 27.707 6.00586C25.9109 6.00586 24.5039 7.51413 24.5039 9.43961C24.5039 11.4798 26.1132 12.8513 28.3406 14.7495C28.7371 15.0874 29.147 15.4367 29.582 15.8174C29.7329 15.9496 29.9212 16.0156 30.1094 16.0156ZM26.1055 9.43961C26.1055 8.55138 26.6667 7.60742 27.707 7.60742C28.8874 7.60742 29.3183 9.05507 29.3381 9.1241C29.4347 9.47004 29.7494 9.71147 30.1088 9.71147C30.4695 9.71147 30.7851 9.47244 30.8805 9.12458C30.8982 9.06268 31.3282 7.60742 32.5117 7.60742C33.552 7.60742 34.1133 8.55138 34.1133 9.43961C34.1133 10.7404 32.881 11.7906 30.8394 13.5305C30.6019 13.7328 30.3596 13.9393 30.1094 14.1547C29.8591 13.9393 29.6169 13.7328 29.3794 13.5305C27.3378 11.7906 26.1055 10.7404 26.1055 9.43961Z" fill="#963636"/>
<path d="M28.748 21.3008C29.1903 21.3008 29.5488 20.9423 29.5488 20.5C29.5488 20.0577 29.1903 19.6992 28.748 19.6992C28.3058 19.6992 27.9473 20.0577 27.9473 20.5C27.9473 20.9423 28.3058 21.3008 28.748 21.3008Z" fill="black"/>
</svg>
