<svg width="28" height="25" viewBox="0 0 28 25" fill="none" xmlns="http://www.w3.org/2000/svg">
<path d="M4.96443 11.1241C7.52121 12.5932 9.47988 14.7969 10.8875 17.3711C11.1045 17.7678 12.445 17.6531 12.8188 17.6531C13.1464 17.6531 14.5834 17.7746 14.7502 17.3711C17.524 10.6526 21.933 4.54641 27.9593 0.400899C28.2704 0.186885 26.698 0.0573507 26.6104 0.0537302C25.9986 0.0283865 24.7868 -0.128905 24.2345 0.250848C18.1595 4.42975 13.6834 10.5979 10.8871 17.3711C12.1745 17.3711 13.4624 17.3711 14.7498 17.3711C13.3165 14.7495 11.2931 12.4701 8.68886 10.9741C8.07267 10.6201 6.99385 10.7488 6.31296 10.7769C5.98819 10.7902 5.43551 10.7399 5.15857 10.9065C5.09667 10.9443 4.7518 11.0018 4.96443 11.1241Z" fill="#46A94A"/>
<path d="M11.9739 24.4224C5.3716 24.4224 0 19.0459 0 12.4381C0 5.83019 5.3716 0.454102 11.9739 0.454102C13.9439 0.454102 15.8977 0.943678 17.6241 1.86973C18.2511 2.20604 18.4867 2.98686 18.1506 3.61442C17.8146 4.24198 17.0344 4.47772 16.4074 4.14141C15.0545 3.41529 13.521 3.03111 11.9739 3.03111C6.79127 3.03111 2.57486 7.25104 2.57486 12.4381C2.57486 17.6251 6.79127 21.845 11.9739 21.845C17.1566 21.845 21.373 17.6251 21.373 12.4381C21.373 11.5808 21.2577 10.7324 21.0306 9.91656C20.8397 9.23107 21.2404 8.52024 21.9253 8.32956C22.6106 8.13848 23.3205 8.53955 23.511 9.22504C23.8008 10.2661 23.9479 11.3471 23.9479 12.4385C23.9483 19.0459 18.5767 24.4224 11.9739 24.4224Z" fill="#46A94A"/>
</svg>
