<svg width="89" height="85" viewBox="0 0 89 85" fill="none" xmlns="http://www.w3.org/2000/svg">
<path d="M19.7546 53.9673H2.22314L15.997 60.8029L19.7546 53.9673Z" fill="#7A3B00"/>
<path d="M69.1904 53.9673H86.7492L72.948 60.8029L69.1904 53.9673Z" fill="#7A3B00"/>
<path d="M44.6319 84.2214C44.0596 84.2214 43.5147 84.0892 43.0951 83.8475L39.9601 82.0485C39.5975 81.841 38.9819 81.702 38.4301 81.702C38.234 81.702 38.0516 81.7202 37.908 81.7544L34.3921 82.5957C34.2006 82.6413 33.9954 82.6642 33.7788 82.6642C32.9055 82.6642 31.9889 82.2971 31.4417 81.7293L28.9405 79.1209C28.5369 78.7014 27.6386 78.2887 27.0549 78.2591L23.4456 78.0767C22.4537 78.0265 21.3183 77.2969 20.86 76.4168L19.1932 73.2087C18.9242 72.6912 18.1763 72.0436 17.6268 71.8521L14.2159 70.6596C13.2788 70.3336 12.3941 69.3121 12.2026 68.3385L11.5071 64.7907C11.3954 64.2184 10.8619 63.3862 10.3876 63.0465L7.44863 60.942C6.64149 60.3629 6.08059 59.1362 6.17179 58.1466L6.50468 54.5487C6.5594 53.9673 6.28124 53.0188 5.92099 52.5582L3.69564 49.7104C3.08459 48.9283 2.89078 47.5922 3.25787 46.6688L4.59171 43.3103C4.80603 42.7676 4.80603 41.7781 4.59171 41.2354L3.25787 37.8746C2.89078 36.9534 3.08231 35.615 3.69564 34.833L5.92099 31.9852C6.28124 31.5246 6.5594 30.5761 6.50468 29.997L6.17179 26.399C6.08059 25.4095 6.64149 24.1805 7.44863 23.6037L10.3876 21.4992C10.8619 21.1594 11.3977 20.3272 11.5071 19.7549L12.2026 16.2071C12.3941 15.2313 13.2788 14.2121 14.2159 13.8838L17.6291 12.6913C18.1809 12.4998 18.9265 11.8499 19.1955 11.3347L20.8622 8.1266C21.3205 7.24422 22.456 6.5146 23.4478 6.46443L27.0572 6.28203C27.6409 6.25239 28.5392 5.84198 28.9428 5.42016L31.444 2.81177C31.989 2.24404 32.9055 1.87695 33.7811 1.87695C33.9954 1.87695 34.2029 1.89975 34.3944 1.94535L37.9103 2.78669C38.0539 2.82089 38.234 2.83913 38.4324 2.83913C38.9842 2.83913 39.5998 2.70005 39.9623 2.49028L43.0974 0.691313C43.517 0.449627 44.0642 0.317383 44.6342 0.317383C45.2042 0.317383 45.7514 0.449627 46.1709 0.691313L49.306 2.49028C49.6686 2.69777 50.2842 2.83913 50.836 2.83913C51.0343 2.83913 51.2144 2.82089 51.3581 2.78669L54.8739 1.94535C55.0655 1.89975 55.2707 1.87695 55.4873 1.87695C56.3605 1.87695 57.2794 2.24404 57.8221 2.81177L60.3256 5.42016C60.7291 5.84198 61.6298 6.25239 62.2112 6.28203L65.8228 6.46443C66.8146 6.5146 67.9501 7.24422 68.4084 8.1266L70.0751 11.3347C70.3442 11.8522 71.092 12.4998 71.6415 12.6913L75.0548 13.8838C75.9942 14.2121 76.8766 15.2313 77.0681 16.2071L77.7612 19.7549C77.8729 20.3272 78.4065 21.1594 78.883 21.4992L81.8197 23.6037C82.6269 24.1828 83.1901 25.4118 83.0966 26.399L82.766 29.997C82.7112 30.5784 82.9894 31.5269 83.3497 31.9852L85.575 34.833C86.1883 35.615 86.3799 36.9534 86.0128 37.8746L84.6789 41.2354C84.4623 41.7781 84.4623 42.7653 84.6789 43.3103L86.0128 46.6711C86.3799 47.5945 86.1883 48.9306 85.575 49.7127L83.3497 52.5605C82.9894 53.021 82.7112 53.9696 82.766 54.5487L83.0988 58.1489C83.1923 59.1385 82.6292 60.3651 81.822 60.9443L78.883 63.0488C78.4088 63.3885 77.8752 64.2207 77.7635 64.793L77.0704 68.3408C76.8788 69.3144 75.9965 70.3359 75.0593 70.6642L71.6461 71.8567C71.0966 72.0482 70.3487 72.6957 70.0797 73.2133L68.4152 76.4213C67.9569 77.3037 66.8215 78.0311 65.8297 78.0812L62.218 78.2636C61.6366 78.2933 60.736 78.7037 60.3324 79.1255L57.8289 81.7339C57.284 82.3016 56.3674 82.6687 55.4941 82.6687C55.2798 82.6687 55.0723 82.6459 54.8808 82.6003L51.3649 81.759C51.2213 81.7248 51.0412 81.7065 50.8428 81.7065C50.2887 81.7065 49.6731 81.8456 49.3106 82.0531L46.1755 83.8521C45.7469 84.0892 45.2019 84.2214 44.6319 84.2214Z" fill="url(#paint0_linear)"/>
<path d="M84.0452 43.5545C83.7625 42.8476 83.7625 41.6894 84.0452 40.9825L85.3768 37.624C85.6572 36.9172 85.5045 35.8478 85.0348 35.2482L82.8094 32.4004C82.3397 31.8007 82.0137 30.6903 82.0844 29.9334L82.4172 26.3331C82.4879 25.5762 82.0388 24.5935 81.4209 24.1488L78.4819 22.0421C77.864 21.5997 77.2369 20.6261 77.091 19.8783L76.3956 16.3305C76.2497 15.5849 75.5429 14.7664 74.8246 14.5179L71.4114 13.3254C70.6932 13.0746 69.8176 12.3153 69.4665 11.6404L67.7998 8.43236C67.4509 7.75746 66.5412 7.17377 65.7819 7.13273L62.1726 6.95032C61.4133 6.91156 60.3599 6.43047 59.8332 5.88097L57.332 3.27258C56.8053 2.72308 55.7679 2.41984 55.0291 2.5954L51.5133 3.43674C50.7745 3.61459 49.6277 3.45042 48.9687 3.06965L45.8336 1.27068C45.1724 0.892194 44.0939 0.892194 43.4327 1.27068L40.2976 3.06965C39.6364 3.44814 38.4918 3.61459 37.7508 3.43674L34.2349 2.5954C33.4939 2.41756 32.4588 2.72308 31.9321 3.27258L29.4309 5.88097C28.9042 6.43047 27.8508 6.91156 27.0915 6.95032L23.4822 7.13273C22.7229 7.17149 21.8132 7.75518 21.462 8.43236L19.7953 11.6404C19.4465 12.3153 18.5709 13.0723 17.8527 13.3254L14.4394 14.5179C13.7212 14.7687 13.0121 15.5849 12.8662 16.3305L12.1708 19.8783C12.0248 20.6261 11.3978 21.5974 10.7799 22.0421L7.84093 24.1488C7.22303 24.5912 6.77386 25.5739 6.84454 26.3331L7.17743 29.9334C7.24811 30.6903 6.92206 31.8007 6.45237 32.4004L4.22703 35.2482C3.75962 35.8478 3.60457 36.9172 3.88502 37.624L5.21886 40.9825C5.4993 41.6894 5.4993 42.8476 5.21886 43.5545L3.88502 46.9153C3.60457 47.6221 3.75734 48.6914 4.22703 49.2911L6.45237 52.1389C6.92206 52.7385 7.24811 53.8489 7.17743 54.6059L6.84454 58.2061C6.77386 58.9631 7.22303 59.9458 7.84093 60.3904L10.7799 62.4949C11.3978 62.9373 12.0248 63.9109 12.1708 64.6587L12.8662 68.2065C13.0121 68.9544 13.7189 69.7706 14.4394 70.0214L17.8504 71.2139C18.5686 71.4647 19.4442 72.224 19.7953 72.8989L21.462 76.1069C21.8132 76.7818 22.7206 77.3655 23.4822 77.4043L27.0915 77.5867C27.8508 77.6254 28.9042 78.1065 29.4309 78.6537L31.9321 81.2621C32.4588 81.8116 33.4962 82.1149 34.2349 81.9393L37.7508 81.098C38.4895 80.9201 39.6364 81.0843 40.2976 81.4628L43.4327 83.2618C44.0939 83.6402 45.1724 83.6402 45.8336 83.2618L48.9687 81.4628C49.6277 81.0843 50.7745 80.9201 51.5133 81.098L55.0291 81.9393C55.7679 82.1172 56.8053 81.8116 57.332 81.2621L59.8332 78.6537C60.3599 78.1042 61.4133 77.6232 62.1726 77.5867L65.7819 77.4043C66.5412 77.3655 67.4509 76.7818 67.7998 76.1069L69.4665 72.8989C69.8176 72.224 70.6932 71.4647 71.4114 71.2139L74.8246 70.0214C75.5429 69.7706 76.2497 68.9544 76.3956 68.2065L77.091 64.6587C77.2369 63.9109 77.864 62.9395 78.4819 62.4949L81.4209 60.3904C82.0388 59.9458 82.4879 58.9654 82.4172 58.2061L82.0844 54.6059C82.0137 53.8489 82.3397 52.7385 82.8094 52.1389L85.0348 49.2911C85.5045 48.6914 85.6572 47.6221 85.3768 46.9153L84.0452 43.5545Z" fill="url(#paint1_linear)"/>
<path d="M44.6322 10.4639C27.0666 10.4639 12.8276 24.7029 12.8276 42.2685C12.8276 59.8341 27.0666 74.0731 44.6322 74.0731C62.1979 74.0731 76.4368 59.8341 76.4368 42.2685C76.4368 24.7029 62.1956 10.4639 44.6322 10.4639ZM44.6322 61.7699C33.8612 61.7699 25.1309 53.0372 25.1309 42.2662C25.1309 31.4952 33.8635 22.7648 44.6322 22.7648C55.4033 22.7648 64.1336 31.4952 64.1336 42.2662C64.1336 53.0395 55.4033 61.7699 44.6322 61.7699Z" fill="black"/>
<path d="M12.246 53.2694L12.0431 52.6195L11.3613 52.6127L11.9154 52.2183L11.7125 51.5684L12.2574 51.9743L12.8114 51.5798L12.5948 52.2251L13.1398 52.6332L12.4603 52.6241L12.246 53.2694ZM11.4981 50.7636L11.3454 50.1001L10.6682 50.0408L11.2519 49.6919L11.0991 49.0307L11.6121 49.4776L12.1958 49.1288L11.9291 49.7558L12.4421 50.2027L11.7649 50.1434L11.4981 50.7636ZM10.9441 48.2053L10.8438 47.5327L10.1711 47.421L10.7799 47.1178L10.6796 46.4451L11.1561 46.9285L11.7649 46.6253L11.4502 47.2295L11.9268 47.7151L11.2564 47.6034L10.9441 48.2053ZM10.5907 45.6175L10.5428 44.938L9.88156 44.7739L10.5131 44.5185L10.4653 43.839L10.903 44.3589L11.5323 44.1035L11.1721 44.6849L11.6099 45.2071L10.9509 45.0429L10.5907 45.6175ZM10.4356 43.0114L10.4402 42.3319L9.79492 42.1176L10.4425 41.9101L10.447 41.2306L10.8438 41.7824L11.4913 41.5772L11.0877 42.1244L11.4844 42.6762L10.8392 42.4641L10.4356 43.0114ZM10.4812 40.3984L10.5359 39.7212L9.90893 39.459L10.5701 39.3017L10.6249 38.6245L10.9783 39.2037L11.6395 39.0463L11.1972 39.5639L11.5506 40.1453L10.9213 39.8831L10.4812 40.3984ZM10.7252 37.7991L10.8324 37.1265L10.2259 36.8164L10.8985 36.7093L11.0056 36.0389L11.3134 36.6454L11.9861 36.5383L11.505 37.0194L11.8128 37.6259L11.2063 37.318L10.7252 37.7991ZM11.1652 35.2272L11.3226 34.566L10.7411 34.2126L11.4183 34.1579L11.5757 33.4967L11.8379 34.1237L12.515 34.069L11.9975 34.5113L12.2597 35.1406L11.6783 34.7872L11.1652 35.2272ZM11.8014 32.6918L12.0089 32.0443L11.4571 31.6475L12.1365 31.6452L12.344 30.9977L12.5584 31.643L13.2378 31.6407L12.6883 32.0443L12.9026 32.6895L12.3509 32.2928L11.8014 32.6918ZM12.6268 30.2156L12.8821 29.5863L12.3623 29.1486L13.0417 29.1965L13.2971 28.5672L13.4613 29.2261L14.1384 29.274L13.5593 29.6342L13.7235 30.2954L13.2036 29.8577L12.6268 30.2156ZM13.6391 27.8056L13.9424 27.1968L13.4567 26.7203L14.1293 26.8206L14.4326 26.2119L14.5466 26.8822L15.2192 26.9825L14.615 27.2972L14.7267 27.9698L14.241 27.4932L13.6391 27.8056ZM14.8293 25.4822L15.1782 24.8985L14.729 24.3855L15.3925 24.5383L15.7413 23.9523L15.8029 24.6295L16.4664 24.78L15.8394 25.049L15.9009 25.7262L15.454 25.2132L14.8293 25.4822ZM16.1973 23.2546L16.5895 22.7006L16.1814 22.1556L16.8312 22.3563L17.2234 21.7999L17.2325 22.4794L17.8823 22.6823L17.237 22.9012L17.2462 23.5829L16.838 23.038L16.1973 23.2546ZM17.7295 21.1387L18.1628 20.6143L17.7979 20.0397L18.4295 20.2905L18.8627 19.7661L18.8194 20.4456L19.451 20.6964L18.7921 20.8651L18.7487 21.5446L18.3839 20.97L17.7295 21.1387ZM19.4191 19.1482L19.8933 18.6603L19.5741 18.0583L20.1852 18.357L20.6571 17.8691L20.5614 18.5417L21.1724 18.8404L20.5021 18.959L20.4063 19.6339L20.0871 19.0319L19.4191 19.1482ZM21.2636 17.29L21.7721 16.8385L21.5008 16.2138L22.0867 16.5581L22.5952 16.1066L22.4493 16.7701L23.0352 17.1144L22.3581 17.1805L22.2099 17.844L21.9385 17.2216L21.2636 17.29ZM23.2359 15.5845L23.7786 15.1741L23.5551 14.5311L24.1137 14.9187L24.6541 14.5083L24.458 15.1604L25.0166 15.548L24.3349 15.5617L24.1388 16.2138L23.9154 15.5708L23.2359 15.5845ZM25.3381 14.0295L25.9104 13.6624L25.7371 13.0057L26.2638 13.4367L26.8361 13.0673L26.5899 13.7011L27.1166 14.1321L26.4371 14.0933L26.1909 14.7295L26.0176 14.0728L25.3381 14.0295ZM27.5452 12.6432L28.1426 12.3194L28.0172 11.6491L28.512 12.1165L29.1093 11.7927L28.8175 12.4061L29.31 12.8735L28.6351 12.7846L28.341 13.3979L28.2178 12.7276L27.5452 12.6432ZM29.8595 11.4234L30.4797 11.1452L30.4067 10.468L30.8627 10.9719L31.4829 10.6937L31.1454 11.2843L31.6014 11.7882L30.9357 11.6491L30.5959 12.2396L30.523 11.5624L29.8595 11.4234ZM32.2558 10.3837L32.8965 10.1534L32.876 9.47163L33.2933 10.0097L33.934 9.77944L33.5532 10.3426L33.9682 10.8807L33.3161 10.6915L32.933 11.2546L32.9079 10.5752L32.2558 10.3837ZM34.7206 9.53091L35.375 9.35079L35.4069 8.67133L35.7808 9.23906L36.4375 9.05894L36.0134 9.59019L36.3873 10.1579L35.7489 9.91852L35.3248 10.4498L35.3567 9.77032L34.7206 9.53091ZM37.2514 8.86741L37.9195 8.73973L38.0016 8.06483L38.3322 8.65993L39.0002 8.52996L38.5374 9.02702L38.868 9.62211L38.2524 9.33483L37.7873 9.83188L37.8693 9.15698L37.2514 8.86741ZM39.8234 8.40228L40.4983 8.32476L40.6328 7.65898L40.9155 8.27688L41.5904 8.19936L41.0911 8.65993L41.3738 9.27783L40.781 8.94266L40.2794 9.40323L40.4139 8.73745L39.8234 8.40228ZM42.4226 8.13551L43.1021 8.11043L43.289 7.45605L43.5239 8.09447L44.2034 8.06939L43.6698 8.48892L43.9047 9.12734L43.3392 8.74885L42.8034 9.16838L42.9904 8.514L42.4226 8.13551ZM45.0333 8.06939L45.7128 8.09675L45.9476 7.45833L46.1323 8.11271L46.8117 8.13779L46.2463 8.51628L46.431 9.17066L45.8974 8.75113L45.332 9.12962L45.5668 8.4912L45.0333 8.06939ZM47.6394 8.20164L48.3143 8.27916L48.597 7.66126L48.7316 8.32704L49.4065 8.40456L48.8136 8.73973L48.9482 9.40551L48.4466 8.94494L47.8537 9.28011L48.1365 8.65993L47.6394 8.20164ZM50.2273 8.53452L50.8953 8.66449L51.2259 8.06939L51.3103 8.74429L51.9761 8.87197L51.3605 9.16154L51.4448 9.83644L50.9797 9.33939L50.3618 9.62667L50.6924 9.03158L50.2273 8.53452ZM52.7878 9.06122L53.4422 9.24134L53.8161 8.67133L53.848 9.35079L54.5047 9.53091L53.8685 9.7726L53.9005 10.4521L53.4741 9.9208L52.838 10.1602L53.2119 9.59247L52.7878 9.06122ZM55.3027 9.78172L55.9434 10.0097L56.3584 9.47163L56.3379 10.1511L56.9785 10.3791L56.3264 10.5706L56.3059 11.2501L55.9229 10.6869L55.2685 10.8784L55.6835 10.3403L55.3027 9.78172ZM57.7492 10.6892L58.3694 10.9674L58.8254 10.4612L58.7547 11.1384L59.3749 11.4142L58.7091 11.5556L58.6384 12.2328L58.2987 11.6445L57.6329 11.7859L58.0889 11.2797L57.7492 10.6892ZM60.1228 11.7813L60.7224 12.1051L61.2149 11.6354L61.0918 12.3035L61.6892 12.6272L61.0143 12.7162L60.8911 13.3865L60.597 12.7732L59.9221 12.8621L60.4146 12.3924L60.1228 11.7813ZM62.4074 13.0513L62.9797 13.4207L63.5064 12.992L63.3331 13.6487L63.9054 14.0158L63.2282 14.0546L63.0549 14.7112L62.8087 14.0774L62.1292 14.1161L62.6559 13.6852L62.4074 13.0513ZM64.5848 14.49L65.1275 14.9005L65.6861 14.5129L65.4627 15.1558L66.003 15.5662L65.3236 15.5526L65.1001 16.1955L64.9041 15.5434L64.2223 15.5298L64.7809 15.1421L64.5848 14.49ZM66.6483 16.0952L67.1568 16.5467L67.7427 16.2024L67.4714 16.8248L67.9799 17.2763L67.3027 17.2102L67.0313 17.8349L66.8831 17.1691L66.206 17.103L66.7919 16.7587L66.6483 16.0952ZM68.5818 17.8554L69.0538 18.3434L69.6648 18.0447L69.3456 18.6443L69.8176 19.1345L69.1495 19.016L68.8303 19.6179L68.7368 18.943L68.0665 18.8244L68.6776 18.5258L68.5818 17.8554ZM70.3716 19.7524L70.8049 20.2769L71.4364 20.026L71.0716 20.6006L71.5048 21.125L70.8459 20.9563L70.4811 21.5309L70.4378 20.8514L69.7788 20.6827L70.4104 20.4319L70.3716 19.7524ZM72.0156 21.7885L72.4077 22.3449L73.0576 22.1442L72.6494 22.6892L73.0416 23.2455L72.3986 23.0266L71.9905 23.5738L71.9996 22.8921L71.3544 22.6732L72.0042 22.4703L72.0156 21.7885ZM73.4885 23.9386L73.8419 24.52L74.5031 24.365L74.0585 24.8803L74.4119 25.4617L73.7849 25.1995L73.3403 25.7148L73.3973 25.0353L72.7703 24.7709L73.4315 24.6158L73.4885 23.9386ZM74.8086 26.1959L75.1142 26.8047L75.7868 26.7021L75.3034 27.1809L75.6089 27.7897L75.0047 27.4773L74.5191 27.9561L74.6308 27.2835L74.0266 26.9711L74.6992 26.8685L74.8086 26.1959ZM75.9487 28.5444L76.2063 29.1737L76.8858 29.1235L76.3659 29.5635L76.6236 30.1928L76.0444 29.8349L75.5269 30.2749L75.6888 29.6137L75.1096 29.2557L75.7891 29.2056L75.9487 28.5444ZM76.9086 30.9726L77.1161 31.6202L77.7955 31.6224L77.2438 32.0215L77.4512 32.669L76.9017 32.2677L76.35 32.6667L76.562 32.0192L76.0125 31.6179L76.692 31.6202L76.9086 30.9726ZM77.677 33.4693L77.8343 34.1305L78.5115 34.1852L77.9301 34.5409L78.0874 35.2021L77.5698 34.7598L76.9884 35.1155L77.2506 34.4862L76.733 34.0439L77.4125 34.0963L77.677 33.4693ZM78.2538 36.0161L78.361 36.6887L79.0336 36.7959L78.4271 37.1037L78.5343 37.7763L78.0532 37.2952L77.4467 37.6053L77.7568 36.9988L77.2757 36.5177L77.9483 36.6226L78.2538 36.0161ZM78.6323 38.604L78.687 39.2812L79.3483 39.4385L78.7212 39.7007L78.776 40.3779L78.3336 39.8626L77.7066 40.1225L78.06 39.5411L77.6177 39.0235L78.2789 39.1809L78.6323 38.604ZM78.8102 41.2078L78.8124 41.8873L79.46 42.0948L78.8147 42.3068L78.817 42.9863L78.4157 42.4391L77.7704 42.6511L78.1695 42.0993L77.7659 41.5498L78.4134 41.7573L78.8102 41.2078ZM78.7896 43.8231L78.7395 44.5002L79.3688 44.7579L78.7076 44.9198L78.6574 45.597L78.2994 45.0201L77.6382 45.1843L78.0783 44.6644L77.718 44.0853L78.3473 44.3429L78.7896 43.8231ZM78.5685 46.4269L78.4681 47.0995L79.0769 47.4028L78.4066 47.5145L78.3063 48.1871L77.9916 47.5852L77.3213 47.6969L77.7978 47.2112L77.4832 46.607L78.0919 46.9125L78.5685 46.4269ZM78.1512 49.0011L78.0007 49.6646L78.5844 50.0134L77.9072 50.0727L77.7568 50.7362L77.49 50.1115L76.8128 50.173L77.3258 49.7262L77.0591 49.0991L77.6428 49.448L78.1512 49.0011ZM77.5379 51.5434L77.3372 52.1932L77.8936 52.5853L77.2141 52.5945L77.0135 53.2443L76.7946 52.6013L76.1128 52.6104L76.6578 52.2023L76.4389 51.557L76.9929 51.9492L77.5379 51.5434ZM76.7353 54.0241L76.4868 54.6579L77.0112 55.0911L76.3317 55.0478L76.0809 55.6794L75.9099 55.0205L75.2305 54.9771L75.805 54.6123L75.634 53.9534L76.1584 54.3866L76.7353 54.0241ZM75.7458 56.4432L75.4471 57.0543L75.9373 57.5262L75.2624 57.4328L74.966 58.0438L74.8451 57.3735L74.1725 57.28L74.7722 56.9608L74.6536 56.2904L75.1438 56.7624L75.7458 56.4432ZM74.5715 58.7826L74.2272 59.3708L74.681 59.8793L74.0152 59.7333L73.6732 60.3193L73.6048 59.6421L72.939 59.4962L73.5637 59.2226L73.4953 58.5454L73.9468 59.0539L74.5715 58.7826ZM73.2263 61.0216L72.8387 61.5802L73.2514 62.1206L72.5993 61.9245L72.2117 62.4831L72.1957 61.8036L71.5436 61.6076L72.1866 61.3818L72.1706 60.7001L72.5833 61.2405L73.2263 61.0216ZM71.7123 63.1489L71.2837 63.6756L71.653 64.2456L71.0192 64.0016L70.5905 64.5283L70.627 63.8489L69.9932 63.6049L70.6498 63.4293L70.6863 62.7499L71.0557 63.3199L71.7123 63.1489ZM70.0387 65.1576L69.5713 65.6501L69.8951 66.2475L69.2818 65.9534L68.8144 66.4459L68.9033 65.7709L68.2899 65.4791L68.958 65.356L69.0469 64.6811L69.3707 65.2785L70.0387 65.1576ZM68.2193 67.0273L67.7154 67.4833L67.9913 68.1035L67.403 67.7637L66.8991 68.2175L67.0382 67.5517L66.4499 67.2119L67.1271 67.139L67.2685 66.4732L67.5466 67.0934L68.2193 67.0273ZM66.2561 68.7556L65.718 69.1705L65.946 69.8112L65.3851 69.4282L64.847 69.8431L65.0386 69.191L64.4777 68.808L65.1571 68.7875L65.3487 68.1331L65.5767 68.7738L66.2561 68.7556ZM64.1699 70.3265L63.6021 70.7004L63.7823 71.3571L63.251 70.933L62.6833 71.3069L62.9227 70.6708L62.3914 70.2444L63.0732 70.2764L63.3126 69.6402L63.4927 70.2969L64.1699 70.3265ZM61.9696 71.7333L61.3745 72.0639L61.5045 72.732L61.0074 72.2669L60.4123 72.5975L60.6996 71.9818L60.2026 71.5167L60.8775 71.5988L61.1647 70.9809L61.2947 71.6489L61.9696 71.7333ZM59.6736 72.9714L59.0557 73.2541L59.1355 73.929L58.6749 73.4297L58.057 73.7124L58.3899 73.1196L57.9293 72.6203L58.5974 72.7525L58.9303 72.1597L59.0101 72.8346L59.6736 72.9714ZM57.2841 74.0339L56.6457 74.2687L56.673 74.9482L56.2512 74.4147L55.6128 74.6518L55.989 74.0863L55.5672 73.5528L56.2239 73.7375L56.6023 73.172L56.6297 73.8515L57.2841 74.0339ZM54.8239 74.9117L54.1695 75.0987L54.1444 75.7781L53.7659 75.2127L53.1116 75.3997L53.5311 74.8638L53.1526 74.2984L53.791 74.5332L54.2105 73.9974L54.1855 74.6769L54.8239 74.9117ZM52.3021 75.5957L51.6364 75.7303L51.5588 76.4052L51.2237 75.8123L50.5556 75.9469L51.0162 75.4453L50.681 74.8524L51.3012 75.1352L51.7618 74.6336L51.6842 75.3085L52.3021 75.5957ZM49.7393 76.0837L49.0645 76.168L48.9368 76.8361L48.6495 76.2182L47.9746 76.3026L48.4716 75.8374L48.1843 75.2218L48.7794 75.5501L49.2765 75.085L49.1465 75.7531L49.7393 76.0837ZM47.1424 76.3732L46.4629 76.4052L46.2828 77.0618L46.0434 76.4257L45.3639 76.4576L45.8952 76.0335L45.6535 75.3974L46.2235 75.7713L46.7547 75.3472L46.5746 76.0039L47.1424 76.3732ZM44.5294 76.4622L43.8499 76.4416L43.6219 77.0823L43.4304 76.4302L42.751 76.4097L43.3119 76.0267L43.1203 75.3746L43.6584 75.7918L44.2216 75.4088L43.9913 76.0495L44.5294 76.4622ZM41.921 76.355L41.2461 76.282L40.9679 76.9022L40.8266 76.2364L40.1494 76.1658L40.7377 75.826L40.5986 75.1602L41.1048 75.6163L41.6953 75.2765L41.4171 75.8967L41.921 76.355ZM39.324 76.0449L38.656 75.9218L38.3322 76.5192L38.2433 75.8443L37.5752 75.7211L38.1886 75.427L38.0996 74.7521L38.5693 75.2446L39.1827 74.9505L38.8589 75.5479L39.324 76.0449ZM36.7635 75.5433L36.1069 75.37L35.7375 75.9423L35.701 75.2628L35.0443 75.0896L35.6782 74.8433L35.6417 74.1639L36.0727 74.6928L36.7065 74.4466L36.3371 75.0189L36.7635 75.5433ZM34.244 74.8456L33.6011 74.6244L33.1907 75.1648L33.2043 74.4853L32.5614 74.2619L33.2112 74.0635L33.2249 73.3841L33.6147 73.9427L34.2668 73.7466L33.8564 74.2893L34.244 74.8456ZM31.7884 73.9587L31.1637 73.6873L30.7122 74.1958L30.7783 73.5186L30.1536 73.2473L30.8171 73.0991L30.8832 72.4219L31.2275 73.0101L31.8933 72.8619L31.4418 73.3704L31.7884 73.9587ZM29.408 72.8893L28.8061 72.5724L28.3182 73.0466L28.4344 72.3763L27.8348 72.0594L28.5074 71.9636L28.6237 71.2933L28.9247 71.9043L29.5973 71.8086L29.1093 72.2828L29.408 72.8893ZM27.112 71.6376L26.5374 71.275L26.0153 71.7105L26.1817 71.0516L25.6072 70.689L26.2843 70.6434L26.4531 69.9845L26.7062 70.6161L27.3856 70.5705L26.8635 71.006L27.112 71.6376ZM24.9186 70.2171L24.3736 69.8112L23.8196 70.2057L24.0362 69.5604L23.4913 69.1546L24.1707 69.1614L24.3873 68.5184L24.5903 69.1682L25.272 69.1774L24.7179 69.5718L24.9186 70.2171ZM22.8437 68.6347L22.3307 68.1878L21.747 68.5367L22.0138 67.9096L21.5008 67.4628L22.1779 67.522L22.4447 66.895L22.5975 67.5585L23.2747 67.6201L22.691 67.9689L22.8437 68.6347ZM20.8943 66.8927L20.4177 66.4071L19.809 66.7103L20.1236 66.1061L19.6471 65.6205L20.3174 65.7322L20.6298 65.128L20.7301 65.8029L21.4027 65.9146L20.7939 66.2178L20.8943 66.8927ZM19.0862 65.0071L18.6484 64.4873L18.0191 64.7426L18.3794 64.1658L17.9416 63.6459L18.6005 63.8078L18.9608 63.2287L19.0087 63.9081L19.6699 64.0723L19.0406 64.3277L19.0862 65.0071ZM17.4263 62.9916L17.0296 62.4398L16.382 62.6473L16.7856 62.0978L16.3889 61.546L17.0341 61.758L17.4354 61.2085L17.4331 61.8903L18.0807 62.1046L17.4331 62.3121L17.4263 62.9916ZM15.926 60.8506L15.5726 60.2714L14.9114 60.4288L15.3537 59.9135L15.0003 59.3321L15.6273 59.592L16.0697 59.0744L16.0149 59.7539L16.6442 60.0161L15.983 60.1734L15.926 60.8506ZM14.5899 58.6047L14.2821 58.0005L13.6095 58.1077L14.0906 57.6243L13.7805 57.0201L14.387 57.3279L14.8681 56.8445L14.7632 57.5171L15.3697 57.8249L14.6971 57.9321L14.5899 58.6047ZM13.4293 56.2676L13.1671 55.6406L12.49 55.6976L13.0053 55.253L12.743 54.626L13.3245 54.9794L13.8398 54.5348L13.6847 55.1983L14.2661 55.5517L13.5889 55.6087L13.4293 56.2676Z" fill="url(#paint2_linear)"/>
<path d="M86.7519 30.9453H2.22314V53.9694H86.7519V30.9453Z" fill="url(#paint3_linear)"/>
<path d="M89 42.5396C89 49.0081 86.7519 53.1099 86.7519 53.1099H2.22306C2.22306 53.1099 0 48.9921 0 42.4711C0 37.04 2.22306 31.8027 2.22306 31.8027H86.7519C86.7496 31.8027 89 37.7058 89 42.5396Z" fill="url(#paint4_linear)"/>
<path d="M46.9057 25.9752L45.695 27.1563L45.9845 28.823L44.4865 28.0341L42.9885 28.823L43.2758 27.1563L42.0674 25.9752L43.7387 25.7358L44.4865 24.2173L45.2344 25.7358L46.9057 25.9752Z" fill="black"/>
<path d="M51.1241 27.1767L50.5427 25.9956L49.9613 27.1767L48.6616 27.3636L49.601 28.2802L49.3776 29.5776L50.5427 28.9642L51.7055 29.5776L51.4821 28.2802L52.4237 27.3636L51.1241 27.1767Z" fill="black"/>
<path d="M39.0123 27.246L38.4309 26.0649L37.8494 27.246L36.5498 27.433L37.4892 28.3496L37.2657 29.6469L38.4309 29.0336L39.596 29.6469L39.3702 28.3496L40.3119 27.433L39.0123 27.246Z" fill="black"/>
<path d="M42.0674 58.5594L43.2781 57.3783L42.9885 55.7139L44.4865 56.5028L45.9845 55.7139L45.6972 57.3783L46.9057 58.5594L45.2344 58.8011L44.4865 60.3196L43.7387 58.8011L42.0674 58.5594Z" fill="black"/>
<path d="M37.8494 57.3609L38.4309 58.5419L39.0123 57.3609L40.3119 57.1739L39.3725 56.2573L39.596 54.96L38.4309 55.5733L37.268 54.96L37.4915 56.2573L36.5498 57.1739L37.8494 57.3609Z" fill="black"/>
<path d="M49.9613 57.292L50.5427 58.4708L51.1241 57.292L52.4237 57.1051L51.4843 56.1862L51.7078 54.8911L50.5427 55.5045L49.3776 54.8911L49.6033 56.1862L48.6616 57.1051L49.9613 57.292Z" fill="black"/>
<path d="M30.6302 33.8569V51.0851H26.33V41.8486C26.33 40.5147 26.298 39.7121 26.2342 39.4431C26.1704 39.174 25.9948 38.9688 25.7075 38.832C25.4202 38.6952 24.7795 38.6245 23.7877 38.6245H23.3613V36.6158C25.4407 36.1689 27.0186 35.2478 28.097 33.8569H30.6302Z" fill="black"/>
<path d="M42.4432 39.6892V45.435C42.4432 46.7415 42.3725 47.6922 42.2311 48.2873C42.0897 48.8824 41.7956 49.441 41.3487 49.9586C40.9018 50.4762 40.3615 50.8501 39.7322 51.0759C39.1006 51.3039 38.3938 51.4156 37.614 51.4156C36.5857 51.4156 35.7306 51.297 35.0489 51.0599C34.3672 50.8228 33.8245 50.4511 33.4209 49.9472C33.0174 49.4433 32.7301 48.9144 32.5591 48.3557C32.3881 47.7994 32.3037 46.9147 32.3037 45.6995V39.6869C32.3037 38.1046 32.4405 36.9189 32.7141 36.1323C32.9877 35.3457 33.5304 34.7141 34.3421 34.2376C35.1538 33.7633 36.1388 33.5239 37.2948 33.5239C38.2387 33.5239 39.0823 33.6881 39.8279 34.0187C40.5735 34.3493 41.1298 34.7506 41.4992 35.2271C41.8686 35.7014 42.1171 36.2372 42.2494 36.8346C42.377 37.432 42.4432 38.3827 42.4432 39.6892ZM38.1452 38.2414C38.1452 37.3271 38.0996 36.7525 38.013 36.5222C37.9241 36.2919 37.7166 36.1756 37.3905 36.1756C37.0713 36.1756 36.8593 36.2988 36.7567 36.5427C36.6541 36.7867 36.6016 37.3544 36.6016 38.2391V46.6457C36.6016 47.6466 36.6495 48.2486 36.7453 48.4538C36.841 48.659 37.0485 48.7616 37.3677 48.7616C37.6869 48.7616 37.8967 48.6407 37.9948 48.3991C38.0928 48.1574 38.143 47.6147 38.143 46.7711V38.2414H38.1452Z" fill="black"/>
<path d="M54.1277 39.6892V45.435C54.1277 46.7415 54.057 47.6922 53.9157 48.2873C53.7743 48.8824 53.4802 49.441 53.0333 49.9586C52.5864 50.4762 52.046 50.8501 51.4167 51.0759C50.7852 51.3039 50.0783 51.4156 49.2986 51.4156C48.2702 51.4156 47.4152 51.297 46.7335 51.0599C46.0517 50.8228 45.5091 50.4511 45.1055 49.9472C44.7019 49.4433 44.4147 48.9144 44.2437 48.3557C44.0726 47.7994 43.9883 46.9147 43.9883 45.6995V39.6869C43.9883 38.1046 44.1251 36.9189 44.3987 36.1323C44.6723 35.3457 45.215 34.7141 46.0267 34.2376C46.8384 33.7633 47.8234 33.5239 48.9793 33.5239C49.9233 33.5239 50.7669 33.6881 51.5125 34.0187C52.2581 34.3493 52.8144 34.7506 53.1838 35.2271C53.5531 35.7014 53.8017 36.2372 53.9339 36.8346C54.0616 37.432 54.1277 38.3827 54.1277 39.6892ZM49.8275 38.2414C49.8275 37.3271 49.7819 36.7525 49.6953 36.5222C49.6064 36.2919 49.3989 36.1756 49.0728 36.1756C48.7536 36.1756 48.5416 36.2988 48.439 36.5427C48.3364 36.7867 48.2839 37.3544 48.2839 38.2391V46.6457C48.2839 47.6466 48.3318 48.2486 48.4276 48.4538C48.5233 48.659 48.7308 48.7616 49.05 48.7616C49.3692 48.7616 49.579 48.6407 49.677 48.3991C49.7751 48.1574 49.8252 47.6147 49.8252 46.7711V38.2414H49.8275Z" fill="black"/>
<path d="M61.6302 36.7937V39.7532C61.6302 40.5262 61.5573 41.1076 61.4114 41.4929C61.2654 41.8805 60.9531 42.2157 60.4743 42.503C59.9954 42.7903 59.3616 42.9339 58.575 42.9339C57.6675 42.9339 56.9744 42.7971 56.5001 42.5235C56.0259 42.2499 55.7044 41.9216 55.5379 41.5385C55.3715 41.1555 55.2871 40.606 55.2871 39.89V36.7937C55.2871 35.9432 55.3738 35.3139 55.547 34.9058C55.7203 34.4977 56.0555 34.1671 56.5525 33.9117C57.0496 33.6563 57.6629 33.5286 58.3926 33.5286C59.202 33.5286 59.8564 33.6677 60.3603 33.9482C60.8641 34.2286 61.2016 34.5661 61.3703 34.9651C61.5459 35.3618 61.6302 35.9706 61.6302 36.7937ZM58.9056 36.039C58.9056 35.5853 58.8828 35.3048 58.8372 35.1977C58.7916 35.0905 58.6662 35.038 58.4587 35.038C58.2672 35.038 58.144 35.095 58.087 35.2091C58.03 35.3231 58.0027 35.5989 58.0027 36.039V40.3802C58.0027 40.8773 58.0277 41.1737 58.0779 41.274C58.1281 41.3743 58.258 41.4222 58.4724 41.4222C58.657 41.4222 58.7756 41.3652 58.8281 41.2512C58.8805 41.1372 58.9078 40.8727 58.9078 40.4532V36.039H58.9056ZM66.6441 33.5264L59.9088 51.4157H58.2694L65.0275 33.5264H66.6441ZM69.6219 45.1159V48.0846C69.6219 48.8507 69.5489 49.4298 69.403 49.8197C69.2571 50.2096 68.9447 50.5493 68.4659 50.8366C67.9871 51.1239 67.3532 51.2675 66.5666 51.2675C65.666 51.2675 64.9751 51.1285 64.4963 50.8526C64.0175 50.5767 63.6937 50.2461 63.5273 49.863C63.3608 49.48 63.2765 48.9328 63.2765 48.2237V45.1159C63.2765 44.2723 63.3631 43.6453 63.5364 43.2372C63.7097 42.829 64.0448 42.4961 64.5419 42.2362C65.0389 41.9763 65.6523 41.8486 66.3819 41.8486C67.1982 41.8486 67.8571 41.99 68.361 42.275C68.8649 42.56 69.2001 42.8997 69.3665 43.2964C69.5398 43.6932 69.6219 44.2997 69.6219 45.1159ZM66.8995 44.3703C66.8995 43.9166 66.8767 43.6339 66.8311 43.5244C66.7855 43.415 66.6601 43.3603 66.4526 43.3603C66.2611 43.3603 66.1379 43.4173 66.0855 43.5313C66.033 43.6453 66.0057 43.9257 66.0057 44.3726V48.7139C66.0057 49.2041 66.0308 49.4982 66.0809 49.5963C66.1311 49.6966 66.2588 49.7445 66.464 49.7445C66.6555 49.7445 66.7763 49.6897 66.8265 49.5803C66.8767 49.4709 66.9018 49.2018 66.9018 48.7777V44.3703H66.8995Z" fill="black"/>
<path d="M28.3777 21.1711L27.0986 22.2313L26.7292 21.7845C26.4966 21.504 26.337 21.3376 26.255 21.2851C26.1729 21.235 26.0839 21.2464 25.9927 21.3216C25.9129 21.3877 25.8856 21.463 25.9084 21.545C25.9312 21.6294 26.0452 21.7981 26.2527 22.0489L28.209 24.4088C28.3914 24.63 28.5259 24.7622 28.6125 24.8101C28.6992 24.8557 28.7835 24.8443 28.8702 24.7736C28.9637 24.6961 28.9933 24.6049 28.9614 24.4977C28.9295 24.3906 28.8177 24.2241 28.6285 23.9938L28.1451 23.4101L27.8875 23.6245L27.2673 22.8766L28.7653 21.634L30.9542 24.2743L30.1516 24.9401L29.7412 24.6847C29.7799 24.9081 29.764 25.1133 29.6956 25.3003C29.6249 25.4873 29.5018 25.6537 29.3194 25.8042C29.105 25.9821 28.8611 26.0961 28.5852 26.1485C28.3116 26.1987 28.063 26.1895 27.8373 26.1143C27.6116 26.0413 27.4178 25.9296 27.2536 25.7814C27.0895 25.6332 26.866 25.3892 26.5856 25.0518L25.3749 23.5903C24.985 23.1206 24.7273 22.758 24.6019 22.505C24.4765 22.2496 24.4605 21.9349 24.554 21.5587C24.6475 21.1825 24.8846 20.8359 25.2654 20.5213C25.6393 20.2112 26.0155 20.0288 26.3895 19.9786C26.7634 19.9285 27.0758 19.9764 27.3266 20.1268C27.5774 20.2773 27.8692 20.5532 28.2044 20.9545L28.3777 21.1711Z" fill="white"/>
<path d="M31.2212 16.7593L35.1269 21.9031L33.6381 22.7194L33.0088 21.7549L32.4889 22.0399L32.954 23.0956L31.4492 23.921L29.1167 17.913L31.2212 16.7593ZM32.4251 20.7836C32.0033 20.1885 31.4994 19.4452 30.9134 18.5537C31.3534 19.7074 31.6909 20.5419 31.9235 21.0595L32.4251 20.7836Z" fill="white"/>
<path d="M33.75 15.5963L34.8695 15.2361C35.6151 14.9944 36.1304 14.8621 36.4131 14.8325C36.6958 14.8051 36.958 14.8827 37.202 15.0651C37.4437 15.2475 37.6489 15.5986 37.8176 16.1162C37.9704 16.5904 38.0137 16.9256 37.9499 17.1262C37.8838 17.3269 37.6854 17.5002 37.3502 17.6438C37.6877 17.621 37.9316 17.6575 38.0821 17.751C38.2326 17.8467 38.3375 17.9448 38.399 18.0451C38.4606 18.1454 38.5701 18.4418 38.7297 18.9321L39.2472 20.5349L37.7789 21.0092L37.1268 18.9891C37.0219 18.663 36.9307 18.4715 36.8554 18.4099C36.7779 18.3484 36.632 18.3529 36.4131 18.4236L37.2978 21.1642L35.7177 21.675L33.75 15.5963ZM35.6675 16.1276L36.103 17.4797C36.2809 17.4227 36.3972 17.3588 36.4542 17.2859C36.5089 17.2129 36.4952 17.0442 36.4086 16.7751L36.3014 16.4399C36.2398 16.2461 36.1646 16.1321 36.0757 16.0934C35.9845 16.0569 35.8499 16.0683 35.6675 16.1276Z" fill="white"/>
<path d="M42.2702 13.6445L44.0031 19.8668L42.3181 20.0766L42.0878 18.948L41.4973 19.0209L41.5406 20.1724L39.8374 20.3844L39.8876 13.9409L42.2702 13.6445ZM41.9054 17.8284C41.7321 17.1216 41.5383 16.2438 41.3217 15.1973C41.3058 16.433 41.3103 17.3337 41.3377 17.8991L41.9054 17.8284Z" fill="white"/>
<path d="M48.7389 13.7267L48.3353 20.1018L46.8829 20.0106L46.2035 17.0579L46.021 19.9558L44.6348 19.8692L45.0383 13.4941L46.4246 13.5808L47.1725 16.5107L47.3549 13.6401L48.7389 13.7267Z" fill="white"/>
<path d="M54.1331 14.9034L53.823 16.1437L52.8654 15.9043L51.6227 20.8612L50.0107 20.4576L51.2534 15.5008L50.3003 15.2614L50.6104 14.021L54.1331 14.9034Z" fill="white"/>
<path d="M57.2593 16.1255L54.8424 22.0399L53.3057 21.4129L55.7225 15.4984L57.2593 16.1255ZM58.2146 15.145L56.6095 15.6444L55.8685 15.3411L56.915 14.6138L58.2146 15.145Z" fill="white"/>
<path d="M61.5572 18.4326L59.1061 24.4086L57.6468 23.5399L58.1576 22.507L57.6468 22.2038L56.9742 23.1386L55.499 22.2608L59.4937 17.2036L61.5572 18.4326ZM58.7002 21.5129C58.9989 20.8472 59.382 20.0355 59.8539 19.0778C59.0833 20.0423 58.5338 20.756 58.2077 21.2211L58.7002 21.5129Z" fill="white"/>
<path d="M28.3729 58.4175L29.342 59.1973C29.9667 59.7012 30.3657 60.0682 30.5413 60.3031C30.7146 60.5379 30.8058 60.7659 30.8172 60.9894C30.8263 61.2128 30.7807 61.4158 30.6804 61.6005C30.58 61.7851 30.3383 62.1112 29.9599 62.5832L28.5576 64.3251C28.1974 64.772 27.9374 65.0525 27.7733 65.171C27.6091 65.2873 27.4427 65.3466 27.2694 65.3466C27.0961 65.3466 26.9205 65.3033 26.7381 65.2121C26.558 65.1231 26.3118 64.9521 26.0017 64.7036L24.3691 63.3903L28.3729 58.4175ZM28.9817 60.3122L26.346 63.5864C26.5329 63.7369 26.6766 63.7916 26.7814 63.7505C26.8841 63.7095 27.071 63.5248 27.3378 63.1919L28.8951 61.2584C29.0775 61.0327 29.1846 60.8822 29.2234 60.807C29.2599 60.7317 29.2644 60.6588 29.2371 60.5881C29.2074 60.5174 29.1231 60.4262 28.9817 60.3122Z" fill="white"/>
<path d="M32.039 61.2222L34.4582 62.5697L33.8357 63.6869L32.8667 63.1465L32.2762 64.2045L33.1836 64.7084L32.5931 65.7709L31.6856 65.267L31.0016 66.4937L32.0664 67.0865L31.4439 68.2037L28.9268 66.8015L32.039 61.2222Z" fill="white"/>
<path d="M39.8414 67.2686L38.2363 66.8423L38.5213 65.7683C38.6034 65.456 38.6399 65.2576 38.6262 65.171C38.6125 65.0843 38.5464 65.025 38.4301 64.9954C38.2978 64.9612 38.2021 64.984 38.1405 65.0707C38.079 65.155 38.0083 65.3534 37.9239 65.6657L37.1601 68.5341C37.0803 68.8328 37.0461 69.0334 37.0575 69.136C37.0689 69.2363 37.1373 69.3047 37.2604 69.3366C37.379 69.3686 37.4702 69.3435 37.5317 69.2614C37.5933 69.1793 37.6685 68.9696 37.7597 68.6298L37.9672 67.8546L39.5724 68.281L39.5086 68.5227C39.3376 69.1611 39.1734 69.6034 39.0115 69.8451C38.8496 70.0891 38.5874 70.2692 38.2249 70.3878C37.8624 70.5063 37.4542 70.5063 37.0028 70.3855C36.5331 70.2601 36.1683 70.0731 35.9083 69.82C35.6484 69.5692 35.5093 69.2796 35.4911 68.9513C35.4728 68.623 35.5435 68.1579 35.7031 67.5514L36.1842 65.7478C36.3028 65.3032 36.4077 64.9726 36.4966 64.7583C36.5855 64.544 36.7337 64.3547 36.9389 64.1883C37.1441 64.0218 37.3972 63.9169 37.6982 63.8691C37.9969 63.8212 38.3206 63.844 38.6695 63.9375C39.1415 64.0629 39.5086 64.2589 39.7662 64.5234C40.0261 64.7879 40.1675 65.0706 40.1903 65.3693C40.2131 65.668 40.1493 66.1058 39.9965 66.6826L39.8414 67.2686Z" fill="white"/>
<path d="M44.1262 64.8929L44.5913 71.334L42.8972 71.2064L42.8949 70.0549L42.3021 70.0093L42.1152 71.1471L40.4028 71.0171L41.7298 64.7104L44.1262 64.8929ZM42.9405 68.9217C42.9109 68.1944 42.8949 67.296 42.8904 66.2267C42.6305 67.4328 42.4572 68.3175 42.3705 68.8784L42.9405 68.9217Z" fill="white"/>
<path d="M47.2019 64.7612L47.61 69.8549L48.6178 69.7751L48.7204 71.0496L46.0573 71.2617L45.5488 64.8935L47.2019 64.7612Z" fill="white"/>
<path d="M50.4939 64.2114L51.7889 70.4656L50.1632 70.8031L48.8682 64.5489L50.4939 64.2114Z" fill="white"/>
<path d="M51.3516 64.0496L52.5167 63.6164C53.2691 63.3359 53.789 63.1809 54.0808 63.1512C54.3726 63.1216 54.6143 63.1604 54.8127 63.2675C55.0088 63.3747 55.1615 63.5183 55.2687 63.6984C55.3759 63.8786 55.5332 64.2525 55.7452 64.8202L56.525 66.9179C56.7257 67.456 56.8328 67.8231 56.8511 68.0237C56.867 68.2244 56.8328 68.3977 56.7462 68.5481C56.6573 68.6964 56.5296 68.8263 56.3609 68.9358C56.1921 69.0452 55.9208 69.1683 55.5469 69.3074L53.5837 70.037L51.3516 64.0496ZM53.2896 64.4942L54.7557 68.4319C54.9791 68.3475 55.1023 68.2517 55.1205 68.1423C55.1387 68.0329 55.0726 67.7798 54.9244 67.3785L54.058 65.0528C53.9577 64.7815 53.8847 64.6105 53.8391 64.5421C53.7935 64.4714 53.7319 64.4303 53.659 64.4189C53.5815 64.4053 53.4606 64.4304 53.2896 64.4942Z" fill="white"/>
<path d="M58.0711 60.8896L62.1752 65.8761L60.7205 66.7517L60.0525 65.8146L59.544 66.1201L60.0502 67.1553L58.5773 68.0399L56.0122 62.1277L58.0711 60.8896ZM59.4323 64.8638C58.9877 64.2869 58.4542 63.5642 57.834 62.6955C58.3196 63.8309 58.689 64.6517 58.9421 65.1602L59.4323 64.8638Z" fill="white"/>
<path d="M59.1968 60.1481L60.127 59.325C60.729 58.7937 61.1576 58.4609 61.4198 58.3286C61.6798 58.1964 61.9214 58.1439 62.1426 58.1736C62.3638 58.2032 62.5576 58.2807 62.7218 58.4107C62.8859 58.5407 63.1686 58.8325 63.5699 59.2862L65.052 60.9621C65.4327 61.3907 65.6653 61.6963 65.7542 61.8764C65.8432 62.0565 65.8728 62.2321 65.8432 62.4031C65.8158 62.5741 65.7406 62.7405 65.622 62.9047C65.5034 63.0689 65.2959 63.2809 64.9973 63.5454L63.4286 64.934L59.1968 60.1481ZM61.1667 59.8654L63.9507 63.0119C64.1308 62.8523 64.2084 62.72 64.1856 62.6106C64.1628 62.5011 64.01 62.2891 63.7295 61.9699L62.0856 60.1116C61.8941 59.895 61.7641 59.7628 61.6957 59.7126C61.6273 59.6647 61.5566 59.6465 61.4814 59.6625C61.4062 59.6761 61.3013 59.7445 61.1667 59.8654Z" fill="white"/>
<defs>
<linearGradient id="paint0_linear" x1="58.9543" y1="2.91677" x2="30.3088" y2="81.6197" gradientUnits="userSpaceOnUse">
<stop stop-color="#F5B047"/>
<stop offset="1" stop-color="#FFCF6E"/>
</linearGradient>
<linearGradient id="paint1_linear" x1="58.7225" y1="80.9834" x2="30.5403" y2="3.55339" gradientUnits="userSpaceOnUse">
<stop stop-color="#DE6E00"/>
<stop offset="1" stop-color="#FFEB91"/>
</linearGradient>
<linearGradient id="paint2_linear" x1="56.5473" y1="74.996" x2="32.7184" y2="9.52907" gradientUnits="userSpaceOnUse">
<stop stop-color="#FFE672"/>
<stop offset="0.6157" stop-color="#EDA117"/>
</linearGradient>
<linearGradient id="paint3_linear" x1="2.22226" y1="42.4563" x2="86.7507" y2="42.4563" gradientUnits="userSpaceOnUse">
<stop stop-color="#B86300"/>
<stop offset="0.3352" stop-color="#DE8A00"/>
<stop offset="0.7582" stop-color="#FFFFBA"/>
<stop offset="1" stop-color="#B86300"/>
</linearGradient>
<linearGradient id="paint4_linear" x1="0" y1="42.4564" x2="88.9989" y2="42.4564" gradientUnits="userSpaceOnUse">
<stop stop-color="#F5B536"/>
<stop offset="0.4396" stop-color="#FFEB87"/>
<stop offset="0.5824" stop-color="#FFEB87"/>
<stop offset="1" stop-color="#F5B536"/>
</linearGradient>
</defs>
</svg>
