<?xml version="1.0" encoding="utf-8"?><svg xmlns="http://www.w3.org/2000/svg" xmlns:xlink="http://www.w3.org/1999/xlink"><symbol viewBox="0 0 20 18" id="icons--arrow-down"><path d="M8.268 17c.77 1.333 2.694 1.333 3.464 0l7.794-13.5c.77-1.333-.192-3-1.732-3H2.206C.666.5-.296 2.167.474 3.5L8.268 17z"/></symbol><symbol viewBox="0 0 35 29" id="icons--check"><path d="M29.74 0L11.915 17.832 5.253 11.17 0 16.43l11.908 11.908 1.54-1.532L35 5.253 29.74 0z"/></symbol><symbol viewBox="0 0 44 61" id="icons--surprice"><path d="M36.667 60.5H7.333a3.667 3.667 0 01-3.666-3.667V22h36.666v34.833a3.667 3.667 0 01-3.666 3.667z"/><path d="M18.333 60.5h-11a3.667 3.667 0 01-3.666-3.667V22H22v34.833a3.667 3.667 0 01-3.667 3.667z"/><path d="M22 22H3.667v3.667H22V22zM1.833 12.833h40.334c1.012 0 1.833.821 1.833 1.834v5.5C44 21.179 43.18 22 42.167 22H1.833A1.833 1.833 0 010 20.167v-5.5c0-1.013.82-1.834 1.833-1.834z"/><path d="M14.667 22H11v38.5h3.667V22z"/><path d="M14.667 22H11v3.667h3.667V22zM33 22h-3.667v38.5H33V22zM35.75 0a12.815 12.815 0 00-9.12 3.778L22 8.408l-4.63-4.63A12.814 12.814 0 008.25 0a6.424 6.424 0 00-6.417 6.417 6.424 6.424 0 006.417 6.416h27.5a6.424 6.424 0 006.417-6.416A6.424 6.424 0 0035.75 0zM8.25 9.167a2.753 2.753 0 01-2.75-2.75 2.753 2.753 0 012.75-2.75 9.17 9.17 0 016.528 2.704l2.796 2.796H8.25zm27.5 0h-9.324l2.796-2.796a9.173 9.173 0 016.528-2.704 2.753 2.753 0 012.75 2.75 2.753 2.753 0 01-2.75 2.75zM1.833 12.833H22c1.012 0 1.833.821 1.833 1.834v5.5c0 1.012-.82 1.833-1.833 1.833H1.833A1.833 1.833 0 010 20.167v-5.5c0-1.013.82-1.834 1.833-1.834z"/><path d="M12.833 12.833H9.167V22h3.666v-9.167zM34.833 12.833h-3.666V22h3.666v-9.167z"/></symbol></svg>