<svg width="35" height="32" viewBox="0 0 35 32" fill="none" xmlns="http://www.w3.org/2000/svg">
<path d="M35 14.4C35 12.624 33.5682 11.2 31.8182 11.2H21.7636L23.2909 3.888C23.3227 3.728 23.3386 3.552 23.3386 3.376C23.3386 2.72 23.0682 2.112 22.6386 1.68L20.9523 0L10.4841 10.528C9.89546 11.12 9.54545 11.92 9.54545 12.8V28.8C9.54545 29.6487 9.88068 30.4626 10.4774 31.0627C11.0741 31.6629 11.8834 32 12.7273 32H27.0455C28.3659 32 29.4955 31.2 29.9727 30.048L34.7773 18.768C34.9205 18.4 35 18.016 35 17.6V14.4ZM0 32H6.36364V12.8H0V32Z" fill="white"/>
</svg>
