<svg width="43" height="43" viewBox="0 0 43 43" fill="none" xmlns="http://www.w3.org/2000/svg">
<path d="M34.7704 12.4927C35.2341 12.4927 35.6102 12.1167 35.6102 11.6528V2.51953C35.6102 1.13026 34.48 0 33.0907 0H2.52038C1.13111 0 0.000846863 1.13026 0.000846863 2.51953V40.4805C0.000846863 41.8697 1.13111 43 2.52038 43H33.0907C34.48 43 35.6102 41.8697 35.6102 40.4805V34.2932C35.6102 33.8293 35.2341 33.4533 34.7704 33.4533C34.3066 33.4533 33.9305 33.8293 33.9305 34.2932V40.4805C33.9305 40.9436 33.5538 41.3203 33.0907 41.3203H2.52038C2.05729 41.3203 1.68053 40.9436 1.68053 40.4805V2.51953C1.68053 2.05644 2.05729 1.67969 2.52038 1.67969H33.0907C33.5538 1.67969 33.9305 2.05644 33.9305 2.51953V11.6528C33.9305 12.1167 34.3066 12.4927 34.7704 12.4927Z" fill="black"/>
<path d="M17.8053 4.53516C13.5448 4.53516 10.0787 8.00128 10.0787 12.2617C10.0787 14.4719 11.0118 16.4681 12.5043 17.8777C12.5323 17.9076 12.562 17.9359 12.5945 17.9617C13.9695 19.2197 15.7992 19.9882 17.8052 19.9882C19.8112 19.9882 21.6409 19.2196 23.0158 17.9617C23.0483 17.9359 23.0781 17.9075 23.106 17.8777C24.5988 16.4681 25.5318 14.4719 25.5318 12.2617C25.5318 8.00128 22.0657 4.53516 17.8053 4.53516ZM17.8053 18.3086C16.4339 18.3086 15.1682 17.849 14.1527 17.0767C14.8908 15.7678 16.2683 14.9492 17.8053 14.9492C19.3423 14.9492 20.7197 15.7678 21.4578 17.0767C20.4422 17.849 19.1767 18.3086 17.8053 18.3086ZM16.4615 11.9258V11.3799C16.4615 10.639 17.0644 10.0361 17.8053 10.0361C18.5462 10.0361 19.149 10.639 19.149 11.3799V11.9258C19.149 12.6667 18.5462 13.2695 17.8053 13.2695C17.0644 13.2695 16.4615 12.6667 16.4615 11.9258ZM22.6713 15.8464C22.0519 14.9278 21.1935 14.2133 20.1969 13.7723C20.5925 13.261 20.8287 12.6207 20.8287 11.9258V11.3799C20.8287 9.71271 19.4724 8.35645 17.8053 8.35645C16.1381 8.35645 14.7818 9.71271 14.7818 11.3799V11.9258C14.7818 12.6207 15.0181 13.261 15.4137 13.7723C14.417 14.2133 13.5586 14.9278 12.9392 15.8464C12.1977 14.8426 11.7584 13.6027 11.7584 12.2617C11.7584 8.92746 14.471 6.21484 17.8053 6.21484C21.1395 6.21484 23.8521 8.92746 23.8521 12.2617C23.8521 13.6027 23.4128 14.8426 22.6713 15.8464Z" fill="#963636"/>
<path d="M22.3404 36.7852H17.8053C17.3415 36.7852 16.9654 37.1612 16.9654 37.625C16.9654 38.0888 17.3415 38.4648 17.8053 38.4648H22.3404C22.8042 38.4648 23.1803 38.0888 23.1803 37.625C23.1803 37.1612 22.8042 36.7852 22.3404 36.7852Z" fill="black"/>
<path d="M22.3404 32.082H10.4146C9.95089 32.082 9.57481 32.458 9.57481 32.9219C9.57481 33.3857 9.95089 33.7617 10.4146 33.7617H22.3404C22.8042 33.7617 23.1803 33.3857 23.1803 32.9219C23.1803 32.458 22.8042 32.082 22.3404 32.082Z" fill="black"/>
<path d="M22.3404 27.3789H10.4146C9.95089 27.3789 9.57481 27.7549 9.57481 28.2188C9.57481 28.6826 9.95089 29.0586 10.4146 29.0586H22.3404C22.8042 29.0586 23.1803 28.6826 23.1803 28.2188C23.1803 27.7549 22.8042 27.3789 22.3404 27.3789Z" fill="black"/>
<path d="M7.42136 22.9219C7.26523 22.7656 7.04855 22.6758 6.82684 22.6758C6.60587 22.6758 6.38919 22.7656 6.23307 22.9219C6.07686 23.0781 5.98699 23.2947 5.98699 23.5156C5.98699 23.7365 6.07677 23.9532 6.23307 24.1094C6.39012 24.2656 6.60587 24.3555 6.82684 24.3555C7.04855 24.3555 7.26439 24.2656 7.42136 24.1094C7.57757 23.9532 7.66752 23.7365 7.66752 23.5156C7.66752 23.2947 7.57766 23.0781 7.42136 22.9219Z" fill="black"/>
<path d="M7.42136 27.625C7.26439 27.4688 7.04855 27.3789 6.82684 27.3789C6.60587 27.3789 6.39012 27.4688 6.23307 27.625C6.07686 27.7812 5.98699 27.9979 5.98699 28.2188C5.98699 28.4396 6.07677 28.6563 6.23307 28.8125C6.39012 28.9687 6.60587 29.0586 6.82684 29.0586C7.04855 29.0586 7.26439 28.9687 7.42136 28.8125C7.57757 28.6563 7.66752 28.4396 7.66752 28.2188C7.66752 27.9979 7.57766 27.7812 7.42136 27.625Z" fill="black"/>
<path d="M7.42136 32.3281C7.26439 32.1719 7.04855 32.082 6.82684 32.082C6.60587 32.082 6.39012 32.1719 6.23307 32.3281C6.07686 32.4843 5.98699 32.701 5.98699 32.9219C5.98699 33.1428 6.07677 33.3594 6.23307 33.5156C6.38919 33.6719 6.60587 33.7617 6.82684 33.7617C7.04855 33.7617 7.26523 33.6719 7.42136 33.5156C7.57757 33.3594 7.66752 33.1428 7.66752 32.9219C7.66752 32.701 7.57766 32.4843 7.42136 32.3281Z" fill="black"/>
<path d="M22.3404 22.6758H10.4146C9.95089 22.6758 9.57481 23.0518 9.57481 23.5156C9.57481 23.9795 9.95089 24.3555 10.4146 24.3555H22.3404C22.8042 24.3555 23.1803 23.9795 23.1803 23.5156C23.1803 23.0518 22.8042 22.6758 22.3404 22.6758Z" fill="black"/>
<path d="M41.2365 10.9448C40.4206 10.4737 39.4701 10.3486 38.5598 10.5924C37.6498 10.8363 36.889 11.42 36.4181 12.2359L25.8493 30.5414C25.7914 30.6417 25.7548 30.753 25.742 30.8681L24.998 37.5318C24.9611 37.8634 25.1238 38.1855 25.4127 38.3523C25.5432 38.4276 25.688 38.4649 25.8326 38.4649C26.0083 38.4649 26.1833 38.4099 26.3307 38.3013L31.7295 34.3251C31.8229 34.2564 31.901 34.1692 31.9588 34.0688L42.5275 15.7633C43.5 14.0789 42.9209 11.9173 41.2365 10.9448ZM26.8803 35.8104L27.2688 32.3307L29.6995 33.7341L26.8803 35.8104ZM30.9241 32.5016L27.7239 30.6539L36.2051 15.9642L39.4053 17.8118L30.9241 32.5016ZM41.0729 14.9234L40.2451 16.3572L37.0448 14.5096L37.8727 13.0757C38.1194 12.6483 38.5178 12.3426 38.9945 12.2149C39.4714 12.0871 39.9693 12.1527 40.3966 12.3995C40.824 12.6462 41.1297 13.0446 41.2574 13.5213C41.3851 13.998 41.3196 14.496 41.0729 14.9234Z" fill="black"/>
</svg>
