<?xml version="1.0" encoding="utf-8"?><svg viewBox="0 0 165 170" xmlns="http://www.w3.org/2000/svg" xmlns:xlink="http://www.w3.org/1999/xlink"><style>:root>svg{display:none}:root>svg:target{display:block}</style><svg fill="none" viewBox="0 0 13 22" id="arrow" xmlns="http://www.w3.org/2000/svg"><rect x=".789" y="11.072" width="14.631" height="2.385" rx="1.192" transform="rotate(-44.117 .789 11.072)" fill="#0084FF"/><rect width="14.631" height="2.385" rx="1.192" transform="scale(-1 1) rotate(-44.117 18.03 25.64)" fill="#0084FF"/></svg><svg fill="none" viewBox="0 0 165 170" id="benefits-decor" xmlns="http://www.w3.org/2000/svg"><path fill-rule="evenodd" clip-rule="evenodd" d="M163.632 78.294c.12-.434.096-.895-.068-1.315.042.44-.1.864.068 1.315zM163.112 77.1c-.095-.435.084-.86-.106-1.3-.093.434-.056.886.106 1.3zM163.475 73.635c.026-.471-.116-.477-.274-1.158-.031.239-.031.48 0 .718.111.283.153.131.274.44zM164.016 59.906v-.613c-.247-.273-.242-.582-.452-.86-.005.526.153 1.04.452 1.473zM162.875 74.641c.147.22.179-.754 0-1.01-.158 0 0 .34-.126.717.079.063.147.09.126.293zM163.427 57.836a1.656 1.656 0 01-.058-.922c-.226-.21-.315-.047-.31.367.132.178.247.361.368.555zM162.386 65.937c.205.163 0-.864-.305-1.147-.09.403.363.75.305 1.147zM161.623 52.281c-.079-.22-.321-.602-.147-.44-.032-.309-.379-.524-.526-.812-.002-.468-.1-.93-.29-1.357-.32.11-.762-.85-1.236-1.572.251.393.429.828.526 1.283.216-.073.263.194.647.77-.037.053-.073.11-.037.33.255.333.427.721.5 1.133.221.367.442.681.563.665zM162.028 64.067v-.598c-.063 0-.221-.146-.237-.414-.189-.204-.026.77.237 1.012zM160.376 62.495a3.395 3.395 0 00-.526-1.237c.106.44.311 1.247.526 1.236zM156.389 40.375c-.126-.44-.589-1.105-.747-1.048.213.374.463.725.747 1.048zM159.077 58.313c-.147-.461-.116-.964-.526-1.373.098.484.275.948.526 1.373zM154.99 43.404c-.284-.587-.416-.445-.921-1.08.101.166.182.342.242.525.353.12.574.843.679.555zM156.652 53.833c-.2-.126.211.822.137 1.147.358.351-.021-.739-.137-1.147zM154.748 49.132a4.627 4.627 0 00-.773-1.263c.116.267.242.524.363.786.118.266.218.539.3.817.305.425-.195-.739.11-.34zM149.614 32.866c.347 0-.557-.728-.731-.996-.305-.036.547.729.731.996zM148.147 32.489c.089.356.526.498.583.885.274.152.374.1.295-.167-.458-.23-.71-.844-.878-.718zM144.002 24.513a4.175 4.175 0 00-1.226-1.237c.38.44.79.853 1.226 1.237zM154.048 53.073c.027-.3-.205-.524-.215-.813-.337-.419-.284-.068-.2.352.137.151.273.314.415.46zM153.338 49.3a2.933 2.933 0 00-.399-1.048c-.206-.121.073.848.399 1.048zM152.844 50.363a.427.427 0 00-.126-.257c-.316-1.079-1.094-1.99-1.489-3.05-.437-.523-.368-.088-.668-.34.2.608.379.388.605.823.226.435-.116.225.147.691.221-.062.563.671.9 1.012.07.321.159.638.268.948.358.54 0-.366.363.173zM143.407 26.845c.19.257-.526-.32-.657-.466-.405-.095.452.393.452.613.526.377.326.047.573.152a11.675 11.675 0 00-.752-.943c-.41-.236.069.356.384.644zM153.086 60.22a2.087 2.087 0 00-.395-1.278c.061.444.194.876.395 1.278zM152.823 60.409c.216.157-.1-.686-.295-.886-.11.341.247.577.295.886zM152.486 58.575c-.221-.31-.263-.147-.431-.31.042.22.168.415.194.64.174.136.221-.053.237-.33zM142.008 25.598c.121-.063-.084-.293-.347-.556a6.253 6.253 0 01-.731-.733c-.532-.105.689.912 1.078 1.289zM151.434 63.731a4.77 4.77 0 00-.805-1.572c.207.553.477 1.081.805 1.572zM137.789 21.542c-.105.089.374.697.832.89.11-.088-.332-.733-.832-.89zM150.198 50.688c-.063-.45-.952-1.76-.8-1.006.416.278.532.676.8 1.006zM147.536 41.298c.142-.184-.604-1.279-1.173-1.614.127.256 0 .172-.152.073.149.309.375.574.657.77.273.21.5.472.668.77zM150.266 56.825a2.74 2.74 0 00-.552-1.483c.258.476.216 1.037.552 1.483zM135.575 19.608c-.179-.146-.358-.293-.189-.246-.937-.445-1.547-1.216-2.488-1.656 1.204.844 1.43 1.604 2.677 1.902zM147.3 45.406c0-.351-.39-.524-.631-.76.101.15.176.317.22.493.064-.016.206.084.411.267zM132.645 17.528c.405.105-.352-.325-.394-.477.073.351-.463-.288-1.053-.45.148.36.737.272.879.633.214.042.411.144.568.294zM131.151 16.422c-.794-.597-.757-.964-1.578-1.268.715.634-.41.063.242.655.237-.21.821.461 1.336.613zM145.432 45.81c-.315-.524-.931-1.206-.799-.65.405.362.494.545.799.65zM126.638 13.624a6.7 6.7 0 00-1.578-.99c-.221-.226.174-.127.605 0-.905-.603-1.105-.242-2.378-.97.174.293.242.236.679.64.699.188-.184-.158-.289-.389 1.004.524 1.883 1.237 2.961 1.709zM135.128 26.567a2.85 2.85 0 00-1.399-.86c.478.415 1.041.855 1.399.86zM139.41 34.768c-.337-.382-.069-.152-.242-.524-.248-.12-.227.047-.337.063.137.22.389.32.579.461zM130.283 25.85a5.2 5.2 0 00-1.578-.986c.537.288 1.31 1.059 1.578.985zM133.124 34.616a4.188 4.188 0 00-.579-.702c-.4-.246.4.577 0 .336.171.153.367.277.579.366zM135.938 40.763a2.837 2.837 0 00-1.163-1.016c.363.335.952 1.037 1.163 1.016zM118.537 17.192l-.42-.382c-.074.036-.148.068-.306-.053-.305.01.453.467.726.435zM130.089 33.123c-.305-.472-.884-.692-1.142-1.21-.252-.08-.073.188-.116.277-.336-.168-.657-.623-.794-.482.19.236.563.293.673.597.39-.052.8.55 1.379.818zM115.555 16.852a2.833 2.833 0 00-.631-.31c-.479-.073-.153.257.236.41.626.177-.231-.289.395-.1zM124.018 28.684c.106-.183-1.283-1.168-1.509-1a5.865 5.865 0 011.509 1zM123.976 30.419a1.735 1.735 0 00-1.104-.65c.354.24.723.456 1.104.65zM118.921 24.749a3.283 3.283 0 00-1.152-.613c.342.275.733.483 1.152.613zM114.908 22.338c-.237-.188-.573-.236-.81-.424-.163 0 .126.21.247.34l.563.084zM113.051 21.62c-.242-.262-.647-.262-.926-.471-.194.02.568.545.926.471zM96.224 10.94c-.153 0-.095.043-.026.08a1.25 1.25 0 01-.526-.163c-.347 0-.253.262-.763.105-.526.078.752.152.231.199.432.042 1.794.073 1.084-.22zM94.588 11.004a.871.871 0 00-.568-.084c-.195-.074-.394-.147-.237-.189a2.023 2.023 0 00-.741.058l.652.267c.326-.131.578.021.894-.052zM91.51 9.903a3.2 3.2 0 00-1.162 0c.376.134.787.134 1.163 0zM106.518 18.602c-.526-.204-.6.079-.395.23.637.194.248-.146.395-.23zM107.323 19.388c-.621-.294-1.526-.66-1.941-.466.652.11 1.173.508 1.941.466zM105.613 18.377a8.008 8.008 0 00-1.304-.304c.405.167.847.256 1.236.456.126-.016-.121-.152.068-.152zM103.73 17.087c-1.173-.199-1.389-.398-.794.194.279.03.561-.038.794-.194zM87.182 9.746a2.518 2.518 0 00-1.436-.026c.475.08.959.088 1.436.026zM80.165 9.52a18.54 18.54 0 01-1.889.278 4.468 4.468 0 00-1.44.388c.525-.068 1.051-.136 1.577-.22.526-.084 1.052-.131 1.578-.23.142.047-.147.12-.3.188.979.084 1.031-.252.474-.403zM95.75 15.867c-.668-.205-.33.283-.72.11-.121.267.905.015.72-.11zM95.04 15.898a2.33 2.33 0 00-1.22-.052c.398.104.815.122 1.22.052zM73.542 10.569l-.568-.09c-.273.116-.126.158-.426.278.338-.025.671-.088.994-.188zM86.282 14.148c-.215.1.11.194-.452.298.642.042 1.447-.204.452-.298zM68.161 20.07a1.003 1.003 0 00-1.094.523c.383-.133.75-.308 1.094-.524zM55.9 24.382c-.526.1-.368.42-1.052.556-.295-.032.41-.325.526-.488-.405.097-.755.35-.973.702.31-.136.447-.152.526-.068-.426.456-1.052.372-1.457.87a1.45 1.45 0 01.847-.293 3.25 3.25 0 011.614-.792c-.047-.141-.625-.026-.031-.487zM51.566 26.724l-.527.095c-.378.377-.415.325-.573.629.447-.126.947-.792.7-.32a.49.49 0 00.4-.404zM49.809 27.521c.058.1-.28.435-.526.718l.378-.09a.656.656 0 01.316-.24c-.058-.152-.163-.032.242-.398-.232.063-.147-.069-.41.01zM47.968 28.459c-.3.377-.705.524-1.005.88.526-.225.884-.739 1.462-.817.127-.294-.215.005-.457-.063zM46.437 30.005c.263-.299.331-.461 0-.335a2.164 2.164 0 00-.39.372c.016.052.164.036.39-.037zM46.058 30.11c-.236.084-.158-.058-.42.036-.18.2 0 .226-.264.33-.079.142.248 0 .421-.031l.263-.335zM45.569 30.849c0-.131-.915.256-1.11.628a5.135 5.135 0 001.11-.628zM39.499 35.203c-.132.336-.379.498-.526.786.315-.073.426-.44.742-.524.1-.251.23-.53-.216-.262zM36.658 38.085a1.8 1.8 0 00-.73.74l.467-.236.263-.504zM34.917 39.825c-.379.351-.73.734-1.1 1.1-.215.388.669-.455.453-.067.247-.21.127-.247.18-.388.141-.226.41-.31.467-.645zM34.091 41.44c-.252.167-.326.523-.578.701.147.069.394-.172.742-.524.1-.22-.337.131-.164-.178zM31.745 43.258c-.169.366-.404.698-.694.98-.263.283-.526.56-.768.87-.11.597.773-.577 1.136-.682-.094-.257-.236-.115.263-.843.479-.304.526-.152.937-.692-.08-.257-.306-.053-.874.367zM32.04 43.755c-.395.393-.69.896-1.052 1.29.058.026.284-.168.526-.43.239-.243.419-.537.526-.86zM30.525 46.056c-.19.12-.284.32-.479.435-.12.372.38-.09.2.361.175-.198.31-.427.4-.676-.41.341-.342.414-.12-.12zM28.421 49.158a2.217 2.217 0 00-.458.456c.132-.026.032.304.3.084-.095-.136.063-.178.158-.54zM16.654 91.788a4.022 4.022 0 00.305 1.975c0-.57.042-1.126.048-1.692-.127-.205-.237-.168-.353-.283zM19.573 104.281c-.089.314.18.586.195.885.174.194.047-.671-.195-.885zM24.092 116.857c-.158.053.342 1.048.694 1.415a13.626 13.626 0 00-.694-1.415zM27.148 122.496c.442.482 1.052 1.457 1.315 1.572-.32-.545-.978-1.499-1.315-1.572zM35.228 132.625c.297.379.615.741.952 1.085.131-.052-.521-.896-.952-1.085zM44.99 142.194c.106-.042.432.074.526 0a2.373 2.373 0 00-.7-.409c.159.226 0 .194.174.409zM86.993 169.863c1.267.089 2.63-.294 3.866-.226-.6-.283-2.662.068-3.866.226zM91.016 169.501a3.022 3.022 0 001.605-.183 7.8 7.8 0 00-1.605.183zM67.567 152.428c.131-.031.152-.099-.042-.23a10.46 10.46 0 002.056.498 14.76 14.76 0 00-2.524-.724c.436.231.247.278.51.456zM71.438 154.063c.027-.12.658-.089.263-.319-.52-.136-.62.084-.263.319zM70.576 153.015c-.163.032.157.184.305.294.368 0 .526-.042.6-.11-.269-.137-.658.021-.905-.184zM101.694 152.491c.331-.03.642-.172.879-.403a2.185 2.185 0 00-.758.246c.121.005-.052.089-.121.157zM103.551 151.522a1.016 1.016 0 00.721-.451c-.537.136-.747.299-.721.451zM105.839 151.171c1.116-.157 2.152-.692 3.22-1.048-.279-.116.399-.294.804-.561-.665.227-1.316.491-1.951.791a16.2 16.2 0 01-2.073.818zM109.537 149.871a3.64 3.64 0 001.315-.608 3.011 3.011 0 00-1.315.608zM111.336 149.075a9.84 9.84 0 001.463-.524c-.127-.126-1.042.136-1.463.524zM112.746 148.86a7.567 7.567 0 011.247-.341c.273-.314.526-.424.126-.524-.016.304-.936.556-1.373.865zM112.862 146.292c-.09.241.705-.21.92-.404a2.167 2.167 0 00-.61.131c-.205.184-.063.215-.31.273zM118.758 145.249c-.11.084-.047.084.032.079l.252-.042c.232-.356 1.468-.854 2.041-1.462-.163.042-.205 0-.163-.053-.484.394-1.015.666-1.483 1.106-.642.121.205-.283.105-.44-.31 0-.431.524-.742.555-.157.163.621 0-.042.257zM114.913 145.312a9.08 9.08 0 002.104-1.237c-.726.369-1.429.782-2.104 1.237zM121.63 143.473c.348-.236.463 0 .979-.31-.263-.031-.211-.183.3-.581a4.756 4.756 0 00-1.279.891zM122.277 142.729a5.661 5.661 0 001.457-1.096 6.746 6.746 0 00-1.457 1.096zM127.075 139.511c.089-.157-.337.084-.2-.105-.705.482-1.221 1.331-2.036 1.599.226.398 1.489-1.138 2.236-1.494zM124.555 140.999a9.676 9.676 0 002.104-1.776c-.831.382-1.42 1.158-2.104 1.776zM125.928 139.249c0 .121.21 0 .426-.209.216-.21.431-.477.557-.608-.389.157-.589.66-.983.817zM126.47 139.186a4.469 4.469 0 001.657-1.415c-.479.603-1.184.802-1.657 1.415zM129.552 137.195c-.684.32-.1-.414.331-.66.353-.084-.11.377-.331.66.363-.047.468-.524.826-.582-.032-.471 1.052-1.871 1.489-2.552-.106-.105-.384.231-.632.624a2.564 2.564 0 00-.468.896c-.205-.147-.763.576-.647.157-.289.419-.526.818-.82 1.268-.295.451-.621.917-1.052 1.504a3.287 3.287 0 001.304-1.315zM131.919 134.58c-.058.147.237-.026.4-.084a5.78 5.78 0 01.652-.828c0-.089-.2 0-.031-.257-.206.137-.395.31-.605.446-.19.325.168.346-.416.723zM133.234 133.82c.279-.283.863-.969.3-.671-.3.409-.132.388-.3.671zM133.502 132.898c-.042.32.432-.377.647-.398 0-.21-.126-.11.2-.561-.378.189-.52.686-.847.959zM163.285 84.635c-.094.204-.2-.477-.294.1.084.25.042.487.136.743 0-1.173.753.598.2-.691a34.387 34.387 0 01.1-3.758c-.221-.586-.168-.77 0-1.016-.063-.126-.1.178-.168 0-.121-.556.147-.163.163-.708-.21-.141-.205-.44-.579-1.2.024.549.129 1.091.311 1.61-.12.426-.106.88.042 1.299-.316.906-.126 2.374-.274 2.856.184.67.3-.697.279-.975.179.592-.121 1.127.084 1.74zM163.848 72.037a11.339 11.339 0 00-.389-2.342c0 .524-.137.178-.153.592.395.251.3 1.085.542 1.75z" fill="#E7288F"/><path fill-rule="evenodd" clip-rule="evenodd" d="M163.222 68.385c-.095-.425-.226-.566-.247-.136a1.273 1.273 0 01-.037-.582c-.221-.524-.284-.367-.458-.708a10.29 10.29 0 00-.726-2.573c.132-1.095-.494-2.096-.731-3.144.179 0 .337.399.489.797.153.398.274.817.442.86-.268-.797-.447-1.426-.641-2.097a10.797 10.797 0 00-.868-2.154 1.567 1.567 0 00-.432-1.415c.037-.408.311-.267.616.33.026-.251-.2-.46-.226-.707-.032.304-.526-.56-.416.084-.168-1.017-.805-1.944-1.194-2.903.373.597.657 1.1.878 1.483.221.382.374.65.437.791a2.571 2.571 0 00-.452-1.305c-.295-.555-.71-1.132-.937-1.572.184-.12-.289-1.048-.526-1.54-.105-.1-.031.21-.163.047a3.672 3.672 0 00-.221-.404c.048-.068.211.136.142-.194-.526-1.126-1.267-2.19-1.856-3.29 0-.1.078 0 .052-.179.679 1.169 1.01 1.51 1.657 2.589-.284-.996-.915-1.892-1.283-2.867-.311-.267.157.43.105.593a4.18 4.18 0 01-.458-.63c-.221-.649.221-.287-.121-.9-.21-.226-.2-.069-.421-.32.062.14.149.268.258.377.079.335-.273.383.137.582.216.849-.395-.037-.647-.56.489.612-.279-.803.173-.373-.126-.377-.599-.623-.746-.99-.064-.446.568.456.794.817.226.362.026-.403.315-.115-.168-.524-.62-.938-.773-1.467.19-.042.421.482.763.68-.047-.57-.621-.948-.7-1.503-.278-.184.274.623.211.88-.216-.398-.468-.78-.647-1.19.2.64-.09.367-.358.3a3.554 3.554 0 00-.279-.367c-.279-.608.358.251.079-.352a8.066 8.066 0 01-1.32-1.923c-.452-.807-.815-1.525-.584-1.488-.373-.267-.594-.728-.752-.64-.342-.712.073-.335-.09-.79.395.644.989 1.2 1.342 1.86-.095-.456-1.089-1.923-1.71-2.683-.1-.283.284.105.042-.357a4.913 4.913 0 01-1.43-1.802c-.242.036-.611-.488-.558-.042-.121-.446-.694-.776-1.052-1.468.026.498-.915-.885-1.052-.754-.605-.912.631.351.231-.314a2.954 2.954 0 01-1.025-.96c.042-.094.231-.026.347-.036a29.28 29.28 0 011.515 1.719c.231.277.463.524.694.79.206.25.43.484.668.703-.079-.361-.526-.524-.526-.912-1.704-1.273-2.325-3.201-4.045-4.428a9.925 9.925 0 00-1.01-1.341 45.37 45.37 0 00-1.347-1.347c-.899-.875-1.709-1.656-1.893-2.096-.437-.43-.894-.839-1.32-1.279-.49 0-1.1-.875-1.773-1.294 0-.084.258.031.042-.236-.21.115-1.052-.571-.878-.65-1.494-.917-2.631-2.143-4.103-3.044.315.377-.432-.079-.674-.178-.163-.236.653.23.579.057-1.052-.98-2.451-1.572-3.682-2.337.242-.225-1.252-1.121-1.652-1.121-.168-.278-.5-.351-.694-.603a2.442 2.442 0 01-.947-.362 35.805 35.805 0 01-1.315-.749c-.957-.555-2.009-1.226-2.935-1.42a7.029 7.029 0 00-2.309-1.163c-.879-.352-1.768-.593-2.141-1.007.428.196.869.36 1.32.493-.205-.33-1.815-.64-2.882-1.18-.432-.245-1.994-1.047-2.173-.843-.342 0-.526-.32-.805-.456a14.042 14.042 0 01-1.578-.456 10.905 10.905 0 00-1.625-.361 19.089 19.089 0 00-2.63-.87l-3.23-.797a81.403 81.403 0 00-19.62-2.195c-1.657-.032-3.309.105-4.966.188-.825.032-1.651.137-2.477.22l-2.478.268-2.461.388c-.821.136-1.647.24-2.457.43-1.625.356-3.267.654-4.87 1.115a81.79 81.79 0 00-34.823 19.049A82.598 82.598 0 007.191 57.553 83.986 83.986 0 002.867 77.11a85.797 85.797 0 00.495 19.981c-.042.456-.19.068-.316-.173a44.338 44.338 0 00-.268-2.987c-.116-1-.184-2.002-.284-3.008a44.706 44.706 0 01-.195-3.018 25.865 25.865 0 01.016-3.013 2.522 2.522 0 01-.163-1.148c.084-.152.026.272.105.524.121-.613-.168-1.32.074-1.902-.095-.498-.226.057-.321-.393.248-1.011.407-2.043.473-3.082.042-.581.069-1.19.08-1.787.01-.597.052-1.2.078-1.77.153-.881.316-1.761.447-2.647.184-.894.305-1.799.363-2.71.079-.188.126-.209.147-.11.198-1.551.505-3.087.92-4.595.17-.77.4-1.488.564-2.143.15-.564.264-1.136.342-1.714.231-.377.157 0 .336-.524 0-.183-.147.094-.242.225.295-.843.632-1.63.884-2.426.253-.796.526-1.572.758-2.347.231-.776.562-1.573.878-2.332.163-.393.331-.792.526-1.195.195-.404.416-.791.642-1.19-.095-.44.873-1.97 1.262-2.756.679-1.31.926-2.39 1.426-2.861a10.96 10.96 0 011.92-3.302c.3-.665-.327.23-.027-.44 0-.194.626-.77.458-.43.3-.864.91-1.44 1.278-2.242.226-.236.179-.069.126.115.22-.524.5-1.022.831-1.483.321-.456.653-.901.942-1.4.3.121.074-.046.679-.65-.074-.078.084-.46.326-.796.063.042.21-.052.436-.225.242-.812 1.515-1.724 2.236-3.144.226-.157.284-.11.236.042.584-.739 1.61-1.913 2.52-2.96a18.357 18.357 0 001.873-2.144c.33-.345.68-.669 1.052-.97.386-.305.715-.676.973-1.095.773-.435 1.978-1.441 2.167-1.86 4.587-3.82 8.942-7.242 14.413-10.182.242-.2.068-.168.22-.315.474-.125.606-.251 1.321-.492 2.846-1.803 7.17-3.343 10.704-5.015.295-.042.153.09.479.037a39.124 39.124 0 014.208-1.468c-.079-.094-.526-.366.852-.838.437.052.105.241.963.084.242.068-.773.524-1.052.419-.526.351 1.052 0 .926-.168a19.484 19.484 0 002.935-.68c.963-.275 1.952-.45 2.95-.525.411-.409 1.758-.524 2.63-.43.322-.11.174-.141 0-.167.89-.068 1.768-.247 2.662-.33.895-.084 1.789-.19 2.672-.215.158-.084 0-.137.174-.226l2.067-.136 2.199-.162a18.63 18.63 0 012.073-.042c.567.008 1.134.06 1.693.157.153-.047-.058-.084-.136-.126 1.414 0 2.84.058 4.26.105 1.412.045 2.819.195 4.208.45.582 0 1.163.03 1.741.09.632.073 1.31.173 2.005.277.694.105 1.399.215 2.104.352l1.967.414c.626 0-.058-.21.568-.19.213.011.424.052.626.121-.379.163.084.3.736.44.653.142 1.499.341 1.899.525.368-.147-.673-.21-.847-.383-.173-.173.742.053.984.073.597.391 1.272.65 1.978.76.816.22 1.619.487 2.404.802.62.084-.037-.215.584-.13.22.03.373.167.604.182.127.11-.315.048-.526.053.418.237.887.37 1.368.388.058-.068-.426-.325.116-.22-.258-.179-.621-.158-.858-.372.59 0 .968.393 1.578.356.421.315.9.543 1.41.67.032.231-.962-.382-1.399-.356.831.582-.463-.047-.847-.078 1.299.77 1.32.419 2.588 1.084.289 0-.326-.288-.168-.32.152.035.296.1.421.195.284 0 .163-.11-.216-.257.873.042 1.552.435 2.409.524.405.257.658.367.452.45.632.263 1.463.215 2.015.608.289.22-.526-.057-.721-.031.421.288.926.299.837.136.526.09.768.524 1.267.634.116.142-.42 0 .142.34.632.085 1.247.261 1.826.525.636.293 1.136.634 1.052.765a6.626 6.626 0 001.872.865c.563.65 1.889 1.006 2.031 1.44.526 0 1.099.436 1.725.902.586.512 1.248.93 1.962 1.242a24.23 24.23 0 001.61 1.111c.536.37 1.049.772 1.536 1.205.268.34-.658-.46-.121.115 2.004.928 3.203 2.62 4.997 3.79-.132-.226-.374-.357-.526-.577-.063-.12.247.052.126-.11.715.602 1.236 1.388 1.936 2.007.205.042-.127-.226-.248-.388-.094-.288.5.487.837.524-.053.105.031.236.331.524.262.07.503.202.705.383.23.22.448.452.652.697.421.55.927 1.029 1.499 1.42.311.46.216.524-.278.194.168.382.605.57.815.932.168.079-.058-.277-.153-.46.378.212.717.489 1 .817.095.22-.079.157-.421-.09a25.292 25.292 0 012.267 2.38c.042.183-.379-.184 0 .372.763.246 2.693 2.913 3.472 3.668.031.383.836 1.342.079.655.368.55.499.524.663.524.415.524.157.823.831 1.472-.048-.324-.353-.523-.474-.796.163.147.226.157.211.068.452.634.831 1.305 1.257 1.95.431.666.924 1.29 1.473 1.865-.237.058-.142.157-.058.692.368.356.147-.23.1-.524.762.566.694 1.483 1.404 2.096.358.864-.494-.215-.352.304.442.419.426.1.684.225.441.456.152.598.384.844 0 .168-.263-.178-.432-.336.216.525.747 1.19.731.876.269 1.048.526.943.595 1.74.472.56.813 1.22.999 1.928.169.089 0-.456.463.178l-.142-.75c-.247-.523-.326-.172-.415-.838-.206-.267-.19-.12-.164.053-.447-.85-2.014-3.438-1.351-3.113-.064-.304-.421-.524-.626-.75-.132-.524.242-.214.594.268-.105-.31-.989-1.651-.815-1.012-.421-.524-.605-1.194-1.194-1.671-.063-.283.526.466.526.283a4.749 4.749 0 00-.621-1.048c-.237-.346-.405-.587-.11-.488-.143-.372-.442-.403-.337-.194a7.159 7.159 0 01-.868-1.472c-.153-.095-.111.084-.284-.037-.274-.272-.389-.613-.663-.886.042-.057.153 0 .279.037a28.204 28.204 0 01-2.546-3.223c-.121-.345.31.383.526.42-.184-.43-.626-.724-.763-1.18.481.419.854.945 1.089 1.536.3.105.621.524.963 1.048.173.246.347.524.526.755.155.233.331.452.526.655a27.231 27.231 0 00-1.72-2.453c-.584-.744-1.121-1.462-1.662-2.133-.369-.21.273.399.263.561-.858-.65-.358-.975-1.216-1.63.169.262.369.524.526.765-.462-.204-.494-.665-.962-.875-.2-.346.074-.13.284 0a2.64 2.64 0 01-.474-.623c-.383-.068-2.104-2.138-2.919-3.144-.031-.32.41.57.716.644l-1.147-1.158-1.147-1.106c-.778-.749-1.51-1.54-2.283-2.284-.068-.158.311.089.526.183-.342-.582-.947-.734-.994-.608-.747-.592.189-.157-.452-.838-.737-.524.321.524-.111.288a18.618 18.618 0 00-1.578-1.247 7.95 7.95 0 01-1.452-1.326c-.594-.094-.941-.571-1.683-1.011-.405-.399-.026-.226-.326-.55a16.982 16.982 0 01-2.535-1.688c-.079-.252.752.414.994.566a4.503 4.503 0 00-.994-.807c-.422-.24-.86-.453-1.31-.634-.442-.409.242-.073-.2-.482.468.141.968.602 1.084.466a23.474 23.474 0 00-4.545-2.484c-.689-.555.647.095.11-.372-.747-.414-1.483-.86-2.23-1.268a21.215 21.215 0 01-2.162-1.336 2.736 2.736 0 01-1.052-.414c-.263-.157-.468-.325-.673-.45-.337-.064.11.235-.437.072a12.176 12.176 0 00-2.288-1.131c-.842-.357-1.578-.603-1.578-.813-.942-.35-2.015-.875-3.072-1.284a18.539 18.539 0 00-2.825-.89 3.836 3.836 0 00-.673-.341c-.237-.084-.484-.157-.726-.236a5.02 5.02 0 01-1.357-.566c-.778 0-1.352-.382-2.146-.32-.526-.214-.11-.199-.526-.382l-2.751-.66c-.915-.226-1.852-.367-2.772-.556-1.846-.398-3.682-.665-5.54-1.048-.125.09-.551.131.1.22-.762-.157-1.53-.246-2.303-.346a84.81 84.81 0 00-2.32-.267 45.407 45.407 0 00-4.702-.152c-.774.09-1.473-.194-2.241-.152-.142.058.2.105 0 .168a12.096 12.096 0 00-3.561.105l-.963-.194c-.83.115-1.662.189-2.488.278C76.435.45 75.62.56 74.8.644c-1.646.13-3.271.372-4.907.581-.1.058 0 .084-.163.152-5.67.85-11.23 2.647-16.601 4.716-.752.577-4.466 1.892-6.686 3.071-1.23.592-2.104 1.268-3.045 1.572l-.526.482c-.47.1-.914.301-1.3.587a6.546 6.546 0 01-1.578.876c-.526.43-1.183.864-1.862 1.304l-2.104 1.426a35.01 35.01 0 00-4.13 3.144c-.199.09-.399.175-.599.251-3.103 2.903-6.38 5.471-9.068 8.788a14.426 14.426 0 00-1.873 2.034 60.35 60.35 0 01-.894 1.074 9.43 9.43 0 01-.931 1.011c-.526 1.048-1.42 1.646-1.915 2.683a45.574 45.574 0 00-5.029 7.63l-1.293 2.18c-.405.739-.784 1.493-1.173 2.248-.8 1.494-1.463 3.055-2.147 4.606-.357.765-.652 1.572-.957 2.353l-.92 2.364-.837 2.39c-.268.8-.573 1.571-.81 2.394l-.031.707c-.048.294-.153.252-.163.095-.221.875-.432 1.687-.632 2.468L2.1 66.14c-.158.76-.342 1.515-.478 2.317-.137.802-.258 1.64-.384 2.542-.095.194-.184.387-.28.576-.089.681.227.34-.057 1.342-.105.146 0-.278-.053-.525-.11.43-.168 1.143-.042 1.17A82.972 82.972 0 00.4 93.233c.058.812.169 1.625.284 2.432l.337 2.426c.268 1.614.594 3.212.91 4.81l.584 2.374c.2.792.373 1.572.626 2.364.484 1.572.9 3.144 1.478 4.648a86.403 86.403 0 008.453 17.518 90.264 90.264 0 0012.214 15.197l.436.283c2.43 2.573 5.371 4.716 8.001 7.032.526.351 1.142.472 1.052.75.86.456 1.661 1.018 2.383 1.671l.642.257c.98.768 2.038 1.431 3.156 1.981a55.98 55.98 0 007.806 4.339c.663.335 1.357.623 2.04.922l2.036.912c1.363.597 2.73 1.158 4.061 1.797.232.037.463.053.694.079a8.696 8.696 0 003.072.985c.258.168.069.173.358.346.526-.173.978.162 1.405.377.851.114 1.693.289 2.52.524l2.86.676c.248.131.237.199.074.231.468.147.626-.147 1.463.215.163 0-.042-.089-.11-.147.525 0 .914.252 1.462.152.305.115.131.142-.064.157a14.78 14.78 0 012.63.247c.39.283-.557 0-1.052.057.984.094 1.968.142 2.94.199.974.058 1.947.142 2.925.147l.742.278c-.194.173.468-.063-.273-.194.915-.136 1.714 0 2.94-.073.19.209 1.341.172.579.293.526.084.568-.225 1.578.063.762-.147-.38-.142-.605-.189 1.162-.183 2.235.058 3.398-.173.147.053-.18.121-.347.163.305.057.652-.1.936.078-.268-.225.573-.099 1.162-.304.7.055 1.404.055 2.104 0 .721-.052 1.442-.188 2.147-.293.704-.105 1.41-.22 2.077-.278a11.003 11.003 0 011.92-.084c.495-.45 2.194-.524 3.156-.812 0 .136-.342.22-.747.283-.389.03-.773.104-1.146.22.263.047.526-.026.784.032-.9.225-1.81.587-2.715.77.032-.225-.557-.136-1.22 0-.663.136-1.405.288-1.652.335a15.407 15.407 0 003.335-.251 17.453 17.453 0 003.193-.792c.163.042-.263.189-.479.283.974-.209 2.993-.571 2.993-.948.589-.183.411.094.789.079.879-.289 1.578-.524 2.331-.781.752-.257 1.504-.477 2.446-.891 1.173-.32 2.34-.65 3.503-1.048 1.165-.431 2.3-.938 3.398-1.52a17.219 17.219 0 004.171-2.054c.821-.33 1.622-.708 2.399-1.132.878-.445 1.788-1.022 2.724-1.572l2.846-1.698a24.522 24.522 0 012.809-1.415c-1.052.053 1.825-1.509 1.415-1.808.355-.235.682-.511.973-.822a2.323 2.323 0 011.052-.676 41.05 41.05 0 011.868-1.646c.631-.524 1.236-1.074 1.872-1.572 1.284-.985 2.541-1.97 3.872-2.851.236-.382.526-.786.252-.754a3.693 3.693 0 011.22-.891c.246-.405.565-.761.942-1.048 0-.32.337-.592.437-.97-.284.116-.405.472-.674.619a44.326 44.326 0 015.423-5.571c0-.44.526-1.142 1.163-1.886a30.7 30.7 0 011.41-3.008c.526-1.048 1.141-2.128 1.73-3.197l.689-.576c-.357.052.563-1.242.795-1.881.079 0 .157-.042.126.11.279-.467.526-.943.757-1.41.232-.466.468-.927.684-1.378.216-.451.426-.891.6-1.331.173-.44.305-.88.421-1.31a33.88 33.88 0 001.462-3.433 15.22 15.22 0 00.905-3.306c.351-.902.635-1.828.847-2.772.21-1.048.373-2.054.478-2.662.2-1.048.311-2.002.405-2.919.114-.849.159-1.706.137-2.563-.132.524-.268.498-.452.734 0-.425.157-.76.131-1.184-.237.665-.158 1.011-.447 1.357.079.77-.647 1.808-.431 2.154 0 .356-.337.571-.474.864-.236.896-.526 1.771-.805 2.62.085-.869.2-1.236.248-2.431-.921 3.28-2.578 7.598-3.898 11.398a3.1 3.1 0 01-.605.964c.042.068.132.047.231 0-.194.388-.341.812-.526 1.226-.631.341-.952 2.096-1.13 2.961-.327.283-.121-.336-.027-.771-.163.378-.568.844-.678.734.21-.723.41-.749.436-1.3-.268.205-.131.75-.484.886-.205.524.042.257-.1.66-.08.177-.188.34-.32.482-.111-.083.126-.681 0-.754.069-.129.131-.262.184-.398.042.435.526-.739.736-1.232.195-.194.174 0 .384-.241a4.7 4.7 0 00.4-1.368c.044-.444.156-.878.331-1.289.184 0-.194 1.017-.237 1.415.248-.456.674-1.467.374-1.31a8.761 8.761 0 00.889-1.892c.226-.676.384-1.388.589-2.07-.479.692-.526 1.677-.842 2.495-.084-.645.49-2.269 1.084-3.008.206-1.091.56-2.149 1.052-3.144.095-.425.195-.844.31-1.258.116-.414.195-.838.305-1.247a72.93 72.93 0 01.669-2.442c.231-.807.389-1.64.573-2.463.084-.414.173-.828.247-1.242.074-.414.111-.844.147-1.273-.357.649-.389 1.435-.883 2.028a6.164 6.164 0 01-.8 2.211c0 .278.074.152.074.341-.437.45-.405 1.137-.71 1.65-.184.22-.158-.141-.127-.524-.394.619-.452 1.415-.741 2.096-.279.482-.084-.351-.305 0-.526.949-.442 1.625-.847 2.835-.342.226.031-1.179.105-1.682a2.146 2.146 0 01-.373.577c0 .136.099 0 .163-.068-.111.56-.39.77-.274 1.105-.163.205-.168.037-.337.268a12.47 12.47 0 01-1.094 2.541c-.047.362.048.425.284.183-.027.293-.1.579-.215.849-.2.127-.432.196-.668.2.452-1.022.836-2.694.668-3.145.331-.78.563-1.603.862-2.389.3-.786.626-1.572.947-2.327-.447.267.063-.87.311-1.504.231-.11-.242.666-.206.954.4-.598.316-1.452.5-2.159.253-.446.105.382.31-.294-.221-.267.29-2.049.632-2.96-.058-.87.268-1.745.41-2.867-.247-.178-.284.933-.405 1.279a25.9 25.9 0 01.237-2.18c.085-.892.272-1.77.557-2.62.013-.994.082-1.986.205-2.971.057-.522.077-1.048.058-1.573-.047-.434-.137-.749-.31-.854.173-.959-.163-1.378.031-2.154.142 0 .053.524.248.456l-.048-.807c-.026-.267-.068-.524-.105-.786-.074-.524-.158-.98-.252-1.394-.19-.828-.421-1.399-.705-1.483-.142.488-.3 1.352-.526 1.1-.226 1.101-.211 2.873-.789 3.119.184.524 0 1.478.263 1.635a1.176 1.176 0 00-.032-.524c.179-.225.1.073.168.435-.175.3-.264.643-.257.99-.127.356-.211.2-.274-.194-.047.325-.052.64.053.671a4.567 4.567 0 00-.342 1.735c-.047.718-.026 1.504-.084 2.143a5.154 5.154 0 00-.426 2.148c0 .77 0 1.546-.027 2.327l-.142.22c-.299-.723.053-2.096-.136-2.924-.158.215-.111.524-.306.702-.027.973-.13 1.942-.31 2.898-.068.446-.168.875-.268 1.331-.1.456-.189.943-.268 1.488-.064.058-.074-.036-.153.074a8.32 8.32 0 00.21-2.421c-.215.277-.173.665-.373.948.21-.089.153.252-.074.661.137-.069.242 0 .311.141a6.089 6.089 0 00-.374 1.41c-.073.477-.084.838.132.739 0 .351-.284.031-.332.55-.105.047.09-.524-.136-.351-.2.477-.053 1.048.115.917-.063.351-.3.183-.478.477-.116.697.142.33.115.78 0 .362-.263.367-.231.168-.268.472 0 .461.026.597-.073.142-.373.593-.526.598.028-.317.084-.631.169-.938-.427.644-.279 1.09-.106 1.121a6.384 6.384 0 00-.526 2.369c-.389.555-.163-.178-.399.057a42.06 42.06 0 00.478-1.514c-.342.383-.484.294-.436-.257-.2.268-.232.598-.137.661-.2-.032-.242.56-.526.571a8.111 8.111 0 01-.773 2.227c-.184.105.094-.729.347-.839.031-.136 0-.094-.069-.047 0-.089 0-.183.037-.272a3.61 3.61 0 00-.589 1.436c-.247.141-.273-.2-.526-.053.032.33-.047.299-.152.818-.311.372-.321.183-.526.398-.095.32 0 .299 0 .456-.237.267-.158-.058-.442.299a8.997 8.997 0 01-.479 1.048l-.589.985c-.321.183.068-.32.095-.723-.284.256-.274.744-.621.953.058.037-.026.32.1.236-.265.383-.509.78-.731 1.19-.248.398-.479.807-.71 1.215a13.988 13.988 0 01-1.515 2.369c-.037.142.157 0 .273-.089a2.944 2.944 0 01-.379.865c-.399 0-.731.524-1.052 1.158a9.358 9.358 0 01-1.094 1.729 1.505 1.505 0 01.342-1.179l.447-.692c.144-.236.268-.483.374-.739a2.932 2.932 0 00-.489.666c-.148.209-.279.372-.453.351l-.305.77c-.247.194-.252.089-.384.142.216-.262.295-.66.584-.849-.252 0 .121-.315.032-.498-.595.22-.448 1.221-1.052 1.425-.185.603-.39 1.237-.579 1.787-.421.299-.316 0-.226-.251-.421.157-.595.587-.9.88.132 0 .132.184-.121.634.2-.152.279-.456.563-.524-.201.38-.491.706-.847.949-.168.387-.373.744-.563 1.121-.305-.037.037-.32-.578.288-.5.346.052-.372-.384-.084.137.43-.426.86-.794 1.677-.605.467-1.168.991-1.794 1.42-.174.734-.71 1.269-1.257 2.023-.526.283.205-.461 0-.45a5.83 5.83 0 00-1.052 1.378c-.238.388-.454.788-.647 1.2 1.052-.655.973-1.378 1.509-1.965.216-.089.258-.037.211.094.305-.152.526-.692.263-.524a4.558 4.558 0 001.536-1.572 5.67 5.67 0 011.762-1.74 5.241 5.241 0 01-1.126 1.661 12.3 12.3 0 01-1.636 1.525c-.284.991-1.699 2.185-3.019 3.223.221-.329.31-.73.247-1.121-.189.361-.5.524-.699.843a2.28 2.28 0 00-1.142.755 2.362 2.362 0 01-1.126.723c-.889.859-.594.592-1.467 1.357.331-.131 0 .163.2.121-.3.199-.575.433-.821.697-.573.178 0-.299.337-.498-.195-.105-1.342.901-1.221 1.048-.452.251-.815.707-1.372.728-.653.336-1.137 1.106-1.831 1.347-.526 0 .074-.582.31-.985-.804.482-.999 1.017-2.177 1.52-.474.057-.263-.089-.752.183-.327.335.741-.304.415.026.372-.14.725-.325 1.052-.55.253.105.153.162.752-.204.132 0-.073.167-.173.288-.284.23-.695.094-.989.304 0 .063-.205.251-.048.251-.378.218-.769.41-1.173.577-.21 0-.115-.116.185-.273.205-.152.121 0 .384-.052 0-.147.142-.346-.232-.304-.33.34-.681.659-1.052.954-.362.27-.74.521-1.131.749l-2.32 1.383c-.199 0-.394.027-.284-.073a8.76 8.76 0 01-2.104 1.242c-.163-.162 1.137-.781 1.01-.87.395.047.674-.168.116-.084a19.995 19.995 0 01-3.682 1.604c-.479-.142 1.268-.613 1.157-.896-.479.167-.657.136-.847.403a8.03 8.03 0 00-1.436.451 30.43 30.43 0 00-1.667.629c-.568.23-1.136.487-1.678.691-.542.205-1.052.367-1.489.488-.394-.032.979-.435.237-.393-.401.339-.88.573-1.394.681a4.544 4.544 0 001.168-.204c.079.026 0 .083.136.099-.367.116-.746.19-1.13.22-.405.058-.797.18-1.163.362-.252 0-.12-.121-.4-.147-.593.202-1.202.358-1.82.467-.231-.032-.242-.1-.136-.189-.3 0-.605.23-.91.089-.274.084-.148.126 0 .168-1.22.12-2.23.262-3.24.403-1.01.142-2.026.215-3.23.351-.195-.068-.058-.162.289-.267a8.439 8.439 0 01-1.2.079c-.641.115.269.22-.3.335a3.459 3.459 0 00-1.867.105c-.363-.084 0-.168-.5-.246-.241.099.074.193-.173.293-.715-.257-.61 0-1.61 0-.357-.1 0-.168-.483-.273-.121.069-.132.137.094.215a6.24 6.24 0 01-1.63-.12c-.526-.131-.968-.309-.931-.446-1.268.048.962.325.157.524-.457-.042-.305-.141-.878-.288-.647.105-1.357-.11-1.668.184-.583-.048-1.246-.131-1.399-.399l-.71.11c.437.283.205-.146.642.137a3.334 3.334 0 01-1.468 0l-1.052-.126a8.944 8.944 0 00-.994-.089c.232-.126.148-.283.773-.231-.846-.393-1.141.115-2.104 0a1.689 1.689 0 00-.883-.267l-.973-.047a5.562 5.562 0 00-2.189-.582c-.12-.215.705.1.99.026-.222-.183.436-.146.273-.319-.79.073-1.825-.126-2.54-.074-.185-.131-.527-.157-.99-.377-.19-.309 1.547.398.653-.157.447-.042.741.272 1.188.23-.305-.298-1.488-.288-1.341-.524-.463 0-.894-.173-1.63-.225.157-.293-.721-.241-1.279-.666a16.247 16.247 0 01-2.399-.524c-.089.163.49.524.916.524-.095.121-.4.048-.742-.078-.342-.126-.705-.336-.931-.43-.058-.162.326-.152.526-.105 0-.157-.379-.304-.32-.492-.206.319-.769-.199-1.542-.226.173.304.594.205.8.462a2.999 2.999 0 01-1.231-.524c-.085-.121.226.052.431.041-.137-.146-.526-.246-.3-.256-.394-.299-.294.178-.631-.22.058.178.231.408-.221.356-.584-.273.032-.142-.347-.44-.374-.068-.3.073-.279.188a2.072 2.072 0 00-.626-.246c-.526-.456.526-.141.174-.524-.184.037-.447.032-.421.168-.526-.032-.7-.524-1.252-.493-.395-.298-.2-.319-.42-.524a5.107 5.107 0 01-1.579-.77c-.442.089-1.283-.419-1.867-.797-.263-.256.689.215.158-.199-.653-.084-1.158-.524-1.93-.948-.527-.205.094.277-.3.157-.695-.362 0-.267-.458-.681-.3-.184-.442-.226-.526-.168a4.14 4.14 0 00-1.615-1.153 5.432 5.432 0 01-1.668-1.121c-.526-.053-.757-.257-1.578-.64-.205-.136-.21-.377-.642-.67.032-.252.684.424 1.016.482a4.826 4.826 0 00-1.71-1.101c-.468-.466-.163-.346-.373-.728-.447-.288-.616-.556-.947-.556-.084-.157-.179-.309-.268-.466 0 .314-1.11-.555-1.315-1.116-.526-.068-.737-.388-1.173-.907-.526-.277 0 .074.063.294-.31-.147-.453-.43-.7-.629-.22-.487.037-.241.263-.204a3.857 3.857 0 01-.989-1.379c.127.052.237.14.316.252.031-.084-.19-.32-.463-.587a18.139 18.139 0 01-.752-.781c.841 1.09.489 1.048 1.383 2.06-1.162-.64-.841-1.143-1.536-1.798-.116.142.416.985.19 1.001-.127-.362-.768-1.006-.81-1.362-.39-.158-.526-.053-.905-.173.342-.079-.132-.551-.374-1.017-.084-.257.563.278.284-.189-.268-.083-.342-.183-.457 0-.232-.262-.426-.728-.41-.361a5.08 5.08 0 01-.59-1.022c.09-.089.795.912.842.524a21.44 21.44 0 01-1.578-1.478c-.558-.597-.91-1.142-.526-1.048-.226-.319-.642-.524-.758-.922a2.797 2.797 0 01-1.004-.907 5.043 5.043 0 00-1.142-1.215c.105-.336-.526-.907-.147-.797-.2-.403-.384-.173-.794-.634a11.42 11.42 0 00-1.72-2.536c.136-.189-.348-.923-.526-.917 0-.43-.321-.724-.384-1.117-.063.163.031.341-.058.582a2.776 2.776 0 01-.41-1.247c-.3-.624-.416-.204-.61-1.163-.09-.027-.058.193-.258-.053.15.245.279.503.384.771.118.258.218.524.3.796-.495-.838-.869-1.74-1.331-2.594 0-.089.078-.026.058-.162.273.372.489 1.184.746 1.132-.189-.666-.768-1.085-.952-2.023a.87.87 0 01-.305-.451c-.11-.078-.179-.058-.152.184-.369-.488-.453-1.049-.805-1.546-.116-.467.1-.189.031-.556-.31-.435-.084.325-.363-.309-.1-.493.321.215.048-.414-.216-.32-.11.094-.258-.073a12.252 12.252 0 00-.962-3.087 17.513 17.513 0 01-.963-2.777c0-.226.279.319.331.209a5.532 5.532 0 00-.415-1.048 1.942 1.942 0 01-.169-1.1c-.094-.089-.168-.079-.173.157-.221-.236-.19-.524-.374-.744 0-.335.127-.073.242.105a9.745 9.745 0 00-.263-1.148c-.094-.126-.079.136-.1.273-.215-.241-.142-.524-.289-.76.063-.047.174.152.184-.147-.095-.162-.184-.33-.279-.498 0-.372.158-.063.142-.524-.168-.618-.336-1.236-.5-1.855-.162-.618-.252-1.247-.352-1.87l-.063.387c-.052-.346-.3-.686-.252-1.048.047-.362.131-.063.231.126a7.312 7.312 0 00-.263-1.389c-.11-.482-.231-.912-.294-1.085.152-.214.152-.524-.032-1.048-.084.676-.158.079-.284-.272.237 1.2 0 1.73.32 3.018.1.137 0-.126.043-.257.231.257 0 .525.215.781-.1.341-.156.693-.168 1.048a25.056 25.056 0 00-.384-2.515 8.878 8.878 0 01-.168-2.206c-.053-.084-.084 0-.142-.136-.142-.524.173.115.168-.388-.431-.807-.247-1.572-.247-2.38-.242-.23-.263-.785-.247-1.336.179.2.373.671.526.315.079.388.052 1.048.231 1.048-.063-.524 0-.524.121-.77-.205-.22-.184-.572-.336-.687-.08-.445.084-.864-.1-1.326.305-.524.1-1.687 0-2.62.257 0 .252-.466.094-1.179.074-.089.142-.073.2.173.158-.854-.116-1.787.042-2.62-.063-.246-.2.31-.247-.052-.09-.283.258-.477.074-.787.09-.214.157-.21.215-.083.074-.414-.231 0-.063-.681.116-.315.205-.42.268-.205a7.036 7.036 0 01.08-1.205c.052-.409.105-.77 0-.922.136-.341.168 0 .32-.451-.252-.063.053-.687.048-.66.03-.368.03-.738 0-1.106-.024-.39.06-.78.242-1.127-.206-.23.11-1.273.189-1.85.074-.026.1.21.226-.057a1.425 1.425 0 010-.786c.088-.319.119-.65.09-.98-.122-.257-.374.587-.342.849-.095.22-.043-.645.031-.828-.131-.299-.19.566-.268.739-.079.173-.079-.262-.1-.456-.021-.194.426-.65.316-1.284.178-.299.341-.571.368-.278.258-.409.158-.964.473-1.352-.068-.157-.247-.068-.079-.602.107.315.154.647.137.98 0 .434 0 .948-.042 1.451.126-.414.32-.797.468-1.2-.031-.215-.19-.33.053-.681-.027-.147-.137-.032-.153-.205.063-.602.19-.288.458-.79-.347 0 .236-2.28.694-2.385-.19-.084.19-.524.121-.954-.279.34-.231.849-.526 1.19-.142-.074.374-1.048.526-1.478-.063-.079-.09-.246-.047-.613.042-.367.215-.23.147.078.21-.403-.037-.524-.216-.262-.047.32-.247.561-.2.928-.115.084-.194.052-.31.136.095-.64.526-1.1.616-1.74.194-.057.126 1.048.447.241-.253.053-.058-.23.047-.718.253.037-.068.462.42-.361-.125-.12-.152-.189 0-.75.37-.057.28-.964.748-1.367-.526 1.488-.831 2.725-1.578 4.323.473-.493-.284 1.184.105 1.048.147-.168.179-.393.331-.55-.168-.346.38-1.294.6-1.43-.342.25 0-.671-.368-.341.06-.345.182-.675.363-.975.22-.184-.416.959.131.225.063.33-.3.425-.22.76.147-.199.162-.037.326-.262.042-.817.315-.928.557-1.011-.152-.09 0-.488.179-.965.179-.476.457-1.048.605-1.404 0-.325-.116 0-.347.241.126-.922.962-2.096.92-2.62.31-.43.137.168.3.042a16.625 16.625 0 01-.873 1.87c0 .273.09.33.284.179a.69.69 0 01.22-.467c0-.078-.047-.167-.141-.089.34-.44.597-.94.757-1.472.2-.468.341-.96.421-1.462.205.524.61-.718 1.02-.844.038-.218.13-.424.269-.597-.074-.34-.31.492-.526.587-.216.094 0-.634.12-1.352.5-.388-.089.608.08.702.442-.482.242-.45.489-1.085-.19.136-.2-.047-.3-.068.11-.304.416-.44.437-.812-.421.382-.432 1.084-.974 1.383a7.041 7.041 0 01-.683 1.902c-.195.147.22-.56.3-.738 0-.304-.448.524-.248.46-.378-.135 0-1 .642-2.032.326-.525.694-1.08 1.052-1.63.174-.278.337-.524.484-.818.147-.293.3-.524.415-.739-.152.126-.3.252-.273.105-.263.178-.247.598-.526.75-.142 0 .305-.986.657-1.159-.31.11.106-.995.526-1.263.121-.104-.294.77-.526.933.3 0 .037.388.132.634.395-.419.347-.235.773-.707-.22.42-.442.713-.652 1.048-.1.182-.192.37-.274.56-.107.243-.198.491-.273.745.436-.357.137.157.657-.456-.115-.063-.494.262-.178-.482.478-.729 1.052-1.394 1.44-2.175-.241.225-.378.273-.33.053-.243.304-.47.62-.68.948-.078-.094.143-.56.243-.823.194-.183.168-.042.126.116.526-.561-.079-.315.458-.99.12.041.042.387.205.366.3-.954 1.578-2.18 1.936-3.186.189-.079.052.251.452-.09.307-.391.565-.819.768-1.273-.279.21-.42.257-.526.226.32-.524.757-.97 1.052-1.572.31-.11.053.68-.495 1 .274-.14.053.33.337.179.077-.313.216-.607.41-.865.216-.288.49-.618.795-1.106-.321.1-.358.524-.647.655-.121-.167.494-.602.657-1.048.216-.136.169 0 .4-.136-.11-.555 1.052-1.148 1.394-1.797.463 0-.573.88-.474 1.08a.991.991 0 00.242-.32c.469-.352-.12.361.342 0 .248-.425.831-.823.526-.813.195-.46.663-.555.92-.933.143 0 .08.304-.262.524.126.08.384-.267.652-.607.268-.341.579-.64.752-.524l.426-.734c-.278.168-.268.058-.41.094.31-.424.421-.304.679-.393.198-.389.496-.72.862-.959.39-.272.884-.524 1.463-.917a6.183 6.183 0 011.246-1.121c.562-.36 1.09-.768 1.578-1.221-.09-.183-.468.293-.794.44.032-.299 1.094-1.048 1.578-1.41.279.042-.657.524-.42.577.373-.163.657-.304.741-.252.21-.256.558-.796.842-1.184.463-.393.483-.068.889-.257.273-.152.962-.938.983-.629a11.502 11.502 0 012.504-1.692c.563-.2-.305.482.258.283.589-.524-.295-.126.19-.55.483-.425.646-.11 1.051-.19.29-.195.595-.37.91-.523-.047.152.1.199.568.063a.37.37 0 01.3-.304c.221-.262-.358.178-.526.094.256-.242.572-.412.915-.492.206-.22-.526.073-.62.183-.074-.068 0-.225 0-.34.436-.242.526-.095.673-.43.578-.074-.074.199 0 .335.526-.131.394-.304.526-.482.526-.335 1.105-.524 1.641-.807.074.1-.263.403-.237.524.275-.085.557-.148.842-.189a2.11 2.11 0 00.878-.325 2.781 2.781 0 001.768-.314c-.332.058-.737.225-.773.063.318-.234.673-.411 1.052-.524.215-.184-.216-.095.178-.34-.457.204-1.393.371-1.425.607-.1-.063-.252-.1.037-.335.405-.2.358.104.826-.399.552-.151-.253.289.3.142-.169-.215.525-.456 1.051-.524.258-.262-.21-.131-.526 0 .185-.152.395-.189.58-.351.167.042.904-.131.672.057.221-.057.984-.618.858-.277a.968.968 0 00.526-.34 1.18 1.18 0 01.678-.326c.142 0-.178.205-.331.32.626-.168 1.799-.304 1.978-.629.173-.094 1.052-.304.526 0 1.052-.367 2.467-.975 2.772-1.572.3-.07.595-.16.884-.267.526.031-.416.366.294.361-.307.175-.657.26-1.01.246-.568.3-.663.467-.2.488.11-.073-.068-.068-.142-.094.34-.191.726-.285 1.116-.273.305.042-.39.105-.484.293.352.08.657-.282 1.015-.151.179-.451 1.615-.467 2.525-.456.2-.12.378-.262.4-.357.02-.094-.116-.167-.527-.078.221.173-.305.21-.757.246-.137-.042.205-.12.373-.12-.226-.147-1.52.272-2.162.335 2.01-.755 5.166-1.153 7.675-1.572.126.042-.132.126-.263.194.363.054.734-.016 1.052-.2.205.247.526 0 1.052.053.379.052-.852.293-.142.31.468-.336.742-.169 1.678-.158a1.741 1.741 0 011.578-.178c.447-.23.868-.105 1.32-.294a7.157 7.157 0 002.699.294c1.152.006 2.302.083 3.445.23-.026-.194.594-.293.79 0 .525-.047.42-.152.451-.246a1.5 1.5 0 01.526.047c-.084.116.048.252-.462.33.704.23.252-.325 1.052 0 .268-.272.468-.146 1.21-.1.236.121-.095.19-.458.252.719-.021 1.439.017 2.151.116.654.092 1.32.06 1.962-.095.626 0 .59.157.99.278.31.189-.4.173 0 .383.488 0 .425-.142.357-.273.605.168.484 0 1.052.042.305.283-.594.398-1.178.278.242.11.1.146 0 .078a6.526 6.526 0 003.366.776c.416.215-.652.068-.121.309.385-.017.77.051 1.126.2l.689.224c.213.085.431.158.652.22.263 0 .163-.099.452-.083 0 .078-.21.084.037.23.453.12.169 0 .558 0 .079.079-.205.053-.069.152.453.315 1.052.34 1.052.142a.63.63 0 00.348.146c.1.084-.169.063-.316.08.646.224 1.28.483 1.899.775a4.7 4.7 0 001.594.492c.957.645.826.262 1.367.655a6.867 6.867 0 012.005.34c-.211-.23-.527-.287-.763-.455.436 0 .673.351 1.052.42.089.104-.169.041-.316.036.721.362 1.357.849 2.104 1.205.084.1-.173.042-.326.032.325.206.68.362 1.052.46.305-.094.936.289 1.641.734.358.226.731.462 1.094.671.317.213.658.39 1.016.524l-.926-.608-.958-.555a54.433 54.433 0 01-1.904-1.148c.479.186.933.428 1.352.723.289-.073-.557-.35-.715-.524l.826.157c.173.168 0 .163.215.346 1 .425 1.205.048 2.22.85 0 .183-.826-.305-1.178-.341 0 .094.194.32-.063.293a3.059 3.059 0 011.883.676c.116.163-.042.163-.379.063.368.388 1.084.225 1.699.718.374.383-.436-.026 0 .398.126.053.095 0 .053-.063.047-.104.584.362.589.09.168.157.847.67.831.403.226.189.526.278.721.524-.079.131-.921-.241-.842 0 .295.131.715.33 1.099.472.242.262-.073.146.248.482.652.408 1.225.901 1.846 1.352.142.225-.431-.252-.663-.226.7.671 1.284.362 1.804 1.216.226.136.589.136.716.367.315.105-.295-.257-.274-.435l.389.152c.469.597 1.215.938 1.642 1.572-.069.084-.3-.047-.526-.241a1.935 1.935 0 01-.569-.634 3.407 3.407 0 01-.915-.524c.332.257.884 1.08 1.578 1.284.29.43-.289.078 0 .524.574.13 1.704 1.121 2.567 1.933.095.304-.315-.246-.489-.246.389.372.1.294.342.687.578.393.968.932 1.578 1.31.458.807.668.623 1.83 1.456a8.542 8.542 0 01-1.152-1.184c-.22-.162-.184-.036-.136.1-.274-.2-.516-.44-.716-.713-.152-.252.374.204.432.304a3 3 0 00-1.252-1.572 2.505 2.505 0 00-.7-.943c-.368-.341-.758-.658-1.168-.949-.136-.278.053-.246-.441-.45-.2-.263-.4-.525-.621-.766a9.685 9.685 0 00-.705-.68 14.394 14.394 0 00-1.578-1.222c.174-.246-1.089-.875-.584-.849a5.995 5.995 0 01-1.026-.592c.116.184.321.278.432.467-.237-.121-.447-.268-.679-.393-.037-.11 0-.158.247-.074-.184-.299-.526-.43-.715-.733-.237-.105-.158 0-.321 0a.953.953 0 00-.721-.524c-.136-.163-.241-.373-.457-.451-.242-.257.663.24.168-.189a3.883 3.883 0 01-1.467-.75 6.085 6.085 0 01-1.242-1.005c-.342-.32-.21 0-.552-.137a2.786 2.786 0 00-.358-.162c-.357-.325 0-.236-.373-.566-.889-.204-2.241-1.153-3.298-1.808a5.356 5.356 0 01-.942-.21c.489.435.526.084 1.052.467-.352-.032-.247 0-.052.304-.889-.147-1.484-.56-1.579-.85.395 0 .526.457.937.441-.526-.246-.637-.571-.142-.482-.747-.346-1.426-.797-2.167-1.153.326-.094.184-.078-.353-.414.426.115.81.35 1.105.676.252.026-.221-.288.131-.215-.463-.152-.831-.466-1.294-.623-.352 0 .053.262.311.487a12.61 12.61 0 00-2.104-.728c-.142.057.047.256-.163.288-.747-.241.089-.194-.453-.524-.089-.12.216.052.421.042-.563-.582-2.293-.944-2.998-1.546a4.848 4.848 0 01-.795-.147 7.598 7.598 0 01-.762-.21c-.495-.162-.979-.356-1.478-.524-.263-.298.762.037.931-.157-.705-.382-1.052 0-1.089-.456-.284.063-.342.189-.169.383a9.889 9.889 0 01-.683-.152c-.227-.058-.447-.1-.668-.157-.442-.12-.879-.262-1.305-.42-.389.247-1.215-.12-1.851-.262-.11-.078.163-.083.315-.11.232 0 .405.168.595.268.184 0 .231-.032.173-.09h.289c-.436-.214-.988-.11-1.372-.44.312-.002.622.052.915.158.121-.09-.063-.163-.3-.226s-.526-.1-.673-.157c.962-.173-.99-.251-1.626-.524 0 .136-.226.33-.768.23.416-.136-.273-.267-.252-.523a.938.938 0 01-.405 0c.179.256-.7.104-.915.288a6.207 6.207 0 00-2.215-.356c-.447-.173 0-.226.084-.325-.715-.194-1.41-.252-1.799-.425l-.568.115.495.215c.526-.188.962.12 1.446.173-.663.12-1.215-.194-1.872-.089.12-.482-1.4-.382-2.43-.629.4-.003.8.03 1.193.1.08-.22-1.052-.184-1.446-.194-.142.105-.11.215-.331.32-.732.031-.332-.231-.616-.32a.729.729 0 01-.526 0c-.058.267-.684.215-1.336-.031.368.267-.216.094-.852.34-.737-.22.978-.215.058-.414-.269.31-.763.23-1.126.425-.642-.189.778-.205.579-.336a2.186 2.186 0 00-1.237.215c-.589-.168.458-.1.3-.251-1.152-.3-1.54.104-2.693.283-.31-.08-.152-.184-.647-.252-.594.236-1.168.058-1.751.252-.169-.09.11-.231 0-.336a2.92 2.92 0 01.526-.136c.452.058 0 .168 0 .246.668-.137 1.347-.22 2.03-.246a6.488 6.488 0 00-1.746 0c-.453-.094.736-.058.284-.183.62.041 1.257-.037 1.883-.032.12-.063-.169-.1 0-.168.526-.12.152.147.657.168.216-.085.45-.11.679-.073.1-.524 1.31.11 2.057-.226.473.105-.143.257.526.241.41-.167-.085-.33.347-.524-.347-.115-.731.037-1.052-.068-.142.058.12.11.252.163a3.51 3.51 0 01-1.362 0c-.069-.152.442-.079.578-.257.551.01 1.102-.023 1.647-.1.478.105-.147.252.526.247.957-.561 3.877-.069 5.607.115.063.115-.584.168-.347.299a37.231 37.231 0 00-4.845-.44c-.268.136.59.172.816.03.394.163.952.142.352.305.458 0 .915-.032 1.373 0 .095.115-.42.204.2.34.468-.225.594-.136 1.241-.036.49.141-.152.183.337.325.91.126 1.831.126 2.74 0-.026.068.253.178.08.225-.406.063 0-.225-.527-.068.758.251 1.578.24 2.346.492l1.02-.152c.204.187.437.34.69.451.62-.162-.263-.335-.4-.492.526-.063.879.456 1.442.314.568.283-.626.22.1.524.136 0-.032-.09-.09-.147a11.71 11.71 0 012.951.603c.589-.042-.184-.42-.658-.524.526.047 1.131-.21 1.542.084.178.204-.558-.09-.469.1.19.235.558.03.753.267.352-.079.026-.215.762-.11.279.151.248.23-.094.23.652.335.768-.162 1.362.194.147.178-.794 0-.279.31.526.057.416-.08.758-.08.183.024.36.077.526.158 0 .13-.742-.079-.653.152.658.178.458.251 1.053.613 1.136.466 2.456.744 3.313 1.017-.42 0 .064.23.753.492.664.25 1.314.536 1.946.86-.163.172-1.126-.525-1.699-.477.899.592 1.978.566 2.546 1.095.152 0-.058-.147-.158-.247.431-.036.668.242 1.052.268.684.775 2.072 1 2.451 1.514 1.189.377 1.689.928 2.72 1.143-.421-.236-.106-.116-.369-.383 1.463.45 1.531 1.048 1.405 1.394.384.031.252-.241.526-.262.463.33.973.603 1.399.975.105.188-.652-.278-.926-.31-.058-.141 1.636 1.122 1.968 1.305.236.2.084.372-.111.126-.11.168.437.293.658.435.147.031-.032-.157-.106-.267.524.378 1.023.79 1.494 1.231a8.538 8.538 0 001.783 1.347l.379.524c.268.1.384.346.689.409.526 1.048 1.768 1.42 2.32 2.42a7.997 7.997 0 012.441 2.474c-.61-.409-.726-.35-1.21-.65.242.21.494.41.752.598l.7.581c.372.27.682.614.91 1.012.252-.252 1.052.293 1.115-.194.431.477.763 1.048 1.168 1.54.131-.136-.248-.592-.611-1.047-.363-.456-.736-.87-.526-.996.269.126.274.44.426.65.279-.084.737.77 1.273 1.006-.168 0-.326.057 0 .623.127-.157.442.116.937.456.152.388.442 1.09.662.965.211.424-.068.309.29.733.037.288-.121 0-.426-.188.314.474.693.903 1.125 1.273.169.414-.526-.215-.363.22.206.136.611.094.747.597.132 0 .411.215.174-.256.526.524.426.466.81.581.284.136.116.524.4.666.526.393-.053-.346-.095-.524.242.257.347.592.631.828.069.267-.526-.32-.294.162.257.037.631.697.357.524.732.487 1.358 1.672 1.736 2.73.116 0 .363.215.474.205-.216-.524-.079-.299-.2-.76-.258-.252-.163 0-.116.199a21.906 21.906 0 01-1.578-2.82c.673.677.878 1.573 1.531 2.28-.235-.414-.446-.84-.631-1.278.389.387.489.917 1.052 1.22.052.268-.327-.078-.158.362.2.142.284.34.478.493.116.32-.094.11-.257 0 .058.257.326.419.331.697.289 0 .605.796.863.754.247.66-.263.1-.111.613.242.269.438.575.579.907.12.224.185.474.189.728.526.645.284.74.758 1.358 0 .32-.242-.33-.411-.393.19.707.732 1.273.916 1.986.247.204.315.24.526.225.152.404.594 1.116.815 1.085.179.524-.3-.236-.126.309.131.361.442.67.452 1.048.3.42.263.09.458.524.037.43-.526-.477-.61-.361-.242-.242.031-.64-.327-.839-.121.168.295 1.095.637 1.572.105.456-.1.183-.037.524.25.353.478.72.684 1.1.171.267.263.576.268.892.042.225.153.21.168.094.243.41.373.876.379 1.352.263.251.268.555.526.802-.331-.493-.11-1.106-.552-1.573.068-.408.342.084.137-.822a1.305 1.305 0 01.373 1.105c.384.435-.037-.524.142-.566a.813.813 0 01-.273-.733c-.279-.278-.279-.592-.437-.56.063.429.295.738.026.66-.178-.263-.042-.614-.284-.86.069-.252.358.267.132-.435-.169.325-.226-.524-.416-.954 0-.089.305-.036.358.304-.153-.335-.226-1.19-.573-1.734.163-.566-.442-1.221-.29-1.682-.378-.587-.526-.451-.826-1.106 0-.147.227.152.374.288 0-.597-.395-1.048-.579-1.609-.205-.136-.184 0-.031.289-.379-.247-.458-.818-.653-.734a.404.404 0 00-.099-.524c0-.288.126 0 .394.272-.205-.67-.742-1.215-.799-1.949-.527-.042-.337-.928-.995-1.294.305 0-.205-.524-.084-.687.323.371.549.816.658 1.294.573.215.915 1.447 1.141 2.243.142 0 .284 0 .684.451-.526-.487-.831-1.378-1.199-2.258-.369-.88-.863-1.688-1.536-2.055-.395-.75-.947-1.41-1.294-2.17-.216-.12-.184 0 0 .294l-.684-.524a2.192 2.192 0 01-.379-.697c.347.268.447.666.873.891-.126-.377-.368-.702-.499-1.085-.153-.12-.295-.246-.458-.361a4.175 4.175 0 01-.368-.524c-.079-.262.2-.058.526.178-.526-.833-.679-.22-1.205-1.158-.126-.053-.184 0-.1.21a2.422 2.422 0 01-.563-.598c.321.115.185-.252-.068-.734-.252-.482-.668-1.048-.831-1.357.375.394.723.812 1.041 1.253.348.471.647.843.763.733.495.645.873 1.347 1.394 1.976.268-.058-.526-.823-.663-1.158.49.45.411.524.879.744-.126.445.415.67.242 1.08.526.487.484.157.489-.095.363.393.137.524.237.78.268.216.405.493.731.687.205.446-.058.2.073.556.526.419.195.288.463.817.453.482.684 1.048 1.152 1.54.205.525-.221 0-.2.226-.415-.524-.873-1.64-1.12-1.399.218.3.461.583.726.844-.037.052-.063.11 0 .293.479.425.568.524.663 1.022.526.608.242-.2.757.414.071.119.15.233.237.34.131.467-.19.121-.316.121 0 .388.337.634.368 1.001.19.22.179.09.158-.057.526.66.474 1.52 1.194 2.122.253.681.553 1.247.81 1.797.241.538.418 1.103.526 1.682.384.351.411.807.621 1.206.258.094.237-.1.526.283a5.356 5.356 0 01-.095-1.08c-.32-.215-.168 0-.526-.409-.289-.524-.378-1.095-.825-1.572 0-.361.526.44.715.493 0-.33-.573-1.221-.295-1.174-.336-.833-1.052-1.572-1.125-2.468.363.445.526.964.883 1.415a2.822 2.822 0 01-.32-1.048c-.237-.074-.29-.184-.242-.488a4.944 4.944 0 01-.789-1.373 6.982 6.982 0 00-.726-1.394c-.19-.524.189 0 .368.147-.037-.372-.358-.64-.458-.99-.1.332-.087.687.037 1.011-.053.047-.152 0-.263-.042-.168-.277-.284-.571-.421-.854 0-.162.316.204.09-.325-.248-.267-.274-.178-.416-.272-.142-.095-.142-.325-.289-.462 0-.356.247.21.379.137.315.309.31.744.678 1.048a86.593 86.593 0 00-6.991-10.648c-.478 0-1.199-1.19-1.188-1.515-.348-.105-.2.32-.553.2-.61-.525-.284-.671-.931-1.18-.047-.136.184.032.326.105-.436-.524-1.052-.938-1.451-1.483.957.304-.984-1.305-1.515-2.3-.468-.336-.09.151 0 .35-.795-.796-.4-.476-1.094-1.241-.179-.069.168.335-.058.225a2.2 2.2 0 01-.558-.608c-.1.026-.273 0-.61-.204-.558-.32-.153-.43-.831-.74-.095-.193.068-.162.4 0a13.07 13.07 0 00-2.599-2.29c-.037-.12 0-.167.258-.057a15.87 15.87 0 01-1.641-1.105 15.496 15.496 0 00-1.615-1.117c0-.073-.026-.157.116-.12a4.488 4.488 0 00-1.473-.65c-.316-.304-.258-.367.168-.183a22.472 22.472 0 01-2.046-1.457 8.177 8.177 0 00-2.283-1.148c-.395-.35.226-.094-.174-.445.29.078.442.335.779.367-1.168-.65-2.783-1.185-4.145-2.133-.295.052.899.623.047.403a4.676 4.676 0 00-1.615-1.048c-.526.042.526.262.816.524a6.147 6.147 0 01-1.468-.55c.063-.12.258-.183.489-.225-.657-.278-1.262-.456-1.878-.676a10.21 10.21 0 01-1.967-.786c-.084-.095.226-.027.084-.147-.142-.12-.415-.21-.589-.372a3.164 3.164 0 01-.91-.105c0-.094-.094-.215-.405-.409a17.766 17.766 0 01-2.014-.67c-.263-.205.478 0 .573.115-.4-.404-1.657-.556-2.141-.42-.652-.309 0-.225.421-.22-.952-.283-2.046-.251-2.935-.66-.29-.152.526-.105.578.084-.089-.204-.584-.44-1.257-.618.221.031.847.178.342-.084.295.037.526.246.852.162a6.911 6.911 0 00-1.336-.456c.137.147-.315.257-.773 0-.179.037.216.09.363.22a6.864 6.864 0 00-1.778-.094c-.615-.267.384-.136-.147-.382-.453.026-1.158-.137-1.226.063a30.01 30.01 0 00-3.309-.724c-.036.095.09.205-.526.22-.378-.293.458-.303-.71-.524a3.33 3.33 0 011.147.08c0-.216-1.315-.153-1.815-.3-.073.058.137.158-.2.184-.426-.152-.752-.136-1.052-.404-.557 0-.22.158-.778.194-.426 0-.737-.435-1.541-.183-.38-.115 0-.168-.526-.294a2.57 2.57 0 011.004.047 14.504 14.504 0 00-3.834-.455h-4.256c0-.11.253-.226.621-.336-.526.028-1.053.02-1.578-.026-.395.1-.253.2-.179.293-.316 0-.694 0-1.105-.036-.41-.037-.862 0-1.31 0a6.335 6.335 0 00-2.45.44c-.416-.162.5-.178.447-.32-.926.037-1.12.116-1.852.142-.142.084 0 .136-.152.225-.932.194-2.515-.141-2.983.325-.337-.042-.174-.168-.71-.178-.426.12-.847.388-1.273.251-.316.283-.931.32-1.578.435a6.86 6.86 0 00-1.925.472c.105-.105-.526-.053-.295-.189-.352.12-.7.257-1.052.346a2.419 2.419 0 01-1.052.12 3.12 3.12 0 01-.815.388c-.048-.047-.095-.089-.295-.094-.116.168-.868.372-.563.152a3.472 3.472 0 01-.83.304c-.362.109-.73.198-1.1.267.205.126-.158.257-.652.43-.148 0 .115-.152.247-.252-.7.152-1.368.462-2.067.619.526-.372.72-.189.925-.524-.428.066-.846.189-1.241.367-.152 0 .2-.226.373-.346.527-.163 1.053-.053 1.52-.45-.594.25-.4-.163-.999.104-.21-.126.316-.315.79-.524.262 0-.064.225-.09.335.368-.048.703-.236.936-.524.44-.203.915-.322 1.4-.35-1.053.261-.721.523-1.495.686-.231.23.89-.215.037.246-.526.304.074-.294-.431 0-.69.409-.068.126.316.162-.176.083-.361.141-.553.173a7.38 7.38 0 001.578-.466c.62-.234 1.262-.41 1.915-.524-.326-.163.526-.189.526-.398-.668.183-1.319.421-1.946.712-.421-.46 1.91-.906 2.598-1.257 1.052-.069.1.403.763.445 0-.304.936-.136 1.389-.482-.432.13-1.684.314-1.294 0 .82.105.725-.304 1.846-.351.584 0-.137.283.447.283l.694-.362c-.215 0-.431 0-.294-.105.331-.125.657-.23.989-.324.331-.095.668-.147 1.004-.215.668-.131 1.337-.252 2.005-.42-.432-.13-.863.095-1.295.084.805-.272 2.247-.64 2.588-.314a2.337 2.337 0 00-1.151.33c-.163.189.689-.058.426.142.9-.168 1.678-.577 2.298-.273a1.81 1.81 0 011.01-.152c0-.068.316-.178.153-.225.526 0 1.252-.074 1.914-.137a3.542 3.542 0 011.542.058c.31-.031.626-.073.941-.115.316-.042.631-.063.952-.084 0 .068-.063.141-.173.21.526.078.4-.163.747-.215.568.13.21.272-.053.414.647.068 1.473-.037 1.689.23.215-.167-.316-.33.362-.524-.883-.115-.383.367-1.462.184-.168-.163.069-.262.626-.341.55-.03 1.101.008 1.641.115.54.122 1.094.173 1.647.152.368.247-.526.12-.91.215.48.085.974.077 1.451-.026-.031-.052-.063-.11-.257-.173.389-.031.526.115.594-.063.407.068.82.08 1.231.037.413-.037.827.05 1.189.251.131-.178 1.352-.1 1.436.131.402-.166.84-.226 1.273-.173a8.9 8.9 0 011.504.294c.284 0 .142-.09.337-.12.705.24 1.578.235 1.478.523.368-.052.726-.068 1.094-.104.92.32-.379.214.142.455a4.437 4.437 0 011.852.315c.136-.115.773-.136.999-.236.331.236-.8.189-.184.477.147-.398 1.946.073 2.735.445.747.11.763-.173 1.499.131-.089.126-.684.126.174.31.089.162-.337.152-.847.146.082.054.18.08.279.074l.236.162c.484 0 .206-.173.69-.147.762.1.526.378 1.23.718.574 0 .979.351 1.526.42a2.854 2.854 0 00-1.61-.577c.042-.089-.242-.272-.557-.472.578.22.584.027 1.22.41.652.11-.263-.252.389-.148.892.454 1.815.844 2.762 1.169.216-.037-.737-.404-1.052-.456-.037-.356 1.289.152 1.867.435.311.325-.957-.32-.626-.042.584.435.61.047 1.242.404-.979.031 2.067.78 2.745 1.483.405-.042 1.421.35 2.215.524-.274.283 2.02.97 2.377 1.048.164.146.321.293.158.267.279 0 .726.404 1.373.524.221.472.894.445 1.82.907.121.183-.252.078.184.45.7.303 1.378.654 2.031 1.048.589.367 1.157.776 1.983 1.232.1.194-.269.068.215.393.248-.236.937.43 1.126.854-.068-.362.821.058 1.399.608.053.299-.731-.524-.731-.273.137.2.363.31.489.524.253.047.032-.236.526.105.09.152-.405-.126-.268.063.658.613.984.697 1.052.555.626.373-.184.179.421.577.074-.2.61.141 1.136.492 0 .33.342.284.626.77.132-.125.689.347.952.661-.031.1-.268-.152-.268.052.379-.047 1.82 1.64 1.904 1.17.3.424.989.523 1.278.969.163.387-.457-.236-.91-.362.342.393.81.676 1.126 1.09.584-.163 1.788 1.357 2.251 1.677-.163.063-.71-.388-.957-.524-.163-.236 0-.178.137-.1-.374-.524-.421-.235-.958-.697.642.697.858.828 1.163 1.572.494.346.105-.167.342-.073a11.334 11.334 0 001.662 1.934c.379.393.789.78 1.126 1.153.336.372.615.712.794.964.142.126.899.812.71.393.642.466.763 1.168 1.052 1.006.168.398-.221.078-.289.168a1.606 1.606 0 01-.353-.608c-.431-.257 0 .398-.657-.262.405.427.841.825 1.304 1.19 0 .057-.042.12.032.308.41.304-.095-.288.168-.256.332.298.458.718.894.959a44.833 44.833 0 00-.899-1.368c-.305-.45-.658-.87-.994-1.305-.689-.849-1.363-1.724-2.104-2.526-.363-.524.389.168 0-.35-.374-.4-.342-.22-.663-.41-.258-.524.526.069 1.01.352.857.896 1.388 2.19 2.63 3.238.294.325.41.75.699 1.08-.084-.42-.031-.31.427.413.378.357.152-.078.399.11.374 1.049.758 1.09 1.321 1.887.157.372-.121.115.105.587.126-.136.494.183.763.739.152.367-.569-.524-.227.11.162.114.278.28.326.471.074 0 .227.08.442.268l.411.712c.115.22.215.42.31.614.197.4.373.812.526 1.231.463.063.426.844.952 1.29 0 .314-.337-.446-.573-.525l.431.66c.133.225.244.462.331.708.174.24.526.409.579.697.116-.241.179-.084.705.524-.584-.949-.558-1.452-1.157-2.16-.106-.523.32.242.2-.235-.432-.45-.563-.43-.584-.225a7.899 7.899 0 00-.647-.807c.231-.142-.384-.87-.689-1.258-.032-.388.473.461.731.466a1.343 1.343 0 00-.616-.67 3.127 3.127 0 00-.552-1.295c-.095.063-.479-.304-.8-.566 0-.214.274-.1.048-.66a4.18 4.18 0 01-.663-.959c.179.084.063-.251.179-.251a25.639 25.639 0 01-1.436-1.85c-.453-.63-.884-1.274-1.363-1.881-.799-.524-1.052-1.4-1.772-1.97a7.635 7.635 0 00-1.673-1.96 13.59 13.59 0 01-.873-.897 2.406 2.406 0 01-.526-.828c-.337-.11-.463-.382-.768-.524a6.338 6.338 0 00-.637-.974c.526.356.721.801 1.116.801-.363-.042.173.315.494.718.405.147-.037-.22-.284-.524.587.38 1.102.86 1.52 1.42.111.247-.568-.408-.673-.592 0 .304 1.21 1.279 1.673 1.855-.1-.346-.495-.487-.595-.828.348.409.73.788 1.142 1.132l.526.461c.184.173.373.362.584.592.199.383-.795-.639-.348.037l.526.362a17.498 17.498 0 002.452 2.793c-.726-.556.194.524.62 1.158.148 0 .463.262.095-.22.899.665.584 1.011 1.304 1.624.132.404-.105.283-.252.288.196.328.496.583.852.724.442.456.763 1.572 1.131 1.572.137.225.558 1.116.352.959.365.353.684.75.947 1.184a9.23 9.23 0 01.968 1.803 3.329 3.329 0 00-.941-1.048c.178.445.352.896.526 1.357.257.356.063-.498.273.052.332.152-.331-.576-.431-.77.189-.215 1.21 1.226 1.304 1.991.474.85 1.431 1.572 1.578 2.531l.421.477c.142.472-.168.032-.242.074.19.523.794.974.852 1.572-.031.325-.331-.483-.526-.608.8 1.462 1.578 2.845 1.678 3.904.148.482.38.934.684 1.336-.052-.335 0-.435.153-.183.083.474.231.934.442 1.367.115.283.236.572.326.865.084.273.142.554.173.838a2.095 2.095 0 01-.447-.948c.149.86.367 1.706.652 2.53.416.609-.152-.481 0-.727.29.445.311.927.621 1.373.032-.121.105-.131.253.11 0-.388-.153-.524 0-.582.066.184.154.36.263.524a6.398 6.398 0 00.142 1.892c-.337-.446-.137-.96-.469-1.405-.068.351.127.666.058 1.017.09-.32.579.97.716 1.525 0 .152-.153-.126-.242-.262-.105.393.184.754.131 1.142.153.236.063-.403.179-.304.421.98.389 2.007.726 3.003.221 0-.195-.723-.168-1.148 0-.094.084 0 .094-.152.1.593.277 1.171.526 1.72.232-.053 0-.755-.263-1.007-.031-.676.395.618.19-.304.236.45.499 1.446.552.713zM134.707 20a4.42 4.42 0 01-1.341-1.048c.516.252.973.609 1.341 1.048zM91.232 2.184c.526-.141 1.578.11.863-.215.9-.014 1.799.079 2.677.278-.484.131-.526 0-1.052.241a2.11 2.11 0 00-.757-.194c-.221.037.105.12-.042.168-.542-.115-1.174.052-1.689-.267v-.01zm60.67 115.994c.121-.524-.084-.477.353-.928.11.058-.063.655-.353.928zm-4.208-1.698a4.52 4.52 0 00.379-1.614.982.982 0 00.347-.838c.189-.211.425-.374.689-.477.142-.697-.205-.357-.426-.273.526-.912.842-.639.768.032a2.645 2.645 0 00-.573 1.242 3.369 3.369 0 01-.526 1.294c-.369.314.157-.498-.085-.372-.084.414-.441 1.09-.562 1.006h-.011zm-66.556 38.71c-.526.105-.968-.126-1.468-.089.489-.101.995-.07 1.468.089zm-38.636-14.626c-.079-.246-.805-.78-.526-.78.169.361 1.026.854.526.78zm-19.383-24.66c.12.33.426.597.389.98-.247-.215-.631-1.075-.39-.98zm102.414-85.118c.471.292.894.657 1.252 1.08-.363-.31-1.357-.892-1.252-1.08zm-7.637-7.945c.147-.136 2.209 1.007 1.688 1.049-.463-.498-1.215-.55-1.688-1.049zm30.897 33.318c-.115-.1-.157 0-.352-.299 0-.225-.147-.398-.163-.623a1.286 1.286 0 01.515.922zm-42.785-44.217c1.273.361 1.83.524 2.887.901-1-.162-1.973-.466-2.887-.901zm24.854 12.162c.168.142.499.372.773.582.274.21.468.414.394.456-.331-.288-1.357-.901-1.167-1.038zm10.299 9.653a.883.883 0 01.721.524c.084.262-.668-.314-.721-.524zm20.194 29.79c0 .305.105.148.242.415-.153.456.373.838.221 1.294-.358-.46-.605-1.682-.463-1.708zm-7.217-19.482c.28.297.486.656.599 1.048a2.018 2.018 0 01-.599-1.048zm-11.778-17.02c.163-.069.863.612 1.094 1.047a3.393 3.393 0 01-1.094-1.048zm-3.235-3.05c.474.277 1.4 1.194 1.247 1.325-.368-.477-.963-.776-1.247-1.326zm10.894 27.616c-.373-.823-.973-1.572-1.304-2.39a6.077 6.077 0 011.304 2.39zM130.183 13.8c.195-.099 1.115.525 1.499.928a3.22 3.22 0 01-1.499-.927zm11.825 16.77c.379.318.717.683 1.005 1.085-.379-.215-1.242-1.027-1.005-1.085zm7.296 21.307c-.032.22.526.922.2.775-.1-.356-.626-1.058-.2-.775zm-.563-.791c.11-.294-.158-.388-.342-.865.174.162 0-.315.131-.194.3.587.069.482.527.943l.078.399c-.131-.116-.163-.016-.394-.3v.017zm-.737-2.437c.304.342.529.746.658 1.184a1.787 1.787 0 01-.658-1.2v.016zm-7.064-16.287a2.704 2.704 0 01-.657-.587c.526.393.584-.157 1.136.608.005.293-.721-.482-.479-.021zm4.734 12.75c.153.125.316.246.458.382.037.126.068.262.1.393-.337-.199-.41-.508-.574-.775h.016zm1.741 7.97c-.184.288.253.472.379.964-.237.163-1.02-1.645-.394-.964h.015zm-8.779-22.92a5.903 5.903 0 00-1.052-1.012c-.368-.294-.678-.566-.726-.865-.257.11-.994-.555-1.288-.975 1.083.88 1.125.524 2.267 1.284.152.592.41.34.431.755.568.471 1.788 1.404 1.794 1.698-.069-.105-.663-.634-.484-.357.38.289.704.644.957 1.048a1.707 1.707 0 01-.731-.822c-.426-.262-.973-.88-1.168-.755zm-9.11-13.563c.157-.147.862.383 1.246.671-.136.115-.904-.335-1.246-.67zm10.862 16.146l-.253-.525c.27.128.498.33.658.582-.505-.414.1.362-.405-.057zm5.128 16.197c.39.262.237.744.642 1.001.095.414-.294.079.042.687-.715-.676-.3-1.012-.684-1.688zm-2.277-7.577c.363.262.768.524.862.912-.263-.315-.752-.514-.862-.912zm1.683 5.12c0 .256-.216.125-.479-.131a2.624 2.624 0 01-.683-.917c.136-.074.452.183.641.419-.184.115.237.466.521.629zM132.35 23.853c-.131.162.4.414.747.487.29.252.379.377.332.482a6.4 6.4 0 011.246.922c.38.347.788.66 1.221.939.273.377-.311.21.452.566.279.414.037.644-.479 0 .163.068.311.125.132-.105-.221.115-.621-.126-1.052-.472a13.7 13.7 0 00-1.394-.99l-.458-.577c-.473-.346-1.083-.555-1.43-1.011.42-.053 1.483.77 2.009 1.263-.074-.131.105 0 .284.126-.363-.315-.61-.74-1.005-1.049a4.207 4.207 0 01-1.893-1.168c.983.718.847.403 1.288.587zm10.216 16.816c-.221-.152.068.367-.221.126 0-.31-.416-.383-.421-.692.373.257.421.094.862.44.048.131.095.262.137.388l-.357-.262zM115.939 6.35c-.158-.204.936.058 1.11.315-.379-.09-.858-.016-1.11-.315zm5.402 5.35c.526-.104 1.757 1.002 1.22.66a7.602 7.602 0 01-1.22-.66zm20.746 30.918c.158.11.321.226.473.34.037.137.148.373 0 .294-.1-.257-.336-.146-.473-.644v.01zm-2.399-4.438c.226.157.237.063.09-.22l.615.408c.237.33.4.697.61 1.048-.405-.45-.889-.833-1.315-1.247v.01zm2.167 4.265c-.268-.146-.31 0-.415.079-.09-.252-.374-.393-.405-.67.905.696-.458-.84-.079-.719.221.488 1.21 1.331.984 1.572l-.085-.262zm-3.308-6.403c-.095.335.605.665.915 1.163-.552-.052-1.441-1.268-.915-1.174v.01zm-.674-.85c-.31-.387.106-.272-.231-.523-.242-.12-.089.188-.331.068-.079-.163-.169-.32-.253-.482.2.1.463.262.268-.026.314.12.582.336.763.618-.147-.079-.284-.142-.137.094.411.32.248.026.579.262.305.566-.442-.016-.658-.02v.01zm-1.846-3.374c.55.28.997.726 1.278 1.273a4.38 4.38 0 01-1.278-1.284v.011zm4.582 9.055c-.526-.45-.726-1.1-1.257-1.546.482.343.899.769 1.23 1.258-.121-.079-.057.105.027.288zm-11.525-18.828c.2.063.394.147.589.215a1.342 1.342 0 00.942.686l.263.346a10.157 10.157 0 01-1.794-1.247zm9.915 16.407c.184.357.526.613.673.985-.336-.136-.904-.974-.673-.985zM114.35 8.41c.837.194 1.505.68 2.315.927-.4.136-1.631-.571-2.315-.927zm25.528 32.893c-.027.115-.316-.079-.526-.147a5.104 5.104 0 01-.653-.807c0-.178.253-.089.405-.1a4.835 4.835 0 01-1.399-1.273c-.131-.576-.526-.927-1.052-1.66.342.201.639.47.873.79.169.194.337.399.49.598l.41.57c-.095-.22-.037-.256.089-.214.526.603.6.818.253.618.431.435 1.783 1.798 1.73 2.453-.268-.566-.289-.356-.62-.828zm-3.041-6.372c.321 0 .574.13 1.005.765-.616-.666-.405-.063-1.005-.765zm2.283 4.716a5.903 5.903 0 01-.494-.78c.368.188.904.958.494.759v.021zM127.39 20.95a1.744 1.744 0 00-.636-.372l-.469-.524c-.967-.357-1.052-.613-2.104-1.048.3.083-.079-.236.411-.048.436.395.947.699 1.504.891-.11-.22-.063-.372.526-.162.342.268.662.563.957.88-.457-.136-.752-.461-1.236-.566.095.205 1.079.744 1.047.928v.02zm-.221-.399c.466.16.869.463 1.152.865a4.808 4.808 0 01-1.152-.886v.021zm9.937 16.334c-.337-.487.362.147.026-.34.311.186.563.457.726.78-.084.053-.516-.204-.752-.46v.02zM108.48 5.297c.435-.016.866.082 1.252.283a2.965 2.965 0 01-1.252-.283zm28.889 32.343c-.132-.246 0-.183-.095-.409a1.186 1.186 0 01.594.702l-.499-.293zm-6.376-10.182c-.147-.204-.21-.346-.173-.403.534.29 1.003.685 1.378 1.163-.505-.163-.679-.608-1.205-.76zm5.145 8.306c-.374-.592-1.052-.949-1.457-1.54.478.523 1.241.833 1.578 1.44-.153-.089-.006.147-.121.1zm-1.578-2.814a7.198 7.198 0 00-.526-.262c-.048-.173-.216-.45-.074-.456.126.314.521.393.615.718h-.015zm1.646 3.574c-.21-.063.405.765-.095.388-.452-.483.142-.105-.21-.655l.621.361c0 .173.594.718.278.608-.231-.2-.357-.487-.578-.702h-.016zm-13.271-18.556c.484.388.578.141 1.157.634-.416-.047-1.41-.524-1.157-.634zm9.016 12.467c.41.284.794.605 1.146.959a3.106 3.106 0 01-1.146-.96zM101.968 3.489c.376-.034.755.023 1.105.168-.058.157-.758.089-1.116-.168h.011zm27.41 23.812c.404.295.769.638 1.089 1.022a2.478 2.478 0 01-.757-.524c-.221-.252-.4-.456-.332-.498zM120.1 16.475a38.434 38.434 0 01-1.794-.954c.459.1.904.255 1.325.46.421.205.695.441.469.493zm11.598 17.135c.526.246 0-.073-.068-.283.363.09.394.456.72.582-.152-.44-.526-.67-.789-1.048-.026-.12-.184-.634.321-.105-.326-.079.337.372.337.577.578.193.768.712 1.231 1.01.138.415.396.78.741 1.049.206.11-.1-.288.069-.22.652.959.037.597-.6.466-.152-.251.053-.146.074-.225-.205-.105-.237-.362-.432-.482.116.21.158.35.116.403-.442-.246-.578-.581-.631-.325-.21-.22-.473-.387-.568-.697.2.058.431.32.389.179a9.903 9.903 0 01-.91-.88zm-1.946-3.516c-.105.115-.426-.21-.747-.388 0-.157-.179-.33-.41-.524a6.867 6.867 0 01-.737-.576c.668.183-.463-.34-.473-.65.526.278.878.744 1.373 1.048.983.482 1.11-.032 1.893.78-.71-.366-1.762-.586-.899.31zM96.56 2.844c-.105-.115.863-.078.248-.262-.89 0-.526.184-.895.252-.236-.12-.525-.115-.752-.225.563-.241 1.21-.226 1.773-.43.764.346 1.565.604 2.388.77-.922.065-1.848.028-2.761-.11v.006zm20.378 12.132c.46.006.904.165 1.263.45-.43-.127-.851-.28-1.263-.456v.006zm16.585 20.96c.232.116-.11-.34.2-.151.484.403.184.634-.2.157v-.005zm-5.386-7.78c.368.13.747.25 1.105.403.105.151.278.23.363.398-.037.21-1.026-.367-1.468-.802zM115.918 14.43c-.305-.23-.658-.325-.295-.346.226.178.574.168.768.403l-.473-.057zm6.785 7.216c-.526-.524.668 0 .973.335-.378-.042-.573-.293-.973-.335zm8.469 11.046c-.2-.173-.463-.65-.074-.456.185.294.348.571.074.456zM114.971 14.31c.089 0 .168 0 .047-.068a1.784 1.784 0 01-.699-.24c.494.053.97.216 1.394.476a1.993 1.993 0 01-.742-.168zm0 .85c.363.308.973.22 1.325.56-.447-.063-1.535-.404-1.341-.56h.016zm17.337 22.045c.311.052-.305-.414-.3-.236-.163-.299 0-.262.142-.272.374.43.379.272.905.885a1.385 1.385 0 01-.747-.377zM85.883 1.812c.417-.092.85-.092 1.267 0-.41.14-.857.14-1.268 0zm29.177 15.815c.334.04.64.2.863.451a1.327 1.327 0 01-.863-.45zm-10.367-7.367c-.611-.278.284-.3.641 0-.431-.011-.115.115-.641 0zm8.258 6.288a4.47 4.47 0 01-1.183-.383c-.39-.167-.705-.356-.716-.487.237.19.52.317.821.367.304.066.605.15.899.251-.263.01.374.163.195.252h-.016zM77.808 1.917a6.689 6.689 0 012.062-.09c-.668.148-1.925.31-2.062.09zm46.347 27.585c.174.204.894.76.658.791-.295-.11-.905-.776-.658-.791zm-8.011-7.368c-.284-.362-.736-.472-1.052-.77.526.073.836.482 1.446.445.179.21.479.236.621.493a3.167 3.167 0 00-1.015-.168zM99.759 10.647c-.526-.22-.684-.382 0-.382.431.115.526.35 1.209.445-.483.115-.778-.13-1.21-.063zm16.643 13.85c.49.08.959.257 1.378.524a2.555 2.555 0 01-1.378-.524zm-8.553-7.73c.33.006.645.135.883.363a1.307 1.307 0 01-.883-.362zm3.061 2.784c.503.034.985.216 1.384.524a5.267 5.267 0 01-1.384-.503v-.021zm-2.925-1.85c-.599-.404-1.404-.367-2.061-.64.33-.061.672-.034.988.079.384.094.816.257 1.294.42.163 0 .132-.11.405.099-.084.078-.236.11-.626.063V17.7zm-10.351-5.65a7.449 7.449 0 012.104.278 7.218 7.218 0 01-2.104-.277zm15.896 11.477c.339.085.667.208.978.367-.3 0-.095.267-.463.246-.41-.325-.152-.32-.515-.613zm1.951.734c.079.256.405.32.773.675-.794-.398-1.678-.256-1.93-.76.7.258.742.085 1.157.085zm-1.846-1.106c.152.262 1.11.456.841.582a3.478 3.478 0 01-1.209-.713c.257.047.226-.042 0-.23.429.088.84.25 1.215.476-.247-.005-.989-.351-.847-.115zm-7.448-5.387c.305.178.715.141.988.382-.326.042-1.194-.335-.988-.382zm1.535.477c-.41-.042.3.314-.257.22-.521-.257-.2-.45.257-.22zm-2.63-1.63a5.725 5.725 0 01-1.104-.147 2.708 2.708 0 00-.989-.414c.296.036.597.024.889-.036.173.204.326.304.905.293.215.131.326.241.31.304h-.011zM84.446 7.781c.437-.189 1.053-.12 1.079-.304l.284.079a.438.438 0 01.294 0 2.702 2.702 0 01-1.657.225zm-19.53-3.47c-.405.048-.758.252-.779.08.395-.284 1.194-.32.779-.08zm47.53 18.546c.364.128.7.326.989.582a1.09 1.09 0 01-.689-.273c-.216-.146-.368-.298-.3-.309zM87.429 9.232a4.932 4.932 0 011.736.069 4.926 4.926 0 01-1.736-.084v.015zm20.472 11.55c.232.142.163 0 .426 0 .526.215.416.445 1.184.524.121-.11-.679-.346-.232-.388.49.163.747.336.853.582-.758-.052-2.104-.388-2.231-.718zm-16.49-9.847c-.6-.11-1.268.058-1.83-.178a10.413 10.413 0 011.609-.094c.352.115.458.21.22.272zm9.689 5.21a2.954 2.954 0 01-.726-.336c.431-.126 1.163.314.726.335zm4.981 3.982a.497.497 0 00.321-.079c.251.077.48.212.668.393a2.11 2.11 0 01-.989-.314zm-7.59-4.596c.4.063.889-.115 1.236.11-.415.05-.836.012-1.236-.11zm-3.682-1.305c.584-.12.694.137 1.01-.068.226.105.347.189.347.262a2.027 2.027 0 01-1.347-.194h-.01zm2.94.524c-.478-.283-1.125 0-1.578-.33a2.195 2.195 0 011.01 0c.347.095.605.252.579.33h-.01zm6.791 4.392c.421-.095.679.178.963.377-.379.032-.632-.246-.952-.377h-.011zm-7.864-4.109c.367-.045.738-.01 1.09.105-.048.184-.732.084-1.08-.105h-.01zm-1.704.1c.742-.073 1.052-.042 1.189-.252.489.063.294.179.463.315-.37.044-.745.044-1.115 0 .162.068.525.094.362.178a3.772 3.772 0 01-1.677-.445c.157-.048.105-.126.457-.147.526.183.163.225.332.351h-.011zm-1.852-.702a9.352 9.352 0 012.715.272c-.258.378-1.847-.068-2.715-.272zm11.273 6.005c.619.156 1.227.354 1.82.592a4.492 4.492 0 01-1.82-.592zm-3.267-2.148c.084-.095.205-.283.71-.042a.732.732 0 01-.71.047v-.005zm.526 1.116c-.657-.262.574-.063.237-.247-.337-.183-.731 0-1.005-.246a6.89 6.89 0 012.041.414c-.231.136-.862-.105-1.273.063v.016zm-9.52-5.57c-.942.178-1.815-.289-1.416-.525.418.296.906.478 1.416.53v-.006zm-.264.523l.726-.141c.127.068.384.147.232.189-.284-.152-.7.21-.957-.048zm4.771 2.62c-.357-.146 0-.199.216-.262.17.042.336.1.495.174-.237.01-.474.03-.71.073v.015zm1.878 1.326c-.231-.199-.173-.34.28-.408.557.24.204.445-.28.393v.015zm-6.086-3.416c-.436.152-1.052-.137-1.052-.262.72-.147.495.047 1.052.246v.016zm3.909 3.055a2.11 2.11 0 00-.605-.21c.652 0 .736.163 1.215-.031.126.293.62.173 1.089.424-.605.037-1.09-.309-1.7-.199v.016zm-3.498-.891c.482.163.985.26 1.493.288.527.053 1.016.1 1.163.278-.747-.147-2.856-.178-2.656-.582v.016zm.778.084c.274-.042-.147-.189.321-.205.214.043.421.115.615.215-.584-.037-.384.147-.91-.026l-.026.016zm-4.587-.262c-.273-.173-.615 0-.894-.163.345-.079.702-.093 1.052-.042-.153.047-.016.126-.158.189v.016zM77.34 14.436c.468-.073 1.862-.425 1.478-.042-.379-.13-1.478.225-1.478.042zm-14.202-1.52c-.658.095.068-.419.526-.424-.4.194-.048.178-.526.424zm14.633 1.682c.3-.111.625-.133.937-.062-.358.115-.326.393-.684.372.11-.126-.226-.2-.263-.31h.01zm-.42.425c-.684-.042-.074-.409.415-.34-.026.099.1.183-.426.34h.01zm5.312 1.572c-.373-.215-.794.12-1.173-.052a7.163 7.163 0 011.983-.21 8.672 8.672 0 00-.82.241l.01.021zm-5.323-1.237l.526-.225.4.079c-.287.14-.61.192-.926.146zm-2.404-.524c-.689.325-.6-.047-1.346.047.447-.162 1.299-.21 1.34-.068l.006.021zm-1.752.074l-.525-.084c.273-.194 1.236-.409 1.078-.173a.527.527 0 00-.558.236l.005.02zm-14.423-.41c.314-.116.64-.195.973-.235a85.32 85.32 0 01-2.824 1.116c-.947.351-1.868.76-2.825 1.048.452-.524 1.1-.314 1.578-.77-.373.052-.684.241-.452-.031.589-.257.389.026 1.004-.116.526-.46 1.19-.346 1.72-.807-.355.15-.735.233-1.12.247.247-.215.526-.22.779-.472.526-.126-.037.361.6.042.373-.246-.464-.032.073-.34.261-.124.543-.2.83-.226-.015.13-.54.466-.341.524l.005.02zm16.175.923c-.626-.13-1.247.168-1.867.136.342-.225-.132-.288.663-.487.636 0 .152.2.268.293.41-.07.814-.178 1.204-.324.474.015.132.183-.273.361l.005.021zm4.734 1.232a2.259 2.259 0 011.326-.247c-.474.074-.92.33-1.352.226l.026.02zm-9.994-1.913l.526-.283.41.037c-.281.2-.631.28-.973.225l.037.02zm-3.908 1.97a1.425 1.425 0 01-.668.131c.92-.466 1.499-.078 2.02-.152l.63-.382c.516-.019 1.03-.076 1.537-.173.526-.095 1.015-.236 1.52-.383.18-.271.442-.48.747-.597.09.304.494-.204 1.052-.1-.7.248-1.361.59-1.967 1.017-.884-.178-2.373.524-3.409.88.11-.115.81-.387.495-.393-.463.247-.953.33-1.415.593.178 0 .526-.121.41 0-.526 0-1.626.57-1.715.324.658-.057 1.578-.634.994-.691 0 .162-.457.314-.904.408-.448.095-.89.184-.926.116.51-.147 1.951-.388 1.599-.598zm-.484.582c0 .079-.526.361-.879.482.216-.21-.584.152-.8.079.524-.28 1.092-.47 1.679-.561zm14.365-.718c-.65.095-1.305.145-1.962.152.616-.178 1.757-.424 1.962-.178v.026zm-5.38-.854c.262 0 .525-.184.793-.047-.189.251-1.03.194-.794.047zm-2.526.293c.31-.188 1.31-.398 1.194-.162-.4 0-.8.147-1.194.162zm4.766.86c0-.126.668-.294 1.052-.2a2.11 2.11 0 01-1.052.2zm-23.892.089c.043-.236.774-.409.574-.598.678-.172-.169.509-.574.598zm-1.414.744c-.058-.178.62-.45.941-.838l.426-.069a3.625 3.625 0 01-1.389.907h.022zm16.98-.938c.31-.131 1.288-.472 1.188-.225-.392.097-.789.173-1.189.225zm2.592.75c.26-.19.58-.275.9-.236a1.24 1.24 0 01-.9.214v.021zm-7.99.298c-.347.09-.683.236-1.052.33.395-.278.369-.44.994-.582-.2.173.41.074.058.252zm-2.766.571a2.038 2.038 0 00-.669.12l.237-.178c-.079 0-.147 0 0-.083.752-.079.137-.241.458-.44.315-.053.594-.268.925-.215-.34.242-.659.514-.951.812v-.016zm1.677.168c-.178 0-.526.058-.42-.063.6-.152 1.173-.56 1.814-.524-.636.372-1.041.304-1.394.603v-.016zm-41.07 13.86c-.437.362-.253-.036 0-.524.168-.128.326-.27.473-.424.052.094-.21.618-.474.948zm24.9-11.455c-.362.325-.796.56-1.267.687.321-.372.216-.682.994-.96-.294.388-.494.677.274.273zm11.536-1.525c.479-.21.626-.12.563 0a5.83 5.83 0 011.578-.728 3.226 3.226 0 011.373-.2 8.723 8.723 0 00-3.02 1.269c.132-.178-.057-.215-.336-.22 0 .199-.037.23-.573.477-.3.052-.116-.1-.18-.147-.194.325-.252.189-.73.403.41 0-.353.383-.726.404-.053-.131.526-.325.794-.66.91-.3 1.02-.21 1.257-.593v-.005zm10.273.247c-.683 0-1.1.524-1.467.65-.563-.048.21-.263.442-.55.273.099.526-.153.741-.284.337.005.463.052.295.189l-.01-.006zm-9.83.377c-.559.162-1.1.393-1.653.581a5.461 5.461 0 011.09-.607c-.211.167 1.02-.41.562.031v-.005zm5.222.314c-.031-.105.474-.487.842-.482-.284.147-.531.482-.842.488v-.006zm.937.587c.258-.246.563-.23.826-.482-.342 0-.637.147-.41-.089.389-.068 1.393-.482 1.398-.23a4.576 4.576 0 01-1.814.801zm-9.227 0c-.284-.084-1.01.624-.899.304.305-.189 1.184-.702.873-.278l.026-.026zm3.02.335c.473-.272.968-.46 1.452-.712-.042.147-1.384.927-1.478.739l.026-.026zm4.902-.277c.163-.12.19-.189.21-.257.316 0 1.242-.356 1.158-.147-.5.058-.91.435-1.394.43l.026-.026zm-12.998 2.704a29.474 29.474 0 012.815-1.714c-.216 0-.526.053-.221-.22.273.262.552-.173 1.31-.361-.395.377-.758.555-.463.738-.984-.083-2.23 1.1-3.44 1.557zM14.508 40.8c.337-.398.447-1.048.878-1.331-.194.409-.783 1.546-.878 1.33zm22.618-13.887a.995.995 0 00-.668.56c-.568.158.41-1.094 1.137-1.466-.574.67-.51.675-.447.906h-.022zm22.724-5.03c.728-.32 1.475-.596 2.236-.828l-.342.262c-.647.12-1.236.44-1.873.565h-.02zm-13.019 1.76c.484-.278 1.547-1.048 1.73-.849-.551.168-1.535 1.075-1.73.85zm1.505.053c-.695.214-1.252.749-1.941 1a6.671 6.671 0 012.246-1.33.39.39 0 00-.321.33h.016zm10.594-1.342c.178-.152-.3 0-.174-.152.342-.058.62-.351.989-.314a1.874 1.874 0 01-.815.466zm-2.315.86c.335-.296.741-.502 1.178-.598-.359.262-.759.464-1.183.598h.005zm-8.206 1.058c-.578.587-.794.477-1.362.597.19-.194.284-.335.268-.408l.269-.069c-.132.32.226.184.825-.12zm9.558-1.011c-.612.316-1.253.572-1.915.765.595-.34.31-.524.842-.755.678-.194.1.377.573.115.153-.167-.178-.13.28-.434.383-.027.246.167.225.309h-.005zm-3.009.749c0-.1.105-.241.39-.472.378.037.63-.298.994-.298-.074.057-.142.125-.21.188-.4.021-.569.33-1.168.582h-.006zm-10.483 2.714c.268-.178.72-.607 1.11-.932.389-.325.726-.524.71-.283-.71.167-1.126.974-1.82 1.215zm-3.65 1.83c.229-.31.514-.576.84-.781.064.125-.451.634-.84.76v.02zm.12.481c.716-.424 2.22-1.975 2.404-1.535-.82.273-1.946 1.494-2.404 1.515v.02zm-4.287 2.175c.193-.337.47-.618.805-.817.074.12-.452.602-.805.796v.021zm1.084-.1c-.805.195-1.21.991-1.873 1.395a3.21 3.21 0 01.879-.975c.426-.357.936-.692 1.283-.985-.258.304.053.152-.29.545v.02zm-.121.32c-.758.33-.484.86-1.263 1.305.469-.623.221-.346.342-.713.28-.32 1.105-1.074.92-.613v.021zm-3.488 3.144a2.15 2.15 0 01.816-1.037c.042.068-.058.278-.227.482a1.37 1.37 0 01-.589.514v.041zm8.532-3.322c.242-.461.658-.613 1.01-.87-.288.33-.63.61-1.01.828v.042zm.295 0c.158-.278.92-.812.878-.566-.326.068-.489.493-.878.514v.052zm-1.794.823c.132-.215-.368.094-.336-.042.14-.294.388-.52.694-.634-.29.283.215.23-.358.623v.053zm.563.67c0-.094.326-.523.105-.576-.198.242-.469.413-.773.488.226-.262.426-.525.652-.813.212-.258.48-.466.784-.608-.69.729.284.828-.768 1.457v.053zM30.162 37.73c.047-.33.72-.98.679-.697-.258.173-.348.556-.679.697zm9.72-4.276c.139-.29.384-.515.684-.629a1.23 1.23 0 01-.683.603v.026zm-8.016 3.72c-.405.525-1.173 1.463-1.462 1.447-.247.461-1.005 1.048-.842 1.305l-.457.304c.116-.393.394-.566.289-.692.563-.524.857-.828.794-1.174.447-.377.184.037.348 0l.326-.676c.615-.34.242.262 1.004-.513zm-3.403 3.58c-.658.419.284-1.048.705-1.263-.058.178.09.11.053.267-.548.718-.61.273-.758.996zm-.747 1.394c-.526.445-.22-.236-.068-.66.189-.132.242-.41.468-.525-.116.608-.426.697-.4 1.185zm-2.746 2.096c.145-.405.391-.766.716-1.048-.12.422-.37.796-.716 1.069v-.021zM2.084 79.73c.052.403.031 1.609-.164 1.42.137-.398 0-.98-.084-.996.095-.272.18-.424.247-.424zm19.425-28.664c-.29.283-.247-.09-.1-.525.148-.434.437-.843.558-.707-.384.472-.142.571-.458 1.232zM2 82.272c.048.87.137 2.578-.189 2.84.163-1.122-.195-.524-.3-1.022.174-.571.321-.315.474-.383-.18-.518-.221-1.435.015-1.435zm-.058 4.93c-.023-.424-.023-.849 0-1.273.242-.037.21 1.897 0 1.29v-.016zm22.493-34.454c.11-.435.338-.831.657-1.148a2.429 2.429 0 01-.657 1.163v-.015zm-.91 2.274c.105.482-.274.566-.463.943.326-.188.184.482.195.755-.427.482 0-.901-.4-.42 0 .163.09.132 0 .472-.08.178-.558.85-.526.577a9.78 9.78 0 00.684-1.882c.231-.697.473-1.184.583-.728.253-.466.674-1.656.937-1.572-.032.346-.69 1.687-1.01 1.855zm0 .938a7.14 7.14 0 01.804-1.813 6.035 6.035 0 01-.81 1.797l.006.016zM3.335 97.715c-.042.686.616 2.18.321 2.342-.094-.728-.636-2.112-.32-2.342zm19.3-39.549c-.132.12-.347.404-.347.247.389-.525.473-.797.4-1.138.4-.24.105.425-.053.891zm-1.373 2.054c-.253.2-.153.614-.463.792.084-.388.49-1.242.484-.792h-.021zm1.2-.524c-.195.262-.316.336-.316.11.125-.12.22-.27.273-.435a.836.836 0 01.11-.387c0 .267-.02.497-.047.754l-.02-.042zM4.85 105.491c-.105-.157-.157-.068-.31-.456a3.849 3.849 0 00-.11-1.09c.262.475.406 1.005.42 1.546zm14.85-40.8c-.058-.116-.258.523-.31.57 0 .184.125.069.152.22-.163.677-.442.808-.458.22.121-.33.216-.67.326-1.005.115-.33.252-.653.41-.965-.089.524-.041.723-.12.96zM5.219 108.278v-.624c.326.451.32 1.342 0 .624zm13.334-40.382c-.013.401-.127.792-.332 1.137-.027-.405.06-.81.253-1.168.005.079.01.152.079.031zM7.975 114.84a8.2 8.2 0 01.268 1.048c-.131-.21-.231.209-.373-.404.22.278.189-.094-.048-.471-.031.146-.115.162-.247.047-.031-.309-.295-.582-.252-.907.4.729.252-.026.652.687zm10.03-42.97c-.188.523-.273 1.823-.494 1.891.092-.386.153-.778.184-1.174-.126.184-.126.414-.247.608 0-.387.058-.964-.1-1.006a.985.985 0 01.658-.304v-.016zm-8.904 45.925c-.18-.199-.21 0-.458-.387-.016-.373.315-.357.457.387zm8.174-43.269c-.3.582-.442.477-.595.226.082-.156.143-.322.184-.493.09.33.395-.424.41.267zm-7.79 44.621A1.75 1.75 0 019 118.136c.266.277.435.631.483 1.011zm7.68-42.891c.005-.712.119-1.419.336-2.097-.11.75-.047.923-.121 1.468-.032-.084-.074-.068-.142.094a.7.7 0 01-.1.535h.026zm-.316 1c-.048-.172-.153.1-.221.074a6.112 6.112 0 01.279-2.243c.047.45.2.178.247.624-.163.503-.169 1.042-.305 1.546zm-5.466 45.413c-.378-.477-.689-.823-.72-.608-.11-.451-.41-.859-.526-1.31.626.749-.027-.456.331-.084.084.36.224.705.416 1.022.195.311.362.639.5.98zm5.787-44.385c-.106.256-.153.104-.248.34.032.142.08.068.11.163-.146.524-.21.199-.273-.205.084-.163.132-.341.142-.524-.068.116-.094-.089-.12-.304l.178-.356c.053.765.016.634.184.886h.026zm-.747 1.697c.007.442-.033.883-.121 1.316-.19-.482-.153-1.337.094-1.316h.027zm.115 2.966c.06.396.06.8 0 1.195-.184-.388 0-.712-.042-1.048-.042.068-.09.241-.126.11.031-.204.084-.23.142-.257h.026zm-.389 2.987c-.013-.439.024-.879.11-1.31.054.276.068.559.043.839-.032.293-.08.524-.18.477l.027-.006zm-.09-.277a.72.72 0 00.048.403c-.079.33-.163.446-.247.23.047-.214 0-.44.037-.654.026.178.079-.095.136.02h.027zm0 3.05a5.185 5.185 0 01-.105-2.138c.158.733-.02 1.414.069 2.138h.037zm.469.445c-.3-.283-.263-1.116-.226-1.745.204.558.268 1.157.189 1.745h.037zm-.342 3.26c-.063.136-.142.057-.179.387a2.836 2.836 0 01-.153-1.734c.022.691.18 1.33.295 1.346h.037zm1.72 7.729c-.184-.294.074.403-.053.524-.184-.22-.236-1.1-.073-.912-.042.283.09.141.09.388h.036zm30.056 43.929c.287.207.548.446.779.713a6.106 6.106 0 01-1.547-.676l-.247-.315c.694.315.568.315.978.278h.037zm3.582 2.5c-.373-.461-1.257-.571-.9-.776.18.241 1.105.66.864.776h.036zm51.728 20.128c-.71.283-.326.241.043.199.368-.042.725-.068-.032.309a2.114 2.114 0 00-1.094 0 1.246 1.246 0 011.047-.508h.036zm-1.551.775a1.5 1.5 0 00-.626 0c-.221.126.11.372-.631.44-.121-.073.268-.235-.148-.267.837-.178.726-.524 1.578-.681.127.141.458.241-.21.508h.037zm-38.152-15.721c.4.056.787.178 1.147.362-.053.136-.579-.094-1.01-.047-.437-.257.037-.178-.174-.341l.037.026zm42.013 14.432c.447.047.189.241.331.356-.416 0-.815.352-1.241.268.384-.336.484-.33.873-.65l.037.026zm-39.425-13.426c-.59-.262-.526.058-1.052-.241-.121-.131 1.294.011 1.015.215l.037.026zm39.856 13.358c.279-.16.6-.231.92-.204-.163.163-.375.27-.604.304.147-.1-.058-.1-.316-.1zm-1.32-13.625c-.479 0-.916.404-1.4.393.384-.267 1.4-.608 1.4-.393zm2.03-.623c-.624.208-1.264.364-1.915.466a3.36 3.36 0 011.92-.451l-.005-.015zm.852-.477l-.478.33h-.4c.26-.184.565-.293.883-.315l-.005-.015zm39.199-19.112c.389-.262.278.095.1.524-.363.608-.984 1.421-1.578 2.338-.137.073-.363.241-.306.089.163-.346.484-.823.8-1.363a27.65 27.65 0 01.984-1.588zm2.335-3.144c.211-.136.353-.194.353-.052-.526.807-1 1.703-1.61 2.452.389-.801.836-1.577 1.231-2.389l.026-.011zm-20.656 10.701a2.63 2.63 0 01-1.142 1.153 6.451 6.451 0 011.115-1.143l.027-.01zm22.786-14.558c-.526 1.174-1.052 2.133-1.094 2.862-.147.125-.305.241-.457.356.41-.755.505-1.955 1.525-3.207l.026-.011zm-16.648 7.557c.096-.203.222-.39.374-.556.584-.314-.053.608.72.1-.31.367-.526.859-.968 1.048.569-.592.547-.975-.152-.582l.026-.01zm21.803-16.863c.274-.33.169.162.279.178-.194.272-.247.639-.526.849.101-.333.175-.673.221-1.017l.026-.01zm-5.412 3.222c.226-.314.1-.712.115-.927.348-.472.195 0 .332-.094a.756.756 0 01.231-.341c-.284.634-.594 1.137-.215 1.048-.158.278-.384.409-.463.314zm-5.918 2.249c-.263.173-.237.586-.526.728-.021-.314.51-.996.526-.728zm1.888-3.118a5.034 5.034 0 01-.904 1.75c.321-.566.457-1.279.904-1.75zm1.3-2.248a1.47 1.47 0 01-.495.917c.071-.348.243-.667.495-.917zm-.81-.257c.268-.22.331-.341.242-.451.389-.44 0 .666-.227.776a.486.486 0 00-.015-.336v.011zm8.416-21.485c.147.041.152.739.095 1.121a1.363 1.363 0 01-.106-1.132l.011.01z" fill="#E7288F"/><path fill-rule="evenodd" clip-rule="evenodd" d="M77.14 17.931c.158-.094-.336 0-.126-.11-.34.134-.692.236-1.052.304a14.9 14.9 0 01-1.052.205c-.71.088-1.413.224-2.104.408a27.869 27.869 0 003.577-.471c.126-.068-.126-.095-.258-.136a7.945 7.945 0 011.015-.2zM162.07 53.743c-.084-.524-.494-.932-.694-1.41.147.507.382.984.694 1.41zM146.469 30.655c.326.24.32.146.484.23-.121-.225-.4-.346-.621-.524 0-.057.031-.126-.069-.314-.394-.178-.015.262.206.608zM153.312 51.684c.31.524-.368-.807-.131-.838-.206-.19-.232 0-.348-.032.158.597.327.273.479.87zM150.982 42.519c.258.257.336.225.231-.105-.11.047-.315-.241-.526-.566-.231-.204.295.492.295.67zM150.982 44.405c-.032.073-.226-.105-.116.204.279.289.437.383.526.393-.084-.277-.41-.45-.463-.738-.1-.095-.005.078.053.141zM142.303 24.628c-.253-.524-.363-.204-.59-.325-.41-.235.064-.12-.331-.524a6.304 6.304 0 01-1.946-1.608c-.174-.047-.247 0-.426-.047.915.611 1.75 1.333 2.488 2.148.415.09.689.42.805.356zM150.813 46.009c-.994-1.441-1.493-2.49-2.703-3.731.047.21.315.524.126.403.289.524.274.273.684.765-.253 0 1.099 1.84.636 1.415.042.372.9.996 1.257 1.148zM137.006 18.293c-.258-.42-1.784-1.483-2.672-2.012.899.665 1.783 1.33 2.672 2.012zM151.508 64.627c.147-.036.221.393.478.703a2.191 2.191 0 00-.473-1.096c-.126-.115.026.22-.005.393zM148.825 42.87a6.382 6.382 0 00-.999-1.237c.115.514.663.812.999 1.237zM136.932 21.065c.389.225.047-.136.284-.042a4.795 4.795 0 00-.884-.655c-.31-.089.595.404.6.697zM148.499 51.58c-.1-.095-.047.083-.053.162-.242-.194-.273-.461-.526-.64.169.517.453.988.832 1.379-.164-.493-.348-.603-.253-.902zM142.182 37.892c-.558-.483-.321-.525-.826-1.106a4.198 4.198 0 01-.642-.246c.495.408 1.22 1.3 1.468 1.352zM122.577 11.087c.079.126-.116.047-.321-.036-.205-.084-.431-.152-.394-.037.263.246.731.22.952.524-.026-.21.778.12.305-.404a4.989 4.989 0 01-1.173-.497c-.389-.048.479.298.631.45zM120.089 9.736c-.594-.414-1.425-.483-1.962-.97-.526-.058.342.257.026.236.663.204 1.268.54 1.936.734zM116.944 8.598c.242.173.052.173.326.357.433.12.856.27 1.267.45.395.195.777.412 1.147.65.053-.361-1.467-.765-1.946-1.268a2.17 2.17 0 01-1.41-.666 11.213 11.213 0 00-1.762-.387c.279.136.563.267.836.414.437.104 0-.147.253-.12.149.056.302.104.457.14.127.142-.42 0 .164.336.389.147.562.173.668.094zM137.306 42.875c.126.063 0-.073-.043-.115-.073-.173-.147-.351 0-.283-.094-.184-.331-.283-.526-.414.176.28.366.55.569.812zM129.584 33.4c.263.048-1.052-1.278-1.731-1.52.121.148.868.525.526.525.337.414.984.513 1.205.995zM124.834 28.93c-.384-.372-.4-.728-1.178-.99-.095.336 1.162.828.794 1.048.531.252-.142-.34.384-.057zM103.993 12.654c.353-.084-.526-.188-.647-.283-.289 0-.189.137-.463 0-.152 0-.094.032-.031.074l.247.146c-.132-.094.784-.12.458 0 .252.116.168-.073.436.063zM112.194 21.537c.073-.137-.989-.524-1.368-.74.258-.162-.652-.738-.984-.916-.078.22.158.55.274.849.289-.336.742.372 1.552.68.094-.073.242-.057.526.127zM108.527 19.283c-.094-.204-1.362-.613-1.935-.828-.447 0 .857.33.399.378a3.956 3.956 0 011.536.45zM109.458 20.32c.526.08 0-.151-.21-.162-.184-.141-.163-.21 0-.23-.184-.11-.416-.142-.6-.257.2.142.242.45-.431 0-.163 0 .142.2.279.32.345.018.679.132.962.33zM103.157 18.104c.2.095.431.095.626.2.526.057-.027-.21.494-.153a4.137 4.137 0 00-1.12-.047zM96.929 18.613c.09-.137.19 0 .557-.058-.457-.189.342-.131-.289-.357l-.42.048c.21.157.394.298-.306.12-.331.068.39.068.458.247zM87.955 14.771c.342.068.084-.105-.126-.047-.074-.084.068-.162.315-.236-.43-.068-1.052.205-.594.31a.77.77 0 01.405-.027zM72.259 10.653c-.19 0-.221.057-.142.068-.421.21-.863-.079-1.284.251.483.036.967-.016 1.431-.152.116-.073-.184-.078-.005-.167zM83.158 17.936c.498.15 1.026.176 1.536.074-.574-.23-1.184-.152-1.768-.32-.3.299-1.173.205-1.825.357.132-.016 1.894.1 2.057-.11zM81.511 17.727c-.683 0-1.383.262-2.062.12-.142.472-2.02.12-2.956.451 0 .068.274.11.127.194.552-.1 1.115-.372 1.662-.142a4.691 4.691 0 011.215-.21c.405 0 .81 0 1.22-.03.137-.08-.21-.126-.379-.184.4-.11.768.026 1.173-.2zM82.837 18.607c-.142-.424-3.072-.23-3.682 0 1.189-.042 2.92-.325 3.682 0zM73.321 19.157c-.252 0-.526.037-.762.069l-.752.136c.015.162 1.088-.11 1.514-.204zM66.546 20.541a8.387 8.387 0 00-1.778.393c-.71.21-1.467.456-2.056.676.563.058 1.052-.361 1.278-.147.032-.325 1.005-.272 1.441-.634.479-.037-.3.404.41.173-.257-.141.074-.325.705-.461zM66.857 20.892c0-.115-.29-.052-.605.042-.316.094-.673.267-.884.304-.226.241.474-.094.642 0 .394-.278.284-.278.847-.346zM62.475 21.704c-.881.197-1.742.474-2.572.828.526.357 1.794-.445 2.572-.828zM49.74 27.369c-.414.24-.815.502-1.199.786l.384-.09c.216-.366.584-.376.815-.696zM43.923 32.09l.494-.686c-.563.346-.39.634-1.052.97-.184.256.405-.247.558-.284zM38.115 36.812c-.2-.079-.315.089-.462.304a1.048 1.048 0 01-.684.524.444.444 0 01-.08.32c.516-.231.785-.797 1.226-1.148zM30.088 46.166c.242-.236-.042-.126-.105.073-.21.12-.09-.204-.137-.304-.268.336-.384.823-.773 1.048 0 .713-.568 1.127-.925 1.766-.258.524.305-.157.047.378.32-.682.857-1.18 1.125-1.918.2-.152.169 0 .384-.173-.105-.079.169-.582.384-.87zM20.31 64.847c-.39.577-.195 1.426-.61 1.992 0 .157.194-.152.305-.283-.069-.655.363-1.054.305-1.709zM17.606 78.273c-.173-.037-.32 1.62-.2 1.677a9.81 9.81 0 01.2-1.677zM16.454 91.248c.121.204.232.162.353.283a2.867 2.867 0 00-.148-1.048c-.126.251.037.524.048.791-.074.225-.142-.86-.253-.026zM38.463 135.911c-.232.089.636.707.81 1.048.12.079.094 0 .063-.052l-.121-.236c-.347-.189-.49-.524-.752-.76zM76.814 169.59c.89.173 1.815.158 2.704.325.436-.215 1.578 0 2.435.084.11-.037 0-.084.19-.12-.158-.032-.08-.058 0-.079-.9.031-1.784-.037-2.667-.084-.884-.047-1.741-.084-2.662-.126zM109.716 149.457c.616-.34-.194-.162.416-.524a3.15 3.15 0 01-.368.094l-.227.168c.668-.099-.484.372.179.262zM115.181 147.508c.742-.063-.173-.273.526-.456.169-.236-.583.089-.715.304.31-.053.4-.011.189.152z" fill="#E7288F"/></svg><svg fill="none" viewBox="0 0 26 31" id="call" xmlns="http://www.w3.org/2000/svg"><path d="M7.812 0a.606.606 0 000 1.212c3.42 0 6.203 2.854 6.203 6.364a.606.606 0 001.21 0C15.226 3.399 11.9 0 7.813 0z" fill="#000"/><path d="M7.81 2.873a.606.606 0 000 1.211c1.874 0 3.397 1.566 3.397 3.492a.606.606 0 001.211 0c0-2.593-2.067-4.703-4.607-4.703zM7.821 5.52a.605.605 0 100 1.211c.438 0 .794.37.794.827a.606.606 0 001.21 0c0-1.124-.898-2.038-2.004-2.038zM11.254 20.371a.609.609 0 00-.856 0 .609.609 0 00.428 1.034.608.608 0 00.605-.606.607.607 0 00-.177-.428z" fill="#000"/><path d="M24.508 25.847l-4.64-4.64a1.818 1.818 0 00-2.31-.215l-2.96 2.025a.606.606 0 01-.77-.072l-.979-.979a.606.606 0 00-.856.857l.979.979a1.817 1.817 0 002.31.215l2.96-2.025a.606.606 0 01.77.072l4.64 4.639a.606.606 0 010 .856c-2.976 2.975-7.816 2.975-10.79 0l-9.42-9.42a7.579 7.579 0 01-2.235-5.394 7.58 7.58 0 012.235-5.396.601.601 0 01.856 0l4.639 4.64c.206.205.236.53.072.77l-2.025 2.96a1.817 1.817 0 00.215 2.31l1.472 1.472a.606.606 0 00.856-.857l-1.471-1.471a.606.606 0 01-.072-.77l2.024-2.961a1.817 1.817 0 00-.215-2.31L5.154 6.493a1.819 1.819 0 00-2.569 0c-3.447 3.447-3.447 9.056 0 12.503l9.42 9.42A8.813 8.813 0 0018.256 31a8.814 8.814 0 006.252-2.585 1.819 1.819 0 000-2.57z" fill="#000"/><path d="M8.157 14.89l-3.67-3.671a.606.606 0 00-.857.856l3.67 3.67a.604.604 0 00.857 0 .606.606 0 000-.856zM22.206 28.94l-3.863-3.863a.606.606 0 00-.856.857l3.862 3.862a.604.604 0 00.857 0 .606.606 0 000-.857z" fill="#000"/></svg><svg fill="none" viewBox="0 0 32 31" id="call-answer" xmlns="http://www.w3.org/2000/svg"><g clip-path="url(#dclip0_5_1470)"><path d="M30.87 24.441l-4.744-4.745c-.945-.941-2.51-.913-3.488.066l-2.39 2.39a71.86 71.86 0 01-.472-.263c-1.51-.836-3.576-1.983-5.75-4.158-2.18-2.18-3.328-4.25-4.167-5.76-.088-.16-.173-.315-.257-.461l1.605-1.602.788-.79c.98-.98 1.007-2.544.064-3.488L7.314.884C6.371-.058 4.806-.03 3.826.95L2.49 2.295l.037.036a7.732 7.732 0 00-1.102 1.944 8.058 8.058 0 00-.49 1.971c-.627 5.194 1.746 9.94 8.188 16.382 8.903 8.903 16.079 8.23 16.388 8.198a8.018 8.018 0 001.977-.497 7.709 7.709 0 001.937-1.097l.029.026 1.355-1.326c.977-.98 1.005-2.545.063-3.49z" fill="#0084FF"/></g><defs><clipPath id="dclip0_5_1470"><path fill="#fff" transform="translate(.836 .161)" d="M0 0h30.723v30.723H0z"/></clipPath></defs></svg><svg fill="none" viewBox="0 0 35 24" id="camera" xmlns="http://www.w3.org/2000/svg"><rect x=".002" y=".001" width="24.322" height="23.042" rx="3.2" fill="#0084FF"/><path d="M26.885 8.536c0-.517.31-.983.788-1.182l5.12-2.134a1.28 1.28 0 011.773 1.182v10.241a1.28 1.28 0 01-1.773 1.182l-5.12-2.134a1.28 1.28 0 01-.788-1.181V8.536z" fill="#0084FF"/></svg><svg fill="none" viewBox="0 0 27 27" id="check" xmlns="http://www.w3.org/2000/svg"><path d="M25.999.31c-.522.203-1.057.387-1.583.574-.078.027-.167.035-.253.05-.009-.02-.021-.038-.03-.054.364-.244.732-.485 1.096-.73-.013-.02-.022-.039-.035-.054-.535.111-1.082.184-1.596.383-.008-.023-.021-.046-.03-.065.141-.111.278-.222.42-.33-.005-.003-.009-.01-.013-.015-.325.153-.65.31-.98.463-.009-.011-.013-.023-.021-.034l.91-.494c-.414-.026-.79.073-1.163.241-1.21.548-2.366 1.175-3.423 1.944-1.087.792-2.05 1.695-2.957 2.648-2.015 2.115-3.847 4.346-5.173 6.879a.227.227 0 01-.145.126c-.36.915-.595 1.886-1.181 2.69-.155.383-.317.765-.471 1.152a61.964 61.964 0 00-1.844 5.448c-.005.011-.013.023-.035.069-.072-.096-.137-.169-.188-.253-.483-.75-.958-1.507-1.442-2.257a932.348 932.348 0 00-2.174-3.336c-.316-.483-.851-.735-1.365-.636a2.557 2.557 0 00-.658.207.732.732 0 00-.321.337c-.073.18-.172.222-.36.195-.09-.015-.184-.004-.316-.004.064.16.124.306.17.451.048.142.078.287.112.429-.026.011-.047.023-.073.034-.26-.248-.526-.493-.787-.742-.03.015-.06.03-.09.042.107.291.18.6.33.873.479.86.98 1.714 1.493 2.56 1.112 1.836 2.37 3.603 3.333 5.513.278.547.47 1.132.676 1.706a.746.746 0 00.458.486c1.262.513 3.008-.03 3.586-1.156.188-.367.248-.78.376-1.17.685-2.078 1.327-4.167 2.071-6.225.411-1.133.925-2.239 1.412-3.352.167-.742.53-1.423.839-2.131.171-.386.44-1.11.933-1.343.445-.754.89-1.508 1.343-2.257.865-1.428 1.84-2.786 3.03-4.018a20.535 20.535 0 013.838-3.141 21.953 21.953 0 012.88-1.5c.128-.053.24-.134.402-.23-.385-.156-.689-.095-1.001.027z" fill="#33E745"/></svg><svg fill="none" viewBox="0 0 16 15" id="checked" xmlns="http://www.w3.org/2000/svg"><g clip-path="url(#gclip0_9_969)"><path d="M8.256.16a7.392 7.392 0 100 14.784 7.392 7.392 0 000-14.784zm0 13.398a6.006 6.006 0 110-12.011 6.006 6.006 0 010 12.011zm2.905-9.15a.644.644 0 00-.896.25L7.786 9.11l-1.38-1.68c-.25-.289-.582-.438-.896-.25-.314.188-.444.64-.24.93l1.92 2.338c.144.187.308.299.48.33v.004h.018c.04.007.62.114.87-.334l2.844-5.11a.696.696 0 00-.24-.93z" fill="#0084FF"/></g><defs><clipPath id="gclip0_9_969"><path fill="#fff" transform="translate(.861 .16)" d="M0 0h14.784v14.784H0z"/></clipPath></defs></svg><svg fill="none" viewBox="0 0 106 95" id="decor-1" xmlns="http://www.w3.org/2000/svg"><path d="M104.192 18.623c-42.07 20.825-72.442 43.774-87.319 74.98M104.19 18.625c-8.85-24.564-83.83 22.892-88.268 74.98" stroke="#fff" stroke-width="2" stroke-dasharray="2 2"/></svg><svg fill="none" viewBox="0 0 49 58" id="decor-2" xmlns="http://www.w3.org/2000/svg"><path d="M1.559 57.722C8.202 15.962 38.574 27.351 47.59.775" stroke="#fff" stroke-width="2" stroke-dasharray="2 2"/></svg><svg fill="none" viewBox="0 0 30 21" id="delivery" xmlns="http://www.w3.org/2000/svg"><path d="M24.527 15.355c-.733 0-1.43.295-1.955.828a2.839 2.839 0 000 3.989 2.744 2.744 0 001.955.828c1.502 0 2.724-1.267 2.724-2.823 0-1.555-1.222-2.822-2.724-2.822zm0 4.39c-.843 0-1.552-.715-1.552-1.568 0-.853.709-1.568 1.552-1.568.83 0 1.502.703 1.502 1.568 0 .866-.672 1.569-1.502 1.569zm.708-13.792a.585.585 0 00-.41-.164h-3.133a.621.621 0 00-.61.628v5.143c0 .345.274.627.61.627h4.973c.336 0 .61-.282.61-.627V8.116a.635.635 0 00-.201-.464l-1.839-1.7zm.819 4.98h-3.751V7.038h2.285l1.466 1.354v2.54zM9.609 15.355c-.733 0-1.43.295-1.955.828a2.84 2.84 0 000 3.989A2.744 2.744 0 009.61 21c1.503 0 2.725-1.267 2.725-2.823 0-1.555-1.222-2.822-2.725-2.822zm0 4.39c-.843 0-1.552-.715-1.552-1.568 0-.853.709-1.568 1.552-1.568.83 0 1.503.703 1.503 1.568 0 .866-.672 1.569-1.503 1.569zm-4.074-3.619H4.307v-1.668a.621.621 0 00-.611-.627.621.621 0 00-.611.627v2.296c0 .345.275.627.61.627h1.84c.335 0 .61-.282.61-.627a.621.621 0 00-.61-.628zm3.097-3.418a.621.621 0 00-.611-.627H.61a.621.621 0 00-.611.627c0 .345.275.627.61.627h7.41c.337 0 .612-.276.612-.627zM1.85 10.444l7.41.043c.336 0 .61-.276.617-.62a.614.614 0 00-.605-.634l-7.41-.044h-.006a.616.616 0 00-.61.621.614.614 0 00.604.633zm1.246-2.848h7.41c.336 0 .61-.282.61-.627a.621.621 0 00-.61-.628h-7.41a.621.621 0 00-.61.628c0 .345.274.627.61.627zm26.677-.847L25.4 3.03a.592.592 0 00-.39-.144h-5.144V.627A.621.621 0 0019.255 0H3.695a.621.621 0 00-.61.627V5.22c0 .345.275.627.61.627.337 0 .612-.282.612-.627V1.254H18.65v14.872h-5.01a.621.621 0 00-.61.628c0 .345.275.627.61.627h7.46a.62.62 0 00.61-.627.621.621 0 00-.61-.628h-1.228V4.14h4.923l3.983 3.387-.043 8.587H28.1a.621.621 0 00-.61.627c0 .345.274.627.61.627h1.24c.336 0 .611-.276.611-.62L30 7.237a.67.67 0 00-.226-.489z" fill="#000"/></svg><svg fill="none" viewBox="0 0 26 26" id="pen" xmlns="http://www.w3.org/2000/svg"><path d="M2.265 16.278c.354 0 .64.292.64.653v5.802c.002 1.082.862 1.96 1.922 1.96h17.97c1.061 0 1.92-.878 1.922-1.96V5.705c-.001-1.082-.86-1.959-1.921-1.96H17.11a.647.647 0 01-.64-.654c0-.36.287-.653.64-.653h5.687c1.768.002 3.2 1.464 3.202 3.267v17.028c-.002 1.804-1.434 3.265-3.202 3.267H4.828c-1.768-.002-3.201-1.463-3.203-3.267v-5.802c0-.36.287-.653.64-.653z" fill="#000"/><path d="M1.586.84a2.867 2.867 0 014.054 0l11.366 11.365a.636.636 0 01.164.28l1.494 5.396a.637.637 0 01-.784.784l-5.396-1.495a.637.637 0 01-.28-.163L.838 5.642a2.87 2.87 0 010-4.054L1.586.84zM15.618 12.62L6.316 3.318l-3 3 9.302 9.3 3-2.999zm.6 1.202l-2.398 2.397 3.316.919-.919-3.316zM1.738 4.741l.676.675 3-3-.676-.675a1.593 1.593 0 00-2.252 0l-.748.747c-.62.623-.62 1.63 0 2.253z" fill="#000"/></svg><svg fill="none" viewBox="0 0 70 69" id="stroke" xmlns="http://www.w3.org/2000/svg"><path d="M66.842 42.58c0 6.76-4.684 12.317-11.494 16.255-6.787 3.925-15.407 6.06-22.605 6.06-7.16 0-12.499-2.109-16.056-5.84-3.566-3.74-5.506-9.283-5.506-16.475 0-7.269 1.475-15.135 4.7-21.134 3.208-5.97 8.051-9.956 14.857-9.956 6.998 0 16.06 4.188 23.433 10.326 7.398 6.16 12.67 13.925 12.67 20.764z" stroke="#E72890" stroke-width="2.507"/><path d="M64.036 31.437c1.767 7.06-1.712 13.936-7.48 19.522-5.763 5.583-13.766 9.83-20.911 11.618-7.139 1.786-13.129 1.046-17.774-1.892-4.647-2.94-7.989-8.106-9.777-15.25-1.791-7.16-2.294-15.324-.57-22.133C9.246 16.5 13.179 11.08 20.248 9.312c7.108-1.779 17.168.18 25.918 4.397 8.756 4.22 16.1 10.652 17.87 17.728z" stroke="#970D50" stroke-width=".501"/></svg><svg fill="none" viewBox="0 0 54 54" id="surprise" xmlns="http://www.w3.org/2000/svg"><circle cx="27" cy="27" r="27" fill="#970D50"/><g clip-path="url(#mclip0_105_4)"><path d="M39.018 19.59H31.88l1.63-.809a.945.945 0 00.26-.185 3.17 3.17 0 00.932-2.254 3.183 3.183 0 00-5.43-2.255.996.996 0 00-.17.23l-2.272 4.227-2.272-4.227a.964.964 0 00-.17-.228 3.177 3.177 0 00-4.498 0 3.195 3.195 0 000 4.507c.075.076.163.14.258.185l1.631.808h-6.797a.983.983 0 00-.982.984v5.838c0 .543.44.983.982.983h1.133v10.468c0 .543.44.983.982.983h19.867c.542 0 .982-.44.982-.983V27.394h1.072c.542 0 .982-.44.982-.983v-5.838a.984.984 0 00-.982-.984zM25.95 36.877v-9.484h2.126v9.485H25.95zm2.144-11.45h-2.125v-3.871h2.125v3.87zm2.657-10.033a1.22 1.22 0 011.724 1.707l-3.6 1.782 1.876-3.49zm-9.473.084a1.247 1.247 0 011.632-.084l1.875 3.49-3.6-1.783c-.38-.479-.349-1.18.093-1.623zm-5.315 6.078h8.043v3.87h-8.043v-3.87zm2.116 5.837h6.89v9.485h-6.89v-9.485zm17.905 9.484h-6.927v-9.484h6.927v9.484zm2.055-11.45h-7.982v-3.871h7.982v3.87z" fill="#fff"/></g><defs><clipPath id="mclip0_105_4"><path fill="#fff" transform="translate(14 13)" d="M0 0h26v26H0z"/></clipPath></defs></svg></svg>