<svg width="98" height="98" viewBox="0 0 98 98" fill="none" xmlns="http://www.w3.org/2000/svg">
<rect y="48.9521" width="69.2284" height="69.2284" rx="34.6142" transform="rotate(-45 0 48.9521)" fill="#60A8FF"/>
<path d="M52.7975 47.4697C53.1613 47.4697 53.4566 47.1809 53.4566 46.8252C53.4566 46.4694 53.1613 46.1807 52.7975 46.1807C52.433 46.1807 52.1384 46.4694 52.1384 46.8252C52.1384 47.1809 52.433 47.4697 52.7975 47.4697Z" fill="white"/>
<path d="M46.2066 47.4697C46.5704 47.4697 46.8657 47.1809 46.8657 46.8252C46.8657 46.4694 46.5704 46.1807 46.2066 46.1807C45.842 46.1807 45.5475 46.4694 45.5475 46.8252C45.5475 47.1809 45.842 47.4697 46.2066 47.4697Z" fill="white"/>
<path d="M35 62.9417V64.3564C35 64.7124 35.295 65.001 35.6591 65.001H63.3409C63.705 65.001 64 64.7124 64 64.3564V62.9405C64 60.3772 62.5276 58.0083 59.8027 57.0357C60.7874 56.1946 61.386 54.9624 61.386 53.63C61.386 53.2743 61.091 52.9855 60.7269 52.9855C59.1415 52.9855 57.8053 51.889 57.4835 50.4346H59.3884C60.4775 50.4346 61.3636 49.5672 61.3636 48.501V45.5361C61.3636 44.6955 60.8124 43.9787 60.0455 43.7131V42.3135C60.0455 36.6273 55.3157 32.001 49.5021 32.001C43.675 32.001 38.9545 36.6126 38.9545 42.3135V43.7141C38.1876 43.9807 37.6364 44.6972 37.6364 45.5361V48.501C37.6364 49.5672 38.5243 50.4346 39.6157 50.4346H41.5165C41.1952 51.889 39.8603 52.9855 38.2764 52.9855C37.9124 52.9855 37.6173 53.2743 37.6173 53.63C37.6173 54.9642 38.2174 56.1976 39.2048 57.0393C36.4904 58.0126 35 60.4054 35 62.9417ZM60.0122 54.2207C59.807 55.3015 59.0465 56.219 57.9837 56.6311L53.9908 56.1241L53.5642 54.4936C54.809 53.7657 55.801 52.7373 56.4658 51.53C57.086 52.9354 58.4181 53.9777 60.0122 54.2207ZM54.7846 43.6025C52.9638 43.6025 51.4824 42.1357 51.4824 40.3328C51.4824 39.9768 51.1874 39.6883 50.8233 39.6883C50.4595 39.6883 50.1642 39.9768 50.1642 40.3328C50.1642 42.1357 48.6828 43.6025 46.8616 43.6025H42.9112C42.9112 40.0486 45.8678 37.1572 49.5021 37.1572C53.1433 37.1572 56.093 40.039 56.093 43.6025H54.7846ZM42.9091 44.8916H46.8616C48.5412 44.8916 50.0144 44.0031 50.8233 42.6773C51.6323 44.0031 53.1052 44.8916 54.7846 44.8916H56.0909V47.8564C56.0909 50.2943 54.7102 52.4966 52.4878 53.6036C51.5579 54.0669 50.5533 54.3018 49.5021 54.3018C48.4537 54.3018 47.4522 54.0686 46.5248 53.6089C45.9025 53.3005 45.3359 52.8986 44.8403 52.4137C43.595 51.1967 42.9091 49.578 42.9091 47.8564V44.8916ZM46.6605 55.0767C47.5629 55.4176 48.5155 55.5908 49.5021 55.5908C50.4925 55.5908 51.4487 55.4161 52.3549 55.0717L52.7733 56.6717C52.5537 58.2674 51.1694 59.458 49.5085 59.458C47.8479 59.458 46.4635 58.2679 46.2434 56.6727L46.6605 55.0767ZM60.0455 48.501C60.0455 48.8565 59.7507 49.1455 59.3884 49.1455H57.4091V44.8916H59.3884C59.7507 44.8916 60.0455 45.1806 60.0455 45.5361V48.501ZM49.5021 33.29C54.5889 33.29 58.7273 37.338 58.7273 42.3135V43.6025H57.4111C57.4111 39.3292 53.8745 35.8682 49.5021 35.8682C45.141 35.8682 41.593 39.3378 41.593 43.6025H40.2727V42.3135C40.2727 37.3279 44.4011 33.29 49.5021 33.29ZM38.9545 48.501V45.5361C38.9545 45.1814 39.2506 44.8924 39.6157 44.8916H41.5909V49.1455H39.6157C39.2511 49.1455 38.9545 48.8565 38.9545 48.501ZM42.5353 51.5283C42.8965 52.1808 43.3563 52.7861 43.9083 53.3254C44.3727 53.7798 44.8905 54.1726 45.4507 54.4996L45.0262 56.1243L41.0222 56.6324C39.9581 56.22 39.1966 55.302 38.9911 54.2207C40.5848 53.9775 41.9161 52.9341 42.5353 51.5283ZM40.9524 57.9408L41.025 57.9318C41.0255 57.9315 41.0266 57.9315 41.0271 57.9315L45.0555 57.4204C45.5892 59.3598 47.3878 60.7471 49.5085 60.7471C51.6292 60.7471 53.4275 59.3598 53.961 57.4202C54.1618 57.4459 52.9028 57.286 58.0638 57.9411C60.9532 58.3082 62.6818 60.4258 62.6818 62.9405V63.7119H36.3182V62.9417C36.3182 60.4741 38.0457 58.3099 40.9524 57.9408Z" fill="white"/>
<path d="M47.74 51.8999C48.2933 52.1549 48.8862 52.2843 49.5018 52.2843C50.1032 52.2843 50.6843 52.1602 51.2296 51.9155C51.5604 51.7672 51.7054 51.3845 51.5535 51.061C51.4018 50.7375 51.0105 50.5955 50.6796 50.744C50.3081 50.9107 49.9119 50.9953 49.502 50.9953C49.0821 50.9953 48.6782 50.9074 48.302 50.7339C47.9727 50.5821 47.5801 50.7201 47.4249 51.0421C47.2696 51.3641 47.4107 51.7483 47.74 51.8999Z" fill="white"/>
<path d="M55.4339 62.0361H58.0702C58.4343 62.0361 58.7293 61.7476 58.7293 61.3916C58.7293 61.0356 58.4343 60.7471 58.0702 60.7471H55.4339C55.0698 60.7471 54.7748 61.0356 54.7748 61.3916C54.7748 61.7476 55.0698 62.0361 55.4339 62.0361Z" fill="white"/>
<path d="M60.7045 60.7471C61.0683 60.7471 61.3636 61.0359 61.3636 61.3916C61.3636 61.7474 61.0683 62.0361 60.7045 62.0361C60.3408 62.0361 60.0455 61.7474 60.0455 61.3916C60.0455 61.0359 60.3408 60.7471 60.7045 60.7471Z" fill="white"/>
</svg>
