<svg width="103" height="103" viewBox="0 0 103 103" fill="none" xmlns="http://www.w3.org/2000/svg">
<rect x="1" y="1" width="101" height="101" rx="19" fill="#60A8FF" stroke="white" stroke-width="2"/>
<g filter="url(#filter0_d_24_38)">
<path d="M81.0267 51.5263L76.4376 67.613C75.761 69.9748 73.5761 71.625 71.1221 71.625H46.2812C45.2617 71.625 44.4375 70.799 44.4375 69.7812V43.9688C44.4375 43.5723 44.5647 43.1852 44.8026 42.868L54.7441 29.5193C55.8466 28.1383 57.4359 27.375 59.1396 27.375C62.2168 27.375 64.7187 29.877 64.7187 32.9542V42.125H73.9412C76.2735 42.125 78.416 43.1925 79.8191 45.0547C81.2277 46.9206 81.6665 49.2788 81.0267 51.5263Z" fill="white"/>
<path d="M38.9062 42.125H31.5312C30.5117 42.125 29.6875 42.951 29.6875 43.9688V69.7812C29.6875 70.799 30.5117 71.625 31.5312 71.625H38.9062C39.9258 71.625 40.75 70.799 40.75 69.7812V43.9688C40.75 42.951 39.9258 42.125 38.9062 42.125ZM35.2188 67.0156C33.6921 67.0156 32.4531 65.7766 32.4531 64.25C32.4531 62.7234 33.6921 61.4844 35.2188 61.4844C36.7454 61.4844 37.9844 62.7234 37.9844 64.25C37.9844 65.7766 36.7454 67.0156 35.2188 67.0156Z" fill="white"/>
</g>
<defs>
<filter id="filter0_d_24_38" x="25.6875" y="27.375" width="59.6267" height="52.25" filterUnits="userSpaceOnUse" color-interpolation-filters="sRGB">
<feFlood flood-opacity="0" result="BackgroundImageFix"/>
<feColorMatrix in="SourceAlpha" type="matrix" values="0 0 0 0 0 0 0 0 0 0 0 0 0 0 0 0 0 0 127 0" result="hardAlpha"/>
<feOffset dy="4"/>
<feGaussianBlur stdDeviation="2"/>
<feComposite in2="hardAlpha" operator="out"/>
<feColorMatrix type="matrix" values="0 0 0 0 0 0 0 0 0 0 0 0 0 0 0 0 0 0 0.25 0"/>
<feBlend mode="normal" in2="BackgroundImageFix" result="effect1_dropShadow_24_38"/>
<feBlend mode="normal" in="SourceGraphic" in2="effect1_dropShadow_24_38" result="shape"/>
</filter>
</defs>
</svg>
