<?xml version="1.0" encoding="utf-8"?>
<!-- Generator: Adobe Illustrator 22.1.0, SVG Export Plug-In . SVG Version: 6.00 Build 0)  -->
<svg version="1.1" id="Layer_1" xmlns="http://www.w3.org/2000/svg" xmlns:xlink="http://www.w3.org/1999/xlink" x="0px" y="0px"
	 viewBox="0 0 484.6 67.5" style="enable-background:new 0 0 484.6 67.5;" xml:space="preserve">
<style type="text/css">
	.st0{fill:#fff;}
	.st1{fill:#fff;}
</style>
<g>
	<g>
		<path class="st0" d="M119,23h4.1l6.9,21.3l4.3-10.3l-3.6-11h4.1l6.9,21.2l8-21.2h2.1l-9.2,24.1l1.1,3.4h-4.1l-4.4-13.6l-4.3,10.3
			l1.1,3.4h-4.1L119,23z"/>
		<path class="st0" d="M159.8,32.7c1.3,0,2.5,0.2,3.6,0.7c1.1,0.5,2.1,1.1,2.9,1.9c0.8,0.8,1.5,1.8,1.9,2.9c0.5,1.1,0.7,2.3,0.7,3.5
			c0,1.3-0.2,2.4-0.7,3.5c-0.5,1.1-1.1,2.1-1.9,2.9c-0.8,0.8-1.8,1.5-2.9,1.9c-1.1,0.5-2.3,0.7-3.6,0.7c-1.2,0-2.4-0.2-3.5-0.7
			c-1.1-0.5-2-1.1-2.9-1.9s-1.5-1.8-1.9-2.9c-0.5-1.1-0.7-2.3-0.7-3.5c0-1.2,0.2-2.4,0.7-3.5c0.5-1.1,1.1-2.1,1.9-2.9
			s1.8-1.5,2.9-1.9C157.4,32.9,158.6,32.7,159.8,32.7z M159.8,34.4c-1,0-1.8,0.2-2.4,0.6c-0.7,0.4-1.2,0.9-1.6,1.6
			c-0.4,0.7-0.7,1.5-0.9,2.4c-0.2,0.9-0.3,1.9-0.3,3c0,1.1,0.1,2,0.3,2.9c0.2,0.9,0.5,1.7,0.9,2.3s0.9,1.2,1.6,1.5
			c0.7,0.4,1.5,0.6,2.4,0.6c1,0,1.8-0.2,2.4-0.6c0.7-0.4,1.2-0.9,1.6-1.5s0.7-1.4,0.9-2.3s0.3-1.9,0.3-2.9c0-1.1-0.1-2.1-0.3-3
			c-0.2-0.9-0.5-1.7-0.9-2.4s-1-1.2-1.6-1.6C161.5,34.6,160.7,34.4,159.8,34.4z"/>
		<path class="st0" d="M176.4,34.5c1.5-0.7,2.8-1.1,3.8-1.4c1-0.3,1.9-0.4,2.6-0.4c0.5,0,1,0.1,1.3,0.2c0.4,0.1,0.7,0.3,1,0.4
			s0.5,0.4,0.6,0.6c0.2,0.2,0.3,0.5,0.4,0.7c1.6-0.7,2.9-1.2,4-1.5c1.1-0.3,2-0.4,2.8-0.4c0.6,0,1.1,0.1,1.6,0.2
			c0.5,0.1,0.8,0.4,1.1,0.7c0.3,0.3,0.5,0.8,0.7,1.3s0.2,1.2,0.2,2v13.5h-3.8V37.1c0-0.3,0-0.7-0.1-0.9s-0.2-0.5-0.3-0.7
			c-0.2-0.2-0.4-0.4-0.6-0.5c-0.3-0.1-0.6-0.2-1-0.2c-0.8,0-1.6,0.1-2.3,0.3c-0.7,0.2-1.3,0.4-1.9,0.7v14.7h-3.8V36.9
			c0-0.3,0-0.5-0.1-0.8s-0.1-0.5-0.3-0.7c-0.1-0.2-0.3-0.4-0.6-0.5c-0.3-0.1-0.6-0.2-1-0.2c-0.4,0-0.7,0-1.1,0.1
			c-0.4,0.1-0.8,0.2-1.2,0.3c-0.4,0.1-0.8,0.3-1.1,0.4s-0.7,0.3-0.9,0.4v14.6h-3.8V33.1h3.8V34.5z"/>
		<path class="st0" d="M208.6,32.7c1.3,0,2.3,0.2,3.2,0.7c0.9,0.5,1.6,1.1,2.1,1.9c0.5,0.8,0.9,1.7,1.2,2.7c0.2,1,0.4,2.1,0.4,3.3
			v0.9h-11.4c0,0.7,0.1,1.4,0.3,2.2s0.6,1.5,1.1,2.2c0.5,0.7,1.1,1.2,1.9,1.7c0.8,0.5,1.8,0.7,2.9,0.7h3.9v1.5h-3.9
			c-1.7,0-3.2-0.2-4.5-0.6c-1.3-0.4-2.3-1-3.1-1.7c-0.8-0.8-1.4-1.7-1.8-2.8c-0.4-1.1-0.6-2.3-0.6-3.7c0-1.2,0.2-2.3,0.5-3.4
			c0.4-1.1,0.9-2,1.6-2.9c0.7-0.8,1.6-1.5,2.6-2C206.1,33,207.3,32.7,208.6,32.7z M208.4,34.4c-0.8,0-1.4,0.2-2,0.5s-1,0.8-1.3,1.4
			c-0.4,0.6-0.6,1.2-0.8,2c-0.2,0.8-0.3,1.5-0.3,2.4h7.8v-0.8c0-0.7-0.1-1.4-0.2-2.1c-0.1-0.7-0.3-1.2-0.5-1.7
			c-0.3-0.5-0.6-0.9-1-1.2S209.1,34.4,208.4,34.4z"/>
		<path class="st0" d="M222.9,34.5c0.8-0.3,1.5-0.6,2.2-0.9c0.7-0.2,1.3-0.4,1.9-0.6c0.6-0.1,1.1-0.2,1.6-0.3c0.5-0.1,1-0.1,1.5-0.1
			c1.2,0,2,0.3,2.7,0.9c0.6,0.6,0.9,1.6,0.9,2.9v14h-3.8V37.1c0-0.3,0-0.5-0.1-0.8c-0.1-0.3-0.2-0.5-0.3-0.8
			c-0.1-0.2-0.3-0.4-0.6-0.5c-0.3-0.1-0.6-0.2-1-0.2c-0.6,0-1.4,0.1-2.2,0.2c-0.8,0.2-1.8,0.5-2.8,1v14.6h-3.8V33.1h3.8V34.5z"/>
		<path class="st0" d="M238.6,23h3.8v3c0,0.5-0.1,1-0.3,1.3c-0.2,0.4-0.4,0.7-0.8,1c-0.3,0.3-0.7,0.5-1.1,0.6s-0.9,0.2-1.4,0.2H237
			v-1.7c0.4,0,0.6,0,0.9,0c0.2,0,0.4-0.1,0.5-0.2c0.1-0.1,0.2-0.3,0.2-0.5s0.1-0.5,0.1-0.9V23z"/>
		<path class="st0" d="M250.4,32.7c0.5,0,1,0,1.4,0.1c0.4,0,0.7,0.1,1.1,0.2c0.3,0.1,0.7,0.2,1,0.3c0.3,0.1,0.7,0.2,1.1,0.4l0,1.6
			c-0.6-0.2-1.2-0.4-1.8-0.6c-0.6-0.2-1.4-0.2-2.3-0.2c-0.2,0-0.4,0-0.7,0.1c-0.3,0-0.5,0.1-0.7,0.3c-0.2,0.1-0.4,0.3-0.6,0.5
			c-0.2,0.2-0.2,0.4-0.2,0.7c0,0.3,0.1,0.7,0.4,1.2s0.8,1,1.4,1.7l2,2.2c0.4,0.5,0.8,0.9,1.3,1.4c0.4,0.5,0.8,0.9,1.1,1.3
			s0.6,0.9,0.8,1.3s0.3,0.8,0.3,1.3c0,0.8-0.2,1.5-0.6,2.1c-0.4,0.6-0.9,1-1.4,1.4s-1.3,0.6-2,0.8c-0.7,0.2-1.5,0.2-2.3,0.2
			c-1,0-2-0.1-2.8-0.3c-0.8-0.2-1.6-0.6-2.3-1l0.1-1.7c0.6,0.3,1.2,0.6,1.9,0.8s1.4,0.4,2.1,0.4c1.2,0,2-0.2,2.6-0.6
			c0.6-0.4,0.9-1,0.9-1.8c0-0.5-0.2-1.1-0.7-1.7c-0.5-0.6-1-1.2-1.7-2l-2-2.2c-0.5-0.7-1-1.2-1.3-1.6s-0.7-0.8-0.9-1.2
			s-0.4-0.7-0.5-1c-0.1-0.3-0.2-0.7-0.2-1c0-0.6,0.1-1.2,0.4-1.6c0.3-0.4,0.7-0.8,1.2-1c0.5-0.3,1.1-0.4,1.8-0.5
			C248.8,32.8,249.6,32.7,250.4,32.7z"/>
		<path class="st0" d="M289.7,50.5h-4.1V35h-12.4v15.6h-4.1V23h4.1v10.2h12.4V23h4.1V50.5z"/>
		<path class="st0" d="M302.3,32.7c1.3,0,2.3,0.2,3.2,0.7c0.9,0.5,1.6,1.1,2.1,1.9c0.5,0.8,0.9,1.7,1.2,2.7c0.2,1,0.4,2.1,0.4,3.3
			v0.9h-11.4c0,0.7,0.1,1.4,0.3,2.2c0.2,0.8,0.6,1.5,1.1,2.2c0.5,0.7,1.1,1.2,1.9,1.7c0.8,0.5,1.8,0.7,2.9,0.7h3.9v1.5H304
			c-1.7,0-3.2-0.2-4.5-0.6c-1.3-0.4-2.3-1-3.1-1.7c-0.8-0.8-1.4-1.7-1.8-2.8c-0.4-1.1-0.6-2.3-0.6-3.7c0-1.2,0.2-2.3,0.5-3.4
			c0.4-1.1,0.9-2,1.6-2.9c0.7-0.8,1.6-1.5,2.6-2C299.8,33,301,32.7,302.3,32.7z M302.1,34.4c-0.8,0-1.4,0.2-2,0.5
			c-0.5,0.3-1,0.8-1.3,1.4c-0.4,0.6-0.6,1.2-0.8,2s-0.3,1.5-0.3,2.4h7.8v-0.8c0-0.7-0.1-1.4-0.2-2.1c-0.1-0.7-0.3-1.2-0.5-1.7
			c-0.3-0.5-0.6-0.9-1-1.2S302.8,34.4,302.1,34.4z"/>
		<path class="st0" d="M318.9,34.3c-0.6,0-1.1,0-1.5,0.1c-0.4,0-0.8,0.1-1.2,0.2c-0.4,0.1-0.7,0.1-1,0.2c-0.3,0.1-0.6,0.2-0.9,0.3
			l-0.4-1.2c1-0.4,2.1-0.7,3.3-0.8c1.1-0.2,2.2-0.3,3.2-0.3c1.3,0,2.4,0.1,3.2,0.2c0.8,0.1,1.5,0.4,2,0.7c0.5,0.3,0.8,0.7,1,1.3
			c0.2,0.5,0.3,1.2,0.3,2v13.7h-6.1c-1.7,0-3.1-0.2-4.2-0.5s-2.1-0.8-2.9-1.4c-0.7-0.6-1.3-1.3-1.6-2c-0.3-0.8-0.5-1.6-0.5-2.4
			c0-1,0.2-2,0.5-2.7c0.3-0.8,0.8-1.5,1.4-2s1.4-0.9,2.3-1.2c0.9-0.3,1.9-0.4,3-0.4c0.6,0,1.3,0.1,2.1,0.3c0.8,0.2,1.5,0.5,2.3,0.9
			v-2.3c0-0.3,0-0.6-0.1-0.9c-0.1-0.3-0.2-0.6-0.5-0.8c-0.3-0.2-0.7-0.4-1.2-0.6S319.8,34.3,318.9,34.3z M322.9,49v-8.6
			c-0.6-0.4-1.2-0.6-1.9-0.8s-1.4-0.3-2.1-0.3c-0.6,0-1.2,0.1-1.6,0.3c-0.5,0.2-0.9,0.5-1.2,0.9c-0.3,0.4-0.6,0.9-0.7,1.5
			c-0.2,0.6-0.3,1.2-0.3,1.9c0,0.2,0,0.5,0,0.8s0.1,0.7,0.2,1c0.1,0.4,0.3,0.7,0.5,1.1c0.2,0.4,0.5,0.7,0.9,1
			c0.4,0.3,0.9,0.6,1.5,0.8c0.6,0.2,1.3,0.3,2.2,0.3H322.9z"/>
		<path class="st0" d="M331.5,23h3.8v27.5h-3.8V23z"/>
		<path class="st0" d="M347,34.7h-2.5v15.8H341V34.7h-2.4v-1.7h2.4v-5.7l3.6-1.1v6.8h2.5V34.7z"/>
		<path class="st0" d="M354.1,34.5c0.8-0.3,1.5-0.6,2.2-0.9c0.7-0.2,1.3-0.4,1.9-0.6s1.1-0.2,1.6-0.3c0.5-0.1,1-0.1,1.5-0.1
			c1.2,0,2,0.3,2.7,0.9c0.6,0.6,0.9,1.6,0.9,2.9v14H361V37.1c0-0.3,0-0.5-0.1-0.8c-0.1-0.3-0.2-0.5-0.3-0.8
			c-0.1-0.2-0.3-0.4-0.6-0.5c-0.3-0.1-0.6-0.2-1-0.2c-0.6,0-1.4,0.1-2.2,0.2c-0.8,0.2-1.8,0.5-2.8,1v14.6h-3.7V23h3.7V34.5z"/>
		<path class="st0" d="M383.6,50.5h-4.1V23h4.1V50.5z"/>
		<path class="st0" d="M405.5,23v1.8h-6.7v25.7h-4.1V24.8H388V23H405.5z"/>
		<path class="st0" d="M429.3,50.5H425l-1.5-3.6h-15.1l-1.5,3.6h-2.2l10.1-24l-1.5-3.5h4.3L429.3,50.5z M409.2,45.1h13.5l-6.8-16
			L409.2,45.1z"/>
		<path class="st0" d="M436.8,48.7h11.3v1.8h-15.4V23h4.1V48.7z"/>
		<path class="st0" d="M456.6,50.5h-4.1V23h4.1V50.5z"/>
		<path class="st0" d="M484.6,50.5h-4.3l-1.5-3.6h-15.1l-1.5,3.6h-2.2l10.1-24l-1.5-3.5h4.3L484.6,50.5z M464.6,45.1h13.5l-6.8-16
			L464.6,45.1z"/>
	</g>
	<g>
		<path class="st1" d="M99.6,0.1C99.6,0,99.6,0,99.5,0C85.2,4.5,67.8,4.2,53,1.9C36.7-0.7,23,1.4,14.2,7.5c-0.4,0.3-0.8,0.5-1.1,0.8
			C6,13.8,1.4,21.8,0.3,30.7C-0.9,40.2,1.8,55.2,13,57.6c4.5,0.9,9.3-0.6,12.5-3.9c4-4.2,3.2-9.9,5.2-15c2.1-5.4,7.3-8.6,11.8-11.8
			c5.6-4,8.9-7.7,11.1-14.3c2.6,2.2,4.2,5.2,4.2,5.2c2.7,4.7,0.7,10.5,0.7,10.5c-0.1,2.5,2.1,4.7,3.9,6.2c0.4,0.3,0.8,0.7,1,1.1
			c0.4,1,0.1,1.7-0.1,2.1c-0.1,0.2-0.3,0.3-0.5,0.5l-1.5,1c-0.5,0.8-0.1,1.3-0.1,1.3c1.5,0.3,1.1,1.6,1.1,1.6c-0.4,2-2,2.4-2,2.4
			c1.9,1.1,1.5,3,0.5,3.3c-0.7,0.2-1,0.8-1,0.8l0.5,1.6c0.8,4.7-3.4,4.4-3.4,4.4l-4.3-0.5c-5.4-0.8-8.8,2.9-8.8,2.9l-10.6,10
			c-0.1,0.1,0,0.2,0.1,0.3C103.8,71.7,99.6,21.7,99.6,0.1z"/>
	</g>
</g>
</svg>
