<svg width="31" height="66" viewBox="0 0 31 66" fill="none" xmlns="http://www.w3.org/2000/svg">
<path d="M15.4999 14C19.0848 14 22 10.8602 22 7C22 3.13983 19.0848 0 15.4999 0C11.916 0 9 3.13983 9 7C9 10.8602 11.916 14 15.4999 14Z" fill="black"/>
<path d="M30.9622 34.0932C31.0019 33.9673 31.011 33.8314 30.9844 33.6942L27.7568 16.7371C27.4975 15.1503 26.1354 14 24.5183 14H6.48104C4.86314 14 3.5017 15.1516 3.24744 16.7159L0.0149472 33.6942C-0.0110134 33.8314 -0.00251601 33.9673 0.0368183 34.0932C0.0118017 34.2487 0 34.3975 0 34.5472C0 36.3425 1.47504 37.8032 3.28882 37.8032C4.87368 37.8032 6.23071 36.6812 6.52037 35.1173L8.55726 22.5084L8.53098 62.7447C8.53098 64.5408 10.0052 66 11.8189 66C13.6325 66 15.1075 64.5393 15.1075 62.7447V42.8285H15.892V62.7445C15.892 64.5407 17.3674 65.9998 19.1819 65.9998C20.9946 65.9998 22.4692 64.5391 22.4692 62.7439L22.4426 22.5084L24.4828 35.136C24.7691 36.6812 26.1273 37.8032 27.7121 37.8032C29.525 37.8032 31 36.3425 31 34.5472C30.9995 34.3975 30.9877 34.247 30.9622 34.0932Z" fill="black"/>
</svg>
