<svg width="31" height="66" viewBox="0 0 31 66" fill="none" xmlns="http://www.w3.org/2000/svg">
<path d="M21.5 7C21.5 10.6195 18.7739 13.5 15.4996 13.5C12.2261 13.5 9.5 10.6196 9.5 7C9.5 3.38038 12.2252 0.5 15.4996 0.5C18.7739 0.5 21.5 3.38047 21.5 7Z" fill="black" stroke="black"/>
<path d="M30.4842 33.7567L30.4847 33.7582C30.5038 33.8234 30.5023 33.8886 30.484 33.9493L30.4514 34.0581L30.4688 34.1702C30.4897 34.3039 30.5 34.4284 30.5 34.5473C30.5 36.0619 29.254 37.3032 27.7129 37.3032C26.3662 37.3032 25.2169 36.3503 24.9745 35.0448L24.9707 35.0246L24.9654 35.0048L22.8622 27.2751L21.8902 27.5083L25.3949 44.3356L25.4039 44.3787L25.4203 44.4196C25.5506 44.7449 25.6161 45.0844 25.6161 45.4353C25.6161 46.9499 24.3701 48.1914 22.8286 48.1914H22.4702H21.9702V48.6914V62.7447C21.9702 64.2584 20.7236 65.5 19.1818 65.5C17.6399 65.5 16.3939 64.2599 16.3939 62.7447V48.6914V48.1914H15.8939H15.108H14.608V48.6914V62.7447C14.608 64.2585 13.3614 65.5 11.8201 65.5C10.2782 65.5 9.03191 64.2599 9.03191 62.7447V48.6914V48.1914H8.53191H8.1743C6.63174 48.1914 5.3853 46.9497 5.3853 45.4353C5.3853 45.0878 5.45064 44.7476 5.58111 44.4207L5.59731 44.3802L5.60622 44.3374L9.11281 27.5091L8.14085 27.2759L6.02066 35.0719L6.01516 35.0921L6.01137 35.1127C5.78502 36.3441 4.64258 37.3032 3.28918 37.3032C1.74665 37.3032 0.500499 36.0617 0.500499 34.5473C0.500499 34.427 0.510467 34.3052 0.531486 34.1723L0.549914 34.0558L0.514354 33.9434C0.496517 33.887 0.494291 33.8232 0.513428 33.7578L0.513752 33.7567L5.42452 16.8232L5.4318 16.7981L5.43643 16.7724C5.67314 15.4542 6.81312 14.5 8.17351 14.5H22.826C24.1855 14.5 25.3256 15.4542 25.562 16.7723L25.5666 16.7981L25.5739 16.8232L30.4842 33.7567Z" fill="black" stroke="black"/>
</svg>
