<svg width="26" height="31" viewBox="0 0 26 31" fill="none" xmlns="http://www.w3.org/2000/svg">
<path d="M7.81173 0.000488281C7.47733 0.000488281 7.20621 0.271674 7.20621 0.606009C7.20621 0.940404 7.47733 1.21153 7.81173 1.21153C11.2322 1.21153 14.0148 4.06645 14.0148 7.57582C14.0148 7.91021 14.286 8.18134 14.6204 8.18134C14.9548 8.18134 15.2259 7.91015 15.2259 7.57582C15.2259 3.39875 11.8999 0.000488281 7.81173 0.000488281Z" fill="black"/>
<path d="M7.81061 2.87305C7.47622 2.87305 7.20509 3.14423 7.20509 3.47857C7.20509 3.81296 7.47622 4.08409 7.81061 4.08409C9.6836 4.08409 11.2074 5.65035 11.2074 7.57553C11.2074 7.90993 11.4785 8.18105 11.8129 8.18105C12.1473 8.18105 12.4184 7.90987 12.4184 7.57553C12.4185 4.98259 10.3514 2.87305 7.81061 2.87305Z" fill="black"/>
<path d="M7.82128 5.52002C7.48682 5.52002 7.21576 5.79108 7.21576 6.12554C7.21576 6.45994 7.48695 6.73106 7.82128 6.73106C8.25885 6.73106 8.61473 7.10184 8.61473 7.55763C8.61473 7.89203 8.88586 8.16315 9.22025 8.16315C9.55465 8.16315 9.82578 7.89197 9.82578 7.55763C9.82584 6.43408 8.92655 5.52002 7.82128 5.52002Z" fill="black"/>
<path d="M11.2541 20.3712C11.1415 20.2586 10.9859 20.1938 10.826 20.1938C10.6668 20.1938 10.5105 20.2586 10.398 20.3712C10.2853 20.4839 10.2205 20.6401 10.2205 20.7994C10.2205 20.9592 10.2853 21.1149 10.398 21.2275C10.5111 21.3407 10.6668 21.4054 10.826 21.4054C10.9853 21.4054 11.1415 21.3407 11.2541 21.2275C11.3674 21.1149 11.4315 20.9591 11.4315 20.7994C11.4315 20.6401 11.3674 20.4839 11.2541 20.3712Z" fill="black"/>
<path d="M24.5077 25.8466L19.8687 21.2075C19.2511 20.5899 18.2796 20.4996 17.5588 20.9925L14.598 23.017C14.3577 23.1813 14.034 23.1512 13.8281 22.9453L12.849 21.9661C12.6127 21.7298 12.2293 21.7298 11.9926 21.9661C11.7562 22.2026 11.7562 22.5859 11.9926 22.8225L12.9717 23.8017C13.5893 24.4192 14.5607 24.5097 15.2815 24.0167L18.2423 21.9922C18.4825 21.828 18.8063 21.858 19.0122 22.0639L23.6513 26.703C23.8874 26.939 23.8873 27.3232 23.6513 27.5594C20.6765 30.5342 15.8362 30.5342 12.8614 27.5594L3.44157 18.1394C2.00045 16.6984 1.20694 14.7825 1.20694 12.7445C1.20694 10.7065 2.00051 8.79053 3.44163 7.34942C3.556 7.23504 3.70803 7.17214 3.86975 7.17214C4.03153 7.17214 4.18362 7.23511 4.29793 7.34948L8.93696 11.9886C9.14276 12.1944 9.17291 12.5182 9.00871 12.7585L6.9843 15.7193C6.49127 16.4401 6.58173 17.4115 7.19924 18.0291L8.67099 19.5009C8.90748 19.7372 9.2908 19.7372 9.52741 19.5009C9.76384 19.2644 9.76384 18.881 9.52741 18.6445L8.05566 17.1727C7.84986 16.9669 7.81971 16.6431 7.98397 16.4029L10.0084 13.442C10.5014 12.7212 10.4109 11.7497 9.79339 11.1322L5.15436 6.49311C4.44609 5.78485 3.2936 5.78485 2.58521 6.49311C-0.861736 9.94012 -0.861736 15.5488 2.58521 18.9958L12.0051 28.4156C13.7286 30.1391 15.9924 31.0009 18.2563 31.0009C20.5203 31.0008 22.7841 30.139 24.5076 28.4156C25.2159 27.7073 25.2159 26.5549 24.5077 25.8466Z" fill="black"/>
<path d="M8.15689 14.8894L4.48623 11.2188C4.24968 10.9824 3.86636 10.9824 3.62981 11.2188C3.39338 11.4553 3.39338 11.8387 3.62981 12.0752L7.30053 15.7459C7.41878 15.8641 7.57365 15.9232 7.72871 15.9232C7.88365 15.9232 8.03865 15.8641 8.15689 15.7459C8.39332 15.5094 8.39332 15.1259 8.15689 14.8894Z" fill="black"/>
<path d="M22.2057 28.9393L18.3435 25.0772C18.107 24.8408 17.7237 24.8408 17.4871 25.0772C17.2507 25.3137 17.2507 25.6971 17.4871 25.9336L21.3493 29.7958C21.4675 29.914 21.6224 29.9731 21.7775 29.9731C21.9324 29.9731 22.0874 29.914 22.2057 29.7958C22.4421 29.5592 22.4421 29.1758 22.2057 28.9393Z" fill="black"/>
</svg>
