<svg width="9" height="16" viewBox="0 0 9 16" fill="none" xmlns="http://www.w3.org/2000/svg">
<path fill-rule="evenodd" clip-rule="evenodd" d="M3.60069 0.810783C2.84019 1.46783 2.63215 1.99409 2.49992 3.59339L2.33723 5.56522H1.16862H0V7.30435V9.04348H1.21154H2.42308V12.5217V16H4.15385H5.88462V12.5217V9.04348H7.23219C8.72481 9.04348 9 8.68696 9 6.75409C9 5.57426 8.98788 5.56522 7.41946 5.56522C5.89915 5.56522 5.84273 5.5287 5.94831 4.6087C6.04627 3.7527 6.21242 3.64104 7.52885 3.54539L9 3.43826V1.7193V0H6.76938C4.93235 0 4.37296 0.142956 3.60069 0.810783ZM7.76008 0.906783C8.06123 1.02296 8.30769 1.49252 8.30769 1.95026C8.30769 2.66017 8.13946 2.78261 7.16539 2.78261C5.68039 2.78261 5.19231 3.31617 5.19231 4.93913C5.19231 6.24939 5.20442 6.26087 6.57692 6.26087C7.88469 6.26087 7.96154 6.31896 7.96154 7.30435C7.96154 8.28974 7.88469 8.34783 6.57692 8.34783H5.19231V11.8261V15.3043H4.15385H3.11538V11.8261V8.34783H1.90385C0.788539 8.34783 0.692308 8.26504 0.692308 7.30435C0.692308 6.34365 0.788539 6.26087 1.90385 6.26087C3.09773 6.26087 3.11538 6.2393 3.12058 4.78261C3.12335 3.96939 3.321 2.91617 3.55985 2.44174C4.26012 1.05113 6.24912 0.324174 7.76008 0.906783Z" fill="white"/>
</svg>
