<svg width="47" height="47" viewBox="0 0 47 47" fill="none" xmlns="http://www.w3.org/2000/svg">
<g clip-path="url(#clip0)">
<path d="M23.4999 3.66984C21.0133 0.810842 18.476 -0.0143167 16.6152 0.000187136C11.7291 0.0382827 8.35352 4.87816 8.35352 9.81268C8.35352 14.6952 13.1957 18.8112 19.326 24.0205C20.3816 24.9187 23.4999 27.6135 23.4999 27.6135C23.4999 27.6135 26.6183 24.9188 27.6738 24.0205C33.8042 18.8112 38.6464 14.6952 38.6464 9.81268C38.6464 4.85301 35.2146 0.0598549 30.3847 0.00844882C28.5283 -0.0112874 25.992 0.807538 23.4999 3.66984ZM27.6308 16.6154H24.8769V19.3693H22.123V16.6154H19.3691V13.8615H22.123V11.1076H24.8769V13.8615H27.6308V16.6154Z" fill="white"/>
<path d="M42.7773 18.2399V19.6444C42.7221 23.6376 42.3641 28.7873 37.655 32.3674C36.581 33.1936 35.2316 33.9096 33.6342 34.5431C33.5242 34.3227 32.753 32.2572 32.6428 31.9544C33.6618 31.5689 34.6256 31.1007 35.6997 30.3847C38.3984 28.0989 38.6188 27.0248 38.426 26.5291C38.0956 25.703 36.3056 25.9234 35.4244 26.0886C32.8632 26.5843 29.5034 28.2641 27.3829 30.3847C25.8959 31.7341 24.877 33.4415 24.877 35.3692V46.9999H35.8925V45.6229C35.8925 42.4283 37.1594 41.4003 39.2522 39.8581C42.4743 37.4622 46.9999 34.1851 46.9999 20.7461V11.1074H46.111C42.7813 11.1074 42.8353 15.1266 42.7773 18.2399Z" fill="white"/>
<path d="M11.1074 45.6229V46.9999H22.123V35.3692C22.123 33.4415 21.104 31.7341 19.617 30.3847C17.4964 28.2641 14.1366 26.5843 11.5755 26.0886C10.6943 25.9234 8.90435 25.7031 8.57389 26.5291C8.38111 27.0248 8.60142 28.0989 11.3002 30.3847C12.3743 31.1007 13.3381 31.5689 14.3571 31.9544C14.247 32.2573 13.4758 34.3228 13.3657 34.5431C11.7683 33.9096 10.419 33.1935 9.34488 32.3674C4.63582 28.7873 4.27781 23.6376 4.22264 19.6444V18.2399C4.16462 15.1266 4.2186 11.1074 0.888957 11.1074H0V20.7461C0 34.1851 4.52557 37.4622 7.74772 39.8581C9.84049 41.4003 11.1074 42.4283 11.1074 45.6229Z" fill="white"/>
</g>
<defs>
<clipPath id="clip0">
<rect width="47" height="47" fill="white"/>
</clipPath>
</defs>
</svg>
