<svg width="17" height="18" viewBox="0 0 17 18" fill="none" xmlns="http://www.w3.org/2000/svg">
<path fill-rule="evenodd" clip-rule="evenodd" d="M11.2145 1.09357C10.6697 1.66944 10.2242 2.4405 10.2242 2.80722C10.2242 3.27064 9.56253 3.81929 8.05796 4.6036C6.16074 5.5924 5.65763 5.70736 4.01179 5.52793C2.24804 5.33526 2.06781 5.39041 1.09616 6.41753C-0.365386 7.9625 -0.365386 10.0375 1.09616 11.5825C2.06781 12.6096 2.24804 12.6647 4.01179 12.4721C5.65763 12.2926 6.16074 12.4076 8.05796 13.3964C9.56253 14.1807 10.2242 14.7294 10.2242 15.1928C10.2242 15.5595 10.6697 16.3306 11.2145 16.9064C13.397 19.2131 17 17.6349 17 14.3719C17 13.1905 16.7869 12.659 15.9643 11.7895C14.9927 10.7624 14.8124 10.7072 13.0497 10.8995C11.4618 11.0729 10.8869 10.9575 9.34232 10.1568C8.33645 9.63532 7.51387 9.11496 7.51387 9C7.51387 8.88504 8.33645 8.36468 9.34232 7.84324C10.8869 7.04246 11.4618 6.92714 13.0497 7.10048C14.8124 7.2928 14.9927 7.23764 15.9643 6.21053C16.7869 5.34099 17 4.80952 17 3.62805C17 0.365133 13.397 -1.21315 11.2145 1.09357ZM15.3321 1.80983C15.8769 2.3857 16.3224 3.20367 16.3224 3.62805C16.3224 4.60252 14.5638 6.49309 13.6572 6.49309C12.7231 6.49309 11.3134 5.09424 11.0495 3.9056C10.8757 3.12452 11.0369 2.71375 11.8575 1.84636C13.1442 0.486539 14.0708 0.476511 15.3321 1.80983ZM10.5582 5.40975C10.8777 6.04042 10.7009 6.23202 8.92052 7.18178L6.92437 8.24721L6.58422 7.45968C6.27694 6.74844 6.41246 6.57833 7.98004 5.70413C10.0866 4.52947 10.1114 4.5266 10.5582 5.40975ZM5.01054 6.9737C5.66949 7.57285 5.93273 8.15123 5.93273 9C5.93273 10.3355 4.58265 11.865 3.40332 11.865C2.49672 11.865 0.738055 9.97447 0.738055 9C0.738055 8.02553 2.49672 6.13496 3.40332 6.13496C3.78006 6.13496 4.50337 6.51243 5.01054 6.9737ZM10.5582 12.5903C10.1137 13.4687 10.2584 13.4831 8.06169 12.3442C6.36435 11.4643 6.25018 11.3282 6.57575 10.5729L6.92844 9.75494L8.92222 10.8189C10.7009 11.768 10.8777 11.9596 10.5582 12.5903ZM15.3321 12.5537C15.8769 13.1296 16.3224 13.9476 16.3224 14.3719C16.3224 15.369 14.5553 17.237 13.6121 17.237C12.6689 17.237 10.9018 15.369 10.9018 14.3719C10.9018 13.9476 11.3473 13.1296 11.8921 12.5537C12.4368 11.9778 13.2106 11.5069 13.6121 11.5069C14.0136 11.5069 14.7874 11.9778 15.3321 12.5537Z" fill="white"/>
</svg>
