<svg width="17" height="14" viewBox="0 0 17 14" fill="none" xmlns="http://www.w3.org/2000/svg">
<path fill-rule="evenodd" clip-rule="evenodd" d="M9.94348 0.453515C8.88029 0.912569 7.79015 2.45256 7.79015 3.49559C7.79015 4.14795 7.6067 4.14795 5.67433 3.49424C4.8188 3.20479 3.47293 2.41905 2.6832 1.74807C0.92303 0.252087 0.631146 0.532732 0.669337 3.68178C0.702753 6.43272 1.99066 9.81672 3.26083 10.4918L4.11807 10.9474L3.14115 11.3618C2.60375 11.5896 1.66536 11.7829 1.05567 11.7914C-0.521387 11.8131 -0.315773 12.4024 1.56715 13.2572C3.74026 14.2437 7.32369 14.2481 9.52543 13.2671C12.5316 11.9278 15.2809 8.15011 15.2884 5.34873C15.2908 4.49833 15.5452 3.90183 16.1443 3.34325C16.9906 2.55412 17.2805 1.65057 16.6879 1.65057C16.5177 1.65057 16.459 1.34589 16.5569 0.973505C16.7581 0.20977 16.3827 0.126152 15.1848 0.667808C14.5434 0.957932 14.1325 0.921032 13.31 0.49854C12.0392 -0.153817 11.3709 -0.162957 9.94348 0.453515ZM13.4134 1.51042C13.8819 1.8151 14.4298 1.93359 14.6801 1.78396C14.9625 1.61537 14.9372 1.74672 14.6099 2.14856C14.2645 2.57241 14.2225 2.81784 14.4806 2.90417C15.0187 3.08427 14.2604 6.83219 13.3216 8.63252C11.5908 11.9525 7.50304 13.7654 3.476 12.9989L2.16388 12.7491L3.95406 11.9583C5.97952 11.0639 6.19672 10.6048 4.74481 10.2883C3.34028 9.98192 2.79846 9.26592 3.59432 8.7676C4.01032 8.50692 4.07715 8.32615 3.80061 8.20969C2.89939 7.83053 1.6524 6.65006 1.6524 6.17611C1.6524 5.89953 1.80584 5.76716 1.99339 5.88226C2.75276 6.34842 3.05522 5.62802 2.39916 4.91574C1.00725 3.40385 1.05772 1.33269 2.45542 2.60254C3.60966 3.65098 5.986 4.71262 7.35812 4.79319C8.57169 4.86429 8.62182 4.82163 8.84107 3.53351C9.2298 1.24569 11.4776 0.251071 13.4134 1.51042Z" fill="white"/>
</svg>
