<svg width="36" height="36" viewBox="0 0 36 36" fill="none" xmlns="http://www.w3.org/2000/svg">
<path d="M29.7928 0H5.95719C2.66712 0 0 2.66712 0 5.95719V29.7928C0 33.0829 2.66712 35.75 5.95719 35.75H29.7928C33.0829 35.75 35.75 33.0829 35.75 29.7928V5.95719C35.75 2.66712 33.0829 0 29.7928 0Z" fill="url(#paint0_linear_23_409)"/>
<path d="M14.7503 24.8496H14.7022C14.4298 24.8399 14.1623 24.7738 13.9168 24.6555C13.6712 24.5372 13.4529 24.3691 13.2756 24.1621L10.0719 20.5321C9.70693 20.1111 9.51503 19.5674 9.53481 19.0106C9.55458 18.4538 9.78455 17.9252 10.1784 17.5311C10.3676 17.3428 10.5936 17.1954 10.8423 17.0983C11.091 17.0012 11.357 16.9565 11.6238 16.9668C11.8906 16.9771 12.1523 17.0423 12.3928 17.1583C12.6332 17.2744 12.8472 17.4387 13.0212 17.6411L14.8259 19.7036L22.7975 11.5018C22.9822 11.3083 23.2047 11.155 23.4513 11.0515C23.6979 10.9479 23.9632 10.8963 24.2306 10.8998C24.498 10.9034 24.7618 10.962 25.0055 11.0721C25.2493 11.1822 25.4677 11.3413 25.6472 11.5396C26.0199 11.9533 26.223 12.4923 26.216 13.0492C26.209 13.606 25.9924 14.1397 25.6094 14.5439L16.1562 24.248C15.9741 24.4373 15.7558 24.588 15.5143 24.6913C15.2728 24.7947 15.013 24.8485 14.7503 24.8496Z" fill="white"/>
<defs>
<linearGradient id="paint0_linear_23_409" x1="0" y1="17.875" x2="35.75" y2="17.875" gradientUnits="userSpaceOnUse">
<stop stop-color="#556485"/>
<stop offset="1" stop-color="#418CFF"/>
</linearGradient>
</defs>
</svg>
