<svg width="58" height="58" viewBox="0 0 58 58" fill="none" xmlns="http://www.w3.org/2000/svg">
<path d="M37.178 22.098L19.662 36.018C19.314 36.308 19.198 36.888 19.546 37.236C19.72 37.468 19.952 37.584 20.242 37.584C20.416 37.584 20.648 37.526 20.764 37.41L38.28 23.49C38.628 23.2 38.744 22.62 38.396 22.272C38.106 21.866 37.584 21.808 37.178 22.098Z" fill="#790F00"/>
<path d="M24.36 28.3041C24.592 28.3041 24.824 28.3041 25.056 28.2461C27.434 27.8981 29.116 25.636 28.71 23.2C28.536 22.04 27.898 20.996 26.97 20.3C26.042 19.604 24.882 19.314 23.722 19.488C22.562 19.662 21.518 20.3 20.822 21.228C20.126 22.156 19.836 23.316 20.01 24.476C20.358 26.7381 22.272 28.3041 24.36 28.3041ZM23.954 21.286C24.07 21.286 24.244 21.228 24.36 21.228C25.636 21.228 26.796 22.156 26.97 23.49C27.202 24.94 26.216 26.2741 24.766 26.5061C23.316 26.7381 21.982 25.7521 21.75 24.3021C21.518 22.8521 22.562 21.518 23.954 21.286Z" fill="#790F00"/>
<path d="M33.64 31.2041C31.204 31.2041 29.232 33.1761 29.232 35.6121C29.232 38.0481 31.204 40.0201 33.64 40.0201C36.076 40.0201 38.048 38.0481 38.048 35.6121C37.99 33.1761 36.018 31.2041 33.64 31.2041ZM33.64 38.2221C32.19 38.2221 30.972 37.0041 30.972 35.5541C30.972 34.1041 32.19 32.8861 33.64 32.8861C35.09 32.8861 36.308 34.1041 36.308 35.5541C36.25 37.0621 35.09 38.2221 33.64 38.2221Z" fill="#790F00"/>
<path d="M55.332 29.174C55.332 29.116 55.39 29 55.39 28.942C55.39 26.448 52.78 25.172 50.518 24.07C48.894 23.258 47.154 22.388 46.69 21.344C46.226 20.242 46.864 18.444 47.502 16.762C48.372 14.384 49.242 11.948 47.618 10.324C45.994 8.7 43.674 9.28 41.354 9.802C39.73 10.15 38.048 10.556 36.946 10.092C35.844 9.628 34.916 8.178 34.046 6.786C32.77 4.814 31.378 2.552 28.942 2.552C26.506 2.552 25.114 4.814 23.896 6.844C23.026 8.294 22.156 9.744 21.054 10.208C19.952 10.672 18.212 10.266 16.588 9.86C14.268 9.28 11.89 8.7 10.324 10.266C8.7 11.89 9.512 14.326 10.266 16.704C10.846 18.444 11.368 20.184 10.904 21.344C10.44 22.446 8.816 23.258 7.25 24.07C5.046 25.23 2.552 26.506 2.552 28.942C2.552 29 2.552 29.116 2.61 29.174C2.61 29.232 2.552 29.348 2.552 29.406C2.552 31.842 5.046 33.176 7.25 34.278C8.816 35.09 10.44 35.902 10.904 37.004C11.368 38.106 10.788 39.904 10.266 41.644C9.512 44.022 8.7 46.458 10.324 48.082C11.948 49.706 14.326 49.068 16.588 48.488C18.212 48.082 19.952 47.676 21.054 48.14C22.156 48.604 23.026 50.054 23.896 51.504C25.114 53.534 26.506 55.796 28.942 55.796C31.378 55.796 32.828 53.534 34.046 51.562C34.916 50.17 35.844 48.72 36.946 48.256C38.106 47.792 39.73 48.14 41.354 48.546C43.616 49.068 45.994 49.648 47.618 48.024C49.242 46.4 48.372 43.964 47.502 41.586C46.864 39.846 46.226 38.106 46.69 37.004C47.154 35.902 48.836 35.09 50.518 34.278C52.78 33.118 55.39 31.842 55.39 29.406C55.39 29.29 55.332 29.232 55.332 29.174ZM49.706 32.712C47.792 33.698 45.762 34.684 45.066 36.366C44.312 38.106 45.124 40.194 45.82 42.224C46.516 44.138 47.212 45.994 46.342 46.806C45.414 47.734 43.616 47.328 41.702 46.864C39.788 46.4 37.874 45.994 36.192 46.69C34.568 47.386 33.524 49.01 32.538 50.634C31.436 52.374 30.392 54.056 28.884 54.056C27.434 54.056 26.39 52.374 25.288 50.576C24.302 48.894 23.258 47.212 21.634 46.516C19.952 45.82 17.98 46.284 16.066 46.806C14.152 47.27 12.354 47.734 11.426 46.864C10.556 45.994 11.136 44.138 11.774 42.224C12.412 40.194 13.108 38.106 12.354 36.424C11.658 34.742 9.744 33.756 7.888 32.828C5.974 31.842 4.176 30.914 4.176 29.464C4.176 29.406 4.176 29.29 4.118 29.232C4.118 29.174 4.176 29.058 4.176 29C4.176 27.608 5.974 26.68 7.888 25.636C9.744 24.708 11.658 23.722 12.354 22.04C13.05 20.3 12.412 18.212 11.774 16.24C11.136 14.268 10.556 12.412 11.426 11.6C12.354 10.672 14.152 11.136 16.066 11.658C17.98 12.122 19.952 12.644 21.634 11.948C23.258 11.252 24.302 9.57 25.288 7.888C26.39 6.09 27.376 4.408 28.884 4.408C30.392 4.408 31.436 6.09 32.538 7.83C33.582 9.454 34.626 11.078 36.192 11.774C37.874 12.47 39.788 12.006 41.702 11.6C43.616 11.136 45.414 10.73 46.342 11.658C47.212 12.47 46.516 14.326 45.82 16.24C45.066 18.27 44.312 20.358 45.066 22.098C45.762 23.78 47.792 24.766 49.706 25.752C51.736 26.738 53.592 27.724 53.592 29.116C53.592 29.174 53.592 29.29 53.65 29.348C53.65 29.406 53.592 29.522 53.592 29.58C53.65 30.74 51.736 31.726 49.706 32.712Z" fill="#790F00"/>
</svg>
