<svg width="21" height="21" viewBox="0 0 21 21" fill="none" xmlns="http://www.w3.org/2000/svg">
<g clip-path="url(#clip0)">
<path d="M20.6256 3.09565C20.1251 2.5951 19.315 2.59506 18.8146 3.09561L6.72205 15.1881L2.18547 10.6515C1.68504 10.151 0.874937 10.1509 0.374463 10.6515C-0.124821 11.1508 -0.124821 11.9632 0.374463 12.4625L5.81659 17.9046C6.31694 18.4049 7.12717 18.405 7.62756 17.9046L20.6256 4.90658C21.1248 4.40729 21.1248 3.59485 20.6256 3.09565Z" fill="#B7E183"/>
<path d="M20.6256 3.09565C20.1252 2.5951 19.3151 2.59506 18.8146 3.09561L9.98779 11.9224V15.5443L20.6256 4.90658C21.1248 4.40729 21.1248 3.59485 20.6256 3.09565Z" fill="#71DE56"/>
</g>
<defs>
<clipPath id="clip0">
<rect width="21" height="21" fill="white"/>
</clipPath>
</defs>
</svg>
