<svg width="108" height="108" viewBox="0 0 108 108" fill="none" xmlns="http://www.w3.org/2000/svg">
<circle cx="54" cy="54" r="54" fill="#FF5C00"/>
<path d="M46.5025 66.2099C46.4909 66.1524 46.4738 66.0958 46.4513 66.041C46.4289 65.9871 46.401 65.935 46.3687 65.8865C46.3363 65.8371 46.2986 65.7913 46.2573 65.7499C46.2159 65.7086 46.1701 65.6709 46.1207 65.6385C46.0722 65.6062 46.0201 65.5783 45.9653 65.5559C45.9114 65.5334 45.8548 65.5155 45.7973 65.5047C45.6814 65.4813 45.5619 65.4813 45.4469 65.5047C45.3894 65.5155 45.3328 65.5334 45.278 65.5559C45.2241 65.5783 45.172 65.6062 45.1234 65.6385C45.074 65.6709 45.0282 65.7086 44.9869 65.7499C44.9455 65.7913 44.9078 65.8371 44.8755 65.8865C44.8422 65.935 44.8153 65.9871 44.7928 66.041C44.7704 66.0958 44.7524 66.1524 44.7416 66.2099C44.7299 66.2674 44.7236 66.3267 44.7236 66.3851C44.7236 66.4435 44.7299 66.5028 44.7416 66.5603C44.7524 66.6178 44.7704 66.6744 44.7928 66.7283C44.8153 66.7831 44.8422 66.8353 44.8755 66.8838C44.9078 66.9332 44.9455 66.979 44.9869 67.0203C45.0282 67.0617 45.074 67.0994 45.1234 67.1317C45.172 67.1642 45.2241 67.192 45.278 67.2145C45.3328 67.2369 45.3894 67.2549 45.4469 67.2657C45.5044 67.2774 45.5637 67.2837 45.6221 67.2837C45.6805 67.2837 45.7398 67.2774 45.7973 67.2657C45.8548 67.2549 45.9114 67.2369 45.9653 67.2145C46.0201 67.192 46.0722 67.1641 46.1207 67.1317C46.1701 67.0994 46.2159 67.0617 46.2573 67.0203C46.2986 66.979 46.3363 66.9332 46.3687 66.8838C46.401 66.8353 46.4289 66.7831 46.4513 66.7283C46.4738 66.6744 46.4909 66.6178 46.5025 66.5603C46.5142 66.5028 46.5205 66.4435 46.5205 66.3851C46.5205 66.3267 46.5142 66.2674 46.5025 66.2099Z" fill="white"/>
<path d="M72.3275 66.4867C72.324 66.4777 72.3204 66.4688 72.3166 66.46C71.4897 64.5251 69.5503 63.8099 67.2552 64.5938L60.996 66.3247C60.6341 65.2288 59.7314 64.2962 58.4551 63.8226C58.4472 63.8197 58.4393 63.8168 58.4313 63.8141L51.5509 61.4789C50.9783 60.7387 49.1845 58.8446 45.8258 58.8446C43.4787 58.8446 41.4023 60.4548 40.2144 62.2099H31.8984C31.4022 62.2099 31 62.6121 31 63.1083V74.4356C31 74.9318 31.4022 75.334 31.8984 75.334H37.2403C37.7365 75.334 38.1387 74.9318 38.1387 74.4356V73.6598H40.6438C41.14 73.6598 41.5423 73.2576 41.5423 72.7614V72.5028C43.0026 72.6302 43.4829 72.9072 44.8241 73.6806C45.8555 74.2754 47.4144 75.1742 50.2216 76.4365C50.2346 76.4423 50.2479 76.4479 50.2611 76.4531C50.7999 76.665 51.8531 76.998 53.1516 76.998C54.0554 76.998 55.0783 76.8365 56.1282 76.3606L69.9633 71.407C69.988 71.3982 70.0122 71.3883 70.0359 71.3774C71.3582 70.769 73.3285 69.0545 72.3275 66.4867ZM36.3418 73.537H32.7969V64.0067H36.3418V73.537ZM39.7454 71.8629H38.1387V64.0067H39.7454V71.8629ZM69.318 69.7294L55.4891 74.6807C55.4769 74.6851 55.4605 74.6915 55.4485 74.6964C55.4364 74.7013 55.4243 74.7065 55.4123 74.712C53.4864 75.5971 51.6556 75.0672 50.9381 74.7883C48.2265 73.5681 46.7792 72.7336 45.7217 72.1238C44.2515 71.276 43.5431 70.8674 41.5423 70.7022V63.466C42.3939 62.0702 44.0454 60.6414 45.8259 60.6414C48.8794 60.6414 50.1732 62.6274 50.224 62.7075C50.3337 62.886 50.5024 63.0205 50.7007 63.0878L57.841 65.5112C58.9814 65.9392 59.5841 66.9158 59.3071 67.8897C59.1792 68.3395 58.8838 68.7125 58.4754 68.9401C58.0705 69.1657 57.6024 69.2215 57.1562 69.098L49.1068 66.5472C48.6335 66.3972 48.1288 66.6592 47.9789 67.1322C47.829 67.6053 48.091 68.1102 48.564 68.2601L56.6274 70.8154C56.6359 70.8181 56.6445 70.8207 56.6531 70.8231C56.975 70.9147 57.3027 70.9599 57.6285 70.9599C58.2249 70.9599 58.8147 70.808 59.35 70.5097C60.1777 70.0486 60.7763 69.2926 61.0354 68.3812C61.0561 68.3084 61.0744 68.2356 61.0903 68.1628L67.836 66.2941C68.8103 65.9613 70.0892 65.8414 70.6586 67.1528C71.248 68.6925 69.7162 69.5394 69.318 69.7294Z" fill="white"/>
<path d="M63.2593 42.8183C63.2476 42.7608 63.2305 42.7042 63.2072 42.6494C63.1847 42.5955 63.1578 42.5433 63.1245 42.4948C63.0922 42.4454 63.0545 42.3996 63.0131 42.3583C62.9718 42.3169 62.926 42.2792 62.8766 42.2469C62.828 42.2145 62.7759 42.1867 62.722 42.1642C62.6672 42.1417 62.6106 42.1238 62.554 42.113C62.4381 42.0896 62.3186 42.0896 62.2027 42.113C62.1452 42.1238 62.0886 42.1417 62.0347 42.1642C61.9799 42.1867 61.9278 42.2145 61.8793 42.2469C61.8299 42.2792 61.7841 42.3169 61.7427 42.3583C61.7014 42.3996 61.6637 42.4454 61.6313 42.4948C61.599 42.5433 61.5711 42.5955 61.5487 42.6494C61.5262 42.7042 61.5082 42.7608 61.4975 42.8183C61.4858 42.8758 61.4795 42.9351 61.4795 42.9935C61.4795 43.0519 61.4858 43.1112 61.4975 43.1687C61.5082 43.2262 61.5262 43.2828 61.5487 43.3367C61.5711 43.3915 61.599 43.4436 61.6313 43.4921C61.6637 43.5415 61.7014 43.5873 61.7427 43.6287C61.7841 43.67 61.8299 43.7077 61.8793 43.7401C61.9278 43.7724 61.9799 43.8003 62.0347 43.8227C62.0886 43.8452 62.1452 43.8622 62.2027 43.8739C62.2602 43.8856 62.3195 43.8919 62.3779 43.8919C62.4363 43.8919 62.4956 43.8856 62.554 43.8739C62.6106 43.8622 62.6672 43.8452 62.722 43.8227C62.7759 43.8003 62.828 43.7724 62.8766 43.7401C62.926 43.7077 62.9718 43.67 63.0131 43.6287C63.0545 43.5873 63.0922 43.5415 63.1245 43.4921C63.1578 43.4436 63.1847 43.3915 63.2072 43.3367C63.2305 43.2828 63.2476 43.2262 63.2593 43.1687C63.271 43.1112 63.2764 43.0519 63.2764 42.9935C63.2764 42.9351 63.271 42.8758 63.2593 42.8183Z" fill="white"/>
<path d="M76.1015 34.0448H70.7597C70.2635 34.0448 69.8612 34.4471 69.8612 34.9433V35.719H67.3561C66.8599 35.719 66.4577 36.1212 66.4577 36.6174V36.876C64.9974 36.7485 64.5171 36.4716 63.176 35.6982C62.1446 35.1035 60.5857 34.2046 57.7783 32.9424C57.7653 32.9364 57.7522 32.931 57.7388 32.9257C56.825 32.5662 54.43 31.8588 51.8721 33.018L48.2568 34.3125L45.2094 31.2652C44.8585 30.9143 44.2896 30.9143 43.9388 31.2652L33.934 41.2699C33.6104 41.5936 33.5483 42.1549 33.934 42.5406L51.0301 59.6367C51.3037 59.9103 51.9442 59.9931 52.3007 59.6367L61.4347 50.5028C61.6722 50.5233 61.9186 50.5343 62.174 50.5343C64.5213 50.5343 66.5976 48.9241 67.7854 47.1691H76.1015C76.5977 47.1691 77 46.7669 77 46.2707V34.9433C77 34.4471 76.5977 34.0448 76.1015 34.0448ZM44.574 33.171L46.6217 35.2187C46.013 35.5952 45.3093 35.7966 44.574 35.7966C43.8386 35.7966 43.135 35.5953 42.5263 35.2187L44.574 33.171ZM37.8876 43.953L35.8399 41.9052L37.8876 39.8575C38.2641 40.4662 38.4655 41.1699 38.4655 41.9052C38.4655 42.6405 38.2642 43.3442 37.8876 43.953ZM51.6655 57.7307L49.6181 55.6834C50.8681 54.912 52.4626 54.912 53.7127 55.6834L51.6655 57.7307ZM55.0072 54.3891C53.0218 52.9489 50.3091 52.9489 48.3237 54.3891L39.182 45.2473C39.8836 44.2824 40.2624 43.1233 40.2624 41.9052C40.2624 40.687 39.8837 39.528 39.182 38.5631L41.232 36.5132C42.1969 37.2148 43.3559 37.5936 44.5741 37.5936C45.7923 37.5936 46.9513 37.2148 47.9162 36.5132L49.8594 38.4564C49.4401 38.5183 49.0312 38.6565 48.6499 38.869C48.0059 39.2278 47.5007 39.7652 47.186 40.4153C46.1726 40.603 45.2343 41.0936 44.4983 41.8295C42.5016 43.8264 42.5016 47.0754 44.4984 49.0723C45.4968 50.0706 46.8082 50.5699 48.1198 50.5699C49.4312 50.5699 50.7428 50.0707 51.7412 49.0723C52.3908 48.4227 52.8458 47.6244 53.0738 46.7543L56.1072 47.7838C55.7657 49.3658 56.1155 51.0301 57.059 52.3373L55.0072 54.3891ZM49.5449 45.5563C49.5528 45.5591 49.5607 45.562 49.5687 45.5647L51.3652 46.1745C51.2295 46.7868 50.9225 47.3497 50.4706 47.8017C49.1744 49.0978 47.0652 49.098 45.7691 47.8017C44.4728 46.5055 44.4728 44.3965 45.7691 43.1002C46.0818 42.7874 46.4507 42.5429 46.8528 42.3771C47.0186 43.7573 48.0124 44.9875 49.5449 45.5563ZM58.3535 51.0427C58.0067 50.4775 57.8105 49.8325 57.7795 49.1743C58.2099 49.4854 58.7358 49.7902 59.364 50.0322L58.3535 51.0427ZM66.4576 45.9125C65.6061 47.3085 63.9546 48.7373 62.174 48.7373C61.8409 48.7373 61.5287 48.7135 61.2368 48.6713C61.2356 48.6711 61.2344 48.671 61.2333 48.6708C59.293 48.3889 58.2493 47.2862 57.9053 46.8496C57.887 46.8226 57.8089 46.7204 57.7973 46.7035C57.6926 46.5164 57.521 46.366 57.3022 46.2917L50.1589 43.8673C49.0189 43.4394 48.4163 42.4633 48.6925 41.4897C48.6927 41.4891 48.6929 41.4885 48.6931 41.4879C48.6933 41.4871 48.6935 41.4863 48.6937 41.4856C48.8221 41.0373 49.1169 40.6654 49.5245 40.4384C49.9293 40.2128 50.3973 40.1568 50.8437 40.2805L58.893 42.8313C59.3661 42.9814 59.8711 42.7193 60.0209 42.2462C60.1708 41.7732 59.9089 41.2683 59.4359 41.1183L53.034 39.0897L52.9782 39.0338C52.9776 39.0332 52.9771 39.0326 52.9765 39.0321L49.6621 35.7177L52.5109 34.6976C52.5205 34.6941 52.5324 34.6897 52.5419 34.6859C52.5443 34.6849 52.549 34.6831 52.5513 34.6821C52.5635 34.6772 52.5756 34.672 52.5875 34.6665C54.5134 33.7813 56.3441 34.3111 57.0617 34.5902C59.7734 35.8104 61.2208 36.6449 62.2782 37.2547C63.7485 38.1025 64.4569 38.5111 66.4576 38.6763V45.9125ZM69.8612 45.3721H68.2546V37.5159H69.8612V45.3721ZM75.2031 45.3721H71.6581V35.8417H75.2031V45.3721Z" fill="white"/>
</svg>
