<svg xmlns="http://www.w3.org/2000/svg" width="84" height="84" viewBox="0 0 84 84">
  <g id="Group_1402" data-name="Group 1402" transform="translate(134 -134)">
    <circle id="Ellipse_312" data-name="Ellipse 312" cx="42" cy="42" r="42" transform="translate(-134 134)" fill="#f0f1f5"/>
    <path id="Path_357" data-name="Path 357" d="M-67.878,177A32.706,32.706,0,0,0-65,165.373h-54c.066,4.144,1.436,8.1,2.875,11.667Z" fill="#fff"/>
    <path id="Path_358" data-name="Path 358" d="M-73.69,184.689A26.9,26.9,0,0,0-65,165.373h-54a26.975,26.975,0,0,0,26.975,26.5" fill="none" stroke="#14181e" stroke-linecap="round" stroke-linejoin="round" stroke-width="2"/>
    <line id="Line_56" data-name="Line 56" x2="47" transform="translate(-115.5 177)" fill="none" stroke="#14181e" stroke-linecap="square" stroke-linejoin="round" stroke-width="2"/>
    <path id="Path_359" data-name="Path 359" d="M-70,195a8.985,8.985,0,0,0-6.162,2.437v.014a2.373,2.373,0,0,0-.207.18A9.036,9.036,0,0,0-79,204a9,9,0,0,0-9-9,9.036,9.036,0,0,0,6.369-2.631,9.147,9.147,0,0,0,1.523-2.035A9,9,0,0,0-79,186a9.038,9.038,0,0,0,2.631,6.369A9.038,9.038,0,0,0-70,195Z" fill="#fff" stroke="#14181e" stroke-linecap="round" stroke-linejoin="round" stroke-width="2"/>
    <path id="Path_360" data-name="Path 360" d="M-102,154a5.984,5.984,0,0,0-4.108,1.625v.009a1.642,1.642,0,0,0-.138.12A6.025,6.025,0,0,0-108,160a6,6,0,0,0-6-6,6.025,6.025,0,0,0,4.246-1.754,6.124,6.124,0,0,0,1.016-1.357A6.006,6.006,0,0,0-108,148a6.025,6.025,0,0,0,1.754,4.246A6.025,6.025,0,0,0-102,154Z" fill="#fff" stroke="#14181e" stroke-linecap="round" stroke-linejoin="round" stroke-width="2"/>
  </g>
</svg>
