<svg xmlns="http://www.w3.org/2000/svg" width="175" height="28.361" viewBox="0 0 175 28.361">
  <g id="logo-instasmile-white" transform="translate(-234.768 -171.25)" style="isolation: isolate">
    <path id="Path_6" data-name="Path 6" d="M237.117,175.7a2.083,2.083,0,0,1-2.349-2.2,2.107,2.107,0,0,1,2.39-2.243,2.226,2.226,0,1,1-.04,4.447m-1.99,21.671V181.545c0-1.442.756-1.922,1.791-1.922h.4c1.035,0,1.752.44,1.752,1.922v15.823c0,1.442-.717,1.883-1.752,1.883h-.4c-1.035,0-1.791-.441-1.791-1.883m9,0V180.063a1.954,1.954,0,0,1,1.434-.44c1.155,0,2.349.6,2.469,3.124a7.41,7.41,0,0,1,6.372-3.406c5.056,0,7.406,3.485,7.406,8.252v9.774c0,1.442-.756,1.883-1.752,1.883h-.437c-1.036,0-1.752-.441-1.752-1.883v-9.293c0-3.246-1.633-5.248-4.42-5.248a5.785,5.785,0,0,0-5.375,3.365v11.176c0,1.442-.757,1.883-1.752,1.883h-.438c-1.035,0-1.752-.441-1.752-1.883m20.945-1.883a2.021,2.021,0,0,1,1.553-1.8,7.864,7.864,0,0,0,6.451,2.884c2.707,0,4.22-1,4.22-2.6,0-1.964-1.791-2.324-4.937-3-2.827-.6-6.729-1.482-6.729-5.568,0-3.6,2.985-6.049,7.645-6.049,4.9,0,7.367,2.084,7.367,3.886a2.1,2.1,0,0,1-1.594,1.843,6.912,6.912,0,0,0-5.614-2.724c-2.707,0-4.141,1.041-4.141,2.644,0,1.762,1.672,2.163,4.778,2.843,2.946.642,7.048,1.523,7.048,5.688,0,3.685-3.026,6.049-7.964,6.049-5.336,0-8.083-2.243-8.083-4.086m21.3-2.243V183.067h-1.393c-1.234,0-1.712-.521-1.712-1.482v-.28c0-.962.477-1.482,1.712-1.482h1.393v-2.964c0-1.363.678-1.883,1.752-1.883h.4c1.035,0,1.713.4,1.713,1.883v2.964h4.34c1.234,0,1.673.48,1.673,1.442v.28c0,1-.479,1.523-1.713,1.523h-4.34V192.8c0,2.4.676,3.564,2.548,3.564A3.233,3.233,0,0,0,295.45,195c.12-.12,1.115.441,1.115,1.683,0,1.482-1.631,2.924-4.459,2.924-3.941,0-5.734-2.2-5.734-6.37m12.225.8c0-4.447,4.22-6.369,12.861-6.529h.518v-.4c0-2.924-1.673-4.526-4.739-4.526a5.78,5.78,0,0,0-5.495,3.285c0,.039-2.429,0-2.429-1.923,0-1.843,2.786-4.607,8.2-4.607s8.362,2.8,8.362,7.691V198.85c0,.2-.717.44-1.434.44-1.393,0-2.388-.76-2.429-3.084a8.26,8.26,0,0,1-6.888,3.325c-4.1,0-6.53-2.2-6.53-5.488m3.862-.16c0,1.723,1.354,2.8,3.623,2.8,3.425,0,5.894-2.163,5.894-5.208V190l-1.076.04c-5.574.2-8.441,1.241-8.441,3.845m16.683,1.6a2.021,2.021,0,0,1,1.553-1.8,7.866,7.866,0,0,0,6.451,2.884c2.707,0,4.22-1,4.22-2.6,0-1.964-1.791-2.324-4.937-3-2.827-.6-6.729-1.482-6.729-5.568,0-3.6,2.987-6.049,7.645-6.049,4.9,0,7.367,2.084,7.367,3.886a2.1,2.1,0,0,1-1.594,1.843,6.91,6.91,0,0,0-5.614-2.724c-2.707,0-4.141,1.041-4.141,2.644,0,1.762,1.672,2.163,4.778,2.843,2.946.642,7.048,1.523,7.048,5.688,0,3.685-3.026,6.049-7.964,6.049-5.336,0-8.083-2.243-8.083-4.086m19.87,1.883V180.063a1.951,1.951,0,0,1,1.434-.44c1.115,0,2.309.561,2.468,2.964a7.1,7.1,0,0,1,5.933-3.246,6.215,6.215,0,0,1,6.252,4.046,7.521,7.521,0,0,1,6.65-4.046c4.857,0,7.207,2.964,7.207,7.932v10.094c0,1.442-.717,1.883-1.752,1.883h-.4c-1.074,0-1.791-.441-1.791-1.883v-9.613c0-3.246-1.395-4.928-4.221-4.928a5.594,5.594,0,0,0-4.857,3.205v11.336c0,1.442-.717,1.883-1.752,1.883h-.4c-1.035,0-1.793-.441-1.793-1.883v-9.453c0-3.406-1.393-5.088-4.22-5.088a5.537,5.537,0,0,0-4.818,3.205v11.336c0,1.442-.757,1.883-1.752,1.883h-.438c-1.035,0-1.751-.441-1.751-1.883M375.763,175.7a2.083,2.083,0,0,1-2.349-2.2,2.107,2.107,0,0,1,2.39-2.243,2.226,2.226,0,1,1-.04,4.447m-1.99,21.671V181.545c0-1.442.756-1.922,1.791-1.922h.4c1.036,0,1.752.44,1.752,1.922v15.823c0,1.442-.717,1.883-1.752,1.883h-.4c-1.035,0-1.791-.441-1.791-1.883m9.158,0V172.011a2.046,2.046,0,0,1,1.434-.44c1.234,0,2.508.64,2.508,3.4v22.392c0,1.442-.715,1.883-1.751,1.883h-.4c-1.035,0-1.793-.441-1.793-1.883m7.844-7.811c0-5.848,4.142-10.216,9.8-10.216,5.535,0,9.2,3.926,9.2,9.694v.321c0,.841-.278,1.161-1.194,1.161H394.438a6.255,6.255,0,0,0,6.53,5.969c3.344,0,5.017-1.482,6.012-3.205.081-.079,2.071.281,2.071,1.964s-2.946,4.366-8.163,4.366c-6.053,0-10.114-4.046-10.114-10.054m3.7-1.723h11.468c-.2-3.325-2.231-5.488-5.415-5.488a6.121,6.121,0,0,0-6.053,5.488" transform="translate(0 0)" fill="#fff"/>
    <path id="Path_7" data-name="Path 7" d="M237.117,175.7a2.083,2.083,0,0,1-2.349-2.2,2.107,2.107,0,0,1,2.39-2.243,2.226,2.226,0,1,1-.04,4.447m-1.99,21.671V181.545c0-1.442.756-1.922,1.791-1.922h.4c1.035,0,1.752.44,1.752,1.922v15.823c0,1.442-.717,1.883-1.752,1.883h-.4c-1.035,0-1.791-.441-1.791-1.883m9,0V180.063a1.954,1.954,0,0,1,1.434-.44c1.155,0,2.349.6,2.469,3.124a7.41,7.41,0,0,1,6.372-3.406c5.056,0,7.406,3.485,7.406,8.252v9.774c0,1.442-.756,1.883-1.752,1.883h-.437c-1.036,0-1.752-.441-1.752-1.883v-9.293c0-3.246-1.633-5.248-4.42-5.248a5.785,5.785,0,0,0-5.375,3.365v11.176c0,1.442-.757,1.883-1.752,1.883h-.438c-1.035,0-1.752-.441-1.752-1.883m20.945-1.883a2.021,2.021,0,0,1,1.553-1.8,7.864,7.864,0,0,0,6.451,2.884c2.707,0,4.22-1,4.22-2.6,0-1.964-1.791-2.324-4.937-3-2.827-.6-6.729-1.482-6.729-5.568,0-3.6,2.985-6.049,7.645-6.049,4.9,0,7.367,2.084,7.367,3.886a2.1,2.1,0,0,1-1.594,1.843,6.912,6.912,0,0,0-5.614-2.724c-2.707,0-4.141,1.041-4.141,2.644,0,1.762,1.672,2.163,4.778,2.843,2.946.642,7.048,1.523,7.048,5.688,0,3.685-3.026,6.049-7.964,6.049-5.336,0-8.083-2.243-8.083-4.086m21.3-2.243V183.067h-1.393c-1.234,0-1.712-.521-1.712-1.482v-.28c0-.962.477-1.482,1.712-1.482h1.393v-2.964c0-1.363.678-1.883,1.752-1.883h.4c1.035,0,1.713.4,1.713,1.883v2.964h4.34c1.234,0,1.673.48,1.673,1.442v.28c0,1-.479,1.523-1.713,1.523h-4.34V192.8c0,2.4.676,3.564,2.548,3.564A3.233,3.233,0,0,0,295.45,195c.12-.12,1.115.441,1.115,1.683,0,1.482-1.631,2.924-4.459,2.924-3.941,0-5.734-2.2-5.734-6.37m12.225.8c0-4.447,4.22-6.369,12.861-6.529h.518v-.4c0-2.924-1.673-4.526-4.739-4.526a5.78,5.78,0,0,0-5.495,3.285c0,.039-2.429,0-2.429-1.923,0-1.843,2.786-4.607,8.2-4.607s8.362,2.8,8.362,7.691V198.85c0,.2-.717.44-1.434.44-1.393,0-2.388-.76-2.429-3.084a8.26,8.26,0,0,1-6.888,3.325c-4.1,0-6.53-2.2-6.53-5.488m3.862-.16c0,1.723,1.354,2.8,3.623,2.8,3.425,0,5.894-2.163,5.894-5.208V190l-1.076.04c-5.574.2-8.441,1.241-8.441,3.845m16.683,1.6a2.021,2.021,0,0,1,1.553-1.8,7.866,7.866,0,0,0,6.451,2.884c2.707,0,4.22-1,4.22-2.6,0-1.964-1.791-2.324-4.937-3-2.827-.6-6.729-1.482-6.729-5.568,0-3.6,2.987-6.049,7.645-6.049,4.9,0,7.367,2.084,7.367,3.886a2.1,2.1,0,0,1-1.594,1.843,6.91,6.91,0,0,0-5.614-2.724c-2.707,0-4.141,1.041-4.141,2.644,0,1.762,1.672,2.163,4.778,2.843,2.946.642,7.048,1.523,7.048,5.688,0,3.685-3.026,6.049-7.964,6.049-5.336,0-8.083-2.243-8.083-4.086m19.87,1.883V180.063a1.951,1.951,0,0,1,1.434-.44c1.115,0,2.309.561,2.468,2.964a7.1,7.1,0,0,1,5.933-3.246,6.215,6.215,0,0,1,6.252,4.046,7.521,7.521,0,0,1,6.65-4.046c4.857,0,7.207,2.964,7.207,7.932v10.094c0,1.442-.717,1.883-1.752,1.883h-.4c-1.074,0-1.791-.441-1.791-1.883v-9.613c0-3.246-1.395-4.928-4.221-4.928a5.594,5.594,0,0,0-4.857,3.205v11.336c0,1.442-.717,1.883-1.752,1.883h-.4c-1.035,0-1.793-.441-1.793-1.883v-9.453c0-3.406-1.393-5.088-4.22-5.088a5.537,5.537,0,0,0-4.818,3.205v11.336c0,1.442-.757,1.883-1.752,1.883h-.438c-1.035,0-1.751-.441-1.751-1.883M375.763,175.7a2.083,2.083,0,0,1-2.349-2.2,2.107,2.107,0,0,1,2.39-2.243,2.226,2.226,0,1,1-.04,4.447m-1.99,21.671V181.545c0-1.442.756-1.922,1.791-1.922h.4c1.036,0,1.752.44,1.752,1.922v15.823c0,1.442-.717,1.883-1.752,1.883h-.4c-1.035,0-1.791-.441-1.791-1.883m9.158,0V172.011a2.046,2.046,0,0,1,1.434-.44c1.234,0,2.508.64,2.508,3.4v22.392c0,1.442-.715,1.883-1.751,1.883h-.4c-1.035,0-1.793-.441-1.793-1.883m7.844-7.811c0-5.848,4.142-10.216,9.8-10.216,5.535,0,9.2,3.926,9.2,9.694v.321c0,.841-.278,1.161-1.194,1.161H394.438a6.255,6.255,0,0,0,6.53,5.969c3.344,0,5.017-1.482,6.012-3.205.081-.079,2.071.281,2.071,1.964s-2.946,4.366-8.163,4.366c-6.053,0-10.114-4.046-10.114-10.054m3.7-1.723h11.468c-.2-3.325-2.231-5.488-5.415-5.488a6.121,6.121,0,0,0-6.053,5.488" transform="translate(0 0)" fill="#fff"/>
  </g>
</svg>
