<svg xmlns="http://www.w3.org/2000/svg" width="83.503" height="20.5" viewBox="0 0 83.503 20.5">
  <g id="trustpilot-vector-logo" transform="translate(-20.5 -248.5)">
    <path id="Path_21" data-name="Path 21" d="M178.114,300.7h8.448v1.573h-3.326v8.865h-1.823v-8.865H178.1l.014-1.573Zm8.086,2.881h1.559v1.461h.028a1.836,1.836,0,0,1,.292-.6,2.313,2.313,0,0,1,.515-.529,2.277,2.277,0,0,1,.668-.39,1.944,1.944,0,0,1,.738-.153c.195,0,.334.014.4.014a1.218,1.218,0,0,0,.223.028v1.6a2.821,2.821,0,0,0-.362-.056,3.161,3.161,0,0,0-.362-.028,1.932,1.932,0,0,0-.793.167,2.012,2.012,0,0,0-.654.487,2.638,2.638,0,0,0-.445.807,3.406,3.406,0,0,0-.167,1.113V311.1h-1.67l.028-7.515Zm12.08,7.557h-1.642V310.08h-.028a2.332,2.332,0,0,1-.919.919,2.424,2.424,0,0,1-1.239.348,2.756,2.756,0,0,1-2.157-.738,3.227,3.227,0,0,1-.668-2.227v-4.8h1.67v4.634a1.975,1.975,0,0,0,.39,1.406,1.374,1.374,0,0,0,1.072.417,2.053,2.053,0,0,0,.877-.167,1.512,1.512,0,0,0,.571-.431,1.693,1.693,0,0,0,.32-.654,3.091,3.091,0,0,0,.1-.821v-4.384h1.67v7.557Zm2.839-2.422a1.313,1.313,0,0,0,.557,1.03,2.191,2.191,0,0,0,1.155.292,3.824,3.824,0,0,0,.529-.042,2.331,2.331,0,0,0,.557-.139.979.979,0,0,0,.431-.306.713.713,0,0,0,.153-.515.749.749,0,0,0-.237-.529,1.971,1.971,0,0,0-.557-.334,4.825,4.825,0,0,0-.779-.209c-.292-.056-.585-.125-.891-.195s-.612-.153-.9-.25a2.591,2.591,0,0,1-.779-.4,1.736,1.736,0,0,1-.543-.64,2,2,0,0,1-.209-.96,1.646,1.646,0,0,1,.306-1.03,2.22,2.22,0,0,1,.765-.668,3.476,3.476,0,0,1,1.03-.362,5.9,5.9,0,0,1,1.072-.1,4.785,4.785,0,0,1,1.113.125,2.815,2.815,0,0,1,.96.4,2.206,2.206,0,0,1,.71.724,2.507,2.507,0,0,1,.362,1.072h-1.74a1.071,1.071,0,0,0-.543-.807,2.241,2.241,0,0,0-.988-.209c-.111,0-.264.014-.418.028a2.462,2.462,0,0,0-.459.111,1.089,1.089,0,0,0-.362.237.557.557,0,0,0-.153.4.612.612,0,0,0,.209.487,1.893,1.893,0,0,0,.557.32,4.83,4.83,0,0,0,.779.209c.292.056.6.125.9.195s.6.153.891.25a2.439,2.439,0,0,1,.779.4,2.008,2.008,0,0,1,.557.626,1.924,1.924,0,0,1,.209.932,2.029,2.029,0,0,1-.306,1.141,2.6,2.6,0,0,1-.793.765,3.936,3.936,0,0,1-1.086.431,5.831,5.831,0,0,1-1.183.139,4.986,4.986,0,0,1-1.322-.167,3.367,3.367,0,0,1-1.058-.487,2.336,2.336,0,0,1-.7-.821,2.681,2.681,0,0,1-.278-1.169h1.684v.014Zm5.5-5.135h1.266V301.3h1.67v2.268h1.5v1.239h-1.5v4.036a4.285,4.285,0,0,0,.028.459.965.965,0,0,0,.1.32.543.543,0,0,0,.237.195,1.241,1.241,0,0,0,.445.07,2.9,2.9,0,0,0,.348-.014,3.007,3.007,0,0,0,.348-.056v1.294c-.181.028-.362.042-.543.056a3.458,3.458,0,0,1-.543.028,3.6,3.6,0,0,1-1.058-.125,1.521,1.521,0,0,1-.626-.362,1.294,1.294,0,0,1-.306-.6,4.753,4.753,0,0,1-.1-.835v-4.454h-1.266v-1.266h0Zm5.609,0H213.8v1.03h.028a2.068,2.068,0,0,1,.974-.946,3.156,3.156,0,0,1,1.364-.292,3.429,3.429,0,0,1,1.559.32,2.925,2.925,0,0,1,1.1.863,3.6,3.6,0,0,1,.654,1.28,5.622,5.622,0,0,1,.028,3.034,4.094,4.094,0,0,1-.6,1.266,2.96,2.96,0,0,1-1.016.877,3,3,0,0,1-1.447.334,4.245,4.245,0,0,1-.724-.07,3.082,3.082,0,0,1-.7-.209,2.5,2.5,0,0,1-.612-.376,2.119,2.119,0,0,1-.473-.529h-.028v3.772h-1.67V303.581Zm5.831,3.785a3.389,3.389,0,0,0-.139-.988,2.521,2.521,0,0,0-.4-.849,2.226,2.226,0,0,0-.654-.6,1.781,1.781,0,0,0-.9-.223,1.848,1.848,0,0,0-1.587.724,3.3,3.3,0,0,0-.529,1.948,3.606,3.606,0,0,0,.139,1.058,2.356,2.356,0,0,0,.418.835,1.988,1.988,0,0,0,.668.557,1.887,1.887,0,0,0,.9.209,1.851,1.851,0,0,0,.96-.237,2.243,2.243,0,0,0,.654-.6,2.449,2.449,0,0,0,.362-.849,4.777,4.777,0,0,0,.111-.988Zm2.937-6.666h1.67v1.573h-1.67Zm0,2.881h1.67v7.557h-1.67v-7.557Zm3.159-2.881h1.67v10.438h-1.67V300.7Zm6.764,10.647a3.977,3.977,0,0,1-1.614-.306,3.665,3.665,0,0,1-1.2-.821,3.575,3.575,0,0,1-.738-1.267,4.947,4.947,0,0,1-.264-1.6,4.521,4.521,0,0,1,.264-1.587,3.7,3.7,0,0,1,.738-1.267,3.339,3.339,0,0,1,1.2-.821,4.225,4.225,0,0,1,1.614-.306,3.977,3.977,0,0,1,1.614.306,3.464,3.464,0,0,1,1.2.821,3.575,3.575,0,0,1,.738,1.267,4.863,4.863,0,0,1,.264,1.587,4.545,4.545,0,0,1-.264,1.6,3.941,3.941,0,0,1-.738,1.267,3.338,3.338,0,0,1-1.2.821,4.173,4.173,0,0,1-1.614.306Zm0-1.322a1.925,1.925,0,0,0,.96-.237,2.015,2.015,0,0,0,.668-.612,2.622,2.622,0,0,0,.39-.849,3.8,3.8,0,0,0,0-1.934,2.494,2.494,0,0,0-.39-.849,2.113,2.113,0,0,0-.668-.6,1.963,1.963,0,0,0-.96-.237,1.925,1.925,0,0,0-.96.237,2.131,2.131,0,0,0-.668.6,2.5,2.5,0,0,0-.39.849,3.8,3.8,0,0,0,0,1.934,2.5,2.5,0,0,0,.39.849,2.16,2.16,0,0,0,.668.612,1.823,1.823,0,0,0,.96.237Zm4.314-6.444H236.5V301.3h1.67v2.268h1.5v1.239h-1.5v4.036a4.294,4.294,0,0,0,.028.459.963.963,0,0,0,.1.32.543.543,0,0,0,.237.195,1.241,1.241,0,0,0,.445.07,2.9,2.9,0,0,0,.348-.014,3.009,3.009,0,0,0,.348-.056v1.294c-.181.028-.362.042-.543.056a3.458,3.458,0,0,1-.543.028,3.6,3.6,0,0,1-1.058-.125,1.52,1.52,0,0,1-.626-.362,1.294,1.294,0,0,1-.306-.6,4.748,4.748,0,0,1-.1-.835v-4.454H235.23v-1.266h0Z" transform="translate(-135.667 -44.935)"/>
    <path id="Path_22" data-name="Path 22" d="M40.5,255.765H32.858L30.506,248.5l-2.366,7.265-7.641-.014,6.179,4.5-2.366,7.265,6.179-4.5,6.179,4.5-2.352-7.265Z" fill="#00b67a"/>
    <path id="Path_23" data-name="Path 23" d="M96.742,334.542l-.529-1.642L92.4,335.67Z" transform="translate(-61.894 -72.654)" fill="#005128"/>
  </g>
</svg>
