<svg width="27" height="27" viewBox="0 0 27 27" fill="none" xmlns="http://www.w3.org/2000/svg">
<rect x="0.5" y="0.5" width="26" height="26" stroke="#CCCCCC"/>
<path d="M15.6344 21.8838C15.5562 21.8871 15.5063 21.8938 15.4563 21.8938C14.3875 21.8938 13.3219 21.8904 12.2531 21.8971C12.1031 21.8971 12.0625 21.8539 12.0625 21.6945C12.0656 19.0516 12.0656 16.4053 12.0656 13.7623C12.0656 13.6926 12.0656 13.6229 12.0656 13.5332C11.4844 13.5332 10.9187 13.5332 10.3438 13.5332C10.3438 12.5902 10.3438 11.6639 10.3438 10.7109C10.4031 10.7109 10.4594 10.7109 10.5125 10.7109C10.9812 10.7109 11.45 10.7076 11.9187 10.7143C12.0375 10.7143 12.0687 10.6777 12.0687 10.5549C12.0625 9.81446 12.0625 9.07071 12.0687 8.33028C12.0719 7.81231 12.15 7.30763 12.375 6.83946C12.6969 6.17872 13.2062 5.7504 13.85 5.48477C14.375 5.26563 14.9281 5.18595 15.4844 5.17598C16.3906 5.1627 17.2969 5.16934 18.2031 5.16602C18.2875 5.16602 18.3562 5.1627 18.3562 5.28888C18.3531 6.20196 18.3531 7.11505 18.3531 8.02813C18.3531 8.03809 18.35 8.04806 18.3375 8.09122C18.2844 8.09122 18.225 8.09122 18.1656 8.09122C17.6031 8.09122 17.0406 8.0879 16.4781 8.09122C16.1531 8.09122 15.8906 8.23067 15.725 8.53282C15.675 8.62247 15.6438 8.73868 15.6438 8.84493C15.6344 9.40938 15.6437 9.97384 15.6375 10.5383C15.6375 10.6711 15.675 10.7076 15.7969 10.7076C16.5781 10.701 17.3594 10.7043 18.1406 10.7043C18.2031 10.7043 18.2625 10.7043 18.3687 10.7043C18.2594 11.6539 18.1531 12.5836 18.0437 13.5233C17.2312 13.5233 16.4406 13.5233 15.6344 13.5233C15.6344 16.3156 15.6344 19.0914 15.6344 21.8838Z" fill="#D3D3D3"/>
</svg>
