<svg width="27" height="27" viewBox="0 0 27 27" fill="none" xmlns="http://www.w3.org/2000/svg">
<rect x="0.5" y="0.5" width="26" height="26" stroke="#CCCCCC"/>
<path d="M13.4974 8.62558C10.8 8.62558 8.62312 10.8026 8.62312 13.5C8.62312 16.1974 10.8 18.3744 13.4974 18.3744C16.1948 18.3744 18.3718 16.1974 18.3718 13.5C18.3718 10.8026 16.1948 8.62558 13.4974 8.62558ZM13.4974 16.668C11.753 16.668 10.3295 15.2444 10.3295 13.5C10.3295 11.7556 11.753 10.332 13.4974 10.332C15.2418 10.332 16.6654 11.7556 16.6654 13.5C16.6654 15.2444 15.2418 16.668 13.4974 16.668ZM18.5714 7.28993C17.9416 7.28993 17.433 7.79852 17.433 8.42832C17.433 9.05812 17.9416 9.56672 18.5714 9.56672C19.2012 9.56672 19.7098 9.0605 19.7098 8.42832C19.71 8.27877 19.6806 8.13066 19.6235 7.99246C19.5664 7.85426 19.4825 7.72869 19.3768 7.62294C19.271 7.51719 19.1455 7.43335 19.0073 7.3762C18.8691 7.31906 18.721 7.28974 18.5714 7.28993ZM22.9989 13.5C22.9989 12.1881 23.0108 10.8881 22.9371 9.5786C22.8635 8.05757 22.5165 6.70766 21.4043 5.59541C20.2897 4.48078 18.9421 4.13617 17.4211 4.0625C16.1093 3.98882 14.8093 4.00071 13.4998 4.00071C12.188 4.00071 10.888 3.98882 9.5785 4.0625C8.0575 4.13617 6.70761 4.48316 5.59538 5.59541C4.48077 6.71004 4.13617 8.05757 4.0625 9.5786C3.98882 10.8905 4.00071 12.1905 4.00071 13.5C4.00071 14.8095 3.98882 16.1119 4.0625 17.4214C4.13617 18.9424 4.48315 20.2923 5.59538 21.4046C6.70999 22.5192 8.0575 22.8638 9.5785 22.9375C10.8904 23.0112 12.1903 22.9993 13.4998 22.9993C14.8117 22.9993 16.1117 23.0112 17.4211 22.9375C18.9421 22.8638 20.292 22.5168 21.4043 21.4046C22.5189 20.29 22.8635 18.9424 22.9371 17.4214C23.0132 16.1119 22.9989 14.8119 22.9989 13.5ZM20.9076 19.104C20.7341 19.5366 20.5249 19.8598 20.1898 20.1925C19.8547 20.5276 19.5339 20.7368 19.1014 20.9103C17.8513 21.407 14.883 21.2953 13.4974 21.2953C12.1119 21.2953 9.14121 21.407 7.89114 20.9126C7.4586 20.7391 7.13539 20.53 6.80267 20.1949C6.46758 19.8598 6.25844 19.539 6.08495 19.1064C5.59063 17.8539 5.70232 14.8856 5.70232 13.5C5.70232 12.1144 5.59063 9.14368 6.08495 7.89359C6.25844 7.46104 6.46758 7.13783 6.80267 6.8051C7.13777 6.47238 7.4586 6.26086 7.89114 6.08737C9.14121 5.59303 12.1119 5.70473 13.4974 5.70473C14.883 5.70473 17.8537 5.59303 19.1038 6.08737C19.5363 6.26086 19.8595 6.47 20.1922 6.8051C20.5273 7.1402 20.7365 7.46104 20.9099 7.89359C21.4043 9.14368 21.2926 12.1144 21.2926 13.5C21.2926 14.8856 21.4043 17.8539 20.9076 19.104Z" fill="#D3D3D3"/>
</svg>
