<svg width="27" height="27" viewBox="0 0 27 27" fill="none" xmlns="http://www.w3.org/2000/svg">
<rect x="0.5" y="0.5" width="26" height="26" stroke="#CCCCCC"/>
<path d="M12.8459 16.1498C12.7828 16.4055 12.7264 16.6312 12.6699 16.857C12.6068 17.116 12.5471 17.375 12.4873 17.634C12.4143 17.9494 12.3578 18.2682 12.2649 18.5736C12.132 19.0086 11.9992 19.4436 11.8199 19.8586C11.6539 20.2404 11.4348 20.6023 11.2256 20.9643C11.0529 21.2598 10.857 21.5453 10.6645 21.8309C10.6346 21.874 10.5516 21.9172 10.5151 21.9039C10.4686 21.8873 10.4154 21.8143 10.4088 21.7611C10.2826 20.7551 10.2162 19.7424 10.349 18.733C10.4022 18.3246 10.5117 17.9262 10.5947 17.5211C10.6479 17.2555 10.701 16.9865 10.7574 16.7176C10.8272 16.3889 10.9002 16.0568 10.9733 15.7281C11.0795 15.2434 11.1891 14.7619 11.2986 14.2771C11.3883 13.8887 11.4746 13.4969 11.5709 13.1084C11.6174 12.9225 11.5211 12.7697 11.4779 12.6037C11.3352 12.0326 11.2455 11.4648 11.3518 10.8705C11.4281 10.4422 11.541 10.0338 11.7834 9.67187C12.0988 9.20039 12.5238 8.8916 13.1248 8.9248C13.6395 8.95469 13.9981 9.29004 14.1309 9.76484C14.2803 10.2895 14.2139 10.8141 14.0777 11.332C13.9317 11.8965 13.7756 12.4543 13.6328 13.0187C13.5432 13.3707 13.4137 13.7227 13.3938 14.0812C13.3639 14.6158 13.5731 15.084 14.0412 15.3861C14.4131 15.6252 14.8082 15.6717 15.2465 15.5654C15.8276 15.4227 16.2293 15.0607 16.568 14.6025C16.9697 14.0613 17.1955 13.4471 17.3715 12.7996C17.5873 11.9961 17.6703 11.1859 17.6537 10.3592C17.6404 9.59551 17.4379 8.88828 17.0063 8.25742C16.6809 7.78594 16.2526 7.43398 15.7213 7.20156C15.3826 7.05215 15.0473 6.92266 14.6754 6.90605C14.2736 6.88945 13.8686 6.81973 13.4735 6.85957C12.2815 6.98906 11.2953 7.51367 10.5516 8.46992C10.2561 8.85176 10.0203 9.2668 9.86427 9.71504C9.62521 10.4057 9.51896 11.1228 9.58868 11.8566C9.63849 12.3713 9.7879 12.866 10.1266 13.2645C10.359 13.5367 10.3158 13.8023 10.2361 14.0945C10.193 14.2473 10.1531 14.4 10.1199 14.5561C10.0635 14.835 9.90743 14.9777 9.58536 14.8217C8.94122 14.5096 8.53282 13.9949 8.24728 13.3574C7.84884 12.4643 7.77911 11.5213 7.87208 10.5717C7.98165 9.4959 8.39669 8.52305 9.03419 7.6498C9.49572 7.01894 10.0701 6.50762 10.7408 6.10586C11.2654 5.79043 11.8233 5.56797 12.4143 5.41523C13.1813 5.21601 13.9582 5.15625 14.7385 5.21934C15.3229 5.26582 15.8873 5.40527 16.4352 5.63105C17.3815 6.02285 18.1551 6.62383 18.7594 7.44394C19.118 7.93203 19.3936 8.4666 19.5729 9.05098C19.6791 9.39629 19.7688 9.7416 19.7787 10.1035C19.792 10.5119 19.8385 10.9203 19.8152 11.3221C19.792 11.7504 19.7057 12.1787 19.6393 12.6037C19.5297 13.3076 19.294 13.9717 18.9785 14.6059C18.7063 15.1504 18.3643 15.6451 17.9227 16.0734C17.4777 16.5051 16.9664 16.8271 16.382 17.0396C15.8276 17.2422 15.2598 17.3152 14.682 17.2455C13.9947 17.1592 13.4137 16.8504 12.9787 16.2926C12.9488 16.2594 12.9024 16.2129 12.8459 16.1498Z" fill="#D3D3D3"/>
</svg>
