<svg width="27" height="27" viewBox="0 0 27 27" fill="none" xmlns="http://www.w3.org/2000/svg">
<rect x="0.5" y="0.5" width="26" height="26" stroke="#CCCCCC"/>
<path d="M4.02416 19.0375C5.94294 19.2151 7.67191 18.7177 9.24558 17.5028C7.59943 17.3536 6.49855 16.5081 5.88427 14.9236C6.42263 14.9911 6.92648 15.0089 7.46139 14.8597C5.68756 14.2913 4.74197 13.0976 4.61429 11.1722C5.14575 11.4279 5.64615 11.6127 6.23627 11.6198C5.18371 10.8062 4.64534 9.75114 4.66605 8.42249C4.6764 7.81145 4.83515 7.23594 5.1492 6.6924C7.09903 9.04063 9.54582 10.3409 12.5586 10.5576C12.5413 10.4226 12.531 10.316 12.5172 10.2059C12.2687 8.23775 13.5111 6.44727 15.4091 6.07426C16.5997 5.83979 17.6523 6.16307 18.5427 7.00858C18.6807 7.13647 18.7981 7.16489 18.9706 7.1187C19.6643 6.93753 20.3234 6.67464 20.9619 6.31938C20.7168 7.15068 20.213 7.77592 19.5297 8.3017C19.685 8.27328 19.8437 8.25197 19.999 8.21999C20.1612 8.18447 20.3234 8.14539 20.4856 8.09921C20.6409 8.05658 20.7928 8.00684 20.9446 7.95355C21.0999 7.90026 21.2552 7.83987 21.4381 7.8079C21.3484 7.93579 21.2621 8.07079 21.1655 8.19512C20.7652 8.71735 20.3027 9.17563 19.7954 9.58417C19.7436 9.6268 19.6988 9.71916 19.7022 9.78311C19.7298 11.0443 19.5573 12.2734 19.1604 13.4671C18.3805 15.8189 17.0208 17.723 14.9812 19.0837C13.9735 19.7551 12.8726 20.1956 11.6958 20.4514C10.5294 20.7036 9.35601 20.7498 8.17921 20.6077C6.99895 20.4656 5.87737 20.1068 4.82135 19.5455C4.54181 19.3998 4.27263 19.2364 4 19.0801C4.01035 19.0659 4.01726 19.0517 4.02416 19.0375Z" fill="#D3D3D3"/>
</svg>
