<svg width="16" height="15" viewBox="0 0 16 15" fill="none" xmlns="http://www.w3.org/2000/svg">
<g clip-path="url(#clip0_9_969)">
<path d="M8.25599 0.160156C4.17287 0.160156 0.864014 3.4699 0.864014 7.55213C0.864014 11.6348 4.17329 14.9441 8.25599 14.9441C12.3382 14.9441 15.6475 11.6348 15.6475 7.55213C15.6475 3.47036 12.3382 0.160156 8.25599 0.160156ZM8.25599 13.5581C4.93886 13.5581 2.25003 10.8693 2.25003 7.55213C2.25003 4.235 4.93932 1.54617 8.25599 1.54617C11.5727 1.54617 14.2615 4.235 14.2615 7.55213C14.2615 10.8693 11.5727 13.5581 8.25599 13.5581ZM11.1611 4.40778C10.8469 4.22022 10.4454 4.33154 10.2648 4.65725L7.78614 9.10953L6.40571 7.42923C6.15577 7.14141 5.82361 6.9922 5.5099 7.17976C5.19572 7.36778 5.06589 7.8201 5.26921 8.11025L7.19019 10.4484C7.33387 10.635 7.49786 10.7469 7.66929 10.7788L7.67069 10.7816L7.68826 10.7825C7.72707 10.7885 8.30736 10.8957 8.5573 10.4485L11.4023 5.33832C11.5828 5.01205 11.4752 4.5958 11.1611 4.40778Z" fill="#0084FF"/>
</g>
<defs>
<clipPath id="clip0_9_969">
<rect width="14.7839" height="14.7839" fill="white" transform="translate(0.86145 0.160156)"/>
</clipPath>
</defs>
</svg>
