<svg width="70" height="69" viewBox="0 0 70 69" fill="none" xmlns="http://www.w3.org/2000/svg">
<path d="M66.8419 42.5801C66.8419 49.3406 62.1585 54.8966 55.3481 58.8351C48.5611 62.76 39.941 64.8945 32.7435 64.8945C25.5838 64.8945 20.244 62.7861 16.6868 59.0552C13.1206 55.315 11.1813 49.7717 11.1813 42.5801C11.1813 35.311 12.6562 27.4454 15.8808 21.4458C19.089 15.4768 23.9324 11.4904 30.7377 11.4904C37.7363 11.4904 46.7989 15.6782 54.1706 21.8158C61.5695 27.9758 66.8419 35.7414 66.8419 42.5801Z" stroke="#E72890" stroke-width="2.50723"/>
<path d="M64.0359 31.4369C65.8027 38.4978 62.3237 45.3727 56.5564 50.9594C50.7931 56.5423 42.7902 60.7892 35.6445 62.5772C28.506 64.3634 22.5161 63.6233 17.8709 60.6848C13.2236 57.745 9.88196 52.5793 8.09422 45.4348C6.30271 38.2751 5.7997 30.1113 7.52372 23.3022C9.24604 16.4998 13.1789 11.0804 20.2485 9.31144C27.3557 7.53306 37.4163 9.49252 46.1658 13.7093C54.9217 17.9292 62.2653 24.3607 64.0359 31.4369Z" stroke="#970D50" stroke-width="0.501447"/>
</svg>
