<svg width="22" height="22" viewBox="0 0 22 22" fill="none" xmlns="http://www.w3.org/2000/svg">
<circle cx="11" cy="11" r="11" fill="#0084FF"/>
<path d="M7.04166 9.375C6.4675 9.375 6 9.8425 6 10.4167V13.75C6 14.3242 6.4675 14.7917 7.04166 14.7917H8.29166C8.52625 14.7917 8.74207 14.7125 8.91666 14.5808V9.375H7.04166Z" fill="white"/>
<path d="M16 10.9372C16 10.6868 15.9008 10.4534 15.7287 10.2813C15.9233 10.0684 16.0225 9.78299 15.9954 9.48592C15.9466 8.95633 15.4696 8.54133 14.9087 8.54133H12.335C12.4625 8.15424 12.6666 7.44467 12.6666 6.87467C12.6666 5.97092 11.8987 5.20801 11.4166 5.20801C10.9837 5.20801 10.6746 5.45176 10.6612 5.46176C10.6121 5.50135 10.5833 5.56135 10.5833 5.62467V7.03758L9.38333 9.63717L9.33333 9.66258V14.1284C9.67249 14.2884 10.1016 14.3747 10.375 14.3747H14.1996C14.6533 14.3747 15.0504 14.0688 15.1437 13.6468C15.1916 13.4297 15.1637 13.2109 15.0683 13.0209C15.3762 12.8659 15.5833 12.5488 15.5833 12.1872C15.5833 12.0397 15.5496 11.8984 15.4854 11.7705C15.7933 11.6155 16 11.2984 16 10.9372Z" fill="white"/>
</svg>
