<svg width="31" height="30" viewBox="0 0 31 30" fill="none" xmlns="http://www.w3.org/2000/svg">
<g clip-path="url(#clip0)">
<path d="M29.0136 16.243C29.6785 15.4814 30.011 14.5809 30.011 13.541C30.011 12.5981 29.666 11.7822 28.9783 11.0927C28.2893 10.4033 27.4733 10.0588 26.5304 10.0588H21.5075C21.5558 9.88962 21.6042 9.74455 21.6524 9.62368C21.7003 9.50281 21.7675 9.36968 21.8517 9.22461C21.9361 9.07948 21.9967 8.97062 22.0329 8.89821C22.2504 8.48739 22.417 8.14866 22.5319 7.88292C22.6467 7.61666 22.761 7.25412 22.8762 6.79471C22.9912 6.33556 23.0484 5.87596 23.0484 5.41655C23.0484 5.12654 23.0449 4.89058 23.0392 4.70938C23.0335 4.52804 23.0027 4.25594 22.9488 3.8932C22.894 3.53066 22.8214 3.22839 22.7309 2.98671C22.6401 2.74498 22.4949 2.47275 22.2958 2.17073C22.0962 1.86815 21.8545 1.62368 21.5702 1.43618C21.2859 1.24881 20.9233 1.09167 20.4821 0.964833C20.0404 0.837866 19.542 0.774414 18.9855 0.774414C18.6713 0.774414 18.3995 0.889313 18.1696 1.11905C17.9278 1.36079 17.722 1.66299 17.5529 2.02554C17.3836 2.38827 17.2656 2.70261 17.1991 2.96868C17.1326 3.23461 17.0569 3.60345 16.9726 4.07479C16.8634 4.58279 16.7822 4.94826 16.7275 5.17189C16.6731 5.39553 16.5671 5.68865 16.4101 6.05126C16.2527 6.41413 16.0656 6.70407 15.8479 6.9218C15.449 7.32068 14.8386 8.04609 14.0163 9.09777C13.4238 9.87139 12.8133 10.6028 12.1847 11.2919C11.556 11.9812 11.0966 12.3378 10.8066 12.3619C10.5045 12.3861 10.2446 12.51 10.0269 12.7338C9.80924 12.9574 9.70044 13.2204 9.70044 13.5226V25.1465C9.70044 25.4608 9.81521 25.7297 10.0449 25.9533C10.2746 26.1772 10.5466 26.295 10.8609 26.3072C11.284 26.3193 12.2391 26.585 13.7262 27.1053C14.6569 27.4191 15.3852 27.6583 15.9111 27.8213C16.4369 27.9842 17.1718 28.1597 18.1141 28.3473C19.0572 28.5346 19.9275 28.6285 20.7252 28.6285H21.0335H22.4118H23.0645C24.6728 28.6044 25.863 28.1327 26.637 27.2142C27.338 26.3799 27.634 25.2858 27.5256 23.9318C27.997 23.4845 28.3237 22.9165 28.5048 22.2273C28.71 21.4902 28.71 20.7829 28.5048 20.1061C29.0608 19.3686 29.3208 18.5405 29.2842 17.6217C29.2858 17.2344 29.1953 16.7751 29.0136 16.243Z" fill="#0084FF"/>
<path d="M7.37962 12.3799H2.15714C1.84262 12.3799 1.57058 12.4948 1.34091 12.7245C1.11124 12.9541 0.996338 13.2262 0.996338 13.5405V25.1468C0.996338 25.4607 1.11124 25.7328 1.34097 25.9628C1.57083 26.1921 1.84287 26.3071 2.15721 26.3071H7.37962C7.6939 26.3071 7.9658 26.1921 8.1956 25.9628C8.42527 25.7328 8.54011 25.4607 8.54011 25.1468V13.5405C8.54011 13.2262 8.42521 12.9542 8.1956 12.7245C7.96587 12.4947 7.69396 12.3799 7.37962 12.3799ZM5.2941 23.6503C5.06443 23.8739 4.79245 23.9857 4.47812 23.9857C4.15165 23.9857 3.87656 23.8739 3.65305 23.6503C3.42942 23.4267 3.31763 23.1517 3.31763 22.8252C3.31763 22.511 3.42935 22.2389 3.65305 22.0092C3.87663 21.7795 4.15165 21.6645 4.47812 21.6645C4.79245 21.6645 5.06443 21.7795 5.2941 22.0092C5.52383 22.2388 5.63873 22.5109 5.63873 22.8252C5.63873 23.1517 5.52409 23.4266 5.2941 23.6503Z" fill="#0084FF"/>
</g>
<defs>
<clipPath id="clip0">
<rect width="29.0147" height="29.0147" fill="white" transform="translate(0.996338 0.194336)"/>
</clipPath>
</defs>
</svg>
