<?xml version="1.0" encoding="utf-8"?>
<!-- Generator: Adobe Illustrator 18.0.0, SVG Export Plug-In . SVG Version: 6.00 Build 0)  -->
<!DOCTYPE svg PUBLIC "-//W3C//DTD SVG 1.1//EN" "http://www.w3.org/Graphics/SVG/1.1/DTD/svg11.dtd">
<svg version="1.1" id="Calque_1" xmlns="http://www.w3.org/2000/svg" xmlns:xlink="http://www.w3.org/1999/xlink" x="0px" y="0px"
	 viewBox="0 0 200 200" enable-background="new 0 0 200 200" xml:space="preserve">
<path fill="#FFFFFF" d="M199.2,38.4c-7.3,3.2-15.2,5.4-23.4,6.4c8.4-5,14.9-13,17.9-22.5c-7.9,4.7-16.6,8-25.9,9.9
	c-7.4-7.9-18-12.9-29.7-12.9c-22.5,0-40.7,18.2-40.7,40.7c0,3.2,0.3,6.3,1,9.3c-33.8-1.7-63.8-17.9-83.9-42.6
	c-3.5,6-5.5,13-5.5,20.5c0,14.1,7.2,26.6,18.1,33.9c-6.7-0.2-13-2-18.5-5.1v0.5c0,19.7,14,36.2,32.7,39.9c-3.4,1-7,1.4-10.7,1.4
	c-2.6,0-5.2-0.2-7.7-0.7c5.2,16.2,20.2,28,38,28.3c-13.9,10.9-31.5,17.4-50.6,17.4c-3.3,0-6.5-0.2-9.7-0.6
	c18,11.5,39.4,18.3,62.4,18.3c74.9,0,115.9-62.1,115.9-115.9c0-1.8,0-3.5-0.1-5.3C186.9,53.8,193.8,46.6,199.2,38.4"/>
</svg>
