<?xml version="1.0" encoding="utf-8"?><svg viewBox="0 0 103 103" xmlns="http://www.w3.org/2000/svg" xmlns:xlink="http://www.w3.org/1999/xlink"><style>:root>svg{display:none}:root>svg:target{display:block}</style><svg fill="none" viewBox="0 0 98 98" id="call" xmlns="http://www.w3.org/2000/svg"><rect y="48.952" width="69.228" height="69.228" rx="34.614" transform="rotate(-45 0 48.952)" fill="#60A8FF"/><path d="M52.797 47.47c.364 0 .66-.29.66-.645a.652.652 0 00-.66-.644.652.652 0 00-.659.644c0 .356.295.645.66.645zM46.207 47.47c.363 0 .659-.29.659-.645a.652.652 0 00-.66-.644.652.652 0 00-.659.644c0 .356.295.645.66.645z" fill="#fff"/><path d="M35 62.942v1.414c0 .356.295.645.66.645h27.68c.365 0 .66-.289.66-.645v-1.415c0-2.564-1.472-4.933-4.197-5.905a4.48 4.48 0 001.583-3.406.652.652 0 00-.66-.645c-1.584 0-2.92-1.096-3.242-2.55h1.904c1.09 0 1.976-.868 1.976-1.934v-2.965a1.94 1.94 0 00-1.319-1.823v-1.4c0-5.686-4.73-10.312-10.543-10.312-5.827 0-10.547 4.612-10.547 10.313v1.4c-.767.267-1.319.983-1.319 1.822v2.965c0 1.066.888 1.934 1.98 1.934h1.9c-.32 1.454-1.656 2.55-3.24 2.55a.652.652 0 00-.659.645c0 1.334.6 2.568 1.588 3.41C36.49 58.012 35 60.404 35 62.941zm25.012-8.721a3.248 3.248 0 01-2.028 2.41l-3.993-.507-.427-1.63a7.787 7.787 0 002.902-2.964 4.644 4.644 0 003.546 2.69zm-5.227-10.618c-1.821 0-3.303-1.467-3.303-3.27a.652.652 0 00-.659-.645.652.652 0 00-.659.645c0 1.803-1.481 3.27-3.302 3.27h-3.95c0-3.554 2.956-6.446 6.59-6.446 3.641 0 6.591 2.882 6.591 6.446h-1.308zm-11.876 1.289h3.953c1.68 0 3.152-.889 3.961-2.215a4.635 4.635 0 003.962 2.215h1.306v2.964c0 2.438-1.38 4.64-3.603 5.748a6.636 6.636 0 01-2.986.698 6.644 6.644 0 01-4.662-1.888 6.33 6.33 0 01-1.93-4.558v-2.964zm3.752 10.185c.902.34 1.855.514 2.841.514.99 0 1.947-.175 2.853-.52l.418 1.6c-.22 1.596-1.604 2.787-3.265 2.787-1.66 0-3.044-1.19-3.265-2.785l.417-1.596zM60.044 48.5a.652.652 0 01-.657.645H57.41v-4.254h1.98c.362 0 .656.289.656.644v2.965zM49.502 33.29c5.087 0 9.225 4.048 9.225 9.023v1.29h-1.316c0-4.274-3.537-7.735-7.909-7.735-4.361 0-7.909 3.47-7.909 7.734h-1.32v-1.288c0-4.986 4.128-9.024 9.23-9.024zM38.955 48.501v-2.965c0-.355.296-.644.66-.644h1.976v4.253h-1.975a.654.654 0 01-.661-.644zm3.58 3.027A7.888 7.888 0 0045.45 54.5l-.424 1.625-4.004.508a3.25 3.25 0 01-2.03-2.411 4.642 4.642 0 003.543-2.693zm-1.583 6.413l.073-.01h.002l4.029-.51c.533 1.939 2.332 3.326 4.453 3.326 2.12 0 3.919-1.387 4.452-3.327l4.103.521c2.89.367 4.618 2.485 4.618 5v.77H36.318v-.77c0-2.467 1.728-4.631 4.634-5z" fill="#fff"/><path d="M47.74 51.9a4.18 4.18 0 001.762.384c.601 0 1.182-.124 1.728-.368a.638.638 0 00.324-.855.665.665 0 00-.874-.317 2.858 2.858 0 01-1.178.251c-.42 0-.824-.088-1.2-.261a.665.665 0 00-.877.308.638.638 0 00.315.858zM55.434 62.036h2.636c.364 0 .66-.288.66-.644a.652.652 0 00-.66-.645h-2.636a.652.652 0 00-.66.645c0 .356.296.644.66.644zM60.705 60.747c.363 0 .659.289.659.645a.652.652 0 01-.66.644.652.652 0 01-.659-.644c0-.356.296-.645.66-.645z" fill="#fff"/></svg><svg fill="none" viewBox="0 0 98 98" id="car" xmlns="http://www.w3.org/2000/svg"><rect y="48.953" width="69.228" height="69.228" rx="34.614" transform="rotate(-45 0 48.953)" fill="#60A8FF"/><path d="M61.25 56.012c-.905 0-1.764.365-2.411 1.025a3.523 3.523 0 00-1.01 2.47 3.49 3.49 0 001.01 2.469c.655.66 1.506 1.025 2.41 1.025 1.854 0 3.36-1.569 3.36-3.495 0-1.926-1.506-3.494-3.36-3.494zm0 5.436c-1.04 0-1.914-.886-1.914-1.942s.874-1.941 1.913-1.941c1.025 0 1.854.87 1.854 1.941 0 1.072-.829 1.942-1.854 1.942zm.873-17.077a.72.72 0 00-.504-.202h-3.865a.768.768 0 00-.754.776v6.368c0 .427.34.777.754.777h6.132c.415 0 .754-.35.754-.777V47.05a.788.788 0 00-.249-.575l-2.268-2.104zm1.01 6.166h-4.626v-4.823h2.818l1.808 1.678v3.145zm-20.282 5.475c-.904 0-1.763.365-2.41 1.025a3.523 3.523 0 00-1.01 2.47 3.49 3.49 0 001.01 2.469A3.378 3.378 0 0042.85 63c1.854 0 3.36-1.569 3.36-3.495 0-1.926-1.506-3.494-3.36-3.494zm0 5.436c-1.04 0-1.913-.886-1.913-1.942s.873-1.941 1.913-1.941c1.025 0 1.854.87 1.854 1.941 0 1.072-.83 1.942-1.854 1.942zm-5.025-4.481h-1.514V54.9a.768.768 0 00-.754-.776.768.768 0 00-.753.776v2.842c0 .428.339.777.753.777h2.268c.414 0 .753-.35.753-.777a.768.768 0 00-.753-.776zm3.82-4.233a.767.767 0 00-.754-.776h-9.139a.767.767 0 00-.753.776c0 .428.339.777.753.777h9.14a.763.763 0 00.753-.777zm-8.363-2.803l9.139.054a.772.772 0 00.76-.768.758.758 0 00-.745-.785l-9.14-.054h-.007a.76.76 0 00-.753.769.758.758 0 00.746.784zm1.537-3.526h9.139c.414 0 .753-.35.753-.776a.768.768 0 00-.753-.777h-9.14a.768.768 0 00-.753.777c0 .427.34.776.754.776zm32.901-1.048l-5.394-4.605a.729.729 0 00-.482-.179H55.5v-2.795a.767.767 0 00-.753-.777h-19.19a.768.768 0 00-.753.777v5.684c0 .427.339.777.753.777s.754-.35.754-.777v-4.908h17.69v18.413h-6.178a.768.768 0 00-.754.776c0 .428.34.777.754.777h9.199c.414 0 .753-.35.753-.777a.768.768 0 00-.753-.776h-1.515v-14.84h6.073l4.912 4.193-.053 10.631h-.783a.768.768 0 00-.754.777c0 .427.34.777.754.777h1.53a.76.76 0 00.753-.77L68 45.964a.83.83 0 00-.279-.606z" fill="#fff"/></svg><svg fill="none" viewBox="0 0 27 21" id="check" xmlns="http://www.w3.org/2000/svg"><path fill-rule="evenodd" clip-rule="evenodd" d="M4.902 4.959l5.593 5.651.404 10.15L0 9.86 4.902 4.96z" fill="#7B0"/><path fill-rule="evenodd" clip-rule="evenodd" d="M10.496 10.61L21.106 0l5.306 5.305L10.899 20.76l-.403-10.15z" fill="#66A000"/></svg><svg fill="none" viewBox="0 0 98 98" id="comp" xmlns="http://www.w3.org/2000/svg"><rect y="48.952" width="69.228" height="69.228" rx="34.614" transform="rotate(-45 0 48.952)" fill="#60A8FF"/><path d="M60.08 38.214H37.92a.735.735 0 00-.731.74v11.158c0 .408.327.739.731.739.404 0 .732-.33.732-.739v-10.42h20.696v10.42c0 .408.328.739.732.739.404 0 .731-.33.731-.739V38.953a.735.735 0 00-.731-.739z" fill="#fff"/><path d="M65.341 52.75h-1.347V37.234c0-1.231-.992-2.233-2.212-2.233H36.218c-1.22 0-2.212 1.002-2.212 2.233V52.75H32.66a.662.662 0 00-.659.665v1.306c0 1.808 1.457 3.28 3.249 3.28H62.75c1.792 0 3.249-1.472 3.249-3.28v-1.306a.662.662 0 00-.659-.665zM35.47 37.234c0-.416.336-.755.748-.755h25.564c.413 0 .748.339.748.755V52.75h-9.908a.663.663 0 00-.677.665c0 .561-.451 1.018-1.007 1.018h-3.876a1.014 1.014 0 01-1.008-1.018.663.663 0 00-.674-.665h-9.91V37.234zm29.213 17.487c0 1.075-.867 1.95-1.932 1.95H35.25a1.943 1.943 0 01-1.932-1.95v-.64h11.515a2.332 2.332 0 002.23 1.682h3.876a2.333 2.333 0 002.23-1.683h11.515v.64z" fill="#fff"/><path d="M50.084 42.509a.727.727 0 00-1.034 0l-4.602 4.647a.744.744 0 000 1.044.726.726 0 001.035 0l4.602-4.646a.744.744 0 000-1.045zM52.812 45.202a.727.727 0 00-1.035 0l-1.833 1.85a.744.744 0 000 1.045.726.726 0 001.035 0l1.833-1.85a.744.744 0 000-1.045z" fill="#fff"/></svg><svg fill="none" viewBox="0 0 60 48" id="cross" xmlns="http://www.w3.org/2000/svg"><path d="M4.226 34.16c.166.048.373-.13.555-.163.067.013.166-.025.263-.058a.682.682 0 01.253-.18c.016.013.078-.005.136-.02.058-.021.111-.045.164-.07l.103-.05c.072-.031.147-.057.222-.081.156-.052.313-.098.458-.149-.067.026-.137.051-.21.073-.157.049-.282.117-.287.184.006.006.017.01.03.011-.034.014-.07.028-.101.043-.015.008-.014.02-.02.03.023-.007.056-.014.067-.022.025-.017.042-.034.06-.05h.034c.165-.022.277-.12.432-.174-.098.039-.179.079-.189.112-.016.054.106-.002.18-.017.073-.014.17-.063.226-.055l-.056.018-.073.024-.1.03c.097.042.154.028.36-.087a.819.819 0 01.297-.049c-.157.076-.266.16-.443.196-.007.002-.03.015-.03.018-.001.009-.003.021.012.022.185.008.405-.032.67-.138.042-.017.05-.027.028-.027-.097.002-.24.085-.359.084l.328-.119c.149-.054.047-.074.114-.116.02-.004.039-.008.057-.01a2.08 2.08 0 00.11-.026 1.53 1.53 0 00.574-.085.736.736 0 01.266-.04.226.226 0 00.158-.052c.094-.062.208-.093.325-.126.185-.051.276-.084.47-.175l.083-.023a1.373 1.373 0 00.182-.08c.171-.05.338-.107.487-.194.01-.005.026-.01.04-.015a.42.42 0 00.063-.013c.06.012.137.014.253-.04.14-.063.284-.11.429-.159a.81.81 0 00.293-.147.594.594 0 01.22-.109c.348-.114.695-.23 1.043-.345.051-.017.103-.034.151-.044v.016l.087.002.165-.086-.002-.01.126-.07c-.072 0-.189.038-.225.01-.001 0-.002 0-.002-.002l.15-.042c.282-.025.62-.123.945-.206v.025l.164-.053c.056.008.186-.06.223-.032.006.017.008.035.058.032h-.004a.124.124 0 00.085-.026.85.85 0 01.078-.027.337.337 0 01.093-.044h.063c.01 0 .016.002.023.004-.23.153-.536.316-.842.443-.138.058-.294.109-.343.186h.002c.018.036-.137.111-.088.144.248-.077.492-.159.74-.253.286-.11.582-.204.874-.301.05-.017.102-.016.153-.024h-.002a.107.107 0 00.08-.025h-.002c.06-.048.149-.077.236-.105.218-.072.44-.137.654-.216.121-.045.224-.078.335-.097.288-.05.588-.13.899-.246l.176-.06c.233-.085.456-.19.696-.261.073-.05.168-.085.267-.116l.089-.03.041-.016.042-.012a.187.187 0 01.097-.032l.339-.114a.832.832 0 01.199-.086l.864-.29.088-.029.175-.058a.814.814 0 01.231-.107l.908-.3c.267-.12.67-.254.982-.326l.152-.053a.78.78 0 01.197-.087l.433-.143.089-.03.168-.057h.002a.479.479 0 01.198-.065.271.271 0 01.056-.023l.014-.028a.672.672 0 01.055-.036c.012.005.03.01.054.014.407-.126.814-.283 1.221-.387.041.004.1-.016.156-.035a.322.322 0 00.096-.05l-.001.002c.103-.065.258-.08.357-.148l.035-.015.036-.009c.196-.102.435-.13.627-.237l-.004.002c.11-.06.213-.122.356-.162.037-.012.072-.026.107-.042.067-.03.141-.054.209-.085a.713.713 0 00.196-.122v.001c.088-.043.152-.089.222-.134.149-.078.36-.122.473-.218.224-.105.456-.153.684-.23l.01-.003c.008 0 .02-.002.035-.006.052-.014.106-.033.159-.05a.078.078 0 00.008-.025l.004-.002.008-.007.226-.082c-.04-.012-.097.003-.16.023a1.13 1.13 0 01.197-.093l.145-.049.003-.007a1.64 1.64 0 00.096-.04c.267-.1.531-.208.8-.304.27-.136.585-.186.856-.32l-.003.002c.246-.11.505-.174.757-.263.041-.013.081-.028.12-.045.049-.05.088-.022.133-.04a4.384 4.384 0 01.85-.295c.123-.006.264-.077.396-.113a.373.373 0 00.12-.058l-.002.002c.146-.08.33-.105.476-.184l.112-.052c.08-.028.16-.063.235-.082.345-.084.688-.215 1.032-.32h.002c.017-.011.026-.02.025-.025.082-.026.167-.06.243-.067l.005-.004.326-.129.007-.005h.002l-.004.002h.02c.014 0 .031 0 .052-.004l.008-.002c.1-.017.215-.065.321-.095.11-.031.228-.083.322-.08l.244-.08.002-.001.006-.001.093-.031.006-.001 1.116-.367c.234-.073.469-.145.703-.215.272-.099.534-.136.807-.239.044-.011.09-.024.135-.04l.66-.217.127-.041c.096-.044.193-.066.29-.095.112-.038.224-.074.337-.111.105-.045.21-.09.32-.11.036-.009.072-.02.11-.031.055-.019.111-.037.146-.067l-.002.002c.42-.169.849-.284 1.273-.432l.131-.043c.115-.04.224-.098.343-.12.037-.008.073-.017.111-.03l.165-.054a.341.341 0 00.092-.047l-.002.001c.282-.134.6-.183.881-.32.131-.078.31-.096.44-.175l.031-.014.033-.01c.142-.077.325-.098.463-.18l.032-.015.033-.01c.028-.01.04-.019.041-.025l.002-.001.387-.128a.415.415 0 00.114-.054l-.002.001c.104-.06.227-.084.34-.126a.33.33 0 00.098-.05l-.002.001c.075-.049.196-.066.267-.117.13-.073.28-.1.418-.153a.372.372 0 00.105-.052l-.002.002c.074-.05.197-.066.268-.118l.031-.014.033-.01c.083-.048.205-.068.281-.121.129-.078.311-.094.437-.175.111-.063.24-.088.358-.132.061-.02.124-.039.167-.072.162-.09.37-.111.53-.204h-.002c.188-.093.392-.135.586-.207a.36.36 0 00.115-.056l-.002.002c.181-.089.377-.13.565-.2.042-.013.084-.028.125-.044.098-.066.225-.102.348-.142a.337.337 0 00.102-.052l-.002.002c.075-.05.198-.066.267-.118h-.002c.051-.033.126-.053.184-.084.048-.032.117-.06.164-.092l-.002.001c.053-.033.12-.053.184-.075a.298.298 0 00.078-.044l-.002.002c.072-.05.199-.065.264-.119.058-.034.137-.056.195-.09.062-.045.18-.067.24-.114.049-.03.127-.052.169-.085a.637.637 0 00.09-.06c.032-.02.06-.04.083-.06a.373.373 0 00.083-.06c.058-.033.04-.056.088-.088v.001c.03-.02.064-.041.08-.06l-.008.003c.03-.015.047-.03.053-.044 0-.023-.005-.044.037-.078l-.002.002c.082-.055.02-.077.076-.126-.01-.005-.008-.012.005-.023.103-.08-.026-.1.075-.18h-.002c.053-.034.037-.057.08-.09.05-.032.135-.054.175-.09l-.005.004c.038-.02.064-.04.093-.06h.001l.083-.059c.03-.02.063-.04.082-.06.056-.033.038-.056.086-.088.03-.02.059-.039.085-.059a.83.83 0 00.084-.06c.053-.032.033-.054.087-.087l.002-.002c.025-.019.057-.039.075-.058.102-.068-.009-.085.08-.15l-.004.002a.386.386 0 00.104-.085c.056-.083.147-.17.3-.27.144.084.399-.066.625-.152a.759.759 0 00.278-.147.192.192 0 00.037-.046c.002-.019.009-.039.042-.064l-.001.001c.071-.045.016-.068.093-.114.045-.036.12-.065.18-.097.083-.052.16-.104.23-.156a.543.543 0 00.086-.077l-.002.003c.11-.07-.01-.086.086-.152v.001c.077-.051.004-.07.077-.12.062-.06.072-.105-.02-.114h.007a.281.281 0 00-.09-.005h.002c-.05 0-.037-.034-.1-.029l.004.002c-.066-.03-.212.15-.258.068-.337.037-.345.216-.605.288.026-.06.143-.14.114-.19-.034-.058-.119-.02-.233.047l-.04.02a4.47 4.47 0 00-.431.154.324.324 0 01-.17-.015c-.014-.006-.107.037-.153.066-.06.042-.096.08-.104.115-.002.007.005.008.012.007l-.01.004c-.03.01-.046.003-.065.002a.667.667 0 00-.1.013c.057-.037.113-.073.123-.103a.529.529 0 00.225-.085l.088-.059c.162-.053.246-.122.34-.188.07-.05.045-.072-.058-.05-.066.015-.14.04-.209.06l.005-.06c.35-.121.35-.121.52-.234l-.314.103c-.049.015-.075.013-.04-.014.017-.012.052-.024.08-.037a.383.383 0 00.17-.083h.001c.09-.046.18-.09.287-.123.121-.036.223-.09.33-.14.024-.01.05-.02.076-.028.073-.05.198-.067.268-.119l-.002.001c.053-.04.173-.062.2-.107-.166-.049-.373.129-.554.163-.068-.013-.167.024-.264.057a.682.682 0 01-.253.18c-.016-.012-.077.005-.135.02a1.72 1.72 0 00-.165.071c-.034.016-.07.032-.103.049a2.33 2.33 0 01-.222.082c-.156.051-.313.098-.457.148.066-.025.137-.05.21-.073.156-.048.281-.116.287-.183-.006-.006-.017-.01-.032-.011.035-.015.072-.028.103-.044.014-.007.013-.02.02-.03-.024.007-.057.015-.068.022-.024.017-.041.034-.06.051h-.034c-.164.022-.277.12-.432.174.099-.039.179-.08.189-.113.016-.054-.105.002-.18.017-.072.015-.17.064-.225.056l.055-.019.073-.023.1-.031c-.097-.041-.154-.027-.36.087a.814.814 0 01-.297.05c.157-.077.267-.16.443-.196.008-.002.03-.015.03-.019.001-.008.003-.02-.011-.021a1.632 1.632 0 00-.67.138c-.042.016-.051.026-.03.027.098-.002.24-.086.36-.084l-.328.118c-.149.054-.047.074-.113.117l-.058.01a2.209 2.209 0 00-.11.026 1.534 1.534 0 00-.574.085.731.731 0 01-.266.039.226.226 0 00-.158.052c-.094.063-.208.094-.324.126a2.476 2.476 0 00-.47.176 2.29 2.29 0 01-.084.022 1.358 1.358 0 00-.182.08c-.17.05-.337.107-.486.194-.01.006-.027.01-.04.016a.431.431 0 00-.064.013.384.384 0 00-.252.039c-.14.063-.285.11-.43.16a.81.81 0 00-.293.146.591.591 0 01-.22.11l-1.043.345a1.62 1.62 0 01-.151.044v-.016l-.087-.003-.164.087c0 .003 0 .007.002.01l-.126.069c.07 0 .188-.037.224-.01l.003.002-.152.043c-.28.025-.618.122-.944.205v-.024l-.163.053c-.056-.009-.187.06-.224.032-.006-.017-.008-.036-.057-.033h.003a.124.124 0 00-.085.027.86.86 0 01-.078.026.335.335 0 01-.093.044c-.021.001-.042.002-.063.001-.01 0-.016-.003-.023-.004.23-.154.536-.317.842-.444.139-.057.294-.108.343-.185h-.002c-.018-.037.137-.112.088-.144-.248.077-.492.158-.74.253-.285.109-.581.203-.874.3-.05.017-.102.017-.153.024h.002a.107.107 0 00-.079.026c-.058.047-.148.077-.235.105-.218.072-.44.136-.654.216a1.841 1.841 0 01-.334.097c-.29.049-.59.13-.9.246l-.176.06c-.233.084-.455.189-.696.26-.073.051-.167.086-.267.117l-.089.03-.04.016-.043.012a.186.186 0 01-.097.031v.001l-.339.114a.833.833 0 01-.199.086l-.864.29-.088.028-.175.059a.812.812 0 01-.231.107l-.908.3a6.01 6.01 0 01-.982.326l-.151.053a.782.782 0 01-.198.086l-.433.143-.088.03-.169.058h-.002a.476.476 0 01-.197.065.27.27 0 01-.057.022l-.014.028a.7.7 0 01-.055.037.223.223 0 00-.054-.015c-.406.127-.814.284-1.22.388-.042-.004-.1.016-.156.034a.322.322 0 00-.097.05l.001-.002c-.103.065-.258.08-.357.148l-.035.015-.036.01c-.195.101-.435.129-.627.237l.004-.003c-.11.06-.213.122-.356.163a1.106 1.106 0 00-.107.041c-.067.031-.141.055-.209.085a.713.713 0 00-.196.122c-.087.042-.152.088-.222.133-.148.078-.36.122-.473.219v-.001c-.223.106-.456.154-.684.23l-.01.004a.17.17 0 00-.035.006c-.052.014-.106.033-.159.05a.079.079 0 00-.007.024l-.005.003a3.851 3.851 0 01-.008.007l-.226.081c.04.013.098-.002.16-.022a1.137 1.137 0 01-.197.093l-.145.049-.003.006a1.74 1.74 0 00-.096.04c-.267.101-.53.208-.8.304-.27.137-.585.187-.856.32l.003-.001c-.246.11-.505.173-.757.263a1.246 1.246 0 00-.12.045c-.049.05-.088.022-.132.04-.04.015-.08.032-.117.05-.24.105-.486.186-.733.245-.124.006-.265.077-.396.113a.368.368 0 00-.12.057v-.002c-.145.08-.328.105-.475.184a7.68 7.68 0 01-.112.052c-.08.028-.16.064-.235.082-.345.084-.688.215-1.031.32l-.003.001c-.017.01-.025.019-.025.025-.082.026-.167.06-.243.066l-.005.004-.325.13-.007.004h-.003l.004-.001h-.02c-.014-.001-.031 0-.051.003l-.01.003c-.1.017-.214.064-.32.095-.11.03-.228.083-.321.08l-.244.08h-.003l-.006.002-.093.03-.006.002-1.116.367c-.234.073-.468.144-.703.214-.271.1-.534.137-.806.24-.045.01-.09.024-.135.039l-.662.217-.126.042c-.096.043-.193.065-.29.095l-.336.111c-.105.045-.21.09-.32.109-.037.009-.073.02-.11.032-.056.018-.112.037-.147.067l.002-.002c-.419.168-.848.284-1.272.432l-.132.043c-.115.04-.224.097-.343.119a1.213 1.213 0 00-.11.03l-.166.055a.337.337 0 00-.092.047l.002-.001c-.282.133-.6.183-.881.32-.131.078-.31.095-.44.175l-.03.014-.034.01c-.142.077-.325.098-.463.18l-.031.015-.034.009c-.027.01-.04.02-.04.026h-.003l-.387.128a.415.415 0 00-.114.055l.002-.002c-.104.06-.227.084-.34.127a.333.333 0 00-.098.05l.002-.002c-.075.05-.196.066-.267.117-.13.073-.28.1-.418.153a.375.375 0 00-.105.053l.002-.002c-.074.05-.197.066-.268.117l-.03.015-.034.01c-.083.048-.205.067-.281.12-.129.078-.311.095-.437.176-.11.062-.24.088-.358.132-.06.02-.124.038-.167.071-.162.09-.37.112-.53.205l.002-.001c-.187.093-.392.135-.586.208a.358.358 0 00-.115.055l.002-.002c-.18.09-.377.131-.564.2a2.56 2.56 0 00-.126.044c-.098.066-.225.102-.347.143a.335.335 0 00-.103.052l.002-.002c-.074.049-.198.066-.267.118l.003-.001c-.052.033-.127.054-.184.084-.049.032-.118.06-.165.093l.002-.002c-.053.034-.12.054-.183.076a.29.29 0 00-.078.043l.002-.001c-.073.049-.2.065-.265.118-.058.034-.137.056-.195.09-.062.046-.18.068-.24.114-.049.031-.127.053-.169.086a.648.648 0 00-.09.06.665.665 0 00-.083.059.379.379 0 00-.083.06c-.058.033-.04.056-.088.088-.03.02-.063.04-.08.06l.008-.004c-.029.016-.046.03-.053.044 0 .024.005.045-.037.078l.002-.002c-.082.055-.019.077-.075.127.01.004.007.012-.006.023-.103.08.027.1-.074.18v-.001c-.051.034-.036.057-.079.09-.05.032-.134.054-.174.09l.004-.004c-.037.02-.063.04-.093.06-.029.02-.058.04-.084.06-.03.02-.063.04-.081.06-.056.033-.04.056-.086.088v-.001c-.03.02-.06.04-.085.06a.824.824 0 00-.085.059c-.053.032-.033.055-.087.088l-.001.001c-.025.02-.058.04-.076.059-.101.067.01.085-.079.149l.003-.002a.387.387 0 00-.104.085 1.02 1.02 0 01-.3.27c-.144-.084-.399.067-.624.152a.764.764 0 00-.278.147.195.195 0 00-.038.047c-.001.019-.008.038-.042.064l.002-.002c-.072.046-.017.068-.094.115-.045.035-.12.064-.18.096a3.029 3.029 0 00-.23.157.547.547 0 00-.086.077l.002-.003c-.11.069.01.085-.086.151h.001c-.077.05-.005.07-.078.12-.062.06-.072.104.02.113H4.09a.28.28 0 00.09.005h-.002c.051 0 .038.035.1.03l-.003-.002c.066.03.211-.15.257-.068.338-.037.345-.216.605-.288-.026.059-.143.14-.113.19.033.058.118.02.232-.048l.04-.019c.149-.042.29-.098.431-.154a.324.324 0 01.17.015c.015.006.107-.038.154-.066.06-.043.095-.08.104-.115 0-.008-.006-.009-.013-.008l.01-.003c.03-.011.046-.003.065-.002a.655.655 0 00.101-.014c-.058.037-.114.074-.124.104a.531.531 0 00-.225.085l-.087.058c-.162.053-.246.122-.34.188-.07.05-.046.073.057.05.067-.014.14-.039.21-.06l-.006.061c-.35.12-.35.12-.52.234.116-.038.215-.072.314-.103.049-.015.076-.013.04.014-.016.012-.052.024-.079.036a.382.382 0 00-.171.084h-.001c-.09.046-.18.09-.287.123-.121.036-.223.09-.33.139a.761.761 0 01-.076.028c-.073.05-.197.067-.268.12l.002-.002c-.053.04-.173.063-.2.108zm50.66-19.613l.005-.004h.004l-.009.004zM10.674 32.343l-.008.002.07-.027-.062.025zm43.95-17.677h.001l-.005.002-.016-.004a.13.13 0 01.02.002zm-4.253.713l.009-.001-.07.027.061-.026zM6.415 33.057h.006l.004-.002.016.003a.13.13 0 01-.02-.002h-.006zm-.256.119l-.005.003H6.15l.01-.003z" fill="#F42362"/><path d="M1.239 4.87c.094.17.382.274.547.421.042.066.146.138.245.21.082.015.187.059.325.143.004.02.064.067.12.112.06.043.119.08.178.115l.115.07c.078.05.155.105.23.161.158.116.313.235.461.342-.07-.048-.142-.1-.215-.155-.156-.118-.301-.198-.354-.173 0 .009.006.02.016.033-.037-.025-.075-.05-.11-.071-.017-.01-.025-.003-.037-.004.023.017.054.044.068.05.03.014.056.022.083.03.007.01.015.02.027.03.142.138.3.194.459.308-.105-.07-.196-.124-.228-.118-.051.01.083.094.152.154.066.058.177.123.214.176l-.057-.042a37.58 37.58 0 00-.073-.054l-.1-.075c.046.106.1.15.342.282.125.089.195.162.265.243-.176-.105-.32-.165-.484-.307a.123.123 0 00-.036-.018c-.007.003-.018.007-.007.02.137.17.336.348.618.537.044.03.058.032.042.012-.077-.085-.248-.175-.339-.282l.339.239c.154.108.09.008.172.048l.052.047.103.086c.111.14.256.29.506.475.096.072.184.155.234.22.04.052.093.09.16.117.117.056.228.144.341.233.181.143.275.208.49.34.028.021.055.043.08.064a2.274 2.274 0 00.199.127c.169.13.339.253.517.346.011.006.028.02.042.03a.723.723 0 00.059.05c.037.06.095.128.223.208.154.096.3.204.447.31.125.092.24.167.332.196.07.021.155.077.249.146l1.056.775c.052.039.104.078.149.116a.077.077 0 00-.013.006l.066.08.19.107a.026.026 0 00.006-.006l.147.081c-.054-.064-.173-.152-.181-.196v-.003l.147.116c.236.24.567.497.879.75l-.018.011.165.123c.037.053.187.139.196.185-.008.013-.02.023.02.066l-.002-.003c.02.025.047.047.085.064.027.018.054.038.08.058.017.005.057.03.103.062l.05.057c.007.008.01.015.014.022a8.261 8.261 0 01-.971-.55c-.149-.098-.306-.214-.4-.222l.002.002c-.012.033-.186-.072-.172-.013.248.187.495.367.754.546.3.206.598.427.894.644.05.037.09.084.135.126l-.002-.001c.02.025.046.045.08.059.08.03.17.097.258.161.22.163.438.331.66.487.127.088.23.164.33.255.258.236.55.467.873.692l.18.13c.24.17.488.32.726.503.093.043.19.111.29.186l.09.066.043.029.041.032a.317.317 0 01.098.072h.001l.344.251c.07.032.142.085.216.139l.877.64.09.066.177.13c.078.032.165.09.255.157.306.226.613.45.92.675.291.184.7.483.993.73l.156.11c.068.032.14.084.215.138l.438.322.09.065.171.125.002.002c.077.039.142.09.2.146a.45.45 0 01.06.041h.03c.024.01.047.02.07.032a.328.328 0 00.03.055c.406.306.835.598 1.225.915.028.039.087.081.145.123.041.03.078.051.11.064h-.002c.126.062.257.193.383.251l.038.025.034.028c.225.128.43.33.657.452l-.006-.003c.128.07.253.135.392.244.038.028.076.053.114.077.074.046.148.101.222.148a1.058 1.058 0 00.24.12c.098.059.181.095.268.138.17.097.366.265.523.323.249.151.463.338.695.506l.01.007a.278.278 0 00.031.03c.05.04.106.079.159.119.01 0 .017-.002.024-.005l.005.003.01.004.235.165a.505.505 0 00-.14-.132c.07.034.145.082.219.133l.147.107h.008l.104.067c.278.193.56.38.837.577.306.178.586.438.892.619l-.003-.002c.27.17.515.372.775.557.041.03.083.06.126.087.073.02.084.068.13.1a7.414 7.414 0 01.87.625c.1.108.26.202.388.303.05.037.094.065.135.081h-.003c.171.093.33.246.501.341l.124.076c.083.06.17.115.24.173.328.27.688.517 1.029.776l.003.002c.02.01.033.014.037.011.082.062.173.122.236.187l.006.003.346.232.008.004.002.002-.004-.003a.566.566 0 00.058.063l.008.006c.09.082.213.163.317.244.107.084.236.165.307.25l.245.183.003.001.006.005.094.069.005.005h.001l1.127.83.698.53c.282.199.511.416.797.613.042.035.086.07.132.103l.668.492.128.094c.105.066.196.142.292.215l.341.251c.114.073.227.147.326.236.035.029.07.056.108.084.056.04.113.083.162.1h-.004c.446.297.862.629 1.296.94l.133.098c.118.084.244.156.352.253.033.029.069.057.107.085l.167.123a.545.545 0 00.105.06h-.002c.314.19.596.453.912.64.157.082.31.235.466.315l.034.02.033.026c.165.091.322.245.488.33l.035.023.032.025c.03.02.046.027.051.025l.002.002.392.288c.045.033.088.06.127.076h-.003c.124.065.236.164.355.246.041.03.079.052.112.065l-.003-.001c.093.044.199.144.29.185.153.082.289.204.434.303a.605.605 0 00.119.07h-.003c.093.043.2.145.292.185l.035.021.032.026c.1.052.208.152.305.196.156.08.309.235.464.31.13.071.248.174.372.26.062.045.124.093.181.117.19.104.366.28.557.38h-.002c.212.124.4.287.603.428.047.036.09.062.129.078l-.003-.001c.204.12.386.277.58.413.043.032.086.062.13.092.123.057.247.155.371.246a.536.536 0 00.117.068l-.003-.001c.093.044.2.147.292.184l-.003-.001c.064.031.137.088.203.126.06.029.135.078.194.105l-.002-.002c.065.033.13.083.196.13.035.023.065.04.092.05l-.003-.001c.091.042.2.148.29.182.07.036.146.097.216.134.08.034.187.13.267.161.06.03.136.09.193.113.042.023.078.039.113.053.038.019.075.036.106.047.042.022.08.04.109.047.068.036.07.01.13.039.038.017.079.037.106.043l-.009-.005c.034.019.058.028.073.027.017-.01.028-.025.085-.002l-.004-.001c.103.048.071-.018.15.01-.004-.011.003-.013.021-.006.138.055.052-.07.188-.016h-.002c.065.03.07.006.126.03.063.03.144.095.2.114l-.006-.002c.043.024.078.038.116.056l.107.047c.038.019.078.038.107.046.067.035.07.009.13.037h-.001c.038.018.074.035.109.049.038.019.075.036.108.048.064.032.065.004.13.038h.003c.033.014.073.034.1.041.128.06.055-.047.17.002l-.004-.001a.544.544 0 00.142.053c.103.012.235.054.426.145.051.168.357.327.593.49a1.182 1.182 0 00.32.182.234.234 0 00.063.011c.015-.007.035-.01.08.008h-.003c.088.043.061-.017.155.031.06.024.139.077.208.116.102.051.2.097.29.134a.76.76 0 00.123.042h-.003c.134.066.054-.048.175.007.096.046.053-.027.146.015.092.027.131.016.066-.07l.006.006a.454.454 0 00-.066-.083l.001.002c-.039-.046-.004-.05-.055-.103v.004c-.029-.073-.27-.12-.248-.2-.287-.284-.422-.209-.675-.409.063-.003.211.064.225.015.016-.057-.077-.115-.214-.186l-.045-.028a7.585 7.585 0 00-.445-.314.514.514 0 01-.12-.159.768.768 0 00-.166-.107c-.077-.035-.132-.049-.164-.04-.006.002-.002.008.004.014l-.009-.007c-.032-.022-.039-.04-.052-.058a1.138 1.138 0 00-.088-.084c.071.035.141.069.17.064.069.066.147.12.236.162l.11.052c.163.12.278.164.398.217.09.04.088.008-.008-.074-.062-.053-.136-.106-.205-.16l.047-.023c.358.258.358.258.572.358l-.318-.234c-.049-.036-.068-.06-.02-.04.02.008.057.034.087.053.072.056.139.1.192.114l.002.001c.102.06.204.12.31.2.12.092.237.159.355.232.027.017.053.035.08.055.092.042.2.146.292.185l-.002-.001c.07.03.179.126.233.13-.094-.171-.382-.275-.547-.422-.043-.066-.147-.138-.245-.209a1.013 1.013 0 01-.325-.144c-.004-.02-.064-.067-.12-.112a2.803 2.803 0 00-.178-.115l-.115-.07a3.874 3.874 0 01-.23-.16c-.158-.117-.313-.236-.462-.342.07.048.143.1.216.155.156.117.301.198.354.172 0-.008-.006-.02-.016-.033l.11.072c.017.01.025.002.037.003-.023-.017-.054-.043-.068-.05-.031-.014-.056-.021-.083-.03a.322.322 0 00-.027-.03c-.142-.138-.3-.194-.459-.308.105.071.196.125.228.118.05-.01-.083-.093-.152-.154-.066-.057-.177-.123-.214-.175l.056.041.073.054.1.075c-.045-.105-.099-.15-.341-.281a1.386 1.386 0 01-.266-.244c.177.106.321.166.485.307.007.006.033.02.036.019.007-.004.017-.008.007-.02a2.775 2.775 0 00-.618-.537c-.044-.03-.058-.033-.042-.013.077.086.247.175.338.282l-.338-.238c-.154-.109-.09-.009-.172-.049l-.052-.046a3.987 3.987 0 00-.103-.087 2.6 2.6 0 00-.506-.475 1.248 1.248 0 01-.234-.22.375.375 0 00-.16-.117c-.117-.055-.228-.143-.341-.233a4.148 4.148 0 00-.49-.34 4.192 4.192 0 01-.081-.064 2.28 2.28 0 00-.198-.126 3.596 3.596 0 00-.517-.347c-.012-.006-.028-.019-.042-.029a.727.727 0 00-.059-.05.645.645 0 00-.223-.208c-.154-.096-.3-.204-.447-.311a1.303 1.303 0 00-.333-.195.962.962 0 01-.248-.147l-1.056-.775a2.685 2.685 0 01-.149-.115.075.075 0 00.012-.007l-.066-.08-.19-.107a.028.028 0 00-.005.006l-.147-.08c.054.063.172.15.18.196v.003a15.138 15.138 0 00-.147-.116c-.235-.24-.566-.497-.878-.751l.018-.01-.165-.123c-.037-.054-.187-.14-.196-.186.008-.012.02-.023-.021-.066l.002.004a.208.208 0 00-.084-.064 1.464 1.464 0 01-.08-.058.545.545 0 01-.103-.063 2.195 2.195 0 01-.05-.056c-.007-.009-.01-.015-.014-.023.288.135.643.335.97.55.15.098.306.214.4.222l-.001-.001c.011-.034.185.07.171.012a20.42 20.42 0 00-.754-.545c-.3-.206-.597-.428-.893-.645-.05-.037-.09-.083-.135-.126l.001.002a.178.178 0 00-.079-.059c-.08-.03-.17-.097-.258-.162-.22-.163-.438-.33-.661-.486a3.138 3.138 0 01-.329-.255 8.5 8.5 0 00-.873-.693l-.18-.13c-.24-.17-.488-.32-.726-.502a1.673 1.673 0 01-.29-.187l-.09-.065-.044-.03-.04-.032a.312.312 0 01-.099-.072l-.344-.25a1.378 1.378 0 01-.216-.14l-.878-.64a51.06 51.06 0 00-.089-.066l-.177-.13a1.333 1.333 0 01-.255-.157l-.92-.675a10.16 10.16 0 01-.994-.73l-.155-.11a1.298 1.298 0 01-.215-.138l-.438-.321-.09-.066-.172-.124v-.002a.8.8 0 01-.201-.147.456.456 0 01-.06-.04h-.031a1.06 1.06 0 01-.069-.033.322.322 0 00-.031-.055c-.405-.305-.834-.598-1.224-.914-.029-.04-.088-.082-.145-.124a.52.52 0 00-.11-.063h.002c-.127-.063-.257-.194-.383-.252l-.038-.024-.034-.028c-.225-.128-.43-.33-.657-.453l.005.003c-.127-.07-.252-.134-.392-.244a1.908 1.908 0 00-.113-.077c-.074-.046-.148-.101-.222-.148a1.058 1.058 0 00-.24-.12c-.099-.058-.181-.095-.268-.137-.171-.097-.366-.266-.524-.323v-.001c-.248-.15-.462-.337-.694-.506l-.01-.007a.29.29 0 00-.032-.029c-.05-.04-.105-.08-.158-.12a.064.064 0 00-.024.005l-.006-.003-.01-.004-.234-.165a.505.505 0 00.14.133 1.846 1.846 0 01-.22-.133l-.146-.107h-.008a2.913 2.913 0 00-.104-.068c-.278-.193-.56-.38-.838-.577-.306-.178-.586-.437-.891-.618l.003.001c-.27-.17-.516-.372-.775-.556a2.074 2.074 0 00-.126-.088c-.073-.02-.084-.068-.131-.1a2.44 2.44 0 00-.126-.08 7.426 7.426 0 01-.744-.545c-.1-.108-.26-.201-.388-.302a.604.604 0 00-.134-.082h.002c-.17-.093-.33-.246-.5-.34-.042-.025-.083-.05-.124-.077-.083-.059-.17-.114-.24-.172-.329-.27-.689-.518-1.03-.777l-.002-.002c-.021-.01-.033-.014-.037-.01-.082-.062-.173-.122-.236-.188l-.007-.002-.345-.232-.008-.005-.002-.002.004.003a.478.478 0 00-.066-.069c-.09-.082-.213-.163-.317-.244-.107-.083-.236-.165-.307-.25l-.245-.182-.004-.002-.005-.005a5.79 5.79 0 00-.094-.069l-.006-.005-1.127-.83c-.234-.176-.467-.353-.699-.53-.281-.198-.51-.416-.796-.613a3.18 3.18 0 00-.133-.103l-.668-.492a59.527 59.527 0 00-.127-.093c-.105-.066-.197-.143-.292-.216l-.341-.25a2.516 2.516 0 01-.326-.237 2.47 2.47 0 00-.108-.083c-.056-.041-.113-.084-.162-.101h.003c-.446-.297-.86-.628-1.296-.94a89.391 89.391 0 01-.132-.098c-.118-.084-.244-.156-.352-.252a2.061 2.061 0 00-.107-.086 23.715 23.715 0 00-.167-.122.551.551 0 00-.105-.06h.002c-.314-.191-.596-.453-.912-.641-.158-.082-.31-.235-.467-.314l-.034-.021-.032-.026c-.165-.09-.322-.245-.489-.33l-.034-.022-.033-.026c-.029-.02-.045-.027-.05-.025l-.002-.001-.392-.288a.683.683 0 00-.127-.077l.002.001c-.123-.066-.236-.165-.354-.246a.539.539 0 00-.112-.065h.003c-.093-.043-.199-.144-.291-.184-.152-.082-.288-.204-.433-.304a.606.606 0 00-.12-.07l.003.001c-.093-.044-.2-.146-.292-.186l-.034-.02-.033-.027c-.098-.052-.207-.152-.304-.195-.156-.08-.309-.236-.465-.311-.13-.07-.248-.174-.372-.26-.06-.045-.123-.093-.18-.117-.19-.103-.367-.28-.557-.38l.002.001c-.213-.125-.4-.288-.603-.429a.584.584 0 00-.13-.077h.003c-.204-.12-.385-.277-.58-.413a4.472 4.472 0 00-.129-.092c-.123-.057-.247-.154-.371-.245a.539.539 0 00-.117-.068h.003c-.093-.044-.2-.146-.292-.184l.003.002c-.064-.032-.137-.089-.204-.126-.06-.03-.134-.078-.193-.105l.002.001c-.065-.032-.13-.082-.196-.13a.468.468 0 00-.092-.05l.003.002c-.092-.043-.2-.149-.29-.183-.07-.036-.146-.096-.216-.133-.08-.035-.187-.13-.267-.162-.06-.03-.137-.09-.193-.112a.986.986 0 00-.113-.053 1.007 1.007 0 00-.107-.048.562.562 0 00-.108-.047c-.068-.036-.07-.01-.131-.038-.038-.018-.078-.038-.105-.044l.009.005c-.034-.018-.058-.027-.073-.027-.017.01-.028.025-.085.003h.003c-.103-.047-.07.019-.15-.009.005.01-.002.012-.02.006-.138-.056-.052.07-.188.016h.002c-.065-.03-.07-.006-.126-.03-.063-.03-.144-.095-.2-.115l.005.003c-.043-.025-.078-.039-.115-.056h-.001c-.035-.017-.072-.034-.106-.048-.038-.018-.078-.038-.107-.045-.067-.035-.07-.01-.13-.037h.001a1.855 1.855 0 00-.109-.05 1.242 1.242 0 00-.108-.047c-.064-.033-.065-.005-.13-.038l-.003-.001c-.033-.013-.073-.033-.1-.04-.128-.06-.055.046-.17-.003l.004.002a.55.55 0 00-.142-.054 1.406 1.406 0 01-.426-.144c-.051-.168-.357-.327-.593-.49a1.183 1.183 0 00-.32-.182.233.233 0 00-.064-.012c-.014.008-.034.01-.078-.008h.002c-.088-.042-.062.018-.155-.03-.06-.025-.139-.078-.208-.117a4.632 4.632 0 00-.291-.134.762.762 0 00-.123-.042h.004c-.134-.066-.054.048-.176-.007h.002c-.097-.045-.055.028-.147-.015-.092-.027-.132-.016-.067.071l-.005-.006c.01.022.038.052.066.082l-.001-.002c.038.046.003.05.055.103l-.001-.004c.03.073.271.121.248.2.288.285.422.21.676.41-.063.003-.211-.065-.225-.015-.016.057.077.115.214.186l.045.028c.145.112.295.214.445.314a.513.513 0 01.12.158.77.77 0 00.166.108c.077.034.132.048.163.04.007-.002.002-.008-.003-.014l.009.006c.031.023.039.04.052.058.026.028.056.056.088.084-.072-.035-.141-.068-.17-.063a.884.884 0 00-.236-.162l-.11-.052c-.163-.12-.278-.164-.398-.218-.09-.04-.088-.008.008.074.062.053.136.107.205.16a8.254 8.254 0 00-.048.023c-.357-.258-.357-.258-.57-.358l.317.234c.048.037.067.061.02.041-.021-.008-.058-.035-.087-.053a.617.617 0 00-.193-.115 2.875 2.875 0 01-.31-.201c-.12-.092-.238-.158-.356-.231a1.275 1.275 0 01-.08-.055c-.092-.043-.2-.147-.293-.186L1.471 5c-.069-.029-.178-.126-.232-.13zM54.56 41.21l.007.003.002.004-.01-.007zM7.536 9.807L7.528 9.8l.073.05a3.971 3.971 0 01-.065-.043zm46.736 31.225l.005.005-.005-.005-.004-.003a1.058 1.058 0 01.005.003zm-3.803-3.48l.008.008-.073-.05.065.043zM3.728 6.323l.004.006c.002 0 .003.002.005.003a1.804 1.804 0 01-.005-.003 1.03 1.03 0 01-.004-.005zm-.284-.174l-.007-.003-.002-.003.01.006z" fill="#F42362"/></svg><svg fill="none" viewBox="0 0 103 103" id="drop" xmlns="http://www.w3.org/2000/svg"><rect x="1" y="1" width="101" height="101" rx="19" fill="#60A8FF" stroke="#fff" stroke-width="2"/><g filter="url(#ffilter0_d_24_40)" fill="#fff"><path d="M51.5 47.188c-6.038 0-10.781-4.744-10.781-10.782 0-7.115 8.41-15.74 9.272-16.603.862-.862 2.156-.862 3.018 0 .863.863 9.272 9.488 9.272 16.603 0 6.038-4.743 10.782-10.781 10.782zM81.472 52.578c-.431-.647-1.078-1.078-1.94-1.078-4.745 0-9.273 2.156-12.076 6.038l-1.94 2.587c-2.372 2.803-6.038 4.313-9.704 4.313h-6.468c-1.294 0-2.157-.863-2.157-2.157s.863-2.156 2.157-2.156h4.097c3.45 0 6.684-2.803 6.684-6.253v-.216c0-1.078-1.078-2.156-2.156-2.156H44.816c-7.763 0-14.016 3.45-17.466 9.056l-5.822 9.056a1.959 1.959 0 000 2.157l6.469 10.781c.215.431.862.862 1.294 1.078h.43c.432 0 .863-.216 1.295-.431A49.708 49.708 0 0158.4 75.003c7.116 0 13.584-3.881 17.034-10.134l5.822-10.35c.431-.431.431-1.294.216-1.94z"/></g><defs><filter id="ffilter0_d_24_40" x="17.205" y="19.156" width="68.409" height="72.472" filterUnits="userSpaceOnUse" color-interpolation-filters="sRGB"><feFlood flood-opacity="0" result="BackgroundImageFix"/><feColorMatrix in="SourceAlpha" values="0 0 0 0 0 0 0 0 0 0 0 0 0 0 0 0 0 0 127 0" result="hardAlpha"/><feOffset dy="4"/><feGaussianBlur stdDeviation="2"/><feComposite in2="hardAlpha" operator="out"/><feColorMatrix values="0 0 0 0 0 0 0 0 0 0 0 0 0 0 0 0 0 0 0.25 0"/><feBlend in2="BackgroundImageFix" result="effect1_dropShadow_24_40"/><feBlend in="SourceGraphic" in2="effect1_dropShadow_24_40" result="shape"/></filter></defs></svg><svg fill="none" viewBox="0 0 103 103" id="like" xmlns="http://www.w3.org/2000/svg"><rect x="1" y="1" width="101" height="101" rx="19" fill="#60A8FF" stroke="#fff" stroke-width="2"/><g filter="url(#gfilter0_d_24_38)" fill="#fff"><path d="M81.027 51.526l-4.59 16.087a5.556 5.556 0 01-5.315 4.012h-24.84a1.843 1.843 0 01-1.844-1.844V43.97c0-.397.127-.784.365-1.101l9.941-13.349c1.103-1.38 2.692-2.144 4.396-2.144a5.584 5.584 0 015.579 5.58v9.17h9.222a7.299 7.299 0 015.878 2.93 7.324 7.324 0 011.208 6.471zM38.906 42.125h-7.375c-1.02 0-1.843.826-1.843 1.844V69.78c0 1.018.824 1.844 1.843 1.844h7.375c1.02 0 1.844-.826 1.844-1.844V43.97a1.843 1.843 0 00-1.844-1.844zm-3.687 24.89a2.767 2.767 0 010-5.53 2.767 2.767 0 010 5.53z"/></g><defs><filter id="gfilter0_d_24_38" x="25.688" y="27.375" width="59.627" height="52.25" filterUnits="userSpaceOnUse" color-interpolation-filters="sRGB"><feFlood flood-opacity="0" result="BackgroundImageFix"/><feColorMatrix in="SourceAlpha" values="0 0 0 0 0 0 0 0 0 0 0 0 0 0 0 0 0 0 127 0" result="hardAlpha"/><feOffset dy="4"/><feGaussianBlur stdDeviation="2"/><feComposite in2="hardAlpha" operator="out"/><feColorMatrix values="0 0 0 0 0 0 0 0 0 0 0 0 0 0 0 0 0 0 0.25 0"/><feBlend in2="BackgroundImageFix" result="effect1_dropShadow_24_38"/><feBlend in="SourceGraphic" in2="effect1_dropShadow_24_38" result="shape"/></filter></defs></svg><svg fill="none" viewBox="0 0 103 103" id="pen" xmlns="http://www.w3.org/2000/svg"><rect x="1" y="1" width="101" height="101" rx="19" fill="#60A8FF" stroke="#fff" stroke-width="2"/><g filter="url(#hfilter0_d_24_37)"><path d="M50.188 53.792c3.593 0 8.153-1.37 11.141-2.425.41-.642.825-1.29 1.236-1.947-2.142-.68-4.093-1.725-5.126-2.879 2.396 0 5.203-.616 7.71-1.33a417.053 417.053 0 001.925-3.23c-1.908-.679-3.604-1.642-4.541-2.69 2.081 0 4.484-.467 6.722-1.058C71.896 33.649 81.001 23 81.001 23c-22.25 7.416-50.584 35.751-58 58l7.25-3.625s3.625-8.949 7.25-12.687c2.715-2.8 9.856-.567 14.5-1.813 1.168-.311 3.126-2.534 5.399-5.685-2.896-.539-5.848-1.876-7.212-3.398z" fill="#fff"/></g><defs><filter id="hfilter0_d_24_37" x="19.001" y="23" width="66" height="66" filterUnits="userSpaceOnUse" color-interpolation-filters="sRGB"><feFlood flood-opacity="0" result="BackgroundImageFix"/><feColorMatrix in="SourceAlpha" values="0 0 0 0 0 0 0 0 0 0 0 0 0 0 0 0 0 0 127 0" result="hardAlpha"/><feOffset dy="4"/><feGaussianBlur stdDeviation="2"/><feComposite in2="hardAlpha" operator="out"/><feColorMatrix values="0 0 0 0 0 0 0 0 0 0 0 0 0 0 0 0 0 0 0.25 0"/><feBlend in2="BackgroundImageFix" result="effect1_dropShadow_24_37"/><feBlend in="SourceGraphic" in2="effect1_dropShadow_24_37" result="shape"/></filter></defs></svg><svg fill="none" viewBox="0 0 32 54" id="star" xmlns="http://www.w3.org/2000/svg"><g filter="url(#ifilter0_f_10_167)"><path d="M15.741 1l3.48 29.21h11.262l-9.11 6.62L28.24 53l-12.5-12.08-12 9.08 6.37-13.17L1 30.21h11.261L15.741 1z" fill="url(#ipaint0_radial_10_167)"/></g><defs><radialGradient id="ipaint0_radial_10_167" cx="0" cy="0" r="1" gradientUnits="userSpaceOnUse" gradientTransform="matrix(7.5 -22.99996 13.0404 4.25231 15.241 36)"><stop stop-color="#60A8FF"/><stop offset="1" stop-color="#60A8FF" stop-opacity="0"/></radialGradient><filter id="ifilter0_f_10_167" x="0" y="0" width="31.483" height="54" filterUnits="userSpaceOnUse" color-interpolation-filters="sRGB"><feFlood flood-opacity="0" result="BackgroundImageFix"/><feBlend in="SourceGraphic" in2="BackgroundImageFix" result="shape"/><feGaussianBlur stdDeviation=".5" result="effect1_foregroundBlur_10_167"/></filter></defs></svg><svg fill="none" viewBox="0 0 103 103" id="tree" xmlns="http://www.w3.org/2000/svg"><rect x="1" y="1" width="101" height="101" rx="19" fill="#60A8FF" stroke="#fff" stroke-width="2"/><g filter="url(#jfilter0_d_24_39)"><path d="M24 35h55v8.25h-5.5L76.25 68h-6.875l-1.54-13.75h-32.67L33.625 68H26.75l2.75-24.75H24V35zm42.625 8.25h-30.25l-.578 5.5h31.406l-.578-5.5z" fill="#fff"/></g><defs><filter id="jfilter0_d_24_39" x="20" y="35" width="63" height="41" filterUnits="userSpaceOnUse" color-interpolation-filters="sRGB"><feFlood flood-opacity="0" result="BackgroundImageFix"/><feColorMatrix in="SourceAlpha" values="0 0 0 0 0 0 0 0 0 0 0 0 0 0 0 0 0 0 127 0" result="hardAlpha"/><feOffset dy="4"/><feGaussianBlur stdDeviation="2"/><feComposite in2="hardAlpha" operator="out"/><feColorMatrix values="0 0 0 0 0 0 0 0 0 0 0 0 0 0 0 0 0 0 0.25 0"/><feBlend in2="BackgroundImageFix" result="effect1_dropShadow_24_39"/><feBlend in="SourceGraphic" in2="effect1_dropShadow_24_39" result="shape"/></filter></defs></svg></svg>