<svg width="44" height="61" viewBox="0 0 44 61" fill="none" xmlns="http://www.w3.org/2000/svg">
<path d="M36.6667 60.5H7.33332C5.30818 60.5 3.66666 58.8585 3.66666 56.8333V22H40.3333V56.8333C40.3333 58.8585 38.6918 60.5 36.6667 60.5Z" fill="#CD3232"/>
<path d="M18.3333 60.5H7.33332C5.30818 60.5 3.66666 58.8585 3.66666 56.8333V22H22V56.8333C22 58.8585 20.3585 60.5 18.3333 60.5Z" fill="#FF4646"/>
<path d="M22 22H3.66666V25.6667H22V22Z" fill="#CD3232"/>
<path d="M1.83333 12.8333H42.1667C43.1791 12.8333 44 13.6542 44 14.6666V20.1666C44 21.1791 43.1791 22 42.1667 22H1.83333C0.820875 22 0 21.1791 0 20.1666V14.6666C0 13.6542 0.820875 12.8333 1.83333 12.8333Z" fill="#CD3232"/>
<path d="M14.6667 22H11V60.5H14.6667V22Z" fill="#E6E6EB"/>
<path d="M14.6667 22H11V25.6667H14.6667V22Z" fill="#A5C3DC"/>
<path d="M33 22H29.3333V60.5H33V22Z" fill="#A5C3DC"/>
<path d="M35.75 0C32.3049 0 29.0657 1.34154 26.6292 3.77781L22 8.40721L17.3706 3.77781C14.9343 1.34154 11.6951 0 8.25001 0C4.71191 0 1.83334 2.87856 1.83334 6.41667C1.83334 9.95477 4.71191 12.8333 8.25001 12.8333H35.75C39.2881 12.8333 42.1667 9.95477 42.1667 6.41667C42.1667 2.87856 39.2881 0 35.75 0ZM8.25001 9.16667C6.73361 9.16667 5.50001 7.93306 5.50001 6.41667C5.50001 4.90027 6.73361 3.66667 8.25001 3.66667C10.7158 3.66667 13.0343 4.62687 14.7778 6.3706L17.5741 9.16667H8.25001ZM35.75 9.16667H26.4259L29.2217 6.3706C30.9657 4.62687 33.2842 3.66667 35.75 3.66667C37.2664 3.66667 38.5 4.90027 38.5 6.41667C38.5 7.93306 37.2664 9.16667 35.75 9.16667Z" fill="#A5C3DC"/>
<path d="M1.83333 12.8333H22C23.0125 12.8333 23.8333 13.6542 23.8333 14.6666V20.1666C23.8333 21.1791 23.0125 22 22 22H1.83333C0.820875 22 0 21.1791 0 20.1666V14.6666C0 13.6542 0.820875 12.8333 1.83333 12.8333Z" fill="#FF4646"/>
<path d="M12.8333 12.8333H9.16666V22H12.8333V12.8333Z" fill="#E6E6EB"/>
<path d="M34.8333 12.8333H31.1667V22H34.8333V12.8333Z" fill="#A5C3DC"/>
</svg>
