<svg width="21" height="21" viewBox="0 0 21 21" fill="none" xmlns="http://www.w3.org/2000/svg">
<mask id="path-1-inside-1" fill="white">
<path fill-rule="evenodd" clip-rule="evenodd" d="M19.3837 16.0918C20.4053 14.4724 20.9964 12.5543 20.9964 10.4982C20.9964 4.7002 16.2962 0 10.4982 0C4.7002 0 0 4.7002 0 10.4982C0 16.2962 4.7002 20.9964 10.4982 20.9964C12.4908 20.9964 14.3537 20.4412 15.9407 19.4772L20.8092 20.5288L19.3837 16.0918Z"/>
</mask>
<path d="M19.3837 16.0918L18.4922 15.5294L18.2296 15.9456L18.3802 16.4142L19.3837 16.0918ZM15.9407 19.4772L16.1633 18.4469L15.7526 18.3582L15.3935 18.5763L15.9407 19.4772ZM20.8092 20.5288L20.5867 21.5591L22.3712 21.9446L21.8128 20.2064L20.8092 20.5288ZM19.9423 10.4982C19.9423 12.3495 19.4107 14.0734 18.4922 15.5294L20.2752 16.6542C21.3998 14.8714 22.0504 12.7592 22.0504 10.4982H19.9423ZM10.4982 1.05407C15.714 1.05407 19.9423 5.28234 19.9423 10.4982H22.0504C22.0504 4.11805 16.8783 -1.05407 10.4982 -1.05407V1.05407ZM1.05407 10.4982C1.05407 5.28234 5.28234 1.05407 10.4982 1.05407V-1.05407C4.11805 -1.05407 -1.05407 4.11805 -1.05407 10.4982H1.05407ZM10.4982 19.9423C5.28234 19.9423 1.05407 15.714 1.05407 10.4982H-1.05407C-1.05407 16.8783 4.11805 22.0504 10.4982 22.0504V19.9423ZM15.3935 18.5763C13.9667 19.443 12.2924 19.9423 10.4982 19.9423V22.0504C12.6892 22.0504 14.7406 21.4395 16.488 20.3781L15.3935 18.5763ZM21.0318 19.4985L16.1633 18.4469L15.7182 20.5075L20.5867 21.5591L21.0318 19.4985ZM18.3802 16.4142L19.8057 20.8512L21.8128 20.2064L20.3872 15.7693L18.3802 16.4142Z" fill="black" mask="url(#path-1-inside-1)"/>
</svg>
