<svg width="136" height="136" viewBox="0 0 136 136" fill="none" xmlns="http://www.w3.org/2000/svg">
<g filter="url(#filter0_d)">
<circle cx="67.6316" cy="63.6316" r="63.6316" fill="white"/>
</g>
<g clip-path="url(#clip0)">
<path d="M69.3633 76.8955H83.2817C83.8036 76.8955 84.1516 76.5476 84.1516 76.0257V68.1965C84.1516 67.6746 83.8036 67.3267 83.2817 67.3267H69.3633C68.8413 67.3267 68.4934 67.6746 68.4934 68.1965V76.0257C68.4933 76.5475 68.8413 76.8955 69.3633 76.8955ZM70.2331 69.0664H82.4118V75.1557H70.2331V69.0664Z" fill="black"/>
<path d="M45.876 65.5864H52.8352C53.3572 65.5864 53.7051 65.2385 53.7051 64.7165C53.7051 64.1946 53.3572 63.8467 52.8352 63.8467H45.876C45.354 63.8467 45.0061 64.1946 45.0061 64.7165C45.0061 65.2385 45.354 65.5864 45.876 65.5864Z" fill="black"/>
<path d="M56.3148 65.5864H63.2741C63.796 65.5864 64.1439 65.2385 64.1439 64.7165C64.1439 64.1946 63.796 63.8467 63.2741 63.8467H56.3148C55.7929 63.8467 55.4449 64.1946 55.4449 64.7165C55.4449 65.2385 55.7929 65.5864 56.3148 65.5864Z" fill="black"/>
<path d="M45.876 69.0664H57.1847C57.7066 69.0664 58.0546 68.7185 58.0546 68.1965C58.0546 67.6746 57.7066 67.3267 57.1847 67.3267H45.876C45.354 67.3267 45.0061 67.6746 45.0061 68.1965C45.0061 68.7185 45.354 69.0664 45.876 69.0664Z" fill="black"/>
<path d="M63.2739 67.3267H60.6642C60.1422 67.3267 59.7943 67.6746 59.7943 68.1965C59.7943 68.7185 60.1422 69.0664 60.6642 69.0664H63.2739C63.7958 69.0664 64.1438 68.7185 64.1438 68.1965C64.1438 67.6746 63.7958 67.3267 63.2739 67.3267Z" fill="black"/>
<path d="M92.9377 56.5398C92.3288 55.7569 91.5459 55.3219 90.5889 55.2349L88.5012 54.9819V52.5382V50.7984C88.5012 48.8847 86.9353 47.3188 85.0216 47.3188H45.0059C43.0922 47.3187 41.5264 48.8846 41.5264 50.7984V52.5383V59.4975V78.6354C41.5264 80.2066 42.5822 81.5426 44.0192 81.9707C43.9753 83.7304 45.3068 85.2581 47.0938 85.4206L87.2834 89.9441C87.3703 89.9441 87.5443 89.9441 87.6313 89.9441C89.3711 89.9441 90.937 88.6392 91.1109 86.9865L93.7206 59.0625C93.8075 58.1926 93.5466 57.2356 92.9377 56.5398ZM43.2662 53.4081H86.7614V55.6699V58.6276H43.2662V53.4081ZM45.0059 49.0586H85.0215C85.9784 49.0586 86.7613 49.8415 86.7613 50.7984V51.6683H43.2662V50.7984C43.2662 49.8415 44.0491 49.0586 45.0059 49.0586ZM43.2662 78.6353V60.3673H86.7614V78.6353C86.7614 79.5922 85.9785 80.3751 85.0216 80.3751H45.093H45.006C44.0491 80.3751 43.2662 79.5922 43.2662 78.6353ZM91.9807 58.7145L89.371 86.6384C89.2841 87.5954 88.4141 88.2912 87.4573 88.2042L47.3547 83.6808C46.4848 83.5938 45.8758 82.8979 45.7889 82.115H85.0215C86.9352 82.115 88.5011 80.5491 88.5011 78.6354V59.4974V56.6267L90.5019 56.8008C90.9369 56.8008 91.3717 57.0617 91.6327 57.4097C91.8938 57.7576 92.0678 58.2795 91.9807 58.7145Z" fill="black"/>
</g>
<defs>
<filter id="filter0_d" x="0" y="0" width="135.263" height="135.263" filterUnits="userSpaceOnUse" color-interpolation-filters="sRGB">
<feFlood flood-opacity="0" result="BackgroundImageFix"/>
<feColorMatrix in="SourceAlpha" type="matrix" values="0 0 0 0 0 0 0 0 0 0 0 0 0 0 0 0 0 0 127 0"/>
<feOffset dy="4"/>
<feGaussianBlur stdDeviation="2"/>
<feColorMatrix type="matrix" values="0 0 0 0 0 0 0 0 0 0 0 0 0 0 0 0 0 0 0.25 0"/>
<feBlend mode="normal" in2="BackgroundImageFix" result="effect1_dropShadow"/>
<feBlend mode="normal" in="SourceGraphic" in2="effect1_dropShadow" result="shape"/>
</filter>
<clipPath id="clip0">
<rect x="41.5264" y="42.5264" width="52.2105" height="52.2105" fill="white"/>
</clipPath>
</defs>
</svg>
