<svg width="17" height="15" viewBox="0 0 17 15" fill="none" xmlns="http://www.w3.org/2000/svg">
<path d="M15.2593 5.78417L15.2846 5.79004H4.46557L7.86666 2.17025C8.03321 1.99353 8.12456 1.75412 8.12456 1.50286C8.12456 1.25159 8.03321 1.01386 7.86666 0.83672L7.33745 0.27444C7.17104 0.097715 6.94928 0 6.71281 0C6.4762 0 6.25432 0.0970171 6.0879 0.273742L0.257774 6.46455C0.0907029 6.64197 -0.00065372 6.8783 3.52168e-06 7.12971C-0.00065372 7.38251 0.0907029 7.61898 0.257774 7.79612L6.0879 13.9875C6.25432 14.1641 6.47607 14.2612 6.71281 14.2612C6.94928 14.2612 7.17104 14.1639 7.33745 13.9875L7.86666 13.4252C8.03321 13.2488 8.12456 13.0131 8.12456 12.7619C8.12456 12.5107 8.03321 12.2875 7.86666 12.1109L4.42718 8.47092H15.2714C15.7587 8.47092 16.1682 8.02492 16.1682 7.50773V6.71247C16.1682 6.19527 15.7466 5.78417 15.2593 5.78417Z" fill="white"/>
</svg>
