<svg width="108" height="108" viewBox="0 0 108 108" fill="none" xmlns="http://www.w3.org/2000/svg">
<circle cx="54" cy="54" r="54" fill="#2B2B2B"/>
<path d="M46.5025 66.2101C46.4909 66.1526 46.4738 66.096 46.4513 66.0412C46.4289 65.9873 46.401 65.9352 46.3687 65.8867C46.3363 65.8372 46.2986 65.7914 46.2573 65.7501C46.2159 65.7088 46.1701 65.671 46.1207 65.6387C46.0722 65.6063 46.0201 65.5785 45.9653 65.556C45.9114 65.5336 45.8548 65.5156 45.7973 65.5048C45.6814 65.4815 45.5619 65.4815 45.4469 65.5048C45.3894 65.5156 45.3328 65.5336 45.278 65.556C45.2241 65.5785 45.172 65.6063 45.1234 65.6387C45.074 65.671 45.0282 65.7088 44.9869 65.7501C44.9455 65.7914 44.9078 65.8372 44.8755 65.8867C44.8422 65.9352 44.8153 65.9873 44.7928 66.0412C44.7704 66.096 44.7524 66.1526 44.7416 66.2101C44.7299 66.2676 44.7236 66.3269 44.7236 66.3853C44.7236 66.4437 44.7299 66.503 44.7416 66.5605C44.7524 66.618 44.7704 66.6746 44.7928 66.7285C44.8153 66.7833 44.8422 66.8354 44.8755 66.8839C44.9078 66.9333 44.9455 66.9792 44.9869 67.0205C45.0282 67.0618 45.074 67.0995 45.1234 67.1319C45.172 67.1643 45.2241 67.1922 45.278 67.2146C45.3328 67.2371 45.3894 67.2551 45.4469 67.2659C45.5044 67.2775 45.5637 67.2838 45.6221 67.2838C45.6805 67.2838 45.7398 67.2775 45.7973 67.2659C45.8548 67.2551 45.9114 67.2371 45.9653 67.2146C46.0201 67.1922 46.0722 67.1642 46.1207 67.1319C46.1701 67.0995 46.2159 67.0618 46.2573 67.0205C46.2986 66.9792 46.3363 66.9333 46.3687 66.8839C46.401 66.8354 46.4289 66.7833 46.4513 66.7285C46.4738 66.6746 46.4909 66.618 46.5025 66.5605C46.5142 66.503 46.5205 66.4437 46.5205 66.3853C46.5205 66.3269 46.5142 66.2676 46.5025 66.2101Z" fill="white"/>
<path d="M72.3275 66.4868C72.324 66.4778 72.3204 66.469 72.3166 66.4602C71.4897 64.5252 69.5503 63.81 67.2552 64.5939L60.996 66.3248C60.6341 65.2289 59.7314 64.2964 58.4551 63.8227C58.4472 63.8198 58.4393 63.8169 58.4313 63.8143L51.5509 61.479C50.9783 60.7388 49.1845 58.8447 45.8258 58.8447C43.4787 58.8447 41.4023 60.4549 40.2144 62.21H31.8984C31.4022 62.21 31 62.6122 31 63.1084V74.4357C31 74.9319 31.4022 75.3341 31.8984 75.3341H37.2403C37.7365 75.3341 38.1387 74.9319 38.1387 74.4357V73.66H40.6438C41.14 73.66 41.5423 73.2577 41.5423 72.7615V72.503C43.0026 72.6303 43.4829 72.9073 44.8241 73.6807C45.8555 74.2755 47.4144 75.1744 50.2216 76.4366C50.2346 76.4424 50.2479 76.448 50.2611 76.4532C50.7999 76.6651 51.8531 76.9981 53.1516 76.9981C54.0554 76.9981 55.0783 76.8367 56.1282 76.3608L69.9633 71.4071C69.988 71.3983 70.0122 71.3884 70.0359 71.3775C71.3582 70.7691 73.3285 69.0547 72.3275 66.4868ZM36.3418 73.5371H32.7969V64.0068H36.3418V73.5371ZM39.7454 71.863H38.1387V64.0068H39.7454V71.863ZM69.318 69.7295L55.4891 74.6809C55.4769 74.6852 55.4605 74.6916 55.4485 74.6965C55.4364 74.7014 55.4243 74.7066 55.4123 74.7121C53.4864 75.5973 51.6556 75.0674 50.9381 74.7884C48.2265 73.5682 46.7792 72.7337 45.7217 72.1239C44.2515 71.2761 43.5431 70.8675 41.5423 70.7023V63.4661C42.3939 62.0703 44.0454 60.6415 45.8259 60.6415C48.8794 60.6415 50.1732 62.6275 50.224 62.7076C50.3337 62.8861 50.5024 63.0206 50.7007 63.0879L57.841 65.5113C58.9814 65.9393 59.5841 66.9159 59.3071 67.8898C59.1792 68.3396 58.8838 68.7126 58.4754 68.9402C58.0705 69.1658 57.6024 69.2216 57.1562 69.0981L49.1068 66.5473C48.6335 66.3974 48.1288 66.6593 47.9789 67.1324C47.829 67.6054 48.091 68.1103 48.564 68.2603L56.6274 70.8155C56.6359 70.8182 56.6445 70.8208 56.6531 70.8232C56.975 70.9148 57.3027 70.9601 57.6285 70.9601C58.2249 70.9601 58.8147 70.8081 59.35 70.5099C60.1777 70.0487 60.7763 69.2927 61.0354 68.3813C61.0561 68.3085 61.0744 68.2357 61.0903 68.163L67.836 66.2942C68.8103 65.9614 70.0892 65.8415 70.6586 67.1529C71.248 68.6926 69.7162 69.5395 69.318 69.7295Z" fill="white"/>
<path d="M63.2593 42.8185C63.2476 42.761 63.2305 42.7044 63.2072 42.6496C63.1847 42.5957 63.1578 42.5436 63.1245 42.4951C63.0922 42.4456 63.0545 42.3998 63.0131 42.3585C62.9718 42.3172 62.926 42.2794 62.8766 42.2471C62.828 42.2147 62.7759 42.1869 62.722 42.1644C62.6672 42.142 62.6106 42.124 62.554 42.1132C62.4381 42.0899 62.3186 42.0899 62.2027 42.1132C62.1452 42.124 62.0886 42.142 62.0347 42.1644C61.9799 42.1869 61.9278 42.2147 61.8793 42.2471C61.8299 42.2794 61.7841 42.3172 61.7427 42.3585C61.7014 42.3998 61.6637 42.4456 61.6313 42.4951C61.599 42.5436 61.5711 42.5957 61.5487 42.6496C61.5262 42.7044 61.5082 42.761 61.4975 42.8185C61.4858 42.876 61.4795 42.9353 61.4795 42.9937C61.4795 43.0521 61.4858 43.1114 61.4975 43.1689C61.5082 43.2264 61.5262 43.283 61.5487 43.3369C61.5711 43.3917 61.599 43.4438 61.6313 43.4923C61.6637 43.5417 61.7014 43.5876 61.7427 43.6289C61.7841 43.6702 61.8299 43.7079 61.8793 43.7403C61.9278 43.7726 61.9799 43.8005 62.0347 43.8229C62.0886 43.8454 62.1452 43.8625 62.2027 43.8742C62.2602 43.8858 62.3195 43.8921 62.3779 43.8921C62.4363 43.8921 62.4956 43.8858 62.554 43.8742C62.6106 43.8625 62.6672 43.8454 62.722 43.8229C62.7759 43.8005 62.828 43.7726 62.8766 43.7403C62.926 43.7079 62.9718 43.6702 63.0131 43.6289C63.0545 43.5876 63.0922 43.5417 63.1245 43.4923C63.1578 43.4438 63.1847 43.3917 63.2072 43.3369C63.2305 43.283 63.2476 43.2264 63.2593 43.1689C63.271 43.1114 63.2764 43.0521 63.2764 42.9937C63.2764 42.9353 63.271 42.876 63.2593 42.8185Z" fill="white"/>
<path d="M76.1014 34.0448H70.7596C70.2634 34.0448 69.8611 34.447 69.8611 34.9432V35.7189H67.356C66.8598 35.7189 66.4576 36.1211 66.4576 36.6173V36.8759C64.9972 36.7484 64.5169 36.4715 63.1758 35.6982C62.1444 35.1034 60.5856 34.2045 57.7782 32.9423C57.7652 32.9364 57.7521 32.9309 57.7387 32.9257C56.8249 32.5661 54.4299 31.8587 51.872 33.0179L48.2567 34.3124L45.2093 31.2651C44.8584 30.9142 44.2895 30.9142 43.9387 31.2651L33.9339 41.2698C33.6102 41.5935 33.5482 42.1548 33.9339 42.5405L51.03 59.6366C51.3035 59.9102 51.9441 59.993 52.3006 59.6366L61.4346 50.5027C61.672 50.5232 61.9185 50.5342 62.1739 50.5342C64.5212 50.5342 66.5975 48.9241 67.7853 47.169H76.1014C76.5976 47.169 76.9998 46.7668 76.9998 46.2706V34.9432C76.9998 34.447 76.5976 34.0448 76.1014 34.0448ZM44.5739 33.1709L46.6216 35.2187C46.0129 35.5951 45.3092 35.7965 44.5739 35.7965C43.8385 35.7965 43.1348 35.5952 42.5262 35.2187L44.5739 33.1709ZM37.8875 43.9529L35.8398 41.9051L37.8875 39.8574C38.264 40.4661 38.4654 41.1698 38.4654 41.9051C38.4654 42.6404 38.2641 43.3441 37.8875 43.9529ZM51.6653 57.7306L49.618 55.6833C50.868 54.9119 52.4625 54.9119 53.7126 55.6833L51.6653 57.7306ZM55.0071 54.389C53.0217 52.9488 50.309 52.9488 48.3236 54.389L39.1819 45.2472C39.8835 44.2823 40.2623 43.1232 40.2623 41.9051C40.2623 40.6869 39.8836 39.5279 39.1819 38.563L41.2319 36.5131C42.1968 37.2147 43.3558 37.5935 44.574 37.5935C45.7922 37.5935 46.9511 37.2147 47.9161 36.5131L49.8593 38.4564C49.44 38.5183 49.0311 38.6564 48.6498 38.8689C48.0058 39.2278 47.5005 39.7651 47.1859 40.4152C46.1725 40.6029 45.2342 41.0935 44.4982 41.8295C42.5014 43.8263 42.5015 47.0753 44.4983 49.0722C45.4967 50.0705 46.8081 50.5698 48.1196 50.5698C49.4311 50.5698 50.7426 50.0706 51.7411 49.0722C52.3906 48.4226 52.8457 47.6243 53.0736 46.7542L56.1071 47.7838C55.7656 49.3657 56.1154 51.03 57.0588 52.3372L55.0071 54.389ZM49.5448 45.5562C49.5527 45.559 49.5606 45.5619 49.5686 45.5646L51.3651 46.1744C51.2294 46.7867 50.9224 47.3496 50.4705 47.8016C49.1742 49.0977 47.0651 49.0979 45.769 47.8016C44.4727 46.5055 44.4727 44.3964 45.769 43.1001C46.0816 42.7873 46.4506 42.5428 46.8527 42.377C47.0185 43.7572 48.0123 44.9875 49.5448 45.5562ZM58.3534 51.0426C58.0066 50.4775 57.8104 49.8325 57.7794 49.1742C58.2097 49.4853 58.7357 49.7901 59.3639 50.0321L58.3534 51.0426ZM66.4575 45.9124C65.6059 47.3084 63.9544 48.7372 62.1739 48.7372C61.8408 48.7372 61.5286 48.7135 61.2367 48.6712C61.2355 48.6711 61.2343 48.6709 61.2332 48.6707C59.2929 48.3889 58.2492 47.2861 57.9052 46.8495C57.8868 46.8225 57.8088 46.7204 57.7972 46.7034C57.6925 46.5163 57.5209 46.3659 57.302 46.2916L50.1587 43.8672C49.0188 43.4394 48.4162 42.4632 48.6924 41.4897C48.6926 41.489 48.6928 41.4884 48.6929 41.4878C48.6932 41.4871 48.6934 41.4862 48.6936 41.4855C48.822 41.0372 49.1168 40.6653 49.5244 40.4383C49.9292 40.2127 50.3972 40.1567 50.8435 40.2805L58.8929 42.8312C59.366 42.9813 59.8709 42.7192 60.0208 42.2461C60.1707 41.7731 59.9088 41.2682 59.4357 41.1182L53.0339 39.0896L52.978 39.0337C52.9775 39.0332 52.977 39.0325 52.9763 39.032L49.662 35.7176L52.5108 34.6976C52.5204 34.6941 52.5322 34.6897 52.5418 34.6858C52.5442 34.6848 52.5489 34.683 52.5512 34.682C52.5634 34.6771 52.5755 34.6719 52.5874 34.6664C54.5133 33.7812 56.3439 34.3111 57.0615 34.5901C59.7733 35.8103 61.2207 36.6448 62.2781 37.2546C63.7483 38.1025 64.4567 38.511 66.4575 38.6762V45.9124ZM69.8611 45.372H68.2544V37.5158H69.8611V45.372ZM75.203 45.372H71.658V35.8416H75.203V45.372Z" fill="white"/>
</svg>
