<?xml version="1.0" encoding="utf-8"?><svg viewBox="0 0 112.36 84.42" xmlns="http://www.w3.org/2000/svg" xmlns:xlink="http://www.w3.org/1999/xlink"><style>:root>svg{display:none}:root>svg:target{display:block}</style><svg viewBox="0 0 112.36 59.19" id="arrow-1"><path d="M7.347 1.135a1 1 0 00-1.208.735l-2.125 8.746a1 1 0 101.944.472l1.888-7.774 7.774 1.89a1 1 0 10.472-1.944L7.347 1.135zM112.95 56.047c-.977.02-1.944.036-2.901.046l.021 2c.964-.01 1.938-.026 2.922-.046l-.042-2zm-8.644.04a218.795 218.795 0 01-5.736-.148l-.078 1.998c1.888.074 3.817.124 5.788.15l.026-2zM92.85 55.63c-1.949-.134-3.85-.297-5.706-.487l-.204 1.989c1.879.193 3.802.358 5.772.494l.138-1.995zM81.444 54.45a131.784 131.784 0 01-5.65-.925l-.366 1.966c1.862.347 3.773.66 5.735.939l.28-1.98zm-11.23-2.105a103.913 103.913 0 01-5.532-1.474l-.569 1.917c1.827.542 3.705 1.043 5.638 1.503l.463-1.946zm-10.939-3.256a86.012 86.012 0 01-5.298-2.129l-.808 1.83c1.754.774 3.56 1.5 5.422 2.178l.684-1.88zM48.853 44.48a78.325 78.325 0 01-4.935-2.84l-1.06 1.696a80.358 80.358 0 005.06 2.912l.934-1.768zm-9.65-6.032a81.383 81.383 0 01-4.477-3.52l-1.29 1.528a83.345 83.345 0 004.586 3.607l1.18-1.614zm-8.71-7.34a97.004 97.004 0 01-3.99-4.079l-1.47 1.357a98.942 98.942 0 004.072 4.162l1.387-1.44zm-7.757-8.38a129.422 129.422 0 01-3.56-4.48l-1.592 1.21a131.413 131.413 0 003.614 4.55l1.538-1.28zm-6.938-9.106a187.638 187.638 0 01-3.227-4.748l-1.67 1.1a189.62 189.62 0 003.26 4.798l1.637-1.15zM9.477 4.04a276.992 276.992 0 01-1.512-2.455l-1.708 1.04A278.9 278.9 0 007.78 5.1L9.477 4.04zM7.583.163a2 2 0 00-2.416 1.471L.917 19.125a2 2 0 003.888.945L8.582 4.522 24.13 8.3a2 2 0 10.944-3.887L7.583.163zM112.93 55.047c-.973.02-1.937.036-2.89.046l.041 4c.968-.01 1.946-.026 2.933-.047l-.084-3.999zm-8.61.04a217.548 217.548 0 01-5.71-.147l-.156 3.997c1.897.074 3.835.124 5.815.15l.051-4zm-11.401-.453a169.062 169.062 0 01-5.672-.485l-.41 3.979c1.89.194 3.825.36 5.806.496l.275-3.99zm-11.335-1.176c-1.92-.272-3.788-.578-5.606-.917l-.733 3.932c1.877.35 3.802.666 5.777.946l.562-3.96zm-11.139-2.087a102.9 102.9 0 01-5.478-1.46l-1.138 3.835a106.76 106.76 0 005.691 1.517l.925-3.892zm-10.828-3.223a84.946 84.946 0 01-5.236-2.104l-1.615 3.66a88.99 88.99 0 005.482 2.203l1.37-3.759zM49.32 43.596a77.319 77.319 0 01-4.872-2.803l-2.12 3.392a81.336 81.336 0 005.123 2.948l1.868-3.537zm-9.528-5.954a80.43 80.43 0 01-4.421-3.478l-2.58 3.057a84.385 84.385 0 004.641 3.65l2.36-3.229zm-8.606-7.254a96.129 96.129 0 01-3.95-4.036l-2.938 2.714c1.34 1.45 2.71 2.852 4.114 4.204l2.774-2.882zm-7.682-8.298a128.343 128.343 0 01-3.532-4.446l-3.184 2.42a132.37 132.37 0 003.642 4.585l3.074-2.56zm-6.888-9.042a186.743 186.743 0 01-3.21-4.722l-3.34 2.199a190.765 190.765 0 003.278 4.823l3.272-2.3zm-6.29-9.536a275.965 275.965 0 01-1.507-2.446l-3.416 2.08c.509.837 1.018 1.664 1.528 2.482l3.394-2.116z"/></svg><svg viewBox="0 0 90.29 80.04" id="arrow-2"><path d="M11.454 1.109a1 1 0 00-1.345.437L6.022 9.564a1 1 0 001.782.909l3.633-7.128 7.127 3.633a1 1 0 00.909-1.782l-8.019-4.087zm79.165 75.715a100.25 100.25 0 01-2.78-.64l-.476 1.942c.937.23 1.882.448 2.835.653l.421-1.955zm-8.26-2.15a97.573 97.573 0 01-5.39-1.828l-.698 1.874a99.596 99.596 0 005.502 1.865l.586-1.912zm-10.656-3.965a96.95 96.95 0 01-5.14-2.445l-.912 1.78c1.71.876 3.46 1.709 5.246 2.496l.806-1.83zm-10.121-5.184a98.951 98.951 0 01-4.82-3.026l-1.112 1.663c1.599 1.069 3.238 2.1 4.918 3.087l1.014-1.724zm-9.457-6.319a103.212 103.212 0 01-4.452-3.55l-1.29 1.528a105.184 105.184 0 004.538 3.62l1.204-1.598zm-8.701-7.337a109.163 109.163 0 01-4.045-4.008l-1.445 1.383c1.331 1.389 2.704 2.751 4.12 4.082l1.37-1.457zm-7.88-8.22a115.416 115.416 0 01-3.619-4.399l-1.575 1.233a117.53 117.53 0 003.681 4.474l1.513-1.309zm-7.023-8.972a121.339 121.339 0 01-3.182-4.73l-1.685 1.078a123.23 123.23 0 003.235 4.807l1.632-1.155zm-6.14-9.6a124.797 124.797 0 01-2.734-5.006l-1.776.918c.879 1.701 1.805 3.398 2.778 5.087l1.733-.998zm-5.236-10.13a123.913 123.913 0 01-2.264-5.23l-1.853.751c.717 1.767 1.483 3.54 2.3 5.315l1.817-.836zM12.864 4.39c-.318-.903-.622-1.803-.913-2.698l-1.902.618c.296.91.605 1.825.928 2.743l1.887-.663zM11.908.218a2 2 0 00-2.69.874L1.044 17.129a2 2 0 003.564 1.816L11.874 4.69l14.255 7.265a2 2 0 001.816-3.563L11.908.218zM90.83 75.846c-.926-.2-1.844-.41-2.753-.633l-.952 3.885c.946.232 1.9.451 2.863.659l.842-3.911zm-8.177-2.129a96.551 96.551 0 01-5.336-1.809l-1.394 3.75c1.815.675 3.668 1.304 5.556 1.883l1.174-3.824zm-10.547-3.923a95.92 95.92 0 01-5.087-2.42l-1.824 3.56a99.933 99.933 0 005.3 2.521l1.611-3.66zm-10.017-5.13a97.939 97.939 0 01-4.772-2.996l-2.223 3.325a102 102 0 004.967 3.118l2.028-3.448zm-9.363-6.257a102.194 102.194 0 01-4.408-3.516l-2.58 3.057a106.211 106.211 0 004.581 3.654l2.407-3.195zM44.11 51.14a107.939 107.939 0 01-4.008-3.971l-2.889 2.767a112.069 112.069 0 004.157 4.119l2.74-2.915zM36.3 42.994a114.562 114.562 0 01-3.587-4.36l-3.15 2.465c1.193 1.525 2.43 3.03 3.712 4.512l3.025-2.617zm-6.962-8.895a120.312 120.312 0 01-3.156-4.69l-3.37 2.155a124.404 124.404 0 003.26 4.846l3.265-2.311zm-6.09-9.52a123.68 123.68 0 01-2.712-4.967l-3.554 1.837a128.03 128.03 0 002.8 5.126l3.466-1.997zm-5.195-10.05a123.042 123.042 0 01-2.245-5.189L12.1 10.844c.723 1.781 1.495 3.569 2.32 5.358l3.633-1.673zM13.807 4.057a116.88 116.88 0 01-.905-2.675L9.098 2.618c.298.918.61 1.84.936 2.766l3.773-1.327z"/></svg><svg viewBox="0 0 73.63 84.42" id="arrow-3"><path d="M14.983 1.61a1 1 0 00-1.409.124l-5.78 6.9a1 1 0 101.534 1.284l5.137-6.133 6.133 5.138a1 1 0 001.284-1.534L14.983 1.61zm58.763 80.23c-.903-.423-1.792-.847-2.667-1.27l-.872 1.8c.883.427 1.78.854 2.691 1.28l.848-1.81zm-7.893-3.894a172.831 172.831 0 01-5.161-2.798l-.984 1.741c1.68.949 3.419 1.892 5.221 2.83l.924-1.773zm-10.197-5.772a126.627 126.627 0 01-4.904-3.186l-1.13 1.65c1.591 1.088 3.25 2.167 4.982 3.237l1.052-1.7zm-9.626-6.6a93.387 93.387 0 01-4.524-3.69l-1.313 1.508a95.41 95.41 0 004.621 3.769l1.216-1.588zm-8.778-7.662a72.942 72.942 0 01-3.935-4.273l-1.525 1.294a74.987 74.987 0 004.043 4.39l1.417-1.41zm-7.499-8.853a65.13 65.13 0 01-3.146-4.872l-1.727 1.01a67.16 67.16 0 003.243 5.021l1.63-1.159zm-5.85-10.005a70.907 70.907 0 01-2.26-5.35l-1.873.704a72.965 72.965 0 002.325 5.5l1.808-.854zM19.8 28.187a93.897 93.897 0 01-1.47-5.64l-1.949.445c.448 1.96.946 3.88 1.5 5.76l1.919-.565zM17.18 16.821c-.33-1.886-.625-3.813-.888-5.783l-1.982.264c.266 1.995.564 3.95.9 5.865l1.97-.346zM15.614 5.213c-.098-.965-.19-1.94-.277-2.924l-1.992.176c.087.993.18 1.976.279 2.95l1.99-.202zm.011-4.37a2 2 0 00-2.817.25L1.248 14.89a2 2 0 103.067 2.568L14.59 5.194 26.855 15.47a2 2 0 002.568-3.067L15.625.843zm58.545 80.09c-.899-.42-1.784-.842-2.655-1.264l-1.744 3.6c.887.43 1.788.859 2.703 1.287l1.696-3.622zm-7.855-3.874a171.666 171.666 0 01-5.131-2.782l-1.968 3.483c1.69.954 3.44 1.903 5.252 2.846l1.847-3.547zm-10.133-5.736a125.512 125.512 0 01-4.865-3.16l-2.259 3.301a129.475 129.475 0 005.02 3.262l2.104-3.403zm-9.544-6.544a92.517 92.517 0 01-4.475-3.65l-2.626 3.018a96.56 96.56 0 004.669 3.808l2.432-3.176zm-8.677-7.572a71.992 71.992 0 01-3.882-4.215l-3.05 2.589a76.008 76.008 0 004.098 4.448l2.834-2.822zm-7.393-8.727a64.162 64.162 0 01-3.098-4.797L24.017 45.7a68.116 68.116 0 003.29 5.096l3.261-2.317zm-5.761-9.853a70.004 70.004 0 01-2.229-5.274l-3.744 1.407a73.979 73.979 0 002.356 5.576l3.617-1.709zm-4.048-10.723a92.876 92.876 0 01-1.453-5.58l-3.9.891a96.988 96.988 0 001.516 5.82l3.837-1.13zM18.166 16.65c-.328-1.871-.62-3.785-.882-5.744l-3.964.53c.268 2.007.568 3.974.906 5.905l3.94-.691zM16.609 5.112c-.098-.96-.19-1.93-.276-2.911l-3.984.352c.088.997.18 1.984.28 2.963l3.98-.404z"/></svg><svg fill="none" viewBox="0 0 36 36" id="check" xmlns="http://www.w3.org/2000/svg"><path d="M29.793 0H5.957A5.957 5.957 0 000 5.957v23.836a5.957 5.957 0 005.957 5.957h23.836a5.957 5.957 0 005.957-5.957V5.957A5.957 5.957 0 0029.793 0z" fill="url(#dpaint0_linear_23_409)"/><path d="M14.75 24.85h-.048a1.971 1.971 0 01-1.426-.688l-3.204-3.63a2.203 2.203 0 01.106-3 1.943 1.943 0 012.843.11l1.805 2.062 7.971-8.202a1.944 1.944 0 012.85.038 2.214 2.214 0 01-.038 3.004l-9.453 9.704a1.96 1.96 0 01-1.406.602z" fill="#fff"/><defs><linearGradient id="dpaint0_linear_23_409" x1="0" y1="17.875" x2="35.75" y2="17.875" gradientUnits="userSpaceOnUse"><stop stop-color="#556485"/><stop offset="1" stop-color="#418CFF"/></linearGradient></defs></svg><svg fill="none" viewBox="0 0 16 16" id="like" xmlns="http://www.w3.org/2000/svg"><path d="M0 6v8a1 1 0 001 1h3V5H1a1 1 0 00-1 1zM14.153 6H11.2a.491.491 0 01-.43-.247.492.492 0 01-.007-.496l1.041-1.875c.229-.41.252-.894.065-1.325a1.488 1.488 0 00-1.013-.858l-.734-.184a.499.499 0 00-.493.15l-3.987 4.43A2.499 2.499 0 005 7.268V12.5C5 13.878 6.122 15 7.5 15h4.974a2.505 2.505 0 002.411-1.84l1.068-4.898A1.849 1.849 0 0014.153 6z" fill="#777"/></svg></svg>