<svg xmlns="http://www.w3.org/2000/svg" xmlns:xlink="http://www.w3.org/1999/xlink"><symbol id="icon" viewBox="0 0 100 100"><g xmlns="http://www.w3.org/2000/svg"><path d="M34.969,27.966c-0.083-0.852-0.131-1.716-0.131-2.595c0-13.507,7.135-22.087,15.215-22.087   c7.707,0,14.795,9.533,14.795,22.087c0,0.879-0.036,1.743-0.1,2.595h5.122c-0.241-0.99-0.438-1.998-0.562-3.019   C67.681,11.44,58.785,0,50.08,0c-9.127,0-17.656,9.64-19.704,24.947c-0.137,1.021-0.32,2.027-0.527,3.019H34.969z" fill="currentColor"></path><path d="M97.481,38.665c0-3.39-2.309-6.779-5.876-6.779h-20.45l2.916,9.958l-5.923,4.257l-6.016-4.257l2.507-9.958H35.477   l2.916,9.958l-5.923,4.257l-6.015-4.257l2.507-9.958H9.234c-5.247,0-6.716,3.284-6.716,6.779L0,91.525   C0,97.352,2.623,100,7.975,100h83.631c6.086,0,8.395-2.648,8.395-8.475L97.481,38.665z" fill="currentColor"></path></g></symbol></svg>