<svg xmlns="http://www.w3.org/2000/svg"><symbol id="icon" viewBox="0 0 100 100"><title xmlns="http://www.w3.org/2000/svg" fill="currentColor">Artboard 4</title><path xmlns="http://www.w3.org/2000/svg" d="M6.54,81.08h3.72A14.74,14.74,0,0,0,24.38,91.67,14.56,14.56,0,0,0,38.5,81.08H52.93A14.74,14.74,0,0,0,67.05,91.67,14.56,14.56,0,0,0,81.17,81.08h2.89a5.43,5.43,0,0,0,5.44-5.44v-23A26.68,26.68,0,0,1,55.32,16.45H27.61a9,9,0,0,0-7.45,4L2.1,47.19A6.45,6.45,0,0,0,1,50.8l.09,24.84A5.43,5.43,0,0,0,6.54,81.08Zm60.52-10.2A6.18,6.18,0,0,1,73.13,77a6.08,6.08,0,1,1-6.08-6.08ZM24.38,83.08A6.22,6.22,0,0,1,18.26,77a6.13,6.13,0,0,1,6.12-6.12A6.22,6.22,0,0,1,30.49,77,6.14,6.14,0,0,1,24.38,83.08ZM27.7,25.6H40.44V44.44H15ZM79.43,8.33A19.58,19.58,0,1,0,99,27.91,19.58,19.58,0,0,0,79.43,8.33Zm7.94,27.52a3.27,3.27,0,0,1-4.62,0l-6.59-6.59v-10a3.27,3.27,0,0,1,6.53,0v7.28l4.68,4.68a3.27,3.27,0,0,1,0,4.62Z" fill="currentColor"></path></symbol></svg>