<svg width="51" height="51" viewBox="0 0 51 51" fill="none" xmlns="http://www.w3.org/2000/svg">
<path d="M26.316 20.4C26.095 20.4068 25.8825 20.4986 25.7261 20.6584L21.2415 25.1293L18.479 22.3753C17.7055 21.5696 16.456 22.8139 17.2635 23.5857L20.6346 26.9484C20.9695 27.2833 21.5135 27.2833 21.8501 26.9484L26.9416 21.8705C27.5026 21.3265 27.0895 20.4 26.3177 20.4H26.316ZM0.85 27.2H5.95C6.4209 27.2 6.8 27.5791 6.8 28.0499C6.8 28.5209 6.4209 28.9 5.95 28.9H0.85C0.3791 28.9 0 28.5209 0 28.0499C0 27.5791 0.3791 27.2 0.85 27.2ZM0.85 20.4H5.95C6.4209 20.4 6.8 20.7791 6.8 21.25C6.8 21.7209 6.4209 22.1 5.95 22.1H0.85C0.3791 22.1 0 21.7209 0 21.25C0 20.7791 0.3791 20.4 0.85 20.4ZM0.85 13.6H5.95C6.4209 13.6 6.8 13.9791 6.8 14.45C6.8 14.9209 6.4209 15.3 5.95 15.3H0.85C0.3791 15.3 0 14.9209 0 14.45C0 13.9791 0.3791 13.6 0.85 13.6ZM41.65 32.2999C39.3125 32.2999 37.4 34.2125 37.4 36.5499C37.4 38.8874 39.3125 40.7999 41.65 40.7999C43.9875 40.7999 45.9 38.8874 45.9 36.5499C45.9 34.2125 43.9875 32.2999 41.65 32.2999ZM41.65 34C43.0678 34 44.2 35.1322 44.2 36.5499C44.2 37.9678 43.0678 39.1 41.65 39.1C40.2322 39.1 39.1 37.9678 39.1 36.5499C39.1 35.1322 40.2322 34 41.65 34ZM19.55 32.2999C17.2125 32.2999 15.3 34.2125 15.3 36.5499C15.3 38.8874 17.2125 40.7999 19.55 40.7999C21.8875 40.7999 23.8 38.8874 23.8 36.5499C23.8 34.2125 21.8875 32.2999 19.55 32.2999ZM19.55 34C20.9678 34 22.1 35.1322 22.1 36.5499C22.1 37.9678 20.9678 39.1 19.55 39.1C18.1322 39.1 17 37.9678 17 36.5499C17 35.1322 18.1322 34 19.55 34ZM11.05 10.2C9.6526 10.2 8.5 11.3526 8.5 12.75V31.45C8.5 32.8474 9.6526 34 11.05 34H14.45C15.5992 34.017 15.5992 32.2829 14.45 32.2999H11.05C10.5638 32.2999 10.2 31.9361 10.2 31.45V12.75C10.2 12.2638 10.5638 11.9 11.05 11.9H33.15C33.6362 11.9 34 12.2638 34 12.75V32.2999H24.65C23.528 32.2999 23.5484 34.017 24.65 34H36.55C37.672 34 37.6618 32.2999 36.55 32.2999H35.7V17H42.8859L49.3 27.0231V31.45C49.3 31.9361 48.9362 32.2999 48.45 32.2999H46.75C45.6382 32.2999 45.6382 34 46.75 34H48.45C49.8474 34 51 32.8474 51 31.45V26.775C51 26.6135 50.9541 26.452 50.8674 26.316L44.0674 15.691C43.911 15.4479 43.6424 15.3 43.35 15.3H35.7V12.75C35.7 11.3526 34.5474 10.2 33.15 10.2H11.05Z" fill="#790F00"/>
</svg>
