<svg width="57" height="57" viewBox="0 0 57 57" fill="none" xmlns="http://www.w3.org/2000/svg">
<path d="M19.4485 28.3546L18.2657 36.8834C18.2222 37.1979 18.2649 37.5182 18.3892 37.8103C18.5136 38.1024 18.7149 38.3552 18.9717 38.5417C19.2286 38.7283 19.5313 38.8416 19.8475 38.8695C20.1637 38.8974 20.4815 38.8389 20.7671 38.7003L28.4878 34.9404L36.2339 38.7012C36.5195 38.8395 36.8374 38.8977 37.1536 38.8695C37.4698 38.8413 37.7723 38.7278 38.029 38.5411C38.2858 38.3544 38.4869 38.1015 38.6112 37.8094C38.7354 37.5173 38.778 37.197 38.7344 36.8826L37.5446 28.3782L43.5136 22.1742C43.7337 21.9455 43.8876 21.6612 43.9587 21.3519C44.0299 21.0425 44.0157 20.7196 43.9176 20.4177C43.8196 20.1157 43.6414 19.8461 43.402 19.6376C43.1627 19.429 42.8712 19.2894 42.5587 19.2336L34.1021 17.7376L30.0456 10.143C29.8962 9.86288 29.6734 9.62868 29.4012 9.46538C29.129 9.30208 28.8175 9.21582 28.5 9.21582C28.1826 9.21582 27.8711 9.30208 27.5989 9.46538C27.3266 9.62868 27.1039 9.86288 26.9544 10.143L22.9179 17.7228L14.4413 19.2336C14.1288 19.2894 13.8373 19.429 13.598 19.6376C13.3587 19.8461 13.1805 20.1157 13.0824 20.4177C12.9844 20.7196 12.9702 21.0425 13.0413 21.3519C13.1125 21.6612 13.2663 21.9455 13.4864 22.1742L19.4485 28.3546ZM23.2328 19.4763C23.4936 19.4299 23.7405 19.3247 23.9546 19.1687C24.1687 19.0128 24.3446 18.8101 24.4687 18.576L28.4739 10.9805L29.2602 10.5619L28.4748 10.9811L32.5314 18.5758C32.6557 18.8101 32.8318 19.0129 33.0463 19.1689C33.2608 19.3249 33.5081 19.4299 33.7693 19.476L42.2303 20.9389L36.262 27.1429C36.0772 27.3335 35.9384 27.5638 35.8562 27.8163C35.7741 28.0688 35.7507 28.3368 35.788 28.5997L37.0109 37.098L29.2658 33.338C29.0275 33.2213 28.7657 33.1606 28.5004 33.1606C28.2351 33.1606 27.9732 33.2213 27.735 33.338L20.0299 37.1276L21.2136 28.5971C21.2503 28.3346 21.2267 28.0672 21.1445 27.8152C21.0624 27.5632 20.9239 27.3333 20.7396 27.1429L14.7546 20.9868L23.2328 19.4763Z" fill="#790F00"/>
<path d="M50.1422 29.2114C50.5539 27.5207 50.7632 25.787 50.7656 24.0469C50.7656 18.1417 48.4198 12.4783 44.2442 8.3027C40.0686 4.12709 34.4052 1.78125 28.5 1.78125C22.5948 1.78125 16.9314 4.12709 12.7558 8.3027C8.58022 12.4783 6.23438 18.1417 6.23438 24.0469C6.23668 25.7869 6.44618 27.5205 6.85844 29.2111C5.1358 30.734 4.00502 32.8153 3.66482 35.0893C3.32462 37.3633 3.79677 39.6844 4.99829 41.6448C6.19981 43.6051 8.05383 45.0793 10.2345 45.8082C12.4152 46.5371 14.783 46.4741 16.9219 45.6303V54.3281C16.9219 54.4574 16.9501 54.5852 17.0045 54.7025C17.0588 54.8198 17.1381 54.9239 17.2368 55.0075C17.3354 55.0911 17.4511 55.1522 17.5758 55.1866C17.7004 55.221 17.8311 55.2278 17.9587 55.2066L28.5 53.4497L39.0414 55.2066C39.0897 55.2145 39.1385 55.2186 39.1875 55.2188C39.4237 55.2188 39.6502 55.1249 39.8173 54.9579C39.9843 54.7909 40.0781 54.5643 40.0781 54.3281V45.6303C42.2167 46.4722 44.5835 46.5339 46.763 45.8045C48.9425 45.0752 50.7954 43.6014 51.9965 41.6419C53.1976 39.6824 53.6701 37.3624 53.331 35.0893C52.9919 32.8161 51.8629 30.7351 50.1422 29.2114ZM28.5 3.5625C33.931 3.56853 39.1377 5.72864 42.978 9.5689C46.8182 13.4092 48.9783 18.6159 48.9844 24.0469C48.986 25.8202 48.7535 27.586 48.2929 29.2984C47.0691 33.8874 44.2943 37.911 40.4399 40.6858C39.8927 41.0796 39.3261 41.4458 38.7422 41.7829L38.7409 41.7838L38.7344 41.788C38.3004 42.0446 37.842 42.2751 37.4519 42.4664C34.6635 43.825 31.6026 44.5311 28.5009 44.5312C25.3992 44.5314 22.3382 43.8256 19.5498 42.4673C19.1583 42.2751 18.7 42.0446 18.2584 41.7829C17.6729 41.445 17.1047 41.0778 16.5561 40.6829C12.7022 37.907 9.92846 33.8822 8.70622 29.2927C8.24595 27.5821 8.01375 25.8183 8.01563 24.0469C8.02167 18.6159 10.1818 13.4092 14.022 9.5689C17.8623 5.72864 23.0691 3.56853 28.5 3.5625ZM13.3594 44.5312C11.8096 44.5315 10.2931 44.0823 8.99337 43.2383C7.69364 42.3943 6.66649 41.1915 6.03631 39.7757C5.40613 38.3599 5.19995 36.7917 5.44273 35.2611C5.68551 33.7305 6.36684 32.3032 7.40422 31.1518C7.42266 31.2068 7.44786 31.2587 7.46656 31.3138C7.65529 31.8602 7.86049 32.4004 8.09116 32.9287C8.11075 32.9738 8.13293 33.0178 8.15288 33.0623C8.38682 33.5887 8.64085 34.1051 8.91499 34.6113C8.93921 34.6558 8.96121 34.702 8.98624 34.7466C9.26563 35.2542 9.56844 35.749 9.8863 36.2335C9.93538 36.3085 9.98338 36.3839 10.0334 36.4583C10.3503 36.9289 10.6847 37.3869 11.0367 37.8322C11.0936 37.9044 11.1513 37.9754 11.2092 38.0468C11.572 38.4951 11.9496 38.9314 12.346 39.3507C12.3887 39.3959 12.4332 39.4391 12.4762 39.4843C13.3147 40.3568 14.223 41.1595 15.1919 41.8843C15.2494 41.9274 15.3054 41.972 15.3634 42.0143C15.8245 42.3522 16.2995 42.6714 16.7884 42.9719C16.8341 43.0002 16.8761 43.0338 16.922 43.0617V43.6966C15.8145 44.2453 14.5953 44.5309 13.3594 44.5312ZM18.7031 44.2284V44.0354L18.7655 44.0666C21.5254 45.4181 24.5384 46.1748 27.6094 46.2877V51.7925L18.7031 53.2766V44.2284ZM38.2969 53.2766L29.3906 51.7925V46.2877C32.4619 46.1748 35.4751 45.4178 38.2352 44.0659C38.2551 44.0564 38.276 44.0459 38.2969 44.0355V53.2766ZM43.6406 44.5312C42.4047 44.5308 41.1855 44.2451 40.0781 43.6963V43.0617C40.122 43.035 40.1619 43.0031 40.2056 42.976C40.6938 42.6739 41.1693 42.3544 41.6321 42.0176C41.6944 41.972 41.7544 41.9242 41.8161 41.878C42.296 41.5186 42.7642 41.1449 43.2123 40.7489L43.2198 40.7421C43.6698 40.344 44.0996 39.9246 44.5156 39.4924C44.5625 39.4436 44.611 39.3965 44.6575 39.3474C45.0521 38.9298 45.4277 38.4958 45.7886 38.0497C45.8474 37.9771 45.9061 37.905 45.964 37.8317C46.3165 37.3852 46.6516 36.9262 46.9695 36.4547C47.0171 36.3841 47.0627 36.3122 47.1094 36.241C47.4308 35.7511 47.7366 35.2524 48.0188 34.7386C48.0378 34.7041 48.0548 34.6685 48.0737 34.6337C48.3575 34.1105 48.6204 33.5761 48.8622 33.0306C48.8755 33.0006 48.8902 32.9715 48.9034 32.9415C49.1394 32.4016 49.3494 31.8502 49.5415 31.2918C49.5578 31.2444 49.5797 31.1993 49.5956 31.1517C50.633 32.3031 51.3144 33.7304 51.5572 35.261C51.8 36.7916 51.5938 38.3598 50.9636 39.7756C50.3335 41.1914 49.3064 42.3942 48.0066 43.2383C46.7069 44.0823 45.1904 44.5314 43.6406 44.5312Z" fill="#790F00"/>
</svg>
