<svg width="22" height="22" viewBox="0 0 22 22" fill="none" xmlns="http://www.w3.org/2000/svg">
<g clip-path="url(#clip0)">
<path d="M21.4064 9.56894C21.4059 9.56844 21.4054 9.56793 21.4049 9.56743L12.4306 0.593506C12.0481 0.210815 11.5395 0 10.9985 0C10.4576 0 9.94898 0.210648 9.56629 0.593338L0.596733 9.56273C0.593712 9.56575 0.59069 9.56894 0.587669 9.57196C-0.197853 10.362 -0.196511 11.6439 0.59153 12.4319C0.951561 12.7921 1.42707 13.0007 1.93548 13.0226C1.95612 13.0246 1.97694 13.0256 1.99792 13.0256H2.3556V19.6298C2.3556 20.9367 3.41891 22 4.7261 22H8.23711C8.59295 22 8.88165 21.7115 8.88165 21.3555V16.1777C8.88165 15.5814 9.36672 15.0963 9.96308 15.0963H12.034C12.6303 15.0963 13.1154 15.5814 13.1154 16.1777V21.3555C13.1154 21.7115 13.4039 22 13.7599 22H17.271C18.5781 22 19.6415 20.9367 19.6415 19.6298V13.0256H19.9731C20.5139 13.0256 21.0225 12.8149 21.4054 12.4322C22.1942 11.6429 22.1946 10.3588 21.4064 9.56894Z" fill="#8ED6FF"/>
</g>
<defs>
<clipPath id="clip0">
<rect width="22" height="22" fill="white"/>
</clipPath>
</defs>
</svg>
