<svg width="57" height="57" viewBox="0 0 57 57" fill="none" xmlns="http://www.w3.org/2000/svg">
<path d="M23.2186 19.5875C23.0769 20.6434 23.3181 22.3341 24.7534 22.5146C24.8724 22.5302 24.9924 22.5362 25.1123 22.5327V22.653H20.544V22.5327H20.8063C22.1029 22.5327 22.9171 20.6224 23.0799 19.6086L23.3603 17.5027C23.111 17.6073 22.8497 17.681 22.5824 17.7223C21.7451 17.8677 20.8833 17.7576 20.1097 17.4064C19.4717 17.0985 18.9302 16.6224 18.5438 16.0296C18.1574 15.4368 17.9408 14.7498 17.9175 14.0431C17.8848 13.3483 18.0207 12.656 18.3136 12.0248C18.6065 11.3937 19.0479 10.8425 19.6001 10.418C20.5349 9.7411 21.4727 9.64182 22.5311 9.65987H25.2811L30.1269 20.6224L34.255 9.65987H36.9477V9.76216C36.7686 9.75874 36.5894 9.76477 36.411 9.78021C35.3134 9.90054 35.3526 10.7158 35.4732 11.6514L36.6793 20.0749C36.8603 21.188 36.999 22.2228 38.1539 22.4816C38.2983 22.5138 38.4463 22.527 38.5941 22.5207V22.641H33.5283V22.5207H33.7695C35.3827 22.5207 35.1656 21.0165 34.9756 19.6176L33.7695 11.3807L29.4786 22.7734H29.3188L24.8318 12.5058C24.3132 11.4318 23.8217 10.2766 22.7 9.92762C22.1818 9.79102 21.6392 9.77421 21.1135 9.87848C20.5878 9.98274 20.0929 10.2053 19.6665 10.5293C19.1296 10.9469 18.6997 11.4856 18.4119 12.1011C18.1242 12.7166 17.9868 13.3914 18.011 14.0701C18.0713 15.3818 18.8493 16.7777 20.1459 17.3132C20.8806 17.6041 21.6964 17.618 22.4406 17.3523C22.9171 17.2002 23.3432 16.9217 23.673 16.5464C24.0029 16.1712 24.2242 15.7135 24.3132 15.2224C24.473 14.2296 24.2137 13.1736 23.2578 12.6562C22.837 12.4549 22.3672 12.378 21.9039 12.4345C21.4407 12.491 21.0033 12.6786 20.6435 12.9751L20.6043 12.936C21.5089 12.0335 22.7965 11.6634 23.9755 12.238C24.4752 12.4915 24.8813 12.8966 25.1355 13.3951C25.3896 13.8935 25.4786 14.4596 25.3897 15.0118C25.3068 15.5447 25.0896 16.048 24.7584 16.4742C24.4271 16.9004 23.9928 17.2357 23.496 17.4485L23.2186 19.5875ZM24.473 7.4427C26.2523 6.69292 28.2038 6.44536 30.1145 6.72708C32.0252 7.0088 33.8215 7.80896 35.3073 9.04015H34.6017C32.8592 7.7446 30.7441 7.04479 28.5709 7.04479C26.3978 7.04479 24.2827 7.7446 22.5401 9.04015H21.8285C22.6241 8.37429 23.5155 7.83172 24.473 7.43067V7.4427ZM38.2956 13.0383C38.8429 14.3332 39.1249 15.7243 39.1249 17.1297C39.1249 18.535 38.8429 19.9261 38.2956 21.221C38.2594 21.3083 38.2202 21.3955 38.181 21.4828L37.8131 21.2361L37.8946 21.0496C38.6238 19.3278 38.8585 17.4376 38.5726 15.5903C38.2866 13.743 37.4912 12.0115 36.2753 10.5895V10.442L36.3899 10.412H36.6673C37.3391 11.2009 37.888 12.0863 38.2956 13.0383ZM36.0371 24.5603C34.5654 26.0379 32.6866 27.0456 30.6395 27.4555C28.5924 27.8653 26.4694 27.6587 24.5403 26.8619C22.6112 26.0652 20.963 24.7143 19.8053 22.9808C18.6475 21.2474 18.0324 19.2097 18.0382 17.1266C18.0382 16.898 18.0382 16.6664 18.0593 16.4407L18.1166 16.525L18.1346 16.5521L18.2583 16.7175L18.2794 16.7446L18.4121 16.901L18.4362 16.9281L18.4754 16.9702C18.4754 17.0214 18.4754 17.0755 18.4754 17.1266C18.4735 18.4702 18.7432 19.8004 19.2684 21.0375C19.4625 21.4944 19.6892 21.9368 19.9469 22.3612V22.9448L19.962 22.9719V22.996L19.9982 23.0441L20.0404 23.0892L20.0615 23.1103L20.0856 23.1314L20.1097 23.1494L20.2032 23.1645H20.2816L20.3389 23.1885H20.5681C20.8353 23.5345 21.1243 23.8631 21.4335 24.1723C22.3705 25.1096 23.4836 25.8533 24.7092 26.3607C25.9347 26.8682 27.2486 27.1294 28.5755 27.1294C29.9024 27.1294 31.2162 26.8682 32.4418 26.3607C33.6673 25.8533 34.7805 25.1096 35.7174 24.1723C36.0284 23.8639 36.3185 23.5352 36.5859 23.1885H37.1286C36.7975 23.6487 36.4283 24.0804 36.025 24.4791L36.0371 24.5603Z" fill="#0067A0"/>
<path d="M30.5415 1.80502C29.9522 1.42436 29.2497 1.20335 28.4955 1.20335C27.7413 1.20335 27.0388 1.42436 26.4495 1.80502H24.6574C25.5699 0.702602 26.9505 0 28.4955 0C30.0405 0 31.4211 0.702602 32.3337 1.80502H30.5415Z" fill="#0067A0"/>
<path d="M4.80072 5.03405C4.56391 4.988 4.31996 4.96381 4.07079 4.96381C1.82255 4.96381 0 6.93254 0 9.17553C0 9.77035 0.12817 10.3353 0.35846 10.8444L1.25027 9.67792C1.22128 9.51482 1.20616 9.34694 1.20616 9.17553C1.20616 7.5898 2.46418 6.25127 3.9315 6.17097L4.80072 5.03405Z" fill="#0067A0"/>
<path d="M7.0756 6.36693C6.69936 5.93642 6.23973 5.58262 5.72348 5.33798L7.0756 6.36693Z" fill="#0067A0"/>
<path d="M52.1524 5.13029C52.3539 5.10623 52.5599 5.1003 52.7695 5.11424C55.1164 5.27035 57 7.43561 57 9.7298C57 10.2681 56.9193 10.7483 56.771 11.1712L55.7908 9.88911C55.7928 9.83713 55.7938 9.78403 55.7938 9.7298C55.7938 8.16827 54.5898 6.69433 53.1027 6.37322L52.1524 5.13029Z" fill="#0067A0"/>
<path d="M52.2489 5.10429C50.8685 5.25687 49.4784 5.32367 48.0867 5.30375C44.306 5.33687 40.5454 4.75254 36.9539 3.57394C34.791 2.84733 32.9265 1.95536 31.3603 0.898015V0.902505H29.3659C31.2658 2.45919 33.6655 3.72572 36.5649 4.70208C40.2789 5.92135 44.1679 6.52601 48.0777 6.49206C49.3125 6.45017 50.2597 6.4284 51.0236 6.41083C51.9566 6.38938 52.6163 6.37421 53.1932 6.33636L52.2489 5.10429Z" fill="#0067A0"/>
<path d="M33.4168 33.4501C33.6641 33.4501 33.7726 33.5975 33.7726 33.7509V36.1275C33.7726 36.302 33.6641 36.4284 33.4168 36.4284H33.061V33.4501H33.4168Z" fill="#0067A0"/>
<path d="M22.4407 40.4987C22.4407 40.4145 22.3835 40.3392 22.2508 40.3392H22.0548V41.1575H22.2508C22.3835 41.1575 22.4407 41.0913 22.4407 41.0041V40.4987Z" fill="#0067A0"/>
<path d="M31.8337 40.3392C31.9664 40.3392 32.0267 40.4145 32.0267 40.4987V40.9499C32.0267 41.0372 31.9664 41.1124 31.8337 41.1124H31.6377V40.3392H31.8337Z" fill="#0067A0"/>
<path fill-rule="evenodd" clip-rule="evenodd" d="M55.7819 9.71423C54.962 17.2189 52.9219 23.6947 50.5533 29.6565H6.4712C4.06797 23.5961 2.28869 16.7356 1.13335 9.07496L0.159162 10.2566C2.38648 26.54 7.04371 37.0776 14.9143 46.5245C19.154 51.6086 23.5735 55.0732 28.173 56.9184H28.2032L28.2363 56.9334C28.2791 56.9525 28.3235 56.9676 28.369 56.9785C28.4056 56.9877 28.443 56.9938 28.4806 56.9966C28.5247 57.0011 28.5692 57.0011 28.6133 56.9966C28.6542 56.9942 28.6946 56.9872 28.7339 56.9755C28.7721 56.9657 28.8094 56.9526 28.8455 56.9364L28.9269 56.8913L29.1108 56.8071C33.9756 54.6511 38.4766 51.017 42.6138 45.9047C49.657 37.2035 54.3854 25.5824 56.7989 11.0413L55.7819 9.71423ZM24.7928 38.2063H22.682L22.6669 35.0626L22.0638 37.3098H20.6225L20.0194 35.1017V38.2063H17.9086V31.6721H20.8064L21.3492 34.5241L21.898 31.6721H24.7928V38.2063ZM27.8534 36.29H30.1541V38.2063H25.4682V31.6721H30.0576V33.6065H27.8534V34.0818H29.9642V35.8147H27.8534V36.29ZM30.6879 38.2063H33.453C35.2863 38.2063 36.191 37.5264 36.191 36.1004V33.8923C36.191 32.4663 35.2894 31.6721 33.453 31.6721H30.6879V38.2063ZM36.7247 38.2063V31.6601L39.1099 31.6721V38.2063H36.7247ZM20.538 41.8043C20.538 41.1575 20.2938 40.9199 19.7299 40.7544L19.6887 40.7423C19.3365 40.6393 19.163 40.5885 19.163 40.4987C19.163 40.4054 19.3047 40.3693 19.5249 40.3693C19.7819 40.3821 20.0373 40.4184 20.2878 40.4776L20.4234 39.4458C20.0666 39.3623 19.7014 39.3199 19.3349 39.3194C18.3881 39.3194 17.9327 39.8098 17.9327 40.5739C17.9327 41.2087 18.2132 41.4192 18.7288 41.5727C18.7493 41.5789 18.7692 41.5849 18.7885 41.5906C18.8211 41.6004 18.8519 41.6095 18.8809 41.6181C19.1659 41.7025 19.2776 41.7357 19.2776 41.8133C19.2776 41.9036 19.1389 41.9216 18.9308 41.9216C18.636 41.9134 18.3433 41.869 18.0594 41.7893L17.9086 42.8031C18.3239 42.9182 18.7531 42.9759 19.1841 42.9746C20.2003 42.9746 20.538 42.5113 20.538 41.8043ZM39.1099 41.8043C39.1099 41.1575 38.8656 40.9199 38.3017 40.7544L38.2606 40.7423C37.9083 40.6393 37.7348 40.5885 37.7348 40.4987C37.7348 40.4054 37.8766 40.3693 38.0967 40.3693C38.3538 40.3821 38.6091 40.4184 38.8596 40.4776L38.9953 39.4458C38.6385 39.3623 38.2732 39.3199 37.9067 39.3194C36.9599 39.3194 36.5046 39.8098 36.5046 40.5739C36.5046 41.2087 36.785 41.4192 37.3006 41.5727C37.3561 41.5894 37.4067 41.6044 37.4528 41.6181C37.7377 41.7025 37.8494 41.7357 37.8494 41.8133C37.8494 41.9036 37.7107 41.9216 37.5027 41.9216C37.2079 41.9131 36.9152 41.8687 36.6312 41.7893L36.4804 42.8031C36.8958 42.9182 37.3249 42.9759 37.756 42.9746C38.7721 42.9746 39.1099 42.5113 39.1099 41.8043ZM20.7612 42.9204V39.3705L22.2508 39.3615C23.2459 39.3615 23.7344 39.7917 23.7344 40.5649V40.968C23.7344 41.7441 23.2459 42.1172 22.2508 42.1172H22.0548V42.9204H20.7612ZM27.1387 39.3705H25.8572V40.613H25.2903V39.3705H23.9967V42.9204H25.2903V41.7171H25.8572V42.9204H27.1387V39.3705ZM28.8093 41.8735H30.0576V42.9204H27.5157V39.3705H30.0154V40.4175H28.8093V40.6762H29.9491V41.6178H28.8093V41.8735ZM30.3441 39.3705V42.9204L31.6377 42.9325V42.0299H31.7372L32.087 42.9325H33.462L32.9072 41.7772C33.0476 41.6745 33.1593 41.5377 33.2316 41.3797C33.3039 41.2217 33.3344 41.0478 33.3203 40.8747V40.5739C33.3203 39.8007 32.8288 39.3705 31.8337 39.3705H30.3441ZM35.0873 41.8735H36.3357L36.3447 42.9204H33.8028V39.3705H36.2935V40.4175H35.0873V40.6762H36.2271V41.6178H35.0873V41.8735Z" fill="#0067A0"/>
<path d="M25.631 0.88874C24.066 1.92534 22.2155 2.80737 20.0797 3.53483L20.0737 3.51678C16.4867 4.71409 12.7261 5.31178 8.94383 5.2857C7.45114 5.28159 5.96117 5.19064 4.48145 5.01372L3.57658 6.11133C5.35568 6.36061 7.15098 6.48797 8.94986 6.49206C12.8638 6.52019 16.7553 5.90006 20.4657 4.65695V4.66297C23.3372 3.68554 25.7271 2.43205 27.6353 0.902505H25.631V0.88874Z" fill="#0067A0"/>
</svg>
