<svg width="46" height="56" viewBox="0 0 46 56" fill="none" xmlns="http://www.w3.org/2000/svg">
<path d="M23 0C10.2957 0 0 10.3038 0 23.0155C0 35.7272 23 56 23 56C23 56 46 35.73 46 23.0183C46 10.3066 35.7043 0 23 0ZM23.0581 37.0114C14.6235 37.0114 7.78742 30.167 7.78742 21.723C7.78742 13.2818 14.6263 6.44025 23.0581 6.44025C31.4954 6.44025 38.3287 13.2846 38.3287 21.723C38.3287 30.1643 31.4926 37.0114 23.0581 37.0114Z" fill="#147EBA"/>
<circle cx="23" cy="22" r="13" fill="white"/>
<path d="M21.7028 19.811C21.668 20.0703 21.7273 20.4856 22.0798 20.5299C22.109 20.5337 22.1385 20.5352 22.1679 20.5343V20.5639H21.0459V20.5343H21.1103C21.4288 20.5343 21.6288 20.0651 21.6687 19.8161L21.7376 19.2989C21.6764 19.3246 21.6122 19.3427 21.5465 19.3528C21.3409 19.3886 21.1292 19.3615 20.9392 19.2753C20.7825 19.1996 20.6495 19.0827 20.5546 18.9371C20.4597 18.7915 20.4065 18.6228 20.4008 18.4492C20.3928 18.2785 20.4261 18.1085 20.4981 17.9535C20.57 17.7985 20.6784 17.6631 20.8141 17.5588C21.0437 17.3926 21.274 17.3682 21.534 17.3726H22.2094L23.3996 20.0651L24.4135 17.3726H25.0749V17.3977C25.0309 17.3969 24.9869 17.3984 24.943 17.4022C24.6735 17.4317 24.6831 17.632 24.7127 17.8618L25.009 19.9307C25.0534 20.2041 25.0875 20.4582 25.3711 20.5218C25.4066 20.5297 25.4429 20.5329 25.4793 20.5314V20.5609H24.235V20.5314H24.2943C24.6905 20.5314 24.6372 20.1619 24.5905 19.8184L24.2943 17.7953L23.2404 20.5935H23.2011L22.099 18.0716C21.9717 17.8078 21.8509 17.5241 21.5754 17.4384C21.4482 17.4048 21.3149 17.4007 21.1858 17.4263C21.0566 17.4519 20.9351 17.5066 20.8304 17.5861C20.6985 17.6887 20.5929 17.821 20.5222 17.9722C20.4515 18.1234 20.4178 18.2891 20.4238 18.4558C20.4386 18.778 20.6297 19.1208 20.9481 19.2524C21.1286 19.3238 21.3289 19.3272 21.5117 19.262C21.6288 19.2246 21.7334 19.1562 21.8144 19.064C21.8955 18.9719 21.9498 18.8595 21.9717 18.7388C22.0109 18.495 21.9472 18.2356 21.7124 18.1085C21.6091 18.0591 21.4937 18.0402 21.3799 18.0541C21.2661 18.068 21.1587 18.114 21.0703 18.1869L21.0607 18.1773C21.2829 17.9556 21.5991 17.8647 21.8887 18.0058C22.0114 18.0681 22.1112 18.1676 22.1736 18.29C22.2361 18.4124 22.2579 18.5515 22.2361 18.6871C22.2157 18.818 22.1624 18.9416 22.081 19.0463C21.9996 19.151 21.893 19.2333 21.771 19.2856L21.7028 19.811ZM22.0109 16.828C22.4479 16.6439 22.9272 16.5831 23.3965 16.6523C23.8658 16.7215 24.307 16.918 24.672 17.2204H24.4987C24.0707 16.9022 23.5512 16.7303 23.0174 16.7303C22.4837 16.7303 21.9642 16.9022 21.5362 17.2204H21.3614C21.5568 17.0568 21.7757 16.9236 22.0109 16.8251V16.828ZM25.4059 18.2024C25.5404 18.5204 25.6096 18.8621 25.6096 19.2073C25.6096 19.5525 25.5404 19.8941 25.4059 20.2122C25.397 20.2336 25.3874 20.255 25.3778 20.2765L25.2874 20.2159L25.3074 20.1701C25.4865 19.7472 25.5442 19.2829 25.474 18.8292C25.4037 18.3755 25.2084 17.9502 24.9097 17.6009V17.5647L24.9379 17.5573H25.006C25.171 17.7511 25.3058 17.9686 25.4059 18.2024ZM24.8512 21.0324C24.4897 21.3953 24.0283 21.6428 23.5255 21.7434C23.0227 21.8441 22.5013 21.7934 22.0274 21.5977C21.5536 21.402 21.1488 21.0702 20.8645 20.6444C20.5801 20.2187 20.429 19.7182 20.4304 19.2065C20.4304 19.1504 20.4304 19.0935 20.4356 19.0381L20.4497 19.0588L20.4541 19.0654L20.4845 19.1061L20.4897 19.1127L20.5223 19.1511L20.5282 19.1578L20.5378 19.1681C20.5378 19.1807 20.5378 19.194 20.5378 19.2065C20.5373 19.5365 20.6036 19.8632 20.7326 20.1671C20.7803 20.2793 20.8359 20.388 20.8992 20.4922V20.6356L20.9029 20.6422V20.6481L20.9118 20.66L20.9222 20.671L20.9274 20.6762L20.9333 20.6814L20.9392 20.6858L20.9622 20.6895H20.9814L20.9955 20.6954H21.0518C21.1174 20.7804 21.1884 20.8611 21.2644 20.937C21.4945 21.1673 21.7679 21.3499 22.0689 21.4746C22.3699 21.5992 22.6926 21.6634 23.0185 21.6634C23.3444 21.6634 23.6671 21.5992 23.9682 21.4746C24.2692 21.3499 24.5426 21.1673 24.7727 20.937C24.8491 20.8613 24.9203 20.7806 24.986 20.6954H25.1193C25.038 20.8084 24.9473 20.9145 24.8482 21.0124L24.8512 21.0324Z" fill="#0067A0"/>
<path d="M23.5014 15.4433C23.3567 15.3498 23.1841 15.2956 22.9989 15.2956C22.8136 15.2956 22.6411 15.3498 22.4964 15.4433H22.0562C22.2803 15.1726 22.6194 15 22.9989 15C23.3784 15 23.7175 15.1726 23.9416 15.4433H23.5014Z" fill="#0067A0"/>
<path d="M17.1791 16.2364C17.121 16.2251 17.061 16.2192 16.9998 16.2192C16.4476 16.2192 16 16.7027 16 17.2536C16 17.3997 16.0315 17.5385 16.088 17.6635L16.3071 17.377C16.3 17.337 16.2962 17.2957 16.2962 17.2536C16.2962 16.8642 16.6052 16.5354 16.9656 16.5157L17.1791 16.2364Z" fill="#0067A0"/>
<path d="M17.7379 16.5638C17.6455 16.4581 17.5326 16.3712 17.4058 16.3111L17.7379 16.5638Z" fill="#0067A0"/>
<path d="M28.8094 16.2601C28.8588 16.2542 28.9095 16.2527 28.9609 16.2561C29.5374 16.2945 30 16.8263 30 17.3898C30 17.522 29.9802 17.6399 29.9438 17.7438L29.703 17.4289C29.7035 17.4161 29.7037 17.4031 29.7037 17.3898C29.7037 17.0062 29.408 16.6442 29.0428 16.5654L28.8094 16.2601Z" fill="#0067A0"/>
<path d="M28.8331 16.2537C28.494 16.2912 28.1526 16.3076 27.8108 16.3027C26.8822 16.3108 25.9585 16.1673 25.0764 15.8778C24.5452 15.6993 24.0872 15.4803 23.7025 15.2206V15.2217H23.2127C23.6793 15.604 24.2687 15.9151 24.9808 16.1549C25.8931 16.4544 26.8482 16.6029 27.8085 16.5945C28.1118 16.5843 28.3445 16.5789 28.5321 16.5746C28.7613 16.5693 28.9233 16.5656 29.065 16.5563L28.8331 16.2537Z" fill="#0067A0"/>
<path d="M24.2076 23.2158C24.2684 23.2158 24.295 23.252 24.295 23.2897V23.8734C24.295 23.9163 24.2684 23.9473 24.2076 23.9473H24.1202V23.2158H24.2076Z" fill="#0067A0"/>
<path d="M21.5118 24.947C21.5118 24.9264 21.4977 24.9079 21.4651 24.9079H21.417V25.1089H21.4651C21.4977 25.1089 21.5118 25.0926 21.5118 25.0712V24.947Z" fill="#0067A0"/>
<path d="M23.8188 24.9079C23.8514 24.9079 23.8662 24.9264 23.8662 24.947V25.0579C23.8662 25.0793 23.8514 25.0978 23.8188 25.0978H23.7707V24.9079H23.8188Z" fill="#0067A0"/>
<path fill-rule="evenodd" clip-rule="evenodd" d="M29.7008 17.386C29.4994 19.2292 28.9984 20.8197 28.4166 22.2841H17.5894C16.9992 20.7955 16.5621 19.1105 16.2784 17.2289L16.0391 17.5192C16.5862 21.5186 17.73 24.1068 19.6632 26.4271C20.7045 27.6758 21.79 28.5268 22.9197 28.98H22.9271L22.9352 28.9836C22.9457 28.9883 22.9567 28.992 22.9678 28.9947C22.9768 28.997 22.986 28.9985 22.9952 28.9992C23.0061 29.0003 23.017 29.0003 23.0278 28.9992C23.0379 28.9986 23.0478 28.9968 23.0574 28.994C23.0668 28.9916 23.076 28.9884 23.0848 28.9844L23.1048 28.9733L23.15 28.9526C24.3449 28.4231 25.4504 27.5305 26.4665 26.2748C28.1965 24.1377 29.3578 21.2834 29.9506 17.7119L29.7008 17.386ZM22.0894 24.384H21.571L21.5673 23.6119L21.4192 24.1638H21.0652L20.917 23.6215V24.384H20.3986V22.7791H21.1103L21.2437 23.4796L21.3784 22.7791H22.0894V24.384ZM22.8412 23.9133H23.4063V24.384H22.2553V22.7791H23.3826V23.2542H22.8412V23.371H23.3596V23.7966H22.8412V23.9133ZM23.5374 24.384H24.2165C24.6668 24.384 24.889 24.217 24.889 23.8668V23.3244C24.889 22.9742 24.6676 22.7791 24.2165 22.7791H23.5374V24.384ZM25.0201 24.384V22.7762L25.6059 22.7791V24.384H25.0201ZM21.0444 25.2677C21.0444 25.1089 20.9844 25.0505 20.8459 25.0099L20.8358 25.0069C20.7493 24.9816 20.7067 24.9691 20.7067 24.947C20.7067 24.9241 20.7415 24.9153 20.7956 24.9153C20.8587 24.9184 20.9214 24.9273 20.983 24.9419L21.0163 24.6884C20.9286 24.6679 20.8389 24.6575 20.7489 24.6574C20.5164 24.6574 20.4045 24.7778 20.4045 24.9655C20.4045 25.1214 20.4734 25.1731 20.6001 25.2108C20.6051 25.2124 20.61 25.2138 20.6147 25.2152C20.6227 25.2176 20.6303 25.2199 20.6374 25.222C20.7074 25.2427 20.7348 25.2509 20.7348 25.2699C20.7348 25.2921 20.7008 25.2965 20.6497 25.2965C20.5773 25.2945 20.5054 25.2836 20.4356 25.264L20.3986 25.513C20.5006 25.5413 20.606 25.5555 20.7119 25.5552C20.9615 25.5552 21.0444 25.4414 21.0444 25.2677ZM25.6059 25.2677C25.6059 25.1089 25.5459 25.0505 25.4074 25.0099L25.3973 25.0069C25.3108 24.9816 25.2682 24.9691 25.2682 24.947C25.2682 24.9241 25.303 24.9153 25.3571 24.9153C25.4202 24.9184 25.4829 24.9273 25.5445 24.9419L25.5778 24.6884C25.4901 24.6679 25.4004 24.6575 25.3104 24.6574C25.0779 24.6574 24.966 24.7778 24.966 24.9655C24.966 25.1214 25.0349 25.1731 25.1616 25.2108C25.1752 25.2149 25.1876 25.2186 25.1989 25.222C25.2689 25.2427 25.2964 25.2509 25.2964 25.2699C25.2964 25.2921 25.2623 25.2965 25.2112 25.2965C25.1388 25.2944 25.0669 25.2835 24.9971 25.264L24.9601 25.513C25.0621 25.5413 25.1675 25.5555 25.2734 25.5552C25.523 25.5552 25.6059 25.4414 25.6059 25.2677ZM21.0992 25.5419V24.67L21.4651 24.6677C21.7095 24.6677 21.8295 24.7734 21.8295 24.9633V25.0623C21.8295 25.2529 21.7095 25.3446 21.4651 25.3446H21.417V25.5419H21.0992ZM22.6657 24.67H22.3509V24.9751H22.2117V24.67H21.8939V25.5419H22.2117V25.2463H22.3509V25.5419H22.6657V24.67ZM23.076 25.2847H23.3826V25.5419H22.7582V24.67H23.3722V24.9271H23.076V24.9906H23.3559V25.2219H23.076V25.2847ZM23.4529 24.67V25.5419L23.7707 25.5448V25.3231H23.7951L23.881 25.5448H24.2187L24.0825 25.2611C24.1169 25.2358 24.1444 25.2022 24.1621 25.1634C24.1799 25.1246 24.1874 25.0819 24.1839 25.0394V24.9655C24.1839 24.7756 24.0632 24.67 23.8188 24.67H23.4529ZM24.6179 25.2847H24.9246L24.9268 25.5419H24.3024V24.67H24.9142V24.9271H24.6179V24.9906H24.8979V25.2219H24.6179V25.2847Z" fill="#0067A0"/>
<path d="M22.2953 15.2183C21.9109 15.4729 21.4564 15.6895 20.9319 15.8682L20.9304 15.8638C20.0494 16.1578 19.1257 16.3046 18.1967 16.2982C17.8301 16.2972 17.4641 16.2749 17.1007 16.2314L16.8785 16.501C17.3154 16.5623 17.7564 16.5935 18.1982 16.5945C19.1595 16.6014 20.1153 16.4491 21.0267 16.1438V16.1453C21.7319 15.9052 22.3189 15.5973 22.7876 15.2217H22.2953V15.2183Z" fill="#0067A0"/>
</svg>
