<svg width="160" height="160" xmlns="http://www.w3.org/2000/svg">
  <path fill="#F2F2F2" fill-rule="evenodd" d="M45.012 121.641c0 1.204-.434 2.24-1.27 3.077-.836.836-1.873 1.27-3.077 1.27s-2.24-.434-3.077-1.27c-.87-.836-1.27-1.873-1.27-3.077s.434-2.24 1.27-3.076c.87-.836 1.873-1.271 3.077-1.271s2.24.435 3.077 1.27c.836.87 1.27 1.873 1.27 3.077Zm-.267 0c-.335-.769-.87-1.37-1.572-1.839-.77-.502-1.605-.77-2.508-.77-.936 0-1.772.268-2.508.77-.702.468-1.238 1.07-1.572 1.84.334.768.87 1.37 1.572 1.839.769.501 1.605.769 2.508.769.936 0 1.772-.268 2.508-.77.702-.468 1.237-1.07 1.572-1.839Zm-1.773 0c0 .636-.234 1.17-.668 1.639-.469.468-1.004.669-1.64.669-.634 0-1.17-.234-1.638-.67-.468-.467-.669-1.002-.669-1.638 0-.635.235-1.17.67-1.638.467-.435 1.003-.67 1.638-.67s1.17.235 1.639.67c.434.468.668 1.003.668 1.638Zm2.81 0c0-2.24 1.872-4.113 4.28-4.113 2.207 0 3.31 1.572 3.31 1.572l-1.136 1.137s-.803-1.137-2.207-1.137a2.54 2.54 0 0 0-2.542 2.541 2.54 2.54 0 0 0 2.542 2.542c1.471 0 2.24-1.137 2.24-1.137l1.137 1.137s-1.137 1.572-3.377 1.572c-2.375 0-4.248-1.84-4.248-4.114Zm8.293-3.912h3.31c1.572 0 2.542.97 2.542 2.073 0 1.237-1.07 1.639-1.07 1.639s1.472.4 1.472 1.906c0 1.237-1.004 2.24-2.71 2.24h-3.544v-7.858Zm3.21 3.01c.569 0 .903-.335.903-.803s-.334-.803-.903-.803h-1.504v1.605h1.504Zm.234 3.377c.67 0 1.07-.401 1.07-.97 0-.568-.4-.97-1.07-.97h-1.738v1.906h1.738v.034Zm3.01.401 1.137-1.137s.67.836 1.873.836c.903 0 1.304-.401 1.304-.903 0-1.337-3.946-.735-3.946-3.478 0-1.237 1.07-2.307 2.876-2.307 1.739 0 2.642 1.07 2.642 1.07l-1.137 1.137s-.569-.669-1.472-.669c-.836 0-1.17.335-1.17.803 0 1.338 3.946.736 3.946 3.478 0 1.304-1.137 2.408-2.976 2.408-2.074 0-3.077-1.238-3.077-1.238ZM1.94 139.8s1.171 1.438 3.178 1.438c1.538 0 2.207-.669 2.207-1.538 0-2.308-6.722-1.238-6.722-5.953 0-2.107 1.84-3.946 4.916-3.946 2.976 0 4.514 1.84 4.514 1.84l-1.94 1.939s-.969-1.17-2.507-1.17c-1.438 0-2.007.568-2.007 1.337 0 2.308 6.722 1.237 6.722 5.953 0 2.207-1.94 4.146-5.117 4.146-3.444-.033-5.183-2.14-5.183-2.14l1.94-1.906Zm14.514-9.731h3.278l5.183 13.476h-3.077L20.7 140.47h-5.183l-1.17 3.076H11.27l5.183-13.476Zm3.278 7.791-1.572-4.414h-.1l-1.606 4.414h3.278Zm8.66-5.116h-3.845v-2.709h10.601v2.709h-3.846v10.768h-2.876v-10.768h-.033Zm9.064-2.675h2.876v7.892c0 1.94 1.237 3.177 2.976 3.177 1.739 0 2.976-1.238 2.976-3.177v-7.892h2.876v7.892c0 3.478-2.408 5.885-5.886 5.885s-5.885-2.407-5.885-5.885v-7.892h.067Zm14.28 0h5.952c2.876 0 4.715 1.839 4.715 4.514 0 3.077-2.308 3.946-2.308 3.946l2.776 5.016h-3.177l-2.408-4.414h-2.708v4.414H51.7V130.07h.033Zm5.851 6.353c1.07 0 1.84-.769 1.84-1.839 0-1.07-.77-1.84-1.84-1.84H54.61v3.646h2.976v.033Zm7.725-6.353h4.916c4.147 0 7.123 2.976 7.123 6.721 0 3.746-2.976 6.722-7.123 6.722h-4.916v-13.443Zm4.883 10.768c2.408 0 4.147-1.74 4.147-4.047 0-2.307-1.74-4.046-4.147-4.046h-2.007v8.093h2.007Zm12.908-10.768h3.278l5.183 13.476h-3.077l-1.17-3.076h-5.184l-1.17 3.076h-3.043l5.183-13.476Zm3.278 7.791-1.606-4.414h-.067l-1.605 4.414h3.278Zm8.627.87-5.116-8.661h3.378l3.143 5.785h.067l3.143-5.785H103l-5.117 8.66v4.816h-2.876v-4.815ZM4.85 146.12h2.475l4.414 5.518 4.414-5.518h2.475v12.842h-2.742v-8.46l-4.114 5.15-4.18-5.15v8.427H4.85V146.12Zm22.94-.3c3.947 0 6.99 3.043 6.99 6.688 0 3.645-3.043 6.688-6.99 6.688-3.945 0-6.988-3.043-6.988-6.688 0-3.645 3.043-6.688 6.989-6.688Zm0 10.835a4.09 4.09 0 0 0 4.114-4.114 4.09 4.09 0 0 0-4.113-4.113 4.09 4.09 0 0 0-4.113 4.113 4.11 4.11 0 0 0 4.113 4.114Zm9.197-10.535h5.685c2.743 0 4.482 1.74 4.482 4.314 0 2.943-2.208 3.746-2.208 3.746l2.676 4.782h-3.043l-2.308-4.214h-2.575v4.214h-2.742V146.12h.033Zm5.619 6.053c1.003 0 1.739-.735 1.739-1.739 0-1.003-.736-1.739-1.74-1.739h-2.842v3.478h2.843Zm7.49-6.053h2.475l6.254 7.993v-7.993h2.742v12.842H59.09l-6.253-7.992v7.992h-2.743V146.12Zm14.715 0h2.742v12.842H64.81V146.12Zm5.986 0h2.474l6.254 7.993v-7.993h2.742v12.842h-2.474l-6.22-7.992v7.992h-2.743V146.12h-.033Zm21.335 5.752h5.15v4.85s-1.94 2.474-5.584 2.474c-3.946 0-6.99-3.043-6.99-6.688 0-3.645 3.044-6.688 6.99-6.688 3.578 0 5.417 2.575 5.417 2.575l-1.839 1.839s-1.27-1.84-3.578-1.84a4.09 4.09 0 0 0-4.114 4.114 4.09 4.09 0 0 0 4.114 4.113c1.839 0 2.842-1.003 2.842-1.003v-1.572h-2.374v-2.174h-.034Zm-30.6-80.148c-1.837-1.68-5.249-2.111-7.145-.277a.297.297 0 0 1-.253.089c-.833-.116-.763-.577-.167-.967 2.216-1.529 6.085-.914 7.836 1.094.142.207-.183.163-.27.06m-.897 3.529c-.149.142-.373.16-.571.15-.635-.052-1.14-.434-1.683-.716a3.548 3.548 0 0 0-.19-.092.92.92 0 1 1-1.75-.24c-.775.11-1.422.462-2.094.854-.06.035-.18.079-.256-.013-.053-.064.008-.15.061-.192.575-.46 1.125-.976 1.804-1.283a3.507 3.507 0 0 1 2.622-.082c.71.261 1.225.811 1.88 1.161.195.083.35.268.177.453m-4.357 8.14a.925.925 0 0 1-.07.107c-.102.13-.24.244-.376.324-.175.102-.405.097-.543-.068-.025-.03-.045-.063-.075-.087a.314.314 0 0 0-.093-.045c-.517-.183-1.074-.238-1.622-.216-.679.027-1.335.24-2.01.24-.676 0-1.334-.213-2.013-.24-.548-.022-1.104.033-1.622.216a.313.313 0 0 0-.093.045c-.03.024-.05.057-.075.087-.138.165-.368.17-.543.068a1.342 1.342 0 0 1-.375-.324.947.947 0 0 1-.071-.106c-.018-.032-.034-.072-.018-.104a.113.113 0 0 1 .032-.035c.114-.093.245-.145.389-.09.111.043.235.116.354.134.122.017.248-.034.358-.08l.279-.11a9.566 9.566 0 0 1 3.396-.639 9.566 9.566 0 0 1 3.676.75c.11.045.236.096.358.079.12-.018.243-.09.355-.134.143-.055.274-.003.389.09.012.01.024.02.03.035.017.032.001.072-.017.104m-2.654 1.559s-1.27.597-2.136.597c-.867 0-2.137-.597-2.137-.597-.097-.054-.292-.142-.306-.27a.076.076 0 0 1 .018-.057c.023-.027.06-.027.097-.025l.04.003c.212.019.423.086.63.133.214.049.43.092.65.106.259.017.52.014.78.018l.228.007.227-.007c.26-.004.521-.001.781-.018.22-.014.435-.057.65-.106.207-.047.417-.114.63-.133l.039-.003c.037-.002.074-.002.097.025.014.016.02.037.018.057-.014.128-.208.216-.306.27m-7.93-9.302a.92.92 0 0 1-.91-1.056c-.064.03-.128.06-.19.092-.543.282-1.048.664-1.683.716-.198.01-.422-.008-.571-.15-.172-.185-.018-.37.177-.453.655-.35 1.17-.9 1.88-1.16a3.506 3.506 0 0 1 2.622.081c.68.307 1.23.823 1.804 1.283.053.043.114.128.061.192-.075.092-.196.048-.256.013-.672-.392-1.319-.743-2.094-.854a.92.92 0 0 1-.84 1.296m-4.52-3.987c1.75-2.008 5.62-2.623 7.835-1.094.596.39.666.85-.167.967a.297.297 0 0 1-.253-.089c-1.896-1.834-5.308-1.403-7.145.277-.088.102-.413.146-.27-.06m10.313 7.51c.77 0 1.729.073 1.729.073.328.041.414.145.415.388.001.264-.094.51-.25.73-.075.107-.18.163-.322.137-.148-.028-.155-.14-.161-.247-.016-.251-.17-.418-.421-.418-.283.001-.245.252-.266.431-.022.18-.044.418-.229.45 0 0-.176.04-.495.04-.318 0-.494-.04-.494-.04-.185-.032-.207-.27-.229-.45-.02-.179.017-.43-.266-.43-.251-.001-.405.166-.42.417-.007.107-.014.219-.162.247-.142.026-.247-.03-.322-.137a1.252 1.252 0 0 1-.25-.73c.001-.243.087-.347.415-.388 0 0 .959-.072 1.728-.072m31.676.592L66.7 78.239c.015-.11.026-.223.039-.335l13.185.663a.576.576 0 0 0 .574-.762l-.68-1.982a.577.577 0 0 0-.574-.388l-12.388.623c0-.048.003-.095.003-.143 0-.07-.004-.139-.005-.209l7.947-.737a.576.576 0 0 0 .513-.68l-.273-1.47a.577.577 0 0 0-.678-.46l-7.633 1.493c-.014-.113-.027-.227-.044-.34l11.959-2.867c.25-.06.43-.278.44-.535l.095-2.093a.577.577 0 0 0-.766-.57l-12.117 4.23c-.031-.112-.062-.225-.096-.337l15.168-6.025a.576.576 0 0 0 .326-.743 32.32 32.32 0 0 0-.97-2.22.576.576 0 0 0-.783-.258l-14.414 7.48c-.05-.11-.1-.218-.153-.326l10.983-6.302c.354-.203.391-.7.071-.952l-1.643-1.3a.577.577 0 0 0-.693-.016L64.427 67.6a15.44 15.44 0 0 0-.21-.308l5.887-4.604a.577.577 0 0 0 .064-.85l-1.024-1.087a.576.576 0 0 0-.819-.021l-5.295 5.075c-.08-.089-.16-.177-.243-.265l8.212-8.568a.577.577 0 0 0 .083-.688l-1.053-1.811a.576.576 0 0 0-.952-.066l-7.675 9.814c-.093-.08-.186-.16-.28-.236l9.398-13.123a.576.576 0 0 0-.13-.802c-.66-.474-1.339-.923-2.035-1.347a.576.576 0 0 0-.797.209l-8 13.943a13.99 13.99 0 0 0-.32-.195l5.676-10.939a.577.577 0 0 0-.456-.839l-2.084-.205a.576.576 0 0 0-.593.361L57.511 61.8c-.119-.05-.239-.097-.359-.143l2.36-6.76a.577.577 0 0 0-.405-.749l-1.45-.36a.576.576 0 0 0-.7.424l-1.645 6.861c-.12-.029-.242-.053-.363-.079l2.226-11.389a.576.576 0 0 0-.303-.624l-1.864-.954a.576.576 0 0 0-.837.46l-1.133 12.213c-.123-.011-.248-.017-.372-.025l.807-16.037a.576.576 0 0 0-.546-.605 31.831 31.831 0 0 0-2.442-.016.578.578 0 0 0-.561.606l.806 16.026c-.126.005-.251.016-.377.025l-1.13-12.188a.576.576 0 0 0-.838-.46l-1.864.955a.576.576 0 0 0-.303.624l2.21 11.308c-.127.024-.252.054-.379.081l-1.66-6.925a.577.577 0 0 0-.746-.411l-1.415.48a.577.577 0 0 0-.359.736l2.322 6.651c-.117.042-.232.088-.348.133l-4.281-10.778a.576.576 0 0 0-.592-.36l-2.085.204a.577.577 0 0 0-.455.84l5.665 10.917c-.108.06-.216.12-.323.183l-7.99-13.925a.576.576 0 0 0-.792-.212c-.701.417-1.385.86-2.051 1.327a.576.576 0 0 0-.134.807l9.373 13.088c-.098.077-.196.152-.293.231l-7.618-9.74a.576.576 0 0 0-.953.065l-1.052 1.811a.576.576 0 0 0 .082.689l8.123 8.473c-.089.09-.177.18-.263.272l-5.302-5.082a.577.577 0 0 0-.85.057l-.931 1.169c-.2.25-.157.616.096.813l5.766 4.51c-.072.096-.142.194-.211.292l-9.655-6.914a.577.577 0 0 0-.693.016l-1.643 1.3a.576.576 0 0 0 .07.952l10.933 6.273c-.056.105-.111.211-.163.318l-14.38-7.461a.576.576 0 0 0-.782.251c-.358.723-.69 1.462-.994 2.214a.576.576 0 0 0 .324.75l15.116 6.004c-.038.113-.077.226-.111.34l-11.998-4.188a.576.576 0 0 0-.766.57l.094 2.093a.577.577 0 0 0 .441.535l11.801 2.83c-.02.118-.042.236-.06.357l-7.609-1.488a.576.576 0 0 0-.684.507l-.151 1.487a.576.576 0 0 0 .52.632l7.77.721c-.004.113-.007.226-.008.34l-12.353-.621a.576.576 0 0 0-.574.388l-.68 1.982a.576.576 0 0 0 .574.763l13.114-.66c.01.112.025.223.038.334l-16.426 1.524a.576.576 0 0 0-.52.635c.09.801.209 1.594.357 2.376.059.313.365.515.677.454l16.24-3.175c.027.11.058.217.088.326l-12.863 3.084a.576.576 0 0 0-.336.894l1.21 1.71c.149.21.418.295.66.21l11.917-4.16c.044.106.093.208.14.312l-7.662 3.044a.576.576 0 0 0-.301.796l.677 1.333a.577.577 0 0 0 .78.25l7.342-3.81c.056.091.115.18.172.27l-11.14 6.392a.576.576 0 0 0-.272.638l.5 2.034a.576.576 0 0 0 .895.331l11.072-7.93c.066.082.133.164.201.244L26.466 96.043a.576.576 0 0 0-.095.815 32.49 32.49 0 0 0 1.57 1.789.576.576 0 0 0 .816.016l12.145-11.642c.076.073.151.148.228.219l-9.492 9.902a.576.576 0 0 0 .2.933l1.943.784a.577.577 0 0 0 .67-.18l8.054-10.297c.087.064.174.125.262.187l-5.054 7.058a.576.576 0 0 0 .177.833l1.29.755a.576.576 0 0 0 .791-.21l4.3-7.493c.089.048.18.092.27.138l-6.077 11.713a.576.576 0 0 0 .115.684l1.52 1.441c.296.281.782.174.932-.205l5.132-12.92c.095.035.19.069.286.101l-5.569 15.954a.576.576 0 0 0 .357.736c.746.25 1.503.473 2.271.668a.576.576 0 0 0 .7-.426l3.947-16.464c.1.021.199.045.3.064l-2.675 13.68c-.079.401.272.754.673.678l2.058-.391a.577.577 0 0 0 .466-.513l1.228-13.227.312.021-.446 8.874a.577.577 0 0 0 .6.605l1.493-.062a.577.577 0 0 0 .552-.605l-.443-8.798c.1-.005.198-.014.297-.02l1.234 13.3a.577.577 0 0 0 .466.513l2.058.39c.401.077.752-.276.674-.676l-2.685-13.73c.099-.018.198-.034.296-.053l3.951 16.48c.074.309.386.503.695.427a32.25 32.25 0 0 0 2.275-.647.576.576 0 0 0 .362-.738l-5.574-15.965c.098-.032.196-.062.293-.096l5.135 12.928c.15.379.636.486.932.205l1.52-1.441a.577.577 0 0 0 .116-.684l-6.069-11.695c.095-.047.19-.095.284-.144l4.362 7.603c.17.295.554.38.832.185l1.223-.86a.577.577 0 0 0 .137-.806L60.05 88.7c.083-.057.165-.118.247-.177l8.128 10.392a.577.577 0 0 0 .67.18l1.943-.784a.576.576 0 0 0 .2-.934l-9.555-9.967c.076-.069.152-.138.227-.209l12.173 11.67c.228.219.593.215.813-.014a32.544 32.544 0 0 0 1.581-1.773.576.576 0 0 0-.092-.82L63.153 85.917c.07-.08.141-.159.21-.24l11.116 7.961a.576.576 0 0 0 .895-.33l.5-2.035a.577.577 0 0 0-.273-.638l-11.16-6.403.18-.28 7.494 3.89c.301.155.671.02.8-.295l.563-1.384a.576.576 0 0 0-.32-.753l-7.67-3.047c.045-.097.087-.196.13-.294l12.068 4.213a.576.576 0 0 0 .66-.212l1.21-1.71a.576.576 0 0 0-.335-.893l-12.976-3.111c.03-.105.057-.211.085-.317l16.295 3.186c.31.06.614-.139.676-.449.156-.78.284-1.569.382-2.367a.576.576 0 0 0-.52-.641"/>
</svg>