<?xml version="1.0" encoding="utf-8"?><svg viewBox="0 0 39 40" xmlns="http://www.w3.org/2000/svg" xmlns:xlink="http://www.w3.org/1999/xlink"><style>:root>svg{display:none}:root>svg:target{display:block}</style><svg fill="none" viewBox="0 0 20 19" id="arrow-send" xmlns="http://www.w3.org/2000/svg"><path d="M19.586 8.636L1.015.064a.718.718 0 00-.855.2.71.71 0 00-.017.878L6.25 9.284.143 17.427a.712.712 0 00.572 1.143.71.71 0 00.298-.066l18.571-8.571a.713.713 0 00.002-1.297z" fill="#fff"/></svg><svg fill="none" viewBox="0 0 17 21" id="bookmark" xmlns="http://www.w3.org/2000/svg"><path d="M1 19.551V.578h14.757v18.973l-7.379-7.51L1 19.551z" stroke="#000" stroke-width="1.054"/></svg><svg fill="none" viewBox="0 0 39 40" id="cross" xmlns="http://www.w3.org/2000/svg"><path fill="#DD2E44" d="M32.581 39.445l6.364-6.364L6.42.554.055 6.918z"/><path fill="#DD2E44" d="M6.364 38.891L0 32.527 32.527 0l6.364 6.364z"/></svg><svg fill="none" viewBox="0 0 16 15" id="emoji-1" xmlns="http://www.w3.org/2000/svg"><path d="M15.517 7.5c0 4.142-3.473 7.5-7.758 7.5S0 11.642 0 7.5C0 3.358 3.474 0 7.759 0c4.284 0 7.758 3.358 7.758 7.5z" fill="#FFCC4D"/><path d="M7.759 9.104c-1.279 0-2.128-.144-3.177-.341-.24-.045-.706 0-.706.682 0 1.365 1.622 3.07 3.883 3.07 2.26 0 3.882-1.705 3.882-3.07 0-.682-.466-.727-.706-.682-1.05.197-1.898.34-3.176.34z" fill="#664500"/><path d="M7.177 1.367C6.807.354 5.657-.178 4.609.18a1.973 1.973 0 00-1.262 1.293 2.07 2.07 0 00-1.82-.242C.478 1.59-.073 2.7.297 3.713c.053.143.123.276.204.399.84 1.492 3.27 2.541 4.742 2.554C6.38 5.763 7.59 3.473 7.277 1.801a1.907 1.907 0 00-.1-.434zm1.164 0C8.71.354 9.86-.178 10.908.18a1.974 1.974 0 011.262 1.293 2.07 2.07 0 011.821-.242C15.04 1.59 15.59 2.7 15.22 3.713a1.943 1.943 0 01-.204.399c-.841 1.492-3.27 2.541-4.742 2.554-1.137-.903-2.347-3.193-2.033-4.865.015-.145.048-.29.1-.434z" fill="#DD2E44"/></svg><svg fill="none" viewBox="0 0 17 15" id="emoji-2" xmlns="http://www.w3.org/2000/svg"><path d="M8.586 15c4.285 0 7.759-3.358 7.759-7.5 0-4.142-3.474-7.5-7.759-7.5S.828 3.358.828 7.5c0 4.142 3.473 7.5 7.758 7.5z" fill="#FFCC4D"/><path d="M7.724 7.066a.43.43 0 01-.409-.285c-.087-.25-.439-.965-.884-.965-.458 0-.814.761-.884.965a.434.434 0 01-.545.263.413.413 0 01-.273-.527c.054-.157.562-1.535 1.702-1.535S8.08 6.36 8.134 6.517a.413.413 0 01-.273.527.438.438 0 01-.137.022zm4.31 0a.43.43 0 01-.408-.285c-.088-.25-.44-.965-.885-.965-.457 0-.814.761-.884.965a.433.433 0 01-.545.263.414.414 0 01-.273-.527c.054-.157.562-1.535 1.702-1.535s1.648 1.378 1.702 1.535a.413.413 0 01-.273.527.427.427 0 01-.136.022zm.576 1.555a.222.222 0 00-.274-.012c-.017.012-1.69 1.209-3.75 1.209-2.054 0-3.733-1.197-3.75-1.209a.223.223 0 00-.274.012.203.203 0 00-.04.262c.056.09 1.387 2.185 4.064 2.185 2.678 0 4.01-2.095 4.064-2.185a.203.203 0 00-.04-.262z" fill="#664500"/><path d="M9.978 1.645c0 .1.013.196.035.29.184 1.1 1.45 2.262 2.358 2.582.718-.253 1.658-1.032 2.111-1.892A7.787 7.787 0 0011.065.391c-.618.107-1.087.626-1.087 1.254zm-3.227 10.47c.025-.1.04-.205.04-.314 0-.763-.641-1.383-1.432-1.383-.48 0-.902.23-1.162.58a1.444 1.444 0 00-1.163-.58c-.534 0-.996.288-1.24.708a7.688 7.688 0 003.477 3.156c.705-.563 1.35-1.378 1.48-2.166zm8.861-1.431a.983.983 0 00-.945-.686.999.999 0 00-.805.4.999.999 0 00-.806-.4c-.547 0-.99.428-.99.958 0 .075.01.147.026.217.133.794 1.012 1.623 1.685 1.9a7.543 7.543 0 001.836-2.39z" fill="#FFAC33"/><path d="M15.321 1.362c0-.705-.591-1.276-1.32-1.276-.443 0-.833.211-1.073.534a1.332 1.332 0 00-1.073-.534c-.73 0-1.32.571-1.32 1.276 0 .1.013.197.035.29.184 1.101 1.45 2.263 2.358 2.582.908-.319 2.174-1.48 2.357-2.581a1.22 1.22 0 00.036-.29zM6.09 11.837c0-.764-.64-1.383-1.43-1.383-.48 0-.904.228-1.163.579a1.443 1.443 0 00-1.163-.58c-.79 0-1.43.62-1.43 1.384 0 .108.014.213.038.314.199 1.193 1.57 2.451 2.554 2.797.984-.345 2.356-1.604 2.554-2.797.025-.101.04-.206.04-.314zm10.232-.95c0-.53-.443-.959-.99-.959a.999.999 0 00-.806.401.999.999 0 00-.805-.4c-.547 0-.99.428-.99.957 0 .075.01.148.026.218.137.826 1.088 1.698 1.77 1.937.68-.239 1.631-1.111 1.768-1.937a.909.909 0 00.027-.218z" fill="#DD2E44"/></svg><svg fill="none" viewBox="0 0 17 15" id="emoji-3" xmlns="http://www.w3.org/2000/svg"><path d="M8.414 15c4.285 0 7.758-3.358 7.758-7.5 0-4.142-3.473-7.5-7.758-7.5S.655 3.358.655 7.5c0 4.142 3.474 7.5 7.759 7.5z" fill="#FFCC4D"/><path d="M5.612 7.917c.595 0 1.078-.653 1.078-1.459C6.69 5.653 6.207 5 5.612 5c-.595 0-1.077.653-1.077 1.458 0 .806.482 1.459 1.077 1.459zM12.921 7.415c-.026-.056-.646-1.373-1.921-1.373S9.105 7.359 9.079 7.415a.203.203 0 00.062.247c.076.059.184.06.263.005.006-.003.544-.375 1.596-.375 1.046 0 1.584.367 1.596.375a.22.22 0 00.263-.004.204.204 0 00.062-.248zm-9.68-2.832a.44.44 0 01-.258-.083.408.408 0 01-.086-.583c1.406-1.813 3.282-1.834 3.362-1.834.238 0 .43.187.43.417 0 .23-.191.416-.429.417-.066 0-1.538.035-2.674 1.5a.435.435 0 01-.345.166zm9.915 1.25a.435.435 0 01-.346-.166c-1.117-1.44-3-1.095-3.019-1.092a.43.43 0 01-.507-.327.418.418 0 01.338-.49c.1-.02 2.438-.447 3.878 1.408a.407.407 0 01-.087.583.434.434 0 01-.257.084zM9.31 11.267c.575-.171 1.133-.481 1.133-1.041 0-1.092-2.117-1.237-2.358-1.25a.21.21 0 00-.228.195.21.21 0 00.2.221c.015 0 1.524.125 1.524.834s-1.509.833-1.524.833c-.006 0-.01.004-.016.005a.196.196 0 00-.063.017l-.008.004a.204.204 0 00-.054.041c-.006.006-.01.013-.015.02a.182.182 0 00-.026.043c-.005.012-.007.025-.01.038-.002.01-.007.018-.008.028l.002.013-.002.013c0 .01.006.018.008.028.003.013.005.026.01.038.006.012.013.023.021.035.007.01.014.02.023.03.01.009.021.016.033.025.01.007.02.014.032.02a.173.173 0 00.044.01c.01.003.019.008.03.009.014 0 1.523.124 1.523.833 0 .71-1.509.833-1.524.834a.211.211 0 00-.2.221c.008.11.103.195.215.195h.013c.24-.013 2.358-.158 2.358-1.25 0-.56-.558-.87-1.133-1.042z" fill="#664500"/><path d="M15.398 10.751a1.276 1.276 0 00-.68-.781 1.357 1.357 0 00-1.205.025 1.277 1.277 0 00-.72-.932c-.653-.308-1.442-.046-1.761.586a1.23 1.23 0 00-.1.274c-.333 1.065.277 2.643.946 3.312.53.054 1.272-.082 1.945-.364a7.53 7.53 0 001.575-2.12z" fill="#FFAC33"/><path d="M16.023 11.342a1.255 1.255 0 00-.605-1.702 1.357 1.357 0 00-1.204.025 1.276 1.276 0 00-.72-.932c-.654-.309-1.443-.046-1.762.586-.045.09-.077.182-.099.274-.333 1.065.276 2.642.945 3.312.958.097 2.62-.408 3.282-1.317.063-.075.118-.156.163-.246z" fill="#DD2E44"/></svg><svg fill="none" viewBox="0 0 16 15" id="emoji-4" xmlns="http://www.w3.org/2000/svg"><path d="M8.241 15C12.526 15 16 11.642 16 7.5 16 3.358 12.526 0 8.241 0S.483 3.358.483 7.5c0 4.142 3.473 7.5 7.758 7.5z" fill="#FFCC4D"/><path d="M12.265 9.429a.222.222 0 00-.274-.012c-.016.012-1.69 1.208-3.75 1.208-2.054 0-3.733-1.196-3.75-1.208a.223.223 0 00-.273.012.203.203 0 00-.04.261c.055.09 1.386 2.185 4.063 2.185 2.678 0 4.01-2.095 4.065-2.185a.203.203 0 00-.04-.261zm-.575-1.512a.43.43 0 01-.409-.285c-.088-.25-.44-.965-.884-.965-.458 0-.815.76-.885.965a.433.433 0 01-.545.263.414.414 0 01-.273-.527c.055-.157.562-1.535 1.703-1.535 1.14 0 1.647 1.378 1.701 1.535a.413.413 0 01-.272.527.457.457 0 01-.136.022zm-4.31 0a.43.43 0 01-.41-.285c-.087-.25-.438-.965-.884-.965-.458 0-.814.76-.884.965a.434.434 0 01-.545.263.413.413 0 01-.273-.527c.054-.157.562-1.535 1.702-1.535s1.648 1.378 1.702 1.535a.413.413 0 01-.272.527.462.462 0 01-.137.022z" fill="#664500"/><path d="M14.782 3.465s-3.897.067-6.54.067c-1.684 0-6.555-.049-6.555-.049l-.225.365c1.312.774 3.907 1.216 6.78 1.216 2.842 0 5.42-.433 6.746-1.192l.034-.02s-.162-.276-.24-.387z" fill="#FFAC33"/><path d="M10.732.144a31.485 31.485 0 00-1.627-.08 36.866 36.866 0 00-1.723 0 31.53 31.53 0 00-1.628.08C2.784.366.556 1.02.556 2.202c0 1.495 3.562 2.404 7.685 2.404 4.124 0 7.686-.91 7.686-2.404 0-1.181-2.227-1.836-5.195-2.06zm-2.49 2.932c-2.958 0-5.565-.347-5.565-1.14 0-.223.213-.426.577-.604C3.75 1.09 4.537.897 5.49.77 6.314.661 7.257.6 8.24.6 9.23.6 10.175.66 11 .771c.966.129 1.761.326 2.255.573.348.174.551.373.551.591 0 .793-2.607 1.14-5.565 1.14z" fill="#5DADEC"/><path d="M11 .773c.966.129 1.761.326 2.255.574l.027.007c-.985-.698-1.97-1.068-2.55-1.21a31.473 31.473 0 00-1.627-.08l.008.004L11 .773zm-7.746.56C3.75 1.092 4.537.899 5.49.772L7.372.068l.01-.004c-.56.013-1.105.04-1.628.08-.58.142-1.566.511-2.551 1.21l.05-.02z" fill="#3B94D9"/><path d="M12.755 1.407c-.284-.185-.58-.38-.862-.525A7.929 7.929 0 008.24 0a7.945 7.945 0 00-3.508.81c-.47.23-.811.416-.936.597h8.958z" fill="#FFCC4D"/></svg><svg fill="none" viewBox="0 0 23 20" id="heart" xmlns="http://www.w3.org/2000/svg"><path d="M22.545 6.162c-.33-3.406-2.898-5.877-6.112-5.877-2.14 0-4.101 1.081-5.204 2.815A5.927 5.927 0 006.149.284C2.935.284.367 2.756.038 6.162c-.026.15-.133.942.192 2.233.468 1.863 1.55 3.557 3.126 4.899l7.868 6.703 8.002-6.703c1.577-1.342 2.658-3.036 3.127-4.899.324-1.29.218-2.082.192-2.233zM21.507 8.21c-.427 1.7-1.418 3.25-2.862 4.479L11.229 18.9l-7.29-6.21c-1.446-1.231-2.436-2.78-2.864-4.482-.307-1.222-.18-1.912-.18-1.917l.006-.04C1.183 3.265 3.391 1.1 6.15 1.1c2.035 0 3.827 1.174 4.678 3.064l.4.89.4-.89C12.463 2.303 14.35 1.1 16.434 1.1c2.758 0 4.965 2.166 5.253 5.19.001.006.127.697-.18 1.919z" fill="#000"/></svg><svg fill="none" viewBox="0 0 21 21" id="message" xmlns="http://www.w3.org/2000/svg"><mask id="ia" fill="#fff"><path fill-rule="evenodd" clip-rule="evenodd" d="M19.384 16.092a10.449 10.449 0 001.612-5.594C20.996 4.7 16.296 0 10.498 0 4.7 0 0 4.7 0 10.498c0 5.798 4.7 10.498 10.498 10.498a10.45 10.45 0 005.443-1.519l4.868 1.052-1.425-4.437z"/></mask><path d="M19.384 16.092l-.892-.563-.262.417.15.468 1.004-.322zm-3.443 3.385l.222-1.03-.41-.089-.36.218.548.901zm4.868 1.052l-.222 1.03 1.784.386-.558-1.739-1.004.323zm-.867-10.03a9.395 9.395 0 01-1.45 5.03l1.783 1.125a11.504 11.504 0 001.775-6.156h-2.108zm-9.444-9.445a9.444 9.444 0 019.444 9.444h2.108c0-6.38-5.172-11.552-11.552-11.552v2.108zm-9.444 9.444a9.444 9.444 0 019.444-9.444v-2.108c-6.38 0-11.552 5.172-11.552 11.552h2.108zm9.444 9.444a9.444 9.444 0 01-9.444-9.444h-2.108c0 6.38 5.172 11.552 11.552 11.552v-2.108zm4.896-1.366a9.395 9.395 0 01-4.896 1.366v2.108c2.191 0 4.243-.61 5.99-1.672l-1.095-1.802zm5.638.922l-4.869-1.051-.445 2.06 4.869 1.052.445-2.06zm-2.652-3.084l1.426 4.437 2.007-.645-1.426-4.437-2.007.645z" fill="#000" mask="url(#ia)"/></svg><svg fill="none" viewBox="0 0 23 22" id="twit" xmlns="http://www.w3.org/2000/svg"><path d="M21.996 1.055H1l8.326 7.964 2.172 11.584L21.996 1.055z" stroke="#000" stroke-width="1.054" stroke-linejoin="round"/><path d="M8.964 9.018l13.032-7.964" stroke="#000" stroke-width="1.054"/></svg></svg>