<svg width="47" height="48" viewBox="0 0 47 48" fill="none" xmlns="http://www.w3.org/2000/svg">
<path d="M23.5 0C10.575 0 0 10.8 0 24V48H47V24C47 10.8 36.425 0 23.5 0ZM23.5 4.8C30.315 4.8 36.284 8.544 39.574 14.112C38.5635 14.28 37.506 14.4 36.425 14.4C29.61 14.4 23.641 10.656 20.351 5.088C21.3615 4.92 22.419 4.8 23.5 4.8ZM14.288 7.272C12.8075 11.808 9.7055 15.6 5.687 17.928C7.1675 13.392 10.2695 9.6 14.288 7.272ZM4.7 23.664C10.81 21.312 15.7215 16.488 18.189 10.344C22.513 15.744 29.0695 19.2 36.425 19.2C38.1875 19.2 39.8795 18.984 41.5245 18.624C42.018 20.328 42.3 22.128 42.3 24C42.3 34.584 33.8635 43.2 23.5 43.2C13.1365 43.2 4.7 34.584 4.7 24V23.664ZM4.7 43.2V38.4C6.0395 40.2 7.6375 41.832 9.4 43.2H4.7ZM42.3 43.2H37.6C39.3625 41.832 40.9605 40.2 42.3 38.4V43.2ZM27.6125 26.4C27.6125 24.744 28.9285 23.4 30.55 23.4C32.1715 23.4 33.4875 24.744 33.4875 26.4C33.4875 28.056 32.1715 29.4 30.55 29.4C28.9285 29.4 27.6125 28.056 27.6125 26.4ZM13.5125 26.4C13.5125 24.744 14.8285 23.4 16.45 23.4C18.0715 23.4 19.3875 24.744 19.3875 26.4C19.3875 28.056 18.0715 29.4 16.45 29.4C14.8285 29.4 13.5125 28.056 13.5125 26.4Z" fill="white"/>
</svg>
