<svg width="39" height="41" viewBox="0 0 39 41" fill="none" xmlns="http://www.w3.org/2000/svg">
<path d="M39 0.0051386C39 0.0051386 24.102 -0.753267 12.363 16.1571C3.354 29.132 0 41 0 41L3.783 38.9503C6.591 33.8259 8.0535 31.7147 10.803 28.7015C15.7365 30.2184 20.8845 30.0339 25.35 24.6021C21.45 23.4542 18.33 23.7207 13.728 24.2126C18.8955 20.5026 22.425 19.6827 27.3 20.5026L29.25 16.4031C25.74 15.7062 23.4 15.6447 19.929 16.4851C23.7705 13.6359 26.442 12.0371 31.2 12.3036L33.5595 8.34759C30.5175 8.12212 28.6845 8.47058 25.194 9.37247C28.3335 6.37984 31.2 5.02701 35.373 4.76054C35.373 4.76054 37.4205 0.886528 39 0.0051386Z" fill="white"/>
</svg>
