<svg width="26" height="26" viewBox="0 0 26 26" fill="none" xmlns="http://www.w3.org/2000/svg">
<g clip-path="url(#clip0)">
<path d="M19.0674 22.8476C20.8176 22.8476 22.2414 21.4237 22.2414 19.6736V17.6801C22.713 17.5208 23.0535 17.0745 23.0535 16.5499C23.0535 15.8921 22.5184 15.3569 21.8606 15.3569C21.2028 15.3569 20.6676 15.8921 20.6676 16.5499C20.6676 17.0745 21.0082 17.5208 21.4797 17.6801V19.6736C21.4797 21.0038 20.3975 22.0859 19.0674 22.0859C17.7373 22.0859 16.6551 21.0037 16.6551 19.6736V17.6801C17.1266 17.5208 17.4672 17.0745 17.4672 16.5499C17.4672 15.8921 16.932 15.3569 16.2742 15.3569C15.6164 15.3569 15.0813 15.8921 15.0813 16.5499C15.0813 17.0745 15.4218 17.5208 15.8934 17.6801V19.6736C15.8934 21.4237 17.3173 22.8476 19.0674 22.8476ZM21.8606 16.1186C22.0984 16.1186 22.2918 16.3121 22.2918 16.5498C22.2918 16.7876 22.0983 16.9811 21.8606 16.9811C21.6228 16.9811 21.4294 16.7876 21.4294 16.5498C21.4294 16.3121 21.6228 16.1186 21.8606 16.1186ZM16.2742 16.1186C16.512 16.1186 16.7054 16.3121 16.7054 16.5498C16.7054 16.7876 16.5119 16.9811 16.2742 16.9811C16.0365 16.9811 15.843 16.7876 15.843 16.5498C15.843 16.3121 16.0365 16.1186 16.2742 16.1186Z" fill="black"/>
<path d="M1.88342 25.9999H24.4658C25.0486 25.9999 25.5027 25.493 25.4392 24.914L24.9946 20.8564C24.9717 20.6473 24.784 20.4967 24.5745 20.5193C24.3654 20.5422 24.2145 20.7303 24.2374 20.9394L24.682 24.997C24.6961 25.1257 24.5955 25.2382 24.4658 25.2382H13.6693H13.6688C13.5402 25.2382 13.4384 25.1268 13.4526 24.997L14.551 14.974C14.5631 14.8635 14.6561 14.7802 14.7673 14.7802H23.3675C23.4786 14.7802 23.5716 14.8635 23.5837 14.974L24.0426 19.162C24.0655 19.3711 24.2523 19.5219 24.4627 19.4991C24.6718 19.4762 24.8227 19.2881 24.7998 19.0791L24.3409 14.8911C24.2863 14.3937 23.8679 14.0185 23.3675 14.0185H19.1539L18.5657 8.65131C18.4918 7.97636 17.924 7.46742 17.245 7.46742H15.7297V5.2956C15.7297 2.37561 13.3541 0 10.4341 0C7.51409 0 5.13848 2.37561 5.13848 5.2956V7.46742H3.62323C2.94422 7.46742 2.37642 7.97636 2.30248 8.65131L0.562722 24.5266C0.476646 25.3125 1.0932 25.9999 1.88342 25.9999ZM1.31994 24.6096L3.0597 8.73429C3.09129 8.44635 3.33357 8.22916 3.62328 8.22916H5.13853V9.64741C4.64097 9.8085 4.28005 10.2761 4.28005 10.8266C4.28005 11.51 4.83602 12.066 5.5194 12.066C6.20278 12.066 6.75875 11.51 6.75875 10.8266C6.75875 10.2761 6.39784 9.8085 5.90027 9.64741V8.22916H9.54544C9.75583 8.22916 9.92631 8.05863 9.92631 7.84829C9.92631 7.63795 9.75583 7.46742 9.54544 7.46742H5.90027V5.2956C5.90027 2.79563 7.93416 0.761738 10.4341 0.761738C12.9341 0.761738 14.968 2.79563 14.968 5.2956V7.46742H11.3228C11.1124 7.46742 10.942 7.63795 10.942 7.84829C10.942 8.05863 11.1124 8.22916 11.3228 8.22916H14.968V9.64741C14.4704 9.8085 14.1096 10.2761 14.1096 10.8266C14.1096 11.51 14.6655 12.066 15.3489 12.066C16.0323 12.066 16.5882 11.51 16.5882 10.8266C16.5882 10.2761 16.2273 9.8085 15.7297 9.64741V8.22916H17.245C17.5347 8.22916 17.777 8.4463 17.8086 8.73429L18.3876 14.0185H14.7673C14.2668 14.0185 13.8483 14.3937 13.7939 14.8911L12.6955 24.9141C12.6835 25.0232 12.6931 25.1458 12.7142 25.2383H1.88342C1.54572 25.2382 1.28312 24.9461 1.31994 24.6096ZM5.51935 10.349C5.78276 10.349 5.99696 10.5633 5.99696 10.8266C5.99696 11.09 5.78271 11.3042 5.51935 11.3042C5.25599 11.3042 5.04174 11.09 5.04174 10.8266C5.04174 10.5633 5.25594 10.349 5.51935 10.349ZM15.3488 10.349C15.6122 10.349 15.8264 10.5633 15.8264 10.8266C15.8264 11.09 15.6122 11.3042 15.3488 11.3042C15.0855 11.3042 14.8713 11.09 14.8713 10.8266C14.8713 10.5633 15.0855 10.349 15.3488 10.349Z" fill="black"/>
</g>
<defs>
<clipPath id="clip0">
<rect width="26" height="26" fill="white"/>
</clipPath>
</defs>
</svg>
