<svg width="61" height="61" viewBox="0 0 61 61" fill="none" xmlns="http://www.w3.org/2000/svg">
<g clip-path="url(#clip0)">
<path d="M59.6084 6.08963C57.5489 5.18417 55.4228 4.3665 53.2894 3.6594C52.8208 3.50404 52.3153 3.75805 52.1601 4.22651C52.0048 4.69497 52.2587 5.20061 52.7272 5.35585C54.7287 6.01922 56.7235 6.78232 58.6603 7.62548C57.1957 28.058 46.9456 46.8031 30.5001 59.1271C14.0546 46.8031 3.80458 28.0579 2.33986 7.62548C11.2355 3.75114 20.708 1.78723 30.5001 1.78723C36.8267 1.78723 43.0978 2.62348 49.1395 4.27262C49.615 4.40237 50.1068 4.12203 50.2368 3.64594C50.3668 3.16986 50.0861 2.67852 49.61 2.54854C43.4151 0.857455 36.9856 0 30.5001 0C20.375 0 10.5817 2.04886 1.39174 6.08963C0.841192 6.33173 0.498662 6.89777 0.539408 7.49835C1.97994 28.6376 12.5888 48.0359 29.6456 60.7194C29.8972 60.9065 30.1986 61 30.5001 61C30.8015 61 31.103 60.9065 31.3545 60.7194C48.4113 48.0359 59.0201 28.6376 60.4606 7.49859C60.5017 6.898 60.1593 6.33173 59.6084 6.08963V6.08963Z" fill="black"/>
<path d="M21.8139 46.1166C21.4931 45.7414 20.929 45.6973 20.554 46.0182C20.1789 46.3389 20.1348 46.903 20.4555 47.2781C23.3082 50.614 26.5004 53.6961 29.9434 56.4386C30.1063 56.5683 30.3032 56.6331 30.5002 56.6331C30.697 56.6331 30.894 56.5683 31.0569 56.4386C38.3082 50.6626 44.229 43.6226 48.6546 35.514C53.0806 27.4047 55.7915 18.6293 56.7118 9.43165C56.7514 9.03622 56.525 8.66212 56.1564 8.51379C48.0134 5.23623 39.3814 3.57434 30.5002 3.57434C21.6189 3.57434 12.9869 5.23623 4.84395 8.51391C4.47533 8.66236 4.24884 9.03634 4.2884 9.43177C5.55653 22.1101 10.3149 34.1676 18.0494 44.3009C18.3489 44.6932 18.9097 44.7685 19.3019 44.469C19.6941 44.1696 19.7694 43.6089 19.47 43.2165C12.0726 33.525 7.47029 22.0273 6.1371 9.92358C13.6089 7.00309 21.4964 5.47249 29.6066 5.36776V15.2189C27.9937 13.421 25.1269 11.5338 20.6466 12.7984C16.3668 14.0061 14.5925 16.7032 13.8577 18.7531C12.7613 21.8116 13.2618 25.5268 15.1327 28.2185C18.331 32.8184 27.682 40.9043 29.6067 42.5482V53.8508C26.8037 51.4876 24.1877 48.8928 21.8139 46.1166V46.1166ZM16.5999 27.1983C15.0723 25.0006 14.6464 21.8491 15.5399 19.3562C16.3903 16.9835 18.324 15.3106 21.132 14.5185C26.2097 13.085 28.6604 16.5725 29.4785 18.1382C29.6782 18.5205 30.0692 18.758 30.4991 18.758C30.929 18.758 31.3201 18.5205 31.5197 18.1383C32.3377 16.5725 34.7883 13.0849 39.8691 14.5186C42.6774 15.311 44.6112 16.9841 45.4613 19.3573C46.3541 21.8502 45.9271 25.0012 44.3982 27.1986C43.3625 28.6894 41.5061 30.7485 38.8804 33.3191C38.5277 33.6644 38.5218 34.2302 38.8671 34.5827C39.2122 34.9354 39.7779 34.9414 40.1307 34.5962C42.8365 31.9471 44.7659 29.8014 45.8654 28.2188C47.7374 25.5281 48.2391 21.8133 47.1436 18.7546C46.4093 16.7041 44.6351 14.0064 40.3545 12.7987C35.874 11.5342 33.0071 13.4195 31.3937 15.2169V5.36776C39.5039 5.47249 47.3912 7.00297 54.863 9.92346C52.9851 26.9221 44.4876 42.7979 31.3937 53.8499V42.5464C32.324 41.7522 34.6993 39.7017 37.3543 37.2379C37.716 36.9023 37.7372 36.3368 37.4015 35.9751C37.0658 35.6133 36.5004 35.5922 36.1386 35.9279C33.7327 38.1605 31.5579 40.0511 30.4991 40.9597C28.1294 38.9254 19.5475 31.4374 16.5999 27.1983V27.1983Z" fill="black"/>
</g>
<defs>
<clipPath id="clip0">
<rect width="61" height="61" fill="white"/>
</clipPath>
</defs>
</svg>
