<svg width="60" height="60" viewBox="0 0 60 60" fill="none" xmlns="http://www.w3.org/2000/svg">
<g clip-path="url(#clip0)">
<path d="M58.8286 30C58.8286 45.9215 45.9215 58.8286 30 58.8286C14.0785 58.8286 1.17188 45.9215 1.17188 30C1.17188 14.0785 14.0785 1.17188 30 1.17188C45.9215 1.17188 58.8286 14.0785 58.8286 30Z" fill="#CBE558"/>
<path d="M40.0393 16.3884L26.0743 30.3534L19.9614 24.2404L13.332 30.8698L19.445 36.9828L26.0743 43.6116L46.6682 23.0178L40.0393 16.3884Z" fill="white"/>
<path d="M26.0743 44.7835C25.7635 44.7835 25.4655 44.6599 25.2458 44.4402L12.5035 31.6983C12.0457 31.2406 12.0457 30.4985 12.5035 30.0408L19.1324 23.4119C19.5901 22.9541 20.3322 22.9541 20.7899 23.4119L26.0743 28.6963L39.2103 15.5599C39.4301 15.3401 39.7285 15.2166 40.0393 15.2166C40.3497 15.2166 40.6482 15.3401 40.8679 15.5599L47.4968 22.1892C47.9545 22.6465 47.9545 23.3885 47.4968 23.8463L26.9029 44.4406C26.6832 44.6604 26.3852 44.7835 26.0743 44.7835ZM14.9896 30.8698L26.0743 41.9545L45.0111 23.0178L40.0393 18.0455L26.9029 31.182C26.4451 31.6397 25.7031 31.6397 25.2458 31.182L19.9614 25.8976L14.9896 30.8698Z" fill="black"/>
<path d="M29.9927 60C29.2273 60 28.461 59.9707 27.6933 59.9121C20.5641 59.3655 13.8496 56.2761 8.78677 51.2137C3.12057 45.547 0 38.0136 0 30C0 21.9868 3.12057 14.453 8.78677 8.78677C14.453 3.12057 21.9868 0 30 0C38.0136 0 45.547 3.12057 51.2137 8.78677C56.2761 13.8496 59.3655 20.5641 59.9121 27.6933C60.4527 34.7452 58.4889 41.7741 54.3828 47.4861C54.0051 48.0116 53.2727 48.1311 52.7472 47.7534C52.2217 47.3758 52.1022 46.6434 52.4799 46.1179C60.4166 35.078 59.187 20.0752 49.5561 10.4439C38.773 -0.339203 21.2274 -0.339203 10.4443 10.4439C-0.339203 21.2274 -0.339203 38.7726 10.4443 49.5561C20.0752 59.1866 35.0784 60.4166 46.1183 52.4794C46.6438 52.1017 47.3758 52.2217 47.7539 52.7472C48.1316 53.2727 48.0116 54.0047 47.4861 54.3828C42.3958 58.0421 36.259 60 29.9927 60Z" fill="black"/>
<path d="M50.3853 51.5571C50.0767 51.5571 49.7746 51.4317 49.5567 51.2138C49.3388 50.9955 49.2134 50.6933 49.2134 50.3853C49.2134 50.0767 49.3388 49.7746 49.5567 49.5567C49.7746 49.3388 50.0767 49.2134 50.3853 49.2134C50.6933 49.2134 50.9955 49.3388 51.2138 49.5567C51.4317 49.7746 51.5571 50.0767 51.5571 50.3853C51.5571 50.6933 51.4317 50.9955 51.2138 51.2138C50.9955 51.4317 50.6933 51.5571 50.3853 51.5571Z" fill="black"/>
</g>
<defs>
<clipPath id="clip0">
<rect width="60" height="60" fill="white"/>
</clipPath>
</defs>
</svg>
