<svg width="58" height="58" viewBox="0 0 58 58" fill="none" xmlns="http://www.w3.org/2000/svg">
<g clip-path="url(#clip0)">
<path d="M27.7916 58C27.7892 58 27.7868 58 27.7844 58C27.1174 57.9952 26.5785 57.449 26.5833 56.7844C26.5857 56.4268 26.6485 48.0095 26.8805 45.7717C27.1947 42.7654 28.7607 40.4768 31.291 39.3289C35.2881 37.5139 40.1021 39.5802 42.4801 44.1284C43.5048 46.0883 43.7585 48.2343 43.2293 50.5108C42.9393 51.7554 42.6299 52.7027 42.2529 53.4954C41.4409 55.2064 41.0639 57.0164 41.0591 57.0334C40.9262 57.6883 40.2809 58.1039 39.6333 57.9759C38.9784 57.8429 38.5579 57.2049 38.6908 56.5524C38.7077 56.4654 39.1258 54.4427 40.0683 52.4586C40.3679 51.8279 40.6241 51.0352 40.873 49.9622C41.2718 48.2439 41.0978 46.7021 40.3365 45.2497C38.5603 41.8519 35.0996 40.2569 32.2842 41.528C30.5442 42.3183 29.505 43.8722 29.2803 46.0206C29.0628 48.1424 29 56.7144 29 56.7989C28.9951 57.4635 28.4538 58 27.7916 58V58Z" fill="black"/>
<path d="M45.9384 41.0833C44.5996 41.0833 43.3405 40.3655 42.5358 39.1306C40.5831 36.1364 40.5976 31.4577 42.5672 28.478C43.3719 27.26 44.5778 26.5205 45.9988 26.5833C47.3473 26.6147 48.5484 27.3542 49.2927 28.6109C51.2309 31.8685 51.2454 35.1359 49.3411 38.8914C48.6862 40.1867 47.4875 41.0035 46.1414 41.076C46.0738 41.0833 46.0061 41.0833 45.9384 41.0833V41.0833ZM45.9118 29C45.4092 29 44.9258 29.2948 44.5851 29.812C43.1568 31.9749 43.1472 35.6385 44.5633 37.8111C44.9307 38.3742 45.5058 38.6932 46.0133 38.6642C46.5015 38.6376 46.9196 38.3307 47.1878 37.799C48.7031 34.8096 48.7127 32.3591 47.2192 29.8434C46.9027 29.3093 46.4483 29.0096 45.9432 28.9975C45.9312 29 45.9191 29 45.9118 29V29Z" fill="black"/>
<path d="M20.5416 58C19.8746 58 19.3333 57.4587 19.3333 56.7917V51.6659C19.3333 45.124 17.0133 38.7682 12.7986 33.7657L0.282722 18.9032C-0.147445 18.3933 -0.0821949 17.6296 0.427722 17.1994C0.937638 16.7668 1.70131 16.8369 2.13147 17.3444L14.6474 32.2069C19.227 37.6468 21.75 44.5585 21.75 51.6659V56.7917C21.75 57.4587 21.2086 58 20.5416 58Z" fill="black"/>
<path d="M53.2729 58C53.2125 58 53.1521 57.9952 53.0917 57.9855C52.4319 57.8864 51.9776 57.2702 52.0791 56.6104L55.3658 34.9184C56.4339 27.8618 53.4566 20.6698 47.5962 16.1458L29.4712 2.16292C28.9443 1.7545 28.8453 0.995666 29.2537 0.466416C29.6597 -0.0604175 30.4161 -0.159501 30.9502 0.248916L49.0752 14.2318C55.6316 19.2898 58.9594 27.3567 57.7583 35.2785L54.4716 56.9705C54.3774 57.5723 53.8626 58 53.2729 58V58Z" fill="black"/>
<path d="M26.5808 36.2504C25.0631 36.2504 23.5914 35.784 22.3395 34.8801C20.457 33.5171 19.3332 31.318 19.3332 29.0004C19.3332 28.2174 19.4565 27.4465 19.703 26.707C20.1525 25.3512 19.9108 24.0366 19.0625 23.1883L0.352705 4.48088C-0.118545 4.00963 -0.118545 3.24355 0.352705 2.7723C0.823955 2.30105 1.59004 2.30105 2.06129 2.7723L20.7711 21.4821C22.2791 22.9901 22.7383 25.228 21.9964 27.4706C21.832 27.9612 21.7499 28.4784 21.7499 29.0004C21.7499 30.5471 22.499 32.0116 23.7557 32.9202C25.0365 33.8458 26.675 34.0778 28.2435 33.5606C30.1816 32.9226 31.5132 30.8926 31.4093 28.7394C31.3948 28.447 31.3561 28.186 31.2909 27.9467C31.1749 27.5262 31.2933 27.0767 31.6002 26.7698C31.9071 26.4605 32.3518 26.3396 32.7771 26.4605C33.0816 26.5426 33.4272 26.5837 33.8332 26.5837C35.3436 26.5837 36.7429 25.895 37.666 24.6939C38.5916 23.4928 38.8913 21.9316 38.4901 20.414C38.0938 18.9181 36.9555 17.688 35.5152 17.1998C34.3866 16.8156 33.229 16.818 32.1609 17.2095C30.0946 17.9659 27.9245 17.5478 26.501 16.1244L12.436 2.06422C11.9648 1.59297 11.9648 0.826885 12.436 0.355635C12.9073 -0.115615 13.6734 -0.115615 14.1446 0.355635L28.2072 14.4182C28.9685 15.1795 30.1381 15.3776 31.3295 14.9426C32.9197 14.3602 34.6355 14.3481 36.2885 14.9136C38.4853 15.6604 40.2229 17.5309 40.8222 19.7977C41.4167 22.0476 40.9624 24.3676 39.5776 26.1681C38.1953 27.9685 36.1 29.0004 33.8332 29.0004C33.8187 32.0768 31.8346 34.9212 29.0023 35.8541C28.2 36.1199 27.3831 36.2504 26.5808 36.2504V36.2504Z" fill="black"/>
</g>
<defs>
<clipPath id="clip0">
<rect width="58" height="58" fill="white"/>
</clipPath>
</defs>
</svg>
