<svg width="32" height="32" viewBox="0 0 32 32" fill="none" xmlns="http://www.w3.org/2000/svg">
<path d="M31.7181 6.35742L22.0132 15.9999L31.7181 25.6423C31.8936 25.2756 32 24.8702 32 24.4374V7.56236C32 7.12942 31.8936 6.72411 31.7181 6.35742Z" fill="#83D2B6"/>
<path d="M29.1876 4.75H2.8126C2.37967 4.75 1.97435 4.85644 1.60767 5.03188L14.0116 17.3733C15.1084 18.4701 16.8919 18.4701 17.9886 17.3733L30.3925 5.03188C30.0259 4.85644 29.6205 4.75 29.1876 4.75Z" fill="#83D2B6"/>
<path d="M0.281875 6.35742C0.106438 6.72411 0 7.12942 0 7.56236V24.4374C0 24.8703 0.106438 25.2757 0.281875 25.6423L9.98681 15.9999L0.281875 6.35742Z" fill="#83D2B6"/>
<path d="M20.6876 17.3257L19.3143 18.699C17.4869 20.5264 14.5133 20.5264 12.6859 18.699L11.3126 17.3257L1.60767 26.9681C1.97435 27.1436 2.37967 27.25 2.8126 27.25H29.1876C29.6205 27.25 30.0259 27.1436 30.3925 26.9681L20.6876 17.3257Z" fill="#83D2B6"/>
</svg>
