<svg width="61" height="61" viewBox="0 0 61 61" fill="none" xmlns="http://www.w3.org/2000/svg">
<g clip-path="url(#clip0)">
<path d="M57.4258 0H45.0828C43.112 0 41.5086 1.60339 41.5086 3.57422C41.5086 5.54504 43.112 7.14844 45.0828 7.14844H48.7973L41.1552 14.7905C36.7245 11.4475 31.2751 9.61763 25.6912 9.61763C20.8031 9.61763 16.0474 10.9969 11.9384 13.6063C11.3829 13.9591 11.2185 14.6954 11.5713 15.2508C11.9241 15.8063 12.6601 15.9706 13.2158 15.6179C16.9423 13.2514 21.2562 12.0006 25.6912 12.0006C31.0871 12.0006 36.3433 13.883 40.4915 17.3011C40.9652 17.6912 41.6576 17.658 42.0917 17.2242L52.516 6.79971C52.8566 6.45897 52.9587 5.94643 52.7743 5.50132C52.5899 5.05597 52.1554 4.76562 51.6734 4.76562H45.0828C44.4259 4.76562 43.8914 4.23116 43.8914 3.57422C43.8914 2.91728 44.4259 2.38281 45.0828 2.38281H57.4258C58.0827 2.38281 58.6172 2.91728 58.6172 3.57422V15.9172C58.6172 16.5741 58.0827 17.1086 57.4258 17.1086C56.7687 17.1086 56.2343 16.5741 56.2343 15.9172V9.32657C56.2343 8.84476 55.9439 8.41026 55.4988 8.22583C55.0537 8.04128 54.5411 8.14338 54.2004 8.484L43.7761 18.9085C43.3422 19.3425 43.3088 20.0349 43.6991 20.5085C47.1173 24.6569 48.9997 29.9131 48.9997 35.3088C48.9997 48.161 38.5435 58.6172 25.6912 58.6172C12.839 58.6172 2.38281 48.161 2.38281 35.3088C2.38281 30.8737 3.63379 26.5595 6.00052 22.8325C6.35317 22.2769 6.18888 21.5407 5.63345 21.188C5.07789 20.8352 4.34184 20.9995 3.98895 21.5552C1.37941 25.6648 0 30.4207 0 35.3088C0 42.1711 2.67232 48.6227 7.5248 53.4752C12.3773 58.3277 18.8289 61 25.6912 61C32.5536 61 39.0052 58.3277 43.8577 53.4752C48.7102 48.6227 51.3825 42.1711 51.3825 35.3088C51.3825 29.7249 49.5526 24.2756 46.2096 19.8448L53.8516 12.2029V15.9172C53.8516 17.888 55.455 19.4914 57.4259 19.4914C59.3967 19.4914 61.0001 17.888 61.0001 15.9172V3.57422C61 1.60339 59.3966 0 57.4258 0V0Z" fill="black"/>
<path d="M25.6912 56.2344C37.2297 56.2344 46.6169 46.8472 46.6169 35.3088C46.6169 29.7192 44.4403 24.4644 40.4882 20.512C36.5359 16.5599 31.281 14.3833 25.6912 14.3833C14.1528 14.3833 4.76562 23.7705 4.76562 35.3088C4.76562 46.8472 14.1528 56.2344 25.6912 56.2344V56.2344ZM25.6912 16.7661C30.6445 16.7661 35.301 18.6948 38.8031 22.1969C42.3054 25.6992 44.2341 30.3558 44.2341 35.3088C44.2341 45.5333 35.9158 53.8516 25.6912 53.8516C15.4667 53.8516 7.14844 45.5333 7.14844 35.3088C7.14844 25.0843 15.4667 16.7661 25.6912 16.7661V16.7661Z" fill="black"/>
<path d="M8.36716 19.1762C8.67204 19.1762 8.97692 19.0598 9.2096 18.8273L9.21019 18.8267C9.67544 18.3614 9.6752 17.6074 9.20996 17.1421C8.74459 16.6768 7.98996 16.6772 7.52471 17.1425C7.05947 17.6077 7.05947 18.3621 7.52471 18.8274C7.7574 19.0598 8.06228 19.1762 8.36716 19.1762V19.1762Z" fill="black"/>
</g>
<defs>
<clipPath id="clip0">
<rect width="61" height="61" fill="white"/>
</clipPath>
</defs>
</svg>
