<svg width="26" height="38" viewBox="0 0 26 38" fill="none" xmlns="http://www.w3.org/2000/svg">
<path d="M12.9999 0C6.01566 0 0.333252 5.68241 0.333252 12.6667C0.333252 14.7634 0.857459 16.8422 1.85399 18.6861L12.3073 37.5918C12.4464 37.8438 12.7116 38 12.9999 38C13.2883 38 13.5535 37.8438 13.6926 37.5918L24.1498 18.6799C25.1424 16.8422 25.6666 14.7633 25.6666 12.6666C25.6666 5.68241 19.9842 0 12.9999 0ZM12.9999 19C9.5078 19 6.66664 16.1588 6.66664 12.6667C6.66664 9.17455 9.5078 6.33338 12.9999 6.33338C16.4921 6.33338 19.3333 9.17455 19.3333 12.6667C19.3333 16.1588 16.4921 19 12.9999 19Z" fill="#83D2B6"/>
</svg>
