<svg width="64" height="64" viewBox="0 0 64 64" fill="none" xmlns="http://www.w3.org/2000/svg">
<path d="M53.3785 34.9246C52.7658 35.2425 52.5267 35.9971 52.8446 36.6099C54.1086 39.0461 54.7496 41.7278 54.7496 44.5803C54.7496 53.9101 47.1591 61.5005 37.8291 61.5005C33.7504 61.5005 29.8201 60.0908 26.7623 57.531C25.3676 56.3636 23.621 55.7208 21.8438 55.7206L12.306 55.7203C8.89887 55.7203 5.68538 53.9101 3.91963 50.9963C2.99088 49.4636 2.5 47.7063 2.5 45.9143V43.6C2.5 41.1333 3.8105 38.8066 5.92025 37.5283C6.51062 37.1705 6.69925 36.4019 6.3415 35.8114C5.98375 35.221 5.21513 35.0325 4.62463 35.3901C3.82675 35.8736 3.11375 36.468 2.5 37.1464V33.2733C2.5 26.4066 3.37663 19.5554 5.10563 12.9099C5.87825 9.94027 8.198 7.59677 11.1597 6.79402L26.6754 2.58839C27.7784 2.28914 28.9536 2.81227 29.47 3.83164L32.6224 10.053C33.177 11.1475 33.2364 12.4296 32.7854 13.5706C32.3345 14.7116 31.4145 15.6068 30.2616 16.0264L23.5739 18.4603C21.7864 19.1108 19.8179 18.5261 18.6751 17.0058L17.1322 14.9531L17.9084 14.5901C18.5336 14.2976 18.8035 13.5536 18.511 12.9283C18.2185 12.303 17.4745 12.0335 16.8491 12.3256L16.0715 12.6895C15.067 13.1594 13.8644 12.8058 13.274 11.8669C12.9066 11.2825 12.135 11.1065 11.5504 11.4741C10.966 11.8415 10.7901 12.6133 11.1576 13.1978C11.878 14.3434 13.0254 15.0806 14.2767 15.315L15.625 17.1086V17.5106C15.625 22.1631 17.325 26.6425 20.4116 30.1235C22.7961 32.8128 24.1094 36.2731 24.1094 39.8673V43.2093C24.1094 43.8996 24.669 44.4593 25.3594 44.4593C26.0497 44.4593 26.6094 43.8996 26.6094 43.2093V39.8673C26.6094 37.4523 26.1017 35.0891 25.142 32.9185C28.3709 29.4038 32.9095 27.3998 37.6995 27.3998C40.4541 27.3998 43.0826 28.0359 45.5119 29.2905C46.1254 29.6075 46.8792 29.3669 47.1961 28.7535C47.513 28.1401 47.2725 27.3861 46.6591 27.0693C43.911 25.6499 40.8129 24.8998 37.6996 24.8998C32.497 24.8998 27.5522 26.9603 23.8986 30.6028C23.419 29.8538 22.8796 29.1385 22.2822 28.4649C20.1747 26.0881 18.8123 23.1754 18.3255 20.0751C20.0868 21.2616 22.3361 21.5709 24.429 20.8094L31.1168 18.3755C32.9412 17.7115 34.3969 16.2951 35.1105 14.4895C35.8241 12.6839 35.7301 10.655 34.8526 8.92302L31.7003 2.70164C30.6508 0.630515 28.2627 -0.431985 26.0215 0.17539L10.5056 4.38114C6.68025 5.41802 3.68412 8.44489 2.68613 12.2804C0.90375 19.1314 0 26.1944 0 33.2733V45.9143C0 48.1632 0.616 50.3685 1.7815 52.2919C3.99738 55.9487 8.03012 58.2203 12.3059 58.2203L21.8436 58.2206C23.0351 58.2206 24.212 58.6565 25.1575 59.448C28.6645 62.3838 33.1647 64.0005 37.8291 64.0005C48.5376 64.0005 57.2496 55.2886 57.2496 44.5803C57.2496 41.369 56.4938 38.2148 55.0638 35.4585C54.7459 34.8458 53.9916 34.6066 53.3785 34.9246Z" fill="black"/>
<path d="M28.488 49.5316C27.9998 49.0435 27.2083 49.0435 26.7201 49.5316C26.232 50.0197 26.232 50.8112 26.7201 51.2995C29.6607 54.24 33.5703 55.8595 37.729 55.8595C41.8876 55.8595 45.7972 54.24 48.7379 51.2995C49.226 50.8114 49.226 50.0199 48.7379 49.5316C48.2497 49.0435 47.4582 49.0435 46.97 49.5316C41.8747 54.6271 33.5835 54.6271 28.488 49.5316Z" fill="black"/>
<path d="M63.8763 8.30112C63.6681 7.86812 63.2303 7.59275 62.7498 7.59275H57.5021L59.7666 1.69825C59.9142 1.31387 59.8631 0.8815 59.63 0.542125C59.3967 0.20275 59.0115 0 58.5997 0H50.0505C49.5158 0 49.0405 0.34 48.8676 0.845875L44.5471 13.4907C44.4167 13.8725 44.4785 14.2937 44.7132 14.622C44.9479 14.9501 45.3266 15.1449 45.73 15.1449H51.199L49.3968 23.7576C49.2783 24.324 49.5641 24.8977 50.0875 25.1444C50.2585 25.225 50.44 25.2637 50.6198 25.2637C50.9906 25.2637 51.3533 25.0986 51.5966 24.7942L63.7261 9.62337C64.0261 9.24812 64.0846 8.73413 63.8763 8.30112ZM52.9173 19.139L53.961 14.1509C54.0381 13.7824 53.945 13.3989 53.7076 13.1066C53.4702 12.8144 53.1138 12.6449 52.7375 12.6449H47.478L50.9443 2.5H56.7805L54.516 8.3945C54.3683 8.77887 54.4195 9.21125 54.6526 9.55062C54.8858 9.89 55.2711 10.0927 55.6828 10.0927H60.1501L52.9173 19.139Z" fill="black"/>
<path d="M51.5112 32.3813C51.7437 32.1488 51.8774 31.8263 51.8774 31.4976C51.8774 31.1676 51.7437 30.8463 51.5112 30.6138C51.2787 30.3813 50.9562 30.2476 50.6274 30.2476C50.2987 30.2476 49.9762 30.3813 49.7437 30.6138C49.5112 30.8463 49.3774 31.1676 49.3774 31.4976C49.3774 31.8263 49.5112 32.1488 49.7437 32.3813C49.9762 32.6138 50.2987 32.7476 50.6274 32.7476C50.9562 32.7477 51.2787 32.6138 51.5112 32.3813Z" fill="black"/>
</svg>
