<svg width="22" height="22" viewBox="0 0 22 22" fill="none" xmlns="http://www.w3.org/2000/svg">
<path d="M13.2732 3.81108C12.7591 3.297 12.1712 2.87367 11.526 2.55287C11.3628 2.47178 11.1649 2.53826 11.0838 2.70137C11.0028 2.86447 11.0692 3.06239 11.2323 3.14347C11.8136 3.43239 12.3433 3.81391 12.8068 4.27746C15.1503 6.62098 15.1503 10.4342 12.8068 12.7777C11.6715 13.913 10.1621 14.5382 8.55669 14.5382C6.95116 14.5382 5.44179 13.913 4.30656 12.7777C3.17128 11.6425 2.54609 10.1331 2.54609 8.52759C2.54609 6.9221 3.17128 5.41269 4.30656 4.27746C4.99144 3.59258 5.80303 3.09668 6.7187 2.8035C7.59264 2.52373 8.53572 2.44738 9.44575 2.58269C9.62613 2.60954 9.79376 2.48515 9.82048 2.30498C9.84721 2.12481 9.72294 1.95706 9.54277 1.93029C8.53331 1.7802 7.48719 1.86489 6.51756 2.17534C5.51519 2.49623 4.58929 3.06187 3.84009 3.81108C2.58029 5.07088 1.88647 6.74589 1.88647 8.52759C1.88647 10.3093 2.58029 11.9843 3.84009 13.2441C5.09994 14.5039 6.77494 15.1978 8.55664 15.1978C10.3383 15.1978 12.0133 14.5039 13.2731 13.2441C15.8739 10.6434 15.8739 6.41176 13.2732 3.81108Z" fill="black"/>
<path d="M21.4746 18.9627L15.7041 13.1922C16.7293 11.6139 17.2056 9.72129 17.0481 7.83157C16.8809 5.82553 16.004 3.93551 14.579 2.50963C12.9619 0.891644 10.8177 0.00034375 8.54127 0C8.54071 0 8.54049 0 8.53993 0C6.26405 0 4.11987 0.890656 2.50274 2.50779C-0.826137 5.8367 -0.826094 11.2532 2.50278 14.5821C3.92861 16.0079 5.81885 16.8854 7.82536 17.053C9.71582 17.2107 11.6085 16.7346 13.1872 15.7091L18.9578 21.4796C19.3047 21.8265 19.7604 22 20.2162 22C20.6719 22 21.1277 21.8265 21.4746 21.4796C22.1685 20.7857 22.1685 19.6566 21.4746 18.9627ZM21.0083 21.0132C20.5714 21.45 19.8608 21.4499 19.4241 21.0132L13.4616 15.0507C13.3978 14.9869 13.3133 14.9541 13.2283 14.9541C13.1628 14.9541 13.0968 14.9736 13.0398 15.0134C11.5426 16.0576 9.7107 16.5484 7.88028 16.3957C6.02901 16.2411 4.28491 15.4314 2.96925 14.1157C-0.102543 11.044 -0.102586 6.04592 2.96916 2.97417C4.46181 1.48152 6.44009 0.65957 8.53993 0.65957C8.54032 0.65957 8.54079 0.65957 8.54118 0.65957C10.6414 0.659871 12.62 1.48251 14.1125 2.97589C15.4274 4.29159 16.2366 6.03552 16.3908 7.8864C16.5431 9.71261 16.0541 11.5411 15.0141 13.0365C14.7903 13.3133 14.1719 14.054 13.8685 14.317C13.7309 14.4363 13.7161 14.6446 13.8354 14.7822C13.9006 14.8574 13.9925 14.8959 14.0847 14.8959C14.1613 14.8959 14.2382 14.8694 14.3006 14.8153C14.58 14.5731 15.0296 14.0504 15.3026 13.7235L21.0083 19.4291C21.445 19.8658 21.445 20.5764 21.0083 21.0132Z" fill="black"/>
</svg>
