<svg width="62" height="62" viewBox="0 0 62 62" fill="none" xmlns="http://www.w3.org/2000/svg">
<g clip-path="url(#clip0)">
<path d="M51.9583 53.9631C51.3071 53.8092 50.6554 54.2135 50.5023 54.8647L49.1745 60.5116C49.0214 61.1626 49.4251 61.8146 50.0761 61.9675C50.1693 61.9896 50.2626 62 50.3544 62C50.9035 62 51.401 61.6239 51.5321 61.066L52.8599 55.419C53.013 54.768 52.6093 54.1161 51.9583 53.9631V53.9631Z" fill="black"/>
<path d="M47.04 12.0199C47.04 8.9009 47.9188 5.85735 49.5813 3.21814L50.4391 1.85657C50.7955 1.2907 50.6258 0.543076 50.0599 0.186579C49.494 -0.17004 48.7464 -0.000146433 48.3899 0.56572L47.5321 1.92729C45.6258 4.95352 44.6182 8.44353 44.6182 12.0199C44.6182 15.8394 45.6259 19.5595 47.5404 22.8451H14.4597C16.3743 19.5595 17.382 15.8393 17.382 12.0199C17.382 8.44353 16.3743 4.95364 14.468 1.92729L13.6102 0.56572C13.2537 -0.000146433 12.5062 -0.17004 11.9402 0.186579C11.3743 0.543076 11.2045 1.2907 11.561 1.85657L12.4188 3.21814C14.0813 5.85735 14.9601 8.9009 14.9601 12.0199C14.9601 15.7253 13.8921 19.3255 11.8714 22.4316C8.37301 27.8092 6.52393 34.0427 6.52393 40.458C6.52393 43.0021 6.81915 45.5477 7.40149 48.0244L10.4679 61.0659C10.5991 61.6236 11.0963 61.9999 11.6457 61.9999C11.7375 61.9999 11.8307 61.9893 11.9239 61.9674C12.5749 61.8143 12.9787 61.1625 12.8255 60.5115L9.75904 47.4702C9.21945 45.175 8.94578 42.8157 8.94578 40.4582C8.94578 38.7321 9.09122 37.0205 9.37554 35.3381L27.1097 46.4438V60.7888C27.1097 61.4575 27.652 61.9997 28.3206 61.9997C28.9893 61.9997 29.5316 61.4575 29.5316 60.7888V46.9842H32.4685V60.7888C32.4685 61.4575 33.0108 61.9997 33.6795 61.9997C34.3481 61.9997 34.8904 61.4575 34.8904 60.7888V46.4438L52.6246 35.3381C52.9089 37.0205 53.0543 38.7321 53.0543 40.4582C53.0543 41.7524 52.971 43.0592 52.8071 44.3426C52.7222 45.0061 53.1912 45.6125 53.8545 45.6974C53.9067 45.7042 53.9584 45.7073 54.0096 45.7073C54.61 45.7073 55.1311 45.2611 55.2092 44.6499C55.3863 43.265 55.4761 41.8549 55.4761 40.4583C55.4761 34.0429 53.6269 27.8094 50.1286 22.4318C48.108 19.3255 47.04 15.7252 47.04 12.0199V12.0199ZM33.3316 44.5624H28.6687L9.91138 32.816C10.5888 30.184 11.6176 27.6472 12.9779 25.2671H49.0223C50.3828 27.6473 51.4115 30.184 52.0889 32.816L33.3316 44.5624Z" fill="black"/>
<path d="M60.7889 10.2326H54.0855L54.7222 9.59588C55.1951 9.12301 55.1951 8.35624 54.7222 7.88325C54.2492 7.4105 53.4827 7.4105 53.0096 7.88325L50.3057 10.5872C49.8328 11.06 49.8328 11.8268 50.3057 12.2998L53.0096 15.0037C53.2461 15.2401 53.556 15.3584 53.8659 15.3584C54.1757 15.3584 54.4856 15.2401 54.7221 15.0037C55.195 14.5308 55.195 13.764 54.7221 13.2911L54.0854 12.6543H60.7888C61.4575 12.6543 61.9997 12.1121 61.9997 11.4434C61.9997 10.7747 61.4576 10.2326 60.7889 10.2326V10.2326Z" fill="black"/>
<path d="M7.27798 13.2913C6.80511 13.7642 6.80511 14.5309 7.27798 15.0039C7.51447 15.2403 7.82435 15.3586 8.13423 15.3586C8.44411 15.3586 8.75399 15.2403 8.99049 15.0039L11.6944 12.3C12.1673 11.8272 12.1673 11.0604 11.6944 10.5874L8.99049 7.88337C8.51749 7.41062 7.75097 7.41062 7.27786 7.88337C6.80499 8.35624 6.80499 9.12301 7.27786 9.596L7.91457 10.2327H1.21118C0.542502 10.2327 0.000244141 10.775 0.000244141 11.4436C0.000244141 12.1123 0.542502 12.6546 1.21118 12.6546H7.91457L7.27798 13.2913Z" fill="black"/>
<path d="M31 17.6798C31.3185 17.6798 31.6309 17.5502 31.856 17.3249C32.0812 17.0998 32.2109 16.7873 32.2109 16.4689C32.2109 16.1504 32.0814 15.838 31.856 15.6127C31.6309 15.3875 31.3185 15.2579 31 15.2579C30.6815 15.2579 30.3691 15.3874 30.1439 15.6127C29.9186 15.838 29.7891 16.1504 29.7891 16.4689C29.7891 16.7873 29.9185 17.0998 30.1439 17.3249C30.3691 17.5502 30.6815 17.6798 31 17.6798Z" fill="black"/>
<path d="M52.9287 48.6273C52.609 48.6273 52.2978 48.7558 52.0726 48.9822C51.8461 49.2074 51.7178 49.5198 51.7178 49.8383C51.7178 50.1569 51.8461 50.468 52.0726 50.6944C52.2978 50.9196 52.6091 51.0492 52.9287 51.0492C53.2472 51.0492 53.5596 50.9198 53.7836 50.6944C54.0101 50.468 54.1386 50.1569 54.1386 49.8383C54.1386 49.5198 54.0101 49.2074 53.7836 48.9822C53.5596 48.7558 53.2472 48.6273 52.9287 48.6273Z" fill="black"/>
</g>
<defs>
<clipPath id="clip0">
<rect width="62" height="62" fill="white"/>
</clipPath>
</defs>
</svg>
