<svg width="80" height="81" viewBox="0 0 80 81" fill="none" xmlns="http://www.w3.org/2000/svg">
<rect x="1" y="1.5" width="78" height="78" rx="39" stroke="white" stroke-width="2"/>
<path d="M54.9857 49.6604C55.0492 50.1474 54.9008 50.5708 54.5411 50.9307L50.3171 55.1227C50.1266 55.3345 49.8778 55.5146 49.5708 55.6626C49.2638 55.8109 48.9622 55.9062 48.6659 55.9485C48.6447 55.9485 48.581 55.9539 48.4751 55.9645C48.3694 55.975 48.2318 55.9804 48.0624 55.9804C47.66 55.9804 47.0089 55.9116 46.1091 55.774C45.2092 55.6363 44.1083 55.2975 42.8063 54.7577C41.504 54.2178 40.0272 53.4078 38.3758 52.3281C36.7244 51.2485 34.967 49.7663 33.1039 47.8819C31.6218 46.421 30.3938 45.0236 29.4198 43.6897C28.4459 42.3558 27.6625 41.1225 27.0697 39.9898C26.4768 38.8571 26.0322 37.8302 25.7357 36.9092C25.4393 35.9882 25.2382 35.1942 25.1323 34.5273C25.0265 33.8603 24.9841 33.3363 25.0053 32.9552C25.0265 32.5741 25.0371 32.3624 25.0371 32.32C25.0794 32.0236 25.1747 31.7219 25.3229 31.4149C25.4711 31.1079 25.6511 30.8591 25.8628 30.6686L30.0867 26.4446C30.3831 26.1482 30.7219 26 31.103 26C31.3782 26 31.6217 26.0794 31.8335 26.2382C32.0452 26.397 32.2251 26.5928 32.3734 26.8257L35.7716 33.2728C35.9621 33.6115 36.015 33.9821 35.9303 34.3843C35.8457 34.7866 35.6657 35.1254 35.3904 35.4006L33.8343 36.9568C33.7919 36.9992 33.7549 37.068 33.7231 37.1632C33.6913 37.2585 33.6755 37.3379 33.6755 37.4014C33.7602 37.8461 33.9507 38.3542 34.2471 38.9259C34.5012 39.434 34.8929 40.0533 35.4222 40.7838C35.9515 41.5142 36.7031 42.3558 37.6771 43.3085C38.6299 44.2826 39.4768 45.0394 40.2178 45.5794C40.9587 46.1191 41.5782 46.5162 42.0757 46.7703C42.5733 47.0244 42.9544 47.1779 43.219 47.2307L43.6159 47.3101C43.6582 47.3101 43.7272 47.2942 43.8224 47.2625C43.9177 47.2307 43.9865 47.1937 44.0289 47.1513L45.8391 45.3092C46.2204 44.9705 46.6648 44.8012 47.173 44.8012C47.533 44.8012 47.8187 44.8646 48.0304 44.9917H48.0621L54.1915 48.6122C54.6363 48.8877 54.9009 49.2369 54.9857 49.6604Z" fill="white"/>
</svg>
