<?xml version="1.0" encoding="utf-8"?><svg viewBox="0 0 64 64" xmlns="http://www.w3.org/2000/svg" xmlns:xlink="http://www.w3.org/1999/xlink"><style>:root>svg{display:none}:root>svg:target{display:block}</style><svg fill="none" viewBox="0 0 26 26" id="bag" xmlns="http://www.w3.org/2000/svg"><g clip-path="url(#aclip0)" fill="#000"><path d="M19.067 22.848a3.178 3.178 0 003.174-3.174V17.68c.472-.16.813-.605.813-1.13 0-.658-.536-1.193-1.193-1.193-.658 0-1.193.535-1.193 1.193 0 .524.34.97.812 1.13v1.994a2.415 2.415 0 01-2.413 2.412 2.415 2.415 0 01-2.412-2.412V17.68c.472-.16.812-.605.812-1.13 0-.658-.535-1.193-1.193-1.193a1.194 1.194 0 00-.38 2.323v1.994a3.178 3.178 0 003.173 3.174zm2.794-6.73a.432.432 0 11-.001.864.432.432 0 010-.863zm-5.587 0a.432.432 0 110 .864.432.432 0 010-.863z"/><path d="M1.883 26h22.583a.98.98 0 00.973-1.086l-.444-4.058a.38.38 0 10-.758.083l.445 4.058a.217.217 0 01-.216.241H13.669a.217.217 0 01-.216-.241l1.098-10.023a.217.217 0 01.216-.194h8.6c.112 0 .205.084.217.194l.459 4.188a.38.38 0 10.757-.083l-.46-4.188a.978.978 0 00-.973-.873h-4.213l-.588-5.367a1.327 1.327 0 00-1.321-1.184H15.73V5.296A5.302 5.302 0 0010.434 0a5.302 5.302 0 00-5.296 5.296v2.171H3.623c-.679 0-1.247.51-1.32 1.184L.562 24.527A1.33 1.33 0 001.883 26zm-.563-1.39L3.06 8.734a.566.566 0 01.563-.505H5.14v1.418a1.24 1.24 0 00.38 2.419A1.24 1.24 0 005.9 9.647V8.23h3.645a.38.38 0 100-.762H5.9V5.296c0-2.5 2.034-4.534 4.534-4.534s4.534 2.034 4.534 4.534v2.171h-3.645a.38.38 0 100 .762h3.645v1.418a1.24 1.24 0 00.38 2.419 1.24 1.24 0 00.382-2.419V8.23h1.515c.29 0 .532.217.564.505l.579 5.284h-3.62c-.501 0-.92.376-.974.873l-1.099 10.023c-.011.11-.002.232.02.324H1.882a.566.566 0 01-.563-.628zm4.2-14.261a.478.478 0 11-.002.956.478.478 0 01.001-.956zm9.829 0a.478.478 0 11-.001.956.478.478 0 010-.956z"/></g><defs><clipPath id="aclip0"><path fill="#fff" d="M0 0h26v26H0z"/></clipPath></defs></svg><svg fill="none" viewBox="0 0 61 61" id="body" xmlns="http://www.w3.org/2000/svg"><g clip-path="url(#bclip0)" fill="#000"><path d="M59.608 6.09a72.222 72.222 0 00-6.319-2.43.893.893 0 10-.562 1.696 70.445 70.445 0 015.933 2.27C57.196 28.057 46.946 46.802 30.5 59.126 14.055 46.803 3.805 28.057 2.34 7.625c8.896-3.874 18.368-5.838 28.16-5.838 6.327 0 12.598.836 18.64 2.486a.894.894 0 00.47-1.724A72.577 72.577 0 0030.5 0C20.375 0 10.582 2.049 1.392 6.09c-.55.242-.893.808-.853 1.408 1.44 21.14 12.05 40.538 29.107 53.221.251.188.553.281.854.281.302 0 .603-.093.855-.28C48.41 48.035 59.02 28.637 60.46 7.498a1.436 1.436 0 00-.853-1.41z"/><path d="M21.814 46.117a.893.893 0 10-1.358 1.161 69.433 69.433 0 009.487 9.16.892.892 0 001.114 0 68.694 68.694 0 0017.598-20.924 68.359 68.359 0 008.057-26.082.893.893 0 00-.556-.918c-8.143-3.278-16.775-4.94-25.656-4.94S12.987 5.236 4.844 8.514a.894.894 0 00-.556.918A68.708 68.708 0 0018.05 44.3a.894.894 0 101.421-1.084A66.916 66.916 0 016.137 9.924c7.472-2.92 15.36-4.452 23.47-4.556v9.85c-1.613-1.797-4.48-3.684-8.96-2.42-4.28 1.208-6.054 3.905-6.79 5.955-1.096 3.059-.595 6.774 1.276 9.465 3.198 4.6 12.549 12.686 14.474 14.33v11.303a67.59 67.59 0 01-7.793-7.734zM16.6 27.198c-1.528-2.197-1.954-5.349-1.06-7.842.85-2.373 2.784-4.045 5.592-4.838 5.078-1.433 7.528 2.055 8.346 3.62a1.149 1.149 0 002.042 0c.818-1.566 3.268-5.053 8.35-3.62 2.807.793 4.741 2.466 5.591 4.84.893 2.492.466 5.643-1.063 7.84-1.036 1.491-2.892 3.55-5.518 6.121a.893.893 0 101.25 1.277c2.706-2.649 4.636-4.795 5.735-6.377 1.872-2.69 2.374-6.406 1.279-9.464-.735-2.05-2.509-4.749-6.79-5.956-4.48-1.265-7.347.62-8.96 2.418v-9.85c8.11.105 15.997 1.636 23.469 4.556-1.878 17-10.375 32.875-23.47 43.927V42.546c.931-.794 3.306-2.844 5.961-5.308a.894.894 0 10-1.215-1.31 201.755 201.755 0 01-5.64 5.032c-2.37-2.035-10.951-9.523-13.9-13.762z"/></g><defs><clipPath id="bclip0"><path fill="#fff" d="M0 0h61v61H0z"/></clipPath></defs></svg><svg fill="none" viewBox="0 0 60 60" id="checked" xmlns="http://www.w3.org/2000/svg"><g clip-path="url(#cclip0)"><path d="M58.829 30c0 15.922-12.907 28.829-28.829 28.829C14.079 58.829 1.172 45.922 1.172 30 1.172 14.079 14.078 1.172 30 1.172c15.922 0 28.829 12.906 28.829 28.828z" fill="#CBE558"/><path d="M40.04 16.388L26.073 30.353l-6.113-6.113-6.629 6.63 6.113 6.113 6.63 6.629 20.593-20.594-6.629-6.63z" fill="#fff"/><path d="M26.074 44.783c-.31 0-.609-.123-.828-.343L12.504 31.698a1.172 1.172 0 010-1.657l6.628-6.63a1.172 1.172 0 011.658 0l5.284 5.285L39.21 15.56a1.173 1.173 0 011.658 0l6.629 6.63c.458.456.458 1.198 0 1.656L26.903 44.441c-.22.22-.518.342-.829.342zM14.99 30.87l11.084 11.085 18.937-18.937-4.972-4.973-13.136 13.137c-.458.458-1.2.458-1.657 0l-5.285-5.284-4.971 4.972z" fill="#000"/><path d="M29.993 60a30.003 30.003 0 01-21.206-8.786C3.12 45.547 0 38.014 0 30c0-8.013 3.12-15.547 8.787-21.213C14.453 3.12 21.987 0 30 0c8.014 0 15.547 3.12 21.214 8.787a30.003 30.003 0 018.698 18.906c.54 7.052-1.423 14.081-5.53 19.793a1.172 1.172 0 01-1.902-1.368c7.937-11.04 6.707-26.043-2.924-35.674C38.773-.34 21.227-.34 10.444 10.444c-10.783 10.783-10.783 28.329 0 39.112 9.631 9.63 24.634 10.86 35.674 2.923a1.172 1.172 0 011.368 1.904A29.996 29.996 0 0129.993 60z" fill="#000"/><path d="M50.385 51.557a1.18 1.18 0 01-.828-.343 1.182 1.182 0 01-.344-.829c0-.308.126-.61.344-.828a1.18 1.18 0 01.828-.344c.308 0 .61.126.829.344.218.218.343.52.343.828 0 .308-.125.61-.343.829-.218.218-.52.343-.829.343z" fill="#000"/></g><defs><clipPath id="cclip0"><path fill="#fff" d="M0 0h60v60H0z"/></clipPath></defs></svg><svg fill="none" viewBox="0 0 58 58" id="joints" xmlns="http://www.w3.org/2000/svg"><g clip-path="url(#dclip0)" fill="#000"><path d="M27.792 58h-.008a1.21 1.21 0 01-1.2-1.216c.002-.357.064-8.774.297-11.012.314-3.007 1.88-5.295 4.41-6.443 3.997-1.815 8.811.251 11.19 4.8 1.024 1.96 1.277 4.105.748 6.382-.29 1.244-.6 2.192-.976 2.984-.812 1.711-1.19 3.521-1.194 3.538a1.215 1.215 0 01-1.426.943 1.206 1.206 0 01-.942-1.424c.017-.087.435-2.11 1.377-4.093.3-.631.556-1.424.805-2.497.399-1.718.225-3.26-.536-4.712-1.777-3.398-5.237-4.993-8.053-3.722-1.74.79-2.779 2.344-3.004 4.493-.217 2.121-.28 10.693-.28 10.778A1.21 1.21 0 0127.792 58zM45.938 41.083c-1.338 0-2.598-.718-3.402-1.952-1.953-2.995-1.938-7.673.031-10.653.805-1.218 2.01-1.958 3.432-1.895 1.348.032 2.55.771 3.294 2.028 1.938 3.258 1.952 6.525.048 10.28-.655 1.296-1.854 2.113-3.2 2.185-.067.007-.135.007-.203.007zM45.912 29c-.503 0-.986.295-1.327.812-1.428 2.163-1.438 5.826-.022 8 .368.562.943.881 1.45.852.489-.026.907-.333 1.175-.865 1.515-2.99 1.525-5.44.031-7.956-.316-.534-.77-.833-1.276-.846-.012.003-.024.003-.031.003zM20.542 58a1.209 1.209 0 01-1.209-1.208v-5.126c0-6.542-2.32-12.898-6.534-17.9L.283 18.903a1.21 1.21 0 011.848-1.559l12.516 14.863a30.262 30.262 0 017.103 19.459v5.126c0 .667-.541 1.208-1.208 1.208z"/><path d="M53.273 58a1.205 1.205 0 01-1.194-1.39l3.287-21.692c1.068-7.056-1.91-14.248-7.77-18.772L29.471 2.163A1.21 1.21 0 0130.95.249l18.125 13.983c6.557 5.058 9.884 13.125 8.683 21.047L54.472 56.97a1.214 1.214 0 01-1.2 1.03z"/><path d="M26.58 36.25a7.208 7.208 0 01-4.24-1.37A7.283 7.283 0 0119.332 29c0-.783.123-1.553.37-2.293.45-1.356.208-2.67-.64-3.519L.352 4.481A1.21 1.21 0 012.06 2.772l18.71 18.71c1.508 1.508 1.967 3.746 1.225 5.989a4.85 4.85 0 001.76 5.45c1.28.925 2.919 1.157 4.488.64 1.938-.638 3.27-2.668 3.165-4.822a3.697 3.697 0 00-.118-.792 1.21 1.21 0 01.31-1.177 1.19 1.19 0 011.176-.31c.305.083.65.124 1.056.124 1.51 0 2.91-.689 3.833-1.89.926-1.201 1.225-2.762.824-4.28-.396-1.496-1.535-2.726-2.975-3.214-1.128-.384-2.286-.382-3.354.01-2.066.756-4.237.338-5.66-1.086L12.436 2.064A1.21 1.21 0 0114.145.356l14.062 14.062c.761.762 1.931.96 3.122.525 1.59-.583 3.306-.595 4.96-.03 2.196.747 3.934 2.618 4.533 4.885.595 2.25.14 4.57-1.244 6.37A7.193 7.193 0 0133.833 29c-.014 3.077-1.998 5.921-4.83 6.854a7.699 7.699 0 01-2.422.396z"/></g><defs><clipPath id="dclip0"><path fill="#fff" d="M0 0h58v58H0z"/></clipPath></defs></svg><svg fill="none" viewBox="0 0 32 32" id="mail" xmlns="http://www.w3.org/2000/svg"><path d="M31.718 6.357L22.013 16l9.705 9.642A2.78 2.78 0 0032 24.437V7.562c0-.433-.106-.838-.282-1.205zM29.188 4.75H2.813a2.78 2.78 0 00-1.205.282l12.404 12.341a2.815 2.815 0 003.977 0L30.392 5.032a2.78 2.78 0 00-1.204-.282zM.282 6.357A2.78 2.78 0 000 7.562v16.875c0 .433.106.839.282 1.205L9.987 16 .282 6.357z" fill="#83D2B6"/><path d="M20.688 17.326l-1.374 1.373a4.692 4.692 0 01-6.628 0l-1.373-1.373-9.705 9.642c.366.176.772.282 1.205.282h26.375c.433 0 .838-.106 1.204-.282l-9.704-9.642z" fill="#83D2B6"/></svg><svg fill="none" viewBox="0 0 61 61" id="male" xmlns="http://www.w3.org/2000/svg"><g clip-path="url(#fclip0)" fill="#000"><path d="M57.426 0H45.083a3.578 3.578 0 00-3.574 3.574 3.578 3.578 0 003.574 3.574h3.714l-7.642 7.643a25.727 25.727 0 00-15.464-5.173 25.61 25.61 0 00-13.753 3.988 1.191 1.191 0 101.278 2.012A23.23 23.23 0 0125.69 12a23.323 23.323 0 0114.8 5.3c.474.39 1.167.357 1.6-.077L52.517 6.8a1.192 1.192 0 00-.843-2.034h-6.59a1.193 1.193 0 01-1.192-1.192c0-.657.535-1.191 1.192-1.191h12.343c.657 0 1.191.534 1.191 1.191v12.343c0 .657-.534 1.192-1.191 1.192a1.193 1.193 0 01-1.192-1.192v-6.59a1.192 1.192 0 00-2.034-.843L43.776 18.909a1.191 1.191 0 00-.077 1.6 23.323 23.323 0 015.3 14.8c0 12.852-10.456 23.308-23.308 23.308S2.383 48.161 2.383 35.31c0-4.435 1.25-8.75 3.618-12.476a1.192 1.192 0 00-2.012-1.278A25.613 25.613 0 000 35.31c0 6.862 2.672 13.314 7.525 18.166C12.377 58.328 18.829 61 25.69 61c6.863 0 13.314-2.672 18.167-7.525 4.852-4.852 7.525-11.304 7.525-18.166 0-5.584-1.83-11.033-5.173-15.464l7.642-7.642v3.714a3.578 3.578 0 003.574 3.574A3.578 3.578 0 0061 15.917V3.574A3.578 3.578 0 0057.426 0z"/><path d="M25.691 56.234c11.539 0 20.926-9.387 20.926-20.925a20.79 20.79 0 00-6.129-14.797 20.79 20.79 0 00-14.797-6.129c-11.538 0-20.925 9.387-20.925 20.926 0 11.538 9.387 20.925 20.925 20.925zm0-39.468c4.954 0 9.61 1.929 13.112 5.43a18.422 18.422 0 015.431 13.113c0 10.224-8.318 18.543-18.543 18.543-10.224 0-18.543-8.319-18.543-18.543 0-10.225 8.319-18.543 18.543-18.543zM8.367 19.176a1.191 1.191 0 10.002-2.383 1.191 1.191 0 00-.002 2.383z"/></g><defs><clipPath id="fclip0"><path fill="#fff" d="M0 0h61v61H0z"/></clipPath></defs></svg><svg fill="none" viewBox="0 0 26 38" id="marker" xmlns="http://www.w3.org/2000/svg"><path d="M13 0C6.016 0 .333 5.682.333 12.667c0 2.096.524 4.175 1.521 6.02l10.453 18.905a.79.79 0 001.386 0L24.15 18.68a12.69 12.69 0 001.517-6.013C25.667 5.682 19.984 0 13 0zm0 19a6.34 6.34 0 01-6.333-6.333A6.34 6.34 0 0113 6.333a6.34 6.34 0 016.333 6.334A6.34 6.34 0 0113 19z" fill="#83D2B6"/></svg><svg fill="none" viewBox="0 0 64 64" id="muscles" xmlns="http://www.w3.org/2000/svg"><path d="M53.379 34.925a1.25 1.25 0 00-.534 1.685c1.264 2.436 1.905 5.118 1.905 7.97 0 9.33-7.59 16.92-16.92 16.92-4.08 0-8.01-1.41-11.068-3.969a7.69 7.69 0 00-4.918-1.81h-9.538a9.861 9.861 0 01-8.386-4.725 9.805 9.805 0 01-1.42-5.082V43.6a7.14 7.14 0 013.42-6.072 1.25 1.25 0 00-1.295-2.138A9.517 9.517 0 002.5 37.146v-3.873c0-6.866.877-13.718 2.606-20.363a8.592 8.592 0 016.054-6.116l15.515-4.206a2.431 2.431 0 012.795 1.244l3.152 6.221a4.295 4.295 0 01-2.36 5.973l-6.688 2.434a4.269 4.269 0 01-4.899-1.454l-1.543-2.053.776-.363a1.25 1.25 0 00-1.059-2.264l-.777.364a2.205 2.205 0 01-2.798-.823 1.25 1.25 0 10-2.116 1.33 4.699 4.699 0 003.119 2.118l1.348 1.794v.402c0 4.652 1.7 9.131 4.787 12.613a14.674 14.674 0 013.697 9.743v3.342a1.25 1.25 0 002.5 0v-3.342c0-2.415-.507-4.778-1.467-6.948a17.029 17.029 0 0112.558-5.52c2.754 0 5.383.637 7.812 1.892a1.25 1.25 0 101.147-2.222 19.604 19.604 0 00-8.96-2.17 19.522 19.522 0 00-13.8 5.704 17.198 17.198 0 00-1.617-2.138 16.496 16.496 0 01-3.956-8.39 6.752 6.752 0 006.103.734l6.688-2.434a6.797 6.797 0 003.994-3.886 6.797 6.797 0 00-.258-5.566L31.7 2.702A4.942 4.942 0 0026.022.175L10.505 4.381a11.097 11.097 0 00-7.82 7.9A83.428 83.428 0 000 33.272v12.641c0 2.25.616 4.454 1.782 6.378a12.375 12.375 0 0010.524 5.928h9.538c1.191 0 2.368.437 3.313 1.228 3.508 2.936 8.008 4.553 12.672 4.553 10.709 0 19.42-8.712 19.42-19.42 0-3.212-.755-6.366-2.185-9.123a1.25 1.25 0 00-1.685-.533z" fill="#000"/><path d="M28.488 49.532A1.25 1.25 0 0026.72 51.3c2.94 2.94 6.85 4.56 11.009 4.56 4.159 0 8.068-1.62 11.009-4.56a1.25 1.25 0 00-1.768-1.768c-5.095 5.095-13.386 5.095-18.482 0zM63.876 8.301a1.25 1.25 0 00-1.126-.708h-5.248l2.265-5.895A1.25 1.25 0 0058.6 0h-8.55c-.534 0-1.01.34-1.182.846l-4.32 12.645a1.25 1.25 0 001.182 1.654h5.469l-1.802 8.613a1.25 1.25 0 002.2 1.036l12.13-15.17c.3-.376.358-.89.15-1.323zM52.917 19.14l1.044-4.988a1.25 1.25 0 00-1.224-1.506h-5.259L50.944 2.5h5.837l-2.265 5.895a1.25 1.25 0 001.167 1.698h4.467l-7.233 9.046zM51.511 32.381a1.26 1.26 0 00.366-.883c0-.33-.133-.652-.366-.884a1.26 1.26 0 00-.884-.366 1.26 1.26 0 00-.883.366 1.257 1.257 0 00-.367.884c0 .328.134.65.367.883.232.233.555.367.883.367.33 0 .652-.134.884-.367z" fill="#000"/></svg><svg fill="none" viewBox="0 0 24 16" id="nextArrow" xmlns="http://www.w3.org/2000/svg"><path d="M23.707 8.707a1 1 0 000-1.414L17.343.929a1 1 0 10-1.414 1.414L21.586 8l-5.657 5.657a1 1 0 001.414 1.414l6.364-6.364zM0 9h23V7H0v2z" fill="#000"/></svg><svg fill="none" viewBox="0 0 24 16" id="prevArrow" xmlns="http://www.w3.org/2000/svg"><path d="M.293 7.293a1 1 0 000 1.414l6.364 6.364a1 1 0 001.414-1.414L2.414 8l5.657-5.657A1 1 0 006.657.93L.293 7.293zM24 7H1v2h23V7z" fill="#000"/></svg><svg fill="none" viewBox="0 0 22 22" id="search" xmlns="http://www.w3.org/2000/svg"><path d="M13.273 3.811a6.663 6.663 0 00-1.747-1.258.33.33 0 00-.294.59 6.017 6.017 0 011.575 9.634 5.971 5.971 0 01-4.25 1.761 5.971 5.971 0 01-4.25-1.76 5.971 5.971 0 01-1.76-4.25c0-1.606.624-3.115 1.76-4.25a5.945 5.945 0 012.412-1.474 6.067 6.067 0 012.727-.221.33.33 0 10.097-.653 6.73 6.73 0 00-3.025.245A6.69 6.69 0 003.84 3.811a6.626 6.626 0 00-1.954 4.717c0 1.781.694 3.456 1.954 4.716a6.627 6.627 0 004.717 1.954 6.626 6.626 0 004.716-1.954c2.6-2.6 2.6-6.832 0-9.433z" fill="#000"/><path d="M21.475 18.963l-5.77-5.77A8.543 8.543 0 0014.58 2.51 8.486 8.486 0 008.54 0H8.54C6.264 0 4.12.89 2.503 2.508c-3.33 3.329-3.33 8.745 0 12.074a8.543 8.543 0 0010.684 1.127l5.77 5.77c.348.348.803.521 1.26.521.455 0 .91-.174 1.258-.52a1.782 1.782 0 000-2.517zm-.467 2.05a1.121 1.121 0 01-1.584 0l-5.962-5.962a.33.33 0 00-.422-.038 7.882 7.882 0 01-10.07-.898c-3.073-3.071-3.073-8.07 0-11.14A7.83 7.83 0 018.54.66h.001c2.1 0 4.079.823 5.572 2.316a7.882 7.882 0 01.901 10.06c-.224.277-.842 1.018-1.146 1.281a.33.33 0 00.433.498c.279-.242.729-.765 1.002-1.091l5.705 5.705a1.121 1.121 0 010 1.584z" fill="#000"/></svg><svg fill="none" viewBox="0 0 16 16" id="tick" xmlns="http://www.w3.org/2000/svg"><g clip-path="url(#lclip0)"><path d="M15.766 2.36a.8.8 0 00-1.132 0L5.05 11.943 1.366 8.26A.8.8 0 00.234 9.39l4.25 4.25a.8.8 0 001.132 0l10.15-10.15a.8.8 0 000-1.132z" fill="#989898"/></g><defs><clipPath id="lclip0"><path fill="#fff" d="M0 0h16v16H0z"/></clipPath></defs></svg><svg fill="none" viewBox="0 0 62 62" id="weight-loss" xmlns="http://www.w3.org/2000/svg"><g clip-path="url(#mclip0)" fill="#000"><path d="M51.958 53.963a1.21 1.21 0 00-1.456.902l-1.328 5.647a1.21 1.21 0 102.358.554l1.328-5.647a1.21 1.21 0 00-.902-1.456zM47.04 12.02c0-3.12.879-6.163 2.541-8.802l.858-1.361A1.21 1.21 0 0048.39.566l-.857 1.361a18.911 18.911 0 00-2.914 10.093c0 3.82 1.008 7.54 2.922 10.825H14.46a21.458 21.458 0 002.922-10.825c0-3.576-1.008-7.066-2.914-10.093L13.61.566a1.21 1.21 0 10-2.049 1.29l.858 1.362a16.493 16.493 0 012.541 8.802c0 3.705-1.068 7.306-3.089 10.412a32.98 32.98 0 00-5.347 18.026c0 2.544.295 5.09.877 7.566l3.067 13.042a1.211 1.211 0 002.357-.555L9.76 47.471a30.681 30.681 0 01-.383-12.133L27.11 46.444v14.345a1.211 1.211 0 002.422 0V46.984h2.936V60.79a1.211 1.211 0 002.422 0V46.444l17.735-11.106a30.72 30.72 0 01.182 9.005 1.21 1.21 0 102.402.307c.177-1.385.267-2.795.267-4.192a32.98 32.98 0 00-5.347-18.026A19.05 19.05 0 0147.04 12.02zM33.332 44.562h-4.663L9.91 32.816a30.556 30.556 0 013.067-7.549h36.044a30.55 30.55 0 013.067 7.549L33.332 44.562z"/><path d="M60.789 10.233h-6.703l.636-.637a1.211 1.211 0 00-1.712-1.713l-2.704 2.704a1.211 1.211 0 000 1.713l2.704 2.704a1.208 1.208 0 001.712 0 1.211 1.211 0 000-1.713l-.637-.637h6.704a1.211 1.211 0 000-2.421zM7.278 13.291a1.211 1.211 0 001.712 1.713l2.704-2.704a1.211 1.211 0 000-1.713L8.99 7.883a1.211 1.211 0 00-1.712 1.713l.637.637H1.21a1.211 1.211 0 000 2.422h6.704l-.637.636zM31 17.68c.319 0 .63-.13.856-.355a1.22 1.22 0 00.355-.856c0-.319-.13-.631-.355-.856a1.22 1.22 0 00-.856-.355c-.319 0-.63.13-.856.355a1.22 1.22 0 00-.355.856c0 .318.13.63.355.856.225.225.538.355.856.355zM52.929 48.627a1.213 1.213 0 00-1.211 1.211c0 .319.128.63.355.856.225.226.536.355.856.355a1.214 1.214 0 001.21-1.21 1.215 1.215 0 00-1.21-1.212z"/></g><defs><clipPath id="mclip0"><path fill="#fff" d="M0 0h62v62H0z"/></clipPath></defs></svg></svg>