<svg width="67" height="67" viewBox="0 0 67 67" fill="none" xmlns="http://www.w3.org/2000/svg">
<circle cx="33.5" cy="33.5" r="32.5" stroke="#F93684" stroke-width="2"/>
<g clip-path="url(#clip0)">
<path d="M59.9836 15.7568C59.8284 15.7373 56.1616 15.306 53.832 17.3626C52.8061 18.2681 52.2071 19.4907 52.045 21.0048C50.2572 21.1174 48.5198 21.6425 46.9688 22.5389C45.1899 23.5654 43.6968 25.0511 42.531 26.9552C41.1909 29.1444 40.286 31.8937 39.8376 35.1351C38.6903 35.4019 37.5896 35.8393 36.5721 36.4328C34.8364 37.4294 33.4632 38.953 32.6517 40.7826C31.6303 37.7147 30.1251 32.8201 30.1251 30.625V28.7939C32.264 27.8144 34.012 26.145 35.089 24.0535C36.166 21.962 36.5096 19.5694 36.0646 17.2593C35.6197 14.9493 34.412 12.8555 32.6352 11.3136C30.8584 9.77177 28.6153 8.87114 26.2656 8.7561C23.9159 8.64106 21.5956 9.31828 19.6767 10.6792C17.7578 12.0401 16.3514 14.0059 15.6829 16.2615C15.0144 18.517 15.1226 20.9317 15.9902 23.1184C16.8577 25.3052 18.4343 27.1373 20.4673 28.3211L19.631 37.5195C19.5157 38.2922 17.9765 49.1865 22.2947 55.4646L22.5934 57.2537C22.7572 58.2753 23.2801 59.2049 24.068 59.8754C24.856 60.5459 25.8573 60.9133 26.8919 60.9116C27.1019 60.9117 27.3117 60.897 27.5197 60.8678C34.5357 59.8809 50.1127 56.5005 52.5514 45.8194C53.2421 46.8995 54.0067 47.9306 54.8397 48.9053C56.2429 50.5481 58.2493 52.5 59.8591 52.5H59.8878C60.1176 52.4966 60.337 52.403 60.4983 52.2393C60.6597 52.0755 60.7501 51.8549 60.7501 51.625L65 42L66 29.1149L63 20L60.7501 16.625C60.7501 16.4117 60.6722 16.2058 60.531 16.0459C60.3899 15.886 60.1952 15.7832 59.9836 15.7568ZM17.0001 19.25C17.0001 17.5194 17.5133 15.8277 18.4747 14.3887C19.4362 12.9498 20.8028 11.8283 22.4016 11.166C24.0005 10.5038 25.7598 10.3305 27.4571 10.6681C29.1545 11.0057 30.7136 11.8391 31.9373 13.0628C33.161 14.2865 33.9943 15.8456 34.332 17.5429C34.6696 19.2403 34.4963 20.9996 33.834 22.5985C33.1718 24.1973 32.0503 25.5639 30.6113 26.5253C29.1724 27.4868 27.4807 28 25.7501 28C23.4303 27.9973 21.2062 27.0746 19.5658 25.4343C17.9254 23.7939 17.0027 21.5698 17.0001 19.25ZM59.0001 50.4052C58.3001 49.9677 57.3133 49.1068 56.1698 47.7682C54.6486 45.9874 53.3084 43.9105 52.8288 42.5927C52.6569 42.0298 50.7235 35.9664 46.9623 35.0261C46.7378 34.9717 46.5009 35.0083 46.3033 35.1278C46.1056 35.2474 45.9633 35.4402 45.9073 35.6643C45.8513 35.8884 45.8861 36.1255 46.0043 36.324C46.1224 36.5225 46.3142 36.6662 46.5379 36.7238C48.9381 37.324 50.6223 41.3387 51.1225 42.993C51.0093 54.5461 34.4218 58.1293 27.2753 59.1344C26.5965 59.234 25.9058 59.0624 25.3527 58.6566C24.7995 58.2507 24.4284 57.6435 24.3196 56.9661L23.9882 54.9809C23.9662 54.8495 23.9146 54.7248 23.8371 54.6164C21.71 51.6383 21.146 47.2445 21.0475 44.0825C20.9812 41.9692 21.0873 39.854 21.3647 37.758C21.3675 37.7401 21.3696 37.7222 21.3713 37.7042L22.1521 29.1149C24.1483 29.8419 26.3178 29.9474 28.3751 29.4177V30.625C28.3751 34.0302 31.4022 42.5869 31.8713 43.8922C31.8464 44.5446 31.6604 47.3065 30.2721 49.3891C30.2076 49.4847 30.1627 49.5921 30.1398 49.7051C30.117 49.8181 30.1167 49.9346 30.139 50.0477C30.1613 50.1608 30.2058 50.2684 30.2698 50.3643C30.3338 50.4602 30.4162 50.5425 30.5121 50.6064C30.608 50.6704 30.7156 50.7148 30.8288 50.737C30.9419 50.7592 31.0583 50.7589 31.1713 50.736C31.2843 50.7131 31.3917 50.6681 31.4872 50.6035C31.5828 50.539 31.6646 50.4562 31.7281 50.3599C33.4527 47.7729 33.6093 44.3561 33.6236 43.8232C33.9554 41.2427 35.2278 39.2739 37.4069 37.9724C38.4313 37.3624 39.5588 36.9457 40.7336 36.7428C40.9277 36.7185 41.1081 36.6299 41.2459 36.4911C41.3838 36.3524 41.4711 36.1714 41.4941 35.9771C41.8749 32.7405 42.7142 30.0318 43.9887 27.9264C44.9879 26.2756 46.2581 24.9886 47.7641 24.101C50.3454 22.5798 52.7814 22.7447 52.8025 22.7468C52.9231 22.7569 53.0444 22.7418 53.1589 22.7025C53.2734 22.6633 53.3785 22.6007 53.4675 22.5188C53.5566 22.4368 53.6277 22.3373 53.6763 22.2265C53.7249 22.1157 53.7501 21.996 53.7501 21.875C53.7501 20.461 54.1539 19.4156 54.9848 18.6792C56.175 17.6242 57.9746 17.4577 58.9929 17.4577H59.0001L62.5 19.25L64.7383 25.2815L65.7373 32.5L64.7383 42.5927L61.1422 50.737L59.0001 50.4052Z" fill="#F93684"/>
<path d="M30 19.5C30 18.61 29.7361 17.74 29.2416 16.9999C28.7471 16.2599 28.0443 15.6831 27.2221 15.3425C26.3998 15.0019 25.495 14.9128 24.6221 15.0865C23.7492 15.2601 22.9474 15.6887 22.318 16.318C21.6887 16.9474 21.2601 17.7492 21.0865 18.6221C20.9128 19.495 21.0019 20.3998 21.3425 21.2221C21.6831 22.0443 22.2599 22.7471 22.9999 23.2416C23.74 23.7361 24.61 24 25.5 24C26.6931 23.9987 27.8369 23.5241 28.6805 22.6805C29.5241 21.8369 29.9987 20.6931 30 19.5ZM22.2857 19.5C22.2857 18.8643 22.4742 18.2428 22.8274 17.7142C23.1806 17.1857 23.6826 16.7737 24.2699 16.5304C24.8573 16.2871 25.5036 16.2235 26.1271 16.3475C26.7506 16.4715 27.3233 16.7776 27.7728 17.2272C28.2224 17.6767 28.5285 18.2494 28.6525 18.8729C28.7765 19.4964 28.7129 20.1427 28.4696 20.7301C28.2263 21.3174 27.8143 21.8194 27.2858 22.1726C26.7572 22.5258 26.1357 22.7143 25.5 22.7143C24.6478 22.7133 23.8308 22.3744 23.2282 21.7718C22.6256 21.1692 22.2867 20.3522 22.2857 19.5Z" fill="#F93684"/>
</g>
<defs>
<clipPath id="clip0">
<rect width="56" height="56" fill="white" transform="translate(10 7)"/>
</clipPath>
</defs>
</svg>
