<svg width="70" height="67" viewBox="0 0 70 67" fill="none" xmlns="http://www.w3.org/2000/svg">
<circle cx="33.5" cy="33.5" r="32.5" stroke="#F93684" stroke-width="2"/>
<g clip-path="url(#clip0)">
<path d="M52.8341 38.9033C52.4286 38.9375 52.0995 39.2458 52.0389 39.6481C51.5929 42.6044 50.0831 44.9176 48.7417 46.4533C49.4594 43.5084 49.6205 40.5736 49.2196 37.6935C48.7347 34.2105 47.3937 30.8146 45.3417 27.8731C41.0798 21.7639 39.6217 16.7071 39.1491 13.5408C38.6387 10.1224 39.1359 8.11405 39.1402 8.0974C39.3566 7.27702 38.3406 6.65212 37.706 7.21654C31.6681 12.5874 28.9999 18.2583 27.8249 22.0698C27.4583 23.2589 27.2095 24.3434 27.0411 25.2889C24.2398 20.8104 18.5463 18.9658 18.2484 18.8719C17.4982 18.6353 16.8273 19.4784 17.227 20.1565C19.91 24.7093 18.7536 28.1929 17.0929 31.954C16.6349 32.9911 18.2432 33.701 18.7011 32.6642C20.24 29.1793 21.4538 25.6787 19.8 21.4248C22.252 22.6383 26.076 25.1633 26.7171 29.3164C26.8827 30.3885 28.53 30.2108 28.4632 29.128C28.4568 29.0266 27.9831 19.4294 37.1563 10.1583C37.0733 13.5878 37.9098 20.2925 43.8999 28.879C46.2833 32.2953 49.7384 39.4559 46.1012 49.0273C45.8032 49.8112 46.7249 50.5389 47.4182 50.0655C47.5968 49.9435 51.0536 47.5415 52.8569 43.1985C52.9644 43.8157 53.0387 44.443 53.0387 44.9979C53.0387 56.1604 43.964 65.2419 32.8098 65.2419C27.2975 65.2419 22.1485 63.0186 18.683 59.1424C15.345 55.4089 13.8255 50.5134 14.4042 45.3578C14.7369 42.3943 15.5818 39.9073 16.2656 38.1765C16.3338 38.0039 18.6368 32.8214 18.7011 32.6642C19.1302 31.6149 17.5034 30.9494 17.074 31.9987C16.9885 32.2076 14.6629 37.447 14.5712 37.6815C13.8594 39.5032 13.003 42.0814 12.6572 45.1616C12.022 50.8213 13.6965 56.2026 17.3723 60.3143C21.171 64.5631 26.7977 67 32.8098 67C44.9334 67 54.7967 57.1299 54.7967 44.998C54.7967 42.7298 53.7858 39.635 53.743 39.5043C53.6156 39.1178 53.2411 38.8705 52.8341 38.9033Z" fill="#F93684"/>
<path d="M57.8132 24.7387H55.1789V22.1045C55.1789 21.6189 54.7855 21.2255 54.2999 21.2255C53.8144 21.2255 53.4209 21.6189 53.4209 22.1045V24.7387H50.7868C49.6531 24.7387 49.6531 26.4967 50.7868 26.4967H53.4209V29.1308C53.4209 30.2645 55.1789 30.2645 55.1789 29.1308V26.4967H57.8132C58.9468 26.4967 58.9468 24.7387 57.8132 24.7387Z" fill="#F93684"/>
<path d="M37.252 52.3806C37.8293 53.3566 39.3422 52.4607 38.7648 51.4851C37.248 48.9226 33.8757 43.2926 33.8154 43.206C33.4727 42.7145 32.7159 42.7143 32.3731 43.206C31.7085 44.1597 25.8799 52.628 25.8799 56.2972C25.8799 60.2751 29.1162 63.5115 33.0943 63.5115C37.0723 63.5115 40.3086 60.2752 40.3086 56.2972C40.3086 55.2021 39.8267 53.6711 38.8353 51.6165C38.3425 50.5956 36.7594 51.3596 37.252 52.3806C38.3254 54.6049 38.5507 55.7381 38.5507 56.2972C38.5507 59.3059 36.103 61.7536 33.0943 61.7536C30.0855 61.7536 27.6379 59.3059 27.6379 56.2972C27.6379 53.9714 31.0929 48.2863 33.0924 45.2763C33.6542 46.1243 36.4155 50.9675 37.252 52.3806Z" fill="#F93684"/>
</g>
<defs>
<clipPath id="clip0">
<rect width="60" height="60" fill="white" transform="translate(10 7)"/>
</clipPath>
</defs>
</svg>
