<svg width="34" height="34" viewBox="0 0 34 34" fill="none" xmlns="http://www.w3.org/2000/svg">
<g clip-path="url(#clip0)">
<path d="M17 17C12.3132 17 8.5 13.1869 8.5 8.49997C8.5 3.81309 12.3132 0 17 0C21.6869 0 25.5001 3.81315 25.5001 8.50003C25.5001 13.1869 21.6869 17 17 17ZM17 2.12502C13.4847 2.12502 10.625 4.98461 10.625 8.50003C10.625 12.0155 13.4846 14.875 17 14.875C20.5155 14.875 23.375 12.0154 23.375 8.50003C23.375 4.98467 20.5154 2.12502 17 2.12502Z" fill="#1E0648"/>
<path d="M30.8125 34.0002H3.18751C2.60021 34.0002 2.125 33.525 2.125 32.9377V25.6237C2.125 24.5259 2.68633 23.4945 3.58906 22.93C11.5682 17.9527 22.4391 17.9537 30.41 22.929C31.3137 23.4945 31.8751 24.5259 31.8751 25.6236V32.9376C31.8751 33.525 31.3999 34.0002 30.8125 34.0002ZM4.25002 31.8752H29.7501V25.6237C29.7501 25.2533 29.5716 24.9108 29.2842 24.7314C21.9888 20.1774 12.0164 20.1742 4.71493 24.7324C4.42856 24.9109 4.25008 25.2533 4.25008 25.6237L4.25002 31.8752Z" fill="#1E0648"/>
</g>
<defs>
<clipPath id="clip0">
<rect width="34" height="34" fill="white"/>
</clipPath>
</defs>
</svg>
