<svg width="140" height="20" viewBox="0 0 140 20" fill="none" xmlns="http://www.w3.org/2000/svg">
<g clip-path="url(#clip0)">
<path d="M19.9713 7.70552C19.9024 7.49337 19.7191 7.33876 19.4984 7.30673L13.2983 6.40576L10.5254 0.787538C10.4268 0.587539 10.223 0.460938 10 0.460938C9.77699 0.460938 9.57332 0.587539 9.47461 0.787538L6.70165 6.40576L0.501673 7.30673C0.281009 7.33876 0.0976117 7.49337 0.0287057 7.70548C-0.0402394 7.91763 0.0172604 8.15048 0.176986 8.30614L4.66322 12.6793L3.60432 18.8544C3.56658 19.0743 3.65697 19.2964 3.8374 19.4275C3.93947 19.5016 4.06037 19.5394 4.18185 19.5394C4.27513 19.5394 4.36873 19.5172 4.45443 19.4721L10 16.5565L15.5453 19.472C15.7428 19.5758 15.982 19.5586 16.1624 19.4275C16.3428 19.2964 16.4333 19.0742 16.3956 18.8543L15.3363 12.6793L19.823 8.3061C19.9827 8.15048 20.0403 7.91763 19.9713 7.70552Z" fill="#FAEF25"/>
</g>
<g clip-path="url(#clip1)">
<path d="M79.9713 7.70552C79.9024 7.49337 79.7191 7.33876 79.4984 7.30673L73.2983 6.40576L70.5254 0.787538C70.4268 0.587539 70.223 0.460938 70 0.460938C69.777 0.460938 69.5733 0.587539 69.4746 0.787538L66.7016 6.40576L60.5017 7.30673C60.281 7.33876 60.0976 7.49337 60.0287 7.70548C59.9598 7.91763 60.0173 8.15048 60.177 8.30614L64.6632 12.6793L63.6043 18.8544C63.5666 19.0743 63.657 19.2964 63.8374 19.4275C63.9395 19.5016 64.0604 19.5394 64.1819 19.5394C64.2751 19.5394 64.3687 19.5172 64.4544 19.4721L70 16.5565L75.5453 19.472C75.7428 19.5758 75.982 19.5586 76.1624 19.4275C76.3428 19.2964 76.4333 19.0742 76.3956 18.8543L75.3363 12.6793L79.823 8.3061C79.9827 8.15048 80.0403 7.91763 79.9713 7.70552Z" fill="#FAEF25"/>
</g>
<g clip-path="url(#clip2)">
<path d="M49.9713 7.70552C49.9024 7.49337 49.7191 7.33876 49.4984 7.30673L43.2983 6.40576L40.5254 0.787538C40.4268 0.587539 40.223 0.460938 40 0.460938C39.777 0.460938 39.5733 0.587539 39.4746 0.787538L36.7016 6.40576L30.5017 7.30673C30.281 7.33876 30.0976 7.49337 30.0287 7.70548C29.9598 7.91763 30.0173 8.15048 30.177 8.30614L34.6632 12.6793L33.6043 18.8544C33.5666 19.0743 33.657 19.2964 33.8374 19.4275C33.9395 19.5016 34.0604 19.5394 34.1819 19.5394C34.2751 19.5394 34.3687 19.5172 34.4544 19.4721L40 16.5565L45.5453 19.472C45.7428 19.5758 45.982 19.5586 46.1624 19.4275C46.3428 19.2964 46.4333 19.0742 46.3956 18.8543L45.3363 12.6793L49.823 8.3061C49.9827 8.15048 50.0403 7.91763 49.9713 7.70552Z" fill="#FAEF25"/>
</g>
<g clip-path="url(#clip3)">
<path d="M109.971 7.70552C109.902 7.49337 109.719 7.33876 109.498 7.30673L103.298 6.40576L100.525 0.787538C100.427 0.587539 100.223 0.460938 100 0.460938C99.777 0.460938 99.5733 0.587539 99.4746 0.787538L96.7016 6.40576L90.5017 7.30673C90.281 7.33876 90.0976 7.49337 90.0287 7.70548C89.9598 7.91763 90.0173 8.15048 90.177 8.30614L94.6632 12.6793L93.6043 18.8544C93.5666 19.0743 93.657 19.2964 93.8374 19.4275C93.9395 19.5016 94.0604 19.5394 94.1819 19.5394C94.2751 19.5394 94.3687 19.5172 94.4544 19.4721L100 16.5565L105.545 19.472C105.743 19.5758 105.982 19.5586 106.162 19.4275C106.343 19.2964 106.433 19.0742 106.396 18.8543L105.336 12.6793L109.823 8.3061C109.983 8.15048 110.04 7.91763 109.971 7.70552Z" fill="#FAEF25"/>
</g>
<g clip-path="url(#clip4)">
<path d="M139.971 7.70552C139.902 7.49337 139.719 7.33876 139.498 7.30673L133.298 6.40576L130.525 0.787538C130.427 0.587539 130.223 0.460938 130 0.460938C129.777 0.460938 129.573 0.587539 129.475 0.787538L126.702 6.40576L120.502 7.30673C120.281 7.33876 120.098 7.49337 120.029 7.70548C119.96 7.91763 120.017 8.15048 120.177 8.30614L124.663 12.6793L123.604 18.8544C123.567 19.0743 123.657 19.2964 123.837 19.4275C123.939 19.5016 124.06 19.5394 124.182 19.5394C124.275 19.5394 124.369 19.5172 124.454 19.4721L130 16.5565L135.545 19.472C135.743 19.5758 135.982 19.5586 136.162 19.4275C136.343 19.2964 136.433 19.0742 136.396 18.8543L135.336 12.6793L139.823 8.3061C139.983 8.15048 140.04 7.91763 139.971 7.70552Z" fill="#FAEF25"/>
</g>
<defs>
<clipPath id="clip0">
<rect width="20" height="20" fill="white"/>
</clipPath>
<clipPath id="clip1">
<rect width="20" height="20" fill="white" transform="translate(60)"/>
</clipPath>
<clipPath id="clip2">
<rect width="20" height="20" fill="white" transform="translate(30)"/>
</clipPath>
<clipPath id="clip3">
<rect width="20" height="20" fill="white" transform="translate(90)"/>
</clipPath>
<clipPath id="clip4">
<rect width="20" height="20" fill="white" transform="translate(120)"/>
</clipPath>
</defs>
</svg>
