<svg width="108" height="108" viewBox="0 0 108 108" fill="none" xmlns="http://www.w3.org/2000/svg">
<circle cx="54" cy="54" r="54" fill="#2B2B2B"/>
<path d="M79.7998 51.1129L78.246 44.8979C78.6708 44.8076 78.9895 44.4308 78.9895 43.9792V42.9772C78.9895 40.8015 77.2194 39.0315 75.0438 39.0315H67.9666V36.9645C67.9666 35.8939 67.0957 35.0229 66.0251 35.0229H29.9498C28.8792 35.0229 28.0083 35.8939 28.0083 36.9645V54.0001C28.0083 54.5188 28.4289 54.9396 28.9478 54.9396C29.4666 54.9396 29.8873 54.519 29.8873 54.0001V36.9645C29.8873 36.9299 29.9153 36.9019 29.9498 36.9019H66.025C66.0595 36.9019 66.0875 36.9299 66.0875 36.9645V54.0003C66.0875 54.5191 66.5081 54.9398 67.027 54.9398C67.5458 54.9398 67.9665 54.5192 67.9665 54.0003V52.9353H79.0488C79.0498 52.9353 79.0505 52.9355 79.0513 52.9355C79.0522 52.9355 79.053 52.9354 79.0539 52.9354C80.4176 52.9363 81.5755 53.8314 81.9732 55.0648H79.052C78.5332 55.0648 78.1125 55.4854 78.1125 56.0043V58.0085C78.1125 59.6316 79.433 60.9521 81.0561 60.9521H82.1209V65.0856H79.6644C78.8575 62.7556 76.6425 61.0772 74.0415 61.0772C71.4405 61.0772 69.2255 62.7556 68.4186 65.0856H67.9663V58.0083C67.9663 57.4896 67.5457 57.0688 67.0268 57.0688C66.508 57.0688 66.0873 57.4894 66.0873 58.0083V65.0854H46.5957C45.7888 62.7554 43.5738 61.077 40.9729 61.077C38.3719 61.077 36.1568 62.7554 35.35 65.0854H29.9498C29.9153 65.0854 29.8873 65.0574 29.8873 65.0228V62.956H33.9582C34.477 62.956 34.8977 62.5354 34.8977 62.0165C34.8977 61.4976 34.4771 61.077 33.9582 61.077H24.9395C24.4207 61.077 24 61.4976 24 62.0165C24 62.5354 24.4206 62.956 24.9395 62.956H28.0084V65.0228C28.0084 66.0935 28.8793 66.9644 29.95 66.9644H35.0246C35.0244 66.9853 35.023 67.006 35.023 67.027C35.023 70.3078 37.6922 72.9768 40.9729 72.9768C44.2535 72.9768 46.9227 70.3078 46.9227 67.027C46.9227 67.0059 46.9213 66.9853 46.9211 66.9644H68.0933C68.0931 66.9853 68.0917 67.006 68.0917 67.027C68.0917 70.3078 70.7609 72.9768 74.0415 72.9768C77.3222 72.9768 79.9914 70.3078 79.9914 67.027C79.9914 67.0059 79.99 66.9853 79.9897 66.9644H83.0604C83.5792 66.9644 83.9999 66.5438 83.9999 66.0249V56.0041C84 53.53 82.1746 51.4744 79.7998 51.1129ZM67.9666 40.9103H75.0438C76.1835 40.9103 77.1107 41.8375 77.1107 42.9772V43.0397H67.9666V40.9103ZM67.9666 51.0564V44.9186H76.3145L77.8489 51.0564H67.9666ZM40.9729 71.0982C38.7281 71.0982 36.9019 69.2721 36.9019 67.0272C36.9019 64.7824 38.7281 62.9562 40.9729 62.9562C43.2176 62.9562 45.0438 64.7824 45.0438 67.0272C45.0438 69.2721 43.2176 71.0982 40.9729 71.0982ZM74.0418 71.0982C71.797 71.0982 69.9708 69.2721 69.9708 67.0272C69.9708 64.7824 71.797 62.9562 74.0418 62.9562C76.2865 62.9562 78.1127 64.7824 78.1127 67.0272C78.1127 69.2721 76.2865 71.0982 74.0418 71.0982ZM82.1211 59.0731H81.0564C80.4693 59.0731 79.9916 58.5955 79.9916 58.0083V56.9436H82.121V59.0731H82.1211Z" fill="white"/>
<path d="M40.9728 65.0854C39.9021 65.0854 39.0312 65.9564 39.0312 67.027C39.0312 68.0976 39.9021 68.9686 40.9728 68.9686C42.0434 68.9686 42.9143 68.0976 42.9143 67.027C42.9143 65.9564 42.0434 65.0854 40.9728 65.0854Z" fill="white"/>
<path d="M74.0417 65.0854C72.971 65.0854 72.1001 65.9564 72.1001 67.027C72.1001 68.0976 72.971 68.9686 74.0417 68.9686C75.1123 68.9686 75.9832 68.0976 75.9832 67.027C75.9832 65.9564 75.1123 65.0854 74.0417 65.0854Z" fill="white"/>
<path d="M63.0187 61.0771H48.9895C48.4707 61.0771 48.05 61.4977 48.05 62.0166C48.05 62.5355 48.4706 62.9561 48.9895 62.9561H63.0187C63.5375 62.9561 63.9582 62.5355 63.9582 62.0166C63.9582 61.4977 63.5376 61.0771 63.0187 61.0771Z" fill="white"/>
<path d="M38.9687 57.0688H26.9436C26.4248 57.0688 26.0041 57.4894 26.0041 58.0083C26.0041 58.5272 26.4247 58.9478 26.9436 58.9478H38.9687C39.4874 58.9478 39.9081 58.5272 39.9081 58.0083C39.9081 57.4894 39.4874 57.0688 38.9687 57.0688Z" fill="white"/>
<path d="M56.6686 44.3171C56.3018 43.9503 55.7069 43.9503 55.3401 44.3172L46.9855 52.6716L42.6394 48.3255C42.2725 47.9586 41.6776 47.9586 41.3108 48.3255C40.9439 48.6924 40.9439 49.2871 41.3108 49.654L46.3213 54.6645C46.5047 54.848 46.7452 54.9396 46.9855 54.9396C47.2259 54.9396 47.4665 54.848 47.6497 54.6645L56.6685 45.6457C57.0354 45.2787 57.0354 44.684 56.6686 44.3171Z" fill="white"/>
</svg>
