<svg width="20" height="19" viewBox="0 0 20 19" fill="none" xmlns="http://www.w3.org/2000/svg">
<path fill-rule="evenodd" clip-rule="evenodd" d="M11.1098 6.02377C10.7875 6.31774 10.3568 6.46059 9.92422 6.41699C9.10796 6.33473 6.34 6.68193 3.91235 9.40032C3.12382 10.2833 2.53133 11.6489 2.13422 13.2791C1.90304 14.2281 1.75001 15.2168 1.65585 16.1657C2.40129 15.3086 3.24721 14.4298 4.12605 13.7339C6.59965 11.7753 9.10912 11.4741 10.3303 11.6792C11.0722 11.8038 11.616 12.4507 11.616 13.2088V15.8616L18.3069 9.11856L11.616 2.12582V4.87405C11.616 5.31215 11.4321 5.7298 11.1098 6.02377ZM9.25965 4.87405C7.69665 4.99683 5.06516 5.79147 2.76867 8.36299C0.70445 10.6744 0.078982 14.9598 0.000454284 18.0093C-0.0252913 19.009 1.04938 19.3518 1.66938 18.5709C2.62339 17.3694 3.8373 15.9346 5.07666 14.9532C6.33986 13.953 7.57659 13.4815 8.53866 13.2887C8.71651 13.2531 8.88497 13.2269 9.04248 13.2088C9.48592 13.1576 9.84253 13.1693 10.0773 13.2088V16.7975C10.0773 17.8336 11.3203 18.3524 12.0473 17.6198L19.662 9.94586C20.1069 9.49751 20.1134 8.77266 19.6767 8.31624L12.062 0.358054C11.3413 -0.395142 10.0773 0.118989 10.0773 1.16532V4.87405C9.85829 4.85197 9.58164 4.84875 9.25965 4.87405Z" fill="#616266"/>
</svg>
