<svg width="100" height="100" viewBox="0 0 100 100" fill="none" xmlns="http://www.w3.org/2000/svg">
<circle cx="50" cy="50" r="50" fill="#9F2F75"/>
<path d="M71.1683 63.7373L60.5789 59.8866C59.2069 59.3875 58.007 58.5049 57.1219 57.3438C56.2368 56.1828 55.7037 54.792 55.5858 53.3368C56.3501 52.6691 57.049 51.9302 57.673 51.1299C57.8809 50.8644 58.0814 50.5919 58.2745 50.3125H62.8438C63.2369 50.3125 63.6205 50.1909 63.9418 49.9645C64.2632 49.738 64.5067 49.4177 64.639 49.0474C64.8501 48.4562 69.7406 34.4723 63.7498 25.9715C60.8698 21.8847 56.0754 19.8125 49.5 19.8125C42.9246 19.8125 38.1302 21.8847 35.2502 25.9715C29.2595 34.4723 34.1499 48.4563 34.361 49.0474C34.4933 49.4177 34.7368 49.738 35.0582 49.9645C35.3795 50.1909 35.7631 50.3125 36.1562 50.3125H40.7255C40.9191 50.5913 41.1196 50.8638 41.327 51.1299C41.951 51.9302 42.6499 52.6691 43.4142 53.3368C43.2963 54.792 42.7632 56.1828 41.8781 57.3438C40.993 58.5049 39.7931 59.3875 38.4211 59.8866L27.8317 63.7373C26.3608 64.2722 25.09 65.2468 24.1921 66.5288C23.2942 67.8108 22.8125 69.3381 22.8125 70.9033V73.1875H76.1875V70.9033C76.1875 69.3381 75.7058 67.8108 74.8079 66.5288C73.91 65.2468 72.6392 64.2722 71.1683 63.7373V63.7373ZM48.5475 27.4787C48.5475 27.4787 49.5 35.0625 56.1718 35.0625C56.6521 35.0621 57.1144 35.2457 57.4635 35.5755C57.8127 35.9054 58.0222 36.3565 58.0491 36.836C58.0684 37.189 58.0781 37.551 58.0781 37.9219C58.0781 43.2979 56.2251 46.794 54.6707 48.7802C52.8218 51.1427 50.6943 52.2188 49.5 52.2188C48.3057 52.2188 46.1782 51.1427 44.3293 48.7802C42.7749 46.794 40.9219 43.2979 40.9219 37.9219C40.9219 36.3567 42.203 35.0625 43.7681 35.0625H44.7344C48.3847 35.0625 48.5474 27.4787 48.5474 27.4787L48.5475 27.4787ZM26.9468 69.375C27.1539 68.9026 27.4546 68.477 27.8305 68.1239C28.2065 67.7708 28.6501 67.4974 29.1346 67.3203L39.724 63.4696C43.332 62.1576 45.9827 59.1076 46.9007 55.5053C47.7868 55.8484 48.6656 56.0312 49.5 56.0312C50.3344 56.0312 51.2132 55.8485 52.0993 55.5053C53.0173 59.1076 55.6681 62.1576 59.276 63.4696L69.8654 67.3202C70.3498 67.4974 70.7934 67.7707 71.1694 68.1239C71.5454 68.477 71.8461 68.9026 72.0532 69.375H26.9468Z" fill="white"/>
</svg>
