<?xml version="1.0" encoding="utf-8"?><svg viewBox="0 0 42 42" xmlns="http://www.w3.org/2000/svg" xmlns:xlink="http://www.w3.org/1999/xlink"><style>:root>svg{display:none}:root>svg:target{display:block}</style><svg viewBox="0 0 40 40" fill="none" id="baby" xmlns="http://www.w3.org/2000/svg"><path d="M17.137 22.18a3.866 3.866 0 00-3.861-3.862 3.866 3.866 0 00-3.862 3.862h2.344c0-.837.68-1.518 1.518-1.518.837 0 1.518.68 1.518 1.518h2.343zM26.724 18.318a3.866 3.866 0 00-3.861 3.862h2.343c0-.837.681-1.518 1.518-1.518s1.518.68 1.518 1.518h2.344a3.866 3.866 0 00-3.862-3.862zM20 29.038a4.229 4.229 0 01-3.626-2.074l-2.019 1.19A6.582 6.582 0 0020 31.382a6.582 6.582 0 005.644-3.226l-2.018-1.191A4.229 4.229 0 0120 29.038z" fill="#fff"/><path d="M38.475 18.029a5.18 5.18 0 00-2.701-1.432C33.577 9.807 27.204 5.133 20 5.133h-.786a3.426 3.426 0 01-3.422-3.422H13.45c0 1.28.42 2.464 1.128 3.422h-.742a3.426 3.426 0 01-3.422-3.422H8.069a5.774 5.774 0 003.954 5.472 16.58 16.58 0 00-7.797 9.414 5.181 5.181 0 00-2.702 1.433A5.175 5.175 0 000 21.71c0 1.374.53 2.67 1.491 3.648a5.174 5.174 0 002.735 1.467c2.197 6.79 8.57 11.464 15.774 11.464 7.203 0 13.577-4.675 15.774-11.464a5.174 5.174 0 002.734-1.466A5.175 5.175 0 0040 21.71c0-1.39-.541-2.697-1.525-3.682zm-3.625 6.543l-.879.017-.23.849C32.068 31.624 26.418 35.945 20 35.945c-6.418 0-12.068-4.32-13.741-10.507l-.23-.85-.88-.016a2.875 2.875 0 01-2.805-2.861c0-.765.297-1.484.837-2.024a2.847 2.847 0 011.968-.837l.88-.017.23-.849C7.931 11.797 13.582 7.477 20 7.477a3.846 3.846 0 013.841 3.841A3.846 3.846 0 0120 15.16a3.846 3.846 0 01-3.841-3.842h-2.344A6.192 6.192 0 0020 17.503a6.192 6.192 0 006.185-6.185c0-.97-.225-1.89-.625-2.707 3.93 1.672 7.018 5.07 8.181 9.373l.23.85.88.016a2.847 2.847 0 011.967.836c.54.541.838 1.26.838 2.025a2.875 2.875 0 01-2.806 2.861z" fill="#fff"/></svg><svg viewBox="0 0 42 42" fill="none" id="eye" xmlns="http://www.w3.org/2000/svg"><path d="M21 26.17a5.172 5.172 0 100-10.343 5.172 5.172 0 000 10.344z" fill="#fff"/><path d="M41.74 20.344c-.38-.401-9.39-9.847-20.743-9.847-11.351 0-20.36 9.446-20.738 9.847a.957.957 0 000 1.308c.379.4 9.388 9.851 20.738 9.851 11.353 0 20.367-9.45 20.743-9.851a.952.952 0 000-1.308zM21 28.994c-4.407 0-7.993-3.586-7.993-7.997 0-4.407 3.586-7.995 7.993-7.995s7.997 3.587 7.997 7.995c0 4.408-3.59 7.997-7.997 7.997zM14.662 13.45c-2.16 1.817-3.565 4.508-3.565 7.547 0 3.038 1.405 5.73 3.565 7.55-5.977-1.922-10.67-5.966-12.347-7.55 1.677-1.581 6.372-5.626 12.347-7.547zm12.679 15.094c2.158-1.819 3.565-4.51 3.565-7.547 0-3.036-1.405-5.726-3.567-7.545 5.976 1.922 10.666 5.962 12.345 7.545-1.68 1.582-6.369 5.622-12.343 7.547z" fill="#fff"/></svg><svg viewBox="0 0 39 39" fill="none" id="neuron" xmlns="http://www.w3.org/2000/svg"><g clip-path="url(#cclip0)" fill="#fff"><path d="M37.86 33.667l-2.263-.004a7.745 7.745 0 002.268-5.48 1.143 1.143 0 00-2.285 0 5.49 5.49 0 01-5.137 5.473l-6.116-.01c-4.475-.007-8.275-2.956-9.567-7.01-.488.26-1.04.405-1.615.405h-.011a3.44 3.44 0 01-.66-.067c1.474 5.157 6.228 8.948 11.85 8.957l6.45.038c.505 0 .903.168 1.255.53.366.375.51.76.496 1.33a1.143 1.143 0 102.284.057c.018-.72-.113-1.362-.397-1.94l3.444.006h.002a1.143 1.143 0 00.001-2.285zM14.288 13.71a1.144 1.144 0 00-2.285 0c0 .63.512 1.143 1.142 1.143.63 0 1.143-.512 1.143-1.142z"/><path d="M13.144 24.756c.421 0 .808-.232 1.007-.602l1.089-2.029c.815-1.518 2.305-2.409 4.012-2.409.062 0 2.056.074 2.056.074a1.295 1.295 0 01.143 1.493 1.142 1.142 0 101.979 1.142c.456-.79.59-1.705.385-2.592a3.566 3.566 0 002.052-1.63 1.143 1.143 0 10-1.979-1.142 1.296 1.296 0 01-1.44.606l-.969-1.564c-.94-1.518-.934-3.327.016-4.838l.884-1.407a1.285 1.285 0 011.207.643 1.142 1.142 0 101.98-1.143 3.553 3.553 0 00-2.052-1.63 3.553 3.553 0 00-.386-2.592 1.143 1.143 0 00-1.98 1.143 1.285 1.285 0 01-.04 1.356l-1.725.054c-1.78.054-3.348-.855-4.182-2.433L14.29 3.53a1.295 1.295 0 011.293-1.245 1.143 1.143 0 100-2.285c-.941 0-1.798.366-2.438.961A3.566 3.566 0 0010.707 0a1.143 1.143 0 000 2.285c.696 0 1.263.552 1.292 1.241l-.95 1.77C10.204 6.87 8.63 7.769 6.85 7.703l-1.945-.073a1.295 1.295 0 01-.035-1.35 1.142 1.142 0 10-1.979-1.142 3.566 3.566 0 00-.386 2.591c-.87.266-1.595.84-2.051 1.63a1.142 1.142 0 101.979 1.143c.172-.298.451-.512.786-.602.24-.064.488-.058.719.014l.87 1.405c.94 1.518.935 3.327-.015 4.839L3.9 17.535a1.297 1.297 0 01-1.768-.474 1.143 1.143 0 00-1.98 1.142 3.565 3.565 0 002.052 1.63 3.566 3.566 0 00.386 2.592 1.142 1.142 0 101.979-1.142 1.296 1.296 0 01.133-1.482l2.203-.068c1.781-.054 3.348.854 4.182 2.433l1.047 1.98c.197.374.584.608 1.006.61h.004zM9.717 13.71a3.432 3.432 0 013.427-3.428 3.432 3.432 0 013.428 3.428 3.432 3.432 0 01-3.428 3.428 3.432 3.432 0 01-3.427-3.428z"/></g><defs><clipPath id="cclip0"><path fill="#fff" d="M0 0h39v39H0z"/></clipPath></defs></svg></svg>