<svg>
<path d="M7.34688 1.13473C6.81021 1.00434 6.26945 1.33369 6.13906 1.87037L4.0142 10.6159C3.8838 11.1526 4.21315 11.6934 4.74983 11.8238C5.2865 11.9542 5.82726 11.6248 5.95766 11.0881L7.84642 3.31429L15.6203 5.20305C16.1569 5.33344 16.6977 5.00409 16.8281 4.46742C16.9585 3.93075 16.6291 3.38998 16.0924 3.25959L7.34688 1.13473ZM112.951 56.0472C111.974 56.0677 111.007 56.0829 110.05 56.0928L110.071 58.0926C111.035 58.0827 112.009 58.0674 112.993 58.0467L112.951 56.0472ZM104.307 56.0866C102.353 56.0614 100.441 56.0121 98.5712 55.9389L98.4929 57.9374C100.381 58.0113 102.31 58.061 104.281 58.0865L104.307 56.0866ZM92.8498 55.6315C90.9011 55.4972 88.9999 55.3345 87.1443 55.1435L86.9396 57.133C88.8185 57.3264 90.742 57.491 92.7122 57.6268L92.8498 55.6315ZM81.4438 54.4485C79.5094 54.1741 77.6274 53.8658 75.7949 53.5241L75.4282 55.4902C77.2903 55.8375 79.2009 56.1503 81.1628 56.4287L81.4438 54.4485ZM70.2138 52.3439C68.315 51.8925 66.4724 51.4011 64.6824 50.8699L64.1134 52.7873C65.9397 53.3293 67.8179 53.8301 69.7513 54.2897L70.2138 52.3439ZM59.275 49.0876C57.4534 48.4243 55.6888 47.7146 53.9767 46.9591L53.1692 48.7888C54.9226 49.5626 56.7283 50.2887 58.5906 50.9669L59.275 49.0876ZM48.8525 44.4806C47.1567 43.5849 45.5136 42.6383 43.9179 41.641L42.8579 43.337C44.4946 44.3599 46.1797 45.3307 47.9184 46.2491L48.8525 44.4806ZM39.2023 38.4495C37.6686 37.3285 36.1782 36.1548 34.7256 34.9285L33.4355 36.4568C34.9227 37.7123 36.4498 38.9149 38.0222 40.0641L39.2023 38.4495ZM30.4923 31.1081C29.1329 29.7997 27.8046 28.4405 26.5022 27.0304L25.033 28.3874C26.3606 29.8248 27.7163 31.2122 29.1054 32.5491L30.4923 31.1081ZM22.7356 22.7296C21.5313 21.2825 20.3463 19.7889 19.176 18.249L17.5836 19.4591C18.7705 21.0209 19.9739 22.5376 21.1983 24.0089L22.7356 22.7296ZM15.7978 13.6227C14.7143 12.0814 13.6401 10.499 12.5714 8.87535L10.9008 9.97501C11.9798 11.6141 13.0654 13.2136 14.1617 14.7729L15.7978 13.6227ZM9.4769 4.04063C8.97261 3.23172 8.46873 2.4136 7.96485 1.58629L6.25672 2.62663C6.76402 3.45956 7.27155 4.2836 7.7797 5.0987L9.4769 4.04063ZM7.58298 0.163003C6.50963 -0.0977831 5.42811 0.560928 5.16732 1.63427L0.917601 19.1254C0.656816 20.1987 1.31553 21.2803 2.38887 21.5411C3.46221 21.8018 4.54374 21.1431 4.80452 20.0698L8.58205 4.52211L24.1297 8.29964C25.2031 8.56043 26.2846 7.90172 26.5454 6.82838C26.8062 5.75503 26.1475 4.67351 25.0741 4.41273L7.58298 0.163003ZM112.93 55.0474C111.957 55.0679 110.993 55.083 110.04 55.0928L110.081 59.0926C111.049 59.0826 112.027 59.0673 113.014 59.0465L112.93 55.0474ZM104.32 55.0867C102.374 55.0616 100.471 55.0125 98.6103 54.9396L98.4538 58.9366C100.351 59.0109 102.289 59.0608 104.269 59.0864L104.32 55.0867ZM92.9185 54.6339C90.9806 54.5003 89.0907 54.3385 87.2466 54.1488L86.8373 58.1278C88.7278 58.3223 90.6625 58.4879 92.6434 58.6244L92.9185 54.6339ZM81.5843 53.4584C79.6637 53.1859 77.7959 52.88 75.9783 52.541L75.2449 56.4732C77.1217 56.8233 79.0467 57.1385 81.0224 57.4188L81.5843 53.4584ZM70.4451 51.371C68.5635 50.9237 66.7387 50.437 64.9669 49.9112L63.8289 53.7459C65.6734 54.2933 67.5694 54.7989 69.5201 55.2625L70.4451 51.371ZM59.6172 48.148C57.816 47.4921 56.0719 46.7907 54.3805 46.0442L52.7655 49.7037C54.5395 50.4866 56.3657 51.2209 58.2484 51.9065L59.6172 48.148ZM49.3195 43.5964C47.6452 42.712 46.023 41.7775 44.4479 40.793L42.3279 44.185C43.9851 45.2207 45.6912 46.2036 47.4514 47.1333L49.3195 43.5964ZM39.7924 37.6421C38.278 36.5352 36.8059 35.376 35.3706 34.1644L32.7904 37.2209C34.295 38.4911 35.8404 39.7081 37.4321 40.8715L39.7924 37.6421ZM31.1857 30.3877C29.8412 29.0935 28.5266 27.7483 27.2368 26.3519L24.2984 29.0659C25.6386 30.5169 27.008 31.9184 28.4119 33.2696L31.1857 30.3877ZM23.5042 22.0899C22.31 20.6549 21.1342 19.173 19.9722 17.6439L16.7875 20.0642C17.9826 21.6368 19.1951 23.1652 20.4296 24.6486L23.5042 22.0899ZM16.6159 13.0476C15.5388 11.5154 14.4703 9.94138 13.4067 8.32553L10.0655 10.5248C11.1496 12.1717 12.241 13.7796 13.3436 15.348L16.6159 13.0476ZM10.3255 3.51159C9.82314 2.70578 9.32108 1.89062 8.81891 1.06612L5.40266 3.14681C5.91167 3.98254 6.42101 4.80954 6.9311 5.62774L10.3255 3.51159Z"/>
</svg>
