<svg width="11" height="21" viewBox="0 0 11 21" fill="none" xmlns="http://www.w3.org/2000/svg">
<path d="M10.3458 5.66741C10.6371 5.66741 10.8731 5.41252 10.8731 5.09829V1.4407C10.8731 1.12635 10.6371 0.871582 10.3458 0.871582H6.39166C4.54364 0.871582 3.04014 2.49415 3.04014 4.48858V8.18665H0.856202C0.564932 8.18665 0.328857 8.44143 0.328857 8.75577V12.4132C0.328857 12.7276 0.564932 12.9823 0.856202 12.9823H3.04014V19.7283C3.04014 20.0426 3.27622 20.2974 3.56749 20.2974H6.95662C7.24793 20.2974 7.48397 20.0426 7.48397 19.7283V12.9823H9.66795C9.91938 12.9823 10.1358 12.7908 10.1851 12.5248L10.8628 8.86735C10.8939 8.70019 10.8538 8.52679 10.7535 8.39487C10.6534 8.2631 10.5037 8.18665 10.3458 8.18665H7.48397V5.66741H10.3458ZM6.95662 9.32488H9.70254L9.23563 11.8441H6.95662C6.66535 11.8441 6.42928 12.0989 6.42928 12.4132V19.1592H4.09483V12.4132C4.09483 12.0989 3.85876 11.8441 3.56749 11.8441H1.38355V9.32488H3.56749C3.85876 9.32488 4.09483 9.07011 4.09483 8.75577V4.48858C4.09483 3.12181 5.12523 2.00981 6.39166 2.00981H9.81845V4.52919H6.95662C6.66535 4.52919 6.42928 4.78395 6.42928 5.09829V8.75577C6.42928 9.07011 6.66535 9.32488 6.95662 9.32488Z" fill="white"/>
</svg>
