<svg width="20" height="21" viewBox="0 0 20 21" fill="none" xmlns="http://www.w3.org/2000/svg">
<path d="M14.6538 0.871582H5.6538C3.16853 0.871582 1.15381 3.04589 1.15381 5.72805V15.441C1.15381 18.1231 3.16853 20.2974 5.6538 20.2974H14.6538C17.1391 20.2974 19.1538 18.1231 19.1538 15.441V5.72805C19.1538 3.04589 17.1391 0.871582 14.6538 0.871582Z" stroke="white" stroke-width="1.33333" stroke-linecap="round" stroke-linejoin="round"/>
<path d="M10.1538 14.2278C12.0177 14.2278 13.5288 12.5969 13.5288 10.5851C13.5288 8.57332 12.0177 6.94238 10.1538 6.94238C8.28988 6.94238 6.77881 8.57332 6.77881 10.5851C6.77881 12.5969 8.28988 14.2278 10.1538 14.2278Z" stroke="white" stroke-width="1.33333" stroke-linecap="round" stroke-linejoin="round"/>
<path d="M15.2163 5.12109V5.12209" stroke="white" stroke-width="1.33333" stroke-linecap="round" stroke-linejoin="round"/>
</svg>
