<svg width="23" height="21" viewBox="0 0 23 21" fill="none" xmlns="http://www.w3.org/2000/svg">
<path d="M19.8775 5.71608C20.7785 5.02572 21.5363 4.16401 22.1538 3.1718V3.1708C21.3295 3.56031 20.4526 3.81932 19.5369 3.94485C20.4785 3.33816 21.1975 2.3848 21.5354 1.23619C20.6575 1.80103 19.6883 2.19951 18.6554 2.42266C17.8218 1.46432 16.6338 0.871582 15.3378 0.871582C12.8234 0.871582 10.7991 3.07417 10.7991 5.77386C10.7991 6.16238 10.8295 6.53595 10.9043 6.89159C7.12892 6.69235 3.78738 4.73981 1.54246 1.76417C1.15108 2.49837 0.920307 3.33816 0.920307 4.24171C0.920307 5.93923 1.72985 7.44348 2.93815 8.31516C2.208 8.30021 1.49261 8.07109 0.886154 7.71146V7.76526C0.886154 10.1472 2.46 12.1256 4.52492 12.5819C4.15477 12.6914 3.75231 12.7432 3.33415 12.7432C3.04338 12.7432 2.74985 12.7253 2.47477 12.6596C3.06277 14.6002 4.73354 16.0277 6.71815 16.0745C5.17292 17.3785 3.21046 18.1645 1.08646 18.1645C0.714461 18.1645 0.357231 18.1466 0 18.0978C2.01231 19.4974 4.39569 20.2974 6.96738 20.2974C14.9825 20.2974 20.2061 13.081 19.8775 5.71608Z" fill="white"/>
</svg>
