<svg width="23" height="18" viewBox="0 0 23 18" fill="none" xmlns="http://www.w3.org/2000/svg">
<path d="M15.1947 7.64118L9.9565 5.02188C9.64622 4.86674 9.33629 4.78809 9.03511 4.78809C8.10783 4.78809 7.46021 5.51861 7.46021 6.56465V11.4356C7.46021 12.4817 8.10783 13.2122 9.03511 13.2122C9.33629 13.2122 9.64622 13.1335 9.9565 12.9784L15.1947 10.3593C15.8309 10.0412 16.1956 9.54581 16.1956 9.00005C16.1956 8.45442 15.8309 7.95925 15.1947 7.64118ZM14.6136 9.19716L9.37536 11.8162C9.2158 11.8961 9.10229 11.9129 9.03511 11.9129C8.80743 11.9129 8.75953 11.6533 8.75953 11.4356V6.56465C8.75953 6.34692 8.80743 6.08758 9.03511 6.08758C9.10229 6.08758 9.2158 6.1043 9.37536 6.18399L14.6137 8.80346C14.7753 8.88415 14.8549 8.96012 14.8853 9.00022C14.8549 9.04033 14.7753 9.11625 14.6136 9.19716Z" fill="white"/>
<path d="M19.9397 0H2.543C1.22558 0 0.153809 1.07177 0.153809 2.38919V15.6106C0.153809 16.9281 1.22558 18 2.543 18H19.9397C21.2571 18 22.3289 16.9281 22.3289 15.6106V2.38919C22.3289 1.07177 21.2571 0 19.9397 0ZM21.0296 15.6106C21.0296 16.2116 20.5406 16.7007 19.9397 16.7007H2.543C1.94207 16.7007 1.45313 16.2116 1.45313 15.6106V2.38919C1.45313 1.78826 1.94207 1.29932 2.543 1.29932H19.9397C20.5406 1.29932 21.0296 1.78826 21.0296 2.38919V15.6106Z" fill="white"/>
</svg>
