<svg width="160" height="160" xmlns="http://www.w3.org/2000/svg"><path d="M14.994 89.974c4.204 0 7.611-3.435 7.611-7.674 0-4.239-3.407-7.675-7.611-7.675-4.202 0-7.61 3.436-7.61 7.675s3.408 7.674 7.61 7.674zm0 1.208c-6.157-.027-11.164-4.103-13.815-8.99 2.678-4.86 7.71-8.802 13.815-8.802 6.211 0 11.191 3.915 13.816 8.802-2.625 4.887-7.55 9.017-13.816 8.99zm0-24.002C6.714 67.18 0 73.95 0 82.3s6.713 15.12 14.994 15.12c8.282 0 14.994-6.77 14.994-15.12s-6.712-15.12-14.994-15.12zm23.02 15.061c0-10.964 3.15-14.88 6.862-14.88 5.251 0 8.123 7.903 9.032 10.965V67.718c-.909.712-1.33 1.068-2.309 1.068-.982 0-2.452-.499-3.152-.926-.7-.427-2.1-.784-3.5-.784-4.622 0-12.675 6.195-12.675 15.165 0 10.608 7.142 15.165 12.674 15.165 1.4 0 2.94-.57 3.641-.997.7-.427 2.03-.997 3.012-.997.979 0 1.4.356 2.31 1.068V85.8c-.77 4.13-3.782 11.32-9.033 11.32-1.506 0-3.572-.711-4.516-1.708-.291-.307-2.346-1.78-2.346-13.17zm30.913 14.512h-4.228v-.068h.417V81.257h4.034c2.969.072 5.345 1.52 5.345 7.82 0 6.3-2.154 7.676-5.568 7.676zm4.454-22.158c0 6.083-2.041 6.372-3.97 6.372h-4.295V67.861h3.217c2.599 0 5.048.652 5.048 6.734zm-1.854 6.517c5.787-1.231 6.825-3.765 6.825-6.444 0-3.585-4.082-7.096-9.944-7.096H54.604v.29h4.601v28.891h-4.601v.29h14.472c4.378 0 10.762-2.752 10.762-8.4 0-5.648-6.087-7.241-8.311-7.531zm25.667-2.843h.38l-.047-11.031h-.333s-.951 1.046-2.283 1.046c-1.331 0-3.376-1.284-5.563-1.284s-7.94 2.33-7.94 8.94c0 6.61 4.421 7.75 6.513 8.606 2.093.856 8.655 2.235 8.655 6.61s-3.092 5.896-5.706 5.896c-2.615 0-5.801-1.902-7.56-5.848-1.76-3.947-1.808-5.802-1.808-5.802h-.428v11.27h.333s.762-1.046 1.855-1.046 4.802 1.95 7.75 1.95c2.948 0 8.988-3.044 8.988-9.701s-5.041-7.418-6.8-8.036c-1.76-.618-8.702-1.807-8.702-6.752 0-4.946 5.087-6.705 8.083-4.565 2.996 2.14 4.517 8.13 4.613 9.747zm-14.059 22.999H76.42v.854h2.98l-6.522 21.207-6.294-21.207h3.242v-.854H59.038v.854h1.893l2.788 8.955-3.744 12.334-6.192-21.29h2.488v-.853H17.496v.854h3.321v18.663L8.932 101.268H.262v.854h3.297v28.005H.262v.732h7.327v-.732H4.454v-25.268l15.712 25.96h1.221v-28.697h5.902v28.005h-3.297v.732h22.917v-9.28h-.57s-1.1 5.21-3.42 6.879a11.66 11.66 0 01-3.36 1.669h-6.978v-14.654h2.198c1.18 0 2.238.286 3.256 1.303 1.017 1.018 1.872 4.681 1.872 4.681h.652v-12.781h-.652s-.447 1.669-1.058 3.5c-.61 1.832-2.93 2.565-4.03 2.565-.784 0-1.747.02-2.238.032v-12.651h6.35c1.294.374 3.07 1.062 3.988 2.199 1.547 1.912 1.954 4.233 1.954 4.233h.651v-6.432h2.524l8.955 29.836h1.099l6.024-19.457 5.82 19.457h1.14l9.314-29.836h2.735v-.854zM93.2 113.75c-1.76-.619-8.702-1.806-8.702-6.752s5.087-6.705 8.083-4.565c2.996 2.14 4.517 8.131 4.613 9.748h.38l-.047-11.032h-.333s-.951 1.047-2.283 1.047c-1.331 0-3.376-1.285-5.563-1.285s-7.94 2.33-7.94 8.94c0 6.61 4.421 7.75 6.513 8.606 2.093.856 8.655 2.235 8.655 6.61s-3.092 5.896-5.706 5.896c-2.615 0-5.801-1.902-7.56-5.848-1.76-3.947-1.808-5.802-1.808-5.802h-.428v11.27h.333s.762-1.046 1.855-1.046 4.802 1.95 7.75 1.95c2.948 0 8.988-3.044 8.988-9.7 0-6.658-5.041-7.42-6.8-8.037zm-25.711 44.469h2.262v-22.637h-2.262v22.637zm-20.96-2.139h2.616c3.129 0 5.299-.195 6.51-.585 1.702-.553 3.041-1.55 4.016-2.99.975-1.44 1.462-3.2 1.462-5.282 0-2.183-.529-4.049-1.585-5.597-1.057-1.547-2.53-2.608-4.417-3.182-1.415-.431-3.75-.646-7.002-.646h-1.6v18.282zm-2.17 2.139v-22.637h4.694c3.385 0 5.842.272 7.37.815 2.196.77 3.912 2.104 5.148 4.002 1.237 1.898 1.855 4.16 1.855 6.787 0 2.267-.49 4.262-1.47 5.986-.98 1.723-2.252 2.995-3.816 3.816-1.565.82-3.758 1.231-6.58 1.231h-7.2zm-14.352-17.827l-3.879 8.194h7.74l-3.86-8.194zm.286-4.81L40.85 158.22h-2.443l-3.56-7.448h-9.753l-3.527 7.448h-2.523l10.695-22.637h.554zm-25.992 2.216v7.694l3.9.032c1.51 0 2.628-.144 3.352-.431a3.489 3.489 0 001.696-1.378 3.828 3.828 0 00.609-2.116 3.67 3.67 0 00-.617-2.07 3.44 3.44 0 00-1.618-1.331c-.668-.267-1.778-.4-3.33-.4H4.301zm-2.262-2.216h4.509c2.513 0 4.216.102 5.109.308 1.344.309 2.437.968 3.278 1.98.841 1.012 1.262 2.258 1.262 3.737 0 1.232-.29 2.316-.87 3.25-.58.936-1.408 1.642-2.485 2.12-1.077.477-2.565.721-4.463.732l8.141 10.51h-2.799l-8.141-10.51H4.301v10.51H2.04v-22.637zm84.086 14.25c-1.518 0-2.749-1.19-2.749-2.659 0-1.468 1.231-2.66 2.75-2.66 1.517 0 2.748 1.192 2.748 2.66 0 1.469-1.23 2.66-2.749 2.66zm-.262-10.51a7.731 7.731 0 10.001 15.462 7.731 7.731 0 000-15.462zm0-.505c-4.541 0-8.235 3.695-8.235 8.236s3.694 8.236 8.235 8.236c4.541 0 8.236-3.695 8.236-8.236s-3.695-8.236-8.236-8.236zm0 16.884c-4.768 0-8.647-3.88-8.647-8.648s3.88-8.647 8.647-8.647c4.768 0 8.648 3.88 8.648 8.647 0 4.768-3.88 8.648-8.648 8.648zm-.046-18.335c-1.675 0-3.263.436-4.763 1.309a9.413 9.413 0 00-3.514 3.527c-.843 1.478-1.264 3.126-1.264 4.943 0 2.69.932 4.963 2.797 6.816 1.865 1.853 4.113 2.78 6.744 2.78a9.687 9.687 0 004.878-1.279 9.147 9.147 0 003.499-3.496c.838-1.479 1.257-3.12 1.257-4.928 0-1.797-.42-3.422-1.257-4.875-.837-1.453-2.016-2.615-3.538-3.488-1.52-.873-3.134-1.31-4.84-1.31zm-.1-2.201c3.429 0 6.298 1.144 8.608 3.432 2.31 2.288 3.465 5.104 3.465 8.448 0 3.314-1.153 6.125-3.458 8.434-2.304 2.308-5.115 3.462-8.43 3.462-3.357 0-6.191-1.149-8.5-3.447-2.31-2.298-3.465-5.078-3.465-8.34 0-2.176.526-4.192 1.578-6.049 1.052-1.857 2.487-3.31 4.304-4.362a11.57 11.57 0 015.898-1.578z" fill="#F2F2F2" fill-rule="nonzero"/></svg>