<svg width="160" height="160" xmlns="http://www.w3.org/2000/svg"><path d="M6.896 158.984c-.78 0-1.493-.137-2.137-.411a4.828 4.828 0 01-1.655-1.148 5.235 5.235 0 01-1.068-1.734 6.044 6.044 0 01-.38-2.17c0-.78.126-1.503.38-2.168a5.235 5.235 0 011.068-1.734c.46-.49 1.011-.873 1.655-1.148.644-.274 1.356-.411 2.137-.411.781 0 1.494.137 2.138.411a4.828 4.828 0 011.654 1.148c.46.49.816 1.069 1.069 1.734s.38 1.388.38 2.169c0 .78-.127 1.504-.38 2.169a5.235 5.235 0 01-1.069 1.734c-.459.49-1.01.873-1.654 1.148-.644.274-1.357.411-2.138.411zm0-1.171c.591 0 1.124-.109 1.6-.325a3.569 3.569 0 001.219-.903c.337-.385.599-.839.783-1.361.185-.523.277-1.09.277-1.702 0-.612-.092-1.182-.277-1.71a4.023 4.023 0 00-.783-1.362 3.617 3.617 0 00-1.22-.894 3.814 3.814 0 00-1.599-.325c-.59 0-1.126.108-1.607.325-.48.216-.889.514-1.227.894-.338.38-.596.834-.776 1.362a5.279 5.279 0 00-.269 1.71c0 .612.09 1.18.27 1.702.179.522.437.976.775 1.361.338.386.747.687 1.227.903.48.216 1.016.325 1.607.325zm19.9.981l-2.692-4.196h-2.106v4.196h-1.314v-10.56h4.243c.486 0 .929.074 1.33.221.401.148.75.362 1.045.642.296.28.525.614.689 1.005.163.39.245.829.245 1.314 0 .475-.074.897-.222 1.267a2.74 2.74 0 01-1.48 1.535 3.237 3.237 0 01-1.037.27l2.85 4.306h-1.552zm-2.027-5.351c.633 0 1.142-.188 1.528-.562.385-.375.578-.863.578-1.465 0-.602-.193-1.087-.578-1.457-.386-.369-.895-.554-1.528-.554h-2.771v4.038h2.77zm12.03 5.351v-10.56h1.314v10.56h-1.314zm15.276.206c-.75 0-1.454-.132-2.114-.396a5.2 5.2 0 01-1.726-1.116 5.267 5.267 0 01-1.163-1.726c-.285-.67-.428-1.417-.428-2.24 0-.823.143-1.57.428-2.24a5.178 5.178 0 011.163-1.718 5.265 5.265 0 011.726-1.109 5.638 5.638 0 012.114-.395c.94 0 1.739.184 2.398.554a5.91 5.91 0 011.702 1.425l-1.045.649a3.8 3.8 0 00-1.306-1.053 3.826 3.826 0 00-1.75-.404c-.58 0-1.118.106-1.614.317a3.86 3.86 0 00-1.29.886c-.365.38-.65.832-.856 1.354a4.692 4.692 0 00-.308 1.734c0 .623.103 1.198.308 1.726.206.527.491.981.855 1.361a3.96 3.96 0 002.906 1.22c.316 0 .617-.035.902-.104.285-.068.549-.158.792-.269a4.104 4.104 0 001.14-.768v-2.153h-3.626v-1.171h4.94v3.815a5.654 5.654 0 01-1.797 1.322c-.702.333-1.486.499-2.351.499zm12.774-.206v-10.56h1.314v10.56H64.85zm17.746 0l-6.16-8.423v8.423h-1.313v-10.56h1.345l6.08 8.249v-8.25h1.314v10.561h-1.266zm17.761 0l-.934-2.343h-5.256l-.934 2.343h-1.505l4.244-10.56h1.63l4.26 10.56h-1.505zm-3.562-9.199l-2.248 5.684h4.48l-2.232-5.684zm12.932 9.2v-10.561h1.315v9.389h4.908v1.171h-6.223zm17.984.19c-.93 0-1.726-.157-2.391-.468a5.089 5.089 0 01-1.662-1.211l.775-.998c.17.19.37.378.602.562a4.2 4.2 0 00.768.483c.28.138.583.248.91.333.327.084.676.127 1.045.127.475 0 .871-.059 1.188-.175.316-.116.57-.26.76-.435.19-.174.327-.37.411-.586.085-.216.127-.425.127-.625 0-.338-.09-.618-.27-.84a2.226 2.226 0 00-.704-.561 4.79 4.79 0 00-.997-.38c-.375-.1-.76-.206-1.156-.317-.396-.11-.781-.235-1.156-.372a3.902 3.902 0 01-.997-.53 2.561 2.561 0 01-.705-.8c-.18-.317-.269-.713-.269-1.188 0-.432.092-.828.277-1.187.185-.359.438-.668.76-.926.322-.259.705-.46 1.148-.602a4.684 4.684 0 011.44-.214c.813 0 1.531.127 2.154.38a4.451 4.451 0 011.6 1.093l-.793.966a3.576 3.576 0 00-1.393-.966 4.64 4.64 0 00-1.662-.301c-.634 0-1.153.153-1.56.46-.406.305-.61.712-.61 1.218 0 .296.09.539.27.729.18.19.414.353.704.49.29.138.623.256.998.357.375.1.76.205 1.156.316.395.111.78.24 1.155.388.375.148.708.338.998.57.29.232.525.517.704.855.18.338.27.755.27 1.25 0 .38-.069.758-.206 1.133a2.554 2.554 0 01-.673.997c-.312.29-.715.526-1.211.705-.496.18-1.098.27-1.805.27zM14.977 134.842c4.199 0 7.602-3.432 7.602-7.665 0-4.234-3.403-7.667-7.602-7.667-4.198 0-7.602 3.433-7.602 7.667 0 4.233 3.404 7.665 7.602 7.665m0 1.206c-6.15-.026-11.151-4.098-13.8-8.98 2.675-4.855 7.702-8.79 13.8-8.79 6.205 0 11.178 3.91 13.8 8.79-2.622 4.882-7.542 9.006-13.8 8.98zm0-23.974C6.705 112.075 0 118.837 0 127.178c0 8.34 6.705 15.102 14.977 15.102 8.271 0 14.977-6.763 14.977-15.102 0-8.34-6.706-15.103-14.977-15.103zm38.423 1.66c-1.007 0-2.549-.467-3.302-.887-.841-.469-2.433-.796-3.87-.796-4.76 0-13.862 5.89-13.862 15.125 0 6.026 2.534 9.594 4.66 11.526 2.518 2.288 5.871 3.6 9.201 3.6 1.614 0 3.323-.617 4.021-1.007.69-.384 2.099-.956 3.152-.956.957 0 1.37.296 2.277.944l.41.293V128.74l-.389 1.903c-.854 4.185-4.1 10.41-9.546 10.41-.9 0-3.642 0-4.734-1.05l-.056-.052c-1.555-1.377-2.412-5.913-2.412-12.774 0-9.21 2.423-13.881 7.202-13.881 5.968 0 9.004 8.403 9.552 10.088l.383 1.177v-12.063l-.41.293c-.906.648-1.32.944-2.277.944M69.48 125.39v-11.623h3.273c2.698 0 5.246 0 5.246 5.883 0 5.74-2.022 5.74-3.977 5.74h-4.542zm9.72 8.517c0 3.984-.416 6.804-5.806 6.804l-3.914-.064v-13.88h4.148c3.345.074 5.572 1.317 5.572 7.14zm-1.948-7.867c4.542-1.074 6.498-2.999 6.498-6.318 0-3.454-4.174-7.182-10.917-7.182h-15.08v1.227h4.96v26.91h-4.96v1.268h15.8c2.615 0 5.483-.777 7.673-2.077 1.883-1.118 4.128-3.134 4.128-6.388 0-5.259-5.644-6.952-8.102-7.44zm23.832-1.22c-.256-.07-.485-.133-.677-.195-.262-.084-.629-.178-1.054-.288-2.66-.686-8.191-2.113-8.191-6.172 0-3.406 2.716-4.958 5.24-4.958 1.149 0 2.276.322 3.172.907 3.103 2.023 4.772 7.446 4.884 9.166l.012.183h.79l-.052-11.252h-.636l-.057.058c-.01.01-.984.972-2.323.972-.599 0-1.35-.235-2.22-.507-1.136-.355-2.423-.757-3.777-.757-2.245 0-8.758 2.215-8.758 8.997 0 6.134 4.119 7.584 6.58 8.45.203.072.395.14.572.206a26.6 26.6 0 001.398.453c2.92.895 7.804 2.392 7.804 5.87 0 4.783-4.164 5.3-5.955 5.3-2.596 0-6.054-1.403-7.975-5.339-1.85-3.786-1.929-5.612-1.93-5.63l-.006-.19h-.847v11.486h.65l.059-.073c.007-.01.774-.956 1.846-.956.415 0 1.285.281 2.292.606 1.712.554 4.058 1.313 6.065 1.313 3.548 0 9.885-3.257 9.885-9.746 0-6.032-4.586-7.296-6.79-7.903m24.833-12.267v1.229h3.562v17.438l-12.448-18.667h-9.605v1.229h3.54v27.038h-3.54v1.112h8.255v-1.112h-3.363v-23.903l16.555 24.975h1.61v-28.11h2.85v-1.23h-7.416" fill="#F2F2F2" fill-rule="evenodd"/></svg>