<?xml version="1.0" encoding="utf-8"?><svg viewBox="0 0 35 31" xmlns="http://www.w3.org/2000/svg" xmlns:xlink="http://www.w3.org/1999/xlink"><style>:root>svg{display:none}:root>svg:target{display:block}</style><svg fill="none" viewBox="0 0 26 17" id="arrow-down" xmlns="http://www.w3.org/2000/svg"><path d="M13 17L25.99.5H.01L13 17z" fill="#fff"/></svg><svg fill="none" viewBox="0 0 17 21" id="bookmark" xmlns="http://www.w3.org/2000/svg"><path d="M1 19.551V.578h14.757v18.973l-7.379-7.51L1 19.551z" stroke="#000" stroke-width="1.054"/></svg><svg fill="none" viewBox="0 0 35 31" id="check" xmlns="http://www.w3.org/2000/svg"><path d="M6.206 13.905c3.196 1.837 5.644 4.591 7.403 7.809.272.496 1.947.352 2.415.352.409 0 2.205.152 2.414-.352C21.905 13.316 27.416 5.683 34.949.5c.389-.267-1.576-.43-1.686-.434-.765-.032-2.28-.228-2.97.247-7.594 5.223-13.189 12.933-16.684 21.4h4.828c-1.791-3.277-4.32-6.126-7.576-7.996-.77-.443-2.119-.282-2.97-.247-.406.017-1.097-.046-1.443.162-.077.047-.508.12-.242.272z" fill="#F21631"/><path d="M14.967 30.529C6.714 30.529 0 23.808 0 15.549 0 7.288 6.715.568 14.967.568c2.463 0 4.905.611 7.063 1.769a1.611 1.611 0 01-1.52 2.84 11.757 11.757 0 00-5.543-1.389C8.49 3.79 3.22 9.064 3.22 15.55c0 6.483 5.27 11.758 11.748 11.758 6.479 0 11.75-5.275 11.75-11.759 0-1.072-.145-2.132-.429-3.152a1.609 1.609 0 113.1-.864c.363 1.301.547 2.652.547 4.017 0 8.259-6.714 14.98-14.968 14.98z" fill="#F21631"/></svg><svg fill="none" viewBox="0 0 28 25" id="check-green" xmlns="http://www.w3.org/2000/svg"><path d="M4.964 11.124c2.557 1.47 4.516 3.673 5.923 6.247.217.397 1.558.282 1.932.282.327 0 1.764.122 1.931-.282 2.774-6.718 7.183-12.825 13.21-16.97.31-.214-1.262-.344-1.35-.347C26 .028 24.787-.13 24.235.25 18.16 4.43 13.683 10.598 10.886 17.37h3.863c-1.434-2.621-3.457-4.9-6.061-6.397-.616-.354-1.695-.225-2.376-.197-.325.013-.877-.037-1.154.13-.062.037-.407.095-.195.217z" fill="#46A94A"/><path d="M11.974 24.422C5.372 24.422 0 19.046 0 12.438S5.372.454 11.974.454c1.97 0 3.924.49 5.65 1.416a1.289 1.289 0 01-1.217 2.271 9.406 9.406 0 00-4.433-1.11c-5.183 0-9.4 4.22-9.4 9.407s4.217 9.407 9.4 9.407c5.183 0 9.399-4.22 9.399-9.407 0-.857-.115-1.706-.342-2.521a1.288 1.288 0 012.48-.692c.29 1.041.437 2.122.437 3.213 0 6.608-5.371 11.984-11.974 11.984z" fill="#46A94A"/></svg><svg fill="none" viewBox="0 0 28 25" id="check-second" xmlns="http://www.w3.org/2000/svg"><path d="M4.964 11.124c2.557 1.47 4.516 3.673 5.923 6.247.217.397 1.558.282 1.932.282.327 0 1.764.122 1.931-.282 2.774-6.718 7.183-12.825 13.21-16.97.31-.214-1.262-.344-1.35-.347C26 .028 24.787-.13 24.235.25 18.16 4.43 13.683 10.598 10.886 17.37h3.863c-1.434-2.621-3.457-4.9-6.061-6.397-.616-.354-1.695-.225-2.376-.197-.325.013-.877-.037-1.154.13-.062.037-.407.095-.195.217z" fill="#CB95A2"/><path d="M11.974 24.423C5.372 24.423 0 19.046 0 12.438 0 5.831 5.372.454 11.974.454c1.97 0 3.924.49 5.65 1.416a1.289 1.289 0 01-1.217 2.272 9.406 9.406 0 00-4.433-1.11c-5.183 0-9.4 4.22-9.4 9.406 0 5.187 4.217 9.407 9.4 9.407 5.183 0 9.399-4.22 9.399-9.407 0-.857-.115-1.705-.342-2.521a1.288 1.288 0 012.48-.692c.29 1.042.437 2.122.437 3.214 0 6.607-5.371 11.984-11.974 11.984z" fill="#CB95A2"/></svg><svg fill="none" viewBox="0 0 23 20" id="heart" xmlns="http://www.w3.org/2000/svg"><path d="M22.545 6.162c-.33-3.406-2.898-5.877-6.112-5.877-2.14 0-4.101 1.081-5.204 2.815A5.927 5.927 0 006.149.284C2.935.284.367 2.756.038 6.162c-.026.15-.133.942.192 2.233.468 1.863 1.55 3.557 3.126 4.899l7.868 6.703 8.002-6.703c1.577-1.342 2.658-3.036 3.127-4.899.324-1.29.218-2.082.192-2.233zM21.507 8.21c-.427 1.7-1.418 3.25-2.862 4.479L11.229 18.9l-7.29-6.21c-1.446-1.231-2.436-2.78-2.864-4.482-.307-1.222-.18-1.912-.18-1.917l.006-.04C1.183 3.265 3.391 1.1 6.15 1.1c2.035 0 3.827 1.174 4.678 3.064l.4.89.4-.89C12.463 2.303 14.35 1.1 16.434 1.1c2.758 0 4.965 2.166 5.253 5.19.001.006.127.697-.18 1.919z" fill="#000"/></svg><svg fill="none" viewBox="0 0 21 21" id="message" xmlns="http://www.w3.org/2000/svg"><mask id="ga" fill="#fff"><path fill-rule="evenodd" clip-rule="evenodd" d="M19.384 16.092a10.449 10.449 0 001.612-5.594C20.996 4.7 16.296 0 10.498 0 4.7 0 0 4.7 0 10.498c0 5.798 4.7 10.498 10.498 10.498a10.45 10.45 0 005.443-1.519l4.868 1.052-1.425-4.437z"/></mask><path d="M19.384 16.092l-.892-.563-.262.417.15.468 1.004-.322zm-3.443 3.385l.222-1.03-.41-.089-.36.218.548.901zm4.868 1.052l-.222 1.03 1.784.386-.558-1.739-1.004.323zm-.867-10.03a9.395 9.395 0 01-1.45 5.03l1.783 1.125a11.504 11.504 0 001.775-6.156h-2.108zm-9.444-9.445a9.444 9.444 0 019.444 9.444h2.108c0-6.38-5.172-11.552-11.552-11.552v2.108zm-9.444 9.444a9.444 9.444 0 019.444-9.444v-2.108c-6.38 0-11.552 5.172-11.552 11.552h2.108zm9.444 9.444a9.444 9.444 0 01-9.444-9.444h-2.108c0 6.38 5.172 11.552 11.552 11.552v-2.108zm4.896-1.366a9.395 9.395 0 01-4.896 1.366v2.108c2.191 0 4.243-.61 5.99-1.672l-1.095-1.802zm5.638.922l-4.869-1.051-.445 2.06 4.869 1.052.445-2.06zm-2.652-3.084l1.426 4.437 2.007-.645-1.426-4.437-2.007.645z" fill="#000" mask="url(#ga)"/></svg><svg fill="none" viewBox="0 0 23 22" id="twit" xmlns="http://www.w3.org/2000/svg"><path d="M21.996 1.055H1l8.326 7.964 2.172 11.584L21.996 1.055z" stroke="#000" stroke-width="1.054" stroke-linejoin="round"/><path d="M8.964 9.018l13.032-7.964" stroke="#000" stroke-width="1.054"/></svg></svg>