<svg width="160" height="160" xmlns="http://www.w3.org/2000/svg"><path d="M8.506 132.365h4.295c.032 1.007.324 1.764.878 2.272.553.507 1.364.76 2.432.76.91 0 1.613-.15 2.111-.455.499-.303.748-.73.748-1.282 0-.28-.06-.53-.178-.75a1.18 1.18 0 00-.499-.497c-.324-.176-1.119-.452-2.384-.827-1.265-.376-2.333-.74-3.203-1.091-1.257-.504-2.212-1.169-2.865-1.996-.652-.827-.979-1.792-.979-2.895 0-1.687.627-3.027 1.88-4.022 1.254-.995 2.953-1.493 5.096-1.493 2.104 0 3.772.524 5.006 1.57 1.234 1.048 1.85 2.462 1.85 4.245h-4.21c-.096-.824-.382-1.431-.86-1.823-.48-.391-1.17-.587-2.07-.587-.72 0-1.306.15-1.757.45-.45.3-.676.68-.676 1.144 0 .784 1.072 1.523 3.215 2.218.388.128.684.224.89.288.04.016.099.036.178.06 2.214.727 3.598 1.314 4.152 1.762a4.662 4.662 0 011.281 1.636c.293.628.439 1.325.439 2.092 0 1.758-.666 3.127-1.999 4.106-1.333.98-3.201 1.469-5.605 1.469-2.27 0-3.998-.526-5.184-1.577-1.187-1.05-1.847-2.643-1.982-4.777zm16.297-11.567h4.402v11.029c0 1.215.227 2.08.682 2.595.455.516 1.208.773 2.26.773 1.036 0 1.78-.257 2.23-.773.45-.515.676-1.38.676-2.595v-11.03h4.449v10.49c0 1.479-.143 2.658-.427 3.537a5.14 5.14 0 01-1.412 2.23 6.79 6.79 0 01-2.402 1.42c-.914.316-1.944.474-3.09.474-1.147 0-2.177-.158-3.09-.474a6.79 6.79 0 01-2.403-1.42 5.27 5.27 0 01-1.436-2.248c-.292-.883-.439-2.056-.439-3.519v-10.49zM41.1 138.456v-17.658h4.84l3.299 5.802a83.129 83.129 0 012.894 5.55c-.063-1.334-.11-2.585-.142-3.752a115.29 115.29 0 01-.048-3.08v-4.52h4.318v17.658h-4.828l-3.428-5.97c-.404-.703-.842-1.492-1.317-2.367-.475-.876-.977-1.82-1.507-2.836.087 1.151.15 2.222.19 3.213.04.991.06 1.87.06 2.637v5.323H41.1zm21.257-3.902h2.432c1.384 0 2.399-.411 3.043-1.234.645-.823.967-2.114.967-3.872 0-1.767-.322-3.06-.967-3.878-.644-.82-1.659-1.23-3.043-1.23h-2.432v10.214zm-4.25 3.902v-17.658h7.46c2.587 0 4.57.761 5.95 2.284 1.38 1.522 2.07 3.71 2.07 6.563 0 2.949-.713 5.155-2.14 6.617-1.428 1.463-3.582 2.194-6.46 2.194h-6.88zm21.256-7.317h3.82l-1.946-6.09-1.874 6.09zm-.798-10.341h4.887l6.17 17.658h-4.805l-1.068-3.237h-5.837l-.996 3.237h-4.639l6.288-17.658zm13.922 17.658v-6.653l-6.038-11.005h5.018l3.215 7.12 3.203-7.12h5.053l-6.097 11.005v6.653h-4.354zM0 158.508V140.85h6.157l2.301 8.596c.206.759.392 1.496.558 2.211.166.716.312 1.413.439 2.092.15-.719.32-1.472.51-2.26.19-.787.407-1.632.652-2.535l2.171-8.104h6.145v17.658h-4.08v-7.828c0-.551.013-1.324.041-2.32.028-.994.07-2.143.125-3.446l-3.358 13.594H7.225l-3.286-13.594c.055 1.567.098 2.975.13 4.226.032 1.25.047 2.228.047 2.931v6.437H0zm24.573-8.81c0 1.798.361 3.176 1.085 4.135.724.96 1.762 1.439 3.114 1.439 1.36 0 2.406-.48 3.138-1.439.731-.959 1.097-2.337 1.097-4.136 0-1.79-.366-3.166-1.097-4.13-.732-.962-1.778-1.444-3.138-1.444-1.352 0-2.39.48-3.114 1.439-.724.959-1.085 2.337-1.085 4.135zm-4.544 0c0-2.87.785-5.137 2.355-6.804 1.57-1.666 3.7-2.5 6.388-2.5 2.697 0 4.838.836 6.424 2.506 1.586 1.67 2.379 3.936 2.379 6.797 0 2.862-.793 5.127-2.379 6.798-1.586 1.67-3.727 2.505-6.424 2.505-2.689 0-4.818-.833-6.388-2.5-1.57-1.666-2.355-3.933-2.355-6.803zm23.019-1.283h3.333c.902 0 1.564-.168 1.987-.504.423-.335.635-.87.635-1.606 0-.648-.206-1.129-.617-1.445-.411-.315-1.04-.473-1.886-.473h-3.452v4.028zm-4.449 10.093V140.85h8.363c2.215 0 3.846.4 4.894 1.2 1.048.798 1.572 2.037 1.572 3.715 0 .991-.224 1.84-.67 2.548-.447.707-1.141 1.3-2.082 1.78.767.296 1.308.697 1.625 1.205.316.507.498 1.4.546 2.68.023.359.047.842.07 1.45.056 1.422.297 2.245.724 2.47v.61h-4.686c-.229-.623-.36-1.478-.391-2.565-.032-1.087-.063-1.77-.095-2.05-.071-.687-.3-1.19-.688-1.51-.388-.32-.969-.48-1.744-.48h-2.99v6.605H38.6zm16.185 0V140.85h4.84l3.299 5.802a83.128 83.128 0 012.894 5.55c-.063-1.334-.11-2.585-.142-3.751a115.29 115.29 0 01-.048-3.081v-4.52h4.318v17.658h-4.828l-3.428-5.97c-.404-.703-.843-1.492-1.317-2.367a204.96 204.96 0 01-1.507-2.835c.087 1.15.15 2.222.19 3.213.04.99.06 1.87.06 2.637v5.322h-4.33zm17.076 0V140.85h4.46v17.658h-4.46zm6.339 0V140.85h4.84l3.298 5.802a83.128 83.128 0 012.894 5.55c-.063-1.334-.11-2.585-.142-3.751a115.29 115.29 0 01-.047-3.081v-4.52h4.318v17.658H88.53l-3.428-5.97c-.403-.703-.842-1.492-1.317-2.367-.474-.875-.976-1.82-1.506-2.835.087 1.15.15 2.222.19 3.213.039.99.059 1.87.059 2.637v5.322h-4.33zm30.112 0l-.355-2.277c-.657.927-1.438 1.616-2.343 2.068-.906.451-1.964.677-3.174.677-1.13 0-2.177-.208-3.138-.623a7.38 7.38 0 01-2.544-1.834 8.351 8.351 0 01-1.744-2.938c-.395-1.126-.593-2.357-.593-3.692 0-2.885.816-5.199 2.45-6.94 1.633-1.743 3.806-2.614 6.518-2.614 2.049 0 3.74.52 5.072 1.558 1.332 1.04 2.177 2.494 2.532 4.364h-4.282c-.285-.76-.72-1.333-1.305-1.72-.585-.388-1.301-.582-2.147-.582-1.281 0-2.317.528-3.108 1.583-.791 1.055-1.187 2.45-1.187 4.183 0 1.71.39 3.071 1.169 4.082.779 1.011 1.82 1.517 3.126 1.517 1.044 0 1.908-.268 2.592-.803.684-.536 1.109-1.283 1.275-2.242h-3.891v-3.393h7.877v9.626h-2.8zm-52.348-92.55c.168.034.34.068.508.099.124.495.099 1.103.099 1.672 0 1.616-.191 3.104-.286 4.622-.112 1.7-.077 3.371-.131 5.11l-.19 2.266c.216-.099.302-.172.356-.406.286-1.26.162-2.701.27-4.02l.505-5.507c.051-.535.182-1.18.891-1.094.206.024 1.262.67 1.317.836.168.534-.252 1.678-.363 2.228-.296 1.533-.592 3.07-.89 4.603-.255 1.027-.763 2.5-.763 3.556h.406v-.098h.102c.16-.82.318-1.641.477-2.465l.585-2.664c.124-.458.147-1.11.467-1.467.093-.107 1.27-.082 1.524-.088.124-.007.203-.065.203.095h.101c-.161.953-.6 1.767-.89 2.661a1092.01 1092.01 0 01-1.252 3.63c-.042.126-.283.79.006.79v.098h.102c0-.132-.035-.098.101-.098.084-.66.379-1.257.595-1.875a71.028 71.028 0 011.59-4.244l1.154-3.283c.296-.623 2.157-.3 2.157-.236h.1v.098c-.19.464-.38.928-.575 1.392a102.102 102.102 0 00-2.706 5.775c-.375.87-1.297 2.09-1.297 3.061h.102v.098h.101v-.098c.56-.814.916-1.761 1.362-2.637 1.29-2.72 2.581-5.437 3.872-8.156.188-.332.49-1.008.973-1.008.49.504 1.898.414 1.898 1.377 0 .414-1.341 2.225-1.647 2.682l-3.863 5.938-1.612 2.274c-.05.083-.035.12-.169.12 0 .13-.035.098.102.098v.099h.102c.064.065.086.098.203.098.437-1.079 1.412-2.034 2.08-2.987.852-1.21 1.704-2.422 2.553-3.632.494-.742.989-1.482 1.482-2.226.156-.212.407-.498.703-.498l.48.603c.063.316.13.636.194.952.108.4.527.735.493 1.178 0 .003 0 .006-.004.009-.143.458-.594.759-.924 1.125-1.272 1.389-2.592 2.64-3.95 3.955-.757.728-1.65 1.377-2.293 2.21h-.101c0 .129-.035.098.101.098 0 .129-.034.098.102.098.08.105.143.197.306.197.737-1.073 1.949-1.909 2.919-2.787.655-.646 1.31-1.291 1.961-1.937.143-.107.302-.193.512-.193.035.27.077.522.277.716.197.19 1.046.387 1.046.562h.101c0 .13.032.099-.101.099v.098l-2.477 1.724c-1.11.772-2.223 1.546-3.304 2.333-.152.107-.426.245-.426.467h.102v.098h.203v-.098c2.811-1.841 5.625-3.68 8.436-5.52.143-.098.518-.197.518-.38h.204c.321.841 1.527 1.155 1.527 2.163l-4.48 2.16-5.581 2.582c-.13.07-.216.104-.216.273h.101v.098c3.145-1.327 6.293-2.652 9.438-3.98l2.34-1.087c.235-.102.553-.341.84-.341v.098h.101c-.108.79.038 1.275.531 1.847.08.092.13.218.283.218v.098h-.102c-1.141.55-2.445.815-3.644 1.233-1.872.648-3.752 1.245-5.634 1.869-1.148.377-2.337.59-3.418 1.072-.156.068-.327.157-.327.35h.102v.099h.1l2.424-.737c1.695-.49 3.393-.978 5.087-1.47l2.032-.697c.426-.16.963-.44 1.447-.44v-.098h.203c-.047.47-.238.78-.337 1.195-.022.387-.045.778-.07 1.165-3.128.833-6.464 1.048-9.656 1.718-.179.037-1.027.095-1.027.249h-.102v.295c.509-.065 1.017-.13 1.526-.197.27-.033.544-.064.814-.098l.916-.148.305-.049c.239-.034.477-.065.712-.098.315-.169.824-.197 1.222-.197.238-.034.476-.065.712-.098l1.22-.148.407-.049c-.013.35-.073 1.475.408 1.475v.197c-2.354.212-4.834.196-7.326.196-.185 0-.814-.08-.814.099h-.102v.295h.102v.098c2.283-.215 4.827-.098 7.223-.098.665-.289 2.408-.098 3.257-.098.14-.062.916-.2.916 0h.101c.077.768.814 1.33.814 2.065h-.203c-1.39.166-2.932-.13-4.277-.274-1.12-.08-2.235-.156-3.355-.236-1.513-.093-3.004-.277-4.578-.277v.295h.203l14.042 1.377c-.169.805-.408 1.386-.408 2.36-3.484-.42-6.65-1.398-9.968-2.093-.877-.172-1.754-.34-2.635-.513l-1.437-.246v.393c2.047.191 4 .833 5.917 1.322l4.871 1.116c.19.043 1.218.203 1.218.316h.102v.296l-.967.645c-.206.169-.322.464-.588.525-.668.15-1.526-.405-2.106-.593a5140.4 5140.4 0 01-6.187-2.105c-.68-.255-1.857-.931-2.566-.931v.393c2.13.802 4.26 1.607 6.388 2.41.585.211 1.17.427 1.752.639v.196c-.63.21-1.087.655-1.027 1.377.01.132.044.099-.092.099v.098c-1.078-.36-1.965-1.116-2.957-1.666-.977-.535-1.952-1.07-2.932-1.604a719.47 719.47 0 01-1.539-.86v.098h-.102v.295c2.5 1.521 4.999 3.042 7.495 4.564.502.328 1.771.894 2.035 1.404.283.55-.067 1.263-.067 1.801-1.135.105-3.027-1.825-3.898-2.523-1.902-1.47-3.803-2.935-5.708-4.404-.124-.083-.264-.083-.264-.252-.136 0-.101-.034-.101.098a.685.685 0 00-.102.393c.93.508 1.746 1.347 2.572 2.029 1.403 1.106 2.808 2.213 4.21 3.316.98.81 1.917 1.653 2.98 2.33.219.137 1.001.882 1.227.882v.197c-.185.051-.436.295-.61.295.066.294.136.59.203.884-.356.065-.871.47-1.209.271-.794-.476-1.691-1.737-2.384-2.407-1.507-1.456-3.05-2.962-4.57-4.431-.925-.894-1.815-1.936-2.817-2.788-.101-.086-.111-.04-.111-.184-.137 0-.102-.034-.102.098h-.102c-.034.132-.066.265-.101.394l1.345 1.254c1.428 1.38 2.779 2.907 4.21 4.29.722.698 1.434 1.355 2.11 2.096.246.28.494.56.739.836l.041.178c-.321.16-.62.175-.957.31-.274.108-.439.477-.773.477-.563-.667-1.122-1.334-1.685-2.004a47.39 47.39 0 00-3.88-4.714c-.584-.683-1.17-1.362-1.755-2.044-.088-.08-.108-.05-.108-.188-.136 0-.102-.034-.102.099h-.1v.098h-.103c0 .13-.035.098.102.098.455.882 1.26 1.608 1.886 2.395 1.02 1.278 1.987 2.578 3.119 3.782.127.136.299.51.49.51v.198h-.102c-.23.171-1.425.925-1.425 1.18-.137 0-.101.03-.101-.099h-.102c-1.4-2.415-3.167-4.613-4.535-7.007-.07-.122-.082-.27-.248-.27h-.305c0 .129.032.098-.102.098 0 .135-.053.197.102.197l4.627 7.542c.295.476 1.274 1.77 1.274 2.292-.562.218-.68.685-.709 1.279 0 .033 0 .068-.002.098h-.102v.099c-.43-.04-1.202-.019-1.47-.342-.438-.532-.664-1.38-.925-1.997-.407-.867-.81-1.734-1.217-2.603-.633-1.491-1.23-3.01-1.844-4.515l-.65-1.558c-.142 0-.202-.065-.202.098h-.204c.184.434.372.867.556 1.297.802 2.013 1.587 3.98 2.379 5.984.372.786.743 1.576 1.113 2.363.073.179.537 1.174.327 1.174-.458.845-.814 1.365-1.93 1.245-.25-.028-.591-.111-.735-.317-.413-.593-.664-2.31-.823-3.088-.506-2.33-1.008-4.657-1.514-6.986-.031-.206-.164-1.278-.289-1.278v-.099h-.102c-.105.07-.257.197-.406.197v.098l.45 1.755.796 4.041 1.31 6.003c.08.494.42 1.315.25 1.825-.183.541-1.007.332-1.478.397-.238.046-.477.095-.718.14v-.098h-.102c-.302-3.088-.782-6.122-1.033-9.244-.13-1.591-.392-3.134-.392-4.819h-.508c0 2.486.464 4.813.627 7.275.063.624.126 1.247.187 1.871h-.102c-.712-.553-1.415-.393-2.34-.393.146-1.534.22-3.16.32-4.72.132-1.343.262-2.687.392-4.033h-.407c-.162 1.672-.32 3.344-.483 5.016-.2 2.025-.302 4.03-.601 6.002-.076.488-.026 2.09-.315 2.385-.032.027-.06.055-.092.083-.172.123-1.358.307-1.358.086-.108-.157-.216-.314-.324-.474-.258-.233-.64-.242-.71-.624-.18-.98.633-3.27.904-4.222.454-1.899.91-3.796 1.36-5.695.195-.854.392-1.705.586-2.56.019-.116.044-.095-.086-.095v-.098h-.305v.098c-.4.605-.55 2.336-.767 3.131l-1.144 4.15c-.261 1.042-.519 2.086-.78 3.128-.517 1.555-1.341.42-2.298.32-.134-.015-.099.03-.099-.108h-.102c.321-.792.643-1.586.964-2.382.814-2.15 1.628-4.302 2.438-6.453.258-.726.516-1.45.77-2.18h-.102v-.098h-.305c-.28 1.35-.98 2.6-1.475 3.854-.652 1.638-1.3 3.276-1.953 4.911-.232.525-.845 1.681-.845 2.25-.137 0-.102-.034-.102.098-.156-.037-.916-.113-.916-.196h-.102c-.105-.64-.429-.772-.712-1.279h.102c1.765-3.344 3.53-6.687 5.29-10.031-.11-.068-.26-.197-.406-.197l-1.18 2.087c-.423.793-2.2 4.573-2.868 4.822-.308.114-.998-.32-1.447-.32v-.197h.102c.28-.759.928-1.417 1.377-2.095.989-1.441 1.977-2.88 2.963-4.321.093-.14.153-.37.34-.37 0-.131.032-.097-.101-.097-.086-.068-.305-.296-.305-.099-.843.87-1.47 1.952-2.143 2.945-1.03 1.422-2.06 2.845-3.095 4.268-.333.473-.709 1.3-1.329 1.512-.4.136-.702-.074-1.07-.141a7.472 7.472 0 00-1.42-.126v-.197h.103c.667-1.017 1.767-1.773 2.607-2.69 1.714-1.85 3.43-3.7 5.145-5.553.14-.147.403-.608.591-.608 0-.132.032-.098-.102-.098 0-.133.032-.099-.101-.099l-.287.12c-.931.716-1.691 1.678-2.49 2.502-2.238 2.302-4.387 4.773-6.877 6.826-.099.08-.114.045-.114.19-.137 0-.102.031-.102-.098-.318-.215-.636-.43-.954-.649l-.493-.716a2.021 2.021 0 00-.08-.11h.102c.605-.836 1.593-1.55 2.404-2.112.728-.572 1.457-1.143 2.182-1.715 1.98-1.58 3.745-3.472 5.825-4.883l.171-.043v-.197h-.101c-.306-.147-.611.108-.83.274-1.094.91-2.185 1.819-3.279 2.726-1.745 1.395-3.49 2.794-5.24 4.189-.086.068-.114.055-.114.187h-.204c-.044-.427-.197-1.933-.089-2.222.121-.335.61-.56.872-.765 1.866-1.496 4.025-2.57 5.955-3.964.627-.458 1.504-.793 2.01-1.393.085-.107.104-.258.104-.409-.143 0-.203-.064-.203.099-.636.218-1.195.679-1.765 1.029-1.287.784-2.588 1.59-3.901 2.36-.309.179-.776.643-1.151.643-.073.068-.102.098-.102 0-.115-.222-.229-.442-.343-.667-.185-.301-.776-.529-.776-.907 2.579-1.115 5.157-2.228 7.733-3.343v-.197h-.102v-.098c-.67.123-1.316.47-1.92.719-2.02.82-3.981 1.755-6.01 2.541-.604.231-1.358.8-2.042.778l-.34-.101c-.248-.17-.254-.43-.448-.624-.28-.28-.827-.363-.922-.784-.07-.298.06-.492.305-.627 1.04-.584 2.44-.771 3.625-1.072l4.69-1.153c.919-.252 1.838-.504 2.757-.76 0-.131.032-.097-.102-.097v-.197c-1.577.141-3.12.658-4.598 1.026-1.892.452-3.783.904-5.676 1.352-.66.158-2.308.757-2.94.664-.373-.055-.726-.823-.726-1.174.515-.876-.578-1.278 1.221-1.278l.61-.099c.271-.033.544-.064.815-.098l1.628-.196c.305-.034.61-.065.916-.1.238-.033.477-.063.712-.097l.916-.098c.27-.034.543-.065.814-.099l.915-.098 1.221-.148.407-.049c.239-.034.477-.064.712-.098l.916-.098c.239-.034.477-.065.713-.099.238-.034.477-.064.712-.098.168-.034.34-.065.508-.099v-.393c-2.27.209-4.54.418-6.814.624-1.227.153-3.068.513-4.276.421-1.024-.08-.449-1.242-.102-1.242-.035-.163-.067-.326-.102-.492.837-.515 1.94-.393 3.053-.393.731-.316 2.54-.07 3.358-.018 1.456.034 2.915.068 4.372.098.276-.015.511-.05.511-.375-1.876-.172-3.736-.147-5.698-.205-.814-.062-1.627-.123-2.441-.188v-.098h.102c.285-.517.483-.815.495-1.475.013-.08.026-.16.035-.243.432-.252 5.6.958 6.382 1.15.375.091.75.184 1.125.273.035-.132.07-.262.102-.394h-.203c-.677-.172-1.355-.341-2.032-.513l-6.115-1.334c-.642-.157-1.628-.169-2.143-.535l-.143-.19c.2-.584-.369-1.57-.194-1.93.118-.246.369-.234.643-.172l10.39 3.69v-.196h.103v-.295c-3.066-1.023-6.064-2.32-9.066-3.427l-3.32-1.26c-.244-.114-.639-.304-.639-.624.512-.375.407-.753.407-1.376.17-.071.337-.142.506-.216.2-.169.248-.617.604-.528.935.233 2.007 1.039 2.881 1.484 2.935 1.494 5.771 3.304 8.728 4.764.108.052.204.043.204.2h.102v-.099c.066-.117.04-.197.203-.197v-.196c-.56-.188-1.052-.554-1.558-.836-1.084-.605-2.156-1.186-3.234-1.807l-4.684-2.453c-.225-.138-.496-.317-.496-.608.535-.24 1.323-.446 1.323-1.18a.988.988 0 01.56.086l7.135 5.07c.242.17 1.227 1.04 1.463 1.04v-.099c.082-.083.102-.068.102-.197-.76-.882-6.41-4.508-6.41-4.917.587-.178 1.424-.544 1.424-1.278h.101c1.371 1.235 2.643 2.581 4.035 3.77.519.443.977 1.027 1.562 1.344v.098h.203c.035-.098.07-.197.102-.295-.49-.446-.98-.888-1.469-1.334-1.068-1.033-2.188-1.94-3.23-2.978-.48-.553-.96-1.103-1.444-1.656-.467-.514-1.069-1.018-1.352-1.623-.04-.089-.006-.08-.136-.08v-.197c.353-.307.877-1.475 1.119-1.475v-.098c1.072.863 1.882 2.157 2.697 3.205l1.163 1.319a69.457 69.457 0 003.317 4.081l.047.147h.306c-.325-.906-1.177-1.68-1.75-2.449-1.672-2.188-3.34-4.376-5.014-6.567-.36-.474-1.478-1.537-1.478-2.096h.102c.146-.102.311-.197.508-.197.051-.27 0-.517 0-.787.312-.135.636-.104.973-.203.197-.058.334-.289.554-.289v-.098c.073.068.076.098.203.098a248.928 248.928 0 003.612 6.22c.538 1.101 1.078 2.2 1.616 3.298.46.827.925 1.654 1.386 2.48h.203v-.098a.601.601 0 00.02-.464l-4.802-9.075c-.089-.179-.64-1.082-.407-1.082v-.098h.61c.44-.185 1.466.138 1.75.457.371.425.518.984.743 1.485.773 1.715 1.393 3.507 2.153 5.25.299.684.537 1.413.792 2.132.086.267.175.538.26.805h.204v-.098c.442-.75-2.34-5.932-2.34-7.278h.102v-.098c.298.027.683.086 1.004.034.175-.044.35-.086.522-.132v.098c.28.504.378 1.091.528 1.666l.842 3.362c.127.519.153 1.257.512 1.669l.178.045c.216-.32-.184-1.733-.276-2.108l-1.002-4.628c-.299-1.31-.782-2.584-.782-4.038.34-.034.68-.065 1.017-.099.3-.203.935-.59 1.323-.59v.098c.477.75.48 3.255.515 4.325l.554 5.811c.025.19-.026 1.174.152 1.174v.099h.204c-.077-2.318-.249-4.536-.392-6.79a628.4 628.4 0 00-.031-2.455l-.391-3.934h.101v-.098c1.018.03 1.164-.021 1.934-.492zm4.171 29.7v.098c-.721.247-1.357.668-2.06.92-2.175.77-4.712.313-6.69-.532-.169-.074-.814-.446-.814-.289h-.204v.197h.102c.153.089.315.196.509.196-.038.13-.185.394 0 .394 1.119.937 2.595 1.01 4.054 1.334.664.144 1.014.338 1.847.338.465-.314 1.027-.35 1.523-.594.407-.202.449-.571.738-.86.407-.412.719-.243 1.056-.83.054-.098-.007-.077.143-.077-.067-.098-.134-.197-.204-.295zm-2.747-1.475c-.655.188-3.663-.147-3.663.689h.102v.098l2.633-.056c.42-.082.773-.436 1.233-.436 0-.132.032-.098-.102-.098l-.203-.197zm-2.578-1.18h-.373c-.213.188-1.322.593-1.322.098h-.204v.099h-.102c0 .295.004.497.004.791.067 0 .2.03.2-.005.343-.169.7-.098 1.12-.098.238-.034.476-.064.712-.098.193-.077 1.017.037 1.017-.197.496.095 1.736.018 1.991.295.132.025.44.046.473.046.072-.01.232-.546.072-.644-.098-.09-.4.14-.941.06-.721-.319-1.883-.347-2.647-.348zm2.07-1.967c-.824-.212-1.934-.098-2.85-.098-.168.396-.06.983.509.983v-.393c.133 0 .102.03.102-.098h.204c0 .153-.074.491.101.491v.098h.712c.035-.162.07-.325.102-.491h.102c.035.132.07.264.102.393.622-.098.915-.224.915-.885zm4.476-2.753h-.61c-.58.316-1.367.77-2.109.592l-1.058-.448c-.124-.025-.394-.129-.394.052h-.102v.099h.102v.098c.772.316 1.252.688 2.238.688l.664-.276c.42-.222.843-.609 1.371-.609v-.098h-.102v-.098zM51.18 86.217c-.63.446-1.05.987-1.558 1.546-.178.16-.356.323-.537.483-.048.11-.143.332.06.332.554.267 2.992.86 3.619.666.327-.104.435-.439.677-.645.143-.13.487-.2.487-.415.133 0 .101.03.101-.098-.39-.32-.547-.738-.785-1.143-.41-.698-1.23-.726-2.064-.726zm1.844 1.863c-.233.304-.446.56-.772.666-.388.12-2.12-.212-2.12-.556.746.027 1.207.437 1.96.437.247-.181.498-.363.746-.547zm5.89-2.06c-.37.213-.647.32-.97.637l-.436.544c-.235.18-.935.206-.935.59h.102v.098c.22.019.712-.003.712.295.75.046 1.18.492 1.933.492.338-.188 1.797-.605 1.806-.72-.136-.264-3.004-.165-3.536-.165v-.099c.134 0 .102.031.102-.098.677-.753 2.038-1.404 2.633-.114 0 0 .4.197.513.022.066-.113-.016-.203-.074-.304-.404-.692-1.043-1.052-1.85-1.178zm-8.011.677c.497 0 1.012.04 1.401.318.274.194.373.95.72.95v.115c-.96-.036-1.901 0-2.893 0v-.46c.257-.307.516-.613.772-.923zm.888-2.053v.098c-.477.126-1.072.19-1.504.424-.531.283-1.174 1.694-1.504 2.253-.054.086-.029.077-.146.077v.196h.101v.099h.51c.902-.818 1.217-2.231 2.743-2.231.436 0 .894.125 1.208.374.27.212.83 1.14.83 1.464.133 0 .102-.035.102.098h.102v-.098h.102c.035-.182.162-1.082 0-1.082-.118-.09-.306-.123-.306-.296h.102c.502-1.3-1.466-1.269-2.34-1.376zm7.224-.197c-.696.67-1.87.228-2.464 1.131-.073.105-.02.148-.182.148v.196h.102c.137.034.274.068.407.098v.197c-.152.077-.375.394-.509.394 0 .135-.066.197.102.197v.196c.134 0 .102-.034.102.099.646-.225.779-.704 1.275-1.11.71-.587 1.972-.627 2.643.061.25.259.356.609.493.935.117.28.457.531.753.387.111-.058.124-.21.076-.31-.238-.489-1.256-2.324-1.883-2.324z" fill="#F2F2F2" fill-rule="evenodd"/></svg>