<svg width="160" height="160" xmlns="http://www.w3.org/2000/svg"><path fill="#F2F2F2" fill-rule="evenodd" d="M5.99 156.98a3.176 3.176 0 100-6.352 3.176 3.176 0 000 6.352zm5.632-3.176c-.47 1.037-1.197 1.884-2.18 2.544a6.083 6.083 0 01-3.452 1.036 6.158 6.158 0 01-3.467-1.036 6.052 6.052 0 01-2.164-2.544 5.95 5.95 0 012.164-2.527 6.095 6.095 0 013.467-1.052c1.266 0 2.416.35 3.451 1.052.984.649 1.71 1.491 2.181 2.527m-5.632 5.99a5.99 5.99 0 100-11.98 5.99 5.99 0 000 11.98zm12.938-2.507a3.465 3.465 0 01-3.48-3.48 3.466 3.466 0 013.48-3.48c1.933 0 3.016 1.547 3.016 1.547l1.547-1.547s-1.547-2.165-4.563-2.165c-3.325 0-5.877 2.552-5.877 5.645 0 3.093 2.552 5.646 5.877 5.646 3.093 0 4.64-2.166 4.64-2.166l-1.547-1.546s-1.082 1.546-3.093 1.546m10.226-.077h-2.398v-2.63h2.398c.928 0 1.47.542 1.47 1.315 0 .774-.542 1.315-1.47 1.315zm-2.398-6.805h2.089c.773 0 1.237.463 1.237 1.082s-.464 1.083-1.237 1.083h-2.089v-2.165zm4.254 3.093s1.47-.541 1.47-2.243c0-1.547-1.315-2.861-3.48-2.861h-4.564v10.826h4.873c2.32 0 3.712-1.391 3.712-3.093 0-2.088-2.011-2.63-2.011-2.63zm5.153-2.166c0-.618.464-1.082 1.624-1.082 1.237 0 2.01.928 2.01.928l1.547-1.547s-1.237-1.47-3.634-1.47c-2.475 0-3.944 1.47-3.944 3.171 0 3.79 5.413 2.94 5.413 4.795 0 .696-.541 1.237-1.779 1.237-1.624 0-2.552-1.16-2.552-1.16l-1.547 1.548s1.392 1.7 4.177 1.7c2.552 0 4.098-1.546 4.098-3.325 0-3.79-5.413-2.938-5.413-4.795m15.046 1.814l-3.847-4.81h-2.164v11.222h2.405v-7.374l3.606 4.488 3.607-4.488v7.374h2.404v-11.221h-2.164l-3.847 4.809zm13.426 4.408a3.592 3.592 0 01-3.607-3.607 3.592 3.592 0 013.607-3.606 3.592 3.592 0 013.607 3.606 3.592 3.592 0 01-3.607 3.607m0-9.458c-3.446 0-6.091 2.645-6.091 5.851s2.645 5.85 6.09 5.85c3.447 0 6.092-2.644 6.092-5.85 0-3.206-2.645-5.85-6.091-5.85m12.215 5.53h-2.484v-3.046h2.484c.882 0 1.523.641 1.523 1.523 0 .881-.641 1.523-1.523 1.523m4.008-1.523c0-2.244-1.523-3.767-3.927-3.767h-4.97v11.22h2.405v-3.686h2.244l2.004 3.686h2.645l-2.325-4.167s1.924-.721 1.924-3.286m9.001 3.206l-5.45-6.973h-2.164v11.22h2.404v-6.972l5.45 6.973h2.164v-11.221H89.86v6.973zm3.92 4.248h2.405v-11.221h-2.405v11.22zm11.534-4.248l-5.45-6.973H97.7v11.22h2.404v-6.972l5.45 6.973h2.164v-11.221h-2.404v6.973zm10.132 0h2.084v1.362s-.882.882-2.485.882a3.591 3.591 0 01-3.606-3.607 3.591 3.591 0 013.606-3.606c2.004 0 3.126 1.603 3.126 1.603l1.603-1.603s-1.603-2.245-4.729-2.245c-3.446 0-6.091 2.645-6.091 5.851s2.645 5.851 6.091 5.851c3.206 0 4.889-2.164 4.889-2.164v-4.248h-4.488v1.924zm8.592-3.927c0-.642.481-1.123 1.683-1.123 1.283 0 2.084.962 2.084.962l1.956-1.603s-1.635-1.523-4.12-1.523c-2.564 0-4.087 1.523-4.087 3.287 0 3.927 5.61 3.045 5.61 4.969 0 .721-.56 1.282-1.843 1.282-1.683 0-2.645-1.202-2.645-1.202l-1.603 1.603s1.442 1.763 4.328 1.763c2.645 0 4.6-1.603 4.6-3.446 0-3.927-5.963-3.046-5.963-4.97m-48.909-49.39c-1.854-1.696-5.3-2.13-7.214-.279a.3.3 0 01-.256.09c-.84-.117-.77-.582-.168-.976 2.237-1.543 6.144-.923 7.912 1.105.143.208-.184.165-.274.06m-.904 3.563c-.15.143-.377.161-.577.152-.64-.053-1.15-.439-1.7-.723a3.583 3.583 0 00-.19-.093.93.93 0 11-1.767-.242c-.784.112-1.436.466-2.115.862-.06.036-.183.08-.259-.013-.053-.065.008-.15.062-.194.58-.465 1.136-.985 1.821-1.295a3.541 3.541 0 012.648-.083c.716.263 1.236.819 1.898 1.172.197.084.353.271.179.457m-4.4 8.22a.934.934 0 01-.071.107 1.355 1.355 0 01-.38.327c-.176.104-.408.099-.547-.068-.025-.03-.046-.063-.076-.087a.317.317 0 00-.094-.046c-.522-.185-1.084-.24-1.637-.218-.686.027-1.349.241-2.031.241-.682 0-1.346-.214-2.032-.241-.553-.022-1.115.033-1.637.218a.316.316 0 00-.094.046c-.03.024-.05.057-.076.087-.14.167-.372.172-.548.068a1.355 1.355 0 01-.38-.327.956.956 0 01-.07-.107c-.02-.032-.035-.072-.019-.105a.114.114 0 01.032-.035c.116-.094.248-.147.393-.09.113.043.237.117.358.134.123.018.25-.034.361-.08l.282-.112a9.659 9.659 0 013.43-.644 9.659 9.659 0 013.71.756c.112.046.239.098.362.08.12-.017.245-.091.358-.135.145-.056.277-.003.393.091.012.01.024.021.031.035.017.033 0 .073-.017.105m-2.68 1.574s-1.283.604-2.158.604c-.874 0-2.157-.604-2.157-.604-.098-.053-.294-.143-.31-.272a.076.076 0 01.02-.057c.022-.027.06-.028.098-.026l.039.003c.215.019.427.087.637.134.216.05.434.094.655.108.262.016.526.013.789.018.076.001.153.005.23.007.076-.002.153-.006.23-.007.261-.005.526-.002.788-.018.221-.014.44-.058.655-.108.21-.047.422-.115.637-.134l.04-.003c.036-.002.074-.001.097.026.014.016.021.037.019.057-.015.129-.21.219-.31.272m-8.007-9.392a.93.93 0 01-.918-1.066c-.065.03-.13.06-.192.093-.549.284-1.058.67-1.7.723-.2.01-.426-.009-.576-.152-.174-.186-.018-.373.178-.457.662-.353 1.182-.909 1.9-1.172a3.54 3.54 0 012.646.083c.686.31 1.242.83 1.822 1.295.053.043.115.129.062.194-.076.092-.198.049-.26.013-.678-.396-1.33-.75-2.113-.862a.93.93 0 01-.848 1.308m-4.565-4.025c1.767-2.028 5.675-2.648 7.912-1.105.601.394.672.859-.169.976a.3.3 0 01-.255-.09c-1.915-1.852-5.36-1.417-7.215.28-.089.104-.416.147-.273-.061m10.414 7.584c.778 0 1.746.073 1.746.073.33.042.417.147.419.392 0 .267-.095.514-.252.737-.076.108-.183.165-.326.138-.15-.028-.156-.141-.163-.249-.016-.254-.171-.422-.425-.422-.285 0-.247.255-.268.435-.022.182-.044.422-.231.454 0 0-.178.04-.5.04s-.5-.04-.5-.04c-.186-.032-.208-.272-.23-.454-.021-.18.017-.434-.268-.435-.254 0-.41.168-.425.422-.007.108-.014.22-.163.249-.144.027-.25-.03-.326-.138a1.264 1.264 0 01-.252-.737c.001-.245.088-.35.42-.392 0 0 .967-.073 1.744-.073m31.983.598l-16.622-1.542c.016-.112.026-.226.04-.339l13.313.67c.411.02.713-.38.58-.77l-.687-2a.582.582 0 00-.58-.393l-12.508.63c0-.05.003-.097.003-.145 0-.071-.004-.14-.005-.211l8.024-.745a.582.582 0 00.519-.686l-.277-1.483a.582.582 0 00-.684-.465l-7.707 1.507c-.014-.115-.028-.23-.044-.343l12.074-2.896a.582.582 0 00.446-.54l.095-2.113a.582.582 0 00-.774-.575l-12.234 4.27c-.032-.113-.063-.227-.097-.34l15.315-6.083a.582.582 0 00.33-.75c-.3-.762-.626-1.51-.98-2.242a.581.581 0 00-.791-.26l-14.554 7.552c-.05-.11-.1-.22-.154-.33L90.1 93.13a.582.582 0 00.071-.96l-1.66-1.313a.582.582 0 00-.7-.017l-9.76 6.99a15.59 15.59 0 00-.212-.31l5.944-4.65c.27-.21.3-.608.065-.857l-1.034-1.099a.582.582 0 00-.827-.02l-5.346 5.124c-.08-.09-.163-.18-.246-.268l8.293-8.65a.582.582 0 00.083-.696l-1.063-1.829a.582.582 0 00-.962-.066l-7.75 9.909c-.093-.08-.187-.16-.281-.238l9.488-13.25a.582.582 0 00-.13-.81 32.68 32.68 0 00-2.056-1.36.582.582 0 00-.804.21l-8.079 14.08a14.126 14.126 0 00-.322-.198l5.73-11.045a.582.582 0 00-.459-.847l-2.105-.207a.582.582 0 00-.598.365L71.07 91.972c-.12-.05-.24-.098-.362-.145l2.383-6.825a.582.582 0 00-.41-.756l-1.463-.365a.582.582 0 00-.707.43l-1.661 6.927c-.121-.03-.245-.053-.367-.08l2.248-11.5a.582.582 0 00-.306-.63l-1.882-.963a.582.582 0 00-.845.464L66.552 90.86c-.124-.01-.25-.017-.375-.025l.815-16.193a.581.581 0 00-.551-.61 32.14 32.14 0 00-2.466-.016.584.584 0 00-.566.611l.814 16.181c-.128.006-.254.017-.381.025L62.7 78.53a.582.582 0 00-.845-.464l-1.883.964a.582.582 0 00-.306.63L61.9 91.075c-.13.025-.256.055-.383.082l-1.677-6.992a.582.582 0 00-.753-.415l-1.429.484a.582.582 0 00-.362.744l2.344 6.715c-.118.043-.234.089-.35.134l-4.324-10.882a.582.582 0 00-.597-.364l-2.105.207a.582.582 0 00-.46.847l5.72 11.023c-.11.06-.218.122-.326.186l-8.067-14.06a.582.582 0 00-.8-.215c-.708.421-1.4.868-2.072 1.34a.582.582 0 00-.135.814l9.465 13.216c-.1.077-.198.153-.296.233l-7.693-9.835a.582.582 0 00-.961.066l-1.063 1.829a.582.582 0 00.083.695l8.201 8.556c-.089.09-.178.182-.265.275l-5.353-5.132a.582.582 0 00-.859.057l-.94 1.18a.582.582 0 00.097.822l5.822 4.553c-.072.098-.143.196-.213.295l-9.749-6.981a.582.582 0 00-.7.016l-1.658 1.313a.582.582 0 00.071.961l11.038 6.334c-.055.107-.111.214-.164.322l-14.52-7.535a.582.582 0 00-.789.254c-.361.73-.696 1.476-1.003 2.236a.582.582 0 00.327.756l15.262 6.063c-.038.114-.077.228-.112.344l-12.115-4.229a.582.582 0 00-.773.576l.095 2.113c.011.259.193.48.446.54l11.915 2.857c-.02.12-.042.24-.06.36l-7.683-1.502a.582.582 0 00-.691.512l-.153 1.502a.582.582 0 00.526.638l7.844.728c-.003.114-.006.228-.007.343l-12.473-.627a.582.582 0 00-.58.392l-.686 2.001c-.134.39.168.79.58.77l13.24-.666c.012.113.026.225.04.337l-16.586 1.539a.582.582 0 00-.526.641c.091.81.211 1.61.36 2.4.06.315.37.52.685.458l16.397-3.206c.027.11.059.22.089.33l-12.988 3.113a.582.582 0 00-.34.903l1.223 1.726c.15.212.422.298.667.213l12.032-4.2c.044.106.094.21.14.315l-7.735 3.072a.582.582 0 00-.304.805l.683 1.345c.146.289.5.402.787.253l7.415-3.847c.055.092.115.182.173.273L40.54 120.85a.582.582 0 00-.275.644l.504 2.054c.098.4.57.574.904.334l11.18-8.007c.067.083.134.165.203.246l-13.333 10.428a.582.582 0 00-.096.823 32.805 32.805 0 001.585 1.806c.221.234.592.24.824.017L54.3 117.44c.077.074.153.149.23.22l-9.584 9.998a.582.582 0 00.203.943l1.961.792c.24.097.517.023.677-.182l8.132-10.398c.087.065.176.127.264.19l-5.103 7.126a.582.582 0 00.18.84l1.301.763c.28.164.638.068.8-.212l4.34-7.566c.09.05.183.093.274.14l-6.137 11.827a.582.582 0 00.116.69l1.535 1.456c.299.283.79.175.942-.208l5.182-13.045c.095.036.192.07.288.103l-5.623 16.108a.582.582 0 00.36.743 32.53 32.53 0 002.293.675c.313.08.631-.117.706-.43l3.986-16.624c.101.021.2.045.303.065l-2.701 13.813a.582.582 0 00.68.684l2.078-.395a.582.582 0 00.47-.518l1.24-13.356c.105.008.21.016.316.022l-.451 8.96a.582.582 0 00.605.61l1.508-.062a.582.582 0 00.557-.61l-.447-8.885c.101-.004.2-.013.3-.02l1.246 13.43c.024.258.216.47.471.518l2.078.394a.582.582 0 00.68-.683l-2.71-13.864c.1-.018.2-.033.298-.052l3.99 16.639c.075.312.389.508.7.432.778-.19 1.544-.41 2.298-.654a.582.582 0 00.366-.745l-5.628-16.12c.099-.032.198-.063.295-.097l5.185 13.053c.152.383.643.49.942.207l1.535-1.455a.582.582 0 00.116-.69L71.814 120.2c.096-.048.192-.096.287-.146l4.405 7.677c.17.297.56.384.84.187l1.234-.868a.582.582 0 00.139-.815l-5.086-7.102c.084-.057.167-.12.25-.179l8.207 10.494c.16.204.435.278.676.18l1.961-.79a.582.582 0 00.203-.943l-9.648-10.065.229-.21 12.291 11.782c.23.222.6.217.82-.013a32.86 32.86 0 001.598-1.79.582.582 0 00-.093-.828l-13.36-10.45c.07-.08.142-.16.21-.24l11.225 8.037c.335.24.806.066.904-.334l.504-2.054a.582.582 0 00-.275-.644l-11.27-6.466c.063-.094.123-.188.183-.282l7.567 3.927c.304.158.678.02.807-.297l.57-1.398a.582.582 0 00-.325-.76l-7.744-3.077c.046-.098.089-.197.132-.297l12.185 4.254a.582.582 0 00.667-.213l1.222-1.726a.582.582 0 00-.34-.903l-13.101-3.141c.03-.106.058-.213.086-.32l16.453 3.217c.313.061.62-.14.683-.453.157-.787.286-1.584.386-2.39a.582.582 0 00-.526-.648"/></svg>