<svg xmlns="http://www.w3.org/2000/svg" xmlns:xlink="http://www.w3.org/1999/xlink"><symbol id="icon" viewBox="0 0 100 100"><g xmlns="http://www.w3.org/2000/svg"><g><path d="M46.865,71.869l-5.15,18.301l-3.626-5.972c-0.164-0.27-0.453-0.422-0.751-0.422c-0.135,0-0.273,0.031-0.402,0.098    l-6.207,3.205l4.698-16.698c-0.538-0.392-1.018-0.856-1.431-1.397l-5.505,19.564c-0.094,0.336,0.02,0.697,0.291,0.918    c0.27,0.221,0.648,0.26,0.958,0.1l7.274-3.756l4.248,6.999c0.16,0.264,0.446,0.422,0.75,0.422c0.039,0,0.079-0.003,0.118-0.008    c0.346-0.047,0.632-0.295,0.727-0.632l5.939-21.105C48.168,71.63,47.522,71.759,46.865,71.869z" fill="currentColor"></path></g><g><path d="M69.257,90.953l-4.614-21.085c-0.259,0.421-0.532,0.834-0.836,1.231c-0.061,0.08-0.129,0.144-0.196,0.21    c-0.093,0.191-0.204,0.358-0.344,0.482l3.88,17.73l-6.009-3.564c-0.395-0.235-0.907-0.124-1.17,0.256l-3.969,5.748L51.37,70.814    c-0.599-0.011-1.197-0.01-1.794,0.015l5.138,23.48c0.075,0.341,0.345,0.606,0.688,0.673C55.458,94.994,55.515,95,55.572,95    c0.285,0,0.556-0.139,0.723-0.379l4.652-6.736l7.042,4.177c0.138,0.082,0.293,0.123,0.448,0.123c0.007,0.001,0.013,0,0.017,0    c0.485,0,0.878-0.393,0.878-0.878C69.33,91.181,69.305,91.061,69.257,90.953z" fill="currentColor"></path></g><g><g><path d="M59.979,75.292c-1.722,0-3.526-0.896-5.271-1.762c-1.619-0.804-3.293-1.635-4.707-1.635     c-1.414,0-3.089,0.832-4.707,1.635c-1.745,0.866-3.55,1.762-5.272,1.762c-0.482,0-0.943-0.07-1.372-0.21     c-2.224-0.722-3.433-3.054-4.603-5.308c-0.806-1.555-1.64-3.163-2.708-3.94c-1.089-0.793-2.893-1.095-4.638-1.387     c-2.486-0.417-5.056-0.848-6.413-2.711c-1.34-1.842-0.962-4.405-0.597-6.884c0.261-1.763,0.53-3.587,0.105-4.892     c-0.397-1.223-1.595-2.437-2.864-3.723c-1.799-1.823-3.658-3.707-3.658-6.092s1.86-4.269,3.658-6.092     c1.269-1.285,2.467-2.499,2.864-3.723c0.424-1.305,0.155-3.128-0.105-4.892c-0.365-2.479-0.743-5.042,0.597-6.884     c1.356-1.863,3.927-2.294,6.413-2.711c1.745-0.292,3.548-0.595,4.637-1.387c1.069-0.778,1.903-2.385,2.709-3.941     c1.169-2.255,2.378-4.586,4.602-5.308C39.078,5.07,39.539,5,40.021,5c1.722,0,3.526,0.896,5.272,1.762     C46.911,7.566,48.585,8.397,50,8.397c1.414,0,3.089-0.832,4.707-1.635C56.453,5.896,58.257,5,59.979,5     c0.482,0,0.943,0.07,1.372,0.21c2.224,0.722,3.433,3.054,4.603,5.308c0.806,1.555,1.64,3.163,2.708,3.94     c1.089,0.793,2.893,1.095,4.638,1.388c2.486,0.417,5.056,0.848,6.413,2.711c1.34,1.842,0.962,4.405,0.597,6.884     c-0.261,1.763-0.53,3.586-0.105,4.892c0.397,1.223,1.595,2.437,2.864,3.723c1.799,1.823,3.658,3.707,3.658,6.092     s-1.859,4.269-3.658,6.092c-1.269,1.285-2.467,2.499-2.864,3.723c-0.424,1.305-0.155,3.128,0.105,4.892     c0.365,2.479,0.743,5.042-0.597,6.884c-1.356,1.863-3.927,2.294-6.413,2.711c-1.745,0.292-3.548,0.595-4.637,1.387     c-1.069,0.778-1.903,2.385-2.709,3.941c-1.169,2.255-2.378,4.586-4.602,5.308C60.922,75.222,60.461,75.292,59.979,75.292z      M50,70.139c1.826,0,3.688,0.925,5.488,1.819c1.636,0.812,3.181,1.579,4.49,1.579c0.302,0,0.573-0.04,0.83-0.124     c1.538-0.499,2.579-2.506,3.585-4.446c0.9-1.736,1.83-3.531,3.235-4.552c1.423-1.036,3.434-1.373,5.38-1.699     c2.238-0.375,4.351-0.729,5.284-2.013c0.918-1.262,0.608-3.366,0.279-5.594c-0.29-1.964-0.59-3.994-0.039-5.691     c0.525-1.618,1.928-3.039,3.284-4.413c1.55-1.571,3.152-3.194,3.152-4.858s-1.602-3.288-3.152-4.858     c-1.356-1.374-2.759-2.795-3.284-4.413c-0.551-1.697-0.251-3.727,0.039-5.691c0.328-2.228,0.639-4.332-0.279-5.594     c-0.934-1.283-3.047-1.637-5.284-2.012c-1.945-0.326-3.957-0.663-5.381-1.7c-1.402-1.021-2.334-2.816-3.233-4.551     c-1.006-1.94-2.047-3.947-3.586-4.447c-0.257-0.084-0.528-0.124-0.83-0.124c-1.31,0-2.855,0.767-4.49,1.579     c-1.8,0.894-3.662,1.819-5.488,1.819c-1.826,0-3.688-0.925-5.488-1.819c-2.013-0.999-3.947-1.901-5.32-1.455     c-1.538,0.499-2.579,2.506-3.585,4.446c-0.9,1.736-1.83,3.531-3.235,4.552c-1.423,1.036-3.434,1.373-5.38,1.699     c-2.238,0.375-4.351,0.729-5.284,2.013c-0.918,1.262-0.608,3.366-0.279,5.594c0.29,1.964,0.59,3.994,0.039,5.691     c-0.525,1.618-1.928,3.039-3.284,4.413c-1.55,1.571-3.152,3.194-3.152,4.858s1.602,3.288,3.152,4.858     c1.356,1.374,2.759,2.795,3.284,4.413c0.551,1.697,0.251,3.727-0.039,5.691c-0.328,2.228-0.639,4.332,0.279,5.594     c0.934,1.283,3.047,1.637,5.284,2.012c1.945,0.326,3.957,0.664,5.381,1.7c1.402,1.021,2.334,2.816,3.233,4.551     c1.006,1.941,2.047,3.947,3.586,4.447c1.373,0.447,3.307-0.456,5.32-1.455C46.312,71.064,48.174,70.139,50,70.139z" fill="currentColor"></path></g></g><g><polygon points="64.046,30.549 49.442,49.743 46.72,53.314 44.003,49.743 37.71,41.475 40.428,37.898 46.72,46.167 61.328,26.978       " fill="currentColor"></polygon></g></g></symbol></svg>