<svg xmlns="http://www.w3.org/2000/svg" xmlns:xlink="http://www.w3.org/1999/xlink"><symbol id="icon" viewBox="0 0 100 100"><g xmlns="http://www.w3.org/2000/svg"><polygon points="32.302,36.596 5.979,25.908 11.448,23.911 37.458,34.471  " fill="currentColor"></polygon></g><g xmlns="http://www.w3.org/2000/svg"><polygon points="44.692,31.671 18.37,20.983 23.838,18.986 49.849,29.546  " fill="currentColor"></polygon></g><g xmlns="http://www.w3.org/2000/svg"><polygon points="55.466,27.309 29.144,16.621 34.612,14.624 60.623,25.184  " fill="currentColor"></polygon></g><g xmlns="http://www.w3.org/2000/svg"><polygon points="31.531,47.455 7.105,37.538 5.208,32.566 31.499,43.226  " fill="currentColor"></polygon></g><g xmlns="http://www.w3.org/2000/svg"><polygon points="31.531,56.002 13.015,48.446 11.32,43.553 31.499,51.772  " fill="currentColor"></polygon></g><g xmlns="http://www.w3.org/2000/svg"><polygon points="31.531,64.634 21.308,60.437 19.025,55.304 31.499,60.404  " fill="currentColor"></polygon></g><g xmlns="http://www.w3.org/2000/svg"><path d="M35.526,72.919l29.345,12.457l0.001-33.399L35.526,39.506V72.919z M40.088,46.218l20.614,8.752v23.448l-20.614-8.751   V46.218z" fill="currentColor"></path><path d="M83.089,44.584v-0.427l-1.156,0.494l1.156-0.501l-0.502-0.204l11.911-5.051L65.264,27.309L36.06,38.882l29.204,12.411   l12.243-5.192l0.534,0.217v0.407l-12.386,5.253l-0.001,33.399L95,72.919V39.532L83.089,44.584z M83.839,39.251l-6.266,2.659   l-18.568-7.54l6.259-2.48L83.839,39.251z M65.264,47.137l-18.576-7.885l7.06-2.798l18.748,7.613L65.264,47.137z M90.26,69.539   L70.004,78.14V55.098l8.037-3.412v5.479l1.245-2.58l0.846,0.48l0.78-1.84l0.724,1.013l0.613-0.613l0.84,1.382v-5.465l7.171-3.044   V69.539z" fill="currentColor"></path></g><path xmlns="http://www.w3.org/2000/svg" d="M87.667,57.529c0,1.296-1.052,2.787-2.35,3.331c-1.296,0.541-2.348-0.07-2.348-1.367c0-1.299,1.052-2.79,2.348-3.331  C86.615,55.619,87.667,56.231,87.667,57.529z" fill="currentColor"></path><path xmlns="http://www.w3.org/2000/svg" d="M80.641,60.467c0,1.296-1.052,2.786-2.351,3.329c-1.296,0.543-2.348-0.071-2.348-1.367c0-1.297,1.052-2.789,2.348-3.331  C79.589,58.557,80.641,59.169,80.641,60.467z" fill="currentColor"></path><path xmlns="http://www.w3.org/2000/svg" d="M81.579,70.204c-3.589,1.5-6.657,0.217-7.294-3.05l1.738-1.039c0.484,2.489,2.822,3.467,5.556,2.324  c2.737-1.144,5.074-4.074,5.559-6.969l1.738-0.414C88.239,64.856,85.171,68.704,81.579,70.204z" fill="currentColor"></path></symbol></svg>