<svg width="160" height="160" xmlns="http://www.w3.org/2000/svg"><path d="M75.813 145.633c-.193-.053-.364-.1-.508-.146-.197-.063-.472-.134-.791-.217-1.994-.514-6.144-1.585-6.144-4.629 0-2.554 2.038-3.718 3.93-3.718.863 0 1.708.242 2.38.68 2.327 1.518 3.58 5.585 3.663 6.875l.009.137h.593l-.04-8.439h-.477l-.043.043c-.007.008-.737.73-1.742.73-.449 0-1.012-.177-1.665-.38-.851-.267-1.817-.569-2.833-.569-1.683 0-6.568 1.661-6.568 6.748 0 4.6 3.09 5.688 4.934 6.338.153.054.297.105.43.154.272.102.632.212 1.049.34 2.19.67 5.853 1.794 5.853 4.403 0 3.587-3.124 3.974-4.467 3.974-1.947 0-4.54-1.052-5.981-4.004-1.387-2.84-1.447-4.209-1.447-4.222l-.005-.143h-.635v8.615h.487l.044-.055c.006-.008.581-.717 1.385-.717.311 0 .963.21 1.719.455 1.284.415 3.043.984 4.549.984 2.66 0 7.413-2.443 7.413-7.31 0-4.523-3.44-5.471-5.092-5.927zm-16.414 6.815c0-4.367-1.67-5.3-4.178-5.356h-3.112v10.411l2.936.048c4.042 0 4.354-2.115 4.354-5.103zm-7.29-6.388h3.407c1.466 0 2.983 0 2.983-4.305 0-4.412-1.912-4.412-3.935-4.412h-2.455v8.717zm11.905 6.067c0 2.441-1.683 3.953-3.095 4.792-1.643.975-3.794 1.557-5.754 1.557h-11.85v-.95h3.72v-20.183h-3.72v-.92h11.31c5.057 0 8.187 2.795 8.187 5.386 0 2.49-1.467 3.933-4.873 4.739 1.843.366 6.075 1.636 6.075 5.58zm30.424-15.694v.922h2.671v13.079l-9.336-14.001H80.57v.922h2.654v20.279H80.57v.833h6.19v-.833h-2.522v-17.928l12.417 18.731h1.207v-21.082H100v-.922h-5.562zm-83.205 4.294c-4.574 0-8.344 2.951-10.35 6.593 1.986 3.661 5.737 6.715 10.35 6.734 4.693.02 8.383-3.073 10.35-6.734-1.967-3.661-5.697-6.593-10.35-6.593zm11.232 6.674c0 6.254-5.029 11.327-11.232 11.327C5.029 158.728 0 153.655 0 147.4c0-6.255 5.029-11.327 11.233-11.327 6.203 0 11.232 5.072 11.232 11.327zm-16.934 0c0 3.175 2.553 5.75 5.702 5.75s5.701-2.575 5.701-5.75c0-3.176-2.552-5.75-5.701-5.75-3.149 0-5.702 2.574-5.702 5.75zm36.226-10.79l.308-.22v9.047l-.287-.882c-.411-1.264-2.688-7.567-7.164-7.567-3.584 0-5.401 3.503-5.401 10.412 0 5.145.642 8.547 1.808 9.58l.043.038c.818.789 2.874.789 3.55.789 4.084 0 6.519-4.67 7.16-7.808l.291-1.428v9.629l-.308-.22c-.68-.486-.99-.708-1.707-.708-.79 0-1.846.429-2.364.717-.523.292-1.805.755-3.015.755-2.498 0-5.013-.984-6.901-2.7-1.595-1.449-3.496-4.125-3.496-8.644 0-6.926 6.827-11.344 10.397-11.344 1.078 0 2.271.245 2.903.597.565.315 1.72.665 2.476.665.718 0 1.028-.222 1.707-.708z" fill="#F2F2F2" fill-rule="nonzero"/></svg>