<svg width="160" height="160" xmlns="http://www.w3.org/2000/svg"><path d="M6.586 150.932H4.093v-2.129h2.493c.689 0 1.337.325 1.337 1.054 0 .75-.648 1.075-1.337 1.075zm5.511 7.823l-2.452-4.783c1.074-.527 2.432-1.763 2.432-4.094 0-2.534-1.702-4.642-4.863-4.642H0v13.52h4.093v-4.257h1.48l1.864 4.256h4.66zm12.939 0v-3.567h-6.16v-1.48h6.018v-3.567h-6.018v-1.338h6.16v-3.567H14.782v13.52h10.254zm9.392-3.567h-1.945v-6.385h1.966c2.188 0 3.242 1.358 3.242 3.183 0 1.702-1.216 3.202-3.263 3.202zm.02 3.567c4.236 0 7.397-2.452 7.397-6.77 0-4.317-3.161-6.749-7.417-6.749H28.39v13.52h6.059zm18.164-8.645c-1.556-1.537-1.806-2.21-1.806-3.189 0-1.191.596-1.825 1.364-1.825.941 0 1.518.75 1.518 2.075 0 1.287-.27 2.113-1.076 2.94zm-2.382 1.307c1.325 1.152 2.997 2.958 3.746 4.15-.557.71-1.364 1.056-2.036 1.056-1.537 0-2.632-.96-2.632-2.67a3.8 3.8 0 01.922-2.536zm5.551 1.902c-.557-.903-1.632-1.922-2.708-2.805 1.94-.634 2.823-1.749 2.823-2.978 0-1.364-1.133-2.748-3.63-2.748-2.478 0-3.899 1.48-3.899 3.343 0 1.019.365 1.902 1.537 2.998-2.478.806-3.362 2.132-3.362 3.688 0 1.98 1.537 3.209 3.592 3.209 1.92 0 3.17-.807 4.034-2.152 1.018 1.768 1.805 2.152 3.054 2.152 1.19 0 2.343-.711 3.38-1.94l-.153-.174c-.577.365-.826.462-1.21.462-.846 0-1.71-.365-3.189-2.748.461-.884.941-1.326 1.383-1.595l.077.058c-.02.077-.02.096-.02.173 0 .826.634 1.518 1.46 1.518s1.499-.692 1.499-1.518c0-.98-.711-1.671-1.767-1.671-.826 0-2.075.46-2.9 2.728zm16.772-3.095h-3.16v-1.581h3.16c.426 0 .81.304.81.77a.8.8 0 01-.81.81zm.122 5.128h-3.283v-1.723h3.283c.587 0 .952.385.952.871 0 .507-.365.852-.952.852zm1.114 3.405c2.716 0 3.992-1.784 3.992-3.669 0-1.743-1.114-3.08-2.573-3.304 1.317-.283 2.31-1.419 2.31-3.1 0-1.582-1.216-3.447-4.012-3.447h-8.207v13.52h8.49zm16.566 0v-3.568h-5.127v-9.952h-4.093v13.52h9.22zm9.37.243c4.559 0 6.666-2.453 6.666-5.817v-7.946h-4.154v7.824c0 1.297-.85 2.331-2.512 2.331-1.682 0-2.533-1.034-2.533-2.33v-7.825h-4.154v7.966c0 3.344 2.127 5.797 6.687 5.797zm20.275-.243v-3.568h-6.16v-1.48h6.018v-3.566h-6.018v-1.338H120v-3.568h-10.253v13.52H120zm-93.483-24.871h67.132v.67H26.517v-.67zm18.473-30.294h-5.219v-8.036h5.219c2.766 0 3.966 1.618 3.966 4.07 0 2.453-1.253 3.966-3.966 3.966zm29.246-8.453h4.488c1.826 0 3.079 1.252 3.079 2.974 0 1.722-1.253 2.87-3.079 2.87h-4.488v-5.844zm5.166 20.038h-5.166v-6.836h5.218c2.297 0 3.653 1.2 3.653 3.34 0 2.191-1.408 3.496-3.705 3.496zm8.089-11.428c2.452-1.096 4.383-4.07 4.383-7.306 0-5.218-4.957-9.55-11.167-9.55H60.982v8.767h3.235v18.995h-8.373l-3.079-5.062c4.175-1.826 6.419-5.218 6.419-10.071 0-7.671-5.427-12.629-14.82-12.629H26.517v8.767h3.235v18.995h-3.235v8.767h15.342v-8.767h-2.088v-3.079h2.505l6.68 11.846h31.386c8.036 0 13.307-4.227 13.307-10.645 0-4.227-2.297-7.515-6.158-8.82v-.208z" fill="#F2F2F2" fill-rule="evenodd"/></svg>