<svg xmlns="http://www.w3.org/2000/svg" viewBox="0 0 70.84 84.75"><defs><style>.a{opacity:0.04;}.a,.b,.c{isolation:isolate;}.b{opacity:0.2;}.c{opacity:0.9;}</style></defs><title>about-values</title><path class="a" d="M70.6,83.3c-2.2.8-8.5,1.4-8.7,1.5-8.2,1.5-17.6,2.5-24.8-1.3S23.3,71,18.9,63.2c-2.7-8-2.1-17.7-.5-25.8-2.6,6.1-4.8,12.6-3.6,22S24,80,30.1,83.7c7.3,4.9,23.6,6.5,30.9,4S71.8,82.9,70.6,83.3Z" transform="translate(-14.28 -5.17)"/><path class="b" d="M76.2,29.9H76a.88.88,0,0,0-.9-.7c-1.4-.1-5.1,0-5.2-.1.6-.9,1.3-1.7,1.9-2.6.8-1-1-2-1.7-1-.5.7-1,1.3-1.5,2l-.3-2V23.7c.1-1.3-1.9-1.3-2,0,0,.2-.1,5.5.4,6.3l-2.6,3.2c-5.3-3.7-14.2-3.4-17.7-2.8-5.6.7-14.5,5.4-17.5,10.8-4,5.3-4.4,17.4-.4,24.4,3.8,6.1,10.7,11.6,17.8,12.8a34.62,34.62,0,0,0,12.9-1.2c10.2-3,15.3-11.4,15.5-19.3-.1-2.7,0-5.8-.7-8.3-1-5-5.7-13.6-8.1-15.2l2.7-3.6c.1.1,5.1.8,7.3,1.1a1,1,0,0,0,.3-2ZM63.8,59.8c-4.1,8.1-11.2,9.8-19.3,7s-10.6-14-7.7-19.7c4.1-5.9,8.4-7.2,13.1-7.7a12.91,12.91,0,0,1,8.2,2l-2.5,3.3c-.5-.4-1.1-.8-1.7-.5s-2.7,4.6-3.3,4.6c-2-.1-3.7,1.7-4.5,3-.8,1.6,0,4.3,1.8,5.6a5.67,5.67,0,0,0,5.5.1c1.8-1.1,2-3,1.7-5,.5-.3.9-.6,1.4-.9a42.08,42.08,0,0,1,4.3-2.5,1,1,0,0,0,.2-1.8c-.7-.4-2.8-1.6-3.1-1.7.8-1.1,1.4-1.7,2.2-2.8A15,15,0,0,1,63.8,59.8Z" transform="translate(-14.28 -5.17)"/><path class="c" d="M55,52.5a6.15,6.15,0,0,0-1.2-1.9c-.5.4,0,.8.3,1.2a4.79,4.79,0,0,1,.7,2,3.77,3.77,0,0,1-1.4,3.3,4.8,4.8,0,0,1-5.9-.2c-2.6-2.3-1.1-7.1,2.1-8-4,.7-5.3,6.3-1.7,8.5C51.1,59.4,56.8,56.9,55,52.5Zm9.8-3.7a14.61,14.61,0,0,0-8.6-8.6c-.1.3,2.5,1.7,2.7,1.8a13.75,13.75,0,0,1,3.3,3.5,15.18,15.18,0,0,1,2.4,9.7A14,14,0,0,1,54,67.6,15.36,15.36,0,0,1,38.1,61c-3.1-4.9-3.1-11.8.8-16.2a16.76,16.76,0,0,1,9.5-5.3,11.45,11.45,0,0,1,3.2-.1,11.54,11.54,0,0,0,2.6.1,17.05,17.05,0,0,0-15.9,4.8C34.4,48.4,34,55,36.4,60c3.8,8,15.3,11,22.6,5.9C64.3,62.2,67,54.9,64.8,48.8Zm20.3,4.8c-.3-12.4-5.7-25.5-17-31.8,1.5-.4,3.5-.4,4.9-1.2,1-.6,1-2.1-.2-1.9-2.9.4-5.4,1.1-8.3,1.4.4-.9,1-2.4,1.5-3.3,1-.3,2.8-.9,3.6-1.1,2.2-.5,2-.6,4.2-1.2,1.7-.5,1.6-2.3-.4-2-2.2.3-4.2,1.3-6.3,1.8.6-1.3,2.7-3.8,2-5.3-.5-1.2-1.6-.3-2,.4-.8,1.5-1.4,3.1-2.1,4.6-.7-2.1-1.4-4.2-2.1-6.4-.2-.7-.7-2.7-1.7-2.4-1.4.4-.5,2.7-.1,3.5.7,1.8,1.5,3.7,2.1,5.5a16.55,16.55,0,0,1,.6,2.1A40.55,40.55,0,0,1,62,20a40.45,40.45,0,0,1-2.2-5c-.2-.5-1.6-5.2-2.8-3-.4.8.2,2.2.5,2.8.4,1.3,1,2.5,1.5,3.7-11.2-1.8-23.5,1.9-32.3,8.8S14,45.4,14.3,56.4a31.59,31.59,0,0,0,5.4,16.8A37.66,37.66,0,0,0,32.4,85.6c9.9,5.8,23.2,5.4,33.6.9A29.41,29.41,0,0,0,80.4,74.2C84,68,85.3,60.7,85.1,53.6ZM82.7,67.2C79.4,78.2,69.3,84.9,58.5,87A41.81,41.81,0,0,1,38,86c-6.2-2.1-11.2-6.4-15.1-11.5-8.1-10.5-10.1-26-3.6-37.9C24.7,26.5,35.9,21.2,47,20c3.8-.4,8.7-.6,12.4.4A9.2,9.2,0,0,1,60.5,23a19.31,19.31,0,0,1-1.2,4.1A34.23,34.23,0,0,0,58,30.5,30.33,30.33,0,0,0,32.9,37c-7.3,6.3-9,16.2-6.1,25.2A25,25,0,0,0,43,78.3c7.6,2.3,17,.9,23.3-4.2,7.4-5.9,10.3-15.8,8.1-24.9a34.27,34.27,0,0,0-5.6-12.1,16.72,16.72,0,0,0-4.5-4.3,20.28,20.28,0,0,0-4.2-2H60l.6-1.5c.5-1.3,1-2.5,1.6-3.8.4-1,1.3-2.3,1.6-3.2a7.6,7.6,0,0,1,3.3,1.1,20.45,20.45,0,0,1,3.1,2C77.7,30.8,82.6,39.6,84,48.7A43.07,43.07,0,0,1,82.7,67.2ZM59.6,31.6a19.35,19.35,0,0,1,10.3,8.8c2.8,4.7,4.9,10.1,4.8,15.6A22.58,22.58,0,0,1,59.8,76.7c-10.4,3.6-22.3.7-28.9-8.5-5.2-7.2-6.7-17.8-2.4-25.8C31.1,37.5,36,34,41.1,32A28,28,0,0,1,51,30.2a25.92,25.92,0,0,1,4.8.4c.5.1,1.3.4,1.8.5-1,2.6-3.7,9.9-4.1,10.9-.2.6-.5,2.6-1,3-1.3-.4-2.9-1.1-3.9-1.5.9,3.5.7,7.3,1.8,10.7,2-3.2,5.2-5.2,7.9-7.8-.4.4-3.7-.7-4.1-.8C56,41,57.7,36.3,59.6,31.6Z" transform="translate(-14.28 -5.17)"/></svg>