<svg xmlns="http://www.w3.org/2000/svg" viewBox="0 0 80 82">
  <defs>
    <style>
      .a {
        fill: #c1c1c1;
      }

      .b {
        fill: #e6e6e6;
      }
    </style>
  </defs>
  <title>male</title>
  <g>
    <path class="a" d="M79.72.28V79.72H.28V.28H79.72M80,0H0V80H80V0Z"/>
    <path class="b" d="M49.89,59c-2-.31-2-5.74-2-5.74s5.8-5.74,7.06-13.46c3.4,0,5.5-8.21,2.1-11.1.14-3,4.37-23.87-17-23.87S22.82,25.68,23,28.73c-3.4,2.89-1.3,11.1,2.1,11.1,1.26,7.72,7.06,13.46,7.06,13.46s0,5.43-2,5.74C23.75,60,0,70.52,0,82H80C80,70.52,56.25,60,49.89,59Z"/>
  </g>
</svg>
