<svg width="40" height="40" viewBox="0 0 40 40" xmlns="http://www.w3.org/2000/svg">
    <path class="uk-fill-primary" fill="#c6e3f7" d="M33.6 19.3l-3.6 1c.1-.3.1-.5.2-.8 2.1-1.5 4.1-3.1 6.2-4.6 2-1.5 3.1-3.8 2.1-6.3-.9-2.1-3.6-3.9-5.9-2.9-1.1.5-2.3.9-3.4 1.4-.2-.6-.5-1.2-.9-1.7-2.7-3.9-7.5-4-11.6-2.6-.3.1-.6.2-.9.4-1.4-.3-2.8-.2-4.1.4-4.4 1.9-7.8 5-10.5 8.8-.7 1-.9 2.1-.8 3-.3 1.3.1 2.7.9 3.9-1.5 2.2-.8 5.6 1.1 7.3C0 29.7 1.3 34.7 6 34.8h2.5c.5.4 1 .6 1.7.7.7.9 1.5 1.7 2.5 2.3 5.5 3.1 9.8-.9 14.8-2.6 1.5-.5 2.6-1.5 3.2-2.8 2.3-1.3 4.6-2.7 6.9-4 4.7-2.8 1.5-10.6-4-9.1"/>
    <path class="uk-fill-default" opacity=".9" d="M37.8 23.6c-.4 2.5-1.3 4.9-2.6 7.1-1.3 2.1-3.2 4-5.3 5.4-2.1 1.4-4.6 2.2-7 2.6-2.5.4-5 .4-7.5.2-2.5-.3-4.9-.9-7.1-2.2-2.2-1.2-3.9-3.2-4.9-5.5h.1c1.1 2.2 2.9 4 5 5.1 2.2 1.1 4.6 1.6 7 1.8 2.4.2 4.9.1 7.2-.3 2.4-.5 4.7-1.2 6.7-2.6 4-2.6 6.7-7 7.6-11.7.8-4.7 0-9.8-2.6-13.9-.1-.2-.3-.4-.4-.6-.7.9-1.4 1.9-2 2.8-1.7 2.4-3.2 5-4.8 7.5-1.6 2.5-3.1 5.1-4.8 7.6A33.01 33.01 0 0 1 18 32c-.3.2-.6.5-.9.7-.2.1-.3.2-.5.3-.2.1-.4.2-.8.1-.2 0-.4-.1-.4-.2-.1-.1-.2-.2-.2-.3-.1-.2-.2-.3-.3-.5-.2-.3-.3-.7-.5-1-.3-.7-.5-1.4-.7-2.1L12 24.9c-.5-1.4-.9-2.8-1.4-4.1-.5-1.4-1-2.7-1.7-4 .8 1.2 1.4 2.5 2 3.9.6 1.3 1.1 2.7 1.6 4.1l1.5 4.1c.3.7.5 1.3.8 2 .1.3.3.6.4.9.1.2.2.3.2.4 0 .1.1.1.1.2 0 0 .4-.2.7-.3.3-.2.6-.4.8-.7.5-.5 1-1 1.5-1.6 1-1.1 1.9-2.2 2.7-3.4l4.8-7.5c1.6-2.5 3.3-5 5.1-7.4.7-1 1.5-1.9 2.3-2.8-1.3-1.6-2.8-2.9-4.6-3.9a15.3 15.3 0 0 0-6.9-2c-2.4-.1-4.9.2-7.2 1s-4.4 2.1-6.2 3.7c-3.7 3.1-6.4 7.4-7.4 12.2-.5 2.4-.6 4.8-.1 7.2.5 2.4 1.4 4.7 2.9 6.6l.1-.2a14.4 14.4 0 0 1-3.4-6.6c-.6-2.4-.6-5-.1-7.5s1.4-4.8 2.7-7c1.3-2.1 3-4.1 4.9-5.6C10 5 12.3 3.8 14.7 3.1c2.4-.7 4.9-1 7.4-.8 4.5.3 8.9 2.4 11.9 5.9 1-1.2 2.2-2.4 3.3-3.5-1.1 1.2-2.1 2.5-3 3.8.2.2.4.5.6.8 2.7 4.1 3.7 9.3 2.9 14.3z"/>
</svg>