<?xml version="1.0" encoding="utf-8"?>
<!-- Generator: Adobe Illustrator 21.0.0, SVG Export Plug-In . SVG Version: 6.00 Build 0)  -->
<svg version="1.1" xmlns="http://www.w3.org/2000/svg" xmlns:xlink="http://www.w3.org/1999/xlink" x="0px" y="0px"
	 viewBox="0 0 1071.7 195.1" style="enable-background:new 0 0 1071.7 195.1;" xml:space="preserve">
<style type="text/css">
	.st0{fill:#1DAAE3;}
</style>
<g id="Слой_1">
	
		<image style="display:none;overflow:visible;" width="950" height="200" xlink:href="render.png"  transform="matrix(1 0 0 1 0.2206 -0.4913)">
	</image>
	<g id="Слой_4">
	</g>
	<g id="Слой_6">
	</g>
	<g id="Слой_8">
	</g>
	<g id="Слой_11">
	</g>
	<g id="Слой_9">
	</g>
	<g id="Слой_10">
		<g>
			<path class="st0" d="M467.5,110.1c-6.6-21.6-34.1-31.3-34.1-31.3c-12.1-4-22.3-5.3-41.3-6.1c-6.1-0.2-24.6,0.1-24.6,0.1L340.3,72
				c-13.5-0.8-17.8-5.8-17.8-5.8c-6.4-8.5,0.4-14.8,0.4-14.8c8.3-7,33.2-5.6,33.2-5.6c24.8,0.3,41,1.4,41,1.4
				c44.8,2.8,63.8,3.6,63.8,3.6l3.7-43.1l-0.1-1.4c-31.8-4.1-58.9-5.4-78.2-6c-14.9-0.5-26.6,0.1-50,1.3c-2.4,0.1-14.6,0.8-28,4.3
				c-2.4,0.6-6.3,1.7-11,3.7c-5.2,2.1-9.3,3.8-13.7,7.3c-5.2,4.2-8.1,8.7-9.7,11.3c-3.7,6-5.1,11.4-6,14.7c-1.7,6.7-1.9,11.9-2,17
				c-0.2,7.1-0.3,13.2,2,20.7c1,3.3,2.8,9,7.3,14.7c6.5,8.1,14.6,11.4,22,14.3c7.6,3,13.8,4.1,19,5c10.5,1.8,18,1.7,28.3,1.7
				c23.8,0,35.6,0.4,37.3,0.3c0,0,7.2-0.4,20,2c1.1,0.2,4.4,0.8,8,3c2.1,1.3,4.7,2.9,6,6c0.7,1.8,2,3.3,2,5.6
				c-0.1,4.3,2.1,1.5,2.3,2.4c0.6,2.6,10.1,1,50.8-0.1C470.6,118.4,467.5,110.1,467.5,110.1z"/>
			<path class="st0" d="M273.7,85.1c6.6,21.6,35.8,23.5,35.8,23.5c12.1,4,16.8,3.5,35.8,4.2c6.1,0.2,28-3.2,28-3.2l24.5,7.4
				c13.5,0.8,18.4,10.8,18.4,10.8c3.3,8.7-0.1,16-6.1,18.9c-7.8,3.8-27.6,3.9-27.6,3.9c-24.3,0.6-60-1.5-60-1.5
				c-44.8-2.8-49.5-4.2-49.5-4.2l-4.8,43.5l0,0c31.8,4.1,63.3,5.8,82.6,6.4c14.9,0.5,26.6-0.1,50-1.3c2.4-0.1,14.6-0.8,28-4.3
				c2.4-0.6,6.3-1.7,11-3.7c5.2-2.1,9.3-3.8,13.7-7.3c5.2-4.2,8.1-8.7,9.7-11.3c3.7-6,5.1-11.4,6-14.7c1.7-6.7,2.5-11.7,2.6-16.8
				c0.2-7.1-0.3-13.4-2.6-20.9c-1-3.3-2.8-9-7.3-14.7c-6.5-8.1-14.6-11.4-22-14.3c-7.6-3-13.8-4.1-19-5c-10.5-1.8-18-1.7-28.3-1.7
				c-23.8,0-35.6-0.4-37.3-0.3c0,0-7.2,0.4-20-2c-1.1-0.2-4.4-0.8-8-3c-2.1-1.3-4.7-2.9-6-6c-0.7-1.8-2.7-2.7-2.7-5
				c0.1-4.3-0.8-2.1-1-3.1c-0.6-2.6-9-1.9-49.8-0.8C268.2,75.8,273.7,85.1,273.7,85.1z"/>
			<path class="st0" d="M222.9,50.1c-11.3-20.5-20.3-29.3-44.6-39.1c-15.3-6.2-43.4-10.1-61.6-10.1c-21.9,0-50.9,4-68.4,12.7
				c-17,8.5-24.1,14.9-34,29.2C4.4,57.1,0.3,80.3,0.3,98c0,14.3,4.1,37.4,10.7,49.6c9.1,16.8,15.9,23.4,34.2,33.5
				c18.3,10.1,47.8,14.1,71.4,14.1c15.4,0,40.1-2.5,53.6-7.1c20.6-6.9,31.7-13.9,44.5-28.8C228.4,143.4,233,119.1,233,98
				C233,83.5,229.6,62.4,222.9,50.1z M169.1,132.2c-6.8,8.4-12.7,12.2-23.8,16.1c-7.2,2.5-20.4,4-28.6,4c-12.6,0-28.3-2.2-38.1-7.9
				c-9.8-5.6-13.4-9.4-18.3-18.8c-3.6-6.9-5.7-19.8-5.7-27.8c0-9.9,2.2-23,7.4-31c5.3-8.1,9.1-11.6,18.2-16.4
				c9.3-4.9,24.8-7.2,36.5-7.2c9.7,0,24.7,2.2,32.9,5.7c13,5.5,17.8,10.4,23.8,22c3.6,6.9,5.4,18.8,5.4,26.9
				C178.9,109.6,176.4,123.3,169.1,132.2z"/>
			<path class="st0" d="M1061.3,50.1C1050,29.6,1041,20.9,1016.7,11c-15.3-6.2-43.4-10.1-61.6-10.1c-21.9,0-50.9,4-68.4,12.7
				c-17,8.5-24.1,14.9-34,29.2c-9.8,14.3-14,37.5-14,55.2c0,14.3,4.1,37.4,10.7,49.6c9.1,16.8,15.9,23.4,34.2,33.5
				c18.3,10.1,47.8,14.1,71.4,14.1c15.4,0,40.1-2.5,53.6-7.1c20.6-6.9,31.7-13.9,44.5-28.8c13.7-15.9,18.3-40.2,18.3-61.3
				C1071.5,83.6,1068.1,62.5,1061.3,50.1z M1007.5,132.3c-6.8,8.4-12.7,12.2-23.8,16.1c-7.2,2.5-20.4,4-28.6,4
				c-12.6,0-28.3-2.2-38.1-7.9c-9.8-5.6-13.4-9.4-18.3-18.8c-3.6-6.9-5.7-19.8-5.7-27.8c0-9.9,2.2-23,7.4-31
				c5.3-8.1,9.1-11.6,18.2-16.4c9.3-4.9,24.8-7.2,36.5-7.2c9.7,0,24.7,2.2,32.9,5.7c13,5.5,17.8,10.4,23.8,22
				c3.6,6.9,5.4,18.8,5.4,26.9C1017.3,109.7,1014.8,123.3,1007.5,132.3z"/>
			<rect x="488" y="2.8" class="st0" width="230.2" height="45.2"/>
			<rect x="576" y="43.2" class="st0" width="55" height="149.6"/>
			<rect x="747" y="2.9" class="st0" width="55" height="189.9"/>
		</g>
	</g>
</g>
<g id="Слой_2">
</g>
</svg>
