<svg xmlns="http://www.w3.org/2000/svg" viewBox="0 0 98 18"><defs><style>.a{fill:#ffda00;}</style></defs><title>stars5</title><polygon class="a" points="9 0 11.78 5.92 18 6.88 13.5 11.49 14.56 18 9 14.92 3.44 18 4.5 11.49 0 6.88 6.22 5.92 9 0"/><polygon class="a" points="29 0 31.78 5.92 38 6.88 33.5 11.49 34.56 18 29 14.92 23.44 18 24.5 11.49 20 6.88 26.22 5.92 29 0"/><polygon class="a" points="49 0 51.78 5.92 58 6.88 53.5 11.49 54.56 18 49 14.92 43.44 18 44.5 11.49 40 6.88 46.22 5.92 49 0"/><polygon class="a" points="69 0 71.78 5.92 78 6.88 73.5 11.49 74.56 18 69 14.92 63.44 18 64.5 11.49 60 6.88 66.22 5.92 69 0"/><polygon class="a" points="89 0 91.79 5.92 98 6.88 93.5 11.49 94.57 18 89 14.92 83.44 18 84.5 11.49 80 6.88 86.22 5.92 89 0"/></svg>