<svg xmlns="http://www.w3.org/2000/svg" viewBox="0 0 98.02 18">
  <defs>
    <style>
      .a {
        fill: #ffda00;
      }

      .b {
        opacity: 0.15;
        isolation: isolate;
      }
    </style>
  </defs>
  <title>stars3</title>
  <polygon class="a" points="9 0 11.78 5.93 18 6.88 13.5 11.49 14.56 18 9 14.93 3.44 18 4.5 11.49 0 6.88 6.22 5.93 9 0"/>
  <polygon class="b" points="89.02 0 91.8 5.92 98.02 6.88 93.52 11.49 94.58 18 89.02 14.93 83.46 18 84.52 11.49 80.02 6.88 86.24 5.92 89.02 0"/>
  <polygon class="a" points="29 0 31.78 5.93 38 6.88 33.5 11.49 34.56 18 29 14.93 23.44 18 24.5 11.49 20 6.88 26.22 5.93 29 0"/>
  <polygon class="a" points="49 0 51.78 5.93 58 6.88 53.5 11.49 54.56 18 49 14.93 43.44 18 44.5 11.49 40 6.88 46.22 5.93 49 0"/>
  <polygon class="b" points="69.02 0 71.8 5.92 78.02 6.88 73.52 11.49 74.58 18 69.02 14.93 63.46 18 64.52 11.49 60.02 6.88 66.24 5.92 69.02 0"/>
</svg>
