<?xml version="1.0" encoding="utf-8"?><svg viewBox="0 0 108 108" xmlns="http://www.w3.org/2000/svg" xmlns:xlink="http://www.w3.org/1999/xlink"><style>:root>svg{display:none}:root>svg:target{display:block}</style><svg fill="none" viewBox="0 0 41 24" id="arrow" xmlns="http://www.w3.org/2000/svg"><path d="M19.75 23.153a1 1 0 001.5 0l18.998-21.49c.57-.646.112-1.663-.75-1.663H1.502C.64 0 .181 1.017.752 1.662l18.999 21.49z" fill="#147EBA"/></svg><svg fill="none" viewBox="0 0 36 36" id="badge" xmlns="http://www.w3.org/2000/svg"><path d="M13.5 18l3 3 6-6" stroke="#248C99" stroke-width="3.667" stroke-linecap="round" stroke-linejoin="round"/><path d="M18 4.5A18 18 0 0030.75 9 18 18 0 0118 31.5 18 18 0 015.25 9 18 18 0 0018 4.5" stroke="#248C99" stroke-width="3.667" stroke-linecap="round" stroke-linejoin="round"/></svg><svg fill="none" viewBox="0 0 108 108" id="buy" xmlns="http://www.w3.org/2000/svg"><circle cx="54" cy="54" r="51.5" stroke="#147EBA" stroke-width="5"/><path d="M46.502 66.21a.928.928 0 00-.133-.323.86.86 0 00-.248-.248.885.885 0 00-.324-.134.887.887 0 00-.674.134.858.858 0 00-.247.248.85.85 0 00-.134.323.884.884 0 00.134.674.853.853 0 00.247.248.908.908 0 00.674.134.885.885 0 00.654-.537.898.898 0 00.051-.519z" fill="#000"/><path d="M72.328 66.487a.78.78 0 00-.011-.027c-.827-1.935-2.767-2.65-5.062-1.866l-6.259 1.73c-.362-1.095-1.265-2.028-2.54-2.501l-.025-.009-6.88-2.335c-.573-.74-2.367-2.634-5.725-2.634-2.347 0-4.424 1.61-5.612 3.365h-8.316a.898.898 0 00-.898.898v11.328c0 .496.402.898.898.898h5.342a.898.898 0 00.899-.898v-.776h2.505a.899.899 0 00.898-.898v-.259c1.46.127 1.94.404 3.282 1.178 1.032.594 2.59 1.493 5.398 2.756a8.065 8.065 0 002.93.561c.903 0 1.926-.161 2.976-.637l13.835-4.954a.883.883 0 00.073-.03c1.322-.608 3.293-2.322 2.291-4.89zm-35.986 7.05h-3.545v-9.53h3.545v9.53zm3.403-1.674H38.14v-7.856h1.606v7.856zm29.573-2.133l-13.829 4.95a.998.998 0 00-.077.032c-1.926.885-3.756.355-4.474.076-2.712-1.22-4.159-2.054-5.216-2.664-1.47-.848-2.179-1.256-4.18-1.422v-7.236c.852-1.396 2.503-2.825 4.284-2.825 3.053 0 4.347 1.986 4.398 2.067.11.178.278.313.477.38l7.14 2.423c1.14.428 1.743 1.405 1.466 2.379a1.74 1.74 0 01-.832 1.05 1.74 1.74 0 01-1.319.158l-8.05-2.55a.898.898 0 10-.542 1.712l8.063 2.555a3.56 3.56 0 001.001.145 3.53 3.53 0 001.722-.45 3.524 3.524 0 001.74-2.347l6.746-1.869c.974-.333 2.253-.453 2.823.859.589 1.54-.943 2.386-1.341 2.576zM63.26 42.819a.879.879 0 00-.136-.324.849.849 0 00-.247-.248.915.915 0 00-.323-.134.892.892 0 00-.675.134.863.863 0 00-.248.248.91.91 0 00-.151.499.884.884 0 00.069.343.885.885 0 00.486.486.906.906 0 00.519.051.95.95 0 00.323-.134.863.863 0 00.33-.403.851.851 0 00.07-.343.883.883 0 00-.018-.175z" fill="#000"/><path d="M76.101 34.045H70.76a.898.898 0 00-.899.898v.776h-2.505a.898.898 0 00-.898.898v.259c-1.46-.128-1.941-.404-3.282-1.178-1.032-.595-2.59-1.493-5.398-2.756a.765.765 0 00-.04-.016c-.913-.36-3.308-1.067-5.866.092l-3.615 1.294-3.048-3.047a.898.898 0 00-1.27 0L33.934 41.27a.891.891 0 000 1.27L51.03 59.638c.273.273.914.356 1.27 0l9.135-9.134c.237.02.483.031.739.031 2.347 0 4.423-1.61 5.611-3.365h8.316a.898.898 0 00.899-.898V34.943a.898.898 0 00-.899-.898zm-31.527-.874l2.048 2.048a3.879 3.879 0 01-2.048.578c-.735 0-1.44-.202-2.048-.578l2.048-2.048zm-6.686 10.782l-2.048-2.048 2.047-2.048c.377.61.578 1.313.578 2.048 0 .735-.2 1.44-.578 2.048zM51.665 57.73l-2.047-2.048a3.912 3.912 0 014.095 0l-2.048 2.048zm3.342-3.342a5.71 5.71 0 00-6.683 0l-9.142-9.142a5.656 5.656 0 001.08-3.342 5.655 5.655 0 00-1.08-3.342l2.05-2.05a5.656 5.656 0 003.342 1.08 5.656 5.656 0 003.342-1.08l1.943 1.943c-.419.062-.828.2-1.21.413a3.522 3.522 0 00-1.463 1.546 5.12 5.12 0 00-2.688 1.415 5.127 5.127 0 000 7.242 5.106 5.106 0 003.622 1.498c1.311 0 2.623-.5 3.621-1.498a5.101 5.101 0 001.333-2.318l3.033 1.03a5.736 5.736 0 00.952 4.553l-2.052 2.052zm-5.462-8.833l.024.009 1.796.61a3.328 3.328 0 01-5.596 1.627 3.328 3.328 0 011.084-5.425c.166 1.38 1.16 2.61 2.692 3.18zm8.808 5.487a3.93 3.93 0 01-.574-1.869c.43.311.957.616 1.585.858l-1.01 1.01zm8.104-5.13c-.851 1.395-2.503 2.824-4.283 2.824a6.528 6.528 0 01-.94-.066c-1.941-.282-2.985-1.385-3.329-1.822l-.108-.146a.895.895 0 00-.495-.411l-7.143-2.425c-1.14-.428-1.743-1.404-1.467-2.377v-.002l.002-.002c.128-.449.423-.82.83-1.048a1.738 1.738 0 011.32-.157l8.049 2.55a.898.898 0 10.543-1.713l-6.402-2.028-.056-.056-.002-.002-3.314-3.314 2.849-1.02a.981.981 0 00.03-.012l.01-.004a.773.773 0 00.036-.016c1.926-.885 3.757-.355 4.474-.076 2.712 1.22 4.16 2.055 5.217 2.665 1.47.847 2.179 1.256 4.18 1.421v7.236zm3.404-.541h-1.607v-7.856h1.607v7.856zm5.342 0h-3.545v-9.53h3.545v9.53z" fill="#000"/></svg><svg fill="none" viewBox="0 0 60 47" id="check" xmlns="http://www.w3.org/2000/svg"><path d="M20.254 47L0 28.552l11.856-10.797 8.398 7.65L48.144 0 60 10.799 20.254 47z" fill="#ADDB31"/></svg><svg fill="none" viewBox="0 0 17 21" id="geo" xmlns="http://www.w3.org/2000/svg"><path d="M8.317 0A8.316 8.316 0 000 8.316c0 4.593 8.317 11.918 8.317 11.918s8.317-7.324 8.317-11.917A8.317 8.317 0 008.317 0zm.021 13.373a5.523 5.523 0 11.001-11.045 5.523 5.523 0 01-.001 11.045z" fill="#8ED6FF"/></svg><svg fill="none" viewBox="0 0 22 22" id="home" xmlns="http://www.w3.org/2000/svg"><g clip-path="url(#fclip0)"><path d="M21.406 9.569l-.001-.002L12.43.594A2.012 2.012 0 0010.999 0c-.541 0-1.05.21-1.433.593l-8.97 8.97-.008.009a2.028 2.028 0 00.004 2.86 2.014 2.014 0 001.406.594h.358v6.604A2.373 2.373 0 004.726 22h3.511a.645.645 0 00.645-.645v-5.177c0-.597.485-1.082 1.081-1.082h2.071c.596 0 1.081.485 1.081 1.082v5.177c0 .357.289.645.645.645h3.511a2.373 2.373 0 002.37-2.37v-6.604h.332a2.029 2.029 0 001.433-3.457z" fill="#8ED6FF"/></g><defs><clipPath id="fclip0"><path fill="#fff" d="M0 0h22v22H0z"/></clipPath></defs></svg><svg fill="none" viewBox="0 0 108 108" id="laptop" xmlns="http://www.w3.org/2000/svg"><circle cx="54" cy="54" r="51.5" stroke="#147EBA" stroke-width="5"/><path d="M78.243 65.164h-2.671V38.077a3.058 3.058 0 00-3.058-3.057H34.247a3.058 3.058 0 00-3.058 3.057v27.087h-2.432a.757.757 0 00-.757.757v1.673a4.387 4.387 0 004.386 4.386h28.537a.758.758 0 000-1.515H32.386a2.872 2.872 0 01-2.871-2.871v-.916h17.851a2.704 2.704 0 002.7 2.651h6.868a2.704 2.704 0 002.7-2.65h17.851v.915a2.872 2.872 0 01-2.871 2.871H64.458a.757.757 0 100 1.515h10.156A4.387 4.387 0 0079 67.594V65.92a.758.758 0 00-.757-.757zm-21.31 2.65h-6.867a1.187 1.187 0 01-1.185-1.136h9.238a1.187 1.187 0 01-1.185 1.136zm17.124-2.65H32.704V38.077c0-.85.692-1.543 1.543-1.543h38.267c.85 0 1.543.693 1.543 1.544v27.086z" fill="#000"/><path d="M71.987 37.848H42.644a.757.757 0 000 1.515H71.23v22.973H35.532V39.362h3.577a.758.758 0 000-1.514h-4.335a.757.757 0 00-.757.757v24.489c0 .418.339.757.757.757h37.213c.418 0 .757-.34.757-.757V38.605a.757.757 0 00-.757-.757z" fill="#000"/></svg><svg fill="none" viewBox="0 0 57 57" id="logo" xmlns="http://www.w3.org/2000/svg"><path d="M23.219 19.587c-.142 1.056.1 2.747 1.534 2.928.12.015.24.021.36.018v.12h-4.569v-.12h.262c1.297 0 2.111-1.91 2.274-2.924l.28-2.106c-.249.104-.51.178-.778.22-.837.145-1.699.035-2.472-.317a3.884 3.884 0 01-2.192-3.363 4.313 4.313 0 011.682-3.625c.935-.677 1.873-.776 2.931-.758h2.75l4.846 10.962L34.255 9.66h2.693v.102a5.097 5.097 0 00-.537.018c-1.098.12-1.058.936-.938 1.871l1.206 8.424c.181 1.113.32 2.148 1.475 2.407.144.032.292.045.44.039v.12h-5.066v-.12h.242c1.613 0 1.396-1.505 1.206-2.903L33.77 11.38l-4.291 11.392h-.16l-4.487-10.267c-.519-1.074-1.01-2.23-2.132-2.578a3.53 3.53 0 00-3.034.601 4.297 4.297 0 00-1.655 3.541c.06 1.312.838 2.708 2.135 3.243.735.291 1.55.305 2.295.04a2.756 2.756 0 001.872-2.13c.16-.993-.1-2.05-1.055-2.567a2.45 2.45 0 00-2.614.32l-.04-.04c.905-.902 2.193-1.273 3.372-.698a2.645 2.645 0 011.414 2.774 3.18 3.18 0 01-1.894 2.436l-.277 2.14zm1.254-12.144A10.562 10.562 0 0135.307 9.04h-.705a10.108 10.108 0 00-12.062 0h-.712a10.35 10.35 0 012.645-1.61v.013zm13.823 5.595a10.509 10.509 0 010 8.183c-.037.087-.076.174-.115.262l-.368-.247.082-.186a10.055 10.055 0 00-1.62-10.46v-.148l.115-.03h.277a10.31 10.31 0 011.629 2.626zM36.037 24.56a10.552 10.552 0 01-11.497 2.302 10.523 10.523 0 01-4.735-3.881 10.487 10.487 0 01-1.767-5.854c0-.229 0-.46.021-.686l.058.084.018.027.123.166.021.027.133.156.024.027.04.042v.157a9.972 9.972 0 00.792 3.91c.194.457.421.9.679 1.324v.584l.015.027v.024l.036.048.042.045.021.021.025.021.024.018.093.015h.079l.057.024h.23a10.088 10.088 0 008.007 3.94 10.106 10.106 0 008.01-3.94h.543c-.331.46-.7.892-1.104 1.291l.012.081zM30.541 1.805a3.758 3.758 0 00-2.046-.602c-.754 0-1.456.221-2.046.602h-1.792A4.97 4.97 0 0128.495 0a4.97 4.97 0 013.839 1.805H30.54zM4.8 5.034a3.82 3.82 0 00-.73-.07C1.824 4.964 0 6.933 0 9.176c0 .594.128 1.16.358 1.668l.892-1.166a2.869 2.869 0 01-.044-.502c0-1.586 1.258-2.925 2.726-3.005L4.8 5.034zM7.076 6.367a4.18 4.18 0 00-1.353-1.029l1.353 1.029zM52.152 5.13c.202-.024.408-.03.617-.016C55.117 5.27 57 7.436 57 9.73c0 .538-.08 1.018-.229 1.441l-.98-1.282c.002-.052.003-.105.003-.16 0-1.56-1.204-3.035-2.691-3.356l-.95-1.243z" fill="#0067A0"/><path d="M52.249 5.104c-1.38.153-2.77.22-4.162.2a34.73 34.73 0 01-11.133-1.73C34.79 2.847 32.926 1.955 31.36.898v.005h-1.994c1.9 1.556 4.3 2.823 7.199 3.8a35.912 35.912 0 0011.513 1.79c1.234-.043 2.182-.065 2.946-.082a54.093 54.093 0 002.17-.075l-.945-1.232zM33.417 33.45c.247 0 .356.147.356.3v2.377c0 .175-.109.301-.356.301h-.356V33.45h.356zM22.44 40.499c0-.085-.056-.16-.19-.16h-.195v.819h.196c.133 0 .19-.067.19-.154V40.5zM31.834 40.34c.132 0 .193.074.193.159v.45c0 .088-.06.163-.193.163h-.196v-.773h.196z" fill="#0067A0"/><path fill-rule="evenodd" clip-rule="evenodd" d="M55.782 9.714c-.82 7.505-2.86 13.98-5.229 19.943H6.471C4.068 23.597 2.29 16.736 1.133 9.075L.16 10.257c2.227 16.283 6.885 26.82 14.755 36.268 4.24 5.084 8.66 8.548 13.259 10.393h.03l.033.015a.76.76 0 00.61.003l.08-.045.185-.084c4.865-2.156 9.366-5.79 13.503-10.902 7.043-8.702 11.771-20.323 14.185-34.864l-1.017-1.327zm-30.99 28.492h-2.11l-.015-3.143-.603 2.247h-1.442l-.603-2.208v3.104h-2.11v-6.534h2.897l.543 2.852.549-2.852h2.895v6.534zm3.061-1.916h2.301v1.916h-4.686v-6.534h4.59v1.934h-2.205v.476h2.111v1.733h-2.11v.475zm2.835 1.916h2.765c1.833 0 2.738-.68 2.738-2.106v-2.208c0-1.426-.902-2.22-2.738-2.22h-2.765v6.534zm6.037 0V31.66l2.385.012v6.534h-2.385zm-16.187 3.598c0-.647-.244-.884-.808-1.05l-.041-.012c-.352-.103-.526-.153-.526-.243 0-.094.142-.13.362-.13.257.013.512.05.763.109l.135-1.032a4.806 4.806 0 00-1.088-.127c-.947 0-1.402.49-1.402 1.255 0 .635.28.845.796.999l.06.018.092.027c.285.084.397.118.397.195 0 .09-.14.109-.347.109a3.594 3.594 0 01-.872-.133l-.15 1.014c.415.115.844.173 1.275.172 1.016 0 1.354-.464 1.354-1.17zm18.572 0c0-.647-.244-.884-.808-1.05l-.041-.012c-.353-.103-.526-.153-.526-.243 0-.094.142-.13.362-.13.257.013.512.05.763.109l.135-1.032a4.806 4.806 0 00-1.088-.127c-.947 0-1.402.49-1.402 1.255 0 .635.28.845.796.999l.152.045c.285.084.396.118.396.195 0 .09-.138.109-.346.109a3.625 3.625 0 01-.872-.133l-.15 1.014c.415.115.844.173 1.275.172 1.016 0 1.354-.464 1.354-1.17zM20.76 42.92v-3.55l1.49-.008c.995 0 1.483.43 1.483 1.203v.403c0 .776-.488 1.15-1.483 1.15h-.196v.802H20.76zm6.378-3.55h-1.282v1.243h-.567v-1.242h-1.293v3.55h1.293v-1.204h.567v1.203h1.282v-3.55zm1.67 2.504h1.249v1.046h-2.542v-3.55h2.5v1.047h-1.207v.26h1.14v.94h-1.14v.257zm1.535-2.504v3.55l1.294.012v-.902h.1l.349.902h1.375l-.555-1.155a1.017 1.017 0 00.413-.902v-.301c0-.773-.491-1.203-1.486-1.203h-1.49zm4.743 2.504h1.249l.009 1.046h-2.542v-3.55h2.49v1.047h-1.206v.26h1.14v.94h-1.14v.257z" fill="#0067A0"/><path d="M25.631.889c-1.565 1.036-3.416 1.918-5.551 2.646l-.006-.018a34.404 34.404 0 01-11.13 1.769 38.48 38.48 0 01-4.463-.272L3.577 6.11c1.779.25 3.574.377 5.373.381a35.449 35.449 0 0011.516-1.835v.006c2.871-.977 5.261-2.231 7.17-3.76H25.63V.889z" fill="#0067A0"/></svg><svg fill="none" viewBox="0 0 46 56" id="marker" xmlns="http://www.w3.org/2000/svg"><path d="M23 0C10.296 0 0 10.304 0 23.015 0 35.727 23 56 23 56s23-20.27 23-32.982C46 10.307 35.704 0 23 0zm.058 37.011c-8.434 0-15.27-6.844-15.27-15.288 0-8.441 6.838-15.283 15.27-15.283 8.437 0 15.27 6.845 15.27 15.283 0 8.441-6.835 15.288-15.27 15.288z" fill="#147EBA"/><circle cx="23" cy="22" r="13" fill="#fff"/><path d="M21.703 19.811c-.035.26.024.675.377.719.029.004.059.005.088.004v.03h-1.122v-.03h.064c.319 0 .519-.469.559-.718l.069-.517a1.039 1.039 0 01-.798-.024.955.955 0 01-.54-.826 1.059 1.059 0 01.414-.89c.23-.166.46-.19.72-.186h.675l1.19 2.692 1.014-2.692h.662v.025c-.044-.001-.088 0-.132.004-.27.03-.26.23-.23.46l.296 2.069c.044.273.078.527.362.59a.418.418 0 00.108.01v.03h-1.244v-.03h.06c.395 0 .342-.37.295-.713l-.296-2.023-1.054 2.798h-.039L22.1 18.072c-.127-.264-.248-.548-.524-.634a.866.866 0 00-.745.148 1.056 1.056 0 00-.406.87c.015.322.206.665.524.796a.8.8 0 00.564.01.677.677 0 00.46-.523c.039-.244-.025-.503-.26-.63a.602.602 0 00-.642.078l-.01-.01c.223-.221.54-.312.829-.171a.65.65 0 01.347.681.781.781 0 01-.465.599l-.068.525zm.308-2.983a2.594 2.594 0 012.661.392h-.173a2.483 2.483 0 00-2.963 0h-.175a2.54 2.54 0 01.65-.395v.003zm3.395 1.374a2.58 2.58 0 010 2.01l-.028.064-.09-.06.02-.046a2.47 2.47 0 00-.398-2.57v-.035l.028-.008h.068c.165.194.3.412.4.645zm-.555 2.83a2.588 2.588 0 01-4.42-1.826c0-.056 0-.113.005-.168l.014.02.004.007.03.041.006.007.032.038.006.007.01.01v.038a2.449 2.449 0 00.361 1.286v.144l.004.006v.006l.009.012.01.011.005.005.006.005.006.005.023.003h.02l.014.006h.056a2.5 2.5 0 001.017.78 2.483 2.483 0 002.917-.78h.133c-.081.113-.172.22-.27.317l.002.02zM23.501 15.443a.923.923 0 00-1.005 0h-.44a1.22 1.22 0 011.886 0h-.44zM17.18 16.236a.939.939 0 00-.18-.017c-.552 0-1 .484-1 1.035 0 .146.032.284.088.41l.22-.287a.706.706 0 01-.012-.123c0-.39.31-.719.67-.738l.213-.28zM17.738 16.564a1.027 1.027 0 00-.332-.253l.332.253zM28.81 16.26a.82.82 0 01.15-.004c.577.038 1.04.57 1.04 1.134 0 .132-.02.25-.056.354l-.241-.315v-.04a.872.872 0 00-.66-.824l-.234-.305z" fill="#0067A0"/><path d="M28.833 16.254c-.339.037-.68.054-1.022.049a8.53 8.53 0 01-2.735-.425 5.678 5.678 0 01-1.373-.657h-.49c.466.383 1.056.694 1.768.934.912.3 1.867.448 2.827.44.304-.01.537-.016.724-.02.23-.006.391-.01.533-.019l-.232-.302zM24.208 23.216c.06 0 .087.036.087.074v.583c0 .043-.027.074-.087.074h-.088v-.731h.088zM21.512 24.947c0-.02-.014-.04-.047-.04h-.048v.202h.048c.033 0 .047-.016.047-.038v-.124zM23.819 24.908c.032 0 .047.018.047.039v.11c0 .022-.015.04-.047.04h-.048v-.19h.048z" fill="#0067A0"/><path fill-rule="evenodd" clip-rule="evenodd" d="M29.7 17.386c-.2 1.843-.702 3.434-1.283 4.898H17.589c-.59-1.488-1.027-3.174-1.31-5.055l-.24.29c.547 4 1.691 6.588 3.624 8.908 1.041 1.249 2.127 2.1 3.257 2.553h.007l.008.004a.19.19 0 00.122.01.165.165 0 00.028-.01l.02-.01.045-.021c1.195-.53 2.3-1.422 3.317-2.678 1.73-2.137 2.89-4.992 3.484-8.563l-.25-.326zm-7.61 6.998h-.519l-.004-.772-.148.552h-.354l-.148-.543v.763h-.518v-1.605h.711l.134.7.134-.7h.711v1.605zm.751-.47h.565v.47h-1.15v-1.605h1.127v.475h-.542v.117h.519v.426h-.519v.116zm.696.47h.68c.45 0 .672-.167.672-.517v-.543c0-.35-.221-.545-.672-.545h-.68v1.605zm1.483 0v-1.608l.586.003v1.605h-.586zm-3.976.884c0-.16-.06-.218-.198-.258l-.01-.003c-.087-.025-.13-.038-.13-.06 0-.023.035-.032.09-.032.063.003.125.012.187.027l.033-.254a1.18 1.18 0 00-.267-.03c-.233 0-.345.12-.345.307 0 .156.07.208.196.246l.015.004.022.007c.07.02.098.029.098.048 0 .022-.034.027-.085.027a.882.882 0 01-.214-.033l-.037.249c.102.028.207.042.313.042.25 0 .332-.114.332-.287zm4.562 0c0-.16-.06-.218-.199-.258l-.01-.003c-.086-.025-.129-.038-.129-.06 0-.023.035-.032.09-.032.062.003.125.012.186.027l.034-.254a1.18 1.18 0 00-.268-.03c-.232 0-.344.12-.344.307 0 .156.069.208.196.246l.037.011c.07.02.097.029.097.048 0 .022-.034.027-.085.027a.892.892 0 01-.214-.033l-.037.249c.102.028.207.042.313.042.25 0 .333-.114.333-.287zm-4.507.274v-.872l.366-.002c.244 0 .364.105.364.295v.1c0 .19-.12.282-.364.282h-.048v.197h-.318zm1.567-.872h-.315v.305h-.14v-.305h-.317v.872h.318v-.296h.139v.296h.315v-.872zm.41.615h.307v.257h-.625v-.872h.614v.257h-.296v.064h.28v.23h-.28v.064zm.377-.615v.872l.318.003v-.222h.024l.086.222h.338l-.137-.284a.25.25 0 00.102-.222v-.074c0-.19-.12-.295-.365-.295h-.366zm1.165.615h.307l.002.257h-.625v-.872h.612v.257h-.296v.064h.28v.23h-.28v.064z" fill="#0067A0"/><path d="M22.295 15.218a5.915 5.915 0 01-1.363.65l-.002-.004a8.452 8.452 0 01-2.733.434 9.439 9.439 0 01-1.096-.067l-.223.27c.437.061.878.092 1.32.093a8.708 8.708 0 002.829-.45v.001c.705-.24 1.292-.548 1.76-.923h-.492v-.004z" fill="#0067A0"/></svg><svg fill="none" viewBox="0 0 20 20" id="phone" xmlns="http://www.w3.org/2000/svg"><g clip-path="url(#jclip0)"><path d="M19.456 14.678l-2.791-2.791c-.997-.997-2.692-.598-3.09.698-.3.897-1.296 1.395-2.193 1.196-1.994-.498-4.685-3.09-5.184-5.184-.299-.897.3-1.894 1.196-2.193 1.296-.398 1.695-2.093.698-3.09L5.301.524c-.797-.698-1.994-.698-2.691 0L.716 2.416C-1.178 4.411.915 9.694 5.6 14.38c4.685 4.685 9.968 6.878 11.962 4.884l1.894-1.894c.698-.797.698-1.993 0-2.691z" fill="#8ED6FF"/></g><defs><clipPath id="jclip0"><path fill="#fff" d="M0 0h20v20H0z"/></clipPath></defs></svg><svg fill="none" viewBox="0 0 108 108" id="shipped" xmlns="http://www.w3.org/2000/svg"><circle cx="54" cy="54" r="51.5" stroke="#147EBA" stroke-width="5"/><path d="M79.8 51.113l-1.554-6.215a.94.94 0 00.744-.919v-1.002a3.95 3.95 0 00-3.946-3.945h-7.077v-2.067c0-1.071-.871-1.942-1.942-1.942H29.95c-1.07 0-1.942.87-1.942 1.941V54a.94.94 0 001.88 0V36.965c0-.035.027-.063.062-.063h36.075c.034 0 .063.028.063.063V54a.94.94 0 001.879 0v-1.065H79.053c1.364.001 2.522.896 2.92 2.13h-2.922a.94.94 0 00-.94.94v2.003a2.947 2.947 0 002.944 2.944h1.065v4.134h-2.457a5.96 5.96 0 00-5.623-4.009 5.96 5.96 0 00-5.622 4.009h-.453v-7.078a.94.94 0 00-1.879 0v7.077H46.596a5.96 5.96 0 00-5.623-4.008 5.96 5.96 0 00-5.623 4.008h-5.4a.063.063 0 01-.063-.062v-2.067h4.071a.94.94 0 000-1.879H24.94a.94.94 0 000 1.879h3.068v2.067c0 1.07.871 1.941 1.942 1.941h5.075l-.002.063c0 3.28 2.67 5.95 5.95 5.95 3.28 0 5.95-2.67 5.95-5.95l-.002-.063h21.172l-.001.063c0 3.28 2.669 5.95 5.95 5.95 3.28 0 5.95-2.67 5.95-5.95l-.002-.063h3.07a.94.94 0 00.94-.94v-10.02a4.955 4.955 0 00-4.2-4.891zM67.967 40.91h7.077a2.07 2.07 0 012.067 2.067v.063h-9.144v-2.13zm0 10.146V44.92h8.347l1.535 6.137h-9.882zM40.973 71.098a4.075 4.075 0 01-4.071-4.07 4.076 4.076 0 014.07-4.072 4.076 4.076 0 014.072 4.071 4.075 4.075 0 01-4.071 4.071zm33.069 0a4.075 4.075 0 01-4.071-4.07 4.076 4.076 0 014.07-4.072 4.076 4.076 0 014.072 4.071 4.075 4.075 0 01-4.071 4.071zm8.08-12.025h-1.066a1.066 1.066 0 01-1.064-1.065v-1.064h2.129v2.13z" fill="#000"/><path d="M40.973 65.085c-1.07 0-1.942.871-1.942 1.942 0 1.07.871 1.942 1.942 1.942 1.07 0 1.941-.871 1.941-1.942 0-1.07-.87-1.942-1.941-1.942zM74.042 65.085c-1.071 0-1.942.871-1.942 1.942 0 1.07.871 1.942 1.942 1.942 1.07 0 1.941-.871 1.941-1.942 0-1.07-.87-1.942-1.941-1.942zM63.019 61.077h-14.03a.94.94 0 000 1.88h14.03a.94.94 0 000-1.88zM38.969 57.069H26.944a.94.94 0 000 1.879h12.025a.94.94 0 000-1.88zM56.669 44.317a.94.94 0 00-1.329 0l-8.355 8.355-4.346-4.346a.94.94 0 00-1.328 1.328l5.01 5.01a.936.936 0 001.329 0l9.019-9.018a.94.94 0 000-1.329z" fill="#000"/></svg></svg>