<svg width="136" height="136" viewBox="0 0 136 136" fill="none" xmlns="http://www.w3.org/2000/svg">
<g filter="url(#filter0_d)">
<circle cx="67.6316" cy="63.6316" r="63.6316" fill="white"/>
</g>
<g clip-path="url(#clip0)">
<path d="M86.7245 73.9177C85.1298 73.9177 83.6148 74.5422 82.4719 75.6718C81.3291 76.8147 80.6912 78.3031 80.6912 79.8978C80.6912 81.4925 81.3158 82.9809 82.4719 84.1237C83.6281 85.2533 85.1298 85.8779 86.7245 85.8779C89.9936 85.8779 92.6514 83.1935 92.6514 79.8978C92.6514 76.6021 89.9936 73.9177 86.7245 73.9177ZM86.7245 83.2201C84.8906 83.2201 83.349 81.7051 83.349 79.8978C83.349 78.0905 84.8906 76.5755 86.7245 76.5755C88.5318 76.5755 89.9936 78.0639 89.9936 79.8978C89.9936 81.7317 88.5318 83.2201 86.7245 83.2201ZM88.266 53.9972C88.0268 53.7713 87.7079 53.6517 87.3756 53.6517H80.5583C79.8274 53.6517 79.2294 54.2497 79.2294 54.9806V65.8777C79.2294 66.6086 79.8274 67.2066 80.5583 67.2066H91.3757C92.1066 67.2066 92.7046 66.6086 92.7046 65.8777V58.5819C92.7046 58.2098 92.5451 57.851 92.2661 57.5985L88.266 53.9972ZM90.0468 64.5488H81.8872V56.2962H86.8574L90.0468 59.1667V64.5488ZM54.2723 73.9177C52.6776 73.9177 51.1626 74.5422 50.0198 75.6718C48.8769 76.8147 48.239 78.3031 48.239 79.8978C48.239 81.4925 48.8636 82.9809 50.0198 84.1237C51.1759 85.2533 52.6776 85.8779 54.2723 85.8779C57.5414 85.8779 60.1993 83.1935 60.1993 79.8978C60.1993 76.6021 57.5414 73.9177 54.2723 73.9177ZM54.2723 83.2201C52.4384 83.2201 50.8968 81.7051 50.8968 79.8978C50.8968 78.0905 52.4384 76.5755 54.2723 76.5755C56.0796 76.5755 57.5414 78.0639 57.5414 79.8978C57.5414 81.7317 56.0796 83.2201 54.2723 83.2201ZM45.4084 75.5522H42.7373V72.0173C42.7373 71.2864 42.1393 70.6884 41.4084 70.6884C40.6775 70.6884 40.0794 71.2864 40.0794 72.0173V76.8811C40.0794 77.612 40.6775 78.2101 41.4084 78.2101H45.4084C46.1393 78.2101 46.7373 77.612 46.7373 76.8811C46.7373 76.1502 46.1393 75.5522 45.4084 75.5522ZM52.146 68.3096C52.146 67.5787 51.548 66.9807 50.8171 66.9807H34.6973C33.9664 66.9807 33.3684 67.5787 33.3684 68.3096C33.3684 69.0405 33.9664 69.6385 34.6973 69.6385H50.8171C51.548 69.6385 52.146 69.0538 52.146 68.3096ZM37.395 63.5122L53.5148 63.6053C54.2457 63.6053 54.8437 63.0205 54.857 62.2896C54.8703 61.5454 54.2723 60.9474 53.5414 60.9474L37.4216 60.8544C37.4083 60.8544 37.4083 60.8544 37.4083 60.8544C36.6774 60.8544 36.0794 61.4391 36.0794 62.17C36.0661 62.9142 36.6641 63.5122 37.395 63.5122ZM40.106 57.4789H56.2258C56.9567 57.4789 57.5547 56.8809 57.5547 56.15C57.5547 55.4191 56.9567 54.8211 56.2258 54.8211H40.106C39.3751 54.8211 38.7771 55.4191 38.7771 56.15C38.7771 56.8809 39.3751 57.4789 40.106 57.4789ZM98.1399 55.6849L88.6248 47.8044C88.3856 47.6051 88.0932 47.4988 87.7743 47.4988H76.5848V42.7147C76.5848 41.9838 75.9868 41.3857 75.2559 41.3857H41.4084C40.6775 41.3857 40.0794 41.9838 40.0794 42.7147V52.4423C40.0794 53.1732 40.6775 53.7713 41.4084 53.7713C42.1393 53.7713 42.7373 53.1732 42.7373 52.4423V44.0436H73.9403V75.5522H63.0431C62.3122 75.5522 61.7142 76.1502 61.7142 76.8811C61.7142 77.612 62.3122 78.2101 63.0431 78.2101H79.2692C80.0001 78.2101 80.5981 77.612 80.5981 76.8811C80.5981 76.1502 80.0001 75.5522 79.2692 75.5522H76.5981V50.1566H87.3092L95.9737 57.3328L95.8807 75.5256H94.4986C93.7677 75.5256 93.1697 76.1237 93.1697 76.8546C93.1697 77.5855 93.7677 78.1835 94.4986 78.1835H97.1963C97.9272 78.1835 98.5253 77.5988 98.5253 76.8679L98.6316 56.7215C98.6183 56.3228 98.4455 55.9374 98.1399 55.6849Z" fill="black"/>
</g>
<defs>
<filter id="filter0_d" x="0" y="0" width="135.263" height="135.263" filterUnits="userSpaceOnUse" color-interpolation-filters="sRGB">
<feFlood flood-opacity="0" result="BackgroundImageFix"/>
<feColorMatrix in="SourceAlpha" type="matrix" values="0 0 0 0 0 0 0 0 0 0 0 0 0 0 0 0 0 0 127 0"/>
<feOffset dy="4"/>
<feGaussianBlur stdDeviation="2"/>
<feColorMatrix type="matrix" values="0 0 0 0 0 0 0 0 0 0 0 0 0 0 0 0 0 0 0.25 0"/>
<feBlend mode="normal" in2="BackgroundImageFix" result="effect1_dropShadow"/>
<feBlend mode="normal" in="SourceGraphic" in2="effect1_dropShadow" result="shape"/>
</filter>
<clipPath id="clip0">
<rect x="33.3684" y="31" width="65.2632" height="65.2632" fill="white"/>
</clipPath>
</defs>
</svg>
