<svg width="30" height="21" viewBox="0 0 30 21" fill="none" xmlns="http://www.w3.org/2000/svg">
<path d="M24.5266 15.3548C23.7935 15.3548 23.0971 15.6496 22.5718 16.1828C22.0464 16.7222 21.7532 17.4247 21.7532 18.1774C21.7532 18.9301 22.0403 19.6326 22.5718 20.172C23.1032 20.7052 23.7935 21 24.5266 21C26.0293 21 27.2511 19.733 27.2511 18.1774C27.2511 16.6219 26.0293 15.3548 24.5266 15.3548ZM24.5266 19.7455C23.6836 19.7455 22.975 19.0305 22.975 18.1774C22.975 17.3244 23.6836 16.6093 24.5266 16.6093C25.3574 16.6093 26.0293 17.3118 26.0293 18.1774C26.0293 19.043 25.3574 19.7455 24.5266 19.7455ZM25.2352 5.95251C25.1252 5.84588 24.9786 5.78943 24.8259 5.78943H21.6921C21.3561 5.78943 21.0812 6.07168 21.0812 6.41667V11.56C21.0812 11.905 21.3561 12.1873 21.6921 12.1873H26.6646C27.0006 12.1873 27.2755 11.905 27.2755 11.56V8.11649C27.2755 7.94086 27.2022 7.77151 27.0739 7.65233L25.2352 5.95251ZM26.0538 10.9328H22.303V7.03764H24.5877L26.0538 8.39247V10.9328ZM9.60904 15.3548C8.87599 15.3548 8.1796 15.6496 7.65425 16.1828C7.12889 16.7222 6.83568 17.4247 6.83568 18.1774C6.83568 18.9301 7.12279 19.6326 7.65425 20.172C8.18571 20.7052 8.87599 21 9.60904 21C11.1118 21 12.3335 19.733 12.3335 18.1774C12.3335 16.6219 11.1118 15.3548 9.60904 15.3548ZM9.60904 19.7455C8.76604 19.7455 8.05742 19.0305 8.05742 18.1774C8.05742 17.3244 8.76604 16.6093 9.60904 16.6093C10.4398 16.6093 11.1118 17.3118 11.1118 18.1774C11.1118 19.043 10.4398 19.7455 9.60904 19.7455ZM5.53451 16.1263H4.30666V14.4579C4.30666 14.1129 4.03177 13.8306 3.69579 13.8306C3.3598 13.8306 3.08491 14.1129 3.08491 14.4579V16.7536C3.08491 17.0986 3.3598 17.3808 3.69579 17.3808H5.53451C5.87049 17.3808 6.14539 17.0986 6.14539 16.7536C6.14539 16.4086 5.87049 16.1263 5.53451 16.1263ZM8.63164 12.7079C8.63164 12.3629 8.35675 12.0806 8.02077 12.0806H0.610874C0.274893 12.0806 0 12.3629 0 12.7079C0 13.0529 0.274893 13.3351 0.610874 13.3351H8.02077C8.35675 13.3351 8.63164 13.0591 8.63164 12.7079ZM1.85095 10.4435L9.26084 10.4875C9.59682 10.4875 9.87172 10.2115 9.87782 9.86649C9.88393 9.51523 9.60904 9.23298 9.27306 9.23298L1.86316 9.18907C1.85706 9.18907 1.85706 9.18907 1.85706 9.18907C1.52108 9.18907 1.24618 9.46505 1.24618 9.81003C1.24007 10.1613 1.51497 10.4435 1.85095 10.4435ZM3.09713 7.59588H10.507C10.843 7.59588 11.1179 7.31362 11.1179 6.96864C11.1179 6.62365 10.843 6.3414 10.507 6.3414H3.09713C2.76115 6.3414 2.48626 6.62365 2.48626 6.96864C2.48626 7.31362 2.76115 7.59588 3.09713 7.59588ZM29.774 6.7491L25.4001 3.02957C25.2902 2.93548 25.1558 2.8853 25.0092 2.8853H19.8656V0.62724C19.8656 0.282258 19.5907 0 19.2547 0H3.69579C3.3598 0 3.08491 0.282258 3.08491 0.62724V5.21864C3.08491 5.56362 3.3598 5.84588 3.69579 5.84588C4.03177 5.84588 4.30666 5.56362 4.30666 5.21864V1.25448H18.65V16.1263H13.6408C13.3048 16.1263 13.0299 16.4086 13.0299 16.7536C13.0299 17.0986 13.3048 17.3808 13.6408 17.3808H21.0996C21.4356 17.3808 21.7104 17.0986 21.7104 16.7536C21.7104 16.4086 21.4356 16.1263 21.0996 16.1263H19.8717V4.13978H24.7954L28.7783 7.52688L28.7355 16.1138H28.1002C27.7642 16.1138 27.4893 16.3961 27.4893 16.741C27.4893 17.086 27.7642 17.3683 28.1002 17.3683H29.3403C29.6762 17.3683 29.9511 17.0923 29.9511 16.7473L30 7.23835C29.9939 7.05018 29.9145 6.86828 29.774 6.7491Z" fill="black"/>
</svg>
