<svg width="16" height="15" viewBox="0 0 16 15" fill="none" xmlns="http://www.w3.org/2000/svg">
<path d="M15.5172 7.5C15.5172 11.6421 12.0435 15 7.75862 15C3.47371 15 0 11.6421 0 7.5C0 3.35792 3.47371 0 7.75862 0C12.0435 0 15.5172 3.35792 15.5172 7.5Z" fill="#FFCC4D"/>
<path d="M7.75862 9.10381C6.48017 9.10381 5.63147 8.95965 4.58233 8.76257C4.34224 8.7184 3.8763 8.76256 3.8763 9.44506C3.8763 10.8096 5.49828 12.5154 7.75862 12.5154C10.019 12.5154 11.6409 10.8096 11.6409 9.44506C11.6409 8.76256 11.1746 8.71798 10.9349 8.76257C9.88577 8.95965 9.0375 9.10381 7.75862 9.10381Z" fill="#664500"/>
<path d="M7.17672 1.36696C6.80647 0.354088 5.65776 -0.177556 4.60948 0.179512C3.97327 0.39617 3.52284 0.892398 3.34741 1.47279C2.83405 1.12739 2.16164 1.01448 1.52629 1.23113C0.478876 1.58862 -0.0719865 2.69982 0.298272 3.71269C0.350859 3.85602 0.420686 3.98893 0.501721 4.11184C1.34267 5.60428 3.77241 6.6534 5.24353 6.66632C6.38017 5.76344 7.59095 3.4727 7.27715 1.80111C7.26078 1.65612 7.22845 1.51029 7.17672 1.36696ZM8.34052 1.36696C8.71078 0.354088 9.85991 -0.177556 10.9078 0.179512C11.544 0.39617 11.9944 0.892398 12.1703 1.47279C12.6836 1.12739 13.356 1.01448 13.9914 1.23113C15.0388 1.58862 15.5892 2.69982 15.2198 3.71269C15.1668 3.85602 15.0974 3.98893 15.016 4.11184C14.175 5.60428 11.7453 6.6534 10.2737 6.66632C9.13707 5.76344 7.92672 3.4727 8.24052 1.80111C8.25647 1.65612 8.28879 1.51029 8.34052 1.36696Z" fill="#DD2E44"/>
</svg>
