<svg width="160" height="160" xmlns="http://www.w3.org/2000/svg"><path d="M15.554 132.668c-2.276 0-4.22.805-5.828 2.412-1.612 1.61-2.416 3.557-2.416 5.85 0 2.29.804 4.243 2.416 5.867 1.608 1.621 3.552 2.433 5.828 2.433 2.272 0 4.214-.812 5.824-2.433 1.612-1.624 2.418-3.577 2.418-5.868 0-2.292-.806-4.24-2.418-5.849-1.61-1.607-3.552-2.412-5.824-2.412m8.924 14.922c-2.684 1.801-5.664 2.703-8.946 2.703-3.28 0-6.276-.902-8.988-2.703-2.52-1.724-4.39-3.937-5.608-6.642 1.218-2.705 3.088-4.903 5.608-6.599 2.712-1.829 5.708-2.744 8.988-2.744 3.282 0 6.262.915 8.946 2.744 2.548 1.696 4.434 3.894 5.652 6.599-1.218 2.705-3.104 4.918-5.652 6.642zm2.038-17.702c-3.032-3.053-6.686-4.58-10.962-4.58-4.278 0-7.94 1.527-10.986 4.58C1.524 132.94 0 136.62 0 140.929c0 4.333 1.524 8.027 4.568 11.08 3.046 3.054 6.708 4.583 10.986 4.583 4.276 0 7.93-1.529 10.962-4.582 3.032-3.054 4.548-6.748 4.548-11.08 0-4.309-1.516-7.99-4.548-11.042zm57.64 19.904c-4.836 0-8.52-3.755-8.52-8.85 0-5.139 3.684-8.938 8.52-8.938 4.838 0 8.522 3.8 8.522 8.938a9.331 9.331 0 01-1.058 4.328l-2.372-3.011-5.734 4.586 2.202 2.794a8.792 8.792 0 01-1.56.153zm15.844-8.85c0-8.76-6.968-15.687-15.844-15.687-8.874 0-15.842 6.928-15.842 15.687 0 8.715 6.968 15.597 15.842 15.597 2.168 0 4.218-.414 6.084-1.162l2.518 3.195 5.734-4.587-2.262-2.87c2.354-2.717 3.77-6.256 3.77-10.173zm-34.578 14.927h-7.28v-11.844H45.628v11.844h-7.322v-29.944h7.322v11.665h12.514v-11.665h7.28v29.944M8.56 116.98c-.916.837-1.752 1.21-2.712 1.21-1.736 0-3.044-1.42-3.044-3.303v-.062c0-1.883 1.308-3.303 3.044-3.303.96 0 1.796.374 2.712 1.211l.106.097 1.716-1.993-.092-.092C9.072 109.54 7.706 109 5.864 109 2.52 109 0 111.518 0 114.856v.002c0 3.338 2.52 5.856 5.864 5.856 1.842 0 3.208-.539 4.426-1.746l.092-.092-1.716-1.993-.106.098m8.302 1.257c.88 0 1.362-.485 1.362-1.255 0-.737-.534-1.204-1.314-1.204h-2.608v2.46h2.56zm-2.56-4.351h2.392c.814 0 1.346-.502 1.346-1.255 0-.703-.548-1.155-1.246-1.155h-2.492v2.41zm4.568.854c1.032.083 2.144.886 2.144 2.577 0 1.858-1.244 3.147-3.672 3.147H11.56v-11.214h5.766c2.044 0 3.372 1.221 3.372 3.063 0 1.54-1.08 2.276-1.828 2.36v.067zm9.326-.91l-2.306-.534c-.696-.156-.896-.492-.892-.944.004-.636.588-1.134 1.504-1.128.844.006 1.664.495 1.898 1.467l2.61-.876c-.562-1.762-2.224-2.8-4.46-2.816-2.608-.018-4.414 1.325-4.428 3.5-.014 2.042 1.376 2.888 2.968 3.268l2.324.518c.796.174 1.026.492 1.024.995-.006.685-.624 1.15-1.654 1.144-1.07-.008-1.84-.484-2.142-1.545l-2.758.925c.52 1.863 2.432 2.893 4.734 2.91 2.476.017 4.594-1.206 4.612-3.6.012-1.772-1.112-2.835-3.034-3.283m13.864 0l-2.306-.535c-.696-.156-.894-.492-.89-.944.004-.636.588-1.134 1.504-1.128.844.006 1.664.495 1.898 1.467l2.608-.876c-.562-1.762-2.222-2.8-4.46-2.816-2.606-.018-4.412 1.325-4.428 3.5-.014 2.042 1.376 2.888 2.97 3.268l2.324.518c.794.174 1.026.492 1.022.995-.004.685-.624 1.15-1.654 1.144-1.068-.008-1.84-.484-2.14-1.545l-2.758.925c.52 1.863 2.432 2.893 4.734 2.91 2.476.017 4.594-1.206 4.61-3.6.012-1.772-1.11-2.835-3.034-3.283m9.622.59h-2.428v-2.809h2.428c1.05 0 1.692.544 1.708 1.405-.016.861-.658 1.404-1.708 1.404zm.316-5.171h-5.484v11.214h2.74v-3.68h2.744c2.51 0 4.088-1.516 4.088-3.767s-1.578-3.767-4.088-3.767zm14.028 5.622c0-1.924-1.378-3.346-3.192-3.346-1.808 0-3.19 1.422-3.19 3.346 0 1.91 1.382 3.315 3.19 3.315 1.814 0 3.192-1.406 3.192-3.315zm2.742 0c0 3.265-2.61 5.841-5.934 5.841-3.322 0-5.93-2.576-5.93-5.841 0-3.279 2.608-5.873 5.93-5.873 3.324 0 5.934 2.594 5.934 5.873zm3.858-3.26h2.428c1.048 0 1.692.544 1.708 1.405-.016.861-.66 1.404-1.708 1.404h-2.428v-2.809zm7.464 8.852l-3.372-3.847c1.712-.45 2.74-1.786 2.74-3.6 0-2.251-1.58-3.767-4.088-3.767h-5.486v11.214h2.742v-3.68h.942l3.214 3.68h3.308zm6.474-8.804v8.804H83.84v-8.804h-3.606v-2.41h9.938v2.41h-3.608m10.402 2.17l-2.306-.534c-.696-.156-.894-.492-.892-.944.004-.636.588-1.134 1.504-1.128.846.006 1.664.495 1.9 1.467l2.608-.876c-.562-1.762-2.222-2.8-4.46-2.816-2.608-.018-4.414 1.325-4.428 3.5-.014 2.042 1.376 2.888 2.97 3.268l2.322.518c.796.174 1.028.492 1.024.995-.004.685-.624 1.15-1.654 1.144-1.07-.008-1.84-.484-2.142-1.545l-2.758.925c.52 1.863 2.434 2.893 4.734 2.91 2.476.017 4.596-1.206 4.612-3.6.012-1.772-1.11-2.835-3.034-3.283" fill="#F2F2F2" fill-rule="nonzero"/></svg>