<svg width="18" height="23" viewBox="0 0 18 23" fill="none" xmlns="http://www.w3.org/2000/svg">
<path d="M8.99998 11.2485C11.6312 11.2485 13.7644 8.73047 13.7644 5.62429C13.7644 2.51804 13.064 0 8.99998 0C4.93593 0 4.23543 2.51804 4.23543 5.62429C4.23543 8.73047 6.36864 11.2485 8.99998 11.2485Z" fill="#F7F7F7"/>
<path d="M0.000937025 19.8361C-0.00068595 19.7827 0.000125538 19.6467 0.000937025 19.8361V19.8361Z" fill="#F7F7F7"/>
<path d="M17.9986 19.984C17.9995 19.6242 18.0012 19.9321 17.9986 19.984V19.984Z" fill="#F7F7F7"/>
<path d="M17.9885 19.6089C17.9003 14.1979 17.1731 12.6561 11.6088 11.6801C11.6088 11.6801 10.8256 12.6501 8.99993 12.6501C7.17431 12.6501 6.39091 11.6801 6.39091 11.6801C0.887322 12.6454 0.115961 14.1644 0.0145378 19.4332C0.00622102 19.8634 0.00242457 19.886 0.000937025 19.8361C0.0012751 19.9297 0.00162302 20.1027 0.00162302 20.4046C0.00162302 20.4046 1.32635 23 8.99993 23C16.6734 23 17.9982 20.4046 17.9982 20.4046C17.9982 20.2106 17.9984 20.0757 17.9986 19.984C17.9972 20.0148 17.9941 19.9551 17.9885 19.6089Z" fill="#F7F7F7"/>
</svg>
