<svg width="80" height="80" viewBox="0 0 80 80" fill="none" xmlns="http://www.w3.org/2000/svg">
<rect x="1" y="1" width="78" height="78" rx="39" stroke="white" stroke-width="2"/>
<path d="M49.944 54C50.4839 52.2576 52.2446 46.1875 52.2446 43.9507V36.1831C52.2446 35.1365 51.4038 34.2848 50.3704 34.2848C49.3373 34.2848 48.4965 35.1365 48.4965 36.1831V39.4953C48.4965 39.6899 48.3383 39.8481 48.1437 39.8481C47.9491 39.8481 47.791 39.6899 47.791 39.4953V34.3192C47.791 33.2728 46.95 32.4213 45.9165 32.4213C44.8831 32.4213 44.0424 33.2728 44.0424 34.3192V38.0094C44.0424 38.204 43.8841 38.3621 43.6897 38.3621C43.4951 38.3621 43.3371 38.2039 43.3371 38.0094V32.8338C43.3371 31.7876 42.4963 30.9365 41.4628 30.9365C40.4296 30.9365 39.5889 31.7876 39.5889 32.8338V36.5249C39.5889 36.7193 39.4305 36.8777 39.2361 36.8777C39.0414 36.8777 38.8833 36.7193 38.8833 36.5249V25.8978C38.8834 24.8512 38.0424 24 37.0089 24C35.9755 24 35.1345 24.8512 35.1345 25.8978V42.3535C35.1345 42.4999 35.0427 42.6325 34.9057 42.6839C34.7698 42.7348 34.6109 42.6943 34.5163 42.5856L30.1263 37.5638L30.0747 37.5104C29.7229 37.1775 29.2613 36.9928 28.7755 36.9901H28.7629C28.2576 36.996 27.7903 37.1883 27.4473 37.5321C27.0149 37.9647 26.6762 38.7915 27.5199 40.2752C28.8011 42.5254 30.2014 44.6596 31.442 46.5501C32.3643 47.9562 33.2357 49.284 33.8852 50.404C34.3005 51.1208 35.1668 53.0027 35.6458 53.9999H49.944V54Z" fill="white"/>
</svg>
