<svg width="21" height="21" viewBox="0 0 21 21" fill="none" xmlns="http://www.w3.org/2000/svg">
<path d="M12.6451 20.8565C12.5426 20.8606 12.477 20.8688 12.4113 20.8688C11.0086 20.8688 9.60996 20.8647 8.20723 20.8729C8.01035 20.8729 7.95703 20.8195 7.95703 20.6227C7.96113 17.3578 7.96113 14.0889 7.96113 10.824C7.96113 10.7379 7.96113 10.6518 7.96113 10.541C7.19824 10.541 6.45586 10.541 5.70117 10.541C5.70117 9.37618 5.70117 8.23184 5.70117 7.0547C5.7791 7.0547 5.85293 7.0547 5.92266 7.0547C6.53789 7.0547 7.15312 7.0506 7.76836 7.0588C7.92422 7.0588 7.96523 7.01368 7.96523 6.86192C7.95703 5.94728 7.95703 5.02853 7.96523 4.11388C7.96934 3.47403 8.07188 2.8506 8.36719 2.27228C8.78965 1.45606 9.4582 0.926963 10.3031 0.598838C10.9922 0.328135 11.7182 0.229698 12.4482 0.217393C13.6377 0.200987 14.8271 0.20919 16.0166 0.205088C16.1273 0.205088 16.2176 0.200987 16.2176 0.356846C16.2135 1.48478 16.2135 2.61271 16.2135 3.74063C16.2135 3.75294 16.2094 3.76524 16.193 3.81856C16.1232 3.81856 16.0453 3.81856 15.9674 3.81856C15.2291 3.81856 14.4908 3.81446 13.7525 3.81856C13.326 3.81856 12.9814 3.99083 12.7641 4.36407C12.6984 4.47481 12.6574 4.61837 12.6574 4.74962C12.6451 5.44689 12.6574 6.14415 12.6492 6.84142C12.6492 7.00548 12.6984 7.0506 12.8584 7.0506C13.8838 7.04239 14.9092 7.04649 15.9346 7.04649C16.0166 7.04649 16.0945 7.04649 16.234 7.04649C16.0904 8.21954 15.951 9.36798 15.8074 10.5287C14.741 10.5287 13.7033 10.5287 12.6451 10.5287C12.6451 13.9781 12.6451 17.407 12.6451 20.8565Z" fill="black"/>
</svg>
