<svg width="41" height="41" viewBox="0 0 41 41" fill="none" xmlns="http://www.w3.org/2000/svg">
<circle cx="20.5" cy="20.5" r="20" stroke="#E2DFDF"/>
<path d="M28.9566 27.84L25.9378 24.8212C28.4624 21.7424 28.2866 17.1811 25.4002 14.2967C22.34 11.2344 17.3693 11.2344 14.2967 14.2967C11.2344 17.3693 11.2344 22.34 14.2967 25.4002C17.1811 28.2866 21.7424 28.4624 24.8212 25.9378L27.84 28.9566C27.9062 29.0145 28.0116 29.0145 28.0675 28.9566L28.9566 28.0675C29.0145 28.0116 29.0145 27.9062 28.9566 27.84ZM24.3043 24.3043C21.8479 26.7586 17.8696 26.7586 15.4132 24.3043C12.9589 21.8479 12.9589 17.8696 15.4132 15.4132C17.8696 12.9589 21.8479 12.9589 24.3043 15.4132C26.7586 17.8696 26.7586 21.8479 24.3043 24.3043Z" fill="black"/>
</svg>
