<svg xmlns="http://www.w3.org/2000/svg" width="76.842" height="16" viewBox="0 0 76.842 16">
  <g id="cta-reviews" transform="translate(-1282 -17)">
    <path id="Path_46" data-name="Path 46" d="M37.342,254.614H30.908L28.927,248.5l-1.992,6.114L20.5,254.6l5.2,3.783L23.711,264.5l5.2-3.783,5.2,3.783-1.981-6.114Z" transform="translate(1261.5 -231.5)" fill="#fb3"/>
    <path id="Path_47" data-name="Path 47" d="M37.342,254.614H30.908L28.927,248.5l-1.992,6.114L20.5,254.6l5.2,3.783L23.711,264.5l5.2-3.783,5.2,3.783-1.981-6.114Z" transform="translate(1281.5 -231.5)" fill="#fb3"/>
    <path id="Path_48" data-name="Path 48" d="M37.342,254.614H30.908L28.927,248.5l-1.992,6.114L20.5,254.6l5.2,3.783L23.711,264.5l5.2-3.783,5.2,3.783-1.981-6.114Z" transform="translate(1301.5 -231.5)" fill="#fb3"/>
    <path id="Path_49" data-name="Path 49" d="M37.342,254.614H30.908L28.927,248.5l-1.992,6.114L20.5,254.6l5.2,3.783L23.711,264.5l5.2-3.783,5.2,3.783-1.981-6.114Z" transform="translate(1321.5 -231.5)" fill="#fb3"/>
  </g>
</svg>
