<svg id="Group_1410" data-name="Group 1410" xmlns="http://www.w3.org/2000/svg" width="84" height="84" viewBox="0 0 84 84">
  <circle id="Ellipse_322" data-name="Ellipse 322" cx="42" cy="42" r="42" fill="#f0f1f5"/>
  <path id="Path_377" data-name="Path 377" d="M34.18,57.43,31,63l3,2-2.57,3.91L32,71H21l.43-1.5A17.223,17.223,0,0,1,34.18,57.43Z" fill="#fff" stroke="#14181e" stroke-linecap="round" stroke-linejoin="round" stroke-width="2"/>
  <path id="Path_378" data-name="Path 378" d="M45.04,59.59,42,71,38.96,59.59a3.982,3.982,0,0,0,6.08,0Z" fill="#fff" stroke="#14181e" stroke-linecap="round" stroke-linejoin="round" stroke-width="2"/>
  <path id="Path_379" data-name="Path 379" d="M52,71l.57-2.09L50,65l3-2-3.18-5.57a17.39,17.39,0,0,1,6.56,3.05,17.133,17.133,0,0,1,6.19,9.02L63,71Z" fill="#fff" stroke="#14181e" stroke-linecap="round" stroke-linejoin="round" stroke-width="2"/>
  <path id="Path_380" data-name="Path 380" d="M46,50.42V56l-.96,3.58v.01a3.982,3.982,0,0,1-6.08,0L38,56V50.42a14.083,14.083,0,0,0,8,0Z" fill="#fff" stroke="#14181e" stroke-linecap="round" stroke-linejoin="round" stroke-width="2"/>
  <path id="Path_381" data-name="Path 381" d="M42,27c-3.22,2.55-6.58,5-11,5H26V27H42Z" fill="#fff" stroke="#14181e" stroke-linecap="round" stroke-linejoin="round" stroke-width="2"/>
  <path id="Path_382" data-name="Path 382" d="M58,27v5a10.2,10.2,0,0,1-2-.2A10.025,10.025,0,0,1,49.34,27Z" fill="#fff" stroke="#14181e" stroke-linecap="round" stroke-linejoin="round" stroke-width="2"/>
  <path id="Path_383" data-name="Path 383" d="M45,27h4.34A10.025,10.025,0,0,0,56,31.8V37a13.763,13.763,0,0,1-.55,3.87,12.874,12.874,0,0,1-.68,1.86c-.1.24-.22.47-.34.7-.13.26-.27.51-.42.76-.13.22-.26.43-.4.63-.11.16-.21.31-.33.46a.71.71,0,0,1-.1.14c-.11.15-.23.3-.35.44a13.1,13.1,0,0,1-1.97,1.97c-.13.12-.27.22-.41.33a13.839,13.839,0,0,1-1.19.81c-.16.1-.32.19-.48.28-.27.15-.54.29-.82.42-.17.08-.34.16-.52.23a14.082,14.082,0,0,1-1.62.57c-.25.07-.51.14-.78.2h-.01q-.48.105-.99.18c-.31.05-.63.08-.96.1a.375.375,0,0,1-.11.01c-.32.03-.64.04-.97.04s-.65-.01-.97-.04a.375.375,0,0,1-.11-.01c-.33-.02-.65-.05-.96-.1q-.51-.075-.99-.18h-.01c-.27-.06-.53-.13-.78-.2-.38-.11-.75-.23-1.1-.37-.18-.06-.35-.13-.52-.2-.39-.16-.76-.34-1.12-.53a14.052,14.052,0,0,1-6.49-7.3c-.04-.1-.08-.2-.12-.31-.07-.19-.13-.39-.19-.58L28.58,41c-.1-.32-.18-.64-.25-.97s-.13-.65-.18-.99A13.6,13.6,0,0,1,28,37V32h3c4.42,0,7.78-2.45,11-5Z" fill="#fff" stroke="#14181e" stroke-linecap="round" stroke-linejoin="round" stroke-width="2"/>
  <path id="Path_384" data-name="Path 384" d="M28.58,41H27.5a4.5,4.5,0,0,1,0-9H28v5A13.918,13.918,0,0,0,28.58,41Z" fill="#fff" stroke="#14181e" stroke-linecap="round" stroke-linejoin="round" stroke-width="2"/>
  <path id="Path_385" data-name="Path 385" d="M61,36.5A4.507,4.507,0,0,1,56.5,41H55.42A13.918,13.918,0,0,0,56,37V32h.5A4.494,4.494,0,0,1,61,36.5Z" fill="#fff" stroke="#14181e" stroke-linecap="round" stroke-linejoin="round" stroke-width="2"/>
  <path id="Path_386" data-name="Path 386" d="M25,27V25A12,12,0,0,1,37,13H47a11.989,11.989,0,0,1,9.22,4.31.218.218,0,0,0,.04.05A11.991,11.991,0,0,1,59,25v2Z" fill="#fff" stroke="#14181e" stroke-linecap="round" stroke-linejoin="round" stroke-width="2"/>
  <path id="Rectangle_1066" data-name="Rectangle 1066" d="M0,0H18a0,0,0,0,1,0,0V3a9,9,0,0,1-9,9H9A9,9,0,0,1,0,3V0A0,0,0,0,1,0,0Z" transform="translate(33 39)" fill="#fff" stroke="#14181e" stroke-linecap="round" stroke-linejoin="round" stroke-width="2"/>
  <line id="Line_66" data-name="Line 66" x2="6" y2="7" transform="translate(27 32)" fill="#fff" stroke="#14181e" stroke-linecap="round" stroke-linejoin="round" stroke-width="2"/>
  <line id="Line_67" data-name="Line 67" x1="6" y2="7" transform="translate(51 32)" fill="#fff" stroke="#14181e" stroke-linecap="round" stroke-linejoin="round" stroke-width="2"/>
  <path id="Path_387" data-name="Path 387" d="M42,71H32l-.57-2.09L34,65l-3-2,3.18-5.57L35,56h3l.96,3.59Z" fill="#fff" stroke="#14181e" stroke-linecap="round" stroke-linejoin="round" stroke-width="2"/>
  <path id="Path_388" data-name="Path 388" d="M50,65l2.57,3.91L52,71H42l3.04-11.41v-.01L46,56h3l.82,1.43L53,63Z" fill="#fff" stroke="#14181e" stroke-linecap="round" stroke-linejoin="round" stroke-width="2"/>
  <circle id="Ellipse_323" data-name="Ellipse 323" cx="2" cy="2" r="2" transform="translate(45 31)" fill="none" stroke="#14181e" stroke-linecap="round" stroke-linejoin="round" stroke-width="2"/>
  <circle id="Ellipse_324" data-name="Ellipse 324" cx="2" cy="2" r="2" transform="translate(35 31)" fill="none" stroke="#14181e" stroke-linecap="round" stroke-linejoin="round" stroke-width="2"/>
</svg>
