<svg xmlns="http://www.w3.org/2000/svg" width="84" height="84" viewBox="0 0 84 84">
  <g id="Group_1406" data-name="Group 1406" transform="translate(134 -268)">
    <circle id="Ellipse_321" data-name="Ellipse 321" cx="42" cy="42" r="42" transform="translate(-134 268)" fill="#f0f1f5"/>
    <path id="Path_368" data-name="Path 368" d="M-76.038,302.735a9.652,9.652,0,0,0-8.7-8.7,9.584,9.584,0,0,0-3.975.481,10.029,10.029,0,0,1-6.578,0,9.571,9.571,0,0,0-3.976-.482,9.652,9.652,0,0,0-8.7,8.7,9.55,9.55,0,0,0,2.15,6.956,13.5,13.5,0,0,1,2.708,5.9l1.619,7.859A3.193,3.193,0,0,0-98.352,326h0a3.2,3.2,0,0,0,3.108-2.44l1.379-5.642a1.92,1.92,0,0,1,3.73,0l1.379,5.642A3.2,3.2,0,0,0-85.648,326h0a3.193,3.193,0,0,0,3.133-2.549l1.619-7.859a13.5,13.5,0,0,1,2.708-5.9A9.55,9.55,0,0,0-76.038,302.735Z" fill="#fff" stroke="#14181e" stroke-linejoin="round" stroke-width="2"/>
    <rect id="Rectangle_1062" data-name="Rectangle 1062" width="54" height="54" rx="4" transform="translate(-119 283)" fill="none" stroke="#14181e" stroke-linecap="round" stroke-linejoin="round" stroke-width="2"/>
    <line id="Line_58" data-name="Line 58" x2="6" transform="translate(-119 289)" fill="none" stroke="#14181e" stroke-linejoin="round" stroke-width="2"/>
    <line id="Line_59" data-name="Line 59" x2="6" transform="translate(-119 295)" fill="none" stroke="#14181e" stroke-linejoin="round" stroke-width="2"/>
    <line id="Line_60" data-name="Line 60" x2="6" transform="translate(-119 301)" fill="none" stroke="#14181e" stroke-linejoin="round" stroke-width="2"/>
    <line id="Line_61" data-name="Line 61" x2="6" transform="translate(-119 307)" fill="none" stroke="#14181e" stroke-linejoin="round" stroke-width="2"/>
    <line id="Line_62" data-name="Line 62" x2="6" transform="translate(-119 313)" fill="none" stroke="#14181e" stroke-linejoin="round" stroke-width="2"/>
    <line id="Line_63" data-name="Line 63" x2="6" transform="translate(-119 319)" fill="none" stroke="#14181e" stroke-linejoin="round" stroke-width="2"/>
    <line id="Line_64" data-name="Line 64" x2="6" transform="translate(-119 325)" fill="none" stroke="#14181e" stroke-linejoin="round" stroke-width="2"/>
    <line id="Line_65" data-name="Line 65" x2="6" transform="translate(-119 331)" fill="none" stroke="#14181e" stroke-linejoin="round" stroke-width="2"/>
  </g>
</svg>
