<svg xmlns="http://www.w3.org/2000/svg" width="84" height="84" viewBox="0 0 84 84">
  <g id="Group_1394" data-name="Group 1394" transform="translate(134 402)">
    <circle id="Ellipse_301" data-name="Ellipse 301" cx="42" cy="42" r="42" transform="translate(-134 -402)" fill="#f0f1f5"/>
    <rect id="Rectangle_1049" data-name="Rectangle 1049" width="38" height="60" rx="5" transform="translate(-111 -390)" fill="#fff" stroke="#14181e" stroke-miterlimit="10" stroke-width="2"/>
    <rect id="Rectangle_1050" data-name="Rectangle 1050" width="30" height="42" rx="1" transform="translate(-107 -386)" fill="none" stroke="#14181e" stroke-miterlimit="10" stroke-width="2"/>
    <circle id="Ellipse_302" data-name="Ellipse 302" cx="2.5" cy="2.5" r="2.5" transform="translate(-94.5 -340)" fill="none" stroke="#14181e" stroke-miterlimit="10" stroke-width="2"/>
    <path id="Path_328" data-name="Path 328" d="M-84.019-376.633a4.825,4.825,0,0,0-4.349-4.348,4.78,4.78,0,0,0-1.987.241,5.027,5.027,0,0,1-3.29,0,4.78,4.78,0,0,0-1.987-.241,4.825,4.825,0,0,0-4.349,4.348,4.778,4.778,0,0,0,1.075,3.478,6.746,6.746,0,0,1,1.354,2.951l.809,3.929A1.6,1.6,0,0,0-95.176-365h0a1.6,1.6,0,0,0,1.554-1.22l.689-2.821a.961.961,0,0,1,1.866,0l.689,2.821A1.6,1.6,0,0,0-88.824-365h0a1.6,1.6,0,0,0,1.567-1.275l.809-3.929a6.746,6.746,0,0,1,1.354-2.951A4.778,4.778,0,0,0-84.019-376.633Z" fill="none" stroke="#14181e" stroke-linecap="round" stroke-linejoin="round" stroke-width="2"/>
    <line id="Line_53" data-name="Line 53" x2="3" y2="3" transform="translate(-89.8 -352.8)" fill="none" stroke="#231f20" stroke-linecap="round" stroke-linejoin="round" stroke-width="2"/>
    <circle id="Ellipse_303" data-name="Ellipse 303" cx="4.5" cy="4.5" r="4.5" transform="translate(-97.5 -360.5)" fill="none" stroke="#14181e" stroke-linecap="round" stroke-linejoin="round" stroke-width="2"/>
  </g>
</svg>
