<svg xmlns="http://www.w3.org/2000/svg" width="84" height="84" viewBox="0 0 84 84">
  <g id="Group_1405" data-name="Group 1405" transform="translate(0 -134)">
    <circle id="Ellipse_316" data-name="Ellipse 316" cx="42" cy="42" r="42" transform="translate(0 134)" fill="#f0f1f5"/>
    <rect id="Rectangle_1057" data-name="Rectangle 1057" width="48" height="48" transform="translate(18 152)" fill="none" stroke="#14181e" stroke-linecap="round" stroke-linejoin="round" stroke-width="2"/>
    <rect id="Rectangle_1058" data-name="Rectangle 1058" width="6" height="6" transform="translate(15 149)" fill="#f0f1f5" stroke="#14181e" stroke-linecap="round" stroke-linejoin="round" stroke-width="2"/>
    <rect id="Rectangle_1059" data-name="Rectangle 1059" width="6" height="6" transform="translate(63 149)" fill="#f0f1f5" stroke="#14181e" stroke-linecap="round" stroke-linejoin="round" stroke-width="2"/>
    <rect id="Rectangle_1060" data-name="Rectangle 1060" width="6" height="6" transform="translate(15 197)" fill="#f0f1f5" stroke="#14181e" stroke-linecap="round" stroke-linejoin="round" stroke-width="2"/>
    <rect id="Rectangle_1061" data-name="Rectangle 1061" width="6" height="6" transform="translate(63 197)" fill="#f0f1f5" stroke="#14181e" stroke-linecap="round" stroke-linejoin="round" stroke-width="2"/>
    <circle id="Ellipse_317" data-name="Ellipse 317" cx="2" cy="2" r="2" transform="translate(40 150)" fill="#f0f1f5" stroke="#14181e" stroke-linecap="round" stroke-linejoin="round" stroke-width="2"/>
    <circle id="Ellipse_318" data-name="Ellipse 318" cx="2" cy="2" r="2" transform="translate(40 198)" fill="#f0f1f5" stroke="#14181e" stroke-linecap="round" stroke-linejoin="round" stroke-width="2"/>
    <circle id="Ellipse_319" data-name="Ellipse 319" cx="2" cy="2" r="2" transform="translate(64 174)" fill="#f0f1f5" stroke="#14181e" stroke-linecap="round" stroke-linejoin="round" stroke-width="2"/>
    <circle id="Ellipse_320" data-name="Ellipse 320" cx="2" cy="2" r="2" transform="translate(16 174)" fill="#f0f1f5" stroke="#14181e" stroke-linecap="round" stroke-linejoin="round" stroke-width="2"/>
    <path id="Path_367" data-name="Path 367" d="M57.962,168.735a9.6,9.6,0,0,0-12.673-8.216,10.029,10.029,0,0,1-6.578,0,9.593,9.593,0,0,0-10.523,15.171,13.5,13.5,0,0,1,2.708,5.9l1.619,7.859A3.193,3.193,0,0,0,35.648,192h0a3.2,3.2,0,0,0,3.108-2.44l1.379-5.642a1.92,1.92,0,0,1,3.73,0l1.379,5.642A3.2,3.2,0,0,0,48.352,192h0a3.193,3.193,0,0,0,3.133-2.549l1.619-7.859a13.5,13.5,0,0,1,2.708-5.9A9.55,9.55,0,0,0,57.962,168.735Z" fill="#fff" stroke="#14181e" stroke-linejoin="round" stroke-width="2"/>
  </g>
</svg>
