<svg xmlns="http://www.w3.org/2000/svg" width="175" height="52.664" viewBox="0 0 175 52.664">
  <g id="logo-instasmile-strapline-black" transform="translate(-269.291 -264.472)">
    <path id="Path_252" data-name="Path 252" d="M271.64,268.92a2.084,2.084,0,0,1-2.349-2.2,2.108,2.108,0,0,1,2.392-2.244,2.227,2.227,0,1,1-.043,4.448m-1.988,21.669V274.767c0-1.442.756-1.92,1.79-1.92h.4c1.034,0,1.753.438,1.753,1.92v15.823c0,1.441-.719,1.883-1.753,1.883h-.4c-1.034,0-1.79-.441-1.79-1.883m9,0v-17.3a1.948,1.948,0,0,1,1.432-.438c1.155,0,2.349.6,2.469,3.124a7.4,7.4,0,0,1,6.371-3.4c5.056,0,7.405,3.485,7.405,8.251v9.773c0,1.441-.756,1.883-1.753,1.883h-.435c-1.037,0-1.753-.441-1.753-1.883V281.3c0-3.247-1.633-5.248-4.42-5.248a5.783,5.783,0,0,0-5.374,3.365v11.174c0,1.441-.756,1.883-1.753,1.883H280.4c-1.034,0-1.75-.441-1.75-1.883m20.944-1.883a2.024,2.024,0,0,1,1.553-1.8,7.867,7.867,0,0,0,6.451,2.886c2.707,0,4.22-1,4.22-2.605,0-1.963-1.79-2.324-4.936-3-2.827-.6-6.729-1.482-6.729-5.569,0-3.605,2.985-6.047,7.643-6.047,4.9,0,7.368,2.081,7.368,3.883a2.1,2.1,0,0,1-1.6,1.843,6.906,6.906,0,0,0-5.612-2.723c-2.707,0-4.142,1.04-4.142,2.646,0,1.759,1.673,2.161,4.778,2.843,2.948.642,7.047,1.522,7.047,5.686,0,3.686-3.025,6.05-7.964,6.05-5.334,0-8.081-2.244-8.081-4.087m21.3-2.244V276.291H319.5c-1.235,0-1.713-.522-1.713-1.485v-.278c0-.963.478-1.482,1.713-1.482H320.9v-2.966c0-1.361.676-1.883,1.753-1.883h.4c1.037,0,1.713.4,1.713,1.883v2.966h4.34c1.235,0,1.673.478,1.673,1.442v.278c0,1-.478,1.525-1.713,1.525h-4.34v9.733c0,2.4.679,3.565,2.55,3.565a3.241,3.241,0,0,0,2.707-1.361c.12-.12,1.114.441,1.114,1.682,0,1.482-1.63,2.923-4.46,2.923-3.939,0-5.732-2.2-5.732-6.371m12.224.8c0-4.445,4.22-6.368,12.863-6.529h.519v-.4c0-2.923-1.673-4.525-4.741-4.525a5.782,5.782,0,0,0-5.495,3.284c0,.04-2.426,0-2.426-1.923,0-1.843,2.784-4.606,8.2-4.606s8.359,2.8,8.359,7.689v11.816c0,.2-.716.441-1.432.441-1.392,0-2.389-.759-2.429-3.084a8.259,8.259,0,0,1-6.887,3.324c-4.1,0-6.532-2.2-6.532-5.488m3.865-.161c0,1.722,1.352,2.806,3.621,2.806,3.426,0,5.9-2.164,5.9-5.207v-1.485l-1.077.04c-5.575.2-8.439,1.244-8.439,3.846m16.681,1.6a2.028,2.028,0,0,1,1.553-1.8,7.872,7.872,0,0,0,6.451,2.886c2.707,0,4.22-1,4.22-2.605,0-1.963-1.79-2.324-4.936-3-2.827-.6-6.729-1.482-6.729-5.569,0-3.605,2.988-6.047,7.646-6.047,4.9,0,7.365,2.081,7.365,3.883a2.1,2.1,0,0,1-1.593,1.843,6.912,6.912,0,0,0-5.615-2.723c-2.707,0-4.139,1.04-4.139,2.646,0,1.759,1.67,2.161,4.778,2.843,2.945.642,7.047,1.522,7.047,5.686,0,3.686-3.025,6.05-7.964,6.05-5.337,0-8.084-2.244-8.084-4.087m19.87,1.883v-17.3a1.952,1.952,0,0,1,1.435-.438c1.114,0,2.309.559,2.466,2.963a7.1,7.1,0,0,1,5.933-3.244,6.211,6.211,0,0,1,6.251,4.044,7.523,7.523,0,0,1,6.652-4.044c4.856,0,7.2,2.963,7.2,7.93v10.094c0,1.441-.716,1.883-1.75,1.883h-.4c-1.074,0-1.79-.441-1.79-1.883v-9.612c0-3.244-1.4-4.927-4.223-4.927a5.6,5.6,0,0,0-4.859,3.2v11.335c0,1.441-.716,1.883-1.75,1.883h-.4c-1.037,0-1.793-.441-1.793-1.883v-9.452c0-3.4-1.392-5.087-4.22-5.087a5.539,5.539,0,0,0-4.819,3.2v11.335c0,1.441-.756,1.883-1.75,1.883h-.441c-1.034,0-1.75-.441-1.75-1.883m36.751-21.669a2.084,2.084,0,0,1-2.349-2.2,2.107,2.107,0,0,1,2.389-2.244,2.227,2.227,0,1,1-.04,4.448M408.3,290.589V274.767c0-1.442.756-1.92,1.793-1.92h.4c1.034,0,1.75.438,1.75,1.92v15.823c0,1.441-.716,1.883-1.75,1.883h-.4c-1.037,0-1.793-.441-1.793-1.883m9.159,0V265.234a2.041,2.041,0,0,1,1.432-.441c1.235,0,2.51.642,2.51,3.4v22.392c0,1.441-.716,1.883-1.75,1.883h-.4c-1.037,0-1.793-.441-1.793-1.883m7.844-7.81c0-5.85,4.143-10.214,9.794-10.214,5.538,0,9.2,3.923,9.2,9.693v.321c0,.84-.278,1.161-1.195,1.161H428.962a6.256,6.256,0,0,0,6.529,5.97c3.346,0,5.019-1.482,6.013-3.207.08-.077,2.071.284,2.071,1.966s-2.945,4.365-8.162,4.365c-6.053,0-10.115-4.047-10.115-10.054m3.7-1.722H440.47c-.2-3.324-2.232-5.488-5.414-5.488A6.121,6.121,0,0,0,429,281.057" transform="translate(0)" fill="#14181e"/>
    <g id="Group_701" data-name="Group 701" transform="translate(269.652 303.424)">
      <path id="Path_253" data-name="Path 253" d="M277.421,282.38c0,3.031-2.195,5.013-5.386,5.013h-2.627V277.37h2.627C275.279,277.37,277.421,279.364,277.421,282.38Zm-6.4,3.531H272.1a3.532,3.532,0,1,0,.016-7.059h-1.093Z" transform="translate(-269.408 -276.509)" fill="#14181e"/>
      <path id="Path_254" data-name="Path 254" d="M272.667,278.1a.93.93,0,1,1,.929.9A.9.9,0,0,1,272.667,278.1Zm.136,2.331h1.59v7.356H272.8Z" transform="translate(-262.607 -276.901)" fill="#14181e"/>
      <path id="Path_255" data-name="Path 255" d="M279,278.8v1.454a3.712,3.712,0,0,0-2.21-.713c-.833,0-1.293.324-1.293.837,0,.549.553.753,1.482,1.022,1.161.312,2.451.7,2.451,2.21,0,1.386-1.09,2.275-2.908,2.275a4.256,4.256,0,0,1-2.574-.781v-1.562a3.709,3.709,0,0,0,2.519,1c.9,0,1.417-.377,1.417-.917,0-.605-.636-.809-1.645-1.117-1.2-.349-2.29-.781-2.29-2.087,0-1.281,1.053-2.238,2.791-2.238A4.193,4.193,0,0,1,279,278.8Z" transform="translate(-259.928 -274.825)" fill="#14181e"/>
      <path id="Path_256" data-name="Path 256" d="M280.177,284.428a3.156,3.156,0,0,0,1.914-.58v1.522a4.227,4.227,0,0,1-2.087.512,3.853,3.853,0,0,1,0-7.7,3.894,3.894,0,0,1,2.087.528v1.534a3.17,3.17,0,0,0-1.926-.605,2.4,2.4,0,0,0,.012,4.794Z" transform="translate(-255.168 -274.825)" fill="#14181e"/>
      <path id="Path_257" data-name="Path 257" d="M278.663,282.029a3.74,3.74,0,1,1,3.744,3.852A3.705,3.705,0,0,1,278.663,282.029Zm5.871,0a2.149,2.149,0,1,0-2.127,2.4A2.2,2.2,0,0,0,284.534,282.029Z" transform="translate(-250.095 -274.825)" fill="#14181e"/>
      <path id="Path_258" data-name="Path 258" d="M281.42,278.234h1.7l1.846,5.63H285l1.846-5.63h1.642l-2.679,7.356H284.1Z" transform="translate(-244.341 -274.706)" fill="#14181e"/>
      <path id="Path_259" data-name="Path 259" d="M290.858,282.514h-5.278a2.376,2.376,0,0,0,2.491,2.05,3.866,3.866,0,0,0,2.4-.877v1.429a4.473,4.473,0,0,1-2.559.766,3.856,3.856,0,0,1-.256-7.7c1.778,0,3.244,1.281,3.244,3.72A4.2,4.2,0,0,1,290.858,282.514Zm-1.466-1.062a1.778,1.778,0,0,0-1.753-1.954,2.138,2.138,0,0,0-2.074,1.954Z" transform="translate(-238.87 -274.825)" fill="#14181e"/>
      <path id="Path_260" data-name="Path 260" d="M286.951,278.288h1.266l.164,1.145h.028a2.314,2.314,0,0,1,2.059-1.225,2.74,2.74,0,0,1,.513.04v1.509a2.5,2.5,0,0,0-.553-.056,1.8,1.8,0,0,0-1.886,1.982v3.96h-1.59Z" transform="translate(-232.799 -274.76)" fill="#14181e"/>
      <path id="Path_261" data-name="Path 261" d="M292.829,288.417h-1.605l1.266-3.071-2.76-7.112h1.722l1.846,5.306h.028l1.858-5.306h1.645Z" transform="translate(-227 -274.706)" fill="#14181e"/>
      <path id="Path_262" data-name="Path 262" d="M292.341,282.029a3.74,3.74,0,1,1,3.744,3.852A3.705,3.705,0,0,1,292.341,282.029Zm5.874,0a2.15,2.15,0,1,0-2.13,2.4A2.209,2.209,0,0,0,298.215,282.029Z" transform="translate(-221.551 -274.825)" fill="#14181e"/>
      <path id="Path_263" data-name="Path 263" d="M295.4,282.707v-4.473h1.59v4.485a1.422,1.422,0,0,0,1.522,1.59,1.464,1.464,0,0,0,1.59-1.6v-4.473h1.59v4.457a2.943,2.943,0,0,1-3.179,3.071A2.891,2.891,0,0,1,295.4,282.707Z" transform="translate(-215.162 -274.706)" fill="#14181e"/>
      <path id="Path_264" data-name="Path 264" d="M298.227,278.288h1.266l.164,1.145h.025a2.322,2.322,0,0,1,2.062-1.225,2.762,2.762,0,0,1,.512.04v1.509a2.5,2.5,0,0,0-.553-.056,1.8,1.8,0,0,0-1.886,1.982v3.96h-1.59Z" transform="translate(-209.269 -274.76)" fill="#14181e"/>
      <path id="Path_265" data-name="Path 265" d="M305.067,284.428a3.148,3.148,0,0,0,1.911-.58v1.522a4.227,4.227,0,0,1-2.087.512,3.853,3.853,0,0,1,0-7.7,3.894,3.894,0,0,1,2.087.528v1.534a3.166,3.166,0,0,0-1.926-.608,2.4,2.4,0,0,0,.015,4.8Z" transform="translate(-203.234 -274.825)" fill="#14181e"/>
      <path id="Path_266" data-name="Path 266" d="M303.55,282.029a3.74,3.74,0,1,1,3.744,3.852A3.705,3.705,0,0,1,303.55,282.029Zm5.874,0a2.15,2.15,0,1,0-2.13,2.4A2.209,2.209,0,0,0,309.424,282.029Z" transform="translate(-198.16 -274.825)" fill="#14181e"/>
      <path id="Path_267" data-name="Path 267" d="M312.93,280.819v4.89h-1.59v-4.38c0-1.13-.509-1.67-1.494-1.67a1.566,1.566,0,0,0-1.614,1.605v4.445h-1.59v-7.356h1.225l.173,1.093h.04a2.621,2.621,0,0,1,2.238-1.269A2.448,2.448,0,0,1,312.93,280.819Z" transform="translate(-191.708 -274.825)" fill="#14181e"/>
      <path id="Path_268" data-name="Path 268" d="M310.276,281.965h-1.037v-1.346h1.037v-.969a2.5,2.5,0,0,1,2.655-2.559,4.269,4.269,0,0,1,1.306.213v1.4a3.534,3.534,0,0,0-1.065-.188,1.155,1.155,0,0,0-1.318,1.309v.793H313.9v1.346h-2.034v6.01h-1.59Z" transform="translate(-186.289 -277.091)" fill="#14181e"/>
      <path id="Path_269" data-name="Path 269" d="M311.322,278.1a.93.93,0,1,1,.929.9A.9.9,0,0,1,311.322,278.1Zm.136,2.331h1.59v7.356h-1.59Z" transform="translate(-181.942 -276.901)" fill="#14181e"/>
      <path id="Path_270" data-name="Path 270" d="M312.556,284.233c0-2.355,1.59-3.852,3.315-3.852a2.781,2.781,0,0,1,2.451,1.374v-4.633h1.59v10.791h-1.321l-.188-1.269a2.863,2.863,0,0,1-2.519,1.442A3.55,3.55,0,0,1,312.556,284.233Zm5.794,0a2.114,2.114,0,1,0-2.09,2.4A2.2,2.2,0,0,0,318.35,284.233Z" transform="translate(-179.367 -277.028)" fill="#14181e"/>
      <path id="Path_271" data-name="Path 271" d="M322.434,282.514h-5.281a2.379,2.379,0,0,0,2.494,2.05,3.864,3.864,0,0,0,2.4-.877v1.429a4.459,4.459,0,0,1-2.559.766,3.6,3.6,0,0,1-3.865-3.825,3.638,3.638,0,0,1,3.612-3.88c1.775,0,3.244,1.281,3.244,3.72A4.2,4.2,0,0,1,322.434,282.514Zm-1.469-1.062a1.776,1.776,0,0,0-1.75-1.954,2.138,2.138,0,0,0-2.074,1.954Z" transform="translate(-172.977 -274.825)" fill="#14181e"/>
      <path id="Path_272" data-name="Path 272" d="M324.818,280.819v4.89h-1.59v-4.38c0-1.13-.512-1.67-1.494-1.67a1.569,1.569,0,0,0-1.617,1.605v4.445h-1.59v-7.356h1.225l.176,1.093h.04a2.621,2.621,0,0,1,2.238-1.269A2.448,2.448,0,0,1,324.818,280.819Z" transform="translate(-166.906 -274.825)" fill="#14181e"/>
      <path id="Path_273" data-name="Path 273" d="M325.159,284.428a3.156,3.156,0,0,0,1.914-.58v1.522a4.227,4.227,0,0,1-2.087.512,3.853,3.853,0,0,1,0-7.7,3.894,3.894,0,0,1,2.087.528v1.534a3.172,3.172,0,0,0-1.926-.608,2.4,2.4,0,0,0,.012,4.8Z" transform="translate(-161.299 -274.825)" fill="#14181e"/>
      <path id="Path_274" data-name="Path 274" d="M330.463,282.514h-5.281a2.379,2.379,0,0,0,2.494,2.05,3.864,3.864,0,0,0,2.4-.877v1.429a4.459,4.459,0,0,1-2.559.766,3.856,3.856,0,0,1-.256-7.7c1.778,0,3.247,1.281,3.247,3.72A4.205,4.205,0,0,1,330.463,282.514Zm-1.469-1.062a1.776,1.776,0,0,0-1.75-1.954,2.138,2.138,0,0,0-2.074,1.954Z" transform="translate(-156.222 -274.825)" fill="#14181e"/>
    </g>
  </g>
</svg>
