<svg xmlns="http://www.w3.org/2000/svg" width="114" height="18.475" viewBox="0 0 114 18.475">
  <g id="logo-instasmile" transform="translate(-234.768 -171.25)" style="isolation: isolate">
    <path id="Path_6" data-name="Path 6" d="M236.3,174.147a1.357,1.357,0,0,1-1.53-1.435,1.372,1.372,0,0,1,1.557-1.461,1.45,1.45,0,1,1-.026,2.9M235,188.264V177.956c0-.939.492-1.252,1.167-1.252h.259c.675,0,1.141.286,1.141,1.252v10.308c0,.939-.467,1.227-1.141,1.227h-.259c-.675,0-1.167-.287-1.167-1.227m5.861,0V176.991a1.273,1.273,0,0,1,.934-.286c.753,0,1.53.391,1.608,2.035a4.827,4.827,0,0,1,4.151-2.219c3.294,0,4.824,2.27,4.824,5.375v6.367c0,.939-.492,1.227-1.141,1.227h-.285c-.675,0-1.141-.287-1.141-1.227V182.21c0-2.114-1.064-3.419-2.88-3.419a3.768,3.768,0,0,0-3.5,2.192v7.28c0,.939-.493,1.227-1.141,1.227H242c-.675,0-1.141-.287-1.141-1.227m13.644-1.227a1.317,1.317,0,0,1,1.012-1.174,5.123,5.123,0,0,0,4.2,1.879c1.763,0,2.749-.652,2.749-1.7,0-1.279-1.167-1.514-3.216-1.957-1.841-.392-4.384-.966-4.384-3.627,0-2.348,1.945-3.94,4.98-3.94,3.19,0,4.8,1.357,4.8,2.531a1.37,1.37,0,0,1-1.038,1.2,4.5,4.5,0,0,0-3.657-1.774c-1.763,0-2.7.678-2.7,1.723,0,1.148,1.089,1.409,3.112,1.852,1.919.418,4.591.992,4.591,3.705,0,2.4-1.971,3.94-5.188,3.94-3.476,0-5.266-1.461-5.266-2.662m13.877-1.461v-6.628h-.908c-.8,0-1.115-.339-1.115-.966V177.8c0-.626.311-.966,1.115-.966h.908V174.9c0-.888.442-1.227,1.142-1.227h.259c.675,0,1.116.261,1.116,1.227v1.931h2.827c.8,0,1.09.313,1.09.939v.182c0,.653-.312.992-1.116.992h-2.827v6.341c0,1.566.441,2.322,1.66,2.322a2.106,2.106,0,0,0,1.763-.887c.078-.078.726.287.726,1.1,0,.966-1.063,1.9-2.9,1.9-2.568,0-3.735-1.435-3.735-4.15m7.964.522c0-2.9,2.749-4.149,8.378-4.253h.337v-.261c0-1.9-1.09-2.948-3.087-2.948a3.765,3.765,0,0,0-3.579,2.14c0,.025-1.582,0-1.582-1.253,0-1.2,1.815-3,5.343-3s5.447,1.827,5.447,5.01v7.7c0,.131-.467.286-.934.286-.908,0-1.556-.5-1.582-2.009a5.381,5.381,0,0,1-4.487,2.166c-2.672,0-4.254-1.435-4.254-3.575m2.516-.1c0,1.122.882,1.827,2.36,1.827,2.231,0,3.84-1.409,3.84-3.393v-.966l-.7.026c-3.631.131-5.5.809-5.5,2.505m10.868,1.044a1.317,1.317,0,0,1,1.012-1.174,5.124,5.124,0,0,0,4.2,1.879c1.763,0,2.749-.652,2.749-1.7,0-1.279-1.167-1.514-3.216-1.957-1.841-.392-4.384-.966-4.384-3.627,0-2.348,1.946-3.94,4.98-3.94,3.19,0,4.8,1.357,4.8,2.531a1.369,1.369,0,0,1-1.038,1.2,4.5,4.5,0,0,0-3.657-1.774c-1.763,0-2.7.678-2.7,1.723,0,1.148,1.089,1.409,3.112,1.852,1.919.418,4.591.992,4.591,3.705,0,2.4-1.971,3.94-5.188,3.94-3.476,0-5.266-1.461-5.266-2.662m12.944,1.227V176.991a1.271,1.271,0,0,1,.934-.286c.726,0,1.5.365,1.607,1.931a4.627,4.627,0,0,1,3.865-2.114,4.048,4.048,0,0,1,4.073,2.636,4.9,4.9,0,0,1,4.332-2.636c3.164,0,4.695,1.931,4.695,5.167v6.576c0,.939-.467,1.227-1.141,1.227h-.259c-.7,0-1.167-.287-1.167-1.227V182c0-2.114-.908-3.21-2.75-3.21a3.644,3.644,0,0,0-3.164,2.088v7.385c0,.939-.467,1.227-1.141,1.227H312.3c-.674,0-1.168-.287-1.168-1.227v-6.158c0-2.219-.908-3.315-2.749-3.315a3.607,3.607,0,0,0-3.139,2.088v7.385c0,.939-.493,1.227-1.141,1.227h-.286c-.674,0-1.141-.287-1.141-1.227m23.941-14.117a1.357,1.357,0,0,1-1.53-1.435,1.372,1.372,0,0,1,1.557-1.461,1.45,1.45,0,1,1-.026,2.9m-1.3,14.117V177.956c0-.939.492-1.252,1.167-1.252h.259c.675,0,1.141.286,1.141,1.252v10.308c0,.939-.467,1.227-1.141,1.227h-.259c-.674,0-1.167-.287-1.167-1.227m5.966,0V171.746a1.333,1.333,0,0,1,.934-.286c.8,0,1.634.417,1.634,2.218v14.587c0,.939-.466,1.227-1.141,1.227h-.259c-.675,0-1.168-.287-1.168-1.227m5.11-5.088a6.343,6.343,0,0,1,6.381-6.655c3.606,0,5.992,2.558,5.992,6.315v.209c0,.548-.181.756-.778.756h-9.209a4.438,4.438,0,0,0,8.171,1.8c.053-.052,1.349.183,1.349,1.279s-1.919,2.844-5.317,2.844a6.22,6.22,0,0,1-6.588-6.55m2.412-1.122h7.471a3.438,3.438,0,0,0-3.528-3.575,3.987,3.987,0,0,0-3.943,3.575" transform="translate(0 0)" fill="#14181e"/>
    <path id="Path_7" data-name="Path 7" d="M236.3,174.147a1.357,1.357,0,0,1-1.53-1.435,1.372,1.372,0,0,1,1.557-1.461,1.45,1.45,0,1,1-.026,2.9M235,188.264V177.956c0-.939.492-1.252,1.167-1.252h.259c.675,0,1.141.286,1.141,1.252v10.308c0,.939-.467,1.227-1.141,1.227h-.259c-.675,0-1.167-.287-1.167-1.227m5.861,0V176.991a1.273,1.273,0,0,1,.934-.286c.753,0,1.53.391,1.608,2.035a4.827,4.827,0,0,1,4.151-2.219c3.294,0,4.824,2.27,4.824,5.375v6.367c0,.939-.492,1.227-1.141,1.227h-.285c-.675,0-1.141-.287-1.141-1.227V182.21c0-2.114-1.064-3.419-2.88-3.419a3.768,3.768,0,0,0-3.5,2.192v7.28c0,.939-.493,1.227-1.141,1.227H242c-.675,0-1.141-.287-1.141-1.227m13.644-1.227a1.317,1.317,0,0,1,1.012-1.174,5.123,5.123,0,0,0,4.2,1.879c1.763,0,2.749-.652,2.749-1.7,0-1.279-1.167-1.514-3.216-1.957-1.841-.392-4.384-.966-4.384-3.627,0-2.348,1.945-3.94,4.98-3.94,3.19,0,4.8,1.357,4.8,2.531a1.37,1.37,0,0,1-1.038,1.2,4.5,4.5,0,0,0-3.657-1.774c-1.763,0-2.7.678-2.7,1.723,0,1.148,1.089,1.409,3.112,1.852,1.919.418,4.591.992,4.591,3.705,0,2.4-1.971,3.94-5.188,3.94-3.476,0-5.266-1.461-5.266-2.662m13.877-1.461v-6.628h-.908c-.8,0-1.115-.339-1.115-.966V177.8c0-.626.311-.966,1.115-.966h.908V174.9c0-.888.442-1.227,1.142-1.227h.259c.675,0,1.116.261,1.116,1.227v1.931h2.827c.8,0,1.09.313,1.09.939v.182c0,.653-.312.992-1.116.992h-2.827v6.341c0,1.566.441,2.322,1.66,2.322a2.106,2.106,0,0,0,1.763-.887c.078-.078.726.287.726,1.1,0,.966-1.063,1.9-2.9,1.9-2.568,0-3.735-1.435-3.735-4.15m7.964.522c0-2.9,2.749-4.149,8.378-4.253h.337v-.261c0-1.9-1.09-2.948-3.087-2.948a3.765,3.765,0,0,0-3.579,2.14c0,.025-1.582,0-1.582-1.253,0-1.2,1.815-3,5.343-3s5.447,1.827,5.447,5.01v7.7c0,.131-.467.286-.934.286-.908,0-1.556-.5-1.582-2.009a5.381,5.381,0,0,1-4.487,2.166c-2.672,0-4.254-1.435-4.254-3.575m2.516-.1c0,1.122.882,1.827,2.36,1.827,2.231,0,3.84-1.409,3.84-3.393v-.966l-.7.026c-3.631.131-5.5.809-5.5,2.505m10.868,1.044a1.317,1.317,0,0,1,1.012-1.174,5.124,5.124,0,0,0,4.2,1.879c1.763,0,2.749-.652,2.749-1.7,0-1.279-1.167-1.514-3.216-1.957-1.841-.392-4.384-.966-4.384-3.627,0-2.348,1.946-3.94,4.98-3.94,3.19,0,4.8,1.357,4.8,2.531a1.369,1.369,0,0,1-1.038,1.2,4.5,4.5,0,0,0-3.657-1.774c-1.763,0-2.7.678-2.7,1.723,0,1.148,1.089,1.409,3.112,1.852,1.919.418,4.591.992,4.591,3.705,0,2.4-1.971,3.94-5.188,3.94-3.476,0-5.266-1.461-5.266-2.662m12.944,1.227V176.991a1.271,1.271,0,0,1,.934-.286c.726,0,1.5.365,1.607,1.931a4.627,4.627,0,0,1,3.865-2.114,4.048,4.048,0,0,1,4.073,2.636,4.9,4.9,0,0,1,4.332-2.636c3.164,0,4.695,1.931,4.695,5.167v6.576c0,.939-.467,1.227-1.141,1.227h-.259c-.7,0-1.167-.287-1.167-1.227V182c0-2.114-.908-3.21-2.75-3.21a3.644,3.644,0,0,0-3.164,2.088v7.385c0,.939-.467,1.227-1.141,1.227H312.3c-.674,0-1.168-.287-1.168-1.227v-6.158c0-2.219-.908-3.315-2.749-3.315a3.607,3.607,0,0,0-3.139,2.088v7.385c0,.939-.493,1.227-1.141,1.227h-.286c-.674,0-1.141-.287-1.141-1.227m23.941-14.117a1.357,1.357,0,0,1-1.53-1.435,1.372,1.372,0,0,1,1.557-1.461,1.45,1.45,0,1,1-.026,2.9m-1.3,14.117V177.956c0-.939.492-1.252,1.167-1.252h.259c.675,0,1.141.286,1.141,1.252v10.308c0,.939-.467,1.227-1.141,1.227h-.259c-.674,0-1.167-.287-1.167-1.227m5.966,0V171.746a1.333,1.333,0,0,1,.934-.286c.8,0,1.634.417,1.634,2.218v14.587c0,.939-.466,1.227-1.141,1.227h-.259c-.675,0-1.168-.287-1.168-1.227m5.11-5.088a6.343,6.343,0,0,1,6.381-6.655c3.606,0,5.992,2.558,5.992,6.315v.209c0,.548-.181.756-.778.756h-9.209a4.438,4.438,0,0,0,8.171,1.8c.053-.052,1.349.183,1.349,1.279s-1.919,2.844-5.317,2.844a6.22,6.22,0,0,1-6.588-6.55m2.412-1.122h7.471a3.438,3.438,0,0,0-3.528-3.575,3.987,3.987,0,0,0-3.943,3.575" transform="translate(0 0)" fill="#14181e"/>
  </g>
</svg>
