<svg xmlns="http://www.w3.org/2000/svg" width="128" height="24" viewBox="0 0 128 24">
  <g id="trustpilot" transform="translate(-891 -1462)">
    <g id="Group_118" data-name="Group 118" transform="translate(15 -5149)">
      <rect id="Rectangle_194" data-name="Rectangle 194" width="24" height="24" transform="translate(876 6611)" fill="#17b67a"/>
      <path id="Subtraction_6" data-name="Subtraction 6" d="M3.049,15v0L4.944,9.267,0,5.721l6.112.011L8.005,0,9.888,5.732H16L11.056,9.267,8.005,11.453l3.474-.89L12.938,15,7.995,11.453,3.051,15Z" transform="translate(880 6615)" fill="#fff"/>
    </g>
    <g id="Group_345" data-name="Group 345" transform="translate(41 -5149)">
      <rect id="Rectangle_194-2" data-name="Rectangle 194" width="24" height="24" transform="translate(876 6611)" fill="#17b67a"/>
      <path id="Subtraction_6-2" data-name="Subtraction 6" d="M3.049,15v0L4.944,9.267,0,5.721l6.112.011L8.005,0,9.888,5.732H16L11.056,9.267,8.005,11.453l3.474-.89L12.938,15,7.995,11.453,3.051,15Z" transform="translate(880 6615)" fill="#fff"/>
    </g>
    <g id="Group_346" data-name="Group 346" transform="translate(67 -5149)">
      <rect id="Rectangle_194-3" data-name="Rectangle 194" width="24" height="24" transform="translate(876 6611)" fill="#17b67a"/>
      <path id="Subtraction_6-3" data-name="Subtraction 6" d="M3.049,15v0L4.944,9.267,0,5.721l6.112.011L8.005,0,9.888,5.732H16L11.056,9.267,8.005,11.453l3.474-.89L12.938,15,7.995,11.453,3.051,15Z" transform="translate(880 6615)" fill="#fff"/>
    </g>
    <g id="Group_347" data-name="Group 347" transform="translate(93 -5149)">
      <rect id="Rectangle_194-4" data-name="Rectangle 194" width="24" height="24" transform="translate(876 6611)" fill="#17b67a"/>
      <path id="Subtraction_6-4" data-name="Subtraction 6" d="M3.049,15v0L4.944,9.267,0,5.721l6.112.011L8.005,0,9.888,5.732H16L11.056,9.267,8.005,11.453l3.474-.89L12.938,15,7.995,11.453,3.051,15Z" transform="translate(880 6615)" fill="#fff"/>
    </g>
    <g id="Group_348" data-name="Group 348" transform="translate(119 -5149)">
      <rect id="Rectangle_194-5" data-name="Rectangle 194" width="24" height="24" transform="translate(876 6611)" fill="#dcdce7"/>
      <path id="Subtraction_6-5" data-name="Subtraction 6" d="M3.049,15v0L4.944,9.267,0,5.721l6.112.011L8.005,0,9.888,5.732H16L11.056,9.267,8.005,11.453l3.474-.89L12.938,15,7.995,11.453,3.051,15Z" transform="translate(880 6615)" fill="#fff"/>
    </g>
  </g>
</svg>
