<svg xmlns="http://www.w3.org/2000/svg" width="45.5" height="44.994" viewBox="0 0 45.5 44.994">
  <g id="Layer_2" data-name="Layer 2" transform="translate(-0.5 1.01)">
    <g id="Layer_1" data-name="Layer 1">
      <path id="Path_106" data-name="Path 106" d="M38,29a21.67,21.67,0,0,0,7-15.56H1.5A21.73,21.73,0,0,0,23.23,34.79" fill="none" stroke="#14181e" stroke-linecap="round" stroke-linejoin="round" stroke-width="2"/>
      <line id="Line_5" data-name="Line 5" x2="37.18" transform="translate(4.5 23.8)" fill="none" stroke="#14181e" stroke-linecap="round" stroke-linejoin="round" stroke-width="2"/>
      <path id="Path_107" data-name="Path 107" d="M12.66,3.59A4.94,4.94,0,0,1,9.35.34V.17A.2.2,0,0,0,9,.07H9A.2.2,0,0,0,9,.13H9L8.86.35A4.94,4.94,0,0,1,5.61,3.57H5.47a.2.2,0,0,0,0,.39h.16A4.94,4.94,0,0,1,8.88,7.33l.05.14a.2.2,0,0,0,.37,0V7.32A4.94,4.94,0,0,1,12.62,4h.13a.2.2,0,0,0,0-.39Z" fill="none" stroke="#14181e" stroke-width="2"/>
      <path id="Path_108" data-name="Path 108" d="M39.07,36.77A7.72,7.72,0,0,1,33.9,31.7a1.714,1.714,0,0,0-.06-.26.31.31,0,0,0-.54-.16v.05a.31.31,0,0,0,0,.09h0l-.09.29a7.72,7.72,0,0,1-5.07,5l-.22.07a.31.31,0,0,0,0,.62l.25.06a7.72,7.72,0,0,1,5.05,5.13l.08.22a.31.31,0,0,0,.58-.08s0-.17.06-.23A7.72,7.72,0,0,1,39,37.45h.2a.31.31,0,0,0,0-.61Z" fill="none" stroke="#14181e" stroke-width="2"/>
    </g>
  </g>
</svg>
