<svg xmlns="http://www.w3.org/2000/svg" width="60" height="60.001" viewBox="0 0 60 60.001">
  <g id="Group_206" data-name="Group 206" transform="translate(242.214 -345.58)">
    <path id="Path_129" data-name="Path 129" d="M-212.02,404.836a29.063,29.063,0,0,0,29.062-29.062,29.063,29.063,0,0,0-29.062-29.062,29.062,29.062,0,0,0-29.062,29.063,29.062,29.062,0,0,0,29.063,29.062" transform="translate(-0.193 -0.193)" fill="#fff"/>
    <path id="Path_130" data-name="Path 130" d="M-212.214,405.581a30.034,30.034,0,0,1-30-30,30.034,30.034,0,0,1,30-30,30.034,30.034,0,0,1,30,30A30.034,30.034,0,0,1-212.214,405.581Zm0-58.125a28.157,28.157,0,0,0-28.125,28.125,28.157,28.157,0,0,0,28.125,28.125A28.156,28.156,0,0,0-184.09,375.58,28.156,28.156,0,0,0-212.214,347.456Z" transform="translate(0 0)" fill="#ebecf0"/>
    <path id="Path_131" data-name="Path 131" d="M-227.865,370.454a.984.984,0,0,1-1.113-1.037,1,1,0,0,1,1.132-1.056.974.974,0,0,1,1.094,1.056c0,.679-.4,1.037-1.113,1.037m-.943,10.205v-7.451c0-.679.358-.906.848-.906h.189c.49,0,.83.208.83.906v7.451c0,.679-.34.887-.83.887h-.189c-.49,0-.848-.207-.848-.887m4.263,0v-8.149a.928.928,0,0,1,.679-.208c.547,0,1.113.284,1.169,1.472a3.515,3.515,0,0,1,3.019-1.6c2.4,0,3.509,1.641,3.509,3.886v4.6c0,.679-.359.887-.83.887h-.208c-.49,0-.829-.207-.829-.887v-4.376c0-1.528-.774-2.471-2.094-2.471a2.742,2.742,0,0,0-2.547,1.585v5.263c0,.679-.358.887-.83.887h-.207c-.49,0-.83-.207-.83-.887m9.922-.887a.954.954,0,0,1,.736-.849,3.734,3.734,0,0,0,3.056,1.358c1.282,0,2-.472,2-1.226,0-.925-.849-1.095-2.339-1.415-1.339-.284-3.188-.7-3.188-2.622,0-1.7,1.415-2.849,3.622-2.849,2.32,0,3.49.981,3.49,1.83a.992.992,0,0,1-.755.867,3.28,3.28,0,0,0-2.66-1.283c-1.282,0-1.961.491-1.961,1.246,0,.829.792,1.018,2.263,1.338,1.4.3,3.339.717,3.339,2.679,0,1.736-1.433,2.849-3.772,2.849-2.528,0-3.829-1.057-3.829-1.924m10.092-1.057v-4.791h-.66c-.585,0-.811-.245-.811-.7V373.1c0-.453.226-.7.811-.7h.66V371c0-.641.32-.887.83-.887h.188c.49,0,.811.188.811.887v1.4h2.057c.585,0,.792.226.792.679v.132c0,.472-.226.717-.811.717h-2.056v4.583c0,1.132.32,1.679,1.207,1.679a1.536,1.536,0,0,0,1.283-.641c.056-.056.528.207.528.792,0,.7-.774,1.377-2.113,1.377-1.868,0-2.716-1.037-2.716-3m5.791.377c0-2.094,2-3,6.093-3.075h.245v-.188a1.972,1.972,0,0,0-2.246-2.131,2.74,2.74,0,0,0-2.6,1.547c0,.018-1.151,0-1.151-.906,0-.867,1.32-2.169,3.886-2.169s3.962,1.321,3.962,3.622v5.565c0,.094-.34.207-.679.207-.66,0-1.132-.359-1.151-1.453a3.921,3.921,0,0,1-3.263,1.566c-1.942,0-3.093-1.037-3.093-2.584m1.829-.076c0,.811.641,1.32,1.717,1.32a2.542,2.542,0,0,0,2.792-2.452v-.7l-.509.018c-2.641.095-4,.585-4,1.811" transform="translate(-2.26 -3.889)" fill="#ebecf0"/>
    <path id="Path_132" data-name="Path 132" d="M-209.851,402.9a21.72,21.72,0,0,1-6.443-.965,20.051,20.051,0,0,1-5.523-2.683A16.678,16.678,0,0,1-228.529,390a.937.937,0,0,1,.663-1.149.939.939,0,0,1,1.149.663,14.8,14.8,0,0,0,5.971,8.2,19.2,19.2,0,0,0,10.894,3.311,18.968,18.968,0,0,0,10.8-3.243,14.89,14.89,0,0,0,6.01-8.051.938.938,0,0,1,1.16-.643.937.937,0,0,1,.644,1.159,16.76,16.76,0,0,1-6.752,9.082,20.837,20.837,0,0,1-11.857,3.573" transform="translate(-2.331 -7.381)" fill="#ebecf0"/>
  </g>
</svg>
