<svg xmlns="http://www.w3.org/2000/svg" width="41.993" height="41.887" viewBox="0 0 41.993 41.887">
  <g id="Group_200" data-name="Group 200" transform="translate(4269.202 -3571.046)">
    <path id="Path_133" data-name="Path 133" d="M-4233.071,3619.841c-.2,7.746,3.771,6.88,3.771,14.605,0,10.773,4.077,12.016,5.585,11.456s.327-6.034,1.692-10.528c.53-1.764,1.3-4.077,3.557-4.2,2.252.143,3.058,2.446,3.557,4.2,1.345,4.474,0,9.886,1.692,10.507s5.585-.683,5.585-11.455c0-7.726,3.975-6.86,3.771-14.6-.214-8-10.059-8.337-14.6-6.3C-4223.012,3611.5-4232.857,3611.84-4233.071,3619.841Z" transform="translate(-29.738 -34.132)" fill="none" stroke="#231f20" stroke-linecap="round" stroke-linejoin="round" stroke-width="2"/>
    <path id="Path_134" data-name="Path 134" d="M-4137.681,3580.071" transform="translate(-110.503 -6.704)" fill="none" stroke="#231f20" stroke-linecap="round" stroke-linejoin="round" stroke-width="2"/>
    <path id="Path_135" data-name="Path 135" d="M-4233.377,3602.205c0-10.574,5.44-9.388,5.162-19.99-.292-10.95-13.768-11.411-19.99-8.621-6.222-2.762-19.7-2.3-19.99,8.649-.279,10.6,5.161,9.416,5.161,19.99" fill="none" stroke="#231f20" stroke-linecap="round" stroke-linejoin="round" stroke-width="2"/>
  </g>
</svg>
