<svg xmlns="http://www.w3.org/2000/svg" width="41.072" height="46.742" viewBox="0 0 41.072 46.742">
  <g id="Layer_2" data-name="Layer 2" transform="translate(-0.5 -0.158)">
    <g id="Layer_1" data-name="Layer 1">
      <path id="Path_109" data-name="Path 109" d="M25.15,41a7.53,7.53,0,0,1-7.05,4.9H10.5A7.53,7.53,0,0,1,3.44,41" fill="none" stroke="#14181e" stroke-linecap="round" stroke-linejoin="round" stroke-width="2"/>
      <path id="Path_110" data-name="Path 110" d="M3.53,25.75a9.69,9.69,0,0,1,8.93-6h3.7a9.69,9.69,0,0,1,8.94,6" fill="none" stroke="#14181e" stroke-linecap="round" stroke-linejoin="round" stroke-width="2"/>
      <line id="Line_14" data-name="Line 14" x2="25.61" transform="translate(1.5 30.42)" fill="none" stroke="#14181e" stroke-linecap="round" stroke-linejoin="round" stroke-width="2"/>
      <path id="Path_111" data-name="Path 111" d="M1.5,35c2.56,0,2.56,1.68,5.12,1.68S9.18,35,11.74,35s2.56,1.68,5.12,1.68S19.42,35,22,35s2.56,1.68,5.13,1.68" fill="none" stroke="#14181e" stroke-linecap="round" stroke-linejoin="round" stroke-width="2"/>
      <path id="Path_112" data-name="Path 112" d="M19.44,15.46l-.23-1.32a2,2,0,0,1,2-2h16a2,2,0,0,1,2,2L35.39,34.87a2,2,0,0,1-2,2h-1.6" fill="none" stroke="#14181e" stroke-linecap="round" stroke-linejoin="round" stroke-width="2"/>
      <line id="Line_15" data-name="Line 15" y1="3.96" x2="0.99" transform="translate(35.29 3.48)" fill="none" stroke="#14181e" stroke-linecap="round" stroke-linejoin="round" stroke-width="2"/>
      <line id="Line_16" data-name="Line 16" y1="1.98" x2="3.95" transform="translate(36.28 1.5)" fill="none" stroke="#14181e" stroke-linecap="round" stroke-linejoin="round" stroke-width="2"/>
    </g>
  </g>
</svg>
