<svg xmlns="http://www.w3.org/2000/svg" width="24" height="24" viewBox="0 0 24 24">
  <g id="Group_238" data-name="Group 238" transform="translate(242.214 -345.58)">
    <path id="Path_129" data-name="Path 129" d="M-229.458,369.961a11.625,11.625,0,0,0,11.625-11.625,11.625,11.625,0,0,0-11.625-11.625,11.625,11.625,0,0,0-11.625,11.625,11.625,11.625,0,0,0,11.625,11.625" transform="translate(-0.756 -0.756)" fill="#45c0e6"/>
    <path id="Path_130" data-name="Path 130" d="M-230.214,369.58a12.013,12.013,0,0,1-12-12,12.014,12.014,0,0,1,12-12,12.014,12.014,0,0,1,12,12A12.013,12.013,0,0,1-230.214,369.58Zm0-23.25a11.263,11.263,0,0,0-11.25,11.25,11.263,11.263,0,0,0,11.25,11.25,11.262,11.262,0,0,0,11.25-11.25A11.262,11.262,0,0,0-230.214,346.33Z" transform="translate(0 0)" fill="#14181e"/>
    <path id="Path_131" data-name="Path 131" d="M-228.533,369.2a.394.394,0,0,1-.445-.415.4.4,0,0,1,.453-.422.39.39,0,0,1,.438.422c0,.272-.159.415-.445.415m-.377,4.082V370.3c0-.272.143-.362.339-.362h.076c.2,0,.332.083.332.362v2.98c0,.272-.136.355-.332.355h-.076c-.2,0-.339-.083-.339-.355m1.7,0v-3.259a.371.371,0,0,1,.272-.083c.219,0,.445.113.468.589a1.406,1.406,0,0,1,1.207-.642c.958,0,1.4.656,1.4,1.554v1.841c0,.272-.144.355-.332.355h-.083c-.2,0-.332-.083-.332-.355v-1.75c0-.611-.309-.989-.838-.989a1.1,1.1,0,0,0-1.019.634v2.105c0,.272-.143.355-.332.355h-.083c-.2,0-.332-.083-.332-.355m3.969-.355a.382.382,0,0,1,.294-.34,1.494,1.494,0,0,0,1.222.543c.513,0,.8-.189.8-.49,0-.37-.34-.438-.936-.566-.536-.113-1.275-.279-1.275-1.049,0-.679.566-1.139,1.449-1.139.928,0,1.4.392,1.4.732a.4.4,0,0,1-.3.347,1.312,1.312,0,0,0-1.064-.513c-.513,0-.785.2-.785.5,0,.332.317.407.905.535.558.121,1.335.287,1.335,1.071,0,.694-.573,1.139-1.509,1.139-1.011,0-1.532-.423-1.532-.77m4.037-.423v-1.916h-.264c-.234,0-.324-.1-.324-.279v-.053c0-.181.091-.279.324-.279h.264v-.558c0-.256.128-.355.332-.355h.075c.2,0,.324.075.324.355v.558h.823c.234,0,.317.091.317.272v.053c0,.189-.091.287-.324.287h-.822v1.833c0,.453.128.671.483.671a.614.614,0,0,0,.513-.256c.023-.023.211.083.211.317,0,.279-.309.551-.845.551-.747,0-1.086-.415-1.086-1.2m2.316.151c0-.838.8-1.2,2.437-1.23h.1v-.075a.789.789,0,0,0-.9-.853,1.1,1.1,0,0,0-1.041.619c0,.007-.46,0-.46-.362,0-.347.528-.868,1.554-.868s1.585.528,1.585,1.449v2.226c0,.037-.136.083-.272.083-.264,0-.453-.144-.46-.581a1.568,1.568,0,0,1-1.305.626c-.777,0-1.237-.415-1.237-1.034m.732-.03c0,.324.256.528.687.528a1.017,1.017,0,0,0,1.117-.981v-.279l-.2.007c-1.057.038-1.6.234-1.6.724" transform="translate(-8.845 -15.224)" fill="#14181e"/>
    <path id="Path_132" data-name="Path 132" d="M-221.077,394.449a8.688,8.688,0,0,1-2.577-.386,8.021,8.021,0,0,1-2.209-1.073,6.671,6.671,0,0,1-2.685-3.7.375.375,0,0,1,.265-.459.376.376,0,0,1,.46.265,5.92,5.92,0,0,0,2.388,3.278,7.68,7.68,0,0,0,4.357,1.325,7.587,7.587,0,0,0,4.318-1.3,5.956,5.956,0,0,0,2.4-3.22.375.375,0,0,1,.464-.257.375.375,0,0,1,.257.464,6.7,6.7,0,0,1-2.7,3.633,8.334,8.334,0,0,1-4.743,1.429" transform="translate(-9.124 -28.895)" fill="#14181e"/>
  </g>
</svg>
