<svg width="23" height="20" viewBox="0 0 23 20" fill="none" xmlns="http://www.w3.org/2000/svg">
<path d="M22.545 6.1622C22.2154 2.75592 19.6473 0.284587 16.4335 0.284587C14.2924 0.284587 12.3319 1.36633 11.2288 3.10005C10.1357 1.3439 8.25556 0.28418 6.14876 0.28418C2.93535 0.28418 0.366883 2.75551 0.0376815 6.16179C0.0116234 6.31225 -0.0952151 7.10408 0.229643 8.3954C0.697822 10.258 1.77924 11.9521 3.35619 13.2936L11.2236 19.9965L19.226 13.294C20.803 11.9521 21.8844 10.2584 22.3526 8.3954C22.6774 7.10449 22.5706 6.31265 22.545 6.1622ZM21.507 8.20866C21.0796 9.90976 20.089 11.4596 18.6449 12.6877L11.2288 18.8997L3.93989 12.6893C2.49323 11.4588 1.50302 9.90935 1.07523 8.20825C0.767744 6.98625 0.894127 6.29594 0.894561 6.29145L0.901075 6.25027C1.18337 3.266 3.39006 1.09966 6.14876 1.09966C8.18433 1.09966 9.97627 2.27396 10.8266 4.16385L11.2266 5.05395L11.6266 4.16385C12.4635 2.30291 14.3501 1.10007 16.4339 1.10007C19.1922 1.10007 21.3993 3.26641 21.6872 6.28941C21.6881 6.29594 21.8145 6.98665 21.507 8.20866Z" fill="black"/>
</svg>
