<svg width="32" height="32" viewBox="0 0 32 32" fill="none" xmlns="http://www.w3.org/2000/svg">
<path d="M31.9183 29.8165L26.2358 24.134C30.988 18.3387 30.6572 9.75267 25.2238 4.32317C19.4635 -1.44106 10.1069 -1.44106 4.32317 4.32317C-1.44106 10.1069 -1.44106 19.4635 4.32317 25.2238C9.75267 30.6572 18.3387 30.988 24.134 26.2358L29.8165 31.9183C29.9411 32.0272 30.1396 32.0272 30.2447 31.9183L31.9183 30.2447C32.0272 30.1396 32.0272 29.9411 31.9183 29.8165ZM23.161 23.161C18.5372 27.7809 11.0487 27.7809 6.42491 23.161C1.80497 18.5372 1.80497 11.0487 6.42491 6.42491C11.0487 1.80497 18.5372 1.80497 23.161 6.42491C27.7809 11.0487 27.7809 18.5372 23.161 23.161Z" fill="black"/>
</svg>
