<svg width="66" height="66" viewBox="0 0 66 66" fill="none" xmlns="http://www.w3.org/2000/svg">
<circle cx="33" cy="33" r="33" fill="white"/>
<g clip-path="url(#clip0_116_10)">
<path d="M35 17C25.06 17 17 24.164 17 33C17 37.059 18.862 40.682 21.776 43.065C21.413 44.463 21.152 45.894 21.007 47.351C20.925 48.175 21.526 48.91 22.351 48.992C22.402 48.998 22.452 49 22.502 49C23.264 49 23.916 48.422 23.9921 47.648C24.09 46.667 24.25 45.699 24.459 44.747C26.1421 45.542 28.0161 46.0001 30.0001 46.0001C37.18 46.0001 43.0001 40.18 43.0001 33.0001C43.0001 28.6541 45.442 24.9551 49 23.0001C45.699 19.391 40.64 17 35 17ZM40 33C40 38.514 35.514 43 30 43C28.3 43 26.699 42.571 25.296 41.819C26.991 36.993 30.133 32.749 34.372 29.72C34.709 29.48 34.916 29.124 34.979 28.745C35.043 28.367 34.96 27.964 34.7199 27.628C34.479 27.29 34.124 27.082 33.745 27.02C33.366 26.957 32.964 27.0391 32.627 27.2791C28.148 30.4791 24.759 34.889 22.795 39.9181C21.068 38.12 20 35.685 20 33C20 25.832 26.728 20 35 20C38.389 20 41.627 21.007 44.266 22.83C41.572 25.504 40 29.147 40 33Z" fill="black"/>
</g>
<defs>
<clipPath id="clip0_116_10">
<rect width="32" height="32" fill="white" transform="translate(17 17)"/>
</clipPath>
</defs>
</svg>
