<svg width="16" height="16" viewBox="0 0 16 16" fill="none" xmlns="http://www.w3.org/2000/svg">
<path d="M0 6V14C0 14.5522 0.447693 15 1 15H4V5H1C0.447693 5 0 5.44769 0 6Z" fill="#696969"/>
<path d="M14.1533 5.99993H11.1992C10.9409 5.99993 10.8115 5.82757 10.7681 5.75335C10.7246 5.67962 10.6367 5.48284 10.7617 5.25725L11.8032 3.38176C12.0317 2.97112 12.0552 2.48821 11.8682 2.05705C11.6812 1.62541 11.312 1.31243 10.8555 1.19866L10.1211 1.01506C9.94238 0.970141 9.75293 1.02727 9.62841 1.16545L5.64111 5.59514C5.22754 6.05559 5 6.64934 5 7.2675V12.4999C5 13.8783 6.12158 14.9999 7.5 14.9999L12.4741 14.9994C13.5972 14.9994 14.5889 14.2431 14.8852 13.1606L15.9526 8.26212C15.9839 8.12589 16 7.98625 16 7.8466C16 6.82853 15.1714 5.99992 14.1533 5.99992L14.1533 5.99993Z" fill="#696969"/>
</svg>
