<svg width="14" height="12" viewBox="0 0 14 12" fill="none" xmlns="http://www.w3.org/2000/svg">
<path d="M12.8214 1.20847C11.9278 1.06374 9.77901 -0.384698 8.23408 0.0981161C6.68915 0.58093 6.81016 0.967262 6.0375 1.20887C5.26483 1.45048 5.14423 1.06415 3.5993 1.54696C2.05478 2.02978 1.11327 4.44385 0.461613 5.07179C0.461613 5.07179 -0.18281 5.72345 0.0511602 6.47199C0.285532 7.22013 1.06543 7.00264 1.06543 7.00264C3.76935 6.15762 4.68634 5.02274 4.68634 5.02274C4.68634 5.02274 6.08614 5.4332 7.24473 5.07098C8.40333 4.70877 9.32071 3.5739 9.32071 3.5739C9.32071 3.5739 10.7213 3.98435 13.4248 3.13932C13.4248 3.13932 14.1895 2.8736 13.9555 2.12545C13.7211 1.37691 12.8214 1.20847 12.8214 1.20847ZM12.3864 3.88827C10.0693 4.61229 10.5525 6.15722 7.84855 7.00264C5.14463 7.84767 4.66182 6.30314 2.34463 7.02717C1.57237 7.26877 1.30664 7.77531 1.42764 8.16244C1.78945 9.32063 4.80734 12.1926 9.05619 10.8652C13.3046 9.53732 14.1497 5.45732 13.7874 4.29912C13.6664 3.91199 13.1587 3.64666 12.3864 3.88827Z" fill="#DD2E44"/>
</svg>
