<svg width="22" height="22" viewBox="0 0 22 22" fill="none" xmlns="http://www.w3.org/2000/svg">
<path fill-rule="evenodd" clip-rule="evenodd" d="M5.49999 9.86171H1.57143L1.57143 20.076H5.49999V9.86171ZM1.57143 8.29028C0.703552 8.29028 0 8.99383 0 9.86171V20.076C0 20.9439 0.703552 21.6474 1.57143 21.6474H5.49999C6.36787 21.6474 7.07142 20.9439 7.07142 20.076V9.86171C7.07142 8.99384 6.36787 8.29028 5.49999 8.29028H1.57143Z" fill="#53575B"/>
<path fill-rule="evenodd" clip-rule="evenodd" d="M12.4846 1.88117C12.2115 1.76211 11.8447 1.70298 11.337 1.7953C10.9887 1.85863 10.847 1.99148 10.7623 2.12581C10.6536 2.29818 10.579 2.57438 10.557 3.00222C10.537 3.3931 10.563 3.82214 10.592 4.30246C10.5946 4.34396 10.5971 4.38585 10.5996 4.42812C10.6298 4.93181 10.66 5.50076 10.6024 6.01972C10.5478 6.51072 10.3448 7.02733 10.1031 7.50457C9.8556 7.99336 9.53779 8.49773 9.20329 8.97607C8.53455 9.93239 7.76324 10.8355 7.2518 11.381C6.95501 11.6976 6.45779 11.7137 6.14121 11.4169C5.82464 11.1201 5.8086 10.6229 6.10539 10.3063C6.57609 9.8042 7.29764 8.95909 7.9155 8.07553C8.2243 7.63394 8.49823 7.19545 8.70125 6.79459C8.91012 6.38216 9.01652 6.06232 9.04054 5.84618C9.08109 5.48121 9.06222 5.04347 9.031 4.52205C9.02829 4.47679 9.02548 4.43086 9.02264 4.38435C8.99448 3.9236 8.96283 3.4058 8.98766 2.92174C9.01482 2.392 9.1121 1.79656 9.43308 1.28757C9.77806 0.740542 10.3238 0.382326 11.0559 0.249222C11.8249 0.109395 12.514 0.179725 13.1126 0.440687C13.7075 0.700043 14.1569 1.12313 14.4915 1.60006C15.1444 2.53081 15.4096 3.73639 15.5131 4.66761C15.5896 5.35684 15.611 5.90596 15.6031 6.32581H18.6607C19.6376 6.32581 20.3893 6.82175 20.8734 7.43493C21.3455 8.03294 21.6071 8.79199 21.6071 9.46866C21.6071 9.9902 21.5114 10.4326 21.372 10.7767C21.6855 11.2557 22 11.9689 22 12.8079C22 13.6901 21.6514 14.3291 21.265 14.7203C21.2837 14.8394 21.3044 14.981 21.3197 15.1313C21.3604 15.5323 21.3748 16.0938 21.1581 16.6355C20.78 17.5808 20.2055 18.1197 19.6328 18.3618L19.6176 18.3971C18.8748 20.1305 17.1704 21.2544 15.2845 21.2544H9.40458C8.76376 21.2544 8.13498 21.0802 7.58547 20.7505L6.27435 19.9639C5.90225 19.7406 5.78159 19.258 6.00485 18.8859C6.22811 18.5138 6.71074 18.3931 7.08284 18.6164L8.39397 19.403C8.69925 19.5862 9.04857 19.683 9.40458 19.683H15.2845C16.5418 19.683 17.678 18.9337 18.1733 17.7781L18.3314 17.4092C18.4369 17.1631 18.6603 16.9876 18.9244 16.9436C19.0048 16.9302 19.3914 16.821 19.6991 16.0519C19.7742 15.864 19.7885 15.6071 19.7563 15.2901C19.7414 15.1437 19.7193 15.0056 19.6968 14.8648L19.6938 14.8459C19.6927 14.8393 19.6916 14.8324 19.6905 14.8253C19.6714 14.707 19.6429 14.5293 19.6429 14.3794C19.6429 14.0818 19.811 13.8097 20.0772 13.6766C20.0759 13.6773 20.0765 13.6768 20.0787 13.6753C20.0929 13.6652 20.1735 13.6078 20.2557 13.4779C20.3418 13.3419 20.4286 13.127 20.4286 12.8079C20.4286 12.1321 20.035 11.5612 19.873 11.3992C19.7256 11.2519 19.6429 11.052 19.6429 10.8437C19.6429 10.6429 19.7197 10.4501 19.8571 10.3045C19.8569 10.3046 19.8568 10.3047 19.8568 10.3046C19.8559 10.304 19.8922 10.255 19.9342 10.1374C19.985 9.99517 20.0357 9.77371 20.0357 9.46866C20.0357 9.1632 19.9045 8.74368 19.64 8.40865C19.3875 8.0888 19.0588 7.89724 18.6607 7.89724H14.7322C14.4796 7.89724 14.2424 7.77583 14.0948 7.57094C13.9471 7.36605 13.9069 7.10266 13.9868 6.86306C13.986 6.8655 13.9863 6.86379 13.9874 6.85763C13.9933 6.82596 14.0211 6.67662 14.0303 6.36645C14.0405 6.02057 14.0264 5.51753 13.9512 4.84115C13.8583 4.00451 13.6325 3.11189 13.205 2.50247C12.9994 2.20932 12.7613 2.00183 12.4846 1.88117Z" fill="#53575B"/>
</svg>
