<svg width="136" height="136" viewBox="0 0 136 136" fill="none" xmlns="http://www.w3.org/2000/svg">
<g filter="url(#filter0_d)">
<circle cx="67.6316" cy="63.6316" r="63.6316" fill="white"/>
</g>
<g clip-path="url(#clip0)">
<path d="M97.3835 74.9553H94.8289V45.8274C94.8289 43.5156 92.9481 41.6348 90.6363 41.6348H42.1798C39.8679 41.6348 37.9872 43.5156 37.9872 45.8274V74.9553H35.4326C34.7432 74.9553 34.1843 75.514 34.1843 76.2036V78.6541C34.1843 82.0498 36.9469 84.8123 40.3426 84.8123H92.4734C95.8691 84.8123 98.6317 82.0498 98.6317 78.6541V76.2036C98.6318 75.514 98.0731 74.9553 97.3835 74.9553ZM40.7611 45.8274C40.7611 45.0452 41.3977 44.4087 42.1798 44.4087H90.6361C91.4185 44.4087 92.0548 45.0451 92.0548 45.8274V74.9553H73.2744C73.1859 74.9524 73.0946 74.9599 73.004 74.9774C72.4164 75.0904 71.9918 75.6048 71.9918 76.203C71.9918 77.2567 71.1346 78.1138 70.0812 78.1138H62.7351C61.6814 78.1138 60.8244 77.2566 60.8244 76.203C60.8244 75.5041 60.2453 74.94 59.5472 74.955H40.7611V45.8274ZM96.1352 78.6541C96.1352 80.6732 94.4925 82.3157 92.4736 82.3157H40.3426C38.3236 82.3157 36.6809 80.6732 36.6809 78.6541V77.4518H58.5078C59.0475 79.2759 60.7383 80.6105 62.7349 80.6105H70.0811C72.0777 80.6105 73.7686 79.2758 74.3083 77.4518H96.1354V78.6541H96.1352Z" fill="black"/>
<path d="M87.4097 47.667H45.4065C44.6406 47.667 44.0195 48.2879 44.0195 49.054V70.0025C44.0195 70.7685 44.6406 71.3895 45.4065 71.3895C46.1725 71.3895 46.7935 70.7685 46.7935 70.0025V50.4409H86.0227V70.0023C86.0227 70.7684 86.6437 71.3893 87.4097 71.3893C88.1756 71.3893 88.7967 70.7684 88.7967 70.0023V49.0539C88.7966 48.2879 88.1755 47.667 87.4097 47.667Z" fill="black"/>
<path d="M68.4638 55.7295C67.9221 55.1878 67.0441 55.1878 66.5022 55.7295L57.7795 64.4525C57.2379 64.9942 57.2379 65.8724 57.7795 66.414C58.0504 66.6849 58.4054 66.8202 58.7602 66.8202C59.1152 66.8202 59.47 66.6847 59.7409 66.414L68.4638 57.6911C69.0055 57.1495 69.0055 56.2712 68.4638 55.7295Z" fill="black"/>
<path d="M73.6339 60.7842C73.0921 60.2425 72.2141 60.2425 71.6724 60.7842L68.1975 64.259C67.6559 64.8007 67.6559 65.6789 68.1975 66.2207C68.4684 66.4915 68.8233 66.6269 69.1782 66.6269C69.5333 66.6269 69.888 66.4915 70.1589 66.2207L73.6337 62.7458C74.1755 62.2041 74.1755 61.3259 73.6339 60.7842Z" fill="black"/>
</g>
<defs>
<filter id="filter0_d" x="0" y="0" width="135.263" height="135.263" filterUnits="userSpaceOnUse" color-interpolation-filters="sRGB">
<feFlood flood-opacity="0" result="BackgroundImageFix"/>
<feColorMatrix in="SourceAlpha" type="matrix" values="0 0 0 0 0 0 0 0 0 0 0 0 0 0 0 0 0 0 127 0"/>
<feOffset dy="4"/>
<feGaussianBlur stdDeviation="2"/>
<feColorMatrix type="matrix" values="0 0 0 0 0 0 0 0 0 0 0 0 0 0 0 0 0 0 0.25 0"/>
<feBlend mode="normal" in2="BackgroundImageFix" result="effect1_dropShadow"/>
<feBlend mode="normal" in="SourceGraphic" in2="effect1_dropShadow" result="shape"/>
</filter>
<clipPath id="clip0">
<rect x="34.1843" y="31" width="64.4474" height="64.4474" fill="white"/>
</clipPath>
</defs>
</svg>
