<svg width="136" height="136" viewBox="0 0 136 136" fill="none" xmlns="http://www.w3.org/2000/svg">
<g filter="url(#filter0_d)">
<path d="M131.263 63.6316C131.263 98.7743 102.774 127.263 67.6316 127.263C32.4888 127.263 4 98.7743 4 63.6316C4 28.4888 32.4888 0 67.6316 0C102.774 0 131.263 28.4888 131.263 63.6316Z" fill="white"/>
</g>
<g clip-path="url(#clip0)">
<path d="M73.0523 58.6347C73.6504 58.6347 74.1358 58.1493 74.1358 57.5512C74.1358 56.9532 73.6504 56.4678 73.0523 56.4678C72.453 56.4678 71.9689 56.9532 71.9689 57.5512C71.9689 58.1493 72.453 58.6347 73.0523 58.6347Z" fill="black"/>
<path d="M62.2176 58.6347C62.8157 58.6347 63.3011 58.1493 63.3011 57.5512C63.3011 56.9532 62.8157 56.4678 62.2176 56.4678C61.6183 56.4678 61.1342 56.9532 61.1342 57.5512C61.1342 58.1493 61.6183 58.6347 62.2176 58.6347Z" fill="black"/>
<path d="M43.7953 84.6434V87.0216C43.7953 87.62 44.2803 88.105 44.8788 88.105H90.3845C90.983 88.105 91.468 87.62 91.468 87.0216V84.6413C91.468 80.3324 89.0475 76.3502 84.5681 74.7153C86.1869 73.3013 87.1709 71.23 87.1709 68.9902C87.1709 68.3922 86.6859 67.9068 86.0875 67.9068C83.4812 67.9068 81.2846 66.0636 80.7556 63.6186H83.8871C85.6773 63.6186 87.1341 62.1606 87.1341 60.3682V55.3842C87.1341 53.9711 86.228 52.7661 84.9672 52.3196V49.9669C84.9672 40.4082 77.192 32.6313 67.635 32.6313C58.056 32.6313 50.2961 40.3837 50.2961 49.9669V52.3213C49.0353 52.7695 48.1292 53.974 48.1292 55.3842V60.3682C48.1292 62.1606 49.5889 63.6186 51.383 63.6186H54.5077C53.9795 66.0636 51.785 67.9068 49.1813 67.9068C48.5829 67.9068 48.0979 68.3922 48.0979 68.9902C48.0979 71.2329 49.0844 73.3063 50.7075 74.7212C46.2454 76.3574 43.7953 80.3798 43.7953 84.6434ZM84.9126 69.9831C84.5752 71.8001 83.325 73.3423 81.5779 74.0352L75.014 73.1828L74.3128 70.4419C76.3591 69.2184 77.9898 67.4895 79.0826 65.4601C80.1021 67.8225 82.2919 69.5747 84.9126 69.9831ZM76.3189 52.1338C73.3258 52.1338 70.8905 49.6681 70.8905 46.6373C70.8905 46.0389 70.4055 45.5538 69.807 45.5538C69.209 45.5538 68.7236 46.0389 68.7236 46.6373C68.7236 49.6681 66.2883 52.1338 63.2944 52.1338H56.8003C56.8003 46.1595 61.6607 41.2991 67.635 41.2991C73.6208 41.2991 78.4697 46.1434 78.4697 52.1338H76.3189ZM56.7969 54.3008H63.2944C66.0555 54.3008 68.4773 52.8072 69.807 50.5784C71.1368 52.8072 73.5581 54.3008 76.3189 54.3008H78.4663V59.2847C78.4663 63.3829 76.1966 67.0849 72.5432 68.9458C71.0145 69.7245 69.3631 70.1194 67.635 70.1194C65.9116 70.1194 64.2653 69.7275 62.7408 68.9547C61.7178 68.4362 60.7863 67.7608 59.9716 66.9456C57.9244 64.8997 56.7969 62.1788 56.7969 59.2847V54.3008ZM62.9638 71.4221C64.4472 71.9952 66.0132 72.2864 67.635 72.2864C69.2632 72.2864 70.8351 71.9926 72.3248 71.4137L73.0126 74.1033C72.6516 76.7857 70.3759 78.7872 67.6456 78.7872C64.9158 78.7872 62.6401 76.7866 62.2782 74.105L62.9638 71.4221ZM84.9672 60.3682C84.9672 60.9658 84.4826 61.4517 83.8871 61.4517H80.6333V54.3008H83.8871C84.4826 54.3008 84.9672 54.7866 84.9672 55.3842V60.3682ZM67.635 34.7983C75.9972 34.7983 82.8002 41.603 82.8002 49.9669V52.1338H80.6367C80.6367 44.9503 74.8227 39.1322 67.635 39.1322C60.4659 39.1322 54.6334 44.9647 54.6334 52.1338H52.4631V49.9669C52.4631 41.5861 59.2496 34.7983 67.635 34.7983ZM50.2961 60.3682V55.3842C50.2961 54.7879 50.7828 54.302 51.383 54.3008H54.63V61.4517H51.383C50.7837 61.4517 50.2961 60.9658 50.2961 60.3682ZM56.1824 65.4571C56.7762 66.5541 57.5321 67.5716 58.4395 68.4781C59.203 69.2421 60.0541 69.9023 60.9751 70.4521L60.2772 73.1832L53.6951 74.0373C51.9459 73.344 50.6939 71.8009 50.3562 69.9831C52.976 69.5743 55.1645 67.8204 56.1824 65.4571ZM53.5804 76.2368L53.6997 76.2216H53.7006C53.7014 76.2211 53.7023 76.2211 53.7031 76.2211L60.3254 75.362C61.2028 78.6221 64.1595 80.9541 67.6456 80.9541C71.1318 80.9541 74.088 78.6221 74.965 75.3616C75.2951 75.4047 73.2255 75.136 81.7096 76.2372C86.4595 76.8543 89.301 80.4141 89.301 84.6413V85.9381H45.9622V84.6434C45.9622 80.4953 48.8021 76.8573 53.5804 76.2368Z" fill="black"/>
<path d="M64.7385 66.0818C65.648 66.5105 66.6227 66.7281 67.6346 66.7281C68.6233 66.7281 69.5785 66.5194 70.4749 66.108C71.0188 65.8587 71.2571 65.2154 71.0074 64.6716C70.7581 64.1277 70.1148 63.889 69.5709 64.1387C68.9602 64.4189 68.3088 64.5611 67.6351 64.5611C66.9448 64.5611 66.2807 64.4134 65.6624 64.1218C65.1211 63.8666 64.4756 64.0985 64.2204 64.6398C63.9652 65.1811 64.1971 65.827 64.7385 66.0818Z" fill="black"/>
<path d="M77.3862 83.121H81.7201C82.3185 83.121 82.8036 82.636 82.8036 82.0376C82.8036 81.4391 82.3185 80.9541 81.7201 80.9541H77.3862C76.7878 80.9541 76.3027 81.4391 76.3027 82.0376C76.3027 82.636 76.7878 83.121 77.3862 83.121Z" fill="black"/>
<path d="M86.0506 80.9541C86.6487 80.9541 87.1341 81.4395 87.1341 82.0376C87.1341 82.6356 86.6487 83.121 86.0506 83.121C85.4526 83.121 84.9672 82.6356 84.9672 82.0376C84.9672 81.4395 85.4526 80.9541 86.0506 80.9541Z" fill="black"/>
</g>
<defs>
<filter id="filter0_d" x="0" y="0" width="135.263" height="135.263" filterUnits="userSpaceOnUse" color-interpolation-filters="sRGB">
<feFlood flood-opacity="0" result="BackgroundImageFix"/>
<feColorMatrix in="SourceAlpha" type="matrix" values="0 0 0 0 0 0 0 0 0 0 0 0 0 0 0 0 0 0 127 0"/>
<feOffset dy="4"/>
<feGaussianBlur stdDeviation="2"/>
<feColorMatrix type="matrix" values="0 0 0 0 0 0 0 0 0 0 0 0 0 0 0 0 0 0 0.25 0"/>
<feBlend mode="normal" in2="BackgroundImageFix" result="effect1_dropShadow"/>
<feBlend mode="normal" in="SourceGraphic" in2="effect1_dropShadow" result="shape"/>
</filter>
<clipPath id="clip0">
<rect x="39.8948" y="32.6313" width="55.4737" height="55.4737" fill="white"/>
</clipPath>
</defs>
</svg>
