<svg xmlns="http://www.w3.org/2000/svg" viewBox="0 0 512 512">
  <defs>
    <style>
      .a {
        fill: #60c3eb;
      }
    </style>
  </defs>
  <title>choices</title>
  <path class="a" d="M182.07,115.47a7.52,7.52,0,0,0-7.52,7.52,16.59,16.59,0,1,1-16.61-16.56h0a7.52,7.52,0,1,0,0-15,31.66,31.66,0,1,0,31.66,31.66h0a7.52,7.52,0,0,0-7.47-7.58Z"/>
  <path class="a" d="M182.07,203.92a7.52,7.52,0,0,0-7.52,7.52,16.59,16.59,0,1,1-16.6-16.57,7.52,7.52,0,1,0,0-15,31.66,31.66,0,1,0,31.66,31.66h0a7.52,7.52,0,0,0-7.47-7.57Z"/>
  <path class="a" d="M270.5,220H214.23a7.52,7.52,0,0,0,0,15h56.28a7.52,7.52,0,0,0,0-15Z"/>
  <path class="a" d="M270.5,187.83H214.23a7.52,7.52,0,0,0,0,15h56.28a7.52,7.52,0,0,0,0-15Z"/>
  <path class="a" d="M254.43,308.43H214.23a7.52,7.52,0,0,0,0,15h40.2a7.52,7.52,0,0,0,0-15Z"/>
  <path class="a" d="M270.5,276.28H214.23a7.52,7.52,0,0,0,0,15h56.28a7.52,7.52,0,0,0,0-15Z"/>
  <path class="a" d="M342.86,131.56H214.23a7.52,7.52,0,0,0,0,15H342.86a7.52,7.52,0,0,0,0-15Z"/>
  <path class="a" d="M310.71,99.4H214.23a7.52,7.52,0,0,0,0,15h96.47a7.52,7.52,0,1,0,0-15Z"/>
  <path class="a" d="M182.07,292.36a7.52,7.52,0,0,0-7.52,7.52,16.59,16.59,0,1,1-16.6-16.57,7.52,7.52,0,1,0,0-15,31.66,31.66,0,1,0,31.66,31.66h0a7.52,7.52,0,0,0-7.47-7.57Z"/>
  <path class="a" d="M375,19H101.67A23.65,23.65,0,0,0,78,42.62V380.29a23.65,23.65,0,0,0,23.62,23.62H238.35a7.52,7.52,0,1,0,0-15H101.67a8.56,8.56,0,0,1-8.55-8.55V42.62A8.56,8.56,0,0,1,101.66,34H375a8.56,8.56,0,0,1,8.57,8.55V291.86a7.52,7.52,0,1,0,15,0V42.62A23.65,23.65,0,0,0,375,19Z"/>
  <path class="a" d="M446.19,324.65a27.81,27.81,0,0,0-19.55,5.49A27.45,27.45,0,0,0,406,316.61a27.81,27.81,0,0,0-19.55,5.5,27.45,27.45,0,0,0-20.68-13.53,27.85,27.85,0,0,0-15.38,2.89v-96A27.64,27.64,0,0,0,319.88,188c-13.92,1.39-24.81,14-24.81,28.64v96.2L272.91,335A47.43,47.43,0,0,0,260.2,379.7L277,451.16a63.57,63.57,0,0,0,62.19,49.23h68A63.93,63.93,0,0,0,471,436.57V353.3C471,338.67,460.11,326.05,446.19,324.65Zm9.74,111.88a48.8,48.8,0,0,1-48.75,48.81h-68a48.55,48.55,0,0,1-47.44-37.61l-16.82-71.46a32.46,32.46,0,0,1,8.7-30.58l11.5-11.5v26a7.52,7.52,0,1,0,15,0V216.62c0-7,4.94-13,11.28-13.64a12.57,12.57,0,0,1,13.87,12.52V348.13a7.52,7.52,0,0,0,15,0V336.08a12.57,12.57,0,0,1,13.89-12.5c6.3.63,11.28,6.58,11.28,13.64v19a7.52,7.52,0,1,0,15,0V344.11a12.57,12.57,0,0,1,13.89-12.5c6.3.63,11.28,6.58,11.28,13.64v19a7.52,7.52,0,0,0,15,0V352.15a12.56,12.56,0,0,1,13.91-12.54c6.3.63,11.28,6.58,11.28,13.64v83.27Z"/>
</svg>
