<svg xmlns="http://www.w3.org/2000/svg" viewBox="0 0 512 512">
  <defs>
    <style>
      .a {
        fill: #60c3eb;
      }
    </style>
  </defs>
  <title>customer-service</title>
  <path class="a" d="M402,61.8h-.09a7.88,7.88,0,1,0,.09,0Z"/>
  <path class="a" d="M289.2,381.61l-74.58-31a8.84,8.84,0,0,1-5.47-8.19v-15.8l13.95-7.74a41.19,41.19,0,0,0,21-32.31v-.34h7.29A24.57,24.57,0,0,0,276,261.67h0V246.6c2.19-5.3,8.36-22.28,8.36-45.69a120.92,120.92,0,0,0-35.73-86,123.23,123.23,0,0,0-29.59-21.89c-.37-26.5-26.91-48-59.53-48s-59.17,21.51-59.59,48a123.18,123.18,0,0,0-29.59,21.89,120.92,120.92,0,0,0-35.73,86c0,23.42,6.16,40.38,8.36,45.69v15.07A24.57,24.57,0,0,0,67.54,286.2h7.29v.34a41.19,41.19,0,0,0,21.06,32.31l13.95,7.74v15.8a8.85,8.85,0,0,1-5.47,8.19l-74.58,31A32.79,32.79,0,0,0,9.59,412v50.1a24.57,24.57,0,0,0,24.56,24.57H284.9a24.57,24.57,0,0,0,24.57-24.57V412A32.8,32.8,0,0,0,289.2,381.61Zm-28.83-120a8.89,8.89,0,0,1-8.88,8.87h-5.85l3.13-34.44h2.72a8.89,8.89,0,0,1,8.88,8.87ZM159.53,60.75c20.52,0,37.79,10.61,42.57,24.9a130.19,130.19,0,0,0-85.14,0C121.73,71.36,139,60.75,159.53,60.75Zm-92,209.79a8.89,8.89,0,0,1-8.88-8.87V245a8.89,8.89,0,0,1,8.88-8.87h2.72l3.13,34.44Zm36,34.62a25.55,25.55,0,0,1-13.06-20l-5.94-65.57a255.78,255.78,0,0,0,49.24-5.29c43-8.89,78-28.31,101.41-56.13a7.83,7.83,0,0,0-12-10.06h0c-50.94,60.72-145.45,55.75-146.74,55.69h0a7.78,7.78,0,0,0-8.29,8.52l.74,8.16H67.57a24.45,24.45,0,0,0-14.65,4.86,116.12,116.12,0,0,1-2.59-24.4A105.42,105.42,0,0,1,81.49,126c20.49-20.56,48.24-31.87,78-31.87s57.52,11.31,78,31.86a105.41,105.41,0,0,1,31.15,74.89,116.06,116.06,0,0,1-2.59,24.4,24.44,24.44,0,0,0-14.65-4.86h-1.31l.74-8.16a7.82,7.82,0,0,0-2.26-6.24l-16.71-16.7a7.83,7.83,0,1,0-11.08,11.07L235,214.51l-5.57,61.32c-6.43,5.66-26.7,19.74-69.87,19.74a7.83,7.83,0,1,0,0,15.66h0c30,0,50.53-6.28,63.85-12.89a25.56,25.56,0,0,1-7.88,6.81L172,329.29a25.46,25.46,0,0,1-24.86,0Zm6.9,59.87a24.46,24.46,0,0,0,15.11-22.64v-7.11L139.49,343a41.06,41.06,0,0,0,40.09,0l13.92-7.68v7.11A24.45,24.45,0,0,0,208.55,365l8.22,3.42c-14.7,17.05-28.9,25.52-38.53,29.66-10.6,4.59-18,5-18.7,5s-8.11-.4-18.76-5c-9.61-4.14-23.83-12.62-38.53-29.66ZM59.74,470.93H34.15a8.89,8.89,0,0,1-8.88-8.87V412a17.27,17.27,0,0,1,1.14-6.18l26.91,21.47a17.12,17.12,0,0,1,6.47,13.44ZM243.63,440.7v30.24H75.43V440.7A32.7,32.7,0,0,0,63.08,415l-24.93-19.9,48.94-20.37c25.82,31.91,51.9,40.68,64.59,43.09v26.48a7.84,7.84,0,0,0,15.68,0V417.84c12.67-2.41,38.77-11.19,64.59-43.09l48.94,20.37L256,415A32.71,32.71,0,0,0,243.63,440.7Zm50.15,21.36a8.89,8.89,0,0,1-8.88,8.87h-25.6V440.7a17.13,17.13,0,0,1,6.47-13.44l26.91-21.47a17.27,17.27,0,0,1,1.14,6.18v50.1Z"/>
  <path class="a" d="M149.86,241.56c-3.75-7.77-12.77-12.78-23-12.78s-19.22,5-23,12.78a7.84,7.84,0,0,0,14.12,6.8c1-1.92,4.34-3.92,8.89-3.92s8,2,8.89,3.92a7.84,7.84,0,0,0,14.12-6.8Z"/>
  <path class="a" d="M215.2,241.56c-3.75-7.77-12.77-12.78-23-12.78s-19.22,5-23,12.78a7.84,7.84,0,0,0,14.12,6.8c1-1.92,4.34-3.92,8.89-3.92s8,2,8.89,3.92a7.84,7.84,0,0,0,14.12-6.8Z"/>
  <path class="a" d="M401.92,20a99.58,99.58,0,0,0-66,174.31,129.73,129.73,0,0,1-22.66,28,7.82,7.82,0,0,0,5.08,13.78H319c1.29-.11,30.76-2.61,56.81-20.16A99.69,99.69,0,1,0,401.92,20Zm0,183.7a84.16,84.16,0,0,1-25.22-3.84,7.84,7.84,0,0,0-7,1.14,103.58,103.58,0,0,1-29.33,14.48,155.29,155.29,0,0,0,12.49-19.2,7.82,7.82,0,0,0-2.1-10,84.05,84.05,0,1,1,51.13,17.43Z"/>
  <path class="a" d="M410.27,162h-.52V110.85h.52a7.83,7.83,0,1,0,0-15.66H393.56a7.83,7.83,0,1,0,0,15.66H394V162h-.52a7.83,7.83,0,1,0,0,15.66h16.71a7.83,7.83,0,1,0,0-15.66Z"/>
</svg>
