<svg xmlns="http://www.w3.org/2000/svg" viewBox="0 0 512 512">
  <defs>
    <style>
      .a {
        fill: #60c3eb;
      }
    </style>
  </defs>
  <title>fast-delivery</title>
  <path class="a" d="M503.38,249.58a35.22,35.22,0,0,0-20.86-11.95l-3.9-52.85a8,8,0,0,0,7.8-6.59l1.51-8.51A30.07,30.07,0,0,0,481.77,145c-5.53-6.57-13.61-10.2-22.78-10.2H400.28l2.86-16.2A15.33,15.33,0,0,0,399.92,106a15.16,15.16,0,0,0-11.68-5.3H99.29a18.67,18.67,0,0,0-18,15.12L55.83,260.56a8,8,0,0,0,15.75,2.77L97.14,118.55a2.71,2.71,0,0,1,2.15-1.92H387.23L361.82,260.56a8,8,0,0,0,15.75,2.77l1.85-10.44h95.64c6.61,0,12.32,2.47,16.08,7A19.73,19.73,0,0,1,495.59,271H469a8,8,0,0,0-7.87,6.6l-3,17a22.7,22.7,0,0,0,4.65,18.62A22.33,22.33,0,0,0,480,321h7.53l-6.2,35.12H460.29a41.89,41.89,0,0,0-9-18.92c-8.18-9.73-20.21-15.09-33.91-15.09-21.94,0-43.07,14.32-53,34.06h-3.19l10.37-58.75a8,8,0,0,0-15.75-2.77h0l-10.86,61.48h-148a41.89,41.89,0,0,0-9-18.92c-8.18-9.73-20.21-15.09-33.91-15.09-21.94,0-43.07,14.32-53,34.06H55.14l3.19-18.09H94.23a8,8,0,1,0,0-15.93H9A8,8,0,1,0,9,338.1H42.12l-2.86,16.17a15.33,15.33,0,0,0,3.22,12.59,15.16,15.16,0,0,0,11.68,5.3H95.85c-2.16,13.54,1.09,26.3,9.25,36S125.3,423.24,139,423.24c27.21,0,53.25-22.06,58-49.17.11-.64.2-1.28.29-1.92H359.21c-2.16,13.54,1.09,26.3,9.25,36s20.22,15.09,33.91,15.09c27.21,0,53.25-22.06,58-49.17.11-.64.2-1.28.29-1.92h27.45a8,8,0,0,0,7.87-6.59l15-85.15C513.06,268.81,510.35,257.87,503.38,249.58ZM382.24,236.93l9.21-52.15H462.6l3.85,52.16Zm89.94-70-.34,1.92H394.27l3.19-18.09H459a13.39,13.39,0,0,1,10.53,4.49C472,158.21,473,162.37,472.18,166.9ZM181.27,371.25c-3.5,19.84-22.47,36-42.29,36-8.87,0-16.55-3.34-21.63-9.39-5.24-6.23-7.23-14.69-5.62-23.82,3.5-19.84,22.47-36,42.29-36,8.87,0,16.55,3.34,21.63,9.39C180.88,353.67,182.87,362.12,181.27,371.25Zm263.36,0c-3.5,19.84-22.47,36-42.29,36-8.87,0-16.55-3.34-21.63-9.39-5.24-6.23-7.23-14.69-5.62-23.82,3.5-19.84,22.47-36,42.29-36,8.87,0,16.55,3.34,21.63,9.39C444.23,353.67,446.23,362.12,444.62,371.25Zm45.8-66.2H480.08a6.25,6.25,0,0,1-5-2,6.75,6.75,0,0,1-1.2-5.62L475.78,287h17.87Z"/>
  <path class="a" d="M159.67,361.44a15.16,15.16,0,0,0-11.68-5.3,18.67,18.67,0,0,0-18,15.12,15.33,15.33,0,0,0,3.22,12.59,15.16,15.16,0,0,0,11.68,5.3,18.67,18.67,0,0,0,18-15.11A15.32,15.32,0,0,0,159.67,361.44Z"/>
  <path class="a" d="M423,361.44a15.16,15.16,0,0,0-11.68-5.3,18.67,18.67,0,0,0-18,15.11,15.33,15.33,0,0,0,3.22,12.59,15.16,15.16,0,0,0,11.68,5.3,18.67,18.67,0,0,0,18-15.11A15.32,15.32,0,0,0,423,361.44Z"/>
  <path class="a" d="M323.55,322.08H222.24a8,8,0,1,0,0,15.93H323.55a8,8,0,1,0,0-15.93Z"/>
  <path class="a" d="M179.56,288H32.1a8,8,0,1,0,0,15.93H179.56a8,8,0,1,0,0-15.93Z"/>
  <path class="a" d="M332.29,255.91l-29.6-25.54a8,8,0,1,0-10.42,12.07L305.58,254H102.84a8,8,0,1,0,0,15.93H300.51l-16.5,11a8,8,0,1,0,8.83,13.3l38.63-25.54a8,8,0,0,0,.82-12.7Z"/>
</svg>
