<svg xmlns="http://www.w3.org/2000/svg" viewBox="0 0 512 512">
  <defs>
    <style>
      .a {
        fill: #60c3eb;
      }
    </style>
  </defs>
  <title>wallet</title>
  <path class="a" d="M455,253.53h-.45V158.72a21.35,21.35,0,0,0-21.34-21.34h-3.82l-8.73-45.69a14.07,14.07,0,0,0-16.45-11.2h0L371.8,86.64l-12-34.23a14.07,14.07,0,0,0-17.93-8.62h0L76,137.37a21.35,21.35,0,0,0-20,21.34V434.66A21.35,21.35,0,0,0,77.34,456H433.16a21.35,21.35,0,0,0,21.34-21.34V339.8H455A14.08,14.08,0,0,0,469,325.73V267.66a14.08,14.08,0,0,0-14-14.12ZM346.36,56.66a.45.45,0,0,1,.58.27h0L358.31,89.2l-13.56,2.57A6.81,6.81,0,0,0,347,105.2l.27-.05,59.46-11.29a.44.44,0,0,1,.34.07.43.43,0,0,1,.19.29l8.21,43.16H177.82l140.44-26.68A6.81,6.81,0,1,0,316,97.26l-.27.05-184.25,35Zm94.52,378a7.73,7.73,0,0,1-7.72,7.72H77.34a7.73,7.73,0,0,1-7.71-7.72V427h15a6.81,6.81,0,1,0,0-13.62h-15V180h15a6.81,6.81,0,1,0,0-13.62h-15v-7.72A7.73,7.73,0,0,1,77.35,151H433.16a7.73,7.73,0,0,1,7.72,7.72v94.82h-44a43.12,43.12,0,0,0,0,86.23h44Zm14.52-108.9a.45.45,0,0,1-.45.45H396.87a29.5,29.5,0,1,1,0-59H455a.45.45,0,0,1,.45.45v58.09Z"/>
  <path class="a" d="M128.18,413.32H113.66a6.81,6.81,0,1,0,0,13.62h14.52a6.81,6.81,0,0,0,0-13.62Z"/>
  <path class="a" d="M128.18,166.41H113.66a6.81,6.81,0,1,0,0,13.62h14.52a6.81,6.81,0,0,0,0-13.62Z"/>
  <path class="a" d="M171.75,413.32H157.23a6.81,6.81,0,1,0,0,13.62h14.52a6.81,6.81,0,0,0,0-13.62Z"/>
  <path class="a" d="M171.75,166.41H157.23a6.81,6.81,0,1,0,0,13.62h14.52a6.81,6.81,0,0,0,0-13.62Z"/>
  <path class="a" d="M215.32,413.32H200.8a6.81,6.81,0,0,0,0,13.62h14.52a6.81,6.81,0,1,0,0-13.62Z"/>
  <path class="a" d="M215.32,166.41H200.8a6.81,6.81,0,0,0,0,13.62h14.52a6.81,6.81,0,1,0,0-13.62Z"/>
  <path class="a" d="M258.89,413.32H244.37a6.81,6.81,0,1,0,0,13.62h14.52a6.81,6.81,0,0,0,0-13.62Z"/>
  <path class="a" d="M258.89,166.41H244.37a6.81,6.81,0,1,0,0,13.62h14.52a6.81,6.81,0,0,0,0-13.62Z"/>
  <path class="a" d="M302.46,413.32H287.94a6.81,6.81,0,1,0,0,13.62h14.52a6.81,6.81,0,0,0,0-13.62Z"/>
  <path class="a" d="M302.46,166.41H287.94a6.81,6.81,0,1,0,0,13.62h14.52a6.81,6.81,0,0,0,0-13.62Z"/>
  <path class="a" d="M346,413.32H331.5a6.81,6.81,0,0,0,0,13.62H346a6.81,6.81,0,1,0,0-13.62Z"/>
  <path class="a" d="M346,166.41H331.5a6.81,6.81,0,0,0,0,13.62H346a6.81,6.81,0,1,0,0-13.62Z"/>
  <path class="a" d="M389.6,413.32H375.08a6.81,6.81,0,1,0,0,13.62H389.6a6.81,6.81,0,0,0,0-13.62Z"/>
  <path class="a" d="M389.6,166.41H375.08a6.81,6.81,0,1,0,0,13.62H389.6a6.81,6.81,0,0,0,0-13.62Z"/>
  <path class="a" d="M418.64,398.8a6.81,6.81,0,0,0-6.81,6.81h0v14.52a6.81,6.81,0,0,0,13.62,0V405.61a6.81,6.81,0,0,0-6.81-6.81Z"/>
  <path class="a" d="M418.64,166.41a6.81,6.81,0,0,0-6.81,6.81h0v14.52a6.81,6.81,0,1,0,13.62,0V173.22a6.81,6.81,0,0,0-6.81-6.81Z"/>
  <path class="a" d="M418.64,210a6.81,6.81,0,0,0-6.81,6.81h0V231.3a6.81,6.81,0,1,0,13.62,0V216.78a6.81,6.81,0,0,0-6.81-6.81Z"/>
  <path class="a" d="M418.64,355.23a6.81,6.81,0,0,0-6.81,6.81h0v14.52a6.81,6.81,0,1,0,13.62,0V362a6.81,6.81,0,0,0-6.81-6.81Z"/>
  <path class="a" d="M396.86,282.61a14.07,14.07,0,1,0,14.08,14.08A14.07,14.07,0,0,0,396.86,282.61Z"/>
</svg>
