<?xml version="1.0" encoding="utf-8"?>
<!-- Generator: Adobe Illustrator 18.0.0, SVG Export Plug-In . SVG Version: 6.00 Build 0)  -->
<!DOCTYPE svg PUBLIC "-//W3C//DTD SVG 1.1//EN" "http://www.w3.org/Graphics/SVG/1.1/DTD/svg11.dtd">
<svg version="1.1" id="Calque_1" xmlns="http://www.w3.org/2000/svg" xmlns:xlink="http://www.w3.org/1999/xlink" x="0px" y="0px"
	 viewBox="0 0 200 200" width="200px" height="200px" enable-background="new 0 0 200 200" xml:space="preserve">
<g>
	<path fill="#FFFFFF" d="M182.2,177.4L150,135.3c14.2-14.2,23.1-33.9,23.1-55.6c0-43.4-35.2-78.5-78.5-78.5S16,36.3,16,79.7
		s35.2,78.5,78.5,78.5c11,0,21.5-2.3,30.9-6.4l33.3,43.5c3.7,4.8,11.9,4.6,18.4-0.3C183.6,190.1,185.9,182.2,182.2,177.4
		L182.2,177.4z M41.7,79.7c0-29.2,23.7-52.9,52.9-52.9s52.9,23.7,52.9,52.9s-23.7,52.9-52.9,52.9S41.7,108.8,41.7,79.7z"/>
</g>
</svg>
