<?xml version="1.0" encoding="utf-8"?>
<!-- Generator: Adobe Illustrator 18.0.0, SVG Export Plug-In . SVG Version: 6.00 Build 0)  -->
<!DOCTYPE svg PUBLIC "-//W3C//DTD SVG 1.1//EN" "http://www.w3.org/Graphics/SVG/1.1/DTD/svg11.dtd">
<svg version="1.1" id="Calque_1" xmlns="http://www.w3.org/2000/svg" xmlns:xlink="http://www.w3.org/1999/xlink" x="0px" y="0px"
	 viewBox="0 0 200 200" enable-background="new 0 0 200 200" xml:space="preserve">
<path fill-rule="evenodd" clip-rule="evenodd" fill="#FFFFFF" d="M200.1,142.4V57.6L134.4,100L200.1,142.4z M1.5,166.6
	c2.9,6.6,9.5,11.2,17.2,11.2h162.6c7.6,0,14.2-4.6,17.2-11.1c1-2.3,1.6-4.9,1.6-7.6l-78.6-50.7L100,122.2l-21.5-13.9l-78.6,50.7
	C-0.1,161.8,0.5,164.3,1.5,166.6z M-0.1,57.6v84.8L65.6,100L-0.1,57.6z M18.7,22.2c-7.7,0-14.3,4.6-17.2,11.2
	c-1,2.3-1.6,4.9-1.6,7.6L100,105.6l100.1-64.6c0-2.7-0.6-5.3-1.6-7.6c-2.9-6.6-9.5-11.1-17.2-11.1H18.7z"/>
</svg>
