<svg width="98" height="98" viewBox="0 0 98 98" fill="none" xmlns="http://www.w3.org/2000/svg">
<rect y="48.9521" width="69.2284" height="69.2284" rx="34.6142" transform="rotate(-45 0 48.9521)" fill="#60A8FF"/>
<path d="M60.0797 38.2143H37.9204C37.5163 38.2143 37.1887 38.5451 37.1887 38.9532V50.1121C37.1887 50.5202 37.5163 50.8509 37.9204 50.8509C38.3245 50.8509 38.6521 50.5202 38.6521 50.1121V39.6919H59.3479V50.112C59.3479 50.5201 59.6756 50.8509 60.0797 50.8509C60.4838 50.8509 60.8114 50.5201 60.8114 50.112V38.9531C60.8113 38.5451 60.4837 38.2143 60.0797 38.2143Z" fill="white"/>
<path d="M65.3415 52.7503H63.9938V37.2343C63.9938 36.0029 63.0016 35.001 61.7819 35.001H36.2181C34.9984 35.001 34.0063 36.0029 34.0063 37.2343V52.7503H32.6586C32.2948 52.7503 32 53.0479 32 53.4152V54.7206C32 56.5294 33.4574 58.001 35.2489 58.001H62.7511C64.5426 58.001 66 56.5294 66 54.7206V53.4152C66.0001 53.0479 65.7053 52.7503 65.3415 52.7503ZM35.4697 37.2343C35.4697 36.8177 35.8055 36.4786 36.2181 36.4786H61.7818C62.1946 36.4786 62.5303 36.8176 62.5303 37.2343V52.7503H52.6224C52.5758 52.7487 52.5276 52.7528 52.4798 52.7621C52.1698 52.8223 51.9458 53.0963 51.9458 53.4149C51.9458 53.9762 51.4936 54.4328 50.9378 54.4328H47.0623C46.5064 54.4328 46.0543 53.9762 46.0543 53.4149C46.0543 53.0426 45.7488 52.7422 45.3805 52.7501H35.4697V37.2343ZM64.683 54.7206C64.683 55.7961 63.8163 56.6711 62.7512 56.6711H35.2489C34.1837 56.6711 33.3171 55.7961 33.3171 54.7206V54.0802H44.8322C45.1169 55.0518 46.0089 55.7627 47.0622 55.7627H50.9378C51.9911 55.7627 52.8831 55.0517 53.1679 54.0802H64.683L64.683 54.7206Z" fill="white"/>
<path d="M50.0845 42.5089C49.7987 42.2204 49.3355 42.2204 49.0496 42.5089L44.4479 47.1556C44.1621 47.4441 44.1621 47.9119 44.4479 48.2004C44.5908 48.3447 44.778 48.4168 44.9652 48.4168C45.1525 48.4168 45.3397 48.3446 45.4826 48.2004L50.0845 43.5539C50.3703 43.2654 50.3703 42.7975 50.0845 42.5089Z" fill="white"/>
<path d="M52.8121 45.2016C52.5263 44.9131 52.0631 44.9131 51.7773 45.2016L49.944 47.0526C49.6583 47.3411 49.6583 47.8089 49.944 48.0975C50.0869 48.2418 50.2742 48.3139 50.4614 48.3139C50.6487 48.3139 50.8359 48.2418 50.9788 48.0975L52.812 46.2465C53.0978 45.958 53.0978 45.4902 52.8121 45.2016Z" fill="white"/>
</svg>
