<svg xmlns="http://www.w3.org/2000/svg" xmlns:xlink="http://www.w3.org/1999/xlink"><symbol id="icon" viewBox="0 0 100 100"><g xmlns="http://www.w3.org/2000/svg"><path d="M76.586,40.565c-0.925-0.72-9.182-9.829-13.67-13.841V14.341c0-4.12-3.383-7.503-7.503-7.503H28.461   c-4.12,0-7.503,3.383-7.503,7.503v42.552c0,4.12,3.383,7.503,7.503,7.503h13.383l1.909,1.788c0,0,2.073,8.64,7.784,14.614v2.233   c-0.997,0.434-1.695,1.427-1.695,2.584v4.731c0,1.556,1.261,2.818,2.818,2.818h19.741c1.556,0,2.818-1.261,2.818-2.818v-4.731   c0-1.141-0.68-2.121-1.655-2.564c0.653-6.053,3.537-32.049,5.027-33.425C78.591,49.625,80.459,43.577,76.586,40.565z    M55.504,11.534c1.493,0,2.717,1.223,2.717,2.717v39.852c-0.573,1.404-1.984,1.792-3.742,1.608V11.534H55.504z M28.371,60.347   c-1.493,0-2.717-1.223-2.717-2.717v-43.38c0-1.493,1.223-2.717,2.717-2.717h18.964v41.733c-2.777-1.364-4.979-2.781-4.979-2.781   s-10-9.462-14.308-5.378c0,0-2.384,3.587,2.158,8.389l7.316,6.851H28.371z" fill="currentColor"></path><path d="M28.569,26.593c0,2.683,2.175,4.858,4.858,4.858s4.858-2.175,4.858-4.858c0-1.476-0.659-2.798-1.698-3.688   c1.039-0.891,1.698-2.212,1.698-3.688c0-2.683-2.175-4.858-4.858-4.858s-4.858,2.175-4.858,4.858c0,1.476,0.659,2.797,1.698,3.688   C29.228,23.796,28.569,25.117,28.569,26.593z" fill="currentColor"></path></g></symbol></svg>