<svg width="28" height="25" viewBox="0 0 28 25" fill="none" xmlns="http://www.w3.org/2000/svg">
<path d="M4.96443 11.1241C7.52121 12.5932 9.47988 14.7969 10.8875 17.3711C11.1045 17.7678 12.445 17.6531 12.8188 17.6531C13.1464 17.6531 14.5834 17.7746 14.7502 17.3711C17.524 10.6526 21.933 4.54641 27.9593 0.400899C28.2704 0.186885 26.698 0.0573507 26.6104 0.0537302C25.9986 0.0283865 24.7868 -0.128905 24.2345 0.250848C18.1595 4.42975 13.6834 10.5979 10.8871 17.3711C12.1745 17.3711 13.4624 17.3711 14.7498 17.3711C13.3165 14.7495 11.2931 12.4701 8.68886 10.9741C8.07267 10.6201 6.99385 10.7488 6.31296 10.7769C5.98819 10.7902 5.43551 10.7399 5.15857 10.9065C5.09667 10.9443 4.7518 11.0018 4.96443 11.1241Z" fill="#7AB1B0"/>
<path d="M11.9739 24.4229C5.3716 24.4229 0 19.0464 0 12.4385C0 5.83068 5.3716 0.45459 11.9739 0.45459C13.9439 0.45459 15.8977 0.944166 17.6241 1.87022C18.2511 2.20652 18.4867 2.98735 18.1506 3.61491C17.8146 4.24247 17.0344 4.47821 16.4074 4.1419C15.0545 3.41578 13.521 3.0316 11.9739 3.0316C6.79127 3.0316 2.57486 7.25153 2.57486 12.4385C2.57486 17.6256 6.79127 21.8455 11.9739 21.8455C17.1566 21.8455 21.373 17.6256 21.373 12.4385C21.373 11.5813 21.2577 10.7329 21.0306 9.91705C20.8397 9.23156 21.2404 8.52073 21.9253 8.33005C22.6106 8.13896 23.3205 8.54004 23.511 9.22553C23.8008 10.2666 23.9479 11.3476 23.9479 12.4389C23.9483 19.0464 18.5767 24.4229 11.9739 24.4229Z" fill="#7AB1B0"/>
</svg>
