<?xml version="1.0" encoding="utf-8"?><svg viewBox="0 0 73 167" xmlns="http://www.w3.org/2000/svg" xmlns:xlink="http://www.w3.org/1999/xlink"><style>:root>svg{display:none}:root>svg:target{display:block}</style><svg fill="none" viewBox="0 0 52 41" id="arrow-1" xmlns="http://www.w3.org/2000/svg"><path d="M51.148 38.989a1 1 0 00.841-1.137l-1.33-8.901a1 1 0 00-1.978.296l1.182 7.912-7.912 1.182a1 1 0 00.296 1.978l8.9-1.33zM.405 1.804l50 37 1.19-1.608-50-37-1.19 1.608z" fill="#000"/></svg><svg fill="none" viewBox="0 0 67 101" id="arrow-2" xmlns="http://www.w3.org/2000/svg"><path d="M59.74 96.966a1 1 0 001.226-.706l2.337-8.691a1 1 0 00-1.931-.52l-2.078 7.726-7.725-2.078a1 1 0 00-.52 1.931l8.691 2.338zM6.133 4.499l53 92 1.733-.998-53-92-1.732.998z" fill="#000"/></svg><svg fill="none" viewBox="0 0 38 49" id="arrow-3" xmlns="http://www.w3.org/2000/svg"><path d="M6.03 44.242a1 1 0 001.213.728l8.73-2.183a1 1 0 10-.484-1.94l-7.761 1.94-1.94-7.76a1 1 0 10-1.941.484l2.183 8.731zM30.142 3.486l-24 40 1.715 1.029 24-40-1.715-1.03z" fill="#000"/></svg><svg fill="none" viewBox="0 0 67 39" id="arrow-4" xmlns="http://www.w3.org/2000/svg"><path d="M63.394 31.92a1 1 0 00.525-1.314l-3.545-8.272a1 1 0 00-1.838.788l3.15 7.353-7.352 3.151a1 1 0 10.788 1.838l8.272-3.545zM2.629 7.927l60 24 .742-1.857-60-24-.742 1.857z" fill="#000"/></svg><svg fill="none" viewBox="0 0 73 60" id="arrow-5" xmlns="http://www.w3.org/2000/svg"><path d="M6.023 6.077a1 1 0 00-.855 1.126l1.217 8.918a1 1 0 101.982-.27L7.285 7.923l7.926-1.082a1 1 0 00-.27-1.982L6.023 6.077zm62.423 47.059L6.764 6.272l-1.21 1.592 61.684 46.864 1.21-1.592z" fill="#000"/></svg><svg fill="none" viewBox="0 0 71 167" id="arrow-5-1" xmlns="http://www.w3.org/2000/svg"><path d="M8.434 3.099a1 1 0 00-1.335.467l-3.904 8.11a1 1 0 101.802.867l3.47-7.208 7.208 3.47a1 1 0 10.868-1.802L8.433 3.1zm56.51 160.571l-56-160-1.888.66 56 160 1.888-.66z" fill="#000"/></svg><svg fill="none" viewBox="0 0 31 31" id="call" xmlns="http://www.w3.org/2000/svg"><g clip-path="url(#gclip0)"><path d="M29.848 24.147l-4.577-4.576c-.911-.908-2.42-.88-3.364.063l-2.305 2.305c-.146-.08-.297-.164-.455-.253-1.456-.807-3.449-1.913-5.546-4.011-2.103-2.103-3.21-4.099-4.019-5.555-.085-.155-.167-.304-.248-.445l1.548-1.545.76-.762c.945-.945.971-2.454.062-3.364L7.128 1.427c-.91-.91-2.42-.882-3.365.063l-1.29 1.297.036.035a7.458 7.458 0 00-1.063 1.875 7.772 7.772 0 00-.473 1.901c-.604 5.01 1.685 9.588 7.898 15.8 8.587 8.587 15.508 7.939 15.806 7.907a7.734 7.734 0 001.907-.479 7.432 7.432 0 001.868-1.058l.028.025 1.307-1.28c.942-.944.97-2.454.06-3.366z" fill="#0084FF"/></g><defs><clipPath id="gclip0"><path fill="#fff" transform="translate(.88 .73)" d="M0 0h29.632v29.632H0z"/></clipPath></defs></svg><svg fill="none" viewBox="0 0 32 33" id="camera" xmlns="http://www.w3.org/2000/svg"><g clip-path="url(#hclip0)" fill="#0084FF"><path d="M30.483 8.105c-.82-.82-1.81-1.23-2.968-1.23h-3.673l-.836-2.23c-.208-.536-.588-.998-1.14-1.386-.552-.388-1.118-.582-1.697-.582h-8.396c-.58 0-1.146.194-1.698.582-.552.388-.932.85-1.14 1.386L8.1 6.875H4.426c-1.159 0-2.148.41-2.968 1.23-.82.82-1.23 1.809-1.23 2.968v14.692c0 1.16.41 2.149 1.23 2.968.82.82 1.81 1.23 2.968 1.23h23.089c1.158 0 2.147-.41 2.968-1.23.82-.82 1.23-1.809 1.23-2.968V11.073c0-1.16-.41-2.148-1.23-2.968zM21.16 23.609c-1.437 1.438-3.167 2.157-5.19 2.157-2.022 0-3.752-.72-5.19-2.157-1.437-1.437-2.156-3.167-2.156-5.19 0-2.022.719-3.752 2.156-5.19 1.438-1.437 3.168-2.156 5.19-2.156 2.023 0 3.753.719 5.19 2.156 1.438 1.438 2.157 3.168 2.157 5.19 0 2.023-.719 3.753-2.157 5.19z"/><path d="M15.97 13.696c-1.3 0-2.413.462-3.337 1.386-.923.924-1.385 2.036-1.385 3.337 0 1.301.462 2.413 1.385 3.337.924.924 2.036 1.386 3.337 1.386 1.301 0 2.414-.462 3.337-1.386.924-.924 1.386-2.036 1.386-3.337 0-1.3-.462-2.413-1.386-3.337-.923-.924-2.036-1.386-3.337-1.386z"/></g><defs><clipPath id="hclip0"><path fill="#fff" transform="translate(.228 .578)" d="M0 0h31.484v31.484H0z"/></clipPath></defs></svg><svg fill="none" viewBox="0 0 25 25" id="dots" xmlns="http://www.w3.org/2000/svg"><circle cx="19.127" cy="5.838" r="4.939" fill="#0084FF"/><circle cx="5.546" cy="5.838" r="4.939" fill="#0084FF"/><circle cx="19.127" cy="20.036" r="4.939" fill="#0084FF"/><circle cx="5.546" cy="20.036" r="4.939" fill="#0084FF"/></svg><svg fill="none" viewBox="0 0 32 32" id="face" xmlns="http://www.w3.org/2000/svg"><g clip-path="url(#jclip0)"><path d="M16.018.194C7.529.194.584 7.14.584 15.628c0 8.488 6.945 15.433 15.434 15.433 8.488 0 15.433-6.945 15.433-15.433C31.45 7.139 24.506.194 16.018.194zm5.401 9.26c1.235 0 2.315 1.08 2.315 2.315 0 1.235-1.08 2.315-2.315 2.315-1.234 0-2.315-1.08-2.315-2.315 0-1.234 1.08-2.315 2.315-2.315zm-10.803 0c1.235 0 2.315 1.08 2.315 2.315 0 1.235-1.08 2.315-2.315 2.315-1.235 0-2.315-1.08-2.315-2.315 0-1.234 1.08-2.315 2.315-2.315zm5.402 15.434c-4.013 0-7.408-2.624-8.643-6.174H24.66c-1.234 3.55-4.63 6.174-8.642 6.174z" fill="#0084FF"/></g><defs><clipPath id="jclip0"><path fill="#fff" transform="translate(.584 .194)" d="M0 0h30.867v30.867H0z"/></clipPath></defs></svg><svg fill="none" viewBox="0 0 20 20" id="icon-list" xmlns="http://www.w3.org/2000/svg"><g clip-path="url(#kclip0)"><path d="M19.707 3.718L13.425 10l6.282 6.282-.829.83L8.252 10l10.626-7.11.829.828z" fill="#E0230D"/><path d="M18.878 2.89L11.768 10l7.11 7.11-2.596 2.597L10 13.425l-6.282 6.282-3.425-3.425L6.575 10 .293 3.718 3.718.293 10 6.575 16.282.293l2.596 2.596z" fill="#FF5440"/><path d="M13.84 10l6.074-6.074a.293.293 0 000-.414L16.49.087a.293.293 0 00-.414 0L10 6.162 3.925.087a.293.293 0 00-.414 0L.086 3.512a.293.293 0 000 .414l6.075 6.075-2.52 2.52a.293.293 0 00.414.414l2.727-2.727a.293.293 0 000-.414L.707 3.719 3.718.709l6.075 6.074c.114.114.3.114.414 0L16.282.708l3.01 3.011-6.074 6.075a.293.293 0 000 .414l6.075 6.075-3.011 3.01-6.075-6.074a.293.293 0 00-.414 0l-6.075 6.075-3.01-3.011 2.519-2.52a.293.293 0 10-.415-.414L.086 16.076a.293.293 0 000 .414l3.425 3.425a.292.292 0 00.414 0L10 13.84l6.075 6.075a.293.293 0 00.414 0l3.425-3.425a.293.293 0 000-.414L13.84 10z" fill="#fff"/></g><defs><clipPath id="kclip0"><path fill="#fff" d="M0 0h20v20H0z"/></clipPath></defs></svg><svg fill="none" viewBox="0 0 31 31" id="icon-list-second" xmlns="http://www.w3.org/2000/svg"><path d="M14.313 1.898a1.675 1.675 0 012.373 0c.767.769 1.921.998 2.923.582a1.676 1.676 0 012.192.908 2.675 2.675 0 002.478 1.655c.927-.001 1.68.75 1.678 1.678A2.676 2.676 0 0027.612 9.2a1.676 1.676 0 01.908 2.192 2.675 2.675 0 00.582 2.922 1.675 1.675 0 010 2.373 2.675 2.675 0 00-.582 2.923 1.676 1.676 0 01-.908 2.192 2.676 2.676 0 00-1.655 2.478c.001.927-.75 1.68-1.678 1.678a2.676 2.676 0 00-2.478 1.655 1.676 1.676 0 01-2.192.908 2.675 2.675 0 00-2.923.582 1.675 1.675 0 01-2.373 0 2.675 2.675 0 00-2.922-.582 1.676 1.676 0 01-2.192-.908 2.676 2.676 0 00-2.478-1.655 1.675 1.675 0 01-1.678-1.678A2.675 2.675 0 003.388 21.8a1.676 1.676 0 01-.908-2.192 2.676 2.676 0 00-.582-2.923 1.675 1.675 0 010-2.373c.769-.766.998-1.92.582-2.922A1.675 1.675 0 013.388 9.2 2.675 2.675 0 005.043 6.72a1.675 1.675 0 011.678-1.678A2.675 2.675 0 009.2 3.388a1.675 1.675 0 012.192-.908 2.676 2.676 0 002.922-.582l-.354-.353.354.353z" fill="#74A2D6" stroke="#4271A6"/><path d="M22.086 9.323a1.379 1.379 0 00-1.945.173L13.98 16.86l-2.621-2.62a1.38 1.38 0 00-1.954 0 1.38 1.38 0 000 1.954l3.69 3.69c.258.26.61.404.976.404.02 0 .04 0 .06-.003.39-.016.75-.196.998-.493l7.13-8.525a1.38 1.38 0 00-.173-1.945z" fill="#fff"/></svg><svg fill="none" viewBox="0 0 22 22" id="like" xmlns="http://www.w3.org/2000/svg"><circle cx="11" cy="11" r="11" fill="#0084FF"/><path d="M7.042 9.375C6.468 9.375 6 9.842 6 10.417v3.333c0 .574.468 1.042 1.042 1.042h1.25c.234 0 .45-.08.625-.211V9.375H7.042zM16 10.937c0-.25-.1-.484-.271-.656.194-.213.294-.498.266-.795-.048-.53-.525-.945-1.086-.945h-2.574c.127-.387.332-1.096.332-1.666 0-.904-.768-1.667-1.25-1.667-.433 0-.742.244-.756.254a.21.21 0 00-.078.163v1.413l-1.2 2.6-.05.025v4.465c.34.16.769.247 1.042.247H14.2c.453 0 .85-.306.944-.728a.938.938 0 00-.076-.626.933.933 0 00.417-1.25.933.933 0 00.515-.834z" fill="#fff"/></svg><svg fill="none" viewBox="0 0 31 30" id="like-second" xmlns="http://www.w3.org/2000/svg"><g clip-path="url(#nclip0)" fill="#0084FF"><path d="M29.014 16.243c.665-.762.997-1.662.997-2.702 0-.943-.345-1.759-1.033-2.448-.689-.69-1.505-1.034-2.448-1.034h-5.023c.049-.17.097-.314.145-.435.048-.121.115-.254.2-.4a14.989 14.989 0 00.68-1.342c.115-.265.229-.628.344-1.087.115-.46.172-.919.172-1.378 0-.29-.003-.526-.009-.708a7.82 7.82 0 00-.09-.816 4.578 4.578 0 00-.218-.906 4.225 4.225 0 00-.435-.816 2.544 2.544 0 00-.726-.735c-.284-.187-.647-.344-1.088-.471a5.416 5.416 0 00-1.497-.19c-.314 0-.585.114-.815.344a3.148 3.148 0 00-.617.907c-.17.362-.287.677-.354.943-.066.266-.142.634-.226 1.106-.11.508-.19.873-.245 1.097-.055.224-.16.517-.318.88a2.78 2.78 0 01-.562.87c-.399.399-1.01 1.124-1.832 2.176a33.269 33.269 0 01-1.831 2.194c-.629.69-1.088 1.046-1.378 1.07a1.19 1.19 0 00-.78.372 1.094 1.094 0 00-.327.789v11.623c0 .315.115.584.345.807a1.2 1.2 0 00.816.354c.423.012 1.378.278 2.865.798.93.314 1.66.553 2.185.716.526.163 1.26.339 2.203.526.943.188 1.813.281 2.611.281h2.339c1.609-.024 2.799-.495 3.573-1.414.701-.834.997-1.928.889-3.282.471-.447.798-1.015.979-1.705.205-.737.205-1.444 0-2.12a3.763 3.763 0 00.78-2.485c0-.388-.09-.847-.271-1.379zM7.38 12.38H2.157c-.314 0-.586.115-.816.345-.23.23-.345.501-.345.816v11.606c0 .314.115.586.345.816.23.23.502.344.816.344H7.38c.314 0 .586-.115.816-.344.23-.23.344-.502.344-.816V13.54c0-.315-.115-.587-.344-.816a1.115 1.115 0 00-.816-.345zM5.294 23.65a1.13 1.13 0 01-.816.336c-.326 0-.601-.112-.825-.336a1.121 1.121 0 01-.335-.825c0-.314.111-.586.335-.816.224-.23.499-.345.825-.345.314 0 .586.115.816.345.23.23.345.502.345.816 0 .327-.115.602-.345.825z"/></g><defs><clipPath id="nclip0"><path fill="#fff" transform="translate(.996 .194)" d="M0 0h29.015v29.015H0z"/></clipPath></defs></svg><svg fill="none" viewBox="0 0 30 30" id="microphone" xmlns="http://www.w3.org/2000/svg"><g clip-path="url(#oclip0)" fill="#0084FF"><path d="M15.004 20.516c1.534 0 2.848-.546 3.94-1.638 1.093-1.093 1.639-2.407 1.639-3.941V6.01c0-1.535-.546-2.848-1.639-3.941-1.092-1.093-2.406-1.64-3.94-1.64-1.535 0-2.848.547-3.941 1.64-1.093 1.092-1.64 2.406-1.64 3.94v8.928c0 1.534.547 2.848 1.64 3.94 1.092 1.093 2.406 1.64 3.94 1.64z"/><path d="M24.715 11.92a1.071 1.071 0 00-.784-.331c-.302 0-.564.11-.785.331-.22.221-.33.483-.33.785v2.232c0 2.15-.765 3.99-2.294 5.518-1.528 1.529-3.368 2.293-5.518 2.293-2.151 0-3.99-.764-5.52-2.293-1.528-1.528-2.292-3.368-2.292-5.518v-2.232c0-.302-.11-.564-.331-.785a1.072 1.072 0 00-.785-.331c-.302 0-.564.11-.785.331-.22.221-.331.483-.331.785v2.232c0 2.569.857 4.804 2.572 6.704 1.714 1.9 3.833 2.99 6.356 3.269v2.302H9.424c-.302 0-.564.11-.785.331-.22.221-.331.483-.331.785 0 .302.11.564.331.785.221.22.483.331.785.331h11.159c.302 0 .564-.11.785-.331.22-.221.331-.483.331-.785 0-.302-.11-.564-.332-.785a1.072 1.072 0 00-.784-.331H16.12V24.91c2.522-.279 4.64-1.369 6.355-3.269 1.715-1.9 2.572-4.135 2.572-6.704v-2.232c0-.302-.11-.564-.332-.785z"/></g><defs><clipPath id="oclip0"><path fill="#fff" transform="translate(.496 .43)" d="M0 0h29.015v29.015H0z"/></clipPath></defs></svg><svg fill="none" viewBox="0 0 20 20" id="ok" xmlns="http://www.w3.org/2000/svg"><path d="M9.659.81A9.568 9.568 0 00.09 10.378a9.568 9.568 0 009.569 9.569c5.284 0 9.568-4.284 9.568-9.569C19.227 5.095 14.943.81 9.66.81zm0 17.343a7.774 7.774 0 110-15.549 7.774 7.774 0 010 15.549zm3.76-11.845a.833.833 0 00-1.16.323l-3.208 5.763-1.787-2.175c-.324-.372-.754-.566-1.16-.323-.406.244-.574.83-.311 1.205l2.486 3.026c.186.242.399.387.62.428l.002.004h.023c.05.009.802.147 1.125-.432l3.683-6.614a.901.901 0 00-.313-1.205z" fill="#0084FF"/></svg><svg fill="none" viewBox="0 0 28 28" id="paint" xmlns="http://www.w3.org/2000/svg"><rect x="1.64" y="1.281" width="24.693" height="25.311" rx="2.469" stroke="#0084FF" stroke-width="2.469"/><path d="M12.263 13.784a6.173 6.173 0 014.102-.103l8.189 2.656a1.852 1.852 0 011.273 1.594l.63 6.924a1.852 1.852 0 01-1.868 2.02l-21.184-.262a1.852 1.852 0 01-1.828-1.786l-.198-5.554a1.852 1.852 0 011.191-1.796l9.693-3.693z" fill="#0084FF"/><circle cx="7.505" cy="6.528" r="2.778" fill="#0084FF"/></svg><svg fill="none" viewBox="0 0 31 31" id="pause-btn" xmlns="http://www.w3.org/2000/svg"><circle cx="15.432" cy="15.432" r="15.432" fill="#fff"/><path stroke="#000" stroke-width="4" d="M11 8v15M21 8v15"/></svg><svg fill="none" viewBox="0 0 32 32" id="play-btn" xmlns="http://www.w3.org/2000/svg"><circle cx="16" cy="16" r="15.5" fill="#fff" stroke="#000"/><path d="M26 16.5L11.75 8.273v16.454L26 16.5z" fill="#000"/></svg><svg fill="none" viewBox="0 0 35 23" id="videi" xmlns="http://www.w3.org/2000/svg"><rect x=".909" y=".434" width="23.459" height="22.224" rx="3.087" fill="#0084FF"/><path d="M26.837 8.665c0-.499.3-.948.76-1.14l4.939-2.058a1.235 1.235 0 011.71 1.14v9.877c0 .881-.897 1.479-1.71 1.14l-4.939-2.058a1.235 1.235 0 01-.76-1.14V8.665z" fill="#0084FF"/></svg></svg>