<svg width="25" height="21" viewBox="0 0 25 21" fill="none" xmlns="http://www.w3.org/2000/svg">
<path d="M25 2.40469C24.0703 2.8125 23.0797 3.08281 22.0469 3.21406C23.1094 2.57969 23.9203 1.58281 24.3016 0.38125C23.3109 0.971875 22.2172 1.38906 21.0516 1.62188C20.1109 0.620313 18.7703 0 17.3078 0C14.4703 0 12.1859 2.30313 12.1859 5.12656C12.1859 5.53281 12.2203 5.92344 12.3047 6.29531C8.04375 6.0875 4.27344 4.04531 1.74062 0.934375C1.29844 1.70156 1.03906 2.57969 1.03906 3.525C1.03906 5.3 1.95312 6.87344 3.31562 7.78437C2.49219 7.76875 1.68437 7.52969 1 7.15313C1 7.16875 1 7.18906 1 7.20937C1 9.7 2.77656 11.7688 5.10625 12.2453C4.68906 12.3594 4.23438 12.4141 3.7625 12.4141C3.43438 12.4141 3.10312 12.3953 2.79219 12.3266C3.45625 14.3562 5.34063 15.8484 7.58125 15.8969C5.8375 17.2609 3.62344 18.0828 1.22656 18.0828C0.80625 18.0828 0.403125 18.0641 0 18.0125C2.27031 19.4766 4.96094 20.3125 7.8625 20.3125C17.2937 20.3125 22.45 12.5 22.45 5.72812C22.45 5.50156 22.4422 5.28281 22.4312 5.06563C23.4484 4.34375 24.3031 3.44219 25 2.40469Z" fill="white"/>
</svg>
