<svg width="18" height="15" viewBox="0 0 18 15" fill="none" xmlns="http://www.w3.org/2000/svg">
<path d="M16.408 5.72431L16.4342 5.73005H5.1889L8.72401 2.18714C8.89712 2.01417 8.99207 1.77986 8.99207 1.53393C8.99207 1.288 8.89712 1.05532 8.72401 0.881937L8.17395 0.331599C8.00098 0.158628 7.77048 0.0629883 7.52469 0.0629883C7.27876 0.0629883 7.04813 0.157945 6.87516 0.330916L0.815295 6.39023C0.64164 6.56389 0.546684 6.7952 0.547367 7.04127C0.546684 7.2887 0.64164 7.52015 0.815295 7.69353L6.87516 13.7534C7.04813 13.9262 7.27862 14.0213 7.52469 14.0213C7.77048 14.0213 8.00098 13.9261 8.17395 13.7534L8.72401 13.2031C8.89712 13.0304 8.99207 12.7997 8.99207 12.5538C8.99207 12.308 8.89712 12.0895 8.72401 11.9167L5.149 8.35399H16.4205C16.927 8.35399 17.3526 7.91746 17.3526 7.41126V6.63289C17.3526 6.12668 16.9145 5.72431 16.408 5.72431Z" fill="white"/>
</svg>
