<svg width="22" height="22" viewBox="0 0 22 22" fill="none" xmlns="http://www.w3.org/2000/svg">
<g clip-path="url(#clip0)">
<path d="M11 22C17.0752 22 22 17.0752 22 11C22 4.92488 17.0752 0 11 0C4.92488 0 0 4.92488 0 11C0 17.0752 4.92488 22 11 22Z" fill="#E24C4B"/>
<path d="M22 11C22 17.05 17.05 22 11 22C7.49378 22 4.40003 20.4187 2.40625 17.875C4.2625 19.3875 6.66876 20.2813 9.28124 20.2813C15.3313 20.2813 20.2813 15.3313 20.2813 9.28124C20.2813 6.66876 19.3875 4.2625 17.875 2.40625C20.4188 4.39993 22 7.49368 22 11Z" fill="#D1403F"/>
<path d="M16.0188 16.0187C15.6064 16.4312 14.9188 16.4312 14.5063 16.0187L11.0001 12.5125L7.49387 16.0187C7.08138 16.4312 6.39384 16.4312 5.98136 16.0187C5.56888 15.6062 5.56888 14.9187 5.98136 14.5062L9.48759 11L5.98136 7.49374C5.56888 7.08126 5.56888 6.39372 5.98136 5.98124C6.39384 5.56875 7.08138 5.56875 7.49387 5.98124L11.0001 9.48747L14.5063 5.98124C14.9188 5.56875 15.6064 5.56875 16.0188 5.98124C16.4313 6.39372 16.4313 7.08126 16.0188 7.49374L12.5126 11L16.0188 14.5062C16.4313 14.9187 16.4313 15.6062 16.0188 16.0187Z" fill="white"/>
</g>
<defs>
<clipPath id="clip0">
<rect width="22" height="22" fill="white"/>
</clipPath>
</defs>
</svg>
