<svg width="22" height="22" viewBox="0 0 22 22" fill="none" xmlns="http://www.w3.org/2000/svg">
<g clip-path="url(#clip0)">
<path d="M11 22C17.0752 22 22 17.0752 22 11C22 4.92488 17.0752 0 11 0C4.92488 0 0 4.92488 0 11C0 17.0752 4.92488 22 11 22Z" fill="#52C45E"/>
<path d="M22 11C22 17.05 17.05 22 11 22C7.49378 22 4.40003 20.4187 2.40625 17.875C4.2625 19.3875 6.66876 20.2813 9.28124 20.2813C15.3313 20.2813 20.2813 15.3313 20.2813 9.28124C20.2813 6.66876 19.3875 4.2625 17.875 2.40625C20.4188 4.39993 22 7.49368 22 11Z" fill="#002F05" fill-opacity="0.3"/>
<path d="M9.73135 16.0972C9.33133 16.0972 8.93135 15.926 8.70277 15.5837L5.50278 11.4761C5.04563 10.9056 5.15994 10.1069 5.73136 9.65045C6.30278 9.19403 7.10278 9.30816 7.55993 9.87866L9.73135 12.6741L14.5314 6.45563C14.9885 5.88513 15.7885 5.77101 16.36 6.22742C16.9314 6.68384 17.0457 7.48254 16.5885 8.05304L10.7599 15.5837C10.4742 15.869 10.1314 16.0972 9.73135 16.0972Z" fill="white"/>
</g>
<defs>
<clipPath id="clip0">
<rect width="22" height="22" fill="white"/>
</clipPath>
</defs>
</svg>
