<svg width="27" height="27" viewBox="0 0 27 27" fill="none" xmlns="http://www.w3.org/2000/svg">
<path d="M8.43748 12.375H0.5625V25.875H8.43748V12.375Z" fill="#0277BD"/>
<path d="M8.4375 26.4375H0.562518C0.251859 26.4375 0 26.1857 0 25.875V12.375C0 12.0644 0.251859 11.8125 0.562518 11.8125H8.4375C8.74816 11.8125 9.00002 12.0644 9.00002 12.375V25.875C9.00002 26.1857 8.74816 26.4375 8.4375 26.4375ZM1.12498 25.3125H7.87498V12.9375H1.12498V25.3125Z" fill="#01579B"/>
<path d="M8.4375 23.6251C9.41783 24.3426 10.5978 24.7359 11.8125 24.7501H22.2187C23.3035 24.7538 24.186 23.8775 24.1898 22.7927C24.1917 22.2472 23.9668 21.7255 23.5687 21.3525C24.6429 21.2365 25.4197 20.2715 25.3036 19.1973C25.2532 18.7307 25.0368 18.2978 24.6938 17.9775C25.7681 17.8627 26.546 16.8987 26.4312 15.8243C26.3606 15.1647 25.9607 14.5858 25.3688 14.2864C26.4244 13.6308 26.7487 12.2436 26.0931 11.1879C25.6837 10.5288 24.9635 10.127 24.1875 10.125H16.3125C16.9305 8.50085 17.3094 6.79558 17.4375 5.06252C17.4375 2.95314 15.6093 1.125 14.625 1.125C14.0179 1.13386 13.4284 1.33035 12.9375 1.68752V5.62503L9.56248 12.9376L8.4375 13.5001V23.6251Z" fill="#ECEFF1"/>
<path d="M22.2188 25.3125H11.8125C10.4485 25.3016 9.1247 24.8493 8.03927 24.0232C7.93385 23.9176 7.87474 23.7743 7.875 23.625V13.5C7.875 13.2871 7.99518 13.0925 8.1855 12.9971L9.13388 12.5223L12.375 5.50234V1.68748C12.3746 1.51652 12.452 1.35462 12.5853 1.24763C13.1773 0.812566 13.8904 0.5731 14.6249 0.5625C15.9266 0.5625 17.9999 2.62236 17.9999 5.06248C17.9149 6.59758 17.6119 8.11274 17.0999 9.56246H24.1874C25.7407 9.56246 26.9999 10.8217 26.9999 12.3749C27.0018 13.073 26.7407 13.7461 26.2686 14.2605C27.2477 15.2461 27.2423 16.8389 26.2567 17.8179C26.0673 18.006 25.8491 18.1628 25.6105 18.2824C25.7856 18.6315 25.8761 19.0168 25.8749 19.4073C25.8738 20.3595 25.3364 21.2299 24.4855 21.6574C24.6606 22.0065 24.7511 22.3918 24.7498 22.7823C24.7475 24.1791 23.6155 25.3106 22.2188 25.3125ZM9.00004 23.3674C9.85186 23.8771 10.8203 24.1595 11.8125 24.1875H22.2188C22.9952 24.1869 23.6244 23.5576 23.625 22.7812C23.6251 22.3948 23.464 22.0259 23.1806 21.7631C22.9543 21.5503 22.9434 21.1942 23.1563 20.968C23.2474 20.871 23.3701 20.8095 23.5024 20.7945C24.2679 20.7136 24.8229 20.0273 24.742 19.2618C24.7067 18.9275 24.5517 18.6172 24.3056 18.3881C24.0793 18.1753 24.0684 17.8192 24.2812 17.593C24.3724 17.496 24.4951 17.4345 24.6273 17.4195C25.3929 17.3388 25.9481 16.6528 25.8674 15.8872C25.8176 15.4137 25.5294 14.9983 25.1032 14.7859C24.8272 14.6434 24.7188 14.3041 24.8613 14.028C24.9082 13.9371 24.979 13.8607 25.0661 13.8071C25.8571 13.3142 26.0987 12.2734 25.6058 11.4825C25.3002 10.9921 24.7651 10.6922 24.1874 10.6875H16.3125C16.0018 10.6873 15.7501 10.4354 15.7503 10.1247C15.7504 10.0564 15.7628 9.98861 15.7872 9.92475C16.3799 8.36418 16.7463 6.72683 16.875 5.06248C16.875 3.21973 15.2415 1.68748 14.625 1.68748C14.2304 1.69386 13.8437 1.79865 13.5 1.99234V5.62495C13.4999 5.70647 13.4823 5.78705 13.4483 5.8612L10.0733 13.1737C10.0197 13.2893 9.92848 13.3833 9.81452 13.4403L9.00004 13.8476V23.3674Z" fill="#01579B"/>
</svg>
