<svg width="264" height="13" viewBox="0 0 264 13" fill="none" xmlns="http://www.w3.org/2000/svg">
<path d="M53.2755 3.77664L55.7589 3.93369C56.5124 3.79662 57.849 3.75378 59.0687 3.68189C59.883 3.69456 60.6973 3.71388 61.5502 3.72367C62.4031 3.73346 63.7967 3.62534 64.8253 3.70751C64.9417 3.71661 65.5804 3.66798 65.9094 3.63574C67.1669 3.50334 67.1475 3.50367 68.2739 3.64182C68.4966 3.65852 68.7371 3.67224 68.9917 3.68274C69.7466 3.62769 70.5789 3.56244 71.4694 3.50507C72.36 3.44769 73.4057 3.40096 74.3544 3.3448C74.8444 3.40425 75.5301 3.43808 76.2874 3.44016C77.0446 3.44225 77.8234 3.41245 78.4827 3.35617C79.3343 3.28837 79.8202 3.37097 80.5961 3.40647C80.9054 3.35904 81.234 3.31128 81.6014 3.26064C82.8615 3.28342 84.0068 3.38799 85.4774 3.25416C85.8865 3.2384 86.3096 3.24068 86.6598 3.26053C87.3387 3.30135 88.1449 3.31408 88.9628 3.29689C89.7807 3.2797 90.5683 3.23347 91.2126 3.16484C91.8077 3.11724 92.4703 3.08466 93.1491 3.0696C93.5175 3.05483 93.8662 3.03167 94.1727 3.00159C94.4793 2.97152 94.737 2.93521 94.9291 2.89499C96.2279 2.91267 96.521 3.05178 97.4135 3.10968L99.9886 2.95915L101.541 3.04789C102.024 3.00191 102.411 2.94429 102.876 2.92525C103.416 2.91013 103.959 2.91481 104.426 2.93861C104.988 2.97626 105.509 3.02083 105.979 3.07168L106.193 3.08798L105.902 3.08187C106.088 3.05054 106.317 3.02257 106.579 2.99933C107.085 2.97609 107.578 2.94761 108.05 2.91427C108.415 2.86767 108.715 2.81526 108.939 2.75935C110.434 2.89342 110.705 2.89986 112.234 2.78055C112.436 2.75883 112.677 2.74284 112.932 2.7342C113.187 2.72555 113.447 2.72455 113.687 2.73128C114.23 2.75081 114.694 2.71404 115.198 2.67438C116.224 2.6169 117.289 2.56318 117.95 2.70264C118.125 2.73956 118.842 2.74945 119.346 2.75413C119.988 2.75387 120.636 2.74797 121.284 2.73648C121.634 2.77706 121.168 2.73847 121.284 2.73648L122.23 2.52293C122.774 2.57349 123.181 2.6153 123.609 2.65899C124.189 2.61135 124.575 2.52934 125.448 2.53659C126.32 2.54383 126.901 2.54053 127.657 2.54311L128.178 2.37898C128.768 2.42022 129.383 2.45707 130.021 2.48934C131.65 2.5568 131.96 2.54262 133.701 2.35981L134.962 2.41583L135.619 2.32254C136.085 2.36999 136.493 2.45613 137.558 2.37138C137.944 2.30046 137.188 2.28015 137.206 2.22219C138.6 2.11185 138.468 2.30703 139.476 2.32968L140.946 2.16925C141.16 2.23654 141.375 2.29939 141.569 2.35593C143.081 2.36552 142.981 2.18984 143.504 2.16758C144.628 2.12396 144.648 2.17904 144.862 2.21308C145.019 2.23626 145.253 2.25077 145.52 2.25394C145.788 2.2571 146.07 2.24872 146.316 2.23032C147.805 2.09172 149.473 2.16295 151.042 2.09396C151.507 2.07492 152.167 2.12793 152.807 2.14802L154.471 1.99313L157.244 2.09644L162.376 1.86666L165.537 1.96776L167.104 1.83671L169.045 1.96758C170.063 1.94256 171.073 1.9082 172.066 1.86485C172.862 1.80988 173.615 1.74568 174.311 1.67341C174.312 1.70666 174.448 1.73537 174.526 1.76508C174.702 1.83968 175.323 1.89114 175.904 1.86346C177.024 1.81219 178.189 1.78547 179.333 1.78479C180.05 1.77252 180.843 1.68576 181.733 1.62174C182.238 1.67296 182.685 1.72962 183.228 1.77575C183.403 1.79272 183.79 1.78609 184.081 1.79219C184.081 1.80328 184.082 1.81436 184.082 1.82323C184.082 1.83209 184.198 1.83232 184.276 1.83543L184.004 1.80239C184.003 1.74475 183.847 1.67425 184.699 1.67074C185.552 1.66723 186.153 1.6902 186.811 1.60133C186.965 1.57873 187.566 1.5884 187.973 1.58143L189.678 1.55224C190.067 1.61654 190.224 1.72916 191.348 1.74539C191.737 1.81191 192.241 1.8055 193.073 1.71587L191.251 1.74705C191.25 1.69163 191.249 1.63178 192.141 1.63425C192.543 1.63732 192.959 1.63019 193.362 1.61335C193.943 1.5901 194.231 1.46099 194.93 1.5089C195.628 1.55681 197.12 1.50689 197.471 1.64057C197.471 1.65609 197.781 1.66408 197.956 1.67661C198.828 1.66168 198.845 1.53278 199.891 1.52152C200.938 1.51026 200.373 1.34697 201.302 1.29336C201.303 1.37095 201.479 1.44555 201.597 1.5411L203.532 1.36162C204.54 1.37097 203.709 1.52268 204.717 1.52316L204.717 1.51207C204.853 1.56295 204.719 1.65838 205.475 1.62993C206.714 1.57988 207.82 1.62747 209.002 1.59837C209.316 1.58545 209.626 1.57052 209.931 1.55364C209.929 1.43393 208.651 1.49794 208.359 1.42533C208.668 1.35574 209.035 1.29402 209.849 1.29782C210.993 1.30263 212.213 1.28839 212.894 1.40535C213.207 1.44025 213.574 1.46838 213.981 1.48874L215.914 1.18956L219.017 1.33156C219.171 1.30684 219.339 1.28321 219.52 1.26086C220.274 1.17699 221.01 1.17769 221.245 1.26459C221.377 1.32203 221.469 1.38126 221.519 1.44172C222.164 1.43457 222.811 1.4235 223.456 1.40855C224.638 1.38832 225.49 1.31165 225.276 1.27318C224.868 1.20035 224.132 1.24842 223.531 1.24762C223.421 1.24882 223.315 1.24684 223.221 1.24185C223.105 1.22716 223.013 1.21001 222.949 1.19107C222.949 1.19107 223.103 1.1596 223.123 1.16149C224.228 1.18691 224.71 1.02788 225.737 1.0236C226.144 1.06983 226.552 1.11607 226.979 1.15976L230.853 0.993665C231.627 0.962662 232.557 0.942307 233.004 1.00561C233.451 1.06892 233.839 1.06672 234.574 1.02308C235.31 0.979436 235.312 1.07254 235.758 1.1159C236.203 1.08389 236.687 1.05121 237.113 1.01509C237.696 0.967332 238.34 0.932502 239.006 0.912713C239.672 0.892924 240.346 0.888589 240.987 0.89998C242.816 0.917352 244.702 0.89855 246.568 0.844348C247.79 0.82316 249.009 0.814902 250.211 0.819674L249.012 0.946647L252.888 0.926855C252.384 0.953213 251.88 0.964051 251.745 0.990757C250.972 1.14146 250.258 1.29561 249.602 1.45098C249.523 1.47066 249.479 1.49145 249.472 1.51199C249.465 1.53254 249.495 1.55239 249.561 1.57027C249.628 1.58815 249.728 1.60366 249.855 1.6158C249.983 1.62794 250.135 1.63645 250.303 1.64076C250.477 1.63778 250.845 1.63148 250.923 1.64789C252.38 1.86242 254.957 1.8183 257.322 1.86872L255.891 2.01962C255.659 2.08345 256.202 2.09411 256.358 2.12915C256.493 2.16592 256.578 2.20552 256.612 2.24675L252.934 2.53145C252.936 2.60239 253.265 2.61448 253.75 2.61506C255.054 2.60885 256.348 2.61187 257.626 2.62409C259.155 2.65257 260.737 2.65826 262.336 2.64102C262.647 2.70665 262.454 2.741 261.989 2.77334C261.525 2.80569 260.886 2.85876 260.247 2.90739L262.867 3.08428C262.345 3.19964 261.901 3.29816 261.457 3.39224C261.478 3.41535 261.524 3.43765 261.594 3.45864C261.938 3.50774 262.182 3.5658 262.313 3.62943C262.444 3.69306 262.458 3.76098 262.356 3.8292C262.145 3.95034 262.36 4.07305 262.188 4.19795C262.15 4.22734 262.171 4.25635 262.249 4.28272C262.327 4.30908 262.459 4.33209 262.637 4.34993C263.335 4.40006 263.298 4.48274 263.435 4.55801C263.572 4.63327 263.436 4.63781 262.198 4.76766C260.801 4.65854 260.507 4.45957 259.399 4.31444C258.365 4.37234 257.292 4.41676 256.204 4.44676C255.165 4.45086 254.113 4.4779 253.104 4.52643C252.874 4.67672 253.941 4.73384 254.64 4.82609C253.827 4.84002 252.974 4.8391 252.703 4.87699C251.852 4.98691 250.146 4.9496 249.645 5.13335L256.293 5.13928L255.116 5.41444L256.068 5.56222L253.433 5.60733C252.85 5.54856 252.733 5.49071 253.43 5.43L253.643 5.44408L253.352 5.43797C252.788 5.3035 251.412 5.29158 250.268 5.25795C249.124 5.22432 248.329 5.22018 247.302 5.20451C246.489 5.29382 246.626 5.35578 247.441 5.39949L246.687 5.52326L247.986 5.54981C247.233 5.7157 247.023 5.89447 245.727 6.03197C245.456 6.061 244.661 6.05021 244.719 6.02483C244.872 5.9335 244.271 5.90832 243.766 5.85266C241.366 6.02237 238.615 6.10272 236.176 6.27974C235.252 6.36467 234.163 6.41813 233.058 6.43289C232.734 6.44133 232.421 6.45889 232.148 6.48395C231.942 6.5002 231.77 6.52203 231.65 6.54711C231.53 6.5722 231.467 6.59961 231.468 6.62643C231.468 6.65326 231.532 6.6785 231.653 6.69947C231.773 6.72044 231.946 6.73635 232.153 6.74553C232.622 6.76896 233.133 6.78269 233.665 6.78616C234.341 6.78468 234.988 6.80096 235.559 6.83379C236.13 6.86663 236.61 6.91517 236.963 6.97583L235.415 7.13537C236.231 7.24558 237.799 7.13448 238.673 7.22152C239.043 7.32827 237.281 7.40501 237.922 7.51598C238.219 7.59299 238.301 7.6817 238.159 7.77136C236.862 7.8756 236.975 7.65194 235.891 7.72372C235.891 7.74145 235.891 7.76362 235.892 7.77692C236.144 7.82581 236.436 7.87403 237.056 7.86785C238.05 7.85749 239.046 7.84043 240.04 7.81677C240.699 7.80549 240.93 7.7461 240.735 7.65631C240.483 7.68279 240.329 7.70982 240.135 7.71757C239.941 7.72532 239.399 7.73018 239.321 7.73151C238.641 7.62563 239.046 7.51447 240.247 7.49391C241.449 7.47334 242.824 7.43427 244.509 7.39433C245.363 7.45511 247.03 7.43545 248.388 7.53637L245.774 7.6543C246.3 7.8249 247.831 7.84081 249.034 7.91113C248.88 7.95369 248.823 8.01675 248.552 8.03691C247.584 8.10448 246.616 8.15654 245.473 8.21823L247.299 8.46636C248.308 8.52005 249.682 8.42556 250.653 8.491C250.653 8.51095 250.653 8.53311 250.653 8.53311L246.974 8.72471C247.002 8.70366 247.002 8.68272 246.973 8.66264C246.907 8.64787 246.815 8.63515 246.701 8.62516C246.702 8.6429 246.566 8.66517 246.702 8.67615C246.838 8.68713 246.974 8.70032 247.129 8.71319L245.721 9.08987C245.158 9.04407 244.402 9.01489 244.11 8.95115C243.585 8.84927 242.423 8.92902 241.744 8.86526C241.064 8.8015 240.252 8.8908 239.671 8.94065C238.627 9.04058 237.269 9.00395 236.244 9.0969C233.744 9.11753 231.305 9.29233 228.766 9.26928C227.636 9.337 226.4 9.3636 225.24 9.34516C224.251 9.32661 223.148 9.44971 222.255 9.33862C221.946 9.42373 221.792 9.4685 221.618 9.5136L221.715 9.51194L219.331 9.51949L217.939 9.67638C216.892 9.65661 216.463 9.5176 215.165 9.54869L212.085 9.62581C211.873 9.68045 211.641 9.7465 211.39 9.81066C209.938 9.85992 209.141 9.72279 207.706 9.71852L206.779 9.90735C205.966 9.94566 205.189 9.83258 204.338 9.94914C204.241 9.96188 203.718 9.95976 203.446 9.94223C203.175 9.92471 203 9.89887 202.748 9.88324C201.914 9.83321 201.662 9.8464 200.676 9.97858L200.016 9.91006L199.569 9.8667L200.129 9.76398L198.673 9.60708L199.059 9.48074C198.845 9.46887 198.69 9.45158 198.535 9.45423C196.597 9.4874 194.795 9.51825 192.916 9.55043C192.567 9.5564 191.948 9.61578 191.968 9.63983C191.97 9.75511 191.272 9.74266 190.652 9.76436C190.032 9.78606 189.837 9.69184 189.158 9.67241C187.728 9.87652 188.991 10.0833 188.142 10.304C187.947 10.232 187.771 10.1729 187.635 10.1109C187.5 10.033 187.324 9.95682 187.107 9.8827C186.833 9.81076 186.508 9.74219 186.135 9.67761C186.063 9.66603 185.964 9.65718 185.847 9.65188C185.73 9.64658 185.599 9.64499 185.466 9.64727C185.333 9.64955 185.202 9.65562 185.085 9.66492C184.968 9.67422 184.87 9.68645 184.798 9.7005C184.643 9.71867 184.586 9.74405 184.45 9.76411C184.319 9.78444 184.177 9.80391 184.025 9.82238C183.208 9.68114 182.086 9.76024 180.827 9.8084C180.286 9.91079 181.062 9.95516 181.296 10.0221C183.001 10.0129 183.001 10.0129 182.945 10.1602C182.946 10.2067 182.947 10.2533 182.948 10.2998C182.949 10.3464 182.735 10.3389 182.619 10.3587C181.458 10.4229 181.416 10.2551 180.486 10.271L180.486 10.2821C180.292 10.25 180.116 10.1931 179.903 10.1945C179.782 10.1943 179.658 10.1976 179.542 10.2042C179.427 10.2108 179.323 10.2204 179.24 10.2321C179.158 10.2439 179.099 10.2574 179.069 10.2716C179.04 10.2857 179.041 10.2999 179.072 10.313C179.082 10.3342 179.082 10.3557 179.073 10.3773C178.047 10.4237 177.425 10.3678 176.746 10.3107C176.456 10.3622 176.283 10.425 175.876 10.4564C175.294 10.4872 174.686 10.508 174.075 10.5183C173.913 10.4736 173.675 10.4341 173.375 10.4016C172.929 10.3768 172.446 10.3597 171.94 10.3508C172.422 10.1763 172.422 10.1763 171.316 10.1131C170.76 10.2495 170.415 10.393 170.296 10.5364L167.641 10.553L166.113 10.7233L164.174 10.6589C163.186 10.718 162.781 10.8269 162.027 10.9174C161.755 10.8999 161.426 10.89 161.29 10.8658C160.901 10.7926 160.57 10.7118 160.2 10.6338C159.639 10.6656 158.923 10.7333 158.593 10.719C157.525 10.6842 156.322 10.6993 155.222 10.7612L153.869 10.9928C152.551 10.9821 153.613 10.7577 152.043 10.7602L150.942 10.9476L150.282 10.8857C150.154 10.8703 150.038 10.8538 149.932 10.8362C148.965 10.9548 148.965 10.9548 147.822 10.9589C147.701 10.9793 147.591 11.0004 147.493 11.0221C147.494 11.0421 147.32 11.0672 147.242 11.0885C146.331 11.0465 145.458 11.0015 144.527 10.962C144.31 10.9487 144.065 10.941 143.807 10.9395C143.549 10.938 143.283 10.9427 143.026 10.9533C142.768 10.964 142.525 10.9803 142.31 11.0013C142.096 11.0223 141.914 11.0476 141.777 11.0757C141.371 11.1513 140.345 11.1955 139.59 11.2528C139.065 11.2581 138.566 11.2427 138.175 11.2091C137.784 11.1755 137.523 11.1258 137.435 11.0679C136.608 11.0952 135.771 11.114 134.936 11.124C134.396 11.1272 133.851 11.1452 133.346 11.1766C132.841 11.208 132.391 11.2519 132.032 11.3046L130.828 11.1678L129.88 11.2705C128.858 11.2233 127.686 11.217 126.527 11.2525C126.162 11.2708 125.779 11.28 125.403 11.2796C125.028 11.2791 124.671 11.2689 124.357 11.2497C124.24 11.2384 123.872 11.2314 123.775 11.2419C121.976 11.4169 120.075 11.3408 118.176 11.3533C117.848 11.4365 117.558 11.5147 117.211 11.5916C117.146 11.6024 117.062 11.6116 116.967 11.6186C116.871 11.6257 116.766 11.6303 116.659 11.6321C116.553 11.6339 116.447 11.6329 116.351 11.6292C116.256 11.6254 116.172 11.619 116.106 11.6105C115.853 11.5505 115.678 11.4892 115.464 11.4264C114.476 11.4433 113.527 11.5061 112.616 11.4751C112.461 11.4778 111.977 11.5304 111.629 11.5608C110.337 11.5506 108.993 11.5844 107.754 11.6581C107.085 11.7076 106.316 11.7286 105.598 11.7171C104.88 11.7055 104.266 11.6623 103.877 11.5959C103.877 11.5959 103.683 11.5992 103.567 11.5857C102.617 11.5754 102.483 11.7107 101.418 11.7378C100.353 11.7649 99.3425 11.6358 97.9095 11.7047L95.834 11.5983C94.8269 11.6422 95.0027 11.719 94.9069 11.7872L91.5356 11.8449L90.6426 11.7537C90.2168 11.7876 89.7913 11.8437 89.3845 11.8507C88.8543 11.8463 88.3489 11.831 87.8914 11.8053L87.195 11.8815L84.2861 11.7805C83.5308 11.8112 84.1135 11.8877 83.4548 11.899C81.7748 11.896 80.1257 11.8737 78.5309 11.8325L75.8997 12.0993C75.5154 12.0532 75.1003 12.0106 74.6572 11.972C74.1964 11.9441 73.7097 11.9213 73.2024 11.9038C73.5439 11.8663 73.93 11.8349 74.3443 11.811C75.4096 11.7728 76.5138 11.7451 77.5987 11.7176C77.9982 11.71 78.3856 11.6884 78.7077 11.6559C79.0298 11.6234 79.2709 11.5815 79.398 11.536C78.7811 11.486 78.1332 11.4409 77.4576 11.4007C76.6096 11.3655 75.6442 11.3649 74.7055 11.3991C73.7523 11.4213 72.8111 11.4044 72.0495 11.3514C72.3317 11.3337 72.6037 11.3135 72.8625 11.2909C72.9393 11.283 72.9995 11.2732 73.0367 11.2624C73.074 11.2516 73.0871 11.2403 73.0746 11.2296C73.0744 11.2163 72.7448 11.2087 72.5704 11.2139C72.4795 11.2169 72.3931 11.2224 72.3189 11.2299C72.2447 11.2373 72.1849 11.2465 72.1448 11.2566C72.1161 11.2911 72.1167 11.3252 72.1465 11.3586C71.1972 11.3749 70.3455 11.436 69.279 11.4077C68.2231 11.3839 67.069 11.4084 66.0436 11.4764C64.6807 11.5103 63.3116 11.518 61.9934 11.4992C61.4911 11.4854 60.9719 11.4772 60.4425 11.4747C59.3184 11.4696 58.2155 11.5749 57.2658 11.5779C56.3162 11.5809 55.3271 11.5357 54.1268 11.6117C53.4175 11.6515 52.6476 11.6647 51.9374 11.6492C50.7336 11.6194 49.458 11.6171 48.1774 11.6426C46.8709 11.6464 45.5761 11.6404 44.3009 11.6247C42.77 11.6332 41.2009 11.6778 39.67 11.6885C38.4494 11.7094 37.2669 11.6986 36.0654 11.7014C34.8638 11.7042 33.2358 11.701 31.8211 11.7097C31.4094 11.7218 31.0093 11.7422 30.6399 11.7699L28.7034 11.8607C28.0238 11.7836 28.7965 11.6373 27.7491 11.591C27.9425 11.5633 28.1358 11.5334 28.4258 11.4951C28.7366 11.5342 28.9697 11.5679 29.2416 11.5965C29.5134 11.6251 30.231 11.6571 30.6564 11.5966C30.8481 11.5634 31.1087 11.5356 31.4094 11.5163C31.71 11.4971 32.039 11.4872 32.36 11.4876C33.4517 11.4822 34.554 11.4589 35.6342 11.4183C38.0557 11.3547 40.4395 11.3538 42.8613 11.3079C43.6944 11.2936 44.3526 11.2468 44.4283 11.1413C44.4279 11.1192 44.7569 11.0914 44.9116 11.0688C45.1008 11.0879 45.27 11.1095 45.4166 11.1333C45.5655 11.1599 45.6956 11.1881 45.8056 11.2175C47.1815 11.2051 47.6444 11.0752 48.6505 10.9759C46.7104 10.8583 44.1349 10.9867 42.5623 10.8207C42.2659 10.8688 41.8747 10.9086 41.429 10.9361C40.9832 10.9636 40.4989 10.9778 40.0261 10.9772C37.8745 10.9631 35.6654 10.9765 33.5139 10.9645C31.5166 10.9291 29.4032 10.9516 27.3519 11.0301C27.2442 11.0354 27.1304 11.0373 27.0226 11.0358C25.6259 10.9621 23.9997 11.0698 22.3135 11.0632L23.9203 10.9603C23.9199 10.9337 23.9193 10.8982 23.7642 10.8964C22.5234 10.8733 21.2827 10.8546 20.0227 10.8363C19.9229 10.8335 19.8123 10.8354 19.7127 10.8416C17.9513 10.9738 16.631 10.8345 15.0999 10.8341C14.6737 10.8414 14.3622 10.7602 14.6137 10.7338C14.8652 10.7073 15.1949 10.7238 15.4853 10.7011C15.6733 10.6921 15.8551 10.6808 16.0273 10.6674C15.6518 10.5436 15.203 10.4239 14.6839 10.309C14.1803 10.2408 13.6004 10.1808 12.956 10.1302C12.5483 10.0884 12.1599 10.0418 11.6938 9.98992L13.2223 9.83514C14.464 9.91367 16.2465 9.88316 17.3923 10.0188L16.3276 10.0902C16.153 10.1043 15.9907 10.1204 15.8439 10.1384C15.8446 10.1827 16.0585 10.2234 16.1952 10.2809L18.4997 10.1772L20.7864 10.1624C21.464 10.122 21.9848 9.97561 22.8784 10.0978C24.06 10.062 25.0503 10.1715 26.2892 10.086C26.2889 10.0682 26.1722 10.0458 26.0364 10.0349C25.9005 10.0239 26.035 9.95505 26.1901 9.95683C27.7986 9.95368 29.4048 9.81088 30.8791 9.88764C31.8081 9.81408 31.3594 9.64659 32.8128 9.63279C32.8141 9.70816 32.8154 9.78575 32.8174 9.90102C33.2621 9.84019 33.6297 9.80729 33.61 9.78767C33.6319 9.75175 33.5477 9.71782 33.3712 9.69144C33.1947 9.66505 32.9364 9.64777 32.6385 9.64243C32.4443 9.61914 32.2691 9.57558 32.0754 9.5789C28.7622 9.63562 25.525 9.59569 22.1733 9.66859C20.5071 9.69712 18.6093 9.78948 17.1149 9.66428C16.9596 9.65142 16.4949 9.6749 16.1655 9.68054C15.3128 9.68405 14.46 9.68313 13.646 9.68376C13.3716 9.50441 13.3909 9.49522 14.1076 9.47186C14.8243 9.4485 14.941 9.47755 15.2528 9.57643L19.2425 9.41721C16.2176 9.32708 13.0596 9.3878 10.2095 9.32351C10.0545 9.32616 9.80279 9.34155 9.41552 9.36149L10.7169 9.52769C10.7184 9.61858 10.0406 9.64792 9.16914 9.68723C7.91345 9.63098 6.7895 9.54733 5.8508 9.44026C5.44279 9.38072 4.66714 9.35631 4.14302 9.30763C3.76682 9.26253 3.44703 9.21141 3.19076 9.1554L5.86453 9.10963C5.70865 9.0613 5.70797 9.0214 5.51395 9.0092C4.34974 8.92935 3.12751 8.85714 1.96326 8.77507C1.48433 8.75214 1.07426 8.71584 0.76482 8.66898C0.45538 8.62213 0.254883 8.56597 0.178873 8.50488C0.102863 8.44379 0.153382 8.37939 0.326509 8.31668C0.499636 8.25397 0.790726 8.19463 1.17722 8.14326C1.73796 8.06714 2.9391 8.03992 3.11473 8.11009C3.62159 8.28324 4.70697 8.28683 6.19821 8.2236L7.4571 8.17322C7.45459 8.02692 7.45433 8.01141 6.40807 8.02932C5.36181 8.04723 4.9739 8.02948 4.8371 7.96308C4.4852 7.78506 3.18566 7.72527 1.8087 7.67123C1.44023 7.65758 1.05242 7.64648 0.742194 7.63849L2.56269 7.56298C2.20003 7.3029 1.49025 7.05642 0.457054 6.8318C0.301142 6.78125 0.222692 6.72716 0.105531 6.67595L2.04042 6.48982C2.14118 6.52119 2.29261 6.54938 2.4876 6.57308C3.06988 6.62298 4.03678 6.49777 4.56154 6.58414C4.79658 6.61263 5.09371 6.63346 5.42997 6.64501C5.76623 6.65655 6.1326 6.65851 6.50076 6.65072C7.27576 6.63745 8.05099 6.63748 8.82603 6.62643C9.60108 6.61538 10.376 6.5999 11.1509 6.57554L14.3671 6.52048L11.9825 6.47704C12.118 6.46364 12.1953 6.45123 12.3115 6.44702L15.4874 6.29952C15.4995 6.31035 15.5328 6.32038 15.5848 6.32889C15.5848 6.32889 15.7205 6.32657 15.7786 6.32558L15.41 6.30306C15.4084 6.21217 14.5565 6.26002 14.0911 6.24581C14.1873 6.20425 14.1861 6.13775 14.4184 6.12047C14.9662 6.07351 15.6006 6.04488 16.2388 6.0383C16.7157 6.04596 17.2181 6.04018 17.7058 6.02144C18.1934 6.00269 18.6529 5.9715 19.0472 5.93035C19.0458 5.84833 18.0967 5.8801 17.7084 5.84019C17.2959 5.80422 16.8399 5.7748 16.3502 5.75257L15.6941 5.9168C14.995 5.83786 14.3542 5.76679 13.7521 5.6884C14.0992 5.58711 14.4657 5.48769 14.8128 5.3864C15.2391 5.37911 15.7041 5.37115 15.8793 5.41472C15.8987 5.43502 15.8991 5.45583 15.8803 5.47678C16.8049 5.45039 17.739 5.44419 18.6321 5.4585C18.6321 5.4585 19.0379 5.39168 18.9603 5.38192C18.5135 5.32527 18.6485 5.28526 18.9573 5.2068C19.6332 5.06883 19.7661 4.90691 20.8882 4.78791C21.2704 4.73871 21.7159 4.69655 22.2039 4.66339C23.836 4.56682 25.5435 4.49505 27.278 4.45012C28.6862 4.42384 30.0808 4.37073 31.4035 4.29301C31.8306 4.27203 32.2637 4.25352 32.701 4.23754L34.1951 4.34278C35.4744 4.34971 35.0837 4.17014 36.6726 4.15181C36.6155 4.18348 36.6161 4.21521 36.6742 4.24491C36.7136 4.25834 36.7875 4.2696 36.887 4.27737C36.9865 4.28514 37.1076 4.2891 37.2359 4.28877C37.3643 4.28844 37.4945 4.28383 37.6113 4.2755C37.7281 4.26717 37.8266 4.25546 37.8951 4.24175C38.0111 4.22202 38.1657 4.19498 38.146 4.17758C38.0283 4.09533 38.5512 4.07308 39.1324 4.05869C39.7825 4.04482 40.4229 4.05568 40.9547 4.08958C42.2932 4.16201 42.5837 4.15039 43.8025 4.02309C43.9357 4.00252 44.0584 3.98116 44.1697 3.95915C44.2696 3.95145 44.3731 3.94449 44.4794 3.93832C45.235 3.92538 44.9072 4.02191 45.1986 4.05905C45.4899 4.0962 45.684 4.11505 45.9365 4.14399C46.8072 4.06034 45.371 3.94301 46.9013 3.89464L47.9695 4.03157C48.2428 4.03614 48.5349 4.02986 48.8008 4.01369C49.0667 3.99752 49.2916 3.97235 49.441 3.94207C49.6721 3.89805 49.9847 3.85966 50.3521 3.8302C50.7196 3.80073 51.1308 3.78108 51.5506 3.77291C51.6001 3.78161 51.6332 3.79158 51.648 3.80229C51.6485 3.83332 51.6493 3.87987 51.6495 3.89096C51.7371 3.89668 51.8364 3.90014 51.9415 3.90114C52.0466 3.90214 52.1555 3.90066 52.2619 3.89677C52.3682 3.89289 52.4699 3.88668 52.5609 3.87852C52.652 3.87036 52.7306 3.86039 52.7922 3.84922C52.9361 3.81668 53.0462 3.78276 53.12 3.74826L53.2755 3.77664ZM230.502 1.99751L230.347 2.01789L230.347 1.99129L230.928 1.96804L230.675 1.93688L230.502 1.99751ZM123.307 8.79528C123.307 8.79528 123.306 8.77755 123.306 8.76868C123.306 8.75982 123.306 8.76868 123.151 8.77134L123.423 8.79329C123.407 8.80308 123.408 8.81286 123.423 8.82211C123.423 8.82211 123.54 8.82012 123.598 8.81913L123.307 8.79528ZM239.909 5.82114C239.424 5.82943 239.25 5.85901 239.251 5.90334C239.251 5.90334 238.903 5.9337 239.154 5.905L239.812 5.82279L240.508 5.73991C241.128 5.74703 241.749 5.75637 242.213 5.67747C241.514 5.63621 240.874 5.61834 240.586 5.74524L239.909 5.82114ZM21.4618 8.85812L21.3059 8.81422L21.0545 8.84514L21.5391 8.85014C21.5204 8.8592 21.5206 8.86833 21.5396 8.87674C21.5396 8.87674 21.6558 8.87475 21.714 8.87376L21.4618 8.85812ZM178.054 9.74056C177.9 9.76095 177.687 9.7779 177.609 9.79696C177.532 9.81602 177.765 9.82313 177.862 9.83477C177.92 9.82453 177.96 9.81325 177.978 9.80174C177.996 9.77856 177.996 9.75555 177.977 9.73302C177.977 9.73302 178.306 9.703 178.054 9.74056ZM214.028 8.77655C213.886 8.76562 213.722 8.75854 213.546 8.75575C213.37 8.75297 213.185 8.75453 213.004 8.76034C212.822 8.76616 212.647 8.77609 212.49 8.78954C212.333 8.80299 212.197 8.81967 212.091 8.83854C212.944 8.87271 213.642 8.89623 214.028 8.7699C214.182 8.74507 214.337 8.72026 214.144 8.75017C214.221 8.7156 214.105 8.7464 214.028 8.77655ZM5.48592 8.50411C5.21391 8.46442 4.92257 8.42727 4.28433 8.50472L5.56327 8.49391C5.79691 8.55644 6.06923 8.61386 6.84442 8.61168C7.61961 8.60949 7.92943 8.5931 8.16079 8.52261L8.87767 8.51034C8.76282 8.59435 9.13171 8.63239 9.88764 8.63719C10.6436 8.64198 11.4563 8.56598 11.9425 8.66409C11.7498 8.72948 11.5378 8.79741 11.3645 8.86468C11.1912 8.93196 11.1138 8.93772 11.2304 8.96011C11.4228 8.99412 11.7062 9.01932 12.0457 9.03263C12.0457 9.03263 12.6457 8.98466 12.7033 8.95707C12.8294 8.86906 12.912 8.78102 12.9508 8.6934L15.138 8.52956L11.9593 8.51524L8.78091 8.51865L9.10846 8.40661C9.53342 8.40491 9.96245 8.39756 10.3872 8.38472C11.8396 8.31436 13.3653 8.28216 14.8432 8.29069C16.2392 8.30209 17.6973 8.25841 18.9885 8.1665C16.6035 8.13399 14.1738 8.12297 11.7202 8.1335C8.32898 8.1583 8.23229 8.17104 8.23848 8.53238L5.48592 8.50411ZM255.828 3.99641C256.041 3.99276 256.293 3.98845 256.448 3.98579C256.603 3.98314 256.99 3.9366 256.989 3.91665C256.989 3.8967 256.659 3.86909 256.426 3.86642C256.106 3.87051 255.785 3.88049 255.477 3.89597C255.652 3.93732 255.789 3.9749 255.925 4.01026C255.836 4.01487 255.751 4.02079 255.673 4.02787C255.673 4.02787 255.673 4.03896 255.674 4.04339L255.828 3.99641ZM175.48 9.92877C175.48 9.95094 175.481 10.0041 175.906 9.94807L175.422 9.9342C175.523 9.89063 175.568 9.84649 175.555 9.8033C175.555 9.78114 175.206 9.76494 174.973 9.75784C174.74 9.75073 174.586 9.78442 174.509 9.80348C174.064 9.87539 174.336 9.90622 175.48 9.92877ZM149.548 9.89378C149.196 9.87312 148.81 9.85953 148.404 9.8535C148.302 9.85229 148.197 9.85372 148.094 9.8577C147.991 9.86167 147.894 9.8681 147.809 9.87652C147.725 9.88494 147.654 9.89516 147.603 9.90646C147.552 9.91775 147.521 9.92985 147.514 9.94191C147.507 9.95836 147.533 9.97422 147.591 9.98823C147.648 10.0022 147.735 10.0141 147.844 10.0227C147.985 10.0274 148.137 10.0285 148.29 10.0258C148.444 10.0232 148.595 10.017 148.736 10.0075C149.021 9.97079 149.263 9.93001 149.451 9.88657L149.935 9.84946L149.682 9.83826L149.548 9.89378ZM88.1939 11.3611L87.4951 11.3021C87.494 11.2333 87.7254 11.1673 88.5388 11.1312C88.9454 11.1109 88.8861 11.0388 88.5368 11.0181C88.0567 10.9899 87.4936 10.9801 86.9181 10.99C86.3425 10.9999 85.7801 11.0289 85.3012 11.0735L85.4788 11.259L85.4786 11.2479C82.9986 11.2903 82.9986 11.2903 82.9064 11.5624C83.7557 11.5731 84.6519 11.5521 85.4706 11.5023C86.2894 11.4525 86.99 11.3764 87.4755 11.2847L88.1549 11.3462C88.1083 11.3808 88.1089 11.4152 88.1566 11.4482C88.1571 11.477 88.4677 11.5094 88.7003 11.5098C88.8396 11.5063 88.9742 11.4989 89.0923 11.4884C89.2104 11.4779 89.3084 11.4645 89.3776 11.4494C89.4814 11.3841 89.5258 11.3187 89.5099 11.2543L88.1939 11.3611ZM19.6282 10.4373L18.5035 10.3989C18.403 10.4157 18.3302 10.4343 18.2896 10.4535C18.2489 10.4727 18.2411 10.492 18.2668 10.5104C18.2924 10.5288 18.3509 10.5458 18.4388 10.5605C18.5266 10.5752 18.6421 10.5873 18.7782 10.5959C18.9984 10.616 19.2811 10.6261 19.5824 10.6245C19.8838 10.623 20.1869 10.6099 20.4448 10.5874L19.4342 10.4273C19.6474 10.4236 20.1318 10.4153 19.7242 10.3802L19.6282 10.4373ZM195.324 1.91237C194.259 1.96829 194.435 2.07171 194.166 2.16724L196.105 2.24269C195.812 2.12353 195.113 2.03793 195.285 1.90416C195.479 1.90084 195.964 1.90807 195.633 1.85829L195.324 1.91237ZM110.19 10.1396C109.414 10.113 108.657 10.0816 107.843 10.0623C107.649 10.0656 107.281 10.0852 107.049 10.1047C106.817 10.1242 107.05 10.1535 107.147 10.1673C108.002 10.2658 108.951 10.2518 110.112 10.1277C110.391 10.1387 110.683 10.1463 110.984 10.1504C111.12 10.1481 111.313 10.1293 111.449 10.1137C111.584 10.098 111.448 10.0848 111.448 10.0848C111.298 10.0743 111.114 10.0704 110.925 10.0738C110.629 10.0896 110.344 10.1086 110.073 10.1305L110.19 10.1396ZM103.521 10.0498C103.53 10.0408 103.53 10.0319 103.521 10.0232C103.521 10.0232 103.385 10.0255 103.327 10.0265L103.599 10.0507C103.381 10.1377 103.298 10.2263 103.351 10.3122C103.819 10.3228 104.325 10.3161 104.803 10.2928C105.28 10.2696 105.706 10.231 106.023 10.1821C105.639 10.1345 105.203 10.0929 104.723 10.0581C104.315 10.0229 103.773 10.0477 103.405 10.0407L103.521 10.0498ZM125.526 10.5024L127.966 10.3653C127.17 10.2946 126.606 10.2156 125.25 10.2455C125.251 10.2632 124.941 10.2951 124.786 10.3266C124.661 10.3575 124.551 10.389 124.459 10.4209L125.623 10.5118C125.308 10.5128 124.989 10.5182 124.674 10.5281C124.418 10.5435 124.197 10.5665 124.035 10.5944C124.035 10.5944 124.249 10.6351 124.385 10.635C124.67 10.6371 124.967 10.6265 125.218 10.6052C125.314 10.5659 125.313 10.526 125.41 10.4933L125.526 10.5024ZM82.3391 11.2551L80.4007 11.2395C80.0346 11.361 81.3341 11.4231 80.5222 11.5456C80.2516 11.5857 80.7948 11.6163 81.2792 11.6125C81.7637 11.6086 82.4605 11.5568 82.3821 11.5049C82.3037 11.453 81.6429 11.3468 82.3776 11.2433C82.7854 11.2304 83.1833 11.2109 83.5589 11.1854C83.8374 11.1523 84.0498 11.1129 84.1771 11.0706C84.1771 11.0706 83.9246 11.0394 83.7695 11.0399C83.227 11.0492 82.6652 11.0588 82.4724 11.122C82.3317 11.1624 82.2472 11.2043 82.2226 11.246L82.3391 11.2551ZM248.016 5.0548L248.249 5.06634L247.939 5.07165C247.926 5.02736 247.893 4.98352 247.84 4.9403C247.839 4.88932 247.547 4.84553 247.43 4.8054C246.917 4.8011 246.382 4.81345 245.884 4.84113C245.386 4.86881 244.943 4.91075 244.604 4.96245C244.76 5.02408 244.974 5.07806 245.788 5.073L248.016 5.0548ZM207.985 2.24773L208.993 2.23048L210.15 1.90023C211.429 1.87834 211.429 1.87834 212.28 1.78173C210.555 1.77356 209.004 1.76685 207.767 1.95433C207.866 2.05908 207.965 2.15939 208.044 2.26003C207.851 2.26015 207.655 2.2635 207.463 2.26999C207.293 2.281 207.136 2.29492 206.998 2.3112C206.998 2.3112 207.134 2.32883 207.212 2.32972C207.389 2.33235 207.577 2.32914 207.754 2.32043C207.773 2.28019 207.792 2.25992 207.869 2.23864L207.985 2.24773ZM32.9208 10.2829C32.9318 10.2738 32.9316 10.2649 32.9203 10.2563C32.9203 10.2563 32.8041 10.2582 32.746 10.2592L33.0564 10.2783C32.6886 10.3046 32.3019 10.3555 31.9724 10.3568C29.7057 10.3814 27.4547 10.3821 25.2473 10.3588C25.0536 10.3621 24.7632 10.3826 24.2211 10.4141L26.2968 10.5315L22.3044 10.5334C22.13 10.5363 21.7818 10.5711 21.8013 10.5774C21.8208 10.5838 22.0351 10.6488 22.2289 10.65C23.8376 10.6557 25.4656 10.6544 27.0741 10.6535C27.0974 10.674 27.1301 10.6941 27.1721 10.7139C27.1721 10.7139 27.3661 10.7239 27.4824 10.7263C27.5987 10.7288 27.482 10.7042 27.4819 10.6975C27.3461 10.6841 27.1966 10.6725 27.0356 10.663C27.0346 10.6076 27.1499 10.5524 27.1878 10.5008C28.195 10.4658 28.5061 10.5247 28.8945 10.5713C28.9982 10.587 29.1327 10.5995 29.2894 10.608C29.4461 10.6165 29.6214 10.6208 29.8041 10.6206C29.9868 10.6204 30.1727 10.6157 30.3499 10.6068C30.527 10.598 30.6915 10.5852 30.8326 10.5692L30.2107 10.469C31.2379 10.4735 32.0521 10.4818 32.8855 10.483C33.0156 10.4832 33.1488 10.4792 33.2707 10.4714C33.3925 10.4636 33.4981 10.4523 33.576 10.4388C33.6539 10.4254 33.7009 10.4102 33.7121 10.395C33.7232 10.3798 33.698 10.3651 33.6391 10.3526C33.3089 10.3117 32.9985 10.2948 32.8044 10.2738L32.9208 10.2829ZM92.2663 10.3755C93.6238 10.4233 94.9239 10.5163 96.4909 10.352C96.4909 10.352 96.8978 10.345 97.0531 10.3601C97.3394 10.3851 97.7129 10.3953 98.1002 10.3887C98.4875 10.3821 98.8604 10.3591 99.1456 10.3243C99.7066 10.2615 100.037 10.309 100.522 10.3229C101.006 10.3368 101.781 10.3124 102.09 10.2207L101.118 10.051L97.341 10.1933C96.6848 10.1379 95.9377 10.0967 95.1295 10.0715C94.1169 10.0825 93.1017 10.1081 92.1074 10.1477C92.1088 10.2275 92.2651 10.3024 92.3245 10.379C92.0081 10.3128 91.6577 10.2492 91.2747 10.1885C90.8719 10.1587 90.3852 10.1443 89.873 10.1472C89.3608 10.15 88.8449 10.17 88.3873 10.2047C88.2145 10.3008 88.0416 10.3902 87.8303 10.5003C89.2641 10.4779 90.796 10.5249 92.15 10.3731L92.2663 10.3755ZM232.574 8.72954C233.119 8.72284 233.646 8.7348 234.087 8.76392C234.529 8.79304 234.867 8.83803 235.058 8.89324C235.693 8.86983 236.303 8.83385 236.859 8.78702C237.22 8.74567 237.646 8.71295 238.105 8.69128C238.564 8.6696 239.045 8.65952 239.512 8.66178C240.707 8.63979 241.896 8.60232 243.056 8.55009C243.599 8.52972 243.636 8.46699 243.189 8.37708L239.973 8.46096C239.972 8.37007 240.649 8.28309 240.124 8.20781L235.63 8.3557C235.067 8.29438 234.525 8.33914 233.964 8.38423C233.403 8.42932 232.628 8.4847 232.028 8.53489C231.892 8.51143 231.722 8.49116 231.523 8.47479C231.523 8.47479 231.194 8.49595 231.02 8.50559C231.161 8.5217 231.332 8.53385 231.525 8.5413C231.68 8.53865 231.912 8.53467 232.106 8.53135L232.749 8.74208L231.45 8.69336C231.447 8.76329 231.5 8.83215 231.608 8.89909C231.609 8.91904 232.132 8.93668 232.365 8.92827C232.503 8.92166 232.63 8.9114 232.735 8.89839C232.84 8.88539 232.918 8.87003 232.964 8.8537C232.904 8.80882 232.772 8.76677 232.574 8.72954ZM57.1408 11.0678C57.4688 10.9802 57.5258 10.9104 58.2038 10.8944C58.9445 10.8638 59.7101 10.8507 60.4513 10.8559C61.2803 10.8745 62.1528 10.8753 63.029 10.8584C64.3465 10.8358 65.6644 10.8376 66.9046 10.8231C67.1758 10.8184 67.4465 10.7805 67.8529 10.7469C67.4129 10.6645 66.9126 10.587 66.3566 10.5153C65.7352 10.4395 64.9217 10.469 64.2064 10.5743L63.4331 10.6874C62.6374 10.6278 62.0935 10.5551 61.0676 10.6303C60.0418 10.7055 59.3626 10.6595 58.5098 10.6563C57.657 10.6532 56.3769 10.5931 55.4491 10.7398C55.4494 10.7553 54.8485 10.7501 54.5578 10.755C54.2672 10.76 53.4917 10.7445 52.9491 10.7493C52.3376 10.7502 51.7151 10.7702 51.1464 10.8072C50.5778 10.8442 50.0838 10.897 49.7161 10.9599C50.8998 11.0438 52.2925 10.8825 53.4756 10.9377C54.6588 10.9928 56.3623 10.8771 57.1408 11.0678ZM218.994 9.05074L212.367 9.10212C211.418 9.18931 210.43 9.16189 209.577 9.14988C208.629 9.27254 207.272 9.26029 205.703 9.31376L209.719 9.53771L211.829 9.37742C212.403 9.32756 213.041 9.29012 213.706 9.26731C214.371 9.2445 215.05 9.23677 215.703 9.24457C217.04 9.27045 217.969 9.16808 218.994 9.05518L218.994 9.05074ZM84.9182 10.2086C84.5307 10.2153 84.1242 10.2444 83.7176 10.2669C83.3109 10.2894 83.3506 10.3419 82.9432 10.3156C81.8955 10.2493 81.007 10.4264 79.9015 10.3832C79.7465 10.3859 79.2437 10.4455 78.8954 10.4781L77.7343 10.5844C78.1304 10.617 78.6019 10.6371 79.1105 10.643C79.6191 10.649 80.1504 10.6406 80.6614 10.6186C81.7068 10.5497 82.5989 10.5854 83.5095 10.5698C83.9483 10.5657 84.3884 10.5581 84.8271 10.5473C85.2589 10.5328 85.6662 10.5057 86.0064 10.4686C86.3466 10.4316 86.6074 10.3861 86.7615 10.3367L84.9182 10.2086ZM76.6497 10.6252C76.279 10.4829 75.1743 10.4819 74.2434 10.4446C73.7131 10.4255 73.1314 10.4224 72.5478 10.4354C71.9642 10.4485 71.396 10.4774 70.8918 10.5197C70.1969 10.5739 69.5476 10.6363 68.9569 10.7059C69.1054 10.7459 69.3841 10.7761 69.741 10.7908C70.098 10.8055 70.5087 10.8037 70.8964 10.7858C72.6398 10.736 74.5769 10.6806 76.6497 10.6252ZM191.625 7.7077C192.092 7.82831 192.111 7.82133 192.654 7.84086C194.264 7.90199 195.288 7.75141 196.527 7.65481L198.098 7.69666C198.626 7.71761 199.234 7.71313 199.799 7.68412C200.363 7.6551 200.842 7.60373 201.138 7.54039C197.938 7.56926 194.725 7.62574 191.528 7.70936L191.625 7.7077ZM43.0194 10.3561C43.0273 10.3147 43.0787 10.2729 43.1724 10.2315C43.2151 10.22 43.2368 10.2078 43.2358 10.196C43.2349 10.1841 43.2114 10.1728 43.167 10.1628C43.1226 10.1528 43.0583 10.1444 42.9786 10.1381C42.8989 10.1318 42.8057 10.1278 42.7054 10.1264C42.3014 10.122 41.8755 10.1348 41.5044 10.1625C40.7914 10.2571 40.2211 10.3639 39.8237 10.4773C41.4423 10.4817 43.089 10.4624 44.726 10.42C44.8617 10.4177 45.0163 10.3951 45.3065 10.3657L43.0194 10.3561ZM204.755 9.37657C203.998 9.34739 203.417 9.32852 202.815 9.30555C202.573 9.29583 202.303 9.29437 202.034 9.30133C201.764 9.30829 201.505 9.3234 201.285 9.34506C200.961 9.37584 200.728 9.41763 200.628 9.46274C200.645 9.47932 200.698 9.49455 200.783 9.50704C200.867 9.51952 200.981 9.52888 201.114 9.53426C202.025 9.55413 203.052 9.54985 203.422 9.66325C203.422 9.66325 203.713 9.65827 203.829 9.66958L204.755 9.37657ZM226.991 7.50577L225.52 7.63074C226.199 7.64351 226.916 7.63567 227.246 7.66994C228.256 7.78126 229.631 7.72002 230.871 7.70987C231.131 7.70612 231.383 7.69121 231.576 7.66814C231.77 7.64507 231.891 7.61557 231.915 7.58556C231.146 7.55412 230.332 7.53454 229.492 7.52727C228.273 7.65679 227.767 7.55457 226.894 7.50743L226.991 7.50577ZM46.3661 9.99502C46.3672 10.0571 46.1355 10.1098 46.3686 10.1391C46.4633 10.1585 46.595 10.1747 46.7553 10.1869C46.9157 10.199 47.1012 10.2068 47.3001 10.2096C48.3801 10.1945 49.4607 10.1716 50.5355 10.1409C50.6518 10.139 50.8449 10.1002 50.8252 10.0828C50.8055 10.0654 50.6113 10.0421 50.4757 10.0444C50.3401 10.0467 49.6429 10.0786 49.2745 10.065C48.786 10.0508 48.3128 10.0322 47.8587 10.0094C47.2967 10.0101 46.8897 10.0082 46.2693 9.99667L46.3661 9.99502ZM217.653 2.06891L219.439 2.20243C219.437 2.12041 219.437 2.07829 219.436 2.03839C219.328 1.999 219.327 1.95509 219.434 1.91203C220.051 1.75733 219.857 1.74291 217.997 1.75924C217.979 1.85268 217.729 1.95452 217.557 2.07056L217.653 2.06891ZM183.475 9.40827C184.385 9.36386 185.082 9.32533 185.78 9.29787C186.477 9.27041 187.213 9.2578 188.007 9.23533L188.005 9.08903C186.862 9.1086 185.855 9.18791 184.769 9.15772C184.479 9.15161 183.801 9.21643 183.492 9.25942C183.183 9.30241 183.377 9.35008 183.378 9.40993L183.475 9.40827ZM225.467 9.05301C226.824 9.05417 228.006 9.06054 229.188 9.05582C229.731 9.04653 229.943 9.00963 229.826 8.95398L227.072 8.82597C226.356 8.88479 225.543 8.92533 225.37 9.05467L225.467 9.05301ZM216.395 7.78032C215.353 7.76604 214.257 7.78481 213.217 7.83472C213.083 7.84376 212.967 7.85651 212.882 7.87163C212.797 7.88675 212.746 7.90367 212.734 7.9206C212.735 7.94942 213.026 7.99321 213.239 7.99178C213.879 7.99552 214.537 7.98425 215.177 7.95861C215.641 7.92183 216.338 7.87886 216.298 7.78198L216.395 7.78032ZM187.324 7.78799C186.49 7.79117 185.657 7.78769 184.804 7.79785C184.664 7.803 184.532 7.81197 184.421 7.82395C184.309 7.83592 184.222 7.85053 184.166 7.86644C184.141 7.88341 184.153 7.90021 184.2 7.91529C184.248 7.93036 184.33 7.94322 184.439 7.95268C184.896 7.97638 185.393 7.99106 185.912 7.99619C186.862 8.0021 187.074 7.95634 187.304 7.78832L187.324 7.78799ZM210.331 7.9573C210.276 7.93332 210.137 7.91427 209.944 7.90428C209.752 7.89429 209.522 7.89417 209.303 7.90395C208.141 7.93715 206.979 7.97701 205.817 8.01908C205.681 8.0214 205.585 8.0563 205.469 8.07603C205.682 8.0879 205.993 8.11584 206.109 8.1072C206.713 8.0642 207.4 8.04537 208.046 8.05408C208.442 8.05583 208.848 8.04817 209.241 8.03154C209.633 8.0149 210.004 7.98965 210.331 7.9573ZM174.698 9.56962C175.144 9.57083 175.602 9.55727 176.019 9.5305C176.437 9.50374 176.798 9.46486 177.06 9.41832C177.113 9.40859 177.14 9.39768 177.14 9.38701C177.14 9.37634 177.112 9.36639 177.059 9.35846C176.679 9.34169 176.247 9.33939 175.819 9.35186C175.391 9.36433 174.986 9.391 174.657 9.42841C174.543 9.43931 174.449 9.4528 174.382 9.4678C174.315 9.48281 174.277 9.49892 174.271 9.51485C174.252 9.53957 174.582 9.5561 174.718 9.56929L174.698 9.56962ZM205.542 8.96173C207.578 8.98454 207.578 8.98232 208.971 8.88085C207.282 8.71907 206.914 8.72538 205.562 8.97027L205.542 8.96173ZM142.796 10.6347L141.244 10.4994C140.941 10.5275 140.662 10.5591 140.412 10.5935C140.285 10.6251 140.194 10.658 140.142 10.6912C141.617 10.7968 141.617 10.7968 142.816 10.6343L142.796 10.6347ZM123.148 9.73374C122.781 9.77551 122.316 9.81008 122.259 9.84432C122.257 9.86592 122.3 9.88649 122.384 9.90432C122.469 9.92216 122.593 9.93675 122.745 9.94687C123.109 9.96501 123.525 9.97017 123.947 9.96177C124.1 9.95763 124.248 9.94948 124.38 9.938C124.511 9.92652 124.621 9.91201 124.702 9.89563C124.756 9.87939 124.774 9.86239 124.753 9.84638C124.732 9.83037 124.674 9.81592 124.584 9.80452C124.131 9.77571 123.65 9.75202 123.148 9.73374ZM223.429 6.60884C222.889 6.57642 222.28 6.55826 221.64 6.55549C221 6.55272 220.342 6.56539 219.708 6.59272C219.623 6.59812 219.548 6.60574 219.491 6.61487C219.434 6.62399 219.395 6.63433 219.379 6.64491C219.383 6.65564 219.408 6.66579 219.451 6.67463C219.495 6.68346 219.557 6.69077 219.632 6.69602C220.249 6.7134 220.91 6.71455 221.572 6.6994C222.234 6.68424 222.88 6.65314 223.468 6.60818L223.429 6.60884ZM215.716 2.1176C215.502 2.08578 215.425 2.06272 215.269 2.05651C215.178 2.05313 215.079 2.05227 214.979 2.05399C214.878 2.05571 214.779 2.05997 214.688 2.06646C214.411 2.08554 214.182 2.11353 214.032 2.14638C213.883 2.17923 213.822 2.21523 213.858 2.24919C213.897 2.26481 213.968 2.27866 214.066 2.28967C214.163 2.30068 214.285 2.30856 214.421 2.31273C214.556 2.31348 214.696 2.31026 214.828 2.30336C214.96 2.29646 215.08 2.28609 215.176 2.27319C215.41 2.22265 215.604 2.17033 215.755 2.11693L215.716 2.1176ZM215.505 6.77776C216.745 6.74101 217.87 6.78606 218.642 6.60432C217.519 6.64351 216.413 6.607 215.544 6.78375L215.505 6.77776ZM158.316 10.3845L156.723 10.1767C156.279 10.2752 155.641 10.3349 155.933 10.4253L158.316 10.3845ZM150.237 10.5228C150.236 10.4984 150.236 10.4652 150.042 10.4596C149.676 10.442 149.261 10.4365 148.84 10.4437C148.419 10.4509 148.005 10.4706 147.639 10.5008C147.523 10.5027 147.64 10.5407 147.524 10.5693C147.939 10.5913 148.414 10.5994 148.9 10.5926C149.386 10.5859 149.868 10.5645 150.295 10.5307L150.237 10.5228ZM113.987 10.0946C113.501 10.0009 113.501 10.0009 112.202 9.94554C111.953 10.1471 112.186 10.1653 113.987 10.0946ZM208.015 7.36056C208.016 7.40047 208.016 7.44924 208.21 7.44814C209.044 7.45382 209.877 7.45286 210.73 7.44935C211.195 7.44139 211.563 7.43509 211.542 7.36005C211 7.36934 210.457 7.37863 209.934 7.38758C209.411 7.39654 208.751 7.36348 208.015 7.36278L208.015 7.36056ZM50.9269 10.3604C50.6545 10.2986 50.6152 10.2682 50.4989 10.2657C49.549 10.2554 49.5491 10.2576 47.6322 10.3614L50.9269 10.3604ZM231.898 2.03126L232.344 2.06353C232.851 2.01875 233.336 1.97045 233.795 1.91895C233.911 1.90587 233.794 1.85022 233.619 1.83548C233.445 1.82073 232.902 1.83223 232.805 1.84941C232.457 1.90815 232.153 1.96977 231.898 2.03347L231.898 2.03126ZM178.699 10.0732C178.698 9.96902 178.445 9.94009 177.573 9.95723C177.322 9.96154 176.896 9.99544 176.877 10.0135C176.878 10.0933 177.616 10.1694 178.216 10.1391C178.448 10.1285 178.584 10.0974 178.699 10.0732ZM183.105 2.49187C182.9 2.44588 182.659 2.40253 182.385 2.36227C182.385 2.35119 181.727 2.37355 181.63 2.39294C181.534 2.41233 181.438 2.47607 181.632 2.48827C181.974 2.50679 182.357 2.51609 182.756 2.51558C182.756 2.51558 182.872 2.50472 183.105 2.49187ZM220.718 2.21822C221.087 2.22965 221.455 2.24108 221.823 2.24808C222.083 2.25174 222.358 2.24512 222.606 2.22924C222.855 2.21336 223.063 2.18911 223.198 2.16024C223.449 2.1249 222.829 2.09783 222.054 2.10444C221.766 2.10225 221.467 2.11275 221.213 2.13391C220.959 2.15506 220.768 2.18536 220.679 2.21888L220.718 2.21822ZM180.14 9.28799C179.384 9.30092 178.978 9.35001 178.921 9.41307C178.92 9.42449 178.947 9.43523 178.999 9.44413C179.05 9.45302 179.124 9.45974 179.212 9.46352C179.351 9.46888 179.504 9.46993 179.659 9.46656C179.813 9.4632 179.963 9.45553 180.095 9.44425C180.228 9.43296 180.338 9.41842 180.417 9.40192C180.496 9.38542 180.541 9.36749 180.548 9.34974C180.508 9.32602 180.217 9.30661 180.101 9.28865L180.14 9.28799ZM118.131 9.88394C117.797 9.86304 117.432 9.84839 117.045 9.84045C116.899 9.84065 116.751 9.84459 116.61 9.85198C116.47 9.85936 116.341 9.87002 116.232 9.8832C116.161 9.89857 116.123 9.91527 116.124 9.93161C116.124 9.94796 116.162 9.96337 116.234 9.9763C116.353 9.9849 116.491 9.99021 116.638 9.9919C116.785 9.99359 116.937 9.99161 117.086 9.98609C117.338 9.97291 117.648 9.93657 118.131 9.88394ZM127.491 9.80131C127.072 9.77452 126.623 9.75321 126.152 9.73774C126.152 9.73774 125.63 9.78661 125.592 9.81387C125.553 9.84113 126.117 9.90467 126.639 9.88684C127.162 9.86902 127.026 9.84474 127.491 9.80131ZM256.761 3.02695L256.761 3.0602C257.362 3.04991 257.982 3.0393 258.582 3.0135C258.582 3.0135 258.853 2.97117 258.814 2.96075C258.761 2.95225 258.689 2.94556 258.605 2.94124C258.521 2.93691 258.427 2.93505 258.329 2.93579C257.923 2.96049 257.381 2.99416 256.761 3.02695ZM232.869 2.18315L232.967 2.21696C233.467 2.20764 233.966 2.19391 234.458 2.1759C234.613 2.17324 234.671 2.12569 234.787 2.09932C234.593 2.10264 234.36 2.08002 234.224 2.08899C233.787 2.11727 233.36 2.14826 232.947 2.18182L232.869 2.18315ZM132.352 10.7558C132.37 10.7761 132.43 10.7948 132.528 10.8105C132.584 10.8199 132.658 10.8274 132.747 10.8327C132.835 10.8379 132.935 10.8406 133.04 10.8407C133.145 10.8408 133.253 10.8383 133.355 10.8332C133.457 10.8282 133.552 10.8208 133.632 10.8115C133.739 10.7987 133.82 10.7835 133.867 10.7671C133.914 10.7508 133.926 10.734 133.902 10.7182C133.746 10.6566 133.262 10.6937 132.875 10.7136C132.718 10.7257 132.568 10.7394 132.43 10.7545L132.352 10.7558ZM238.292 1.93731C238.098 1.91624 237.981 1.89385 237.865 1.89362C237.264 1.9039 236.684 1.98923 236.976 2.03967C237.074 2.0475 237.189 2.05244 237.313 2.05415C237.437 2.05587 237.566 2.0543 237.693 2.04956C237.96 2.01492 238.188 1.97666 238.369 1.93598L238.292 1.93731ZM221.057 1.65363L223.361 1.52105C223.023 1.50203 222.634 1.49442 222.233 1.49895C221.832 1.50348 221.433 1.52001 221.075 1.54689C221.017 1.55675 221.134 1.60797 221.135 1.6523L221.057 1.65363ZM223.966 8.52658C223.79 8.50914 223.587 8.49541 223.364 8.48587C223.248 8.48786 222.977 8.50581 222.842 8.52143C222.705 8.54084 222.623 8.56414 222.61 8.58748C222.619 8.61871 222.7 8.64791 222.844 8.67217C223.038 8.69545 223.697 8.65757 223.851 8.60615C223.945 8.57976 224.009 8.55257 224.043 8.52525L223.966 8.52658ZM42.8634 11.4276C41.4853 11.3115 40.6913 11.3428 39.7436 11.461L42.8634 11.4276ZM112.592 8.96986C112.902 8.9313 113.211 8.90825 113.269 8.88509C113.29 8.87352 113.289 8.86193 113.263 8.85125C113.238 8.84056 113.191 8.8311 113.125 8.8236C113.059 8.8161 112.976 8.81078 112.883 8.80808C112.79 8.80537 112.689 8.80536 112.589 8.80803C112.299 8.81301 112.009 8.86232 111.719 8.89168L112.592 8.96986ZM202.882 7.51497C203.176 7.548 203.575 7.56655 204.012 7.56753C204.45 7.56852 204.899 7.55188 205.285 7.52039C205.368 7.51209 205.423 7.50077 205.439 7.48892C205.429 7.48432 205.41 7.48018 205.383 7.47681C205.357 7.47343 205.323 7.4709 205.284 7.4694C204.913 7.45293 204.498 7.44846 204.077 7.45644C203.657 7.46442 203.245 7.48457 202.882 7.51497ZM173.013 9.59626L173.322 9.53554C173.112 9.50263 172.856 9.47413 172.564 9.45094C172.39 9.44062 172.022 9.46022 171.751 9.46487C171.479 9.46951 171.752 9.53581 171.752 9.54911C172.15 9.57034 172.572 9.58615 173.013 9.59626ZM217.063 1.55127C216.637 1.59182 216.347 1.6101 216.328 1.62373C216.341 1.6656 216.429 1.70546 216.586 1.74089C216.743 1.77632 216.967 1.80658 217.242 1.82981C217.183 1.73106 217.123 1.65668 217.063 1.55127ZM122.695 10.44C122.093 10.3439 121.666 10.3179 121.182 10.3617C121.074 10.3729 120.991 10.3869 120.943 10.4023C120.896 10.4176 120.885 10.4336 120.912 10.4483C121.088 10.5074 121.495 10.5049 122.695 10.44ZM234.448 1.57072C234.971 1.56176 235.668 1.50992 235.609 1.47102C235.55 1.43211 235.357 1.44208 235.221 1.44218C234.504 1.45445 233.943 1.4929 234.04 1.53557C234.138 1.57825 234.312 1.55974 234.448 1.57072ZM179.169 8.07173C178.8 8.02926 178.664 7.99611 178.412 7.99156C178.278 7.99007 178.138 7.99273 178.006 7.99927C177.874 8.00581 177.753 8.01602 177.657 8.02888C177.657 8.04661 177.658 8.10425 177.852 8.10536C178.293 8.09985 178.735 8.08857 179.169 8.07173ZM181.882 8.02529C182.191 7.98008 182.501 7.9526 182.5 7.93043C182.505 7.91881 182.487 7.90761 182.447 7.89768C182.407 7.88776 182.346 7.87938 182.269 7.8732C182.192 7.86702 182.101 7.86319 182.003 7.86202C181.905 7.86085 181.803 7.86236 181.704 7.86645C181.491 7.87009 181.124 7.92517 181.163 7.94224C181.202 7.95931 181.571 7.99291 181.882 8.0275L181.882 8.02529ZM220.839 7.01018C220.723 7.05208 220.511 7.08676 220.55 7.11492C220.632 7.14541 220.812 7.16987 221.055 7.18388C221.244 7.18424 221.438 7.17616 221.597 7.16129C221.701 7.13038 221.701 7.09773 221.596 7.0704C221.499 7.04768 221.169 7.03558 220.839 7.0124L220.839 7.01018ZM140.23 10.1287C140.889 10.1662 141.374 10.1623 141.799 10.1018C141.867 10.0935 141.917 10.0835 141.944 10.0729C141.971 10.0623 141.974 10.0515 141.953 10.0415C141.953 10.026 141.565 10.0127 141.468 10.021C141.038 10.0547 140.625 10.0914 140.23 10.1309L140.23 10.1287ZM105.149 11.1728C105.497 11.1358 105.845 11.1121 105.923 11.0841C106 11.0562 105.689 11.0349 105.572 11.0103C105.34 11.032 104.992 11.0513 104.915 11.077C104.838 11.1027 105.032 11.1349 105.149 11.1661L105.149 11.1728ZM207.949 6.92265C208.879 6.90672 209.286 6.89976 209.693 6.89279C210.1 6.88583 210.274 6.85624 210.021 6.82287C209.769 6.78949 209.633 6.79403 209.517 6.80045C208.981 6.83607 208.458 6.87464 207.949 6.916L207.949 6.92265ZM177.507 2.68749L177.506 2.64094C177.086 2.63641 176.658 2.63632 176.227 2.64066C175.491 2.65327 175.337 2.70469 175.706 2.76711L177.507 2.68749ZM249.542 4.73377L250.123 4.70387C249.947 4.68198 249.744 4.66309 249.521 4.64765C249.521 4.64765 249.095 4.67046 249.018 4.68731C248.805 4.73751 249.27 4.7229 249.542 4.72712L249.542 4.73377ZM199.226 9.05436C199.109 9.02532 199.031 8.98895 198.973 8.98995C198.689 9.00005 198.41 9.01299 198.14 9.0286C198.257 9.05321 198.354 9.07815 198.451 9.10309L199.226 9.05436ZM142.234 9.50011C141.972 9.49832 141.702 9.50295 141.44 9.51371C141.266 9.52778 141.228 9.56613 141.131 9.59217C141.441 9.58909 141.752 9.58377 142.061 9.57625C142.061 9.57625 142.215 9.52483 142.292 9.49247L142.234 9.50011ZM9.60358 9.02566C9.81628 8.99762 9.97106 8.98167 9.95161 8.97757C9.79563 8.94358 9.62033 8.91104 9.42666 8.88012C9.42666 8.88012 9.11666 8.88543 8.94251 8.90172L9.60358 9.02566ZM218.985 7.36789C219.182 7.34163 219.357 7.31335 219.506 7.28357C219.506 7.28357 219.215 7.24421 219.099 7.24841C218.843 7.26279 218.602 7.28111 218.383 7.30281L218.985 7.36789ZM215.009 7.21422C214.771 7.20248 214.525 7.19263 214.272 7.1847C214.272 7.1847 214.078 7.21019 214.098 7.21208C214.248 7.23422 214.41 7.25513 214.584 7.27471L215.009 7.21422ZM221.59 9.02181C221.415 8.99591 221.206 8.97338 220.969 8.95484C220.873 8.95481 220.775 8.95721 220.681 8.96188C220.587 8.96654 220.501 8.97336 220.427 8.98186C220.384 8.99061 220.362 9.0002 220.362 9.00958C220.362 9.01897 220.385 9.02779 220.428 9.03506C220.706 9.04496 220.999 9.05037 221.3 9.05117C221.3 9.05117 221.513 9.02314 221.59 9.01294L221.59 9.02181ZM161.064 10.1179C161.334 10.0601 161.643 10.0215 161.566 10.0007C161.488 9.97984 160.983 9.95078 160.538 9.97171C160.402 9.97403 160.209 10.0173 160.248 10.0255C160.502 10.0555 160.774 10.0834 161.064 10.1091L161.064 10.1179ZM135.871 10.2366C135.629 10.2162 135.334 10.2046 135.017 10.203C134.7 10.2014 134.372 10.2099 134.068 10.2275C133.971 10.2292 133.894 10.2438 133.817 10.2496C133.739 10.2553 134.05 10.2833 134.166 10.2813C134.786 10.2618 135.173 10.2463 135.967 10.2261L135.871 10.2366ZM117.929 10.5437C117.674 10.5348 117.408 10.529 117.134 10.5263C117.134 10.5263 116.941 10.5585 116.845 10.5756L117.582 10.6118L117.929 10.5437ZM188.913 2.1596C188.759 2.19107 188.662 2.2016 188.662 2.21268C188.624 2.25386 188.625 2.29474 188.664 2.3346C188.665 2.34568 188.994 2.35557 189.149 2.35069C189.304 2.34582 189.517 2.31557 189.478 2.30737C189.314 2.25663 189.125 2.20731 188.913 2.1596ZM190.857 2.47002C190.745 2.51626 190.661 2.5629 190.607 2.60956C190.604 2.62024 190.626 2.6304 190.671 2.63899C190.715 2.64759 190.78 2.6543 190.86 2.65845C190.951 2.66182 191.05 2.66268 191.151 2.66096C191.251 2.65924 191.35 2.65498 191.441 2.6485C191.496 2.64039 191.533 2.63109 191.55 2.62148C191.567 2.61187 191.562 2.60228 191.537 2.59364C191.351 2.54856 191.123 2.50641 190.857 2.46781L190.857 2.47002ZM145.746 2.9186C145.746 2.9186 145.939 2.89533 145.939 2.88868C145.939 2.88203 145.783 2.82705 145.705 2.79734C145.511 2.80066 145.163 2.82658 145.163 2.83545C145.221 2.86446 145.327 2.89121 145.475 2.91437C145.475 2.91437 145.61 2.91649 145.707 2.91704L145.746 2.9186ZM203.221 2.46012C203.219 2.34263 203.451 2.27215 202.694 2.18977C202.501 2.23902 202.445 2.29187 202.534 2.34036C202.622 2.38885 202.85 2.43033 203.183 2.45857L203.221 2.46012ZM156.926 2.78262C156.926 2.78262 157.139 2.77897 157.159 2.77864C157.313 2.7383 157.429 2.69863 157.564 2.65862C157.37 2.66194 157.137 2.64375 156.982 2.65084C156.479 2.68385 156.654 2.72519 156.752 2.76344C156.791 2.76989 156.837 2.77579 156.888 2.78107L156.926 2.78262ZM168.411 10.2604L168.953 10.2157C168.798 10.205 168.623 10.1792 168.526 10.1831C168.296 10.1964 168.081 10.2135 167.888 10.2339L168.411 10.2604ZM210.024 2.45231C210.173 2.44158 210.315 2.42949 210.45 2.4162C210.362 2.39203 210.23 2.37091 210.061 2.35411C210.061 2.35411 209.732 2.37305 209.538 2.38302L210.024 2.45231ZM130.962 3.12736C130.807 3.11228 130.632 3.09088 130.593 3.09376C130.374 3.11023 130.182 3.1317 130.032 3.15659C130.032 3.15659 130.188 3.18275 130.285 3.1966L130.962 3.12736ZM202.653 2.08845C202.483 2.08072 202.3 2.07638 202.11 2.07558C202.013 2.07724 201.897 2.09474 201.781 2.1056C201.878 2.10495 201.975 2.10328 202.072 2.10063L202.653 2.08845ZM118.218 3.61607L118.217 3.58282L116.939 3.6158L116.939 3.65348L118.218 3.61607ZM167.563 2.56948L166.944 2.62887C167.102 2.64061 167.288 2.6473 167.487 2.64839C167.661 2.6454 167.835 2.62469 168.029 2.61029L167.563 2.56948ZM155.176 2.45114C154.924 2.43994 154.711 2.42586 154.478 2.41875C154.245 2.41165 154.304 2.42173 154.226 2.43858L154.77 2.50023L155.176 2.45114ZM147.99 2.69613C147.764 2.68601 147.531 2.67742 147.292 2.67039C147.292 2.67039 147.098 2.67371 147.021 2.68612L147.487 2.74688L147.99 2.69613ZM163.055 8.72677C162.804 8.74882 162.552 8.75978 162.456 8.77917C162.359 8.79857 162.96 8.82597 163.425 8.80471C163.58 8.80205 163.676 8.77379 163.792 8.75629L163.055 8.72677ZM77.8092 10.4279L77.0331 10.3769C77.0331 10.3769 76.8397 10.4024 76.8591 10.4043C76.9794 10.4286 77.1369 10.4499 77.3253 10.4673C77.5134 10.4546 77.6946 10.4404 77.8673 10.4247L77.8092 10.4279ZM16.727 8.52009L16.4939 8.48639L15.8556 8.5594C15.8556 8.5594 16.0497 8.57603 16.069 8.57348C16.2947 8.5569 16.5143 8.53909 16.727 8.52009ZM23.0775 10.407L23.077 10.3804L21.992 10.399L21.9926 10.4323L23.0775 10.407ZM214.401 6.77672L214.4 6.7479L213.354 6.75472C213.257 6.75638 213.179 6.77102 213.102 6.77899C213.025 6.78697 213.355 6.81014 213.49 6.80782C213.795 6.80504 214.101 6.79756 214.401 6.78558L214.401 6.77672ZM198.222 7.02488C198.746 7.08021 199.172 7.06848 199.83 6.99735L198.222 7.02488ZM99.7362 10.8597C99.9553 10.85 100.169 10.8382 100.375 10.8243C100.331 10.7955 100.259 10.7677 100.161 10.7415C99.9281 10.7455 99.5408 10.7677 99.5024 10.7838C99.4639 10.8 99.6391 10.8436 99.7364 10.8685L99.7362 10.8597ZM139.058 9.61658L139.581 9.57881C139.425 9.57038 139.251 9.55341 139.076 9.5564C138.902 9.55938 138.728 9.5801 138.554 9.59196L139.058 9.61658ZM94.2502 10.7873C94.2502 10.7873 94.4056 10.8068 94.4831 10.8055C94.5606 10.8041 95.2194 10.7929 95.6067 10.7751L95.6064 10.7574C95.234 10.757 94.8588 10.759 94.4824 10.7633C94.4824 10.7633 94.3276 10.7793 94.2502 10.7873ZM17.9081 8.4533L17.9076 8.42448L17.5589 8.43045C17.5589 8.43045 17.5592 8.45041 17.6562 8.4554C17.7532 8.46039 17.85 8.45651 17.9081 8.4533ZM251.913 3.98139L252.184 3.96123C252.184 3.96123 252.009 3.94426 251.931 3.94781C251.854 3.95135 251.719 3.96698 251.603 3.97783L251.913 3.98139ZM257.429 3.58094C257.245 3.57843 257.057 3.57794 256.867 3.57948C256.867 3.57948 256.712 3.59543 256.635 3.60341L257.41 3.60344L257.429 3.58094ZM259.793 3.50944L260.373 3.47289C260.373 3.47289 260.199 3.4537 260.121 3.45503C260.044 3.45636 259.734 3.46166 259.52 3.46531L259.793 3.50944ZM222.886 7.68915L222.885 7.6692C222.783 7.66862 222.678 7.67043 222.575 7.67451L222.576 7.69224C222.679 7.6915 222.782 7.68973 222.886 7.68693L222.886 7.68915ZM31.2415 10.6797C31.0803 10.6742 30.9111 10.6712 30.7374 10.6706C30.7374 10.6706 30.6018 10.6729 30.5246 10.692C30.6934 10.697 30.8688 10.7 31.048 10.7007C31.048 10.7007 31.1834 10.6851 31.2414 10.6775L31.2415 10.6797ZM85.0835 9.68029L84.5217 9.68991C84.5898 9.69615 84.6685 9.7008 84.7545 9.70367C84.8491 9.70545 84.9506 9.70372 85.0451 9.69869C85.0451 9.69869 85.0836 9.68473 85.0835 9.67808L85.0835 9.68029ZM44.6258 10.2244L44.4324 10.2476C44.5865 10.2533 44.7494 10.2565 44.9171 10.2571C44.9171 10.2571 45.0525 10.2437 45.1299 10.2357L44.6258 10.2244ZM37.4191 10.3965L37.1857 10.3495C37.1857 10.3495 36.9532 10.3535 36.9534 10.3646C36.935 10.3826 36.9353 10.4005 36.9543 10.4178L37.4191 10.3965ZM57.2575 9.95712C57.0915 9.95575 56.9196 9.95869 56.7537 9.96574C56.4437 9.97105 56.4441 9.99544 56.7543 10.0012C56.9276 10.0015 57.1043 9.99845 57.2775 9.99226L57.2575 9.95712ZM35.9465 10.4151C36.019 10.3965 36.0833 10.3777 36.1393 10.3586C36.1393 10.3586 36.0228 10.3451 35.9451 10.3375C35.8675 10.33 35.6356 10.3672 35.6358 10.3805C35.636 10.3938 35.8298 10.3949 35.9463 10.4062L35.9465 10.4151ZM228.456 7.0217L228.261 6.96738C228.261 6.96738 228.029 6.98688 228.048 6.9932C228.083 7.01095 228.135 7.02791 228.204 7.04374C228.3 7.03479 228.384 7.02436 228.456 7.01283L228.456 7.0217ZM60.4133 9.76783C60.4133 9.76783 60.4131 9.75231 60.2581 9.75497C60.1686 9.75435 60.0762 9.75593 59.9868 9.75961C59.9868 9.75961 59.9871 9.77956 60.1616 9.77879C60.336 9.77803 60.3164 9.76505 60.4132 9.75896L60.4133 9.76783ZM225.642 6.79713C225.642 6.79713 225.487 6.81752 225.487 6.82639C225.487 6.83525 225.488 6.84856 225.488 6.85742C225.488 6.86629 225.642 6.83704 225.662 6.82784C225.677 6.81425 225.67 6.80082 225.642 6.78826L225.642 6.79713ZM206.631 6.90086L206.225 6.93887C206.225 6.93887 206.399 6.95583 206.457 6.95484C206.644 6.9481 206.825 6.93903 207 6.92781L206.631 6.90086ZM205.7 2.31569C205.7 2.31569 205.544 2.29396 205.506 2.29684C205.33 2.30566 205.161 2.31674 205.002 2.32985C205.002 2.32985 205.158 2.34936 205.196 2.3487C205.371 2.33947 205.539 2.32842 205.7 2.31569ZM156.219 2.24481C156.042 2.2422 155.86 2.2416 155.677 2.24301C155.677 2.24301 155.522 2.25675 155.444 2.26473L156.2 2.26287L156.219 2.24481ZM197.62 2.42297L197.388 2.44912C197.56 2.45657 197.742 2.46164 197.931 2.46422C197.931 2.46422 198.085 2.44827 198.163 2.44029L197.62 2.42297ZM187.515 2.00171C187.515 2.00171 187.418 1.98341 187.34 1.98252C187.244 1.98315 187.146 1.98482 187.05 1.9875C187.11 1.99844 187.182 2.00837 187.263 2.01711C187.263 2.01711 187.418 2.01445 187.515 2.00836L187.515 2.00171ZM201.893 1.84647L202.396 1.81124C202.222 1.81423 202.067 1.79028 201.892 1.79327C201.718 1.79625 201.563 1.81221 201.389 1.82406L201.893 1.84647ZM151.033 2.7172C150.898 2.71953 150.627 2.74191 150.627 2.75299C150.627 2.76407 150.763 2.78614 150.841 2.80476C150.919 2.82338 151.209 2.7785 151.228 2.76709C151.247 2.75567 151.111 2.74913 151.034 2.73272L151.033 2.7172ZM179.031 2.2933L179.632 2.26085C179.476 2.25242 179.321 2.23734 179.166 2.23999C179.011 2.24265 178.915 2.26426 178.799 2.27733L179.031 2.2933ZM118.969 3.3615C118.969 3.3615 118.853 3.34354 118.795 3.34454C118.618 3.35169 118.443 3.35986 118.272 3.36901C118.272 3.36901 118.427 3.38631 118.485 3.3831C118.664 3.38394 118.847 3.38156 119.028 3.37603L118.969 3.3615ZM185.683 2.50539C185.683 2.50539 185.76 2.51515 185.741 2.51991L185.683 2.50539ZM192.169 2.11717C192.169 2.11717 192.072 2.13656 192.169 2.14377C192.266 2.15098 192.325 2.17437 192.44 2.13913C192.459 2.13082 192.459 2.12241 192.44 2.11475C192.44 2.11475 192.285 2.13292 192.227 2.1317L192.169 2.11717ZM200.308 2.07982L200.191 2.05521C200.191 2.05521 200.017 2.0715 200.036 2.07339C200.083 2.08653 200.142 2.0989 200.211 2.1103L200.308 2.07982ZM133.545 3.44457L133.739 3.44125C133.746 3.4308 133.746 3.42043 133.738 3.41022C133.738 3.41022 133.544 3.41354 133.545 3.42462C133.545 3.43571 133.584 3.45721 133.604 3.46575L133.545 3.44457ZM228.072 1.56458C228.072 1.56458 228.071 1.54685 228.071 1.54463C227.978 1.54191 227.874 1.5437 227.781 1.54961C227.51 1.56534 227.529 1.57609 227.781 1.57843C227.887 1.58419 228.006 1.58671 228.13 1.58576L228.072 1.56458ZM112.29 3.74861C112.477 3.75547 112.671 3.76029 112.871 3.76304C112.871 3.76304 113.026 3.74709 113.103 3.73689C113.181 3.7267 112.948 3.71738 112.87 3.72092C112.685 3.73542 112.51 3.75178 112.348 3.76978L112.29 3.74861ZM226.881 2.19476C226.881 2.19476 226.881 2.21249 226.881 2.21471C226.977 2.21521 227.076 2.21352 227.172 2.20973L227.171 2.17648L226.881 2.19476ZM94.1011 11.1335L93.8482 11.078C93.8482 11.078 93.5966 11.0978 93.6161 11.1041C93.6709 11.1232 93.7426 11.1412 93.8302 11.1581L94.1011 11.1335ZM97.0041 10.8909L97.0037 10.871L96.7325 10.8756L96.7328 10.8933C96.8086 10.8944 96.8873 10.8938 96.9653 10.8916L97.0041 10.8909ZM160.419 9.80523C160.419 9.80523 160.651 9.78573 160.632 9.77941C160.577 9.76038 160.505 9.7423 160.417 9.72542C160.336 9.746 160.272 9.76716 160.225 9.78859C160.225 9.78859 160.303 9.80943 160.38 9.81476L160.419 9.80523ZM229.624 8.4408C229.527 8.45798 229.333 8.47459 229.334 8.49233C229.334 8.51006 229.489 8.52292 229.586 8.53678C229.684 8.55064 229.857 8.50111 229.857 8.48559C229.857 8.47007 229.721 8.46353 229.585 8.45033L229.624 8.4408ZM108.056 11.1873L107.862 11.1662C107.776 11.1838 107.704 11.2021 107.65 11.2209C107.65 11.2209 107.766 11.2344 107.825 11.2423L108.056 11.1873ZM90.7912 11.3787L90.5191 11.3345C90.4031 11.3521 90.229 11.3706 90.2293 11.3861C90.2295 11.4016 90.4042 11.4163 90.482 11.4327C90.5959 11.4155 90.6992 11.3974 90.7912 11.3787ZM228.346 8.54471L228.114 8.56864C228.114 8.56864 228.25 8.59071 228.328 8.58938C228.405 8.58805 228.482 8.57343 228.56 8.56545L228.346 8.54471ZM115.401 10.0105C115.401 10.0105 115.284 9.99256 115.207 9.99389C115.129 9.99521 115.071 9.9962 114.994 10.013C114.917 10.0299 115.11 10.031 115.188 10.0297C115.265 10.0284 115.226 10.0179 115.401 10.0105ZM175.153 10.0962L175.037 10.116L175.212 10.113L175.153 10.0962ZM230.366 8.75849L230.462 8.74353L230.288 8.74652L230.366 8.75849ZM259.769 3.28587L259.595 3.27778L259.595 3.29551L259.769 3.28587ZM70.0973 10.5245C70.0973 10.5245 69.9807 10.5065 69.9032 10.5078C69.8257 10.5092 69.7676 10.5102 69.6903 10.527C69.6131 10.5439 69.8069 10.5427 69.8844 10.5414C69.9619 10.5401 69.9421 10.5138 70.0001 10.5084L70.0973 10.5245ZM151.664 8.98167L151.839 8.98977L151.838 8.97203L151.664 8.98167ZM224.979 6.5823L224.98 6.6355L225.232 6.61124L224.979 6.5823ZM250.274 1.09577L250.39 1.07383L250.196 1.07715L250.274 1.09577ZM155.084 2.72547L155.2 2.70131L155.006 2.70462L155.084 2.72547ZM197.224 1.91976C197.224 1.91976 197.049 1.89836 197.01 1.90124C196.661 1.91829 196.662 1.93603 197.011 1.94336C197.36 1.95069 197.049 1.90944 197.126 1.90147L197.224 1.91976ZM16.4928 6.15813L16.377 6.1845L16.4932 6.18251L16.4928 6.15813ZM210.87 2.0653L210.871 2.10742L211.084 2.08604L210.87 2.0653ZM175.875 2.47816C175.875 2.47816 175.72 2.45643 175.662 2.45964C175.604 2.46285 175.352 2.48934 175.663 2.49955C175.973 2.50976 175.759 2.48458 175.837 2.47882L175.875 2.47816Z" fill="#346BA1"/>
</svg>
