<svg width="17" height="16" viewBox="0 0 17 16" fill="none" xmlns="http://www.w3.org/2000/svg">
<path d="M15.75 12.5359L13.3091 10.0947C12.8229 9.61052 12.0178 9.62523 11.5147 10.1285L10.285 11.358C10.2073 11.3152 10.1269 11.2704 10.0423 11.223C9.26575 10.7927 8.2029 10.2029 7.08448 9.0837C5.96274 7.9621 5.37244 6.89762 4.94085 6.12056C4.8953 6.03824 4.85167 5.95887 4.80857 5.88349L5.6339 5.0594L6.03966 4.65314C6.54354 4.14912 6.55744 3.34423 6.07239 2.8586L3.63153 0.417184C3.14649 -0.0677661 2.34101 -0.0530541 1.83712 0.450967L1.1492 1.14284L1.168 1.1615C0.937333 1.45583 0.744579 1.79529 0.601137 2.16137C0.468911 2.50982 0.386588 2.84234 0.348945 3.17554C0.0266445 5.84748 1.24765 8.28944 4.56129 11.6031C9.14174 16.1833 12.833 15.8373 12.9922 15.8204C13.3391 15.7789 13.6714 15.696 14.0092 15.5649C14.3721 15.4231 14.7114 15.2306 15.0055 15.0005L15.0205 15.0138L15.7174 14.3314C16.2203 13.8274 16.2348 13.0223 15.75 12.5359Z" fill="white"/>
</svg>
