<svg>
<path d="M14.983 1.61004C14.5596 1.25539 13.9289 1.31109 13.5743 1.73446L7.79484 8.6336C7.44019 9.05696 7.49589 9.68767 7.91925 10.0423C8.34262 10.397 8.97333 10.3413 9.32798 9.91792L14.4653 3.78535L20.5978 8.92262C21.0212 9.27727 21.6519 9.22157 22.0066 8.79821C22.3612 8.37484 22.3055 7.74413 21.8821 7.38947L14.983 1.61004ZM73.7463 81.8395C72.8432 81.4166 71.9542 80.9932 71.079 80.5693L70.2071 82.3692C71.0903 82.797 71.9873 83.2242 72.8981 83.6507L73.7463 81.8395ZM65.8533 77.9458C64.0698 77.0169 62.3501 76.0845 60.6917 75.1478L59.7081 76.8892C61.3872 77.8376 63.1269 78.7807 64.9294 79.7196L65.8533 77.9458ZM55.6557 72.1741C53.9491 71.1191 52.3157 70.0574 50.752 68.9879L49.6229 70.6387C51.2132 71.7265 52.8726 72.8048 54.6041 73.8752L55.6557 72.1741ZM46.0302 65.5732C44.4406 64.3556 42.9341 63.1263 41.5062 61.8836L40.1932 63.3923C41.6539 64.6635 43.1928 65.9191 44.814 67.1609L46.0302 65.5732ZM37.2521 57.9123C35.8531 56.5078 34.5435 55.0842 33.3169 53.6392L31.7921 54.9334C33.054 56.42 34.3996 57.8825 35.835 59.3237L37.2521 57.9123ZM29.7533 49.0594C28.62 47.4648 27.5736 45.8418 26.6066 44.1872L24.8798 45.1964C25.8766 46.9019 26.9552 48.5748 28.123 50.218L29.7533 49.0594ZM23.9029 39.0543C23.0783 37.309 22.3273 35.527 21.6424 33.7048L19.7703 34.4085C20.4736 36.2795 21.2457 38.1119 22.0945 39.9086L23.9029 39.0543ZM19.7998 28.1871C19.2578 26.349 18.7704 24.47 18.3309 22.5469L16.3812 22.9925C16.8292 24.9528 17.3269 26.872 17.8815 28.7528L19.7998 28.1871ZM17.181 16.8214C16.8504 14.9355 16.5563 13.0085 16.2932 11.0377L14.3108 11.3024C14.5771 13.2973 14.8753 15.2514 15.211 17.1668L17.181 16.8214ZM15.6138 5.21314C15.516 4.24847 15.424 3.27373 15.337 2.28864L13.3447 2.46458C13.4324 3.45768 13.5253 4.44098 13.6239 5.41471L15.6138 5.21314ZM15.6252 0.843471C14.7784 0.134159 13.517 0.245564 12.8077 1.09229L1.24884 14.8906C0.53953 15.7373 0.65093 16.9987 1.49766 17.708C2.34439 18.4173 3.60581 18.3059 4.31512 17.4592L14.5897 5.19407L26.8548 15.4686C27.7015 16.1779 28.963 16.0665 29.6723 15.2198C30.3816 14.3731 30.2702 13.1116 29.4234 12.4023L15.6252 0.843471ZM74.1704 80.9339C73.2711 80.5128 72.3861 80.0913 71.515 79.6693L69.7712 83.2692C70.6584 83.699 71.5593 84.128 72.474 84.5564L74.1704 80.9339ZM66.3152 77.0588C64.5413 76.1349 62.8315 75.208 61.1835 74.2771L59.2163 77.7599C60.9057 78.7142 62.6554 79.6627 64.4675 80.6065L66.3152 77.0588ZM56.1816 71.3235C54.4874 70.2762 52.8669 69.2229 51.3166 68.1625L49.0584 71.4641C50.662 72.561 52.3343 73.6477 54.0783 74.7258L56.1816 71.3235ZM46.6383 64.7794C45.0645 63.5738 43.5742 62.3577 42.1626 61.1293L39.5367 64.1467C41.0139 65.4321 42.5689 66.7008 44.2059 67.9548L46.6383 64.7794ZM37.9606 57.2067C36.5799 55.8204 35.2882 54.4163 34.0792 52.992L31.0297 55.5806C32.3092 57.0879 33.6729 58.5699 35.1265 60.0294L37.9606 57.2067ZM30.5684 48.4802C29.4524 46.9098 28.422 45.3118 27.4699 43.6827L24.0165 45.701C25.0281 47.432 26.1228 49.1298 27.3079 50.7973L30.5684 48.4802ZM24.807 38.6272C23.9947 36.9076 23.2542 35.1507 22.5784 33.3529L18.8342 34.7603C19.5467 36.6558 20.3294 38.5134 21.1903 40.3358L24.807 38.6272ZM20.759 27.9043C20.2233 26.0875 19.741 24.2286 19.3058 22.3241L15.4063 23.2153C15.8586 25.1942 16.3615 27.1336 16.9223 29.0357L20.759 27.9043ZM18.166 16.6487C17.8379 14.7776 17.5459 12.8641 17.2844 10.9054L13.3196 11.4347C13.5875 13.4417 13.8877 15.4094 14.2261 17.3395L18.166 16.6487ZM16.6087 5.11235C16.5114 4.15222 16.4197 3.18176 16.3331 2.20067L12.3486 2.55256C12.4367 3.54965 12.5299 4.53723 12.629 5.5155L16.6087 5.11235Z"/>
</svg>
