<svg>
<path d="M11.454 1.109C10.962 0.858216 10.3598 1.05381 10.109 1.54587L6.02221 9.56449C5.77143 10.0566 5.96702 10.6587 6.45908 10.9095C6.95115 11.1603 7.55334 10.9647 7.80413 10.4727L11.4368 3.345L18.5645 6.9777C19.0565 7.22848 19.6587 7.03289 19.9095 6.54082C20.1603 6.04876 19.9647 5.44657 19.4727 5.19578L11.454 1.109ZM90.6192 76.8236C89.6841 76.6224 88.7575 76.4091 87.8392 76.184L87.3631 78.1265C88.2997 78.3561 89.2448 78.5736 90.1983 78.7788L90.6192 76.8236ZM82.3593 74.6734C80.5268 74.111 78.7298 73.5008 76.9684 72.8456L76.2711 74.7201C78.0689 75.3888 79.9026 76.0115 81.7726 76.5854L82.3593 74.6734ZM71.703 70.7094C69.9522 69.9385 68.239 69.1222 66.5632 68.2636L65.6513 70.0436C67.3615 70.9199 69.1101 71.753 70.8971 72.5398L71.703 70.7094ZM61.582 65.5252C59.9359 64.5569 58.329 63.5471 56.7611 62.499L55.6497 64.1617C57.249 65.2308 58.8883 66.2611 60.568 67.2491L61.582 65.5252ZM52.1247 59.2061C50.6005 58.0578 49.1169 56.873 47.6734 55.6551L46.3837 57.1837C47.8548 58.4249 49.3672 59.6327 50.9213 60.8035L52.1247 59.2061ZM43.424 51.8689C42.0341 50.5621 40.6856 49.2247 39.3785 47.8605L37.9344 49.2441C39.2651 50.633 40.6383 51.995 42.0541 53.3261L43.424 51.8689ZM35.5438 43.6481C34.295 42.2048 33.0889 40.7376 31.9253 39.2504L30.3501 40.4828C31.5337 41.9954 32.7606 43.4881 34.0313 44.9567L35.5438 43.6481ZM28.5213 34.6766C27.4165 33.1155 26.3559 31.5378 25.3393 29.9479L23.6543 31.0253C24.6875 32.6412 25.7655 34.2449 26.8887 35.8319L28.5213 34.6766ZM22.3816 25.0775C21.4238 23.4154 20.5125 21.745 19.6473 20.0711L17.8706 20.9894C18.7496 22.6901 19.6755 24.3872 20.6487 26.0761L22.3816 25.0775ZM17.1452 14.9471C16.3409 13.2001 15.5864 11.4547 14.8811 9.7164L13.0278 10.4683C13.7446 12.2349 14.5113 14.0085 15.3284 15.7834L17.1452 14.9471ZM12.8637 4.38863C12.546 3.48564 12.2418 2.58618 11.951 1.69104L10.0489 2.30887C10.3446 3.21943 10.654 4.1342 10.977 5.05239L12.8637 4.38863ZM11.9081 0.218043C10.924 -0.283527 9.7196 0.10766 9.21803 1.09179L1.04448 17.129C0.542905 18.1131 0.934093 19.3175 1.91822 19.8191C2.90234 20.3207 4.10674 19.9295 4.60831 18.9454L11.8737 4.69005L26.129 11.9554C27.1131 12.457 28.3175 12.0658 28.8191 11.0817C29.3207 10.0976 28.9295 8.89317 27.9454 8.3916L11.9081 0.218043ZM90.8296 75.846C89.9038 75.6467 88.9863 75.4356 88.0773 75.2127L87.1251 79.0978C88.0709 79.3296 89.0252 79.5492 89.9879 79.7565L90.8296 75.846ZM82.6527 73.7174C80.8388 73.1607 79.0603 72.5568 77.317 71.9083L75.9225 75.6573C77.7384 76.3328 79.5906 76.9618 81.4792 77.5414L82.6527 73.7174ZM72.106 69.7942C70.3732 69.0312 68.6777 68.2234 67.0192 67.3736L65.1953 70.9336C66.9228 71.8187 68.689 72.6602 70.4941 73.455L72.106 69.7942ZM62.089 64.6632C60.4597 63.7048 58.8691 62.7052 57.3169 61.6676L55.0939 64.993C56.709 66.0726 58.3646 67.1131 60.061 68.111L62.089 64.6632ZM52.7264 58.4074C51.2172 57.2704 49.7479 56.097 48.3183 54.8908L45.7389 57.948C47.2237 59.2008 48.7505 60.4201 50.3195 61.6022L52.7264 58.4074ZM44.109 51.1403C42.7319 49.8457 41.3959 48.5206 40.1006 47.1686L37.2123 49.9359C38.5549 51.3372 39.9404 52.7114 41.3692 54.0547L44.109 51.1403ZM36.3 42.9938C35.0622 41.5632 33.8666 40.1086 32.7128 38.6341L29.5626 41.0991C30.7561 42.6243 31.9934 44.1297 33.2751 45.611L36.3 42.9938ZM29.3375 34.0989C28.242 32.5509 27.1901 30.9862 26.1818 29.4092L22.8118 31.564C23.8533 33.1929 24.9401 34.8095 26.0724 36.4096L29.3375 34.0989ZM23.248 24.5783C22.2979 22.9295 21.3939 21.2725 20.5357 19.6119L16.9822 21.4485C17.8682 23.1626 18.8014 24.8731 19.7822 26.5754L23.248 24.5783ZM18.0535 14.5289C17.2557 12.7959 16.5073 11.0646 15.8077 9.34046L12.1012 10.8442C12.8237 12.625 13.5965 14.4126 14.4201 16.2016L18.0535 14.5289ZM13.807 4.05676C13.492 3.16136 13.1904 2.26956 12.9021 1.38213L9.09777 2.61779C9.39602 3.53606 9.70798 4.45848 10.0337 5.38427L13.807 4.05676Z" />
</svg>
