<svg width="66" height="66" viewBox="0 0 66 66" fill="none" xmlns="http://www.w3.org/2000/svg">
<circle cx="33" cy="33" r="33" fill="white"/>
<path d="M32 51.1656C31.8142 51.1652 31.6309 51.1216 31.4648 51.0384L14.4992 42.5736C14.2993 42.4739 14.1312 42.3205 14.0137 42.1306C13.8963 41.9406 13.8342 41.7217 13.8344 41.4984V24.5664C13.8346 24.3434 13.8969 24.125 14.0144 23.9355C14.1318 23.746 14.2997 23.593 14.4992 23.4936L31.4648 15.0264C31.631 14.9435 31.8143 14.9004 32 14.9004C32.1857 14.9004 32.369 14.9435 32.5352 15.0264L49.5008 23.4936C49.7003 23.593 49.8682 23.746 49.9856 23.9355C50.103 24.125 50.1654 24.3434 50.1656 24.5664V41.4984C50.1658 41.7217 50.1037 41.9406 49.9863 42.1306C49.8688 42.3205 49.7007 42.4739 49.5008 42.5736L32.5352 51.0384C32.3691 51.1216 32.1858 51.1652 32 51.1656ZM16.2344 40.7568L32 48.624L47.7656 40.7568V25.32L32 17.4408L16.2344 25.32V40.7568Z" fill="#231F20"/>
<path d="M32 34.2C31.8143 34.2004 31.6311 34.1577 31.4648 34.0752L14.5016 25.6416C14.2152 25.5 13.9967 25.2504 13.8943 24.9477C13.7919 24.645 13.814 24.3141 13.9556 24.0276C14.0972 23.7412 14.3468 23.5227 14.6495 23.4203C14.9522 23.318 15.2832 23.34 15.5696 23.4816L32 31.6416L48.4304 23.4816C48.5722 23.4115 48.7265 23.37 48.8843 23.3595C49.0422 23.349 49.2006 23.3696 49.3505 23.4203C49.5004 23.471 49.6388 23.5508 49.7578 23.655C49.8769 23.7592 49.9743 23.8858 50.0444 24.0276C50.1145 24.1694 50.156 24.3237 50.1665 24.4816C50.1771 24.6394 50.1564 24.7978 50.1057 24.9477C50.055 25.0976 49.9752 25.236 49.871 25.3551C49.7669 25.4741 49.6402 25.5715 49.4984 25.6416L32.5352 34.0752C32.3689 34.1577 32.1857 34.2004 32 34.2Z" fill="#231F20"/>
<path d="M40.4816 29.9832C40.2968 29.9832 40.1144 29.9405 39.9488 29.8584L22.9832 21.4248C22.6968 21.2832 22.4783 21.0336 22.3759 20.7309C22.2735 20.4282 22.2956 20.0973 22.4372 19.8108C22.5788 19.5244 22.8284 19.3059 23.1311 19.2036C23.4338 19.1012 23.7648 19.1232 24.0512 19.2648L41.0168 27.72C41.2595 27.8403 41.4544 28.0392 41.5697 28.2843C41.6851 28.5294 41.7141 28.8063 41.6521 29.07C41.59 29.3337 41.4406 29.5686 41.2281 29.7366C41.0156 29.9046 40.7525 29.9957 40.4816 29.9952V29.9832Z" fill="#231F20"/>
<path d="M32 51.1657C31.6817 51.1657 31.3765 51.0392 31.1515 50.8142C30.9264 50.5891 30.8 50.2839 30.8 49.9657V33C30.8 32.6818 30.9264 32.3766 31.1515 32.1515C31.3765 31.9265 31.6817 31.8 32 31.8C32.3183 31.8 32.6235 31.9265 32.8485 32.1515C33.0736 32.3766 33.2 32.6818 33.2 33V49.9657C33.2 50.2839 33.0736 50.5891 32.8485 50.8142C32.6235 51.0392 32.3183 51.1657 32 51.1657Z" fill="#231F20"/>
</svg>
