<svg width="16" height="15" viewBox="0 0 16 15" fill="none" xmlns="http://www.w3.org/2000/svg">
<path d="M8.24138 15C12.5263 15 16 11.6421 16 7.5C16 3.35786 12.5263 0 8.24138 0C3.95641 0 0.482758 3.35786 0.482758 7.5C0.482758 11.6421 3.95641 15 8.24138 15Z" fill="#FFCC4D"/>
<path d="M12.2651 9.42864C12.1884 9.36156 12.0737 9.35739 11.9914 9.41656C11.9746 9.42864 10.3009 10.6249 8.24138 10.6249C6.18707 10.6249 4.50775 9.42864 4.49138 9.41656C4.40905 9.35739 4.29439 9.36239 4.21767 9.42864C4.14138 9.49531 4.12413 9.60531 4.17715 9.69031C4.23275 9.77989 5.56379 11.8749 8.24138 11.8749C10.919 11.8749 12.2504 9.77989 12.3056 9.69031C12.3586 9.60489 12.3418 9.49531 12.2651 9.42864ZM11.6897 7.91657C11.5091 7.91657 11.341 7.80615 11.281 7.63157C11.1935 7.38199 10.8418 6.66658 10.3966 6.66658C9.9388 6.66658 9.58233 7.42782 9.51207 7.63157C9.43664 7.84949 9.19483 7.96824 8.96681 7.8949C8.74138 7.8224 8.61897 7.58657 8.6944 7.36782C8.74871 7.21116 9.25647 5.83325 10.3966 5.83325C11.5366 5.83325 12.0444 7.21116 12.0983 7.36824C12.1737 7.58657 12.0517 7.82282 11.8259 7.89532C11.7806 7.90949 11.7345 7.91657 11.6897 7.91657ZM7.37931 7.91657C7.19871 7.91657 7.0306 7.80615 6.97026 7.63157C6.88276 7.38199 6.53189 6.66658 6.0862 6.66658C5.62845 6.66658 5.27241 7.42782 5.20215 7.63157C5.12672 7.84949 4.88405 7.96824 4.65689 7.8949C4.43103 7.8224 4.30905 7.58657 4.38448 7.36782C4.43836 7.21116 4.94612 5.83325 6.0862 5.83325C7.22629 5.83325 7.73405 7.21116 7.78836 7.36824C7.86379 7.58657 7.74181 7.82282 7.51595 7.89532C7.47026 7.90949 7.42414 7.91657 7.37931 7.91657Z" fill="#664500"/>
<path d="M14.7823 3.46509C14.7823 3.46509 10.8849 3.53221 8.24137 3.53221C6.55818 3.53221 1.68706 3.48301 1.68706 3.48301L1.46249 3.8482C2.77413 4.62193 5.36939 5.06424 8.24137 5.06424C11.0845 5.06424 13.6621 4.63069 14.9879 3.87196L15.0215 3.85237C15.0215 3.85237 14.8603 3.57556 14.7823 3.46509Z" fill="#FFAC33"/>
<path d="M10.7315 0.143592C10.2091 0.104424 9.66552 0.0773397 9.10517 0.0644226C8.82026 0.0577557 8.53276 0.0535889 8.24138 0.0535889C7.95172 0.0535889 7.66552 0.0577557 7.38233 0.0640059C6.82112 0.076923 6.27715 0.104007 5.75431 0.143175C2.78448 0.366516 0.555603 1.02112 0.555603 2.20283C0.555603 3.69788 4.11767 4.60749 8.24138 4.60749C12.3651 4.60749 15.9272 3.69788 15.9272 2.20283C15.9272 1.02154 13.6996 0.367349 10.7315 0.143592ZM8.24138 3.07619C5.28405 3.07619 2.67672 2.7291 2.67672 1.93615C2.67672 1.71281 2.88965 1.50989 3.25388 1.33238C3.75086 1.09029 4.5375 0.897367 5.49052 0.77028C6.31422 0.661109 7.2569 0.599441 8.24138 0.599441C9.22888 0.599441 10.1746 0.661109 11 0.77153C11.9664 0.900701 12.7612 1.09779 13.2552 1.3453C13.603 1.51947 13.806 1.71781 13.806 1.93615C13.806 2.7291 11.1987 3.07619 8.24138 3.07619Z" fill="#5DADEC"/>
<path d="M11 0.772558C11.9664 0.901804 12.7612 1.09901 13.2552 1.34666L13.2819 1.35375C12.297 0.65582 11.3121 0.286428 10.7315 0.143841C10.209 0.10465 9.66551 0.0775505 9.10516 0.0646259L9.11292 0.0675444L11 0.772558ZM3.25387 1.33373C3.75085 1.0915 4.53749 0.898468 5.4905 0.771307L7.3724 0.0675444L7.38232 0.064209C6.82111 0.0771335 6.27714 0.104233 5.7543 0.143424C5.17369 0.286011 4.18835 0.654986 3.203 1.35333L3.25387 1.33373Z" fill="#3B94D9"/>
<path d="M12.7552 1.40688C12.4707 1.22222 12.175 1.02755 11.8927 0.881647C10.8047 0.318893 9.56163 0 8.24138 0C6.97888 0 5.78664 0.291798 4.73277 0.809114C4.26337 1.03963 3.92199 1.22555 3.79742 1.40688H12.7552Z" fill="#FFCC4D"/>
</svg>
