<svg width="17" height="17" viewBox="0 0 17 17" fill="none" xmlns="http://www.w3.org/2000/svg">
<path d="M16.9566 15.84L13.9378 12.8212C16.4624 9.74242 16.2866 5.1811 13.4002 2.29668C10.34 -0.765561 5.36926 -0.765561 2.29668 2.29668C-0.765561 5.36926 -0.765561 10.34 2.29668 13.4002C5.1811 16.2866 9.74242 16.4624 12.8212 13.9378L15.84 16.9566C15.9062 17.0145 16.0116 17.0145 16.0675 16.9566L16.9566 16.0675C17.0145 16.0116 17.0145 15.9062 16.9566 15.84ZM12.3043 12.3043C9.84787 14.7586 5.86964 14.7586 3.41323 12.3043C0.95889 9.84787 0.95889 5.86964 3.41323 3.41323C5.86964 0.95889 9.84787 0.95889 12.3043 3.41323C14.7586 5.86964 14.7586 9.84787 12.3043 12.3043Z" fill="#C4C4C4"/>
</svg>
