<?xml version="1.0" encoding="utf-8"?>
<!-- Generator: Adobe Illustrator 18.0.0, SVG Export Plug-In . SVG Version: 6.00 Build 0)  -->
<!DOCTYPE svg PUBLIC "-//W3C//DTD SVG 1.1//EN" "http://www.w3.org/Graphics/SVG/1.1/DTD/svg11.dtd">
<svg version="1.1" id="Calque_1" xmlns="http://www.w3.org/2000/svg" xmlns:xlink="http://www.w3.org/1999/xlink" x="0px" y="0px"
	 viewBox="0 0 200 200" enable-background="new 0 0 200 200" xml:space="preserve">
<path fill="#FFFFFF" d="M123.3,39c-0.7-0.6-1.6-0.9-2.5-0.9c-0.6,0-1.2,0.1-1.8,0.4c-1.4,0.7-2.3,2.1-2.3,3.7v33H100
	c-56.2,0-93.2,26.9-99.6,77.7c-0.3,2.8,1.8,4.8,4,4.8c1.2,0,2.4-0.6,3.3-1.8c10.4-13.3,31.6-31.2,71.3-31.2h37.6v33
	c0,1.6,0.9,3,2.3,3.7c0.6,0.3,1.2,0.4,1.8,0.4c0.9,0,1.8-0.3,2.5-0.9l76.3-61L123.3,39z"/>
</svg>
