<svg xmlns="http://www.w3.org/2000/svg" width="84" height="84" viewBox="0 0 84 84">
  <g id="Group_1399" data-name="Group 1399" transform="translate(-134)">
    <circle id="Ellipse_308" data-name="Ellipse 308" cx="42" cy="42" r="42" transform="translate(134)" fill="#f0f1f5"/>
    <g id="icon">
      <path id="Path_157" data-name="Path 157" d="M198.991,52.994a27.275,27.275,0,0,1-.681,6.787,4.331,4.331,0,0,1-3.495,3.164A4.542,4.542,0,0,1,194.1,63a4.369,4.369,0,0,1-4.355-4.384c0-.072,0-.145.006-.217.027-.675.047-1.417.047-2.216a48.454,48.454,0,0,0-2.759-16.655v-.009a1.888,1.888,0,0,0,.977-2.484l0-.005c-2.934-6.684-7.243-10.476-12.011-10.476s-9.077,3.8-12.01,10.476a1.787,1.787,0,0,0-.157.752,1.874,1.874,0,0,0,1.13,1.737v.009a48.455,48.455,0,0,0-2.76,16.655c0,.8.02,1.54.048,2.216a4.366,4.366,0,0,1-5.069,4.543,4.322,4.322,0,0,1-2.215-1.069,4.162,4.162,0,0,1-1.278-2.1,27.309,27.309,0,0,1-.68-6.786,48.562,48.562,0,0,1,1.858-13.463V39.52c.009.009.027.009.046.018a1.81,1.81,0,0,0,2.243-1.173C160.779,27.606,168.045,20.752,176,20.752s15.221,6.853,18.844,17.613a1.812,1.812,0,0,0,2.244,1.173c.019-.009.038-.009.046-.018v.009A48.506,48.506,0,0,1,198.991,52.994Z" fill="#fff" stroke="#231f20" stroke-linecap="round" stroke-linejoin="round" stroke-width="2"/>
      <path id="Path_158" data-name="Path 158" d="M187.033,39.522l-.054.029a1.831,1.831,0,0,1-2.335-.995c-2.281-5.2-5.453-8.242-8.644-8.242s-6.365,3.042-8.646,8.242a1.831,1.831,0,0,1-2.335.995l-.055-.029a1.872,1.872,0,0,1-1.131-1.737,1.8,1.8,0,0,1,.155-.751c2.934-6.685,7.243-10.477,12.011-10.477s9.082,3.8,12.008,10.477a1.885,1.885,0,0,1-.966,2.485Z" fill="#fff" stroke="#231f20" stroke-linecap="round" stroke-linejoin="round" stroke-width="2"/>
      <path id="Path_159" data-name="Path 159" d="M197.132,39.522c-.008.009-.026.009-.046.02a1.813,1.813,0,0,1-2.244-1.173C191.219,27.608,183.954,20.756,176,20.756s-15.221,6.852-18.844,17.613a1.814,1.814,0,0,1-2.244,1.173c-.02-.011-.039-.011-.046-.02a1.875,1.875,0,0,1-1.279-1.793,2.073,2.073,0,0,1,.1-.61C157.833,24.829,166.441,17,176,17s18.165,7.829,22.311,20.119A1.892,1.892,0,0,1,197.132,39.522Z" fill="#fff" stroke="#231f20" stroke-linecap="round" stroke-linejoin="round" stroke-width="2"/>
    </g>
  </g>
</svg>
