<svg width="26" height="26" viewBox="0 0 26 26" fill="none" xmlns="http://www.w3.org/2000/svg">
<g clip-path="url(#clip0)">
<path d="M24.8644 1.69229C23.6911 1.06054 22.3825 2.27891 21.6154 3.00092C19.8555 4.71567 18.3664 6.70117 16.6967 8.50617C14.8466 10.4917 13.1318 12.4772 11.2366 14.4176C10.1536 15.5006 8.98034 16.6739 8.25834 18.0276C6.63383 16.4482 5.23496 14.7334 3.42995 13.3346C2.12133 12.3419 -0.0446752 11.6199 0.000449844 14.0115C0.0907 17.1252 2.84333 20.4645 4.87396 22.5853C5.73133 23.4878 6.85946 24.4354 8.16809 24.4805C9.74746 24.5708 11.372 22.6755 12.3196 21.6376C13.9893 19.8326 15.343 17.8019 16.8772 15.9519C18.8627 13.5151 20.8934 11.1234 22.8337 8.64155C24.0521 7.1073 27.8877 3.31672 24.8644 1.69229Z" fill="black"/>
</g>
<defs>
<clipPath id="clip0">
<rect width="26" height="26" fill="white"/>
</clipPath>
</defs>
</svg>
