<svg width="690" height="48" viewBox="0 0 690 48" fill="none" xmlns="http://www.w3.org/2000/svg">
<g filter="url(#filter0_i)">
<path d="M690 24C690 37.2548 679.255 48 666 48C652.745 48 642 37.2548 642 24C642 10.7452 652.745 0 666 0C679.255 0 690 10.7452 690 24Z" fill="#C4C4C4"/>
<path d="M48 24C48 37.2548 37.2548 48 24 48C10.7452 48 0 37.2548 0 24C0 10.7452 10.7452 0 24 0C37.2548 0 48 10.7452 48 24Z" fill="#C4C4C4"/>
<path d="M369 24C369 37.2548 358.255 48 345 48C331.745 48 321 37.2548 321 24C321 10.7452 331.745 0 345 0C358.255 0 369 10.7452 369 24Z" fill="#C4C4C4"/>
<path d="M368 18H643V30H368V18Z" fill="#C4C4C4"/>
<path d="M47 18H322V30H47V18Z" fill="#C4C4C4"/>
</g>
<defs>
<filter id="filter0_i" x="0" y="0" width="690" height="52" filterUnits="userSpaceOnUse" color-interpolation-filters="sRGB">
<feFlood flood-opacity="0" result="BackgroundImageFix"/>
<feBlend mode="normal" in="SourceGraphic" in2="BackgroundImageFix" result="shape"/>
<feColorMatrix in="SourceAlpha" type="matrix" values="0 0 0 0 0 0 0 0 0 0 0 0 0 0 0 0 0 0 127 0" result="hardAlpha"/>
<feOffset dy="4"/>
<feGaussianBlur stdDeviation="2"/>
<feComposite in2="hardAlpha" operator="arithmetic" k2="-1" k3="1"/>
<feColorMatrix type="matrix" values="0 0 0 0 0 0 0 0 0 0 0 0 0 0 0 0 0 0 0.25 0"/>
<feBlend mode="normal" in2="shape" result="effect1_innerShadow"/>
</filter>
</defs>
</svg>
