<svg width="41" height="41" viewBox="0 0 41 41" fill="none" xmlns="http://www.w3.org/2000/svg">
<path d="M38.95 34.03C34.8716 31.8672 31.7433 30.6545 28.9585 30.1896L29.2467 29.7934C29.3834 29.6567 29.4517 29.4517 29.3834 29.2467L28.743 26.6852C28.9751 26.3572 29.194 26.0179 29.3991 25.6692C31.9456 24.8025 33.2333 23.3375 33.4497 21.1805C34.5682 21.1222 35.5333 20.1239 35.5333 18.9967V13.8717C35.5333 12.7496 34.6407 11.7553 33.4713 11.6888C33.3208 7.74123 31.5802 0 20.5 0C18.0572 0 15.7356 0.484152 13.7622 1.45174C12.3634 0.533721 10.6879 0 8.88331 0C3.96331 0 0 3.96331 0 8.88331C0 12.5913 2.2514 15.7555 5.46669 17.0896V18.9966C5.46669 20.1583 6.49169 21.1833 7.72169 21.1833H8.74669C9.12258 21.1833 9.48381 21.0755 9.801 20.8909C10.1886 22.9473 11.0437 24.9699 12.2571 26.6852L11.6167 29.2466C11.6167 29.3833 11.6167 29.5883 11.7534 29.7933L12.0416 30.1895C9.25679 30.6545 6.12846 31.8672 2.05008 34.0299C0.751693 34.645 0 35.9433 0 37.3783V40.3166C0 40.7267 0.273307 41 0.683307 41H17.0833H17.3566H23.6433H23.9166H40.3166C40.7266 41 40.9999 40.7267 40.9999 40.3167V37.3784C41 36.0117 40.18 34.7133 38.95 34.03ZM20.5038 32.467L22.14 36.2167H18.8372L20.5038 32.467ZM18.3407 37.5833H22.6567L23.0567 39.6333H17.9306L18.3407 37.5833ZM27.675 28.0167L27.9483 29.2467L27.2503 30.2051C27.2057 30.2416 27.1645 30.2857 27.1283 30.34L24.2859 34.2756L23.3841 35.5139L21.5419 31.369C23.7887 31.095 25.7896 29.9499 27.3938 28.3091C27.4886 28.2134 27.5824 28.1163 27.675 28.0167ZM30.3433 23.7659C30.7287 22.8281 31.0192 21.8533 31.2029 20.8708C31.4631 21.0284 31.7593 21.1337 32.0787 21.1694C31.9602 22.1353 31.5311 23.0472 30.3433 23.7659ZM34.0983 13.8033V18.9283C34.0983 19.3383 33.7566 19.7483 33.2783 19.7483H32.2533C31.8433 19.7483 31.4333 19.4066 31.4333 18.9283V18.45V13.8033C31.4333 13.3933 31.775 12.9833 32.2533 12.9833H33.2783C33.6883 12.9833 34.0983 13.325 34.0983 13.8033ZM20.5 1.36669C24.7119 1.36669 31.8005 2.74164 32.1052 11.6961C31.8189 11.7255 31.5446 11.8126 31.2965 11.9463C30.465 6.74274 25.9283 2.73331 20.5 2.73331C19.0001 2.73331 17.5003 3.04962 16.0929 3.68167C15.7517 3.20873 15.3651 2.7711 14.9392 2.37488C16.5901 1.70366 18.4966 1.36669 20.5 1.36669ZM1.36669 8.88331C1.36669 4.715 4.715 1.36661 8.88339 1.36661C11.5221 1.36661 13.8318 2.70872 15.1719 4.75096C15.1901 4.81382 15.2141 4.87131 15.2384 4.91992C15.9384 6.00186 16.3417 7.26164 16.3938 8.58878C16.3945 8.60455 16.3951 8.62041 16.3956 8.63619C16.3983 8.71835 16.4 8.80059 16.4 8.88323C16.4 8.99165 16.3973 9.09952 16.3927 9.20682C16.3923 9.21707 16.392 9.22732 16.3916 9.23757C16.3865 9.34592 16.3793 9.45362 16.3697 9.56069C16.3694 9.56477 16.369 9.56878 16.3687 9.57286C16.0604 12.9509 13.5069 15.687 10.1135 16.2632C10.0613 16.2763 10.0092 16.2969 9.959 16.3238C9.60785 16.3737 9.24886 16.3999 8.88347 16.3999C4.715 16.4 1.36669 13.0517 1.36669 8.88331ZM9.49831 18.9283C9.49831 19.3383 9.15661 19.7483 8.67831 19.7483H7.65331C7.24331 19.7483 6.83331 19.4066 6.83331 18.9283V17.5303C7.04599 17.5802 7.26172 17.6225 7.4801 17.6569C8.15283 17.7916 8.82557 17.8184 9.49831 17.7667V18.9283ZM10.9333 17.5303C14.6088 16.6678 17.3912 13.5342 17.731 9.67976C17.7322 9.66607 17.7335 9.65238 17.7346 9.63868C17.7442 9.52393 17.7517 9.40854 17.7569 9.29259C17.7577 9.27465 17.7583 9.25671 17.7589 9.23877C17.7635 9.12082 17.7665 9.00246 17.7665 8.88331C17.7665 8.79874 17.7651 8.7145 17.7628 8.6305C17.7621 8.60816 17.761 8.5859 17.7602 8.56363C17.758 8.50005 17.7552 8.43663 17.7517 8.37337C17.7505 8.35175 17.749 8.33029 17.7476 8.30867C17.7434 8.24124 17.7383 8.17397 17.7326 8.10703C17.7313 8.09262 17.7301 8.07812 17.7287 8.06371C17.6489 7.18445 17.4421 6.34307 17.1265 5.55766C17.1264 5.5575 17.1263 5.55726 17.1262 5.5571C17.1006 5.49336 17.0743 5.43002 17.0473 5.367C17.0291 5.32431 17.0104 5.28187 16.9917 5.23951C16.9871 5.2291 16.9824 5.21869 16.9777 5.20828C16.924 5.08832 16.8685 4.96917 16.8098 4.85169C17.9717 4.37331 19.2017 4.1 20.5 4.1C25.7617 4.1 30.0667 8.405 30.0667 13.6667V18.45C30.0667 20.7108 29.4781 22.7805 28.5239 24.5269C26.8929 25 24.5465 25.2833 21.1834 25.2833C20.7734 25.2833 20.5001 25.5566 20.5001 25.9666C20.5001 26.3766 20.7734 26.6499 21.1834 26.6499C23.6454 26.6499 25.7044 26.4987 27.3906 26.1827C27.3488 26.2245 27.3069 26.2664 27.265 26.3083C26.9212 26.7667 26.5584 27.1846 26.1793 27.5614C24.5703 29.0604 22.6512 29.9684 20.8019 30.0584C20.7088 30.0184 20.6045 29.9983 20.5 29.9983C20.3949 29.9983 20.3003 30.0189 20.2154 30.0592C19.0834 30.0074 17.9249 29.6485 16.8268 29.0348C15.7143 28.3956 14.6678 27.4742 13.735 26.3083C13.6667 26.24 13.5983 26.1716 13.53 26.1033L13.4901 26.09C11.9555 24.0773 10.9333 21.4295 10.9333 18.45V17.5303ZM19.458 31.369L17.6158 35.5139L16.714 34.2756L13.8716 30.34C13.8498 30.3182 13.8258 30.2967 13.8008 30.2755L13.0516 29.2467L13.3249 28.0167C13.4174 28.1163 13.5113 28.2134 13.6059 28.3089C15.2102 29.9497 17.2112 31.0949 19.458 31.369ZM1.36669 37.3783C1.36669 36.49 1.845 35.67 2.665 35.26C7.02069 32.9461 10.1561 31.7847 12.9493 31.4378L17.027 37.0447L16.5093 39.6333H1.36669V37.3783ZM39.6333 39.6333H24.4907L23.973 37.0447L28.0949 31.377C30.8782 31.797 34.07 32.9575 38.3351 35.1916C39.1551 35.6699 39.6334 36.4899 39.6334 37.3783V39.6333H39.6333Z" fill="black"/>
<path d="M9.56669 10.25H12.3V11.6167C12.3 12.0267 12.5733 12.3 12.9833 12.3C13.3933 12.3 13.6666 12.0267 13.6666 11.6167V10.25H14.3499C14.7599 10.25 15.0332 9.97673 15.0332 9.56673C15.0332 9.15673 14.7599 8.88343 14.3499 8.88343H13.6666V5.46673C13.6666 5.19343 13.4616 4.92004 13.1883 4.78343C12.915 4.71512 12.6416 4.78343 12.4366 4.98843L9.01992 9.08843C8.88323 9.29343 8.81492 9.56673 8.95161 9.84012C9.08831 10.1135 9.29331 10.25 9.56669 10.25ZM12.3 7.38004V8.88335H11.0017L12.3 7.38004Z" fill="#963636"/>
<path d="M8.2 11.0016H5.39831L7.79 8.95159C8.47331 8.26828 8.67831 7.1749 8.33669 6.28659C7.92669 5.3299 7.175 4.7832 6.15 4.7832C4.64669 4.7832 3.41669 6.0132 3.41669 7.51651C3.41669 7.92651 3.69 8.19982 4.1 8.19982C4.51 8.19982 4.78331 7.92651 4.78331 7.51651C4.78331 6.76482 5.39831 6.14982 6.15 6.14982C6.765 6.14982 6.97 6.62812 7.03831 6.83312C7.175 7.10643 7.175 7.58482 6.83331 7.92643L3.75831 10.5914C3.41661 10.8647 3.34831 11.2747 3.485 11.6847C3.69 12.0264 4.03169 12.2997 4.44169 12.2997H8.2C8.61 12.2997 8.88331 12.0947 8.88331 11.6847C8.88331 11.2749 8.61 11.0016 8.2 11.0016Z" fill="#963636"/>
</svg>
