<?xml version="1.0" encoding="utf-8"?><svg viewBox="0 0 690 66" xmlns="http://www.w3.org/2000/svg" xmlns:xlink="http://www.w3.org/1999/xlink"><style>:root>svg{display:none}:root>svg:target{display:block}</style><svg fill="none" viewBox="0 0 19 26" id="arrow-right" xmlns="http://www.w3.org/2000/svg"><path fill="#fff" d="M0 7h8v11H0z"/><path d="M19 13L7 1.742v22.516L19 13z" fill="#fff"/></svg><svg fill="none" viewBox="0 0 21 14" id="arrowDown" xmlns="http://www.w3.org/2000/svg"><path d="M19 2l-8.5 9L2 2" stroke="#000" stroke-width="3"/></svg><svg fill="none" viewBox="0 0 38 38" id="check" xmlns="http://www.w3.org/2000/svg"><path d="M19.138 22.763L34.721 5.659l2.058 1.874L19.28 26.738l-9.538-9.067 1.917-2.017 7.478 7.109zm16.56-9.957l-2.17 2.39a15 15 0 01.483 3.785c0 8.287-6.743 15.03-15.03 15.03-8.287 0-15.029-6.743-15.029-15.03 0-8.287 6.742-15.029 15.03-15.029a14.97 14.97 0 0110.005 3.825l1.876-2.066a17.683 17.683 0 00-11.882-4.542A17.695 17.695 0 006.386 6.386 17.695 17.695 0 001.17 18.981c0 4.758 1.853 9.231 5.217 12.596a17.695 17.695 0 0012.595 5.217c4.758 0 9.231-1.853 12.596-5.217a17.695 17.695 0 005.217-12.596c0-2.14-.376-4.224-1.096-6.175z" fill="#fff"/></svg><svg fill="none" viewBox="0 0 26 26" id="check-mark" xmlns="http://www.w3.org/2000/svg"><g clip-path="url(#dclip0)"><path d="M24.864 1.692c-1.173-.631-2.482.587-3.249 1.309-1.76 1.715-3.249 3.7-4.918 5.505-1.85 1.986-3.565 3.971-5.46 5.912-1.083 1.083-2.257 2.256-2.979 3.61-1.624-1.58-3.023-3.295-4.828-4.693C2.12 12.342-.045 11.62 0 14.01c.09 3.114 2.843 6.454 4.874 8.574.857.903 1.985 1.85 3.294 1.895 1.58.09 3.204-1.805 4.152-2.842 1.67-1.805 3.023-3.836 4.557-5.686 1.986-2.437 4.016-4.829 5.957-7.31 1.218-1.535 5.054-5.325 2.03-6.95z" fill="#000"/></g><defs><clipPath id="dclip0"><path fill="#fff" d="M0 0h26v26H0z"/></clipPath></defs></svg><svg fill="none" viewBox="0 0 37 37" id="delivery" xmlns="http://www.w3.org/2000/svg"><path d="M27.944 21.998a4.67 4.67 0 00-4.664 4.664 4.67 4.67 0 004.664 4.664 4.669 4.669 0 004.664-4.664 4.67 4.67 0 00-4.664-4.664zm0 6.996a2.334 2.334 0 01-2.332-2.332 2.334 2.334 0 012.332-2.332 2.334 2.334 0 012.332 2.332 2.334 2.334 0 01-2.332 2.332zM12.01 21.998a4.67 4.67 0 00-4.664 4.664 4.67 4.67 0 004.664 4.664 4.67 4.67 0 004.664-4.664 4.67 4.67 0 00-4.664-4.664zm0 6.996a2.334 2.334 0 01-2.332-2.332 2.334 2.334 0 012.332-2.332 2.334 2.334 0 012.332 2.332 2.334 2.334 0 01-2.332 2.332zM31.085 8.648a1.167 1.167 0 00-1.042-.642h-6.14v2.332h5.421l3.175 6.315 2.084-1.048-3.498-6.957z" fill="#fff"/><path d="M24.447 25.535h-8.822v2.332h8.822v-2.332zM8.511 25.535H4.47a1.166 1.166 0 100 2.331h4.042a1.166 1.166 0 100-2.331zM36.755 18.407l-2.294-2.954c-.22-.285-.56-.451-.92-.451h-8.473V6.84c0-.644-.522-1.166-1.166-1.166H4.469a1.166 1.166 0 100 2.332h18.267v8.162c0 .644.522 1.166 1.166 1.166h9.068l1.698 2.187v6.014h-3.226a1.166 1.166 0 100 2.331h4.392c.644 0 1.165-.522 1.166-1.165v-7.58c0-.258-.087-.51-.245-.714zM8.434 19.627H3.07a1.166 1.166 0 100 2.332h5.364a1.166 1.166 0 100-2.332zM11.116 15.04h-9.95a1.166 1.166 0 100 2.333h9.95a1.166 1.166 0 100-2.332z" fill="#fff"/><path d="M13.02 10.455H3.07a1.166 1.166 0 100 2.332h9.95a1.166 1.166 0 100-2.332z" fill="#fff"/></svg><svg fill="none" viewBox="0 0 41 41" id="donation" xmlns="http://www.w3.org/2000/svg"><path d="M.095 28.085a.8.8 0 00.706.423h4.004v11.691a.8.8 0 00.8.801h29.79a.8.8 0 00.8-.8V28.507H40.2a.8.8 0 00.666-1.245l-4.804-7.207a.8.8 0 00-.666-.357h-3.043a.8.8 0 100 1.602h2.614l3.737 5.605h-12.97l-3.737-5.605h3.149a.8.8 0 100-1.602H5.605a.8.8 0 00-.666.357L.135 27.263a.8.8 0 00-.04.822zm6.311.423h9.29a.8.8 0 00.666-.357l3.337-5.006v16.253H6.406v-10.89zm18.232-.357a.8.8 0 00.667.357h9.289v10.89H21.3V23.145l3.337 5.006zm-18.604-6.85h12.97l-3.737 5.605H2.297l3.737-5.605zM15.695 2.004C15.041 1.044 13.912 0 12.092 0 9.526 0 7.687 2.068 7.687 4.562c0 2.77 2.241 4.588 5.634 7.34.594.483 1.209.982 1.862 1.526a.8.8 0 001.025 0c.653-.544 1.267-1.043 1.862-1.526 3.392-2.752 5.633-4.57 5.633-7.34C23.703 2.066 21.863 0 19.3 0c-1.82 0-2.95 1.043-3.604 2.004zm6.407 2.558c0 2.006-2.006 3.634-5.041 6.097-.441.358-.894.725-1.366 1.114-.472-.39-.924-.756-1.365-1.114-3.036-2.463-5.04-4.09-5.04-6.097 0-1.688 1.204-2.96 2.802-2.96 2.09 0 2.805 2.327 2.834 2.423a.8.8 0 001.539 0c.007-.024.722-2.423 2.834-2.423 1.598 0 2.803 1.272 2.803 2.96z" fill="#000"/><path d="M30.11 16.016a.799.799 0 00.527-.199c.435-.38.845-.73 1.241-1.068 2.227-1.898 3.837-3.27 3.837-5.31 0-1.925-1.407-3.433-3.203-3.433-1.143 0-1.91.581-2.403 1.204-.493-.623-1.259-1.204-2.402-1.204-1.796 0-3.203 1.508-3.203 3.434 0 2.04 1.61 3.411 3.837 5.31.396.337.806.687 1.241 1.067.15.133.34.199.527.199zM26.104 9.44c0-.889.562-1.833 1.602-1.833 1.18 0 1.611 1.448 1.631 1.517a.802.802 0 00.77.587c.361 0 .677-.239.773-.586.017-.062.447-1.518 1.63-1.518 1.041 0 1.602.944 1.602 1.833 0 1.3-1.232 2.35-3.274 4.09l-.73.625a187.7 187.7 0 00-.73-.624c-2.041-1.74-3.274-2.79-3.274-4.091z" fill="#FFAB00"/><path d="M28.748 21.3a.8.8 0 100-1.6.8.8 0 000 1.6z" fill="#000"/></svg><svg fill="none" viewBox="0 0 35 35" id="dot" xmlns="http://www.w3.org/2000/svg"><circle cx="17.5" cy="17.5" r="10.5" fill="#79C89C"/><circle opacity=".5" cx="17.5" cy="17.5" r="14.5" fill="#79C89C"/><circle opacity=".3" cx="17.5" cy="17.5" r="17.5" fill="#79C89C"/></svg><svg fill="none" viewBox="0 0 31 66" id="men" xmlns="http://www.w3.org/2000/svg"><path d="M15.5 14c3.585 0 6.5-3.14 6.5-7s-2.915-7-6.5-7C11.916 0 9 3.14 9 7s2.916 7 6.5 7z" fill="#000"/><path d="M30.962 34.093a.809.809 0 00.022-.399l-3.227-16.957A3.261 3.261 0 0024.518 14H6.481c-1.618 0-2.98 1.152-3.234 2.716L.015 33.694a.82.82 0 00.022.4 2.83 2.83 0 00-.037.453c0 1.796 1.475 3.256 3.289 3.256a3.28 3.28 0 003.231-2.686l2.037-12.609-.026 40.237c0 1.796 1.474 3.255 3.288 3.255 1.813 0 3.288-1.46 3.288-3.255V42.829h.785v19.916c0 1.796 1.475 3.255 3.29 3.255 1.813 0 3.287-1.46 3.287-3.256l-.026-40.236 2.04 12.628a3.276 3.276 0 003.23 2.667c1.812 0 3.287-1.46 3.287-3.256 0-.15-.012-.3-.038-.454z" fill="#000"/></svg><svg fill="none" viewBox="0 0 41 41" id="operator" xmlns="http://www.w3.org/2000/svg"><path d="M38.95 34.03c-4.078-2.163-7.207-3.376-9.992-3.84l.289-.397c.136-.136.205-.341.136-.546l-.64-2.562c.232-.328.451-.667.656-1.016 2.547-.867 3.834-2.332 4.05-4.489 1.12-.058 2.084-1.056 2.084-2.183v-5.125c0-1.122-.892-2.117-2.062-2.183C33.321 7.74 31.581 0 20.5 0c-2.443 0-4.764.484-6.738 1.452A8.859 8.859 0 008.883 0 8.866 8.866 0 000 8.883a8.866 8.866 0 005.467 8.207v1.907c0 1.161 1.025 2.186 2.255 2.186h1.025c.376 0 .737-.107 1.054-.292a14.944 14.944 0 002.456 5.794l-.64 2.562c0 .136 0 .341.136.546l.289.396c-2.785.465-5.914 1.678-9.992 3.84C.752 34.646 0 35.944 0 37.38v2.938c0 .41.273.683.683.683h39.634c.41 0 .683-.273.683-.683v-2.939c0-1.366-.82-2.665-2.05-3.348zm-18.446-1.563l1.636 3.75h-3.303l1.667-3.75zm-2.163 5.116h4.316l.4 2.05H17.93l.41-2.05zm9.334-9.566l.273 1.23-.698.958a.61.61 0 00-.122.135l-2.842 3.936-.902 1.238-1.842-4.145c2.247-.274 4.248-1.42 5.852-3.06.095-.096.188-.193.281-.292zm2.668-4.251a14.79 14.79 0 00.86-2.895c.26.157.556.263.876.298-.119.966-.548 1.878-1.736 2.597zm3.755-9.963v5.125a.83.83 0 01-.82.82h-1.025a.83.83 0 01-.82-.82v-5.125c0-.41.342-.82.82-.82h1.025c.41 0 .82.342.82.82zM20.5 1.367c4.212 0 11.3 1.375 11.605 10.33-.286.029-.56.116-.808.25-.832-5.204-5.369-9.214-10.797-9.214-1.5 0-3 .317-4.407.949a8.885 8.885 0 00-1.154-1.307c1.651-.671 3.558-1.008 5.561-1.008zM1.367 8.883a7.495 7.495 0 017.516-7.516 7.493 7.493 0 016.289 3.384c.018.063.042.12.066.169a7.26 7.26 0 011.155 4.287l-.001.03a7.64 7.64 0 01-.022.324l-.001.012c-.309 3.378-2.862 6.114-6.255 6.69a.679.679 0 00-.155.06 7.64 7.64 0 01-1.076.077 7.495 7.495 0 01-7.516-7.517zm8.131 10.045a.83.83 0 01-.82.82H7.653a.83.83 0 01-.82-.82V17.53c.213.05.429.092.647.127a7.351 7.351 0 002.018.11v1.161zm1.435-1.398a8.863 8.863 0 006.798-7.85l.004-.041c.01-.115.017-.23.022-.346l.002-.054a9.112 9.112 0 00.004-.609l-.003-.066a9.209 9.209 0 00-.008-.19l-.004-.065a8.895 8.895 0 00-.015-.202l-.004-.043a8.861 8.861 0 00-.602-2.506 9 9 0 00-.135-.318l-.014-.032a9.28 9.28 0 00-.168-.356A9.624 9.624 0 0120.5 4.1c5.262 0 9.567 4.305 9.567 9.567v4.783c0 2.26-.589 4.33-1.543 6.077-1.631.473-3.977.756-7.34.756-.41 0-.684.274-.684.684 0 .41.273.683.683.683 2.462 0 4.521-.151 6.208-.467l-.126.125a11.45 11.45 0 01-1.086 1.253c-1.609 1.5-3.528 2.407-5.377 2.497a.77.77 0 00-.302-.06c-.105 0-.2.02-.285.061-1.132-.052-2.29-.41-3.388-1.024-1.113-.64-2.16-1.56-3.092-2.727l-.205-.205-.04-.013a12.59 12.59 0 01-2.557-7.64v-.92zm8.525 13.839l-1.842 4.145-.902-1.238-2.842-3.936a1.177 1.177 0 00-.071-.064l-.75-1.03.274-1.23c.092.1.186.197.28.293 1.605 1.64 3.606 2.786 5.853 3.06zm-18.091 6.01c0-.889.478-1.709 1.298-2.119 4.356-2.314 7.491-3.475 10.284-3.822l4.078 5.607-.518 2.588H1.367v-2.255zm38.266 2.254H24.491l-.518-2.588 4.122-5.668c2.783.42 5.975 1.58 10.24 3.815.82.478 1.298 1.298 1.298 2.186v2.255z" fill="#000"/><path d="M9.567 10.25H12.3v1.367c0 .41.273.683.683.683.41 0 .684-.273.684-.683V10.25h.683c.41 0 .683-.273.683-.683 0-.41-.273-.684-.683-.684h-.683V5.467c0-.274-.205-.547-.479-.684a.771.771 0 00-.751.205l-3.417 4.1c-.137.205-.205.479-.068.752.136.274.341.41.615.41zM12.3 7.38v1.503h-1.298L12.3 7.38zM8.2 11.002H5.398l2.392-2.05c.683-.684.888-1.777.547-2.665-.41-.957-1.162-1.504-2.187-1.504a2.741 2.741 0 00-2.733 2.734c0 .41.273.683.683.683.41 0 .683-.273.683-.683A1.37 1.37 0 016.15 6.15c.615 0 .82.478.888.683a.979.979 0 01-.205 1.093l-3.075 2.665c-.341.274-.41.684-.273 1.094.205.341.547.615.957.615H8.2c.41 0 .683-.205.683-.615 0-.41-.273-.683-.683-.683z" fill="#FFAB00"/></svg><svg fill="none" viewBox="0 0 46 46" id="payment" xmlns="http://www.w3.org/2000/svg"><path d="M15.502 35.21a.928.928 0 00-.133-.323.86.86 0 00-.248-.248.885.885 0 00-.324-.134.887.887 0 00-.674.134.858.858 0 00-.247.248.85.85 0 00-.134.323.884.884 0 00.133.674.853.853 0 00.248.248.908.908 0 00.674.134.885.885 0 00.654-.537.898.898 0 00.051-.519z" fill="#FFAB00"/><path d="M41.328 35.487a.873.873 0 00-.011-.027c-.827-1.935-2.767-2.65-5.062-1.866l-6.259 1.73c-.362-1.095-1.265-2.028-2.54-2.501l-.025-.009-6.88-2.335c-.573-.74-2.366-2.634-5.725-2.634-2.347 0-4.424 1.61-5.612 3.365H.898a.898.898 0 00-.898.898v11.328c0 .496.402.898.898.898H6.24a.898.898 0 00.899-.898v-.776h2.505a.899.899 0 00.898-.898v-.259c1.46.127 1.94.404 3.282 1.178 1.031.595 2.59 1.493 5.398 2.756a8.065 8.065 0 002.93.562c.903 0 1.926-.162 2.976-.638l13.835-4.954a.883.883 0 00.073-.03c1.322-.608 3.292-2.322 2.291-4.89zm-35.986 7.05H1.797v-9.53h3.545v9.53zm3.403-1.674H7.14v-7.856h1.606v7.856zm29.573-2.133l-13.829 4.95a.998.998 0 00-.077.032c-1.926.885-3.756.355-4.474.076-2.711-1.22-4.159-2.054-5.216-2.664-1.47-.848-2.179-1.257-4.18-1.422v-7.236c.852-1.396 2.503-2.825 4.284-2.825 3.053 0 4.347 1.987 4.398 2.067.11.178.278.313.477.38l7.14 2.423c1.14.428 1.743 1.405 1.466 2.379a1.74 1.74 0 01-.832 1.05 1.74 1.74 0 01-1.319.158l-8.05-2.55a.898.898 0 10-.542 1.712l8.063 2.556a3.56 3.56 0 001.001.145 3.53 3.53 0 001.722-.451 3.524 3.524 0 001.74-2.347l6.746-1.869c.974-.333 2.253-.452 2.823.859.589 1.54-.943 2.386-1.341 2.577z" fill="#FFAB00"/><path d="M32.26 11.819a.879.879 0 00-.136-.324.849.849 0 00-.247-.248.915.915 0 00-.323-.134.892.892 0 00-.675.134.863.863 0 00-.248.248.91.91 0 00-.151.499.884.884 0 00.069.343.885.885 0 00.486.486.906.906 0 00.519.051.95.95 0 00.323-.134.863.863 0 00.33-.403.851.851 0 00.07-.343.883.883 0 00-.018-.175z" fill="#000"/><path d="M45.102 3.045H39.76a.898.898 0 00-.899.898v.776h-2.505a.898.898 0 00-.898.898v.259c-1.46-.128-1.94-.404-3.282-1.178-1.031-.595-2.59-1.494-5.398-2.756a.794.794 0 00-.04-.016c-.913-.36-3.308-1.067-5.866.092l-3.615 1.294L14.209.265a.898.898 0 00-1.27 0L2.934 10.27a.891.891 0 000 1.27L20.03 28.638c.274.273.914.356 1.27 0l9.135-9.134c.237.02.484.031.74.031 2.346 0 4.423-1.61 5.61-3.365h8.317a.898.898 0 00.898-.898V3.943a.898.898 0 00-.898-.898zM13.574 2.17l2.048 2.048a3.879 3.879 0 01-2.048.578c-.735 0-1.439-.202-2.048-.578l2.048-2.048zM6.888 12.953L4.84 10.905l2.048-2.048c.376.61.578 1.313.578 2.048 0 .735-.202 1.44-.578 2.048zM20.666 26.73l-2.048-2.048a3.912 3.912 0 014.095 0l-2.047 2.048zm3.341-3.342a5.71 5.71 0 00-6.683 0l-9.142-9.142a5.656 5.656 0 001.08-3.342 5.655 5.655 0 00-1.08-3.342l2.05-2.05a5.656 5.656 0 003.342 1.08 5.656 5.656 0 003.342-1.08l1.944 1.943c-.42.062-.829.2-1.21.413a3.521 3.521 0 00-1.464 1.546 5.119 5.119 0 00-2.688 1.415 5.127 5.127 0 000 7.242 5.106 5.106 0 003.622 1.498c1.311 0 2.623-.5 3.621-1.498a5.101 5.101 0 001.333-2.318l3.033 1.03a5.736 5.736 0 00.952 4.553l-2.052 2.052zm-5.462-8.833l.024.009 1.796.61a3.328 3.328 0 01-5.596 1.627 3.328 3.328 0 011.084-5.425c.166 1.38 1.16 2.61 2.692 3.18zm8.809 5.487a3.93 3.93 0 01-.574-1.869c.43.311.956.616 1.584.858l-1.01 1.01zm8.104-5.13c-.852 1.395-2.503 2.824-4.284 2.824-.333 0-.645-.023-.937-.066h-.004c-1.94-.282-2.984-1.385-3.328-1.821-.018-.027-.096-.13-.108-.147a.895.895 0 00-.495-.411l-7.143-2.425c-1.14-.428-1.743-1.404-1.466-2.377v-.002-.002c.13-.449.424-.82.831-1.048a1.739 1.739 0 011.32-.158l8.05 2.551a.898.898 0 10.542-1.713L22.034 8.09l-.056-.056-.002-.002-3.314-3.314 2.849-1.02a.88.88 0 00.03-.012l.01-.004a.901.901 0 00.037-.016c1.925-.885 3.756-.355 4.474-.076 2.711 1.22 4.159 2.055 5.216 2.665 1.47.847 2.179 1.256 4.18 1.421v7.236zm3.403-.541h-1.606V6.516h1.606v7.856zm5.342 0h-3.545v-9.53h3.545v9.53z" fill="#000"/></svg><svg fill="none" viewBox="0 0 43 43" id="resume" xmlns="http://www.w3.org/2000/svg"><path d="M34.77 12.493a.84.84 0 00.84-.84V2.52c0-1.39-1.13-2.52-2.52-2.52H2.52C1.131 0 0 1.13 0 2.52v37.96C0 41.87 1.132 43 2.52 43h30.57c1.39 0 2.52-1.13 2.52-2.52v-6.187a.84.84 0 10-1.68 0v6.188a.84.84 0 01-.84.84H2.52a.84.84 0 01-.84-.84V2.52a.84.84 0 01.84-.84h30.57a.84.84 0 01.84.84v9.133c0 .464.377.84.84.84z" fill="#000"/><path d="M17.805 4.535c-4.26 0-7.726 3.466-7.726 7.727a7.706 7.706 0 002.515 5.7 7.697 7.697 0 005.211 2.026 7.697 7.697 0 005.301-2.11 7.705 7.705 0 002.426-5.616c0-4.26-3.466-7.727-7.727-7.727zm0 13.774a6.015 6.015 0 01-3.652-1.232 4.172 4.172 0 013.652-2.128c1.537 0 2.915.819 3.653 2.128a6.015 6.015 0 01-3.653 1.232zm-1.343-6.383v-.546c0-.741.602-1.344 1.343-1.344s1.344.603 1.344 1.344v.546c0 .74-.603 1.344-1.344 1.344-.74 0-1.343-.603-1.343-1.344zm6.21 3.92a5.826 5.826 0 00-2.475-2.074 3.008 3.008 0 00.632-1.846v-.546a3.027 3.027 0 00-3.024-3.024 3.027 3.027 0 00-3.023 3.024v.546c0 .695.236 1.335.632 1.846a5.826 5.826 0 00-2.475 2.074 6.014 6.014 0 01-1.18-3.584 6.054 6.054 0 016.046-6.047 6.054 6.054 0 016.047 6.047c0 1.34-.44 2.58-1.18 3.584z" fill="#FFAB00"/><path d="M22.34 36.785h-4.535a.84.84 0 100 1.68h4.535a.84.84 0 100-1.68zM22.34 32.082H10.415a.84.84 0 000 1.68H22.34a.84.84 0 100-1.68zM22.34 27.379H10.415a.84.84 0 000 1.68H22.34a.84.84 0 100-1.68zM7.421 22.922a.846.846 0 00-.594-.246.846.846 0 00-.594.246.846.846 0 00-.246.594c0 .22.09.437.246.593a.848.848 0 00.594.246c.222 0 .437-.09.594-.246a.846.846 0 00.247-.593c0-.221-.09-.438-.247-.594zM7.421 27.625a.848.848 0 00-.594-.246.848.848 0 00-.594.246.846.846 0 00-.246.594c0 .22.09.437.246.593a.848.848 0 00.594.247c.222 0 .437-.09.594-.247a.846.846 0 00.247-.593c0-.221-.09-.438-.247-.594zM7.421 32.328a.848.848 0 00-.594-.246.848.848 0 00-.594.246.846.846 0 00-.246.594c0 .22.09.437.246.594a.846.846 0 00.594.246c.222 0 .438-.09.594-.246a.846.846 0 00.247-.594c0-.221-.09-.438-.247-.594zM22.34 22.676H10.415a.84.84 0 000 1.68H22.34a.84.84 0 000-1.68zM41.236 10.945a3.505 3.505 0 00-2.676-.353c-.91.244-1.671.828-2.142 1.644L25.85 30.54a.84.84 0 00-.107.327l-.744 6.664a.84.84 0 001.333.77l5.399-3.977a.836.836 0 00.229-.256l10.569-18.306a3.531 3.531 0 00-1.291-4.818zM26.88 35.81l.389-3.48 2.43 1.404-2.819 2.076zm4.044-3.308l-3.2-1.848 8.481-14.69 3.2 1.848-8.48 14.69zm10.149-17.579l-.828 1.434-3.2-1.847.828-1.434a1.835 1.835 0 011.122-.861 1.835 1.835 0 011.402.184c.427.247.733.646.86 1.122.128.477.063.975-.184 1.402z" fill="#000"/></svg><svg fill="none" viewBox="0 0 690 48" id="steps-line" xmlns="http://www.w3.org/2000/svg"><g filter="url(#lfilter0_i)" fill="#C4C4C4"><path d="M690 24c0 13.255-10.745 24-24 24s-24-10.745-24-24 10.745-24 24-24 24 10.745 24 24zM48 24c0 13.255-10.745 24-24 24S0 37.255 0 24 10.745 0 24 0s24 10.745 24 24zM369 24c0 13.255-10.745 24-24 24s-24-10.745-24-24 10.745-24 24-24 24 10.745 24 24z"/><path d="M368 18h275v12H368V18zM47 18h275v12H47V18z"/></g><defs><filter id="lfilter0_i" x="0" y="0" width="690" height="52" filterUnits="userSpaceOnUse" color-interpolation-filters="sRGB"><feFlood flood-opacity="0" result="BackgroundImageFix"/><feBlend in="SourceGraphic" in2="BackgroundImageFix" result="shape"/><feColorMatrix in="SourceAlpha" values="0 0 0 0 0 0 0 0 0 0 0 0 0 0 0 0 0 0 127 0" result="hardAlpha"/><feOffset dy="4"/><feGaussianBlur stdDeviation="2"/><feComposite in2="hardAlpha" operator="arithmetic" k2="-1" k3="1"/><feColorMatrix values="0 0 0 0 0 0 0 0 0 0 0 0 0 0 0 0 0 0 0.25 0"/><feBlend in2="shape" result="effect1_innerShadow"/></filter></defs></svg><svg fill="none" viewBox="0 0 324 23" id="steps-line-min" xmlns="http://www.w3.org/2000/svg"><g filter="url(#mfilter0_i)" fill="#C4C4C4"><path d="M324 11.5c0 6.351-5.046 11.5-11.27 11.5-6.224 0-11.269-5.149-11.269-11.5S306.506 0 312.73 0 324 5.149 324 11.5zM22.54 11.5c0 6.351-5.046 11.5-11.27 11.5C5.046 23 0 17.851 0 11.5S5.046 0 11.27 0c6.224 0 11.27 5.149 11.27 11.5zM173.27 11.5c0 6.351-5.046 11.5-11.27 11.5-6.224 0-11.27-5.149-11.27-11.5S155.776 0 162 0c6.224 0 11.27 5.149 11.27 11.5z"/><path d="M172.8 8.625h129.13v5.75H172.8v-5.75zM22.07 8.625H151.2v5.75H22.07v-5.75z"/></g><defs><filter id="mfilter0_i" x="0" y="0" width="324" height="27" filterUnits="userSpaceOnUse" color-interpolation-filters="sRGB"><feFlood flood-opacity="0" result="BackgroundImageFix"/><feBlend in="SourceGraphic" in2="BackgroundImageFix" result="shape"/><feColorMatrix in="SourceAlpha" values="0 0 0 0 0 0 0 0 0 0 0 0 0 0 0 0 0 0 127 0" result="hardAlpha"/><feOffset dy="4"/><feGaussianBlur stdDeviation="2"/><feComposite in2="hardAlpha" operator="arithmetic" k2="-1" k3="1"/><feColorMatrix values="0 0 0 0 0 0 0 0 0 0 0 0 0 0 0 0 0 0 0.25 0"/><feBlend in2="shape" result="effect1_innerShadow"/></filter></defs></svg><svg fill="none" viewBox="0 0 46 46" id="timer" xmlns="http://www.w3.org/2000/svg"><path d="M37.612 10.657c-3.583-3.591-8.252-5.7-13.264-6.02V2.694h1.976a1.348 1.348 0 000-2.695h-6.648a1.348 1.348 0 000 2.695h1.976v1.941a20.45 20.45 0 00-9.586 3.084l-1.28-1.283a3.275 3.275 0 00-2.334-.968c-.882 0-1.711.344-2.334.968L4.17 8.388a3.302 3.302 0 000 4.658l1.289 1.292a20.597 20.597 0 00-3.124 10.958c0 5.53 2.149 10.729 6.051 14.639A20.509 20.509 0 0023 46c5.52 0 10.71-2.154 14.612-6.065a20.589 20.589 0 006.052-14.64 20.59 20.59 0 00-6.052-14.638zM6.08 10.292l1.947-1.95a.6.6 0 01.852 0l.976.978a21.051 21.051 0 00-2.797 2.803l-.978-.98a.603.603 0 010-.85zm16.92 33.013c-9.907 0-17.968-8.08-17.968-18.01 0-9.93 8.06-18.008 17.969-18.008 9.908 0 17.969 8.079 17.969 18.009s-8.061 18.009-17.97 18.009z" fill="#000"/><path d="M23 9.813c-8.52 0-15.453 6.946-15.453 15.483S14.479 40.778 23 40.778c8.521 0 15.453-6.945 15.453-15.482 0-8.537-6.932-15.483-15.453-15.483zm1.348 28.199v-1.575a1.348 1.348 0 00-2.696 0v1.575c-5.961-.63-10.712-5.393-11.339-11.369h1.546a1.348 1.348 0 000-2.695h-1.546c.627-5.976 5.378-10.738 11.34-11.368v1.575a1.348 1.348 0 002.695 0V12.58c5.961.63 10.712 5.392 11.34 11.368H34.14a1.348 1.348 0 000 2.695h1.546c-.627 5.976-5.378 10.739-11.34 11.369z" fill="#000"/><path d="M26.324 24.518h-1.901v-5.45a1.348 1.348 0 00-2.695 0v6.798c0 .744.603 1.347 1.347 1.347h3.25a1.348 1.348 0 100-2.695z" fill="#000"/></svg><svg fill="none" viewBox="0 0 31 66" id="women" xmlns="http://www.w3.org/2000/svg"><path d="M21.5 7c0 3.62-2.726 6.5-6 6.5s-6-2.88-6-6.5 2.725-6.5 6-6.5c3.274 0 6 2.88 6 6.5zM30.484 33.757v.001c.02.065.018.13 0 .191l-.033.11.018.111c.02.134.031.258.031.377 0 1.515-1.246 2.756-2.787 2.756a2.777 2.777 0 01-2.739-2.258l-.003-.02-.006-.02-2.103-7.73-.972.233 3.505 16.828.009.043.016.04c.13.326.196.665.196 1.016 0 1.515-1.246 2.756-2.787 2.756h-.859v14.554c0 1.513-1.246 2.755-2.788 2.755-1.542 0-2.788-1.24-2.788-2.755V48.19h-1.786v14.554c0 1.514-1.247 2.755-2.788 2.755-1.542 0-2.788-1.24-2.788-2.755V48.19h-.858c-1.542 0-2.789-1.241-2.789-2.756 0-.347.066-.687.196-1.014l.016-.04.01-.044L9.112 27.51l-.972-.233-2.12 7.796-.006.02-.004.02c-.226 1.232-1.368 2.191-2.722 2.191C1.747 37.303.5 36.062.5 34.547c0-.12.01-.242.031-.375l.019-.116-.036-.113a.317.317 0 010-.185v-.001l4.91-16.934.008-.025.004-.026A2.76 2.76 0 018.174 14.5h14.652c1.36 0 2.5.954 2.736 2.272l.005.026.007.025 4.91 16.934z" fill="#000" stroke="#000"/></svg></svg>