<svg width="15" height="15" viewBox="0 0 20 20" fill="none" xmlns="http://www.w3.org/2000/svg">
<mask id="mask0" mask-type="alpha" maskUnits="userSpaceOnUse" x="0" y="0" width="20" height="20">
<rect width="20" height="20" fill="#262626"/>
</mask>
<g mask="url(#mask0)">
<path opacity="1" fill-rule="evenodd" clip-rule="evenodd" d="M17.1535 18.841C17.6674 19.3549 18.5005 19.3549 19.0143 18.841C19.5282 18.3272 19.5282 17.4941 19.0143 16.9802L12.0399 10.0058L19.0201 3.02559C19.534 2.51174 19.534 1.67863 19.0201 1.16478C18.5063 0.650931 17.6732 0.650932 17.1593 1.16478L10.1791 8.14499L3.19746 1.16335C2.68361 0.649499 1.8505 0.649499 1.33665 1.16335C0.822805 1.67719 0.822806 2.51031 1.33665 3.02415L8.31829 10.0058L1.34245 16.9816C0.8286 17.4955 0.8286 18.3286 1.34245 18.8424C1.8563 19.3563 2.68941 19.3563 3.20326 18.8424L10.1791 11.8666L17.1535 18.841Z" fill="#262626"/>
</g>
</svg>
